<svg width="71" height="71" fill="none" xmlns="http://www.w3.org/2000/svg"><path d="M35.386.668C16.06.668.388 16.34.388 35.669c0 19.33 15.67 35.005 34.998 35.005 19.328 0 35.002-15.676 35.002-35.005S54.714.668 35.386.668zm7.286 54.248c-1.801.71-3.235 1.25-4.31 1.623-1.074.374-2.32.56-3.74.56-2.18 0-3.879-.533-5.088-1.597-1.208-1.064-1.81-2.412-1.81-4.05 0-.638.044-1.29.133-1.953.092-.664.237-1.41.436-2.25l2.255-7.965c.198-.764.37-1.49.506-2.166a9.604 9.604 0 00.202-1.875c0-1.014-.21-1.725-.628-2.125-.424-.4-1.221-.596-2.41-.596-.58 0-1.178.086-1.792.267-.607.187-1.135.356-1.567.522l.595-2.454a56.127 56.127 0 014.237-1.544c1.349-.432 2.623-.646 3.823-.646 2.166 0 3.837.528 5.013 1.57 1.17 1.047 1.76 2.407 1.76 4.078 0 .347-.041.957-.121 1.829-.08.874-.232 1.67-.45 2.403l-2.244 7.941a22.455 22.455 0 00-.495 2.181c-.145.815-.216 1.437-.216 1.855 0 1.055.234 1.775.708 2.157.468.383 1.29.575 2.45.575.549 0 1.162-.098 1.855-.287.688-.19 1.186-.359 1.5-.504l-.602 2.45zm-.397-32.234c-1.046.972-2.305 1.458-3.778 1.458-1.47 0-2.737-.486-3.792-1.458-1.05-.972-1.58-2.155-1.58-3.535 0-1.378.534-2.564 1.58-3.544 1.055-.984 2.323-1.473 3.792-1.473 1.473 0 2.735.489 3.778 1.473 1.046.98 1.57 2.166 1.57 3.544 0 1.383-.524 2.563-1.57 3.535z" fill="url(#paint0_linear)"/><defs><linearGradient id="paint0_linear" x1=".388" y1=".668" x2="74.246" y2="6.781" gradientUnits="userSpaceOnUse"><stop stop-color="#051EFC"/><stop offset=".877" stop-color="#51A1FF"/></linearGradient></defs></svg>