<svg width="449" height="260" fill="none" xmlns="http://www.w3.org/2000/svg"><path d="M449 130c0 27.614-22.386 50-50 50s-50-22.386-50-50 22.386-50 50-50 50 22.386 50 50z" fill="url(#paint0_linear)"/><mask id="mask0" maskUnits="userSpaceOnUse" x="349" y="80" width="100" height="100"><circle cx="399" cy="130" r="50" fill="url(#paint1_linear)"/></mask><g mask="url(#mask0)"><path fill-rule="evenodd" clip-rule="evenodd" d="M420.867 134.788a11.441 11.441 0 003.41 4.012c2.323 2.093 4.723 4.267 4.723 7.2s-2.4 5.107-4.723 7.208a11.454 11.454 0 00-3.41 4.01 11.732 11.732 0 00.955 5.4v.001c.933 2.923 1.898 5.945.483 8.389-1.435 2.481-4.563 3.157-7.589 3.81h-.003c-1.81.201-3.547.826-5.071 1.824a11.587 11.587 0 00-1.825 5.075c-.654 3.025-1.334 6.153-3.809 7.588-2.447 1.415-5.461.452-8.38-.48l-.01-.003a11.765 11.765 0 00-5.398-.955 11.45 11.45 0 00-4.012 3.41C384.107 193.6 381.933 196 379 196s-5.107-2.4-7.208-4.723a11.454 11.454 0 00-4.01-3.41 11.773 11.773 0 00-5.4.955l-.006.001c-2.923.933-5.941 1.896-8.384.482-2.481-1.435-3.157-4.563-3.81-7.589v-.003a11.591 11.591 0 00-1.824-5.071 11.587 11.587 0 00-5.075-1.825c-3.025-.654-6.153-1.334-7.588-3.809-1.414-2.445-.451-5.464.482-8.386l.001-.004a11.739 11.739 0 00.955-5.398 11.45 11.45 0 00-3.41-4.012C331.4 151.107 329 148.933 329 146s2.4-5.107 4.723-7.208a11.454 11.454 0 003.41-4.01 11.732 11.732 0 00-.955-5.4v-.001c-.933-2.923-1.898-5.945-.483-8.389 1.435-2.481 4.563-3.157 7.589-3.81h.003a11.591 11.591 0 005.071-1.824 11.596 11.596 0 001.834-5.075c.653-3.025 1.333-6.153 3.808-7.588 2.444-1.414 5.458-.452 8.373.478l.017.005a11.767 11.767 0 005.398.955 11.441 11.441 0 004.012-3.41C373.893 98.4 376.067 96 379 96s5.107 2.4 7.208 4.723a11.454 11.454 0 004.01 3.41c1.85.111 3.701-.216 5.4-.955l.006-.001c2.923-.933 5.941-1.896 8.384-.482 2.481 1.435 3.157 4.563 3.81 7.589v.003c.201 1.81.826 3.547 1.824 5.071a11.596 11.596 0 005.075 1.834c3.025.653 6.153 1.333 7.588 3.808 1.414 2.446.451 5.464-.482 8.387l-.001.003a11.741 11.741 0 00-.955 5.398zm-3.22 21.57a13.163 13.163 0 014.393-5.62l.004-.003c1.782-1.614 3.623-3.281 3.623-4.735 0-1.454-1.841-3.121-3.623-4.735l-.004-.003a13.156 13.156 0 01-4.393-5.622 13.532 13.532 0 011-7.272c.713-2.231 1.448-4.54.773-5.708-.694-1.201-3.087-1.717-5.4-2.217l-.007-.001a13.383 13.383 0 01-6.728-2.727c-1.623-1.62-2.183-4.215-2.725-6.725l-.001-.004c-.5-2.315-1.016-4.71-2.221-5.408-1.166-.666-3.471.062-5.706.775a13.559 13.559 0 01-7.274 1 13.163 13.163 0 01-5.62-4.393l-.003-.004c-1.614-1.782-3.281-3.623-4.735-3.623-1.454 0-3.121 1.841-4.735 3.623l-.003.004a13.156 13.156 0 01-5.622 4.393c-2.247.604-4.803-.21-7.272-1l-.023-.007c-2.225-.711-4.516-1.444-5.678-.766-1.201.694-1.718 3.087-2.217 5.4l-.002.007a13.381 13.381 0 01-2.726 6.728c-1.62 1.623-4.215 2.183-6.725 2.725l-.004.001c-2.316.5-4.71 1.016-5.408 2.221-.667 1.166.062 3.475.775 5.706a13.538 13.538 0 011 7.274 13.171 13.171 0 01-4.393 5.62c-1.79 1.615-3.634 3.283-3.634 4.738 0 1.454 1.841 3.121 3.623 4.735l.004.003a13.156 13.156 0 014.393 5.622 13.532 13.532 0 01-1 7.272c-.713 2.231-1.448 4.535-.773 5.701.694 1.201 3.087 1.718 5.4 2.217l.007.002a13.381 13.381 0 016.728 2.726c1.623 1.62 2.183 4.215 2.725 6.725l.001.004c.5 2.316 1.016 4.71 2.221 5.408 1.166.667 3.47-.062 5.706-.775a19.228 19.228 0 015.584-1.203 6.555 6.555 0 011.69.21 13.163 13.163 0 015.62 4.393l.003.004c1.614 1.782 3.281 3.623 4.735 3.623 1.454 0 3.121-1.841 4.735-3.623l.003-.004a13.156 13.156 0 015.622-4.393 13.57 13.57 0 017.272 1l.003.001c2.229.711 4.534 1.447 5.705.772 1.201-.694 1.717-3.087 2.217-5.4l.001-.007a13.383 13.383 0 012.727-6.728c1.62-1.623 4.215-2.183 6.725-2.725l.004-.001c2.315-.5 4.71-1.016 5.408-2.221.666-1.166-.062-3.475-.775-5.706a13.538 13.538 0 01-1-7.274zm-36.98-42.025a1.667 1.667 0 01-3.334 0V111a1.668 1.668 0 013.334 0v3.333zm-11.474 1.51a1.666 1.666 0 002.044 1.179 1.668 1.668 0 001.178-2.04l-.863-3.22a1.666 1.666 0 10-3.219.863l.86 3.218zm-6.259-1.002l.003.005.005.009 1.666 2.888a1.666 1.666 0 11-2.886 1.667l-1.667-2.889a1.666 1.666 0 112.876-1.685l.003.005zm-7.504 9.946a1.669 1.669 0 002.356 0 1.667 1.667 0 00.001-2.357l-2.359-2.358a1.665 1.665 0 10-2.356 2.356l2.358 2.359zm-2.358 44.785l2.358-2.359a1.668 1.668 0 012.357 2.357l-2.359 2.358a1.664 1.664 0 01-2.844-1.178c0-.442.175-.866.488-1.178zm10.934 2.423a1.667 1.667 0 00-2.281.595l-1.667 2.888a1.666 1.666 0 102.887 1.667l1.667-2.888c.45-.793.18-1.801-.606-2.262zm5.187 4.162a1.668 1.668 0 013.22.861l-.863 3.22a1.666 1.666 0 11-3.218-.863l.861-3.218zM379 176c-.92 0-1.667.746-1.667 1.667V181a1.668 1.668 0 003.334 0v-3.333c0-.921-.747-1.667-1.667-1.667zm7.776-1.017a1.667 1.667 0 012.031 1.174l.861 3.218a1.666 1.666 0 11-3.218.863l-.863-3.22a1.666 1.666 0 011.189-2.035zm9.499-2.393l-.011-.019a1.667 1.667 0 10-2.876 1.686l1.667 2.888a1.669 1.669 0 002.277.61 1.666 1.666 0 00.61-2.276l-1.667-2.889zm3.979-5.377a1.667 1.667 0 012.316 0l2.358 2.359a1.666 1.666 0 11-2.356 2.356l-2.359-2.358a1.668 1.668 0 01.041-2.357zm1.138-41.938c.442 0 .866-.176 1.178-.488l2.358-2.359.041-.04a1.667 1.667 0 00-2.397-2.316l-2.359 2.358a1.667 1.667 0 001.179 2.845zm-5.114-5.865a1.666 1.666 0 01-2.886-1.666l1.666-2.889a1.667 1.667 0 012.898 1.647l-.011.02-1.667 2.888zm-9.513-2.388a1.667 1.667 0 002.042-1.179l.861-3.218.024-.087a1.668 1.668 0 00-3.242-.776l-.863 3.22a1.667 1.667 0 001.178 2.04zM372.333 156H384a1.667 1.667 0 010 3.333h-13.333a1.666 1.666 0 01-1.667-1.666v-23.334c0-.92.746-1.666 1.667-1.666H384a1.667 1.667 0 110 3.333h-11.667v8.333h8.334a1.667 1.667 0 010 3.334h-8.334V156zm-11.268 2.707c.116.139.253.258.408.351.054.04.109.076.167.109.216.106.453.163.693.166a1.67 1.67 0 00.58-.116c.063-.028.124-.058.184-.092.07-.03.137-.064.203-.103a.255.255 0 00.051-.053.293.293 0 01.037-.042c.089-.076.169-.161.239-.254.134-.157.229-.344.278-.545a1.71 1.71 0 00.067-.333c0-.023.006-.045.013-.067a.21.21 0 00.013-.066v-23.329a1.666 1.666 0 10-3.331 0v18.134l-13.645-19.102c-.015-.021-.034-.036-.053-.051a.293.293 0 01-.042-.037 1.596 1.596 0 00-.254-.239 1.73 1.73 0 00-.251-.166 1.814 1.814 0 00-.29-.109 1.52 1.52 0 00-.334-.066c-.022 0-.043-.007-.064-.013a.204.204 0 00-.066-.014c-.056.008-.112.02-.166.035-.114.01-.225.031-.334.065a1.702 1.702 0 00-.311.14 1.485 1.485 0 00-.157.072.229.229 0 00-.051.052.3.3 0 01-.037.043c-.089.075-.169.16-.239.253a1.595 1.595 0 00-.166.25 1.475 1.475 0 00-.11.295c-.034.109-.056.22-.067.333 0 .024-.007.045-.013.067-.007.022-.014.043-.014.067v23.325a1.666 1.666 0 003.334 0v-18.134l13.645 19.102a.156.156 0 00.045.04c.013.01.027.019.038.032zm51.618-26.004l.005.001a1.666 1.666 0 011.275 1.983l-5 23.333a1.665 1.665 0 01-1.536 1.313h-.094a1.666 1.666 0 01-1.58-1.14l-5.086-15.256-5.094 15.256a1.678 1.678 0 01-1.666 1.137 1.666 1.666 0 01-1.537-1.313l-5-23.334a1.668 1.668 0 013.26-.7l3.72 17.364 4.73-14.207a1.666 1.666 0 013.167 0l4.736 14.207 3.72-17.364.001-.001a1.666 1.666 0 011.979-1.279z" fill="#fff" style="mix-blend-mode:overlay"/></g><g filter="url(#filter0_d)"><path fill-rule="evenodd" clip-rule="evenodd" d="M40 30c-5.523 0-10 4.477-10 10v180c0 5.523 4.477 10 10 10h350c5.523 0 10-4.477 10-10v-30.003l-.6.003c-35.031 0-63.429-26.863-63.429-60s28.398-60 63.429-60c.2 0 .4 0 .6.003V40c0-5.523-4.477-10-10-10H40z" fill="#fff"/></g><g filter="url(#filter1_d)"><path d="M390 199.888h.5v-.473l-.472-.027-.028.5zm0-139.776l.028.5.472-.027v-.473h-.5zM39.5 53.636a.5.5 0 001 0h-1zm1 7.273a.5.5 0 00-1 0h1zm-1 7.273a.5.5 0 101 0h-1zm1 7.272a.5.5 0 00-1 0h1zm-1 7.273a.5.5 0 001 0h-1zm1 7.273a.5.5 0 00-1 0h1zm-1 7.273a.5.5 0 101 0h-1zm1 7.272a.5.5 0 00-1 0h1zm-1 7.273a.5.5 0 001 0h-1zm1 7.273a.5.5 0 00-1 0h1zm-1 7.273a.5.5 0 001 0h-1zm1 7.272a.5.5 0 00-1 0h1zm-1 7.273a.5.5 0 001 0h-1zm1 7.273a.5.5 0 00-1 0h1zm-1 7.273a.5.5 0 001 0h-1zm1 7.272a.5.5 0 00-1 0h1zm-1 7.273a.5.5 0 001 0h-1zm1 7.273a.5.5 0 00-1 0h1zm-1 7.272a.5.5 0 101 0h-1zm1 7.273a.5.5 0 00-1 0h1zm-1 7.273a.5.5 0 001 0h-1zm1 7.273a.5.5 0 10-1 0h1zm-.203 7.655a.5.5 0 10.924-.383l-.924.383zm6.067 4.76a.5.5 0 00-.383.924l.383-.924zm7.074 1.721a.5.5 0 000-1v1zm6.874-1a.5.5 0 000 1v-1zm6.876 1a.5.5 0 000-1v1zm6.874-1a.5.5 0 000 1v-1zm6.876 1a.5.5 0 000-1v1zm6.874-1a.5.5 0 000 1v-1zm6.876 1a.5.5 0 000-1v1zm6.874-1a.5.5 0 000 1v-1zm6.876 1a.5.5 0 000-1v1zm6.874-1a.5.5 0 000 1v-1zm6.876 1a.5.5 0 000-1v1zm6.874-1a.5.5 0 000 1v-1zm6.875 1a.5.5 0 100-1v1zm6.875-1a.5.5 0 000 1v-1zm6.876 1a.5.5 0 000-1v1zm6.874-1a.5.5 0 000 1v-1zm6.876 1a.5.5 0 000-1v1zm6.874-1a.5.5 0 000 1v-1zm6.876 1a.5.5 0 000-1v1zm6.874-1a.5.5 0 000 1v-1zm6.876 1a.5.5 0 000-1v1zm6.874-1a.5.5 0 000 1v-1zm6.876 1a.5.5 0 000-1v1zm6.874-1a.5.5 0 000 1v-1zm6.876 1a.5.5 0 000-1v1zm6.874-1a.5.5 0 000 1v-1zm6.876 1a.5.5 0 000-1v1zm6.874-1a.5.5 0 000 1v-1zm6.876 1a.5.5 0 000-1v1zm6.874-1a.5.5 0 000 1v-1zm6.876 1a.5.5 0 000-1v1zm6.874-1a.5.5 0 000 1v-1zm6.876 1a.5.5 0 000-1v1zm6.874-1a.5.5 0 000 1v-1zm6.876 1a.5.5 0 000-1v1zm6.874-1a.5.5 0 000 1v-1zm6.876 1a.5.5 0 000-1v1zm6.874-1a.5.5 0 000 1v-1zm6.876 1a.5.5 0 000-1v1zm6.874-1a.5.5 0 000 1v-1zm6.876 1a.5.5 0 000-1v1zm6.874-1a.5.5 0 000 1v-1zm6.876 1a.5.5 0 000-1v1zm6.874-1a.5.5 0 000 1v-1zm6.876 1a.5.5 0 000-1v1zm6.874-1a.5.5 0 000 1v-1zm6.876 1a.5.5 0 000-1v1zm6.874-1a.5.5 0 000 1v-1zm7.457.203a.5.5 0 10-.383-.924l.383.924zm4.76-6.067a.5.5 0 10.924.383l-.924-.383zm1.721-6.164a.5.5 0 00-1 0h1zm-1-5.056a.5.5 0 001 0h-1zm-2.75-3.29a.5.5 0 10-.103.995l.103-.995zm-6.696-.005a.5.5 0 10.197-.981l-.197.981zm-6.179-2.579a.5.5 0 00-.289.957l.289-.957zm-6.573-1.273a.499.499 0 10.379-.925l-.379.925zm-5.578-3.702a.499.499 0 10-.465.885l.465-.885zm-6.215-2.492a.501.501 0 00.547-.837l-.547.837zm-4.781-4.686a.5.5 0 10-.623.782l.623-.782zm-5.637-3.613a.5.5 0 00.694-.721l-.694.721zm-3.821-5.499a.5.5 0 00-.758.652l.758-.652zm-4.861-4.604a.5.5 0 10.816-.577l-.816.577zm-2.723-6.116a.5.5 0 10-.867.498l.867-.498zm-3.909-5.436a.5.5 0 10.91-.413l-.91.413zm-1.52-6.52a.5.5 0 10-.945.325l.945-.325zm-2.81-6.077a.5.5 0 00.973-.233l-.973.233zm-.257-6.69a.5.5 0 10-.99.14l.99-.14zm-1.613-6.5a.5.5 0 00.999-.046l-.999.046zm.999-6.622a.5.5 0 10-.999-.046l.999.046zm-.376-6.686a.5.5 0 10.99.14l-.99-.14zm2.22-6.317a.5.5 0 00-.973-.233l.973.233zm.892-6.635a.5.5 0 10.945.325l-.945-.325zm3.375-5.782a.5.5 0 10-.91-.413l.91.413zm2.132-6.347a.5.5 0 00.867.498l-.867-.498zm4.406-5.04a.5.5 0 10-.816-.578l.816.577zm3.287-5.834a.5.5 0 00.758.652l-.758-.652zm5.273-4.126a.5.5 0 00-.694-.72l.694.72zm4.32-5.116a.5.5 0 10.623.782l-.623-.782zm5.951-3.067a.501.501 0 00-.547-.837l.547.837zm5.203-4.214a.499.499 0 10.465.885l-.465-.885zm6.422-1.892a.5.5 0 10-.379-.925l.379.925zm5.905-3.155a.5.5 0 00.289.957l-.289-.957zm6.665-.641a.5.5 0 10-.197-.98l.197.98zm6.396-1.981a.5.5 0 00.103.995l-.103-.995zm3.853-2.295a.5.5 0 00-1 0h1zm-1-5.056a.5.5 0 001 0h-1zm.203-6.547a.5.5 0 10-.924.383l.924-.383zm-6.067-4.76a.5.5 0 00.383-.924l-.383.924zm-7.074-1.721a.5.5 0 000 1v-1zm-6.874 1a.5.5 0 000-1v1zm-6.876-1a.5.5 0 000 1v-1zm-6.874 1a.5.5 0 000-1v1zm-6.876-1a.5.5 0 000 1v-1zm-6.874 1a.5.5 0 000-1v1zm-6.876-1a.5.5 0 000 1v-1zm-6.874 1a.5.5 0 000-1v1zm-6.876-1a.5.5 0 000 1v-1zm-6.874 1a.5.5 0 000-1v1zm-6.876-1a.5.5 0 000 1v-1zm-6.874 1a.5.5 0 000-1v1zm-6.876-1a.5.5 0 000 1v-1zm-6.874 1a.5.5 0 000-1v1zm-6.876-1a.5.5 0 000 1v-1zm-6.874 1a.5.5 0 000-1v1zm-6.876-1a.5.5 0 000 1v-1zm-6.874 1a.5.5 0 000-1v1zm-6.876-1a.5.5 0 000 1v-1zm-6.874 1a.5.5 0 000-1v1zm-6.876-1a.5.5 0 000 1v-1zm-6.874 1a.5.5 0 000-1v1zm-6.876-1a.5.5 0 000 1v-1zm-6.874 1a.5.5 0 000-1v1zm-6.876-1a.5.5 0 000 1v-1zm-6.874 1a.5.5 0 000-1v1zm-6.876-1a.5.5 0 000 1v-1zm-6.874 1a.5.5 0 000-1v1zm-6.876-1a.5.5 0 000 1v-1zm-6.874 1a.5.5 0 000-1v1zm-6.876-1a.5.5 0 000 1v-1zm-6.874 1a.5.5 0 000-1v1zm-6.875-1a.5.5 0 100 1v-1zm-6.876 1a.5.5 0 100-1v1zm-6.875-1a.5.5 0 000 1v-1zm-6.874 1a.5.5 0 000-1v1zm-6.876-1a.5.5 0 000 1v-1zm-6.874 1a.5.5 0 000-1v1zm-6.875-1a.5.5 0 100 1v-1zm-6.876 1a.5.5 0 100-1v1zm-6.875-1a.5.5 0 000 1v-1zm-6.874 1a.5.5 0 000-1v1zm-6.876-1a.5.5 0 000 1v-1zm-6.874 1a.5.5 0 000-1v1zm-6.876-1a.5.5 0 000 1v-1zm-6.874 1a.5.5 0 000-1v1zm-6.876-1a.5.5 0 000 1v-1zm-6.874 1a.5.5 0 000-1v1zm-7.457-.203a.5.5 0 00.383.924l-.383-.924zm-4.76 6.067a.5.5 0 00-.924-.383l.924.383zM39.5 50v3.636h1V50h-1zm0 10.91v7.272h1v-7.273h-1zm0 14.544v7.273h1v-7.273h-1zM39.5 90v7.273h1V90h-1zm0 14.545v7.273h1v-7.273h-1zm0 14.546v7.273h1v-7.273h-1zm0 14.545v7.273h1v-7.273h-1zm0 14.546v7.273h1v-7.273h-1zm0 14.545V170h1v-7.273h-1zm0 14.546v7.272h1v-7.272h-1zm0 14.545v7.273h1v-7.273h-1zm0 14.546V210h1v-3.636h-1zm0 3.636c0 1.423.283 2.781.797 4.019l.924-.383A9.467 9.467 0 0140.5 210h-1zm6.48 9.703c1.24.514 2.597.797 4.02.797v-1a9.456 9.456 0 01-3.636-.721l-.383.924zm4.02.797h3.438v-1H50v1zm10.313 0h6.874v-1h-6.874v1zm13.75 0h6.874v-1h-6.874v1zm13.75 0h6.874v-1h-6.874v1zm13.749 0h6.876v-1h-6.876v1zm13.75 0h6.876v-1h-6.876v1zm13.75 0h6.875v-1h-6.875v1zm13.75 0h6.876v-1h-6.876v1zm13.75 0h6.876v-1h-6.876v1zm13.75 0h6.876v-1h-6.876v1zm13.75 0h6.876v-1h-6.876v1zm13.75 0h6.876v-1h-6.876v1zm13.75 0h6.876v-1h-6.876v1zm13.75 0h6.876v-1h-6.876v1zm13.75 0h6.876v-1h-6.876v1zm13.75 0h6.876v-1h-6.876v1zm13.75 0h6.876v-1h-6.876v1zm13.75 0h6.876v-1h-6.876v1zm13.75 0h6.876v-1h-6.876v1zm13.75 0h6.876v-1h-6.876v1zm13.75 0h6.876v-1h-6.876v1zm13.75 0h6.876v-1h-6.876v1zm13.75 0h6.876v-1h-6.876v1zm13.75 0h6.876v-1h-6.876v1zm13.75 0H380v-1h-3.438v1zm3.438 0c1.423 0 2.781-.283 4.019-.797l-.383-.924a9.452 9.452 0 01-3.636.721v1zm9.703-6.481c.514-1.238.797-2.596.797-4.019h-1a9.452 9.452 0 01-.721 3.636l.924.383zM390.5 210v-2.528h-1V210h1zm0-7.584v-2.528h-1v2.528h1zm-.472-3.028a69.392 69.392 0 01-3.278-.262l-.103.995c1.101.114 2.21.203 3.325.266l.056-.999zm-9.777-1.248a69.002 69.002 0 01-6.376-1.598l-.289.957a70.277 70.277 0 006.468 1.622l.197-.981zm-12.57-3.796a69.248 69.248 0 01-5.957-2.777l-.465.885a69.901 69.901 0 006.043 2.817l.379-.925zm-11.625-6.106a69.7 69.7 0 01-5.328-3.849l-.623.782a70.749 70.749 0 005.404 3.904l.547-.837zm-10.271-8.183a69.792 69.792 0 01-4.515-4.778l-.758.652a71.067 71.067 0 004.579 4.847l.694-.721zm-8.56-9.959a69.786 69.786 0 01-3.539-5.539l-.867.498a70.565 70.565 0 003.59 5.618l.816-.577zm-6.538-11.388a69.289 69.289 0 01-2.43-6.107l-.945.325a69.926 69.926 0 002.465 6.195l.91-.413zm-4.267-12.417a69.146 69.146 0 01-1.23-6.457l-.99.14a70.36 70.36 0 001.247 6.55l.973-.233zm-1.844-13.003A71.742 71.742 0 01324.5 130h-1c0 1.118.026 2.229.077 3.334l.999-.046zM324.5 130c0-1.102.026-2.198.076-3.288l-.999-.046A72.292 72.292 0 00323.5 130h1zm.69-9.834c.31-2.186.721-4.34 1.23-6.457l-.973-.233a70.36 70.36 0 00-1.247 6.55l.99.14zm3.067-12.767a69.289 69.289 0 012.43-6.107l-.91-.413a69.926 69.926 0 00-2.465 6.195l.945.325zm5.429-11.956a69.806 69.806 0 013.539-5.539l-.816-.577a70.615 70.615 0 00-3.59 5.618l.867.498zm7.584-10.72a69.937 69.937 0 014.515-4.778l-.694-.72a70.968 70.968 0 00-4.579 4.846l.758.652zm9.458-9.112a69.73 69.73 0 015.328-3.849l-.547-.837a70.726 70.726 0 00-5.404 3.904l.623.782zm10.996-7.178a69.158 69.158 0 015.957-2.777l-.379-.925a70.233 70.233 0 00-6.043 2.817l.465.885zm12.151-4.975a69.1 69.1 0 016.376-1.598l-.197-.98c-2.194.44-4.352.982-6.468 1.62l.289.958zm12.875-2.584c1.086-.113 2.178-.2 3.278-.262l-.056-.999a70.987 70.987 0 00-3.325.266l.103.995zm3.75-.762v-2.528h-1v2.528h1zm0-7.584V50h-1v2.528h1zm0-2.528c0-1.423-.283-2.78-.797-4.02l-.924.384A9.456 9.456 0 01389.5 50h1zm-6.481-9.703A10.466 10.466 0 00380 39.5v1c1.289 0 2.517.257 3.636.72l.383-.923zM380 39.5h-3.438v1H380v-1zm-10.312 0h-6.876v1h6.876v-1zm-13.75 0h-6.876v1h6.876v-1zm-13.75 0h-6.876v1h6.876v-1zm-13.75 0h-6.876v1h6.876v-1zm-13.75 0h-6.876v1h6.876v-1zm-13.75 0h-6.876v1h6.876v-1zm-13.75 0h-6.876v1h6.876v-1zm-13.75 0h-6.876v1h6.876v-1zm-13.75 0h-6.876v1h6.876v-1zm-13.75 0h-6.876v1h6.876v-1zm-13.75 0h-6.876v1h6.876v-1zm-13.75 0h-6.876v1h6.876v-1zm-13.75 0h-6.876v1h6.876v-1zm-13.75 0h-6.876v1h6.876v-1zm-13.75 0h-6.876v1h6.876v-1zm-13.75 0h-6.875v1h6.875v-1zm-13.751 0h-6.875v1h6.875v-1zm-13.749 0h-6.876v1h6.876v-1zm-13.75 0h-6.875v1h6.875v-1zm-13.751 0h-6.875v1h6.875v-1zm-13.75 0h-6.874v1h6.874v-1zm-13.75 0h-6.874v1h6.874v-1zm-13.75 0h-6.874v1h6.874v-1zm-13.75 0H50v1h3.438v-1zM50 39.5c-1.423 0-2.78.283-4.02.797l.384.924A9.47 9.47 0 0150 40.5v-1zm-9.703 6.48A10.471 10.471 0 0039.5 50h1a9.47 9.47 0 01.72-3.636l-.923-.383z" fill="#E5E5E5"/></g><defs><linearGradient id="paint0_linear" x1="397.636" y1="180" x2="397.636" y2="80" gradientUnits="userSpaceOnUse"><stop stop-color="#FCCB05"/><stop offset="1" stop-color="#FFE57D"/></linearGradient><linearGradient id="paint1_linear" x1="397.636" y1="180" x2="397.636" y2="80" gradientUnits="userSpaceOnUse"><stop stop-color="#FCCB05"/><stop offset="1" stop-color="#FFE57D"/></linearGradient><filter id="filter0_d" x="0" y="0" width="430" height="260" filterUnits="userSpaceOnUse" color-interpolation-filters="sRGB"><feFlood flood-opacity="0" result="BackgroundImageFix"/><feColorMatrix in="SourceAlpha" values="0 0 0 0 0 0 0 0 0 0 0 0 0 0 0 0 0 0 127 0"/><feOffset/><feGaussianBlur stdDeviation="15"/><feColorMatrix values="0 0 0 0 0 0 0 0 0 0 0 0 0 0 0 0 0 0 0.1 0"/><feBlend in2="BackgroundImageFix" result="effect1_dropShadow"/><feBlend in="SourceGraphic" in2="effect1_dropShadow" result="shape"/></filter><filter id="filter1_d" x="9.5" y="9.5" width="411" height="241" filterUnits="userSpaceOnUse" color-interpolation-filters="sRGB"><feFlood flood-opacity="0" result="BackgroundImageFix"/><feColorMatrix in="SourceAlpha" values="0 0 0 0 0 0 0 0 0 0 0 0 0 0 0 0 0 0 127 0"/><feOffset/><feGaussianBlur stdDeviation="15"/><feColorMatrix values="0 0 0 0 0 0 0 0 0 0 0 0 0 0 0 0 0 0 0.1 0"/><feBlend in2="BackgroundImageFix" result="effect1_dropShadow"/><feBlend in="SourceGraphic" in2="effect1_dropShadow" result="shape"/></filter></defs></svg>