<svg width="449" height="260" fill="none" xmlns="http://www.w3.org/2000/svg"><path d="M449 130c0 27.614-22.386 50-50 50s-50-22.386-50-50 22.386-50 50-50 50 22.386 50 50z" fill="url(#paint0_linear)"/><mask id="mask0" maskUnits="userSpaceOnUse" x="349" y="80" width="100" height="100"><circle cx="399" cy="130" r="50" fill="url(#paint1_linear)"/></mask><g mask="url(#mask0)"><path fill-rule="evenodd" clip-rule="evenodd" d="M380.195 108.032a1.691 1.691 0 01-1.382-.719 1.686 1.686 0 01-.203-1.544l1.477-4.059a40.198 40.198 0 00-8.858 1.546l-.195 5.603a1.684 1.684 0 01-1.683 1.628h-.059a1.69 1.69 0 01-1.628-1.744l.15-4.318a40.226 40.226 0 00-7.614 3.983l-.334.226 1.547 5.387a1.686 1.686 0 01-1.628 2.152 1.69 1.69 0 01-1.621-1.221l-1.187-4.149a40.199 40.199 0 00-6.255 6.455l3.137 4.648a1.685 1.685 0 01-1.398 2.629 1.686 1.686 0 01-1.4-.742l-2.415-3.58a40.086 40.086 0 00-3.955 8.072l4.417 3.448a1.683 1.683 0 01.556 1.878 1.692 1.692 0 01-1.596 1.138c-.375 0-.74-.126-1.035-.358l-3.404-2.657a40.182 40.182 0 00-1.268 8.908l5.267 1.916a1.684 1.684 0 01-.577 3.274 1.684 1.684 0 01-.575-.103l-4.059-1.476a40.102 40.102 0 001.546 8.86l5.601.193a1.683 1.683 0 011.659 1.715 1.686 1.686 0 01-1.716 1.658h-.059l-4.316-.15a40.183 40.183 0 004.207 7.947l5.386-1.546a1.686 1.686 0 11.929 3.243l-4.147 1.19a39.889 39.889 0 006.457 6.259l4.648-3.137a1.702 1.702 0 011.265-.257 1.676 1.676 0 011.077.712 1.686 1.686 0 01-.454 2.342l-3.581 2.417a40.158 40.158 0 008.079 3.958l3.446-4.421a1.69 1.69 0 012.353-.272 1.687 1.687 0 01.306 2.349l-2.657 3.405a40.124 40.124 0 008.901 1.267l1.917-5.27a1.681 1.681 0 011.514-1.138 1.691 1.691 0 011.227.447 1.693 1.693 0 01.428 1.845l-1.476 4.06c2.996-.182 5.968-.7 8.86-1.547l.193-5.595a1.718 1.718 0 011.743-1.628 1.685 1.685 0 011.627 1.745l-.148 4.309a40.108 40.108 0 007.948-4.209l-1.548-5.389a1.684 1.684 0 011.81-2.169 1.68 1.68 0 011.432 1.238l1.19 4.155a40.178 40.178 0 006.261-6.461l-3.136-4.648a1.685 1.685 0 01.454-2.342 1.69 1.69 0 012.342.455l2.416 3.581a40.172 40.172 0 003.956-8.077l-4.42-3.449a1.671 1.671 0 01-.636-1.123 1.675 1.675 0 01.344-1.245 1.675 1.675 0 011.124-.636 1.688 1.688 0 011.244.344l3.406 2.659a40.23 40.23 0 001.267-8.904l-5.27-1.916a1.688 1.688 0 01-.12-3.096 1.69 1.69 0 011.274-.074l4.056 1.474a40.203 40.203 0 00-1.554-8.856l-5.59-.194a1.69 1.69 0 01-1.095-2.92 1.686 1.686 0 011.209-.454l4.302.148a40.255 40.255 0 00-4.211-7.941l-5.369 1.542a1.686 1.686 0 01-1.882-2.538c.222-.341.559-.591.949-.704l4.133-1.186a40.118 40.118 0 00-6.454-6.253l-4.63 3.131a1.69 1.69 0 01-2.554-.909 1.688 1.688 0 01.667-1.891l3.564-2.407a40.253 40.253 0 00-8.069-3.957l-3.442 4.406a1.684 1.684 0 01-2.846-.297 1.683 1.683 0 01.188-1.777l2.651-3.395a40.219 40.219 0 00-8.898-1.275l-1.914 5.26a1.685 1.685 0 01-1.586 1.118zm15.42-7.756a43.568 43.568 0 00-12.691-2.012 1.684 1.684 0 00-.772 0 43.553 43.553 0 00-24.967 8.128 1.64 1.64 0 00-.506.367 43.506 43.506 0 00-9.354 9.406 43.563 43.563 0 00-6.087 11.781 1.709 1.709 0 00-.255.783 43.594 43.594 0 00-2.013 13.03 43.577 43.577 0 002.117 13.477l.028.085a43.554 43.554 0 006.099 11.998c.043.07.091.136.144.199a43.567 43.567 0 009.491 9.486l.009.007.029.023.023.017.081.056a43.57 43.57 0 0011.935 6.092c.091.039.186.07.282.092a43.558 43.558 0 0013.285 2.085h.06a43.578 43.578 0 0013.183-2.066c.168-.028.33-.081.481-.157a43.58 43.58 0 0011.647-5.933 1.7 1.7 0 00.484-.352 43.588 43.588 0 009.239-9.246c.118-.118.218-.253.297-.401l.012-.024a43.62 43.62 0 005.975-11.736 1.813 1.813 0 00.122-.373 43.627 43.627 0 002.083-13.12 1.626 1.626 0 000-.296 43.55 43.55 0 00-2.033-13.006 1.68 1.68 0 00-.194-.599 43.576 43.576 0 00-5.838-11.498 1.66 1.66 0 00-.488-.673 43.55 43.55 0 00-9.098-9.094 1.661 1.661 0 00-.585-.425 43.519 43.519 0 00-11.46-5.852 1.706 1.706 0 00-.765-.249zm7.757 56.437a1.684 1.684 0 001.671.03c.249-.135.46-.331.613-.57a26.154 26.154 0 002.49-5.091 1.692 1.692 0 00-1.012-2.162 1.688 1.688 0 00-2.161 1.012 22.608 22.608 0 01-2.164 4.424 1.678 1.678 0 00.563 2.357zm-20.967 12.349h-.008a27.24 27.24 0 01-26.586-32.59 27.249 27.249 0 0121.367-21.369 27.245 27.245 0 0127.943 11.5 27.244 27.244 0 014.644 15.088 1.69 1.69 0 01-1.678 1.687h-.009a1.69 1.69 0 01-1.687-1.679 23.871 23.871 0 00-28.556-23.287 23.876 23.876 0 00-18.717 18.725 23.873 23.873 0 0023.295 28.551 1.688 1.688 0 01-.008 3.374zm7.721-1.915a1.687 1.687 0 001.657.295 26.6 26.6 0 004.972-2.412 1.69 1.69 0 00.544-2.324 1.69 1.69 0 00-2.324-.544 23.162 23.162 0 01-4.339 2.109 1.688 1.688 0 00-.51 2.876zm-7.603-18.136a7.194 7.194 0 01-1.405-14.248 7.191 7.191 0 016.488 12.138 7.196 7.196 0 01-5.083 2.11zm0-11.011a3.817 3.817 0 00-3.747 4.564 3.818 3.818 0 106.445-3.444 3.82 3.82 0 00-2.698-1.12zm-2.741-6.965c.812.541 1.766.83 2.741.829a4.937 4.937 0 004.925-4.931 4.932 4.932 0 00-5.894-4.835 4.926 4.926 0 00-3.872 3.876 4.93 4.93 0 002.1 5.061zm1.876-5.396a1.558 1.558 0 011.965.194 1.56 1.56 0 01.195 1.965 1.568 1.568 0 01-.699.574 1.566 1.566 0 01-1.697-.338 1.555 1.555 0 01.236-2.395zm-13.297 16.51a4.93 4.93 0 11.013-9.86 4.93 4.93 0 01-.013 9.86zm-1.475-5.411a1.56 1.56 0 002.189 1.868 1.559 1.559 0 00-.227-2.868 1.557 1.557 0 00-1.962 1zm3.99 21.112a4.883 4.883 0 002.888.943 4.947 4.947 0 003.997-2.034 4.927 4.927 0 00-4.76-7.769 4.933 4.933 0 00-3.854 6.578c.338.915.94 1.709 1.729 2.282zm1.993-5.25a1.553 1.553 0 011.622-.125 1.542 1.542 0 01.829 1.144 1.559 1.559 0 01-1.057 1.723 1.558 1.558 0 01-1.394-2.742zm18.412 6.193a4.932 4.932 0 01-4.218-7.501 4.93 4.93 0 117.107 6.558 4.893 4.893 0 01-2.889.943zm-.007-6.488a1.56 1.56 0 00-1.55 1.679 1.546 1.546 0 001.31 1.411 1.562 1.562 0 001.722-1.06 1.556 1.556 0 00-1.482-2.037v.007zm2.822-10.882a4.934 4.934 0 002.576.73 4.95 4.95 0 003.991-2.034 4.96 4.96 0 00.883-2.127 4.954 4.954 0 00-.178-2.297 4.934 4.934 0 00-8.679-1.376 4.936 4.936 0 001.407 7.104zm2.094-5.685a1.562 1.562 0 011.961 1 1.556 1.556 0 01-2.839 1.241 1.563 1.563 0 01.878-2.241zm-34.868 62.489h-19.937c-.447 0-.876-.177-1.192-.494a1.683 1.683 0 010-2.385 1.682 1.682 0 011.192-.494h19.937a1.683 1.683 0 011.192 2.879 1.682 1.682 0 01-1.192.494zm-33.492 0h3.188a1.683 1.683 0 001.687-1.686 1.687 1.687 0 00-1.687-1.687h-3.188a1.686 1.686 0 100 3.373zm13.689-22.317h-18.275a1.683 1.683 0 01-1.687-1.686 1.687 1.687 0 011.687-1.687h18.275a1.686 1.686 0 010 3.373zm-31.832 0h3.19c.447 0 .876-.177 1.192-.494a1.682 1.682 0 000-2.385 1.686 1.686 0 00-1.192-.494h-3.19a1.687 1.687 0 100 3.373zm41.431 11.153H331.18a1.69 1.69 0 01-1.687-1.687 1.686 1.686 0 011.687-1.687h19.938a1.687 1.687 0 010 3.374zm-33.495 0h3.197a1.69 1.69 0 001.687-1.687 1.686 1.686 0 00-1.687-1.687h-3.197c-.447 0-.876.178-1.192.495a1.682 1.682 0 000 2.385c.316.316.745.494 1.192.494z" fill="#fff" style="mix-blend-mode:overlay"/></g><g filter="url(#filter0_d)"><path fill-rule="evenodd" clip-rule="evenodd" d="M40 30c-5.523 0-10 4.477-10 10v180c0 5.523 4.477 10 10 10h350c5.523 0 10-4.477 10-10v-30.003l-.6.003c-35.031 0-63.429-26.863-63.429-60s28.398-60 63.429-60c.2 0 .4 0 .6.003V40c0-5.523-4.477-10-10-10H40z" fill="#fff"/></g><g filter="url(#filter1_d)"><path d="M390 199.888h.5v-.473l-.472-.027-.028.5zm0-139.776l.028.5.472-.027v-.473h-.5zM39.5 53.636a.5.5 0 001 0h-1zm1 7.273a.5.5 0 00-1 0h1zm-1 7.273a.5.5 0 101 0h-1zm1 7.272a.5.5 0 00-1 0h1zm-1 7.273a.5.5 0 001 0h-1zm1 7.273a.5.5 0 00-1 0h1zm-1 7.273a.5.5 0 101 0h-1zm1 7.272a.5.5 0 00-1 0h1zm-1 7.273a.5.5 0 001 0h-1zm1 7.273a.5.5 0 00-1 0h1zm-1 7.273a.5.5 0 001 0h-1zm1 7.272a.5.5 0 00-1 0h1zm-1 7.273a.5.5 0 001 0h-1zm1 7.273a.5.5 0 00-1 0h1zm-1 7.273a.5.5 0 001 0h-1zm1 7.272a.5.5 0 00-1 0h1zm-1 7.273a.5.5 0 001 0h-1zm1 7.273a.5.5 0 00-1 0h1zm-1 7.272a.5.5 0 101 0h-1zm1 7.273a.5.5 0 00-1 0h1zm-1 7.273a.5.5 0 001 0h-1zm1 7.273a.5.5 0 10-1 0h1zm-.203 7.655a.5.5 0 10.924-.383l-.924.383zm6.067 4.76a.5.5 0 00-.383.924l.383-.924zm7.074 1.721a.5.5 0 000-1v1zm6.874-1a.5.5 0 000 1v-1zm6.876 1a.5.5 0 000-1v1zm6.874-1a.5.5 0 000 1v-1zm6.876 1a.5.5 0 000-1v1zm6.874-1a.5.5 0 000 1v-1zm6.876 1a.5.5 0 000-1v1zm6.874-1a.5.5 0 000 1v-1zm6.876 1a.5.5 0 000-1v1zm6.874-1a.5.5 0 000 1v-1zm6.876 1a.5.5 0 000-1v1zm6.874-1a.5.5 0 000 1v-1zm6.875 1a.5.5 0 100-1v1zm6.875-1a.5.5 0 000 1v-1zm6.876 1a.5.5 0 000-1v1zm6.874-1a.5.5 0 000 1v-1zm6.876 1a.5.5 0 000-1v1zm6.874-1a.5.5 0 000 1v-1zm6.876 1a.5.5 0 000-1v1zm6.874-1a.5.5 0 000 1v-1zm6.876 1a.5.5 0 000-1v1zm6.874-1a.5.5 0 000 1v-1zm6.876 1a.5.5 0 000-1v1zm6.874-1a.5.5 0 000 1v-1zm6.876 1a.5.5 0 000-1v1zm6.874-1a.5.5 0 000 1v-1zm6.876 1a.5.5 0 000-1v1zm6.874-1a.5.5 0 000 1v-1zm6.876 1a.5.5 0 000-1v1zm6.874-1a.5.5 0 000 1v-1zm6.876 1a.5.5 0 000-1v1zm6.874-1a.5.5 0 000 1v-1zm6.876 1a.5.5 0 000-1v1zm6.874-1a.5.5 0 000 1v-1zm6.876 1a.5.5 0 000-1v1zm6.874-1a.5.5 0 000 1v-1zm6.876 1a.5.5 0 000-1v1zm6.874-1a.5.5 0 000 1v-1zm6.876 1a.5.5 0 000-1v1zm6.874-1a.5.5 0 000 1v-1zm6.876 1a.5.5 0 000-1v1zm6.874-1a.5.5 0 000 1v-1zm6.876 1a.5.5 0 000-1v1zm6.874-1a.5.5 0 000 1v-1zm6.876 1a.5.5 0 000-1v1zm6.874-1a.5.5 0 000 1v-1zm6.876 1a.5.5 0 000-1v1zm6.874-1a.5.5 0 000 1v-1zm7.457.203a.5.5 0 10-.383-.924l.383.924zm4.76-6.067a.5.5 0 10.924.383l-.924-.383zm1.721-6.164a.5.5 0 00-1 0h1zm-1-5.056a.5.5 0 001 0h-1zm-2.75-3.29a.5.5 0 10-.103.995l.103-.995zm-6.696-.005a.5.5 0 10.197-.981l-.197.981zm-6.179-2.579a.5.5 0 00-.289.957l.289-.957zm-6.573-1.273a.499.499 0 10.379-.925l-.379.925zm-5.578-3.702a.499.499 0 10-.465.885l.465-.885zm-6.215-2.492a.501.501 0 00.547-.837l-.547.837zm-4.781-4.686a.5.5 0 10-.623.782l.623-.782zm-5.637-3.613a.5.5 0 00.694-.721l-.694.721zm-3.821-5.499a.5.5 0 00-.758.652l.758-.652zm-4.861-4.604a.5.5 0 10.816-.577l-.816.577zm-2.723-6.116a.5.5 0 10-.867.498l.867-.498zm-3.909-5.436a.5.5 0 10.91-.413l-.91.413zm-1.52-6.52a.5.5 0 10-.945.325l.945-.325zm-2.81-6.077a.5.5 0 00.973-.233l-.973.233zm-.257-6.69a.5.5 0 10-.99.14l.99-.14zm-1.613-6.5a.5.5 0 00.999-.046l-.999.046zm.999-6.622a.5.5 0 10-.999-.046l.999.046zm-.376-6.686a.5.5 0 10.99.14l-.99-.14zm2.22-6.317a.5.5 0 00-.973-.233l.973.233zm.892-6.635a.5.5 0 10.945.325l-.945-.325zm3.375-5.782a.5.5 0 10-.91-.413l.91.413zm2.132-6.347a.5.5 0 00.867.498l-.867-.498zm4.406-5.04a.5.5 0 10-.816-.578l.816.577zm3.287-5.834a.5.5 0 00.758.652l-.758-.652zm5.273-4.126a.5.5 0 00-.694-.72l.694.72zm4.32-5.116a.5.5 0 10.623.782l-.623-.782zm5.951-3.067a.501.501 0 00-.547-.837l.547.837zm5.203-4.214a.499.499 0 10.465.885l-.465-.885zm6.422-1.892a.5.5 0 10-.379-.925l.379.925zm5.905-3.155a.5.5 0 00.289.957l-.289-.957zm6.665-.641a.5.5 0 10-.197-.98l.197.98zm6.396-1.981a.5.5 0 00.103.995l-.103-.995zm3.853-2.295a.5.5 0 00-1 0h1zm-1-5.056a.5.5 0 001 0h-1zm.203-6.547a.5.5 0 10-.924.383l.924-.383zm-6.067-4.76a.5.5 0 00.383-.924l-.383.924zm-7.074-1.721a.5.5 0 000 1v-1zm-6.874 1a.5.5 0 000-1v1zm-6.876-1a.5.5 0 000 1v-1zm-6.874 1a.5.5 0 000-1v1zm-6.876-1a.5.5 0 000 1v-1zm-6.874 1a.5.5 0 000-1v1zm-6.876-1a.5.5 0 000 1v-1zm-6.874 1a.5.5 0 000-1v1zm-6.876-1a.5.5 0 000 1v-1zm-6.874 1a.5.5 0 000-1v1zm-6.876-1a.5.5 0 000 1v-1zm-6.874 1a.5.5 0 000-1v1zm-6.876-1a.5.5 0 000 1v-1zm-6.874 1a.5.5 0 000-1v1zm-6.876-1a.5.5 0 000 1v-1zm-6.874 1a.5.5 0 000-1v1zm-6.876-1a.5.5 0 000 1v-1zm-6.874 1a.5.5 0 000-1v1zm-6.876-1a.5.5 0 000 1v-1zm-6.874 1a.5.5 0 000-1v1zm-6.876-1a.5.5 0 000 1v-1zm-6.874 1a.5.5 0 000-1v1zm-6.876-1a.5.5 0 000 1v-1zm-6.874 1a.5.5 0 000-1v1zm-6.876-1a.5.5 0 000 1v-1zm-6.874 1a.5.5 0 000-1v1zm-6.876-1a.5.5 0 000 1v-1zm-6.874 1a.5.5 0 000-1v1zm-6.876-1a.5.5 0 000 1v-1zm-6.874 1a.5.5 0 000-1v1zm-6.876-1a.5.5 0 000 1v-1zm-6.874 1a.5.5 0 000-1v1zm-6.875-1a.5.5 0 100 1v-1zm-6.876 1a.5.5 0 100-1v1zm-6.875-1a.5.5 0 000 1v-1zm-6.874 1a.5.5 0 000-1v1zm-6.876-1a.5.5 0 000 1v-1zm-6.874 1a.5.5 0 000-1v1zm-6.875-1a.5.5 0 100 1v-1zm-6.876 1a.5.5 0 100-1v1zm-6.875-1a.5.5 0 000 1v-1zm-6.874 1a.5.5 0 000-1v1zm-6.876-1a.5.5 0 000 1v-1zm-6.874 1a.5.5 0 000-1v1zm-6.876-1a.5.5 0 000 1v-1zm-6.874 1a.5.5 0 000-1v1zm-6.876-1a.5.5 0 000 1v-1zm-6.874 1a.5.5 0 000-1v1zm-7.457-.203a.5.5 0 00.383.924l-.383-.924zm-4.76 6.067a.5.5 0 00-.924-.383l.924.383zM39.5 50v3.636h1V50h-1zm0 10.91v7.272h1v-7.273h-1zm0 14.544v7.273h1v-7.273h-1zM39.5 90v7.273h1V90h-1zm0 14.545v7.273h1v-7.273h-1zm0 14.546v7.273h1v-7.273h-1zm0 14.545v7.273h1v-7.273h-1zm0 14.546v7.273h1v-7.273h-1zm0 14.545V170h1v-7.273h-1zm0 14.546v7.272h1v-7.272h-1zm0 14.545v7.273h1v-7.273h-1zm0 14.546V210h1v-3.636h-1zm0 3.636c0 1.423.283 2.781.797 4.019l.924-.383A9.467 9.467 0 0140.5 210h-1zm6.48 9.703c1.24.514 2.597.797 4.02.797v-1a9.456 9.456 0 01-3.636-.721l-.383.924zm4.02.797h3.438v-1H50v1zm10.313 0h6.874v-1h-6.874v1zm13.75 0h6.874v-1h-6.874v1zm13.75 0h6.874v-1h-6.874v1zm13.749 0h6.876v-1h-6.876v1zm13.75 0h6.876v-1h-6.876v1zm13.75 0h6.875v-1h-6.875v1zm13.75 0h6.876v-1h-6.876v1zm13.75 0h6.876v-1h-6.876v1zm13.75 0h6.876v-1h-6.876v1zm13.75 0h6.876v-1h-6.876v1zm13.75 0h6.876v-1h-6.876v1zm13.75 0h6.876v-1h-6.876v1zm13.75 0h6.876v-1h-6.876v1zm13.75 0h6.876v-1h-6.876v1zm13.75 0h6.876v-1h-6.876v1zm13.75 0h6.876v-1h-6.876v1zm13.75 0h6.876v-1h-6.876v1zm13.75 0h6.876v-1h-6.876v1zm13.75 0h6.876v-1h-6.876v1zm13.75 0h6.876v-1h-6.876v1zm13.75 0h6.876v-1h-6.876v1zm13.75 0h6.876v-1h-6.876v1zm13.75 0h6.876v-1h-6.876v1zm13.75 0H380v-1h-3.438v1zm3.438 0c1.423 0 2.781-.283 4.019-.797l-.383-.924a9.452 9.452 0 01-3.636.721v1zm9.703-6.481c.514-1.238.797-2.596.797-4.019h-1a9.452 9.452 0 01-.721 3.636l.924.383zM390.5 210v-2.528h-1V210h1zm0-7.584v-2.528h-1v2.528h1zm-.472-3.028a69.392 69.392 0 01-3.278-.262l-.103.995c1.101.114 2.21.203 3.325.266l.056-.999zm-9.777-1.248a69.002 69.002 0 01-6.376-1.598l-.289.957a70.277 70.277 0 006.468 1.622l.197-.981zm-12.57-3.796a69.248 69.248 0 01-5.957-2.777l-.465.885a69.901 69.901 0 006.043 2.817l.379-.925zm-11.625-6.106a69.7 69.7 0 01-5.328-3.849l-.623.782a70.749 70.749 0 005.404 3.904l.547-.837zm-10.271-8.183a69.792 69.792 0 01-4.515-4.778l-.758.652a71.067 71.067 0 004.579 4.847l.694-.721zm-8.56-9.959a69.786 69.786 0 01-3.539-5.539l-.867.498a70.565 70.565 0 003.59 5.618l.816-.577zm-6.538-11.388a69.289 69.289 0 01-2.43-6.107l-.945.325a69.926 69.926 0 002.465 6.195l.91-.413zm-4.267-12.417a69.146 69.146 0 01-1.23-6.457l-.99.14a70.36 70.36 0 001.247 6.55l.973-.233zm-1.844-13.003A71.742 71.742 0 01324.5 130h-1c0 1.118.026 2.229.077 3.334l.999-.046zM324.5 130c0-1.102.026-2.198.076-3.288l-.999-.046A72.292 72.292 0 00323.5 130h1zm.69-9.834c.31-2.186.721-4.34 1.23-6.457l-.973-.233a70.36 70.36 0 00-1.247 6.55l.99.14zm3.067-12.767a69.289 69.289 0 012.43-6.107l-.91-.413a69.926 69.926 0 00-2.465 6.195l.945.325zm5.429-11.956a69.806 69.806 0 013.539-5.539l-.816-.577a70.615 70.615 0 00-3.59 5.618l.867.498zm7.584-10.72a69.937 69.937 0 014.515-4.778l-.694-.72a70.968 70.968 0 00-4.579 4.846l.758.652zm9.458-9.112a69.73 69.73 0 015.328-3.849l-.547-.837a70.726 70.726 0 00-5.404 3.904l.623.782zm10.996-7.178a69.158 69.158 0 015.957-2.777l-.379-.925a70.233 70.233 0 00-6.043 2.817l.465.885zm12.151-4.975a69.1 69.1 0 016.376-1.598l-.197-.98c-2.194.44-4.352.982-6.468 1.62l.289.958zm12.875-2.584c1.086-.113 2.178-.2 3.278-.262l-.056-.999a70.987 70.987 0 00-3.325.266l.103.995zm3.75-.762v-2.528h-1v2.528h1zm0-7.584V50h-1v2.528h1zm0-2.528c0-1.423-.283-2.78-.797-4.02l-.924.384A9.456 9.456 0 01389.5 50h1zm-6.481-9.703A10.466 10.466 0 00380 39.5v1c1.289 0 2.517.257 3.636.72l.383-.923zM380 39.5h-3.438v1H380v-1zm-10.312 0h-6.876v1h6.876v-1zm-13.75 0h-6.876v1h6.876v-1zm-13.75 0h-6.876v1h6.876v-1zm-13.75 0h-6.876v1h6.876v-1zm-13.75 0h-6.876v1h6.876v-1zm-13.75 0h-6.876v1h6.876v-1zm-13.75 0h-6.876v1h6.876v-1zm-13.75 0h-6.876v1h6.876v-1zm-13.75 0h-6.876v1h6.876v-1zm-13.75 0h-6.876v1h6.876v-1zm-13.75 0h-6.876v1h6.876v-1zm-13.75 0h-6.876v1h6.876v-1zm-13.75 0h-6.876v1h6.876v-1zm-13.75 0h-6.876v1h6.876v-1zm-13.75 0h-6.876v1h6.876v-1zm-13.75 0h-6.875v1h6.875v-1zm-13.751 0h-6.875v1h6.875v-1zm-13.749 0h-6.876v1h6.876v-1zm-13.75 0h-6.875v1h6.875v-1zm-13.751 0h-6.875v1h6.875v-1zm-13.75 0h-6.874v1h6.874v-1zm-13.75 0h-6.874v1h6.874v-1zm-13.75 0h-6.874v1h6.874v-1zm-13.75 0H50v1h3.438v-1zM50 39.5c-1.423 0-2.78.283-4.02.797l.384.924A9.47 9.47 0 0150 40.5v-1zm-9.703 6.48A10.471 10.471 0 0039.5 50h1a9.47 9.47 0 01.72-3.636l-.923-.383z" fill="#E5E5E5"/></g><defs><linearGradient id="paint0_linear" x1="397.636" y1="180" x2="397.636" y2="80" gradientUnits="userSpaceOnUse"><stop stop-color="#FCCB05"/><stop offset="1" stop-color="#FFE57D"/></linearGradient><linearGradient id="paint1_linear" x1="397.636" y1="180" x2="397.636" y2="80" gradientUnits="userSpaceOnUse"><stop stop-color="#FCCB05"/><stop offset="1" stop-color="#FFE57D"/></linearGradient><filter id="filter0_d" x="0" y="0" width="430" height="260" filterUnits="userSpaceOnUse" color-interpolation-filters="sRGB"><feFlood flood-opacity="0" result="BackgroundImageFix"/><feColorMatrix in="SourceAlpha" values="0 0 0 0 0 0 0 0 0 0 0 0 0 0 0 0 0 0 127 0"/><feOffset/><feGaussianBlur stdDeviation="15"/><feColorMatrix values="0 0 0 0 0 0 0 0 0 0 0 0 0 0 0 0 0 0 0.1 0"/><feBlend in2="BackgroundImageFix" result="effect1_dropShadow"/><feBlend in="SourceGraphic" in2="effect1_dropShadow" result="shape"/></filter><filter id="filter1_d" x="9.5" y="9.5" width="411" height="241" filterUnits="userSpaceOnUse" color-interpolation-filters="sRGB"><feFlood flood-opacity="0" result="BackgroundImageFix"/><feColorMatrix in="SourceAlpha" values="0 0 0 0 0 0 0 0 0 0 0 0 0 0 0 0 0 0 127 0"/><feOffset/><feGaussianBlur stdDeviation="15"/><feColorMatrix values="0 0 0 0 0 0 0 0 0 0 0 0 0 0 0 0 0 0 0.1 0"/><feBlend in2="BackgroundImageFix" result="effect1_dropShadow"/><feBlend in="SourceGraphic" in2="effect1_dropShadow" result="shape"/></filter></defs></svg>