<svg width="449" height="260" fill="none" xmlns="http://www.w3.org/2000/svg"><path d="M449 130c0 27.614-22.386 50-50 50s-50-22.386-50-50 22.386-50 50-50 50 22.386 50 50z" fill="url(#paint0_linear)"/><mask id="mask0" maskUnits="userSpaceOnUse" x="349" y="80" width="100" height="100"><circle cx="399" cy="130" r="50" fill="url(#paint1_linear)"/></mask><g mask="url(#mask0)"><path fill-rule="evenodd" clip-rule="evenodd" d="M396.798 108.817a1.003 1.003 0 01-.819-.426.995.995 0 01-.121-.916l.876-2.406a23.854 23.854 0 00-5.251.917l-.116 3.321a1 1 0 01-.998.965h-.035a1.001 1.001 0 01-.965-1.034l.089-2.559a23.868 23.868 0 00-4.711 2.495l.916 3.193a.995.995 0 01-.685 1.237.995.995 0 01-1.24-.685l-.704-2.459a23.84 23.84 0 00-3.708 3.827l1.86 2.755a.996.996 0 01.053 1.028c-.085.16-.212.294-.367.388a1.007 1.007 0 01-.985.026.999.999 0 01-.36-.323l-1.432-2.122a23.896 23.896 0 00-2.344 4.785l2.618 2.043a1.001 1.001 0 01-.616 1.788.99.99 0 01-.614-.212l-2.018-1.575a23.883 23.883 0 00-.752 5.281l3.123 1.135a1.005 1.005 0 01.647 1.115.999.999 0 01-1.33.765l-2.406-.875a23.858 23.858 0 00.916 5.252l3.321.115a.996.996 0 01.983 1.017 1.002 1.002 0 01-1.017.983h-.035l-2.558-.089a23.832 23.832 0 002.493 4.711l3.192-.917a1 1 0 11.551 1.923l-2.458.705a23.859 23.859 0 003.828 3.71l2.755-1.859a1.012 1.012 0 01.751-.153 1 1 0 01.368 1.811l-2.122 1.433a23.812 23.812 0 004.789 2.346l2.043-2.621a1.001 1.001 0 011.77.498c.034.26-.036.524-.194.733l-1.575 2.019a23.862 23.862 0 005.277.751l1.136-3.124a1.003 1.003 0 011.288-.616 1.017 1.017 0 01.568.526 1.003 1.003 0 01.023.774l-.875 2.407a23.833 23.833 0 005.252-.917l.115-3.317a1.013 1.013 0 011.032-.965 1.011 1.011 0 01.697.317.995.995 0 01.268.717l-.088 2.555a23.874 23.874 0 004.712-2.495l-.918-3.195a1.005 1.005 0 01.077-.77 1.022 1.022 0 01.603-.484 1.005 1.005 0 011.067.349.999.999 0 01.175.353l.706 2.463a23.846 23.846 0 003.711-3.829l-1.859-2.756a1.005 1.005 0 01-.153-.75 1.004 1.004 0 011.172-.791c.261.05.491.202.639.422l1.432 2.123a23.79 23.79 0 002.345-4.788l-2.62-2.044a1.006 1.006 0 01-.349-1.056.995.995 0 01.471-.603 1.001 1.001 0 011.109.082l2.018 1.576c.446-1.719.699-3.489.752-5.278l-3.125-1.137a1 1 0 01.684-1.879l2.405.874c-.11-1.79-.422-3.55-.921-5.25l-3.314-.115a1 1 0 11.068-2l2.55.088a23.862 23.862 0 00-2.496-4.708l-3.183.915a.995.995 0 01-.932-.206 1 1 0 01.379-1.716l2.45-.703a23.893 23.893 0 00-3.826-3.707l-2.745 1.855a.989.989 0 01-.558.168 1 1 0 01-.561-1.827l2.113-1.427a23.84 23.84 0 00-4.783-2.346l-2.041 2.612c-.093.12-.213.218-.349.285a1.002 1.002 0 01-1.433-1.004 1 1 0 01.207-.511l1.572-2.012a23.885 23.885 0 00-5.275-.756l-1.135 3.118a1.001 1.001 0 01-.94.663zm9.14-4.598a25.798 25.798 0 00-7.522-1.192 1.016 1.016 0 00-.458-.001 25.813 25.813 0 00-14.8 4.819.975.975 0 00-.301.218 25.85 25.85 0 00-5.591 5.64 25.806 25.806 0 00-3.562 6.919.993.993 0 00-.151.465 25.828 25.828 0 00-1.194 7.725v.066a25.836 25.836 0 004.883 15.08c.028.045.059.088.093.128a25.83 25.83 0 005.623 5.618l.036.028a25.854 25.854 0 007.123 3.645c.054.023.11.041.167.054a25.791 25.791 0 007.871 1.236l.023.001.023-.001a25.812 25.812 0 007.811-1.225.978.978 0 00.283-.092 25.865 25.865 0 006.906-3.518c.107-.052.203-.122.285-.207a25.875 25.875 0 005.479-5.483c.069-.07.128-.149.175-.237l.007-.014a25.844 25.844 0 003.542-6.957.75.75 0 00.037-.093.82.82 0 00.035-.129 25.828 25.828 0 001.235-7.784.974.974 0 00.001-.162 25.83 25.83 0 00-1.206-7.717 1.007 1.007 0 00-.115-.355 25.826 25.826 0 00-3.46-6.816 1.043 1.043 0 00-.152-.26 1.066 1.066 0 00-.138-.139 25.831 25.831 0 00-5.393-5.391 1.005 1.005 0 00-.347-.252 25.825 25.825 0 00-6.793-3.469 1.031 1.031 0 00-.455-.148zm4.599 33.457a1.001 1.001 0 001.354-.321c.6-.949 1.095-1.961 1.476-3.018a.998.998 0 00-.599-1.281 1.004 1.004 0 00-.765.034c-.24.113-.426.316-.517.566a13.41 13.41 0 01-1.283 2.622c-.096.152-.15.326-.156.505a1.008 1.008 0 00.49.893zm-12.43 7.32h-.005a16.15 16.15 0 1116.225-16.226 1.002 1.002 0 01-.995 1h-.005a1 1 0 01-1-.995 14.151 14.151 0 00-16.929-13.804 14.144 14.144 0 00-11.095 11.1 14.15 14.15 0 0013.809 16.925 1.002 1.002 0 01.703 1.709.998.998 0 01-.708.291zm4.578-1.135a1.005 1.005 0 00.982.175 15.723 15.723 0 002.947-1.43 1.002 1.002 0 00.323-1.378 1 1 0 00-1.378-.322c-.811.505-1.673.924-2.572 1.25a.997.997 0 00-.643 1.112c.04.232.161.442.341.593zm-4.507-10.751a4.266 4.266 0 01-4.183-5.096 4.254 4.254 0 011.167-2.183 4.259 4.259 0 014.646-.925 4.27 4.27 0 012.633 3.94 4.268 4.268 0 01-4.263 4.264zm0-6.528a2.262 2.262 0 00-2.093 1.398 2.27 2.27 0 00.491 2.468 2.267 2.267 0 003.484-.344c.248-.373.381-.811.381-1.258a2.27 2.27 0 00-2.263-2.264zm-1.625-4.128a2.925 2.925 0 003.689-.367 2.93 2.93 0 00.856-2.065 2.926 2.926 0 00-1.805-2.701 2.927 2.927 0 00-3.186.635c-.409.409-.687.93-.799 1.498a2.916 2.916 0 001.245 3zm1.112-3.199a.919.919 0 011.165.115.926.926 0 01.115 1.165.918.918 0 01-.947.392.92.92 0 01-.673-1.258.918.918 0 01.34-.414zm-7.883 9.787a2.926 2.926 0 01-2.883-2.466 2.93 2.93 0 01.989-2.68 2.922 2.922 0 111.894 5.146zm-.874-3.208a.917.917 0 00.056.704.917.917 0 00.537.459.924.924 0 10-.593-1.163zm2.365 12.516a2.904 2.904 0 001.712.559 2.929 2.929 0 002.926-2.81 2.922 2.922 0 10-4.638 2.251zm1.182-3.113a.92.92 0 011.289.206.937.937 0 01.13.828.921.921 0 01-1.42.461.927.927 0 01-.335-1.033.922.922 0 01.336-.462zm10.914 3.672a2.926 2.926 0 01-2.892-2.461 2.924 2.924 0 112.892 2.461zm-.004-3.846a.918.918 0 00-.821.504.928.928 0 00.075.961.926.926 0 001.624-.832.923.923 0 00-.878-.637v.004zm1.674-6.451a2.924 2.924 0 002.854.113 2.932 2.932 0 001.456-3.509 2.926 2.926 0 00-2.323-1.984 2.917 2.917 0 00-1.575.187 2.916 2.916 0 00-1.797 2.47 2.921 2.921 0 001.385 2.723zm1.24-3.371a.931.931 0 01.828.132.921.921 0 01-.962 1.568.926.926 0 01-.501-.895.931.931 0 01.635-.805zm-20.67 37.045h-11.818a1.002 1.002 0 01-.707-1.707.997.997 0 01.707-.293h11.818a.997.997 0 01.707 1.707 1 1 0 01-.707.293zm-19.853 0h1.889a1.002 1.002 0 00.708-1.707 1 1 0 00-.708-.293h-1.889a1 1 0 100 2zm8.114-13.23h-10.834a1 1 0 110-2h10.834a1 1 0 110 2zm-18.87 0h1.891a1 1 0 100-2H355a.997.997 0 00-1 1 .997.997 0 001 1zm24.561 6.611h-11.82a1.002 1.002 0 01-1-1 1.002 1.002 0 011-.999h11.82c.265 0 .519.105.707.292a1.002 1.002 0 010 1.415 1.002 1.002 0 01-.707.292zm-19.856 0h1.895a1.002 1.002 0 001-1 1.002 1.002 0 00-1-.999h-1.895a.999.999 0 100 1.999z" fill="#fff" style="mix-blend-mode:overlay"/></g><g filter="url(#filter0_d)"><path fill-rule="evenodd" clip-rule="evenodd" d="M40 30c-5.523 0-10 4.477-10 10v180c0 5.523 4.477 10 10 10h350c5.523 0 10-4.477 10-10v-30.003l-.6.003c-35.031 0-63.429-26.863-63.429-60s28.398-60 63.429-60c.2 0 .4 0 .6.003V40c0-5.523-4.477-10-10-10H40z" fill="#fff"/></g><g filter="url(#filter1_d)"><path d="M390 199.888h.5v-.473l-.472-.027-.028.5zm0-139.776l.028.5.472-.027v-.473h-.5zM39.5 53.636a.5.5 0 001 0h-1zm1 7.273a.5.5 0 00-1 0h1zm-1 7.273a.5.5 0 101 0h-1zm1 7.272a.5.5 0 00-1 0h1zm-1 7.273a.5.5 0 001 0h-1zm1 7.273a.5.5 0 00-1 0h1zm-1 7.273a.5.5 0 101 0h-1zm1 7.272a.5.5 0 00-1 0h1zm-1 7.273a.5.5 0 001 0h-1zm1 7.273a.5.5 0 00-1 0h1zm-1 7.273a.5.5 0 001 0h-1zm1 7.272a.5.5 0 00-1 0h1zm-1 7.273a.5.5 0 001 0h-1zm1 7.273a.5.5 0 00-1 0h1zm-1 7.273a.5.5 0 001 0h-1zm1 7.272a.5.5 0 00-1 0h1zm-1 7.273a.5.5 0 001 0h-1zm1 7.273a.5.5 0 00-1 0h1zm-1 7.272a.5.5 0 101 0h-1zm1 7.273a.5.5 0 00-1 0h1zm-1 7.273a.5.5 0 001 0h-1zm1 7.273a.5.5 0 10-1 0h1zm-.203 7.655a.5.5 0 10.924-.383l-.924.383zm6.067 4.76a.5.5 0 00-.383.924l.383-.924zm7.074 1.721a.5.5 0 000-1v1zm6.874-1a.5.5 0 000 1v-1zm6.876 1a.5.5 0 000-1v1zm6.874-1a.5.5 0 000 1v-1zm6.876 1a.5.5 0 000-1v1zm6.874-1a.5.5 0 000 1v-1zm6.876 1a.5.5 0 000-1v1zm6.874-1a.5.5 0 000 1v-1zm6.876 1a.5.5 0 000-1v1zm6.874-1a.5.5 0 000 1v-1zm6.876 1a.5.5 0 000-1v1zm6.874-1a.5.5 0 000 1v-1zm6.875 1a.5.5 0 100-1v1zm6.875-1a.5.5 0 000 1v-1zm6.876 1a.5.5 0 000-1v1zm6.874-1a.5.5 0 000 1v-1zm6.876 1a.5.5 0 000-1v1zm6.874-1a.5.5 0 000 1v-1zm6.876 1a.5.5 0 000-1v1zm6.874-1a.5.5 0 000 1v-1zm6.876 1a.5.5 0 000-1v1zm6.874-1a.5.5 0 000 1v-1zm6.876 1a.5.5 0 000-1v1zm6.874-1a.5.5 0 000 1v-1zm6.876 1a.5.5 0 000-1v1zm6.874-1a.5.5 0 000 1v-1zm6.876 1a.5.5 0 000-1v1zm6.874-1a.5.5 0 000 1v-1zm6.876 1a.5.5 0 000-1v1zm6.874-1a.5.5 0 000 1v-1zm6.876 1a.5.5 0 000-1v1zm6.874-1a.5.5 0 000 1v-1zm6.876 1a.5.5 0 000-1v1zm6.874-1a.5.5 0 000 1v-1zm6.876 1a.5.5 0 000-1v1zm6.874-1a.5.5 0 000 1v-1zm6.876 1a.5.5 0 000-1v1zm6.874-1a.5.5 0 000 1v-1zm6.876 1a.5.5 0 000-1v1zm6.874-1a.5.5 0 000 1v-1zm6.876 1a.5.5 0 000-1v1zm6.874-1a.5.5 0 000 1v-1zm6.876 1a.5.5 0 000-1v1zm6.874-1a.5.5 0 000 1v-1zm6.876 1a.5.5 0 000-1v1zm6.874-1a.5.5 0 000 1v-1zm6.876 1a.5.5 0 000-1v1zm6.874-1a.5.5 0 000 1v-1zm7.457.203a.5.5 0 10-.383-.924l.383.924zm4.76-6.067a.5.5 0 10.924.383l-.924-.383zm1.721-6.164a.5.5 0 00-1 0h1zm-1-5.056a.5.5 0 001 0h-1zm-2.75-3.29a.5.5 0 10-.103.995l.103-.995zm-6.696-.005a.5.5 0 10.197-.981l-.197.981zm-6.179-2.579a.5.5 0 00-.289.957l.289-.957zm-6.573-1.273a.499.499 0 10.379-.925l-.379.925zm-5.578-3.702a.499.499 0 10-.465.885l.465-.885zm-6.215-2.492a.501.501 0 00.547-.837l-.547.837zm-4.781-4.686a.5.5 0 10-.623.782l.623-.782zm-5.637-3.613a.5.5 0 00.694-.721l-.694.721zm-3.821-5.499a.5.5 0 00-.758.652l.758-.652zm-4.861-4.604a.5.5 0 10.816-.577l-.816.577zm-2.723-6.116a.5.5 0 10-.867.498l.867-.498zm-3.909-5.436a.5.5 0 10.91-.413l-.91.413zm-1.52-6.52a.5.5 0 10-.945.325l.945-.325zm-2.81-6.077a.5.5 0 00.973-.233l-.973.233zm-.257-6.69a.5.5 0 10-.99.14l.99-.14zm-1.613-6.5a.5.5 0 00.999-.046l-.999.046zm.999-6.622a.5.5 0 10-.999-.046l.999.046zm-.376-6.686a.5.5 0 10.99.14l-.99-.14zm2.22-6.317a.5.5 0 00-.973-.233l.973.233zm.892-6.635a.5.5 0 10.945.325l-.945-.325zm3.375-5.782a.5.5 0 10-.91-.413l.91.413zm2.132-6.347a.5.5 0 00.867.498l-.867-.498zm4.406-5.04a.5.5 0 10-.816-.578l.816.577zm3.287-5.834a.5.5 0 00.758.652l-.758-.652zm5.273-4.126a.5.5 0 00-.694-.72l.694.72zm4.32-5.116a.5.5 0 10.623.782l-.623-.782zm5.951-3.067a.501.501 0 00-.547-.837l.547.837zm5.203-4.214a.499.499 0 10.465.885l-.465-.885zm6.422-1.892a.5.5 0 10-.379-.925l.379.925zm5.905-3.155a.5.5 0 00.289.957l-.289-.957zm6.665-.641a.5.5 0 10-.197-.98l.197.98zm6.396-1.981a.5.5 0 00.103.995l-.103-.995zm3.853-2.295a.5.5 0 00-1 0h1zm-1-5.056a.5.5 0 001 0h-1zm.203-6.547a.5.5 0 10-.924.383l.924-.383zm-6.067-4.76a.5.5 0 00.383-.924l-.383.924zm-7.074-1.721a.5.5 0 000 1v-1zm-6.874 1a.5.5 0 000-1v1zm-6.876-1a.5.5 0 000 1v-1zm-6.874 1a.5.5 0 000-1v1zm-6.876-1a.5.5 0 000 1v-1zm-6.874 1a.5.5 0 000-1v1zm-6.876-1a.5.5 0 000 1v-1zm-6.874 1a.5.5 0 000-1v1zm-6.876-1a.5.5 0 000 1v-1zm-6.874 1a.5.5 0 000-1v1zm-6.876-1a.5.5 0 000 1v-1zm-6.874 1a.5.5 0 000-1v1zm-6.876-1a.5.5 0 000 1v-1zm-6.874 1a.5.5 0 000-1v1zm-6.876-1a.5.5 0 000 1v-1zm-6.874 1a.5.5 0 000-1v1zm-6.876-1a.5.5 0 000 1v-1zm-6.874 1a.5.5 0 000-1v1zm-6.876-1a.5.5 0 000 1v-1zm-6.874 1a.5.5 0 000-1v1zm-6.876-1a.5.5 0 000 1v-1zm-6.874 1a.5.5 0 000-1v1zm-6.876-1a.5.5 0 000 1v-1zm-6.874 1a.5.5 0 000-1v1zm-6.876-1a.5.5 0 000 1v-1zm-6.874 1a.5.5 0 000-1v1zm-6.876-1a.5.5 0 000 1v-1zm-6.874 1a.5.5 0 000-1v1zm-6.876-1a.5.5 0 000 1v-1zm-6.874 1a.5.5 0 000-1v1zm-6.876-1a.5.5 0 000 1v-1zm-6.874 1a.5.5 0 000-1v1zm-6.875-1a.5.5 0 100 1v-1zm-6.876 1a.5.5 0 100-1v1zm-6.875-1a.5.5 0 000 1v-1zm-6.874 1a.5.5 0 000-1v1zm-6.876-1a.5.5 0 000 1v-1zm-6.874 1a.5.5 0 000-1v1zm-6.875-1a.5.5 0 100 1v-1zm-6.876 1a.5.5 0 100-1v1zm-6.875-1a.5.5 0 000 1v-1zm-6.874 1a.5.5 0 000-1v1zm-6.876-1a.5.5 0 000 1v-1zm-6.874 1a.5.5 0 000-1v1zm-6.876-1a.5.5 0 000 1v-1zm-6.874 1a.5.5 0 000-1v1zm-6.876-1a.5.5 0 000 1v-1zm-6.874 1a.5.5 0 000-1v1zm-7.457-.203a.5.5 0 00.383.924l-.383-.924zm-4.76 6.067a.5.5 0 00-.924-.383l.924.383zM39.5 50v3.636h1V50h-1zm0 10.91v7.272h1v-7.273h-1zm0 14.544v7.273h1v-7.273h-1zM39.5 90v7.273h1V90h-1zm0 14.545v7.273h1v-7.273h-1zm0 14.546v7.273h1v-7.273h-1zm0 14.545v7.273h1v-7.273h-1zm0 14.546v7.273h1v-7.273h-1zm0 14.545V170h1v-7.273h-1zm0 14.546v7.272h1v-7.272h-1zm0 14.545v7.273h1v-7.273h-1zm0 14.546V210h1v-3.636h-1zm0 3.636c0 1.423.283 2.781.797 4.019l.924-.383A9.467 9.467 0 0140.5 210h-1zm6.48 9.703c1.24.514 2.597.797 4.02.797v-1a9.456 9.456 0 01-3.636-.721l-.383.924zm4.02.797h3.438v-1H50v1zm10.313 0h6.874v-1h-6.874v1zm13.75 0h6.874v-1h-6.874v1zm13.75 0h6.874v-1h-6.874v1zm13.749 0h6.876v-1h-6.876v1zm13.75 0h6.876v-1h-6.876v1zm13.75 0h6.875v-1h-6.875v1zm13.75 0h6.876v-1h-6.876v1zm13.75 0h6.876v-1h-6.876v1zm13.75 0h6.876v-1h-6.876v1zm13.75 0h6.876v-1h-6.876v1zm13.75 0h6.876v-1h-6.876v1zm13.75 0h6.876v-1h-6.876v1zm13.75 0h6.876v-1h-6.876v1zm13.75 0h6.876v-1h-6.876v1zm13.75 0h6.876v-1h-6.876v1zm13.75 0h6.876v-1h-6.876v1zm13.75 0h6.876v-1h-6.876v1zm13.75 0h6.876v-1h-6.876v1zm13.75 0h6.876v-1h-6.876v1zm13.75 0h6.876v-1h-6.876v1zm13.75 0h6.876v-1h-6.876v1zm13.75 0h6.876v-1h-6.876v1zm13.75 0h6.876v-1h-6.876v1zm13.75 0H380v-1h-3.438v1zm3.438 0c1.423 0 2.781-.283 4.019-.797l-.383-.924a9.452 9.452 0 01-3.636.721v1zm9.703-6.481c.514-1.238.797-2.596.797-4.019h-1a9.452 9.452 0 01-.721 3.636l.924.383zM390.5 210v-2.528h-1V210h1zm0-7.584v-2.528h-1v2.528h1zm-.472-3.028a69.392 69.392 0 01-3.278-.262l-.103.995c1.101.114 2.21.203 3.325.266l.056-.999zm-9.777-1.248a69.002 69.002 0 01-6.376-1.598l-.289.957a70.277 70.277 0 006.468 1.622l.197-.981zm-12.57-3.796a69.248 69.248 0 01-5.957-2.777l-.465.885a69.901 69.901 0 006.043 2.817l.379-.925zm-11.625-6.106a69.7 69.7 0 01-5.328-3.849l-.623.782a70.749 70.749 0 005.404 3.904l.547-.837zm-10.271-8.183a69.792 69.792 0 01-4.515-4.778l-.758.652a71.067 71.067 0 004.579 4.847l.694-.721zm-8.56-9.959a69.786 69.786 0 01-3.539-5.539l-.867.498a70.565 70.565 0 003.59 5.618l.816-.577zm-6.538-11.388a69.289 69.289 0 01-2.43-6.107l-.945.325a69.926 69.926 0 002.465 6.195l.91-.413zm-4.267-12.417a69.146 69.146 0 01-1.23-6.457l-.99.14a70.36 70.36 0 001.247 6.55l.973-.233zm-1.844-13.003A71.742 71.742 0 01324.5 130h-1c0 1.118.026 2.229.077 3.334l.999-.046zM324.5 130c0-1.102.026-2.198.076-3.288l-.999-.046A72.292 72.292 0 00323.5 130h1zm.69-9.834c.31-2.186.721-4.34 1.23-6.457l-.973-.233a70.36 70.36 0 00-1.247 6.55l.99.14zm3.067-12.767a69.289 69.289 0 012.43-6.107l-.91-.413a69.926 69.926 0 00-2.465 6.195l.945.325zm5.429-11.956a69.806 69.806 0 013.539-5.539l-.816-.577a70.615 70.615 0 00-3.59 5.618l.867.498zm7.584-10.72a69.937 69.937 0 014.515-4.778l-.694-.72a70.97 70.97 0 00-4.579 4.846l.758.652zm9.458-9.112a69.73 69.73 0 015.328-3.849l-.547-.837a70.726 70.726 0 00-5.404 3.904l.623.782zm10.996-7.178a69.128 69.128 0 015.957-2.777l-.379-.925a70.233 70.233 0 00-6.043 2.817l.465.885zm12.151-4.975a69.1 69.1 0 016.376-1.598l-.197-.98c-2.194.44-4.352.982-6.468 1.62l.289.958zm12.875-2.584c1.086-.113 2.178-.2 3.278-.262l-.056-.999a70.987 70.987 0 00-3.325.266l.103.995zm3.75-.762v-2.528h-1v2.528h1zm0-7.584V50h-1v2.528h1zm0-2.528c0-1.423-.283-2.78-.797-4.02l-.924.384A9.456 9.456 0 01389.5 50h1zm-6.481-9.703A10.466 10.466 0 00380 39.5v1c1.289 0 2.517.257 3.636.72l.383-.923zM380 39.5h-3.438v1H380v-1zm-10.312 0h-6.876v1h6.876v-1zm-13.75 0h-6.876v1h6.876v-1zm-13.75 0h-6.876v1h6.876v-1zm-13.75 0h-6.876v1h6.876v-1zm-13.75 0h-6.876v1h6.876v-1zm-13.75 0h-6.876v1h6.876v-1zm-13.75 0h-6.876v1h6.876v-1zm-13.75 0h-6.876v1h6.876v-1zm-13.75 0h-6.876v1h6.876v-1zm-13.75 0h-6.876v1h6.876v-1zm-13.75 0h-6.876v1h6.876v-1zm-13.75 0h-6.876v1h6.876v-1zm-13.75 0h-6.876v1h6.876v-1zm-13.75 0h-6.876v1h6.876v-1zm-13.75 0h-6.876v1h6.876v-1zm-13.75 0h-6.875v1h6.875v-1zm-13.751 0h-6.875v1h6.875v-1zm-13.749 0h-6.876v1h6.876v-1zm-13.75 0h-6.875v1h6.875v-1zm-13.751 0h-6.875v1h6.875v-1zm-13.75 0h-6.874v1h6.874v-1zm-13.75 0h-6.874v1h6.874v-1zm-13.75 0h-6.874v1h6.874v-1zm-13.75 0H50v1h3.438v-1zM50 39.5c-1.423 0-2.78.283-4.02.797l.384.924A9.47 9.47 0 0150 40.5v-1zm-9.703 6.48A10.471 10.471 0 0039.5 50h1a9.47 9.47 0 01.72-3.636l-.923-.383z" fill="#E5E5E5"/></g><defs><linearGradient id="paint0_linear" x1="397.636" y1="180" x2="397.636" y2="80" gradientUnits="userSpaceOnUse"><stop stop-color="#FCCB05"/><stop offset="1" stop-color="#FFE57D"/></linearGradient><linearGradient id="paint1_linear" x1="397.636" y1="180" x2="397.636" y2="80" gradientUnits="userSpaceOnUse"><stop stop-color="#FCCB05"/><stop offset="1" stop-color="#FFE57D"/></linearGradient><filter id="filter0_d" x="0" y="0" width="430" height="260" filterUnits="userSpaceOnUse" color-interpolation-filters="sRGB"><feFlood flood-opacity="0" result="BackgroundImageFix"/><feColorMatrix in="SourceAlpha" values="0 0 0 0 0 0 0 0 0 0 0 0 0 0 0 0 0 0 127 0"/><feOffset/><feGaussianBlur stdDeviation="15"/><feColorMatrix values="0 0 0 0 0 0 0 0 0 0 0 0 0 0 0 0 0 0 0.1 0"/><feBlend in2="BackgroundImageFix" result="effect1_dropShadow"/><feBlend in="SourceGraphic" in2="effect1_dropShadow" result="shape"/></filter><filter id="filter1_d" x="9.5" y="9.5" width="411" height="241" filterUnits="userSpaceOnUse" color-interpolation-filters="sRGB"><feFlood flood-opacity="0" result="BackgroundImageFix"/><feColorMatrix in="SourceAlpha" values="0 0 0 0 0 0 0 0 0 0 0 0 0 0 0 0 0 0 127 0"/><feOffset/><feGaussianBlur stdDeviation="15"/><feColorMatrix values="0 0 0 0 0 0 0 0 0 0 0 0 0 0 0 0 0 0 0.1 0"/><feBlend in2="BackgroundImageFix" result="effect1_dropShadow"/><feBlend in="SourceGraphic" in2="effect1_dropShadow" result="shape"/></filter></defs></svg>