<svg width="984" height="306" fill="none" xmlns="http://www.w3.org/2000/svg"><path d="M583 50c0 27.614-22.386 50-50 50s-50-22.386-50-50 22.386-50 50-50 50 22.386 50 50z" fill="url(#paint0_linear)"/><mask id="mask0" maskUnits="userSpaceOnUse" x="483" y="0" width="100" height="100"><circle cx="533" cy="50" r="50" fill="url(#paint1_linear)"/></mask><g mask="url(#mask0)" stroke="#fff" stroke-width="2"><path d="M530.707 22.893c.733-1.486 2.853-1.486 3.586 0l6.164 12.489a3.999 3.999 0 003.012 2.188l13.781 2.002c1.64.239 2.296 2.255 1.108 3.412l-9.972 9.72a3.998 3.998 0 00-1.15 3.541l2.354 13.726c.28 1.634-1.435 2.88-2.902 2.108l-12.327-6.48a3.999 3.999 0 00-3.722 0l-12.327 6.48c-1.467.772-3.182-.474-2.902-2.108l2.354-13.726a3.998 3.998 0 00-1.15-3.54l-9.972-9.721c-1.188-1.157-.532-3.173 1.108-3.412l13.781-2.002a3.999 3.999 0 003.012-2.188l6.164-12.488z" style="mix-blend-mode:overlay"/><path d="M531.603 37.077a1 1 0 011.794 0l2.59 5.248a3 3 0 002.259 1.641l5.792.842a1 1 0 01.555 1.706l-4.192 4.085a3 3 0 00-.863 2.656l.99 5.769a1 1 0 01-1.451 1.054l-5.181-2.724a3 3 0 00-2.792 0l-5.181 2.724a1 1 0 01-1.451-1.054l.99-5.77a3 3 0 00-.863-2.655l-4.192-4.085a1 1 0 01.555-1.706l5.792-.842a3 3 0 002.259-1.64l2.59-5.25z" style="mix-blend-mode:overlay"/></g><g filter="url(#filter0_d)"><path fill-rule="evenodd" clip-rule="evenodd" d="M471.709 68H40c-5.523 0-10 4.477-10 10v188c0 5.523 4.477 10 10 10h904c5.523 0 10-4.477 10-10V78c0-5.523-4.477-10-10-10H597.148c-4.59 28.868-30.922 51-62.719 51s-58.13-22.132-62.72-51z" fill="#fff"/></g><g filter="url(#filter1_d)"><path d="M467.609 78l.482-.135-.103-.365h-.379v.5zm134.782 0v-.5h-.379l-.103.365.482.135zm-556.41.297a.5.5 0 00.383.924l-.383-.924zm-4.76 6.067a.5.5 0 00-.924-.383l.924.383zM39.5 91.5a.5.5 0 001 0h-1zm1 7a.5.5 0 00-1 0h1zm-1 7a.5.5 0 001 0h-1zm1 7a.5.5 0 00-1 0h1zm-1 7a.5.5 0 001 0h-1zm1 7a.5.5 0 00-1 0h1zm-1 7a.5.5 0 001 0h-1zm1 7a.5.5 0 00-1 0h1zm-1 7a.5.5 0 001 0h-1zm1 7a.5.5 0 00-1 0h1zm-1 7a.5.5 0 001 0h-1zm1 7a.5.5 0 00-1 0h1zm-1 7a.5.5 0 001 0h-1zm1 7a.5.5 0 00-1 0h1zm-1 7a.5.5 0 001 0h-1zm1 7a.5.5 0 00-1 0h1zm-1 7a.5.5 0 001 0h-1zm1 7a.5.5 0 00-1 0h1zm-1 7a.5.5 0 001 0h-1zm1 7a.5.5 0 00-1 0h1zm-1 7a.5.5 0 001 0h-1zm1 7a.5.5 0 00-1 0h1zm-1 7a.5.5 0 001 0h-1zm1 7a.5.5 0 00-1 0h1zm-.203 7.519a.5.5 0 10.924-.383l-.924.383zm6.067 4.76a.501.501 0 00-.383.924l.383-.924zm7.144 1.721a.5.5 0 000-1v1zm7.016-1a.5.5 0 000 1v-1zm7.016 1a.5.5 0 000-1v1zm7.016-1a.5.5 0 000 1v-1zm7.015 1a.5.5 0 000-1v1zm7.016-1a.5.5 0 000 1v-1zm7.016 1a.5.5 0 000-1v1zm7.016-1a.5.5 0 000 1v-1zm7.016 1a.5.5 0 000-1v1zm7.016-1a.5.5 0 000 1v-1zm7.016 1a.5.5 0 000-1v1zm7.016-1a.5.5 0 100 1v-1zm7.015 1a.5.5 0 100-1v1zm7.016-1a.5.5 0 000 1v-1zm7.016 1a.5.5 0 000-1v1zm7.016-1a.5.5 0 000 1v-1zm7.016 1a.5.5 0 000-1v1zm7.016-1a.5.5 0 000 1v-1zm7.016 1a.5.5 0 000-1v1zm7.016-1a.5.5 0 100 1v-1zm7.015 1a.5.5 0 100-1v1zm7.016-1a.5.5 0 000 1v-1zm7.016 1a.5.5 0 000-1v1zm7.016-1a.5.5 0 000 1v-1zm7.016 1a.5.5 0 000-1v1zm7.016-1a.5.5 0 000 1v-1zm7.016 1a.5.5 0 000-1v1zm7.015-1a.5.5 0 000 1v-1zm7.016 1a.5.5 0 000-1v1zm7.016-1a.5.5 0 000 1v-1zm7.016 1a.5.5 0 000-1v1zm7.016-1a.5.5 0 000 1v-1zm7.016 1a.5.5 0 000-1v1zm7.016-1a.5.5 0 000 1v-1zm7.016 1a.5.5 0 000-1v1zm7.015-1a.5.5 0 000 1v-1zm7.016 1a.5.5 0 000-1v1zm7.016-1a.5.5 0 000 1v-1zm7.016 1a.5.5 0 000-1v1zm7.016-1a.5.5 0 000 1v-1zm7.016 1a.5.5 0 000-1v1zm7.016-1a.5.5 0 100 1v-1zm7.015 1a.5.5 0 100-1v1zm7.016-1a.5.5 0 000 1v-1zm7.016 1a.5.5 0 000-1v1zm7.016-1a.5.5 0 000 1v-1zm7.016 1a.5.5 0 000-1v1zm7.016-1a.5.5 0 000 1v-1zm7.016 1a.5.5 0 000-1v1zm7.016-1a.5.5 0 100 1v-1zm7.015 1a.5.5 0 100-1v1zm7.016-1a.5.5 0 000 1v-1zm7.016 1a.5.5 0 000-1v1zm7.016-1a.5.5 0 000 1v-1zm7.016 1a.5.5 0 000-1v1zm7.016-1a.5.5 0 000 1v-1zm7.016 1a.5.5 0 000-1v1zm7.016-1a.5.5 0 100 1v-1zm7.015 1a.5.5 0 100-1v1zm7.016-1a.5.5 0 000 1v-1zm7.016 1a.5.5 0 000-1v1zm7.016-1a.5.5 0 000 1v-1zm7.016 1a.5.5 0 000-1v1zm7.016-1a.5.5 0 000 1v-1zm7.016 1a.5.5 0 000-1v1zm7.016-1a.5.5 0 100 1v-1zm7.015 1a.5.5 0 100-1v1zm7.016-1a.5.5 0 000 1v-1zm7.016 1a.5.5 0 000-1v1zm7.016-1a.5.5 0 000 1v-1zm7.016 1a.5.5 0 000-1v1zm7.016-1a.5.5 0 000 1v-1zm7.016 1a.5.5 0 000-1v1zm7.015-1a.5.5 0 000 1v-1zm7.016 1a.5.5 0 000-1v1zm7.016-1a.5.5 0 000 1v-1zm7.016 1a.5.5 0 000-1v1zm7.016-1a.5.5 0 000 1v-1zm7.016 1a.5.5 0 000-1v1zm7.016-1a.5.5 0 000 1v-1zm7.016 1a.5.5 0 000-1v1zm7.015-1a.5.5 0 000 1v-1zm7.016 1a.5.5 0 000-1v1zm7.016-1a.5.5 0 000 1v-1zm7.016 1a.5.5 0 000-1v1zm7.016-1a.5.5 0 000 1v-1zm7.016 1a.5.5 0 000-1v1zm7.016-1a.5.5 0 100 1v-1zm7.015 1a.5.5 0 100-1v1zm7.016-1a.5.5 0 000 1v-1zm7.016 1a.5.5 0 000-1v1zm7.016-1a.5.5 0 000 1v-1zm7.016 1a.5.5 0 000-1v1zm7.016-1a.5.5 0 000 1v-1zm7.016 1a.5.5 0 000-1v1zm7.016-1a.5.5 0 100 1v-1zm7.015 1a.5.5 0 100-1v1zm7.016-1a.5.5 0 000 1v-1zm7.016 1a.5.5 0 000-1v1zm7.016-1a.5.5 0 000 1v-1zm7.016 1a.5.5 0 000-1v1zm7.016-1a.5.5 0 000 1v-1zm7.016 1a.5.5 0 000-1v1zm7.016-1a.5.5 0 100 1v-1zm7.015 1a.5.5 0 100-1v1zm7.016-1a.5.5 0 000 1v-1zm7.016 1a.5.5 0 000-1v1zm7.016-1a.5.5 0 000 1v-1zm7.016 1a.5.5 0 000-1v1zm7.016-1a.5.5 0 000 1v-1zm7.016 1a.5.5 0 000-1v1zm7.015-1a.5.5 0 000 1v-1zm7.016 1a.5.5 0 000-1v1zm7.016-1a.5.5 0 000 1v-1zm7.016 1a.5.5 0 000-1v1zm7.016-1a.5.5 0 000 1v-1zm7.016 1a.5.5 0 000-1v1zm7.016-1a.5.5 0 000 1v-1zm7.016 1a.5.5 0 000-1v1zm7.015-1a.5.5 0 000 1v-1zm7.016 1a.5.5 0 000-1v1zm7.016-1a.5.5 0 000 1v-1zm7.016 1a.5.5 0 000-1v1zm7.016-1a.5.5 0 000 1v-1zm7.016 1a.5.5 0 000-1v1zm7.016-1a.5.5 0 000 1v-1zm7.527.203a.5.5 0 10-.383-.924l.383.924zm4.76-6.067a.5.5 0 10.924.383l-.924-.383zm1.721-7.136a.5.5 0 00-1 0h1zm-1-7a.5.5 0 001 0h-1zm1-7a.5.5 0 00-1 0h1zm-1-7a.5.5 0 001 0h-1zm1-7a.5.5 0 00-1 0h1zm-1-7a.5.5 0 001 0h-1zm1-7a.5.5 0 00-1 0h1zm-1-7a.5.5 0 001 0h-1zm1-7a.5.5 0 00-1 0h1zm-1-7a.5.5 0 001 0h-1zm1-7a.5.5 0 00-1 0h1zm-1-7a.5.5 0 001 0h-1zm1-7a.5.5 0 00-1 0h1zm-1-7a.5.5 0 001 0h-1zm1-7a.5.5 0 00-1 0h1zm-1-7a.5.5 0 001 0h-1zm1-7a.5.5 0 00-1 0h1zm-1-7a.5.5 0 001 0h-1zm1-7a.5.5 0 00-1 0h1zm-1-7a.5.5 0 001 0h-1zm1-7a.5.5 0 00-1 0h1zm-1-7a.5.5 0 001 0h-1zm1-7a.5.5 0 00-1 0h1zm-1-7a.5.5 0 001 0h-1zm.203-7.52a.5.5 0 10-.924.384l.924-.383zm-6.067-4.76a.5.5 0 00.383-.923l-.383.924zm-7.09-1.72a.5.5 0 000 1v-1zm-6.909 1a.5.5 0 000-1v1zm-6.908-1a.5.5 0 000 1v-1zm-6.909 1a.5.5 0 000-1v1zm-6.908-1a.5.5 0 100 1v-1zm-6.909 1a.5.5 0 000-1v1zm-6.908-1a.5.5 0 100 1v-1zm-6.909 1a.5.5 0 000-1v1zm-6.908-1a.5.5 0 100 1v-1zm-6.909 1a.5.5 0 000-1v1zm-6.909-1a.5.5 0 000 1v-1zm-6.908 1a.5.5 0 000-1v1zm-6.909-1a.5.5 0 000 1v-1zm-6.908 1a.5.5 0 000-1v1zm-6.909-1a.5.5 0 000 1v-1zm-6.908 1a.5.5 0 000-1v1zm-6.909-1a.5.5 0 000 1v-1zm-6.908 1a.5.5 0 000-1v1zm-6.909-1a.5.5 0 000 1v-1zm-6.908 1a.5.5 0 000-1v1zm-6.909-1a.5.5 0 000 1v-1zm-6.908 1a.5.5 0 000-1v1zm-6.909-1a.5.5 0 000 1v-1zm-6.908 1a.5.5 0 000-1v1zm-6.909-1a.5.5 0 000 1v-1zm-6.908 1a.5.5 0 000-1v1zm-6.909-1a.5.5 0 000 1v-1zm-6.908 1a.5.5 0 000-1v1zm-6.909-1a.5.5 0 000 1v-1zm-6.909 1a.5.5 0 100-1v1zm-6.908-1a.5.5 0 000 1v-1zm-6.909 1a.5.5 0 100-1v1zm-6.908-1a.5.5 0 000 1v-1zm-6.909 1a.5.5 0 100-1v1zm-6.908-1a.5.5 0 000 1v-1zm-6.909 1a.5.5 0 000-1v1zm-6.908-1a.5.5 0 000 1v-1zm-6.909 1a.5.5 0 000-1v1zm-6.908-1a.5.5 0 000 1v-1zm-6.909 1a.5.5 0 000-1v1zm-6.908-1a.5.5 0 000 1v-1zm-6.909 1a.5.5 0 000-1v1zm-6.908-1a.5.5 0 000 1v-1zm-6.909 1a.5.5 0 000-1v1zm-6.908-1a.5.5 0 100 1v-1zm-6.909 1a.5.5 0 000-1v1zm-6.909-1a.5.5 0 000 1v-1zm-6.908 1a.5.5 0 000-1v1zm-5.05 2.95a.5.5 0 10.946.322l-.946-.323zm-1.899 7.38a.5.5 0 10-.906-.423l.906.424zm-4.448 6.192a.5.5 0 00.855.52l-.855-.52zm-3.441 6.802a.5.5 0 10-.794-.608l.794.608zm-5.669 5.096a.5.5 0 00.724.69l-.724-.69zm-4.812 5.912a.5.5 0 00-.646-.763l.646.763zm-6.625 3.77a.5.5 0 10.56.828l-.56-.828zm-5.965 4.747a.5.5 0 00-.467-.884l.467.884zm-7.28 2.262a.5.5 0 00.37.929l-.37-.929zm-6.845 3.351a.5.5 0 10-.266-.964l.266.964zm-7.597.638a.5.5 0 00.161.987l-.161-.987zm-7.406 1.799a.5.5 0 00-.053-.999l.053.999zm-7.563-.999a.501.501 0 00-.053.999l.053-.999zm-7.62.187a.5.5 0 00.161-.987l-.161.987zm-7.17-2.589a.5.5 0 00-.266.964l.266-.964zm-7.481-1.458a.5.5 0 10.369-.929l-.369.929zm-6.443-4.075a.5.5 0 10-.467.884l.467-.884zm-6.992-3.035a.499.499 0 10.56-.828l-.56.828zm-5.419-5.361a.5.5 0 00-.646.763l.646-.763zm-6.182-4.459a.5.5 0 00.724-.69l-.724.69zm-4.151-6.394a.501.501 0 00-.794.608l.794-.608zm-5.09-5.675a.5.5 0 00.855-.519l-.855.52zm-2.687-7.134a.5.5 0 00-.906.424l.906-.424zm-3.751-6.635a.5.5 0 10.946-.323l-.946.323zm-4.13-4.272a.5.5 0 000 1v-1zm-6.96 1a.5.5 0 000-1v1zm-6.96-1a.5.5 0 000 1v-1zm-6.96 1a.5.5 0 000-1v1zm-6.96-1a.5.5 0 100 1v-1zm-6.961 1a.5.5 0 100-1v1zm-6.96-1a.5.5 0 000 1v-1zm-6.96 1a.5.5 0 000-1v1zm-6.96-1a.5.5 0 000 1v-1zm-6.96 1a.5.5 0 000-1v1zm-6.96-1a.5.5 0 000 1v-1zm-6.96 1a.5.5 0 000-1v1zm-6.961-1a.5.5 0 000 1v-1zm-6.96 1a.5.5 0 000-1v1zm-6.96-1a.5.5 0 000 1v-1zm-6.96 1a.5.5 0 000-1v1zm-6.96-1a.5.5 0 000 1v-1zm-6.96 1a.5.5 0 000-1v1zm-6.961-1a.5.5 0 000 1v-1zm-6.96 1a.5.5 0 000-1v1zm-6.96-1a.5.5 0 000 1v-1zm-6.96 1a.5.5 0 000-1v1zm-6.96-1a.5.5 0 000 1v-1zm-6.96 1a.5.5 0 000-1v1zm-6.96-1a.5.5 0 100 1v-1zm-6.961 1a.5.5 0 000-1v1zm-6.96-1a.5.5 0 000 1v-1zm-6.96 1a.5.5 0 000-1v1zm-6.96-1a.5.5 0 000 1v-1zm-6.96 1a.5.5 0 000-1v1zm-6.96-1a.5.5 0 100 1v-1zm-6.961 1a.5.5 0 100-1v1zm-6.96-1a.5.5 0 000 1v-1zm-6.96 1a.5.5 0 000-1v1zm-6.96-1a.5.5 0 000 1v-1zm-6.96 1a.5.5 0 000-1v1zm-6.96-1a.5.5 0 100 1v-1zm-6.961 1a.5.5 0 100-1v1zm-6.96-1a.5.5 0 000 1v-1zm-6.96 1a.5.5 0 000-1v1zm-6.96-1a.5.5 0 000 1v-1zm-6.96 1a.5.5 0 000-1v1zm-6.96-1a.5.5 0 000 1v-1zm-6.96 1a.5.5 0 000-1v1zm-6.961-1a.5.5 0 000 1v-1zm-6.96 1a.5.5 0 000-1v1zm-6.96-1a.5.5 0 000 1v-1zm-6.96 1a.5.5 0 000-1v1zm-6.96-1a.5.5 0 000 1v-1zm-6.96 1a.5.5 0 000-1v1zm-6.96-1a.5.5 0 100 1v-1zm-6.961 1a.5.5 0 100-1v1zm-6.96-1a.5.5 0 000 1v-1zm-6.96 1a.5.5 0 100-1v1zm-6.96-1a.5.5 0 000 1v-1zm-6.96 1a.5.5 0 000-1v1zm-6.96-1a.5.5 0 000 1v-1zm-6.96 1a.5.5 0 000-1v1zm-6.96-1a.5.5 0 000 1v-1zm-6.96 1a.5.5 0 000-1v1zM50 77.5c-1.423 0-2.78.283-4.02.797l.384.924A9.47 9.47 0 0150 78.5v-1zm-9.703 6.48A10.471 10.471 0 0039.5 88h1a9.47 9.47 0 01.72-3.636l-.923-.383zM39.5 88v3.5h1V88h-1zm0 10.5v7h1v-7h-1zm0 14v7h1v-7h-1zm0 14v7h1v-7h-1zm0 14v7h1v-7h-1zm0 14v7h1v-7h-1zm0 14v7h1v-7h-1zm0 14v7h1v-7h-1zm0 14v7h1v-7h-1zm0 14v7h1v-7h-1zm0 14v7h1v-7h-1zm0 14v7h1v-7h-1zm0 14v3.5h1v-3.5h-1zm0 3.5c0 1.423.283 2.781.797 4.019l.924-.383A9.467 9.467 0 0140.5 256h-1zm6.48 9.703c1.24.514 2.597.797 4.02.797v-1a9.455 9.455 0 01-3.636-.721l-.383.924zm4.02.797h3.508v-1H50v1zm10.524 0h7.016v-1h-7.016v1zm14.032 0h7.015v-1h-7.015v1zm14.031 0h7.016v-1h-7.016v1zm14.032 0h7.016v-1h-7.016v1zm14.032 0h7.016v-1h-7.016v1zm14.032 0h7.015v-1h-7.015v1zm14.031 0h7.016v-1h-7.016v1zm14.032 0h7.016v-1h-7.016v1zm14.032 0h7.016v-1h-7.016v1zm14.032 0h7.015v-1h-7.015v1zm14.031 0h7.016v-1h-7.016v1zm14.032 0h7.016v-1h-7.016v1zm14.032 0h7.016v-1h-7.016v1zm14.031 0h7.016v-1h-7.016v1zm14.032 0h7.016v-1h-7.016v1zm14.032 0h7.016v-1H271v1zm14.032 0h7.016v-1h-7.016v1zm14.031 0h7.016v-1h-7.016v1zm14.032 0h7.016v-1h-7.016v1zm14.032 0h7.016v-1h-7.016v1zm14.032 0h7.015v-1h-7.015v1zm14.031 0h7.016v-1h-7.016v1zm14.032 0h7.016v-1h-7.016v1zm14.032 0h7.016v-1h-7.016v1zm14.032 0h7.015v-1h-7.015v1zm14.031 0h7.016v-1h-7.016v1zm14.032 0h7.016v-1h-7.016v1zm14.032 0h7.016v-1h-7.016v1zm14.032 0h7.015v-1h-7.015v1zm14.031 0h7.016v-1h-7.016v1zm14.032 0h7.016v-1h-7.016v1zm14.032 0h7.016v-1h-7.016v1zm14.032 0h7.015v-1h-7.015v1zm14.031 0h7.016v-1h-7.016v1zm14.032 0h7.016v-1h-7.016v1zm14.032 0h7.016v-1h-7.016v1zm14.031 0h7.016v-1h-7.016v1zm14.032 0h7.016v-1h-7.016v1zm14.032 0h7.016v-1h-7.016v1zm14.032 0h7.016v-1h-7.016v1zm14.031 0h7.016v-1h-7.016v1zm14.032 0h7.016v-1h-7.016v1zm14.032 0h7.016v-1h-7.016v1zm14.032 0h7.015v-1h-7.015v1zm14.031 0h7.016v-1h-7.016v1zm14.032 0h7.016v-1h-7.016v1zm14.032 0H713v-1h-7.016v1zm14.032 0h7.015v-1h-7.015v1zm14.031 0h7.016v-1h-7.016v1zm14.032 0h7.016v-1h-7.016v1zm14.032 0h7.016v-1h-7.016v1zm14.032 0h7.015v-1h-7.015v1zm14.031 0h7.016v-1h-7.016v1zm14.032 0h7.016v-1h-7.016v1zm14.032 0h7.016v-1h-7.016v1zm14.031 0h7.016v-1h-7.016v1zm14.032 0h7.016v-1h-7.016v1zm14.032 0h7.016v-1h-7.016v1zm14.032 0h7.016v-1h-7.016v1zm14.031 0h7.016v-1h-7.016v1zm14.032 0h7.016v-1h-7.016v1zm14.032 0h7.016v-1h-7.016v1zm14.032 0H934v-1h-3.508v1zm3.508 0c1.423 0 2.781-.283 4.019-.797l-.383-.924a9.452 9.452 0 01-3.636.721v1zm9.703-6.481c.514-1.238.797-2.596.797-4.019h-1a9.452 9.452 0 01-.721 3.636l.924.383zM944.5 256v-3.5h-1v3.5h1zm0-10.5v-7h-1v7h1zm0-14v-7h-1v7h1zm0-14v-7h-1v7h1zm0-14v-7h-1v7h1zm0-14v-7h-1v7h1zm0-14v-7h-1v7h1zm0-14v-7h-1v7h1zm0-14v-7h-1v7h1zm0-14v-7h-1v7h1zm0-14v-7h-1v7h1zm0-14v-7h-1v7h1zm0-14V88h-1v3.5h1zm0-3.5c0-1.423-.283-2.78-.797-4.02l-.924.384A9.455 9.455 0 01943.5 88h1zm-6.481-9.703A10.466 10.466 0 00934 77.5v1c1.289 0 2.517.257 3.636.72l.383-.923zM934 77.5h-3.454v1H934v-1zm-10.363 0h-6.908v1h6.908v-1zm-13.817 0h-6.908v1h6.908v-1zm-13.817 0h-6.908v1h6.908v-1zm-13.817 0h-6.908v1h6.908v-1zm-13.817 0h-6.909v1h6.909v-1zm-13.817 0h-6.909v1h6.909v-1zm-13.817 0h-6.909v1h6.909v-1zm-13.817 0h-6.909v1h6.909v-1zm-13.817 0h-6.909v1h6.909v-1zm-13.817 0h-6.909v1h6.909v-1zm-13.817 0h-6.909v1h6.909v-1zm-13.817 0h-6.909v1h6.909v-1zm-13.817 0h-6.909v1h6.909v-1zm-13.817 0h-6.909v1h6.909v-1zm-13.818 0h-6.908v1h6.908v-1zm-13.817 0h-6.908v1h6.908v-1zm-13.817 0h-6.908v1h6.908v-1zm-13.817 0h-6.908v1h6.908v-1zm-13.817 0h-6.908v1h6.908v-1zm-13.817 0h-6.908v1h6.908v-1zm-13.817 0h-6.908v1h6.908v-1zm-13.817 0h-6.908v1h6.908v-1zm-13.817 0h-6.909v1h6.909v-1zm-13.817 0h-3.454v1h3.454v-1zm-3.936.365a69.707 69.707 0 01-1.114 3.584l.946.323c.409-1.198.786-2.41 1.131-3.637l-.963-.27zm-3.919 10.542a69.352 69.352 0 01-3.542 6.615l.855.52a70.423 70.423 0 003.593-6.711l-.906-.424zm-7.777 12.809a69.567 69.567 0 01-4.875 5.704l.724.69a70.477 70.477 0 004.945-5.786l-.794-.608zm-10.333 10.853a70.218 70.218 0 01-5.979 4.533l.56.828a70.924 70.924 0 006.065-4.598l-.646-.763zm-12.411 8.396a68.982 68.982 0 01-6.813 3.146l.37.929a70.045 70.045 0 006.91-3.191l-.467-.884zm-13.924 5.533a68.865 68.865 0 01-7.331 1.602l.161.987a70.098 70.098 0 007.436-1.625l-.266-.964zm-14.79 2.402c-1.243.066-2.495.1-3.755.1v1c1.277 0 2.547-.034 3.808-.101l-.053-.999zm-3.755.1c-1.26 0-2.512-.034-3.755-.1l-.053.999c1.261.067 2.531.101 3.808.101v-1zm-11.214-.9a68.865 68.865 0 01-7.331-1.602l-.266.964a70.098 70.098 0 007.436 1.625l.161-.987zm-14.443-3.989a69.071 69.071 0 01-6.812-3.146l-.467.884a70.045 70.045 0 006.91 3.191l.369-.929zm-13.244-7.009a70.218 70.218 0 01-5.979-4.533l-.646.763a70.924 70.924 0 006.065 4.598l.56-.828zm-11.437-9.682a69.567 69.567 0 01-4.875-5.704l-.794.608a70.477 70.477 0 004.945 5.786l.724-.69zm-9.11-11.898a69.352 69.352 0 01-3.542-6.615l-.906.424a70.423 70.423 0 003.593 6.71l.855-.519zm-6.347-13.573a69.707 69.707 0 01-1.114-3.584l-.963.27a69.596 69.596 0 001.131 3.637l.946-.323zm-1.596-3.949h-3.48v1h3.48v-1zm-10.44 0h-6.96v1h6.96v-1zm-13.92 0h-6.96v1h6.96v-1zm-13.921 0h-6.96v1h6.96v-1zm-13.92 0h-6.96v1h6.96v-1zm-13.92 0h-6.96v1h6.96v-1zm-13.92 0h-6.961v1h6.961v-1zm-13.921 0h-6.96v1h6.96v-1zm-13.92 0h-6.96v1h6.96v-1zm-13.92 0h-6.961v1h6.961v-1zm-13.921 0h-6.96v1h6.96v-1zm-13.92 0h-6.96v1h6.96v-1zm-13.92 0h-6.96v1h6.96v-1zm-13.921 0h-6.96v1h6.96v-1zm-13.92 0h-6.96v1h6.96v-1zm-13.92 0h-6.96v1h6.96v-1zm-13.921 0h-6.96v1h6.96v-1zm-13.92 0h-6.96v1h6.96v-1zm-13.92 0h-6.96v1h6.96v-1zm-13.921 0h-6.96v1h6.96v-1zm-13.92 0h-6.96v1h6.96v-1zm-13.92 0h-6.96v1h6.96v-1zm-13.92 0h-6.961v1h6.961v-1zm-13.921 0h-6.96v1h6.96v-1zm-13.92 0h-6.96v1h6.96v-1zm-13.92 0h-6.96v1h6.96v-1zm-13.921 0h-6.96v1h6.96v-1zm-13.92 0h-6.96v1h6.96v-1zm-13.92 0h-6.96v1h6.96v-1zm-13.92 0h-6.96v1h6.96v-1zm-13.92 0H50v1h3.48v-1z" fill="#E5E5E5"/></g><defs><linearGradient id="paint0_linear" x1="483" y1="0" x2="588.512" y2="8.734" gradientUnits="userSpaceOnUse"><stop stop-color="#051EFC"/><stop offset=".877" stop-color="#51A1FF"/></linearGradient><linearGradient id="paint1_linear" x1="531.636" y1="100" x2="531.636" y2="0" gradientUnits="userSpaceOnUse"><stop stop-color="#FCCB05"/><stop offset="1" stop-color="#FFE57D"/></linearGradient><filter id="filter0_d" x="0" y="38" width="984" height="268" filterUnits="userSpaceOnUse" color-interpolation-filters="sRGB"><feFlood flood-opacity="0" result="BackgroundImageFix"/><feColorMatrix in="SourceAlpha" values="0 0 0 0 0 0 0 0 0 0 0 0 0 0 0 0 0 0 127 0"/><feOffset/><feGaussianBlur stdDeviation="15"/><feColorMatrix values="0 0 0 0 0 0 0 0 0 0 0 0 0 0 0 0 0 0 0.1 0"/><feBlend in2="BackgroundImageFix" result="effect1_dropShadow"/><feBlend in="SourceGraphic" in2="effect1_dropShadow" result="shape"/></filter><filter id="filter1_d" x="9.5" y="47.5" width="965" height="249" filterUnits="userSpaceOnUse" color-interpolation-filters="sRGB"><feFlood flood-opacity="0" result="BackgroundImageFix"/><feColorMatrix in="SourceAlpha" values="0 0 0 0 0 0 0 0 0 0 0 0 0 0 0 0 0 0 127 0"/><feOffset/><feGaussianBlur stdDeviation="15"/><feColorMatrix values="0 0 0 0 0 0 0 0 0 0 0 0 0 0 0 0 0 0 0.1 0"/><feBlend in2="BackgroundImageFix" result="effect1_dropShadow"/><feBlend in="SourceGraphic" in2="effect1_dropShadow" result="shape"/></filter></defs></svg>