<svg width="333" height="196" fill="none" xmlns="http://www.w3.org/2000/svg"><path d="M333 97c0 20.435-16.566 37-37 37-20.435 0-37-16.565-37-37 0-20.434 16.565-37 37-37 20.434 0 37 16.566 37 37z" fill="url(#paint0_linear)"/><mask id="mask0" maskUnits="userSpaceOnUse" x="259" y="60" width="74" height="74"><circle cx="296" cy="97" fill="url(#paint1_linear)" r="37"/></mask><g mask="url(#mask0)"><path fill-rule="evenodd" clip-rule="evenodd" d="M311.161 115.669V99.035l-14.667-15.268a.685.685 0 00-.989 0l-14.667 15.268v4.514a.65.65 0 11-1.301 0v-3.16l-1.324 1.378a1.54 1.54 0 01-2.201.022l-1.764-1.764a1.549 1.549 0 01-.022-2.157l20.02-20.84a2.431 2.431 0 013.508 0l20.019 20.84c.577.6.567 1.569-.022 2.157l-1.764 1.764a1.54 1.54 0 01-2.201-.022l-1.324-1.378v15.28a2.613 2.613 0 01-2.61 2.61h-1.009a.65.65 0 010-1.301h1.009a1.31 1.31 0 001.309-1.309zm3.906-14.8l1.764-1.764a.241.241 0 00.004-.336l-20.02-20.84a1.13 1.13 0 00-1.631 0l-20.019 20.84a.241.241 0 00.003.336l1.764 1.764c.115.095.23.094.343-.003l2.443-2.542.001-.002 14.848-15.456a1.985 1.985 0 012.863-.003l.002.003 17.292 18c.114.097.228.098.343.003zm-13.131 16.109h3.859a.65.65 0 110 1.301h-23.647a2.613 2.613 0 01-2.611-2.61v-9.084a.651.651 0 011.301 0v9.084c0 .722.588 1.309 1.31 1.309h7.916v-7.365a5.943 5.943 0 015.936-5.936 5.943 5.943 0 015.936 5.936v7.365zm-5.936-12a4.64 4.64 0 00-4.635 4.635v7.365h9.27v-7.365a4.64 4.64 0 00-4.635-4.635z" fill="#fff" style="mix-blend-mode:overlay"/></g><g filter="url(#filter0_d)"><path fill-rule="evenodd" clip-rule="evenodd" d="M30.399 23A7.399 7.399 0 0023 30.399V165.6a7.398 7.398 0 007.399 7.4H285.6a7.398 7.398 0 007.399-7.399v-22.603l-.438.002c-25.563 0-46.286-20.147-46.286-45s20.723-45 46.286-45c.146 0 .292 0 .438.002V30.399A7.398 7.398 0 00285.601 23H30.399z" fill="#fff"/></g><g filter="url(#filter1_d)"><path d="M283 148.396h.37v-.328l-.325-.04-.045.368zm0-102.82l.045.367.325-.04v-.327H283zm-250.37-2.94a.37.37 0 10.74 0h-.74zm.74 5.273a.37.37 0 10-.74 0h.74zm-.74 5.273a.37.37 0 10.74 0h-.74zm.74 5.273a.37.37 0 10-.74 0h.74zm-.74 5.272a.37.37 0 10.74 0h-.74zM33.37 69a.37.37 0 10-.74 0h.74zm-.74 5.273a.37.37 0 10.74 0h-.74zm.74 5.273a.37.37 0 10-.74 0h.74zm-.74 5.272a.37.37 0 10.74 0h-.74zm.74 5.273a.37.37 0 10-.74 0h.74zm-.74 5.273a.37.37 0 10.74 0h-.74zm.74 5.272a.37.37 0 00-.74 0h.74zm-.74 5.273a.37.37 0 00.74 0h-.74zm.74 5.273a.37.37 0 00-.74 0h.74zm-.74 5.273a.37.37 0 00.74 0h-.74zm.74 5.272a.37.37 0 00-.74 0h.74zM32.63 127a.37.37 0 00.74 0h-.74zm.74 5.273a.37.37 0 10-.74 0h.74zm-.74 5.272a.37.37 0 10.74 0h-.74zm.74 5.273a.37.37 0 00-.74 0h.74zm-.74 5.273a.37.37 0 00.74 0h-.74zm.74 5.273a.37.37 0 10-.74 0h.74zm-.18 5.457a.37.37 0 00.683-.283l-.683.283zm4.272 3.306a.37.37 0 10-.283.684l.283-.684zm5.103 1.243a.37.37 0 000-.74v.74zm5.13-.74a.37.37 0 000 .74v-.74zm5.131.74a.37.37 0 000-.74v.74zm5.13-.74a.37.37 0 000 .74v-.74zm5.131.74a.37.37 0 000-.74v.74zm5.13-.74a.37.37 0 000 .74v-.74zm5.13.74a.37.37 0 000-.74v.74zm5.131-.74a.37.37 0 000 .74v-.74zm5.13.74a.37.37 0 000-.74v.74zm5.131-.74a.37.37 0 000 .74v-.74zm5.13.74a.37.37 0 000-.74v.74zm5.131-.74a.37.37 0 000 .74v-.74zm5.13.74a.37.37 0 100-.74v.74zm5.131-.74a.37.37 0 000 .74v-.74zm5.13.74a.37.37 0 100-.74v.74zm5.131-.74a.37.37 0 100 .74v-.74zm5.13.74a.37.37 0 000-.74v.74zm5.131-.74a.37.37 0 100 .74v-.74zm5.13.74a.37.37 0 000-.74v.74zm5.13-.74a.37.37 0 000 .74v-.74zm5.131.74a.37.37 0 000-.74v.74zm5.13-.74a.37.37 0 000 .74v-.74zm5.131.74a.37.37 0 000-.74v.74zm5.13-.74a.37.37 0 000 .74v-.74zm5.131.74a.37.37 0 000-.74v.74zm5.13-.74a.37.37 0 000 .74v-.74zm5.13.74a.37.37 0 100-.74v.74zm5.131-.74a.37.37 0 000 .74v-.74zm5.13.74a.37.37 0 100-.74v.74zm5.131-.74a.37.37 0 100 .74v-.74zm5.13.74a.37.37 0 100-.74v.74zm5.131-.74a.37.37 0 100 .74v-.74zm5.13.74a.37.37 0 000-.74v.74zm5.131-.74a.37.37 0 100 .74v-.74zm5.13.74a.37.37 0 000-.74v.74zm5.13-.74a.37.37 0 000 .74v-.74zm5.131.74a.37.37 0 000-.74v.74zm5.13-.74a.37.37 0 000 .74v-.74zm5.131.74a.37.37 0 000-.74v.74zm5.13-.74a.37.37 0 000 .74v-.74zm5.131.74a.37.37 0 000-.74v.74zm5.13-.74a.37.37 0 000 .74v-.74zm5.13.74a.37.37 0 100-.74v.74zm5.131-.74a.37.37 0 000 .74v-.74zm5.13.74a.37.37 0 100-.74v.74zm5.131-.74a.37.37 0 100 .74v-.74zm5.386.181a.37.37 0 00-.283-.684l.283.684zm3.306-4.273a.37.37 0 10.684.283l-.684-.283zm1.243-4.439a.37.37 0 00-.74 0h.74zm-.74-3.802a.37.37 0 00.74 0h-.74zm-2.218-2.658a.37.37 0 00-.127.729l.127-.729zm-5.388-.473a.372.372 0 00.457-.255.371.371 0 00-.255-.457l-.202.712zm-4.832-2.43a.37.37 0 00-.275.686l.275-.686zm-5.172-1.578a.37.37 0 00.345-.654l-.345.654zm-4.226-3.375a.37.37 0 10-.411.615l.411-.615zm-4.738-2.608a.37.37 0 00.472-.57l-.472.57zm-3.444-4.169a.37.37 0 10-.528.518l.528-.518zm-4.105-3.521a.37.37 0 10.578-.462l-.578.462zm-2.52-4.786a.369.369 0 10-.622.4l.622-.4zm-3.296-4.288a.37.37 0 10.661-.333l-.661.333zm-1.481-5.201a.37.37 0 00-.691.262l.691-.262zm-2.338-4.875a.37.37 0 00.715-.189l-.715.189zm-.373-5.396a.37.37 0 00-.731.114l.731-.114zm-1.283-5.255a.37.37 0 00.739-.037l-.739.037zm.739-5.36a.37.37 0 10-.739-.037l.739.038zm-.187-5.405a.37.37 0 10.731.113l-.731-.113zm1.819-5.093a.37.37 0 00-.715-.19l.715.19zm.932-5.327a.37.37 0 10.691.263l-.691-.263zm2.833-4.606a.37.37 0 10-.661-.333l.661.333zm2.013-5.02a.369.369 0 10.622.4l-.622-.4zm3.72-3.925a.37.37 0 10-.578-.461l.578.461zm2.999-4.5a.37.37 0 00.528.518l-.528-.518zm4.444-3.081a.37.37 0 00-.472-.57l.472.57zm3.855-3.793a.37.37 0 00.411.615l-.411-.615zm4.982-2.106a.37.37 0 10-.345-.654l.345.654zm4.552-2.919a.37.37 0 00.275.687l-.275-.687zm5.309-1.031a.37.37 0 00-.202-.712l.202.712zm5.059-1.915a.37.37 0 10.127.73l-.127-.73zm3.085-1.421a.37.37 0 00-.74 0h.74zm-.74-2.788a.37.37 0 00.74 0h-.74zm.181-4.215a.37.37 0 00-.684.283l.684-.283zm-4.273-3.306a.37.37 0 10.283-.683l-.283.683zm-5.103-1.243a.37.37 0 100 .74v-.74zm-5.131.74a.37.37 0 100-.74v.74zm-5.13-.74a.37.37 0 000 .74v-.74zm-5.131.74a.37.37 0 100-.74v.74zm-5.13-.74a.37.37 0 000 .74v-.74zm-5.13.74a.37.37 0 000-.74v.74zm-5.131-.74a.37.37 0 000 .74v-.74zm-5.13.74a.37.37 0 000-.74v.74zm-5.131-.74a.37.37 0 000 .74v-.74zm-5.13.74a.37.37 0 000-.74v.74zm-5.131-.74a.37.37 0 000 .74v-.74zm-5.13.74a.37.37 0 000-.74v.74zm-5.13-.74a.37.37 0 100 .74v-.74zm-5.131.74a.37.37 0 000-.74v.74zm-5.13-.74a.37.37 0 100 .74v-.74zm-5.131.74a.37.37 0 100-.74v.74zm-5.13-.74a.37.37 0 000 .74v-.74zm-5.131.74a.37.37 0 100-.74v.74zm-5.13-.74a.37.37 0 000 .74v-.74zm-5.13.74a.37.37 0 000-.74v.74zm-5.131-.74a.37.37 0 000 .74v-.74zm-5.13.74a.37.37 0 000-.74v.74zm-5.131-.74a.37.37 0 000 .74v-.74zm-5.13.74a.37.37 0 000-.74v.74zm-5.131-.74a.37.37 0 000 .74v-.74zm-5.13.74a.37.37 0 000-.74v.74zm-5.131-.74a.37.37 0 000 .74v-.74zm-5.13.74a.37.37 0 000-.74v.74zm-5.13-.74a.37.37 0 100 .74v-.74zm-5.131.74a.37.37 0 100-.74v.74zm-5.13-.74a.37.37 0 100 .74v-.74zm-5.131.74a.37.37 0 100-.74v.74zm-5.13-.74a.37.37 0 000 .74v-.74zm-5.131.74a.37.37 0 100-.74v.74zM99 32.63a.37.37 0 100 .74v-.74zm-5.13.74a.37.37 0 100-.74v.74zm-5.13-.74a.37.37 0 100 .74v-.74zm-5.131.74a.37.37 0 100-.74v.74zm-5.13-.74a.37.37 0 100 .74v-.74zm-5.131.74a.37.37 0 100-.74v.74zm-5.13-.74a.37.37 0 100 .74v-.74zm-5.131.74a.37.37 0 100-.74v.74zm-5.13-.74a.37.37 0 100 .74v-.74zm-5.13.74a.37.37 0 100-.74v.74zm-5.131-.74a.37.37 0 100 .74v-.74zm-5.13.74a.37.37 0 100-.74v.74zm-5.387-.18a.37.37 0 10.283.683l-.283-.683zm-3.306 4.272a.37.37 0 00-.683-.283l.683.283zM32.63 40v2.636h.74V40h-.74zm0 7.91v5.272h.74v-5.273h-.74zm0 10.545v5.272h.74v-5.272h-.74zm0 10.545v5.273h.74V69h-.74zm0 10.546v5.272h.74v-5.272h-.74zm0 10.545v5.273h.74V90.09h-.74zm0 10.545v5.273h.74v-5.273h-.74zm0 10.546v5.273h.74v-5.273h-.74zm0 10.545V127h.74v-5.273h-.74zm0 10.546v5.272h.74v-5.272h-.74zm0 10.545v5.273h.74v-5.273h-.74zm0 10.546V156h.74v-2.636h-.74zm0 2.636c0 .999.199 1.952.56 2.821l.683-.283A6.607 6.607 0 0133.37 156h-.74zm4.549 6.811a7.36 7.36 0 002.821.559v-.74c-.9 0-1.757-.179-2.538-.503l-.283.684zm2.821.559h2.565v-.74H40v.74zm7.696 0h5.13v-.74h-5.13v.74zm10.26 0h5.131v-.74h-5.13v.74zm10.261 0h5.13v-.74h-5.13v.74zm10.261 0h5.13v-.74h-5.13v.74zm10.261 0h5.13v-.74h-5.13v.74zm10.261 0h5.13v-.74H99v.74zm10.261 0h5.13v-.74h-5.13v.74zm10.261 0h5.13v-.74h-5.13v.74zm10.261 0h5.13v-.74h-5.13v.74zm10.26 0h5.131v-.74h-5.131v.74zm10.261 0h5.131v-.74h-5.131v.74zm10.261 0h5.131v-.74h-5.131v.74zm10.261 0h5.13v-.74h-5.13v.74zm10.261 0h5.13v-.74h-5.13v.74zm10.261 0h5.13v-.74h-5.13v.74zm10.261 0h5.13v-.74h-5.13v.74zm10.261 0H217v-.74h-5.13v.74zm10.26 0h5.131v-.74h-5.131v.74zm10.261 0h5.131v-.74h-5.131v.74zm10.261 0h5.131v-.74h-5.131v.74zm10.261 0h5.13v-.74h-5.13v.74zm10.261 0h5.13v-.74h-5.13v.74zm10.261 0H276v-.74h-2.565v.74zm2.565 0c.999 0 1.952-.199 2.821-.559l-.283-.684a6.607 6.607 0 01-2.538.503v.74zm6.811-4.549c.36-.869.559-1.822.559-2.821h-.74c0 .9-.179 1.757-.503 2.538l.684.283zm.559-2.821v-1.901h-.74V156h.74zm0-5.703v-1.901h-.74v1.901h.74zm-.325-2.269a50.563 50.563 0 01-2.633-.389l-.127.729c.883.154 1.773.286 2.67.395l.09-.735zm-7.819-1.574a51.236 51.236 0 01-5.034-1.718l-.275.686a51.85 51.85 0 005.107 1.744l.202-.712zm-9.861-3.95a51.784 51.784 0 01-4.571-2.721l-.411.615a52.016 52.016 0 004.637 2.76l.345-.654zm-8.837-5.899a51.699 51.699 0 01-3.916-3.599l-.528.518a52.576 52.576 0 003.972 3.651l.472-.57zm-7.443-7.582a51.709 51.709 0 01-3.098-4.324l-.622.4a52.332 52.332 0 003.142 4.386l.578-.462zm-5.733-8.945a51.354 51.354 0 01-2.142-4.868l-.691.262a51.71 51.71 0 002.172 4.939l.661-.333zm-3.765-9.932a50.917 50.917 0 01-1.088-5.207l-.731.114a51.791 51.791 0 001.104 5.282l.715-.189zm-1.632-10.5a52.175 52.175 0 01-.067-2.66h-.74c0 .905.023 1.805.068 2.698l.739-.037zm-.067-2.66c0-.893.022-1.78.067-2.661l-.739-.038a53.664 53.664 0 00-.068 2.699h.74zm.611-7.954a50.885 50.885 0 011.088-5.206l-.715-.19a51.782 51.782 0 00-1.104 5.283l.731.113zm2.711-10.27a51.372 51.372 0 012.142-4.869l-.661-.333a51.685 51.685 0 00-2.172 4.94l.691.261zm4.777-9.49a51.658 51.658 0 013.098-4.324l-.578-.461a52.184 52.184 0 00-3.142 4.386l.622.4zm6.625-8.306a51.62 51.62 0 013.916-3.6l-.472-.57a52.512 52.512 0 00-3.972 3.652l.528.518zm8.182-6.777a51.467 51.467 0 014.571-2.72l-.345-.655a52.182 52.182 0 00-4.637 2.76l.411.615zm9.398-4.953a51.054 51.054 0 015.034-1.718l-.202-.712a51.793 51.793 0 00-5.107 1.743l.275.687zm10.22-2.904c.87-.151 1.748-.281 2.633-.389l-.09-.734c-.897.109-1.787.24-2.67.394l.127.73zm2.958-.756v-1.394h-.74v1.394h.74zm0-4.182V40h-.74v1.394h.74zm0-1.394a7.36 7.36 0 00-.559-2.821l-.684.283c.324.781.503 1.638.503 2.538h.74zm-4.549-6.81a7.344 7.344 0 00-2.821-.56v.74c.9 0 1.757.179 2.538.503l.283-.683zM276 32.63h-2.565v.74H276v-.74zm-7.696 0h-5.13v.74h5.13v-.74zm-10.261 0h-5.13v.74h5.13v-.74zm-10.26 0h-5.131v.74h5.131v-.74zm-10.261 0h-5.131v.74h5.131v-.74zm-10.261 0h-5.131v.74h5.131v-.74zm-10.261 0h-5.13v.74H217v-.74zm-10.261 0h-5.13v.74h5.13v-.74zm-10.261 0h-5.13v.74h5.13v-.74zm-10.261 0h-5.13v.74h5.13v-.74zm-10.26 0h-5.131v.74h5.131v-.74zm-10.261 0h-5.131v.74h5.131v-.74zm-10.261 0h-5.131v.74h5.131v-.74zm-10.261 0h-5.131v.74h5.131v-.74zm-10.261 0h-5.13v.74h5.13v-.74zm-10.261 0h-5.13v.74h5.13v-.74zm-10.261 0h-5.13v.74h5.13v-.74zm-10.261 0H99v.74h5.13v-.74zm-10.26 0h-5.13v.74h5.13v-.74zm-10.261 0h-5.13v.74h5.13v-.74zm-10.261 0h-5.13v.74h5.13v-.74zm-10.261 0h-5.13v.74h5.13v-.74zm-10.26 0h-5.131v.74h5.13v-.74zm-10.262 0H40v.74h2.565v-.74zm-2.565 0c-.999 0-1.952.199-2.821.56l.283.683A6.608 6.608 0 0140 33.37v-.74zm-6.81 4.549A7.34 7.34 0 0032.63 40h.74c0-.9.179-1.757.503-2.538l-.683-.283z" fill="#E5E5E5"/></g><defs><linearGradient id="paint0_linear" x1="294.991" y1="134" x2="294.991" y2="60" gradientUnits="userSpaceOnUse"><stop stop-color="#FCCB05"/><stop offset="1" stop-color="#FFE57D"/></linearGradient><linearGradient id="paint1_linear" x1="294.991" y1="134" x2="294.991" y2="60" gradientUnits="userSpaceOnUse"><stop stop-color="#FCCB05"/><stop offset="1" stop-color="#FFE57D"/></linearGradient><filter id="filter0_d" x=".804" y=".804" width="314.391" height="194.391" filterUnits="userSpaceOnUse" color-interpolation-filters="sRGB"><feFlood flood-opacity="0" result="BackgroundImageFix"/><feColorMatrix in="SourceAlpha" values="0 0 0 0 0 0 0 0 0 0 0 0 0 0 0 0 0 0 127 0"/><feOffset/><feGaussianBlur stdDeviation="11.098"/><feColorMatrix values="0 0 0 0 0 0 0 0 0 0 0 0 0 0 0 0 0 0 0.1 0"/><feBlend in2="BackgroundImageFix" result="effect1_dropShadow"/><feBlend in="SourceGraphic" in2="effect1_dropShadow" result="shape"/></filter><filter id="filter1_d" x="10.434" y="10.434" width="295.131" height="175.131" filterUnits="userSpaceOnUse" color-interpolation-filters="sRGB"><feFlood flood-opacity="0" result="BackgroundImageFix"/><feColorMatrix in="SourceAlpha" values="0 0 0 0 0 0 0 0 0 0 0 0 0 0 0 0 0 0 127 0"/><feOffset/><feGaussianBlur stdDeviation="11.098"/><feColorMatrix values="0 0 0 0 0 0 0 0 0 0 0 0 0 0 0 0 0 0 0.1 0"/><feBlend in2="BackgroundImageFix" result="effect1_dropShadow"/><feBlend in="SourceGraphic" in2="effect1_dropShadow" result="shape"/></filter></defs></svg>