<svg width="333" height="196" fill="none" xmlns="http://www.w3.org/2000/svg"><path d="M332.986 96.986c0 20.43-16.563 36.992-36.993 36.992-20.431 0-36.993-16.562-36.993-36.993 0-20.43 16.562-36.992 36.993-36.992 20.43 0 36.993 16.562 36.993 36.992z" fill="url(#paint0_linear)"/><mask id="mask0" maskUnits="userSpaceOnUse" x="259" y="60" width="74" height="74"><circle cx="296" cy="97" r="37" fill="url(#paint1_linear)"/></mask><g mask="url(#mask0)"><path fill-rule="evenodd" clip-rule="evenodd" d="M295.684 78.977a.86.86 0 01-.85-.744.844.844 0 01.045-.404l.75-2.059c-1.53.093-3.039.357-4.501.784l-.099 2.842a.853.853 0 01-.855.826h-.03a.865.865 0 01-.597-.272.845.845 0 01-.23-.613l.076-2.19a20.423 20.423 0 00-4.038 2.134l.785 2.733a.854.854 0 01-.827 1.092.855.855 0 01-.823-.62l-.603-2.104a20.36 20.36 0 00-3.179 3.274l1.594 2.357a.852.852 0 01-.269 1.212.861.861 0 01-1.153-.254l-1.228-1.816a20.344 20.344 0 00-2.009 4.093l2.245 1.75a.855.855 0 11-1.054 1.347l-1.73-1.348a20.257 20.257 0 00-.645 4.519l2.677.971a.855.855 0 11-.586 1.609l-2.063-.749a20.391 20.391 0 00.786 4.493l2.846.098a.859.859 0 01.843.87.855.855 0 01-.872.841h-.03l-2.193-.076a20.343 20.343 0 002.138 4.031l2.738-.784a.854.854 0 11.472 1.644l-2.109.604a20.214 20.214 0 003.282 3.175l2.362-1.591a.853.853 0 01.953-.005.855.855 0 01.006 1.423l-1.82 1.226a20.408 20.408 0 004.105 2.007l1.751-2.242a.86.86 0 011.196-.138.856.856 0 01.155 1.191l-1.35 1.727a20.391 20.391 0 004.524.643l.974-2.673a.842.842 0 01.441-.495.849.849 0 01.328-.082.848.848 0 01.624.226.866.866 0 01.274.603.841.841 0 01-.057.333l-.75 2.059a20.482 20.482 0 004.502-.784l.098-2.838a.871.871 0 01.885-.826.855.855 0 01.827.885l-.075 2.186c.113-.045.226-.09.339-.137a20.406 20.406 0 003.699-1.998l-.786-2.733a.85.85 0 01-.034-.336.87.87 0 01.316-.581.87.87 0 01.959-.078.862.862 0 01.406.523l.605 2.107a20.426 20.426 0 003.181-3.277l-1.594-2.357a.857.857 0 111.421-.957l1.228 1.816a20.374 20.374 0 002.01-4.097l-2.245-1.749a.849.849 0 01-.323-.569.85.85 0 01.428-.85.86.86 0 01.95.07l1.729 1.348c.382-1.47.599-2.984.644-4.515l-2.677-.972a.854.854 0 01-.061-1.57.859.859 0 01.647-.037l2.06.747a20.313 20.313 0 00-.789-4.491l-2.84-.099a.858.858 0 01-.557-1.48.86.86 0 01.615-.23l2.185.074a20.392 20.392 0 00-2.14-4.027l-2.727.782a.858.858 0 01-1.086-.703.854.854 0 01.612-.942l2.099-.6a20.354 20.354 0 00-3.279-3.171l-2.353 1.586a.86.86 0 01-1.298-.46.86.86 0 01.339-.96l1.811-1.22a20.444 20.444 0 00-4.099-2.007l-1.748 2.235a.858.858 0 01-1.446-.151.847.847 0 01.095-.902l1.347-1.721a20.488 20.488 0 00-4.521-.647l-.973 2.668a.86.86 0 01-.806.567zm7.834-3.934c-2.091-.658-4.264-1-6.447-1.02a.861.861 0 00-.392 0 22.16 22.16 0 00-12.691 4.124.852.852 0 00-.25.181 22.185 22.185 0 00-4.788 4.816 22.089 22.089 0 00-3.063 5.936.866.866 0 00-.127.39 22.06 22.06 0 00.053 13.453l.011.033a22.114 22.114 0 003.16 6.171 22.12 22.12 0 004.859 4.847l.01.007a22.144 22.144 0 006.106 3.119.83.83 0 00.141.046 22.192 22.192 0 006.75 1.058h.035a22.202 22.202 0 006.696-1.049.871.871 0 00.244-.079 22.161 22.161 0 005.916-3.008.86.86 0 00.25-.181 22.186 22.186 0 004.691-4.687.868.868 0 00.152-.204l.007-.014a22.142 22.142 0 003.032-5.94.888.888 0 00.069-.212 22.075 22.075 0 001.054-6.631.814.814 0 000-.171 22.029 22.029 0 00-1.032-6.583.845.845 0 00-.1-.31 22.094 22.094 0 00-2.964-5.827.856.856 0 00-.251-.345 22.088 22.088 0 00-4.622-4.61.838.838 0 00-.296-.215 22.132 22.132 0 00-5.82-2.967.867.867 0 00-.393-.128zm3.942 28.623a.857.857 0 001.161-.274c.514-.812.938-1.677 1.265-2.581a.855.855 0 00-1.169-1.067.856.856 0 00-.443.483 11.5 11.5 0 01-1.1 2.244.857.857 0 00.286 1.195zm-10.653 6.263h-.004a13.857 13.857 0 01-7.666-2.355 13.82 13.82 0 01-5.07-6.204 13.785 13.785 0 01-.772-7.97 13.808 13.808 0 013.785-7.058 13.866 13.866 0 0115.055-3.007 13.836 13.836 0 016.215 5.06 13.802 13.802 0 012.36 7.653.854.854 0 01-.853.855h-.004a.859.859 0 01-.858-.851 12.079 12.079 0 00-2.069-6.704 12.12 12.12 0 00-5.446-4.433 12.148 12.148 0 00-13.19 2.638 12.099 12.099 0 00-3.315 6.185 12.082 12.082 0 00.678 6.982 12.11 12.11 0 004.442 5.435 12.147 12.147 0 006.717 2.063.858.858 0 01.855.858.857.857 0 01-.86.853zm3.923-.971a.853.853 0 00.842.15 13.474 13.474 0 002.526-1.224.856.856 0 10-.904-1.454c-.696.432-1.435.791-2.205 1.069a.86.86 0 00-.552.952.857.857 0 00.293.507zm-3.863-9.198a3.657 3.657 0 01-3.377-2.251 3.648 3.648 0 012.663-4.975 3.661 3.661 0 013.752 1.551 3.64 3.64 0 01-.455 4.605 3.662 3.662 0 01-2.583 1.07zm0-5.584a1.94 1.94 0 00-1.904 2.315 1.94 1.94 0 003.844-.379 1.937 1.937 0 00-1.94-1.936zm-1.393-3.532a2.508 2.508 0 003.162-.314 2.498 2.498 0 00-.814-4.078 2.51 2.51 0 00-2.73.544 2.491 2.491 0 00.382 3.848zm.953-2.738a.792.792 0 011.231.657.788.788 0 01-.489.73.792.792 0 01-1.033-1.032.79.79 0 01.291-.355zm-6.756 8.374a2.506 2.506 0 01-2.471-2.11 2.492 2.492 0 01.847-2.292 2.509 2.509 0 014.125 1.707 2.501 2.501 0 01-2.501 2.694zm-.749-2.744a.789.789 0 001.112.947.79.79 0 10-1.112-.947zm2.026 10.707c.426.311.94.479 1.467.479a2.52 2.52 0 002.032-1.032 2.497 2.497 0 00.109-2.777 2.505 2.505 0 00-3.837-.529 2.492 2.492 0 00.229 3.859zm1.013-2.663a.792.792 0 011.216.884.784.784 0 01-.508.507.802.802 0 01-.709-.112.785.785 0 01-.287-.884.791.791 0 01.288-.395zm9.355 3.142a2.511 2.511 0 01-1.629-.597 2.497 2.497 0 01.846-4.281 2.51 2.51 0 013.009 1.24 2.497 2.497 0 01-.758 3.159 2.49 2.49 0 01-1.468.479zm-.003-3.291a.791.791 0 00-.64 1.254.794.794 0 001.393-.224.79.79 0 00-.753-1.033v.003zm1.434-5.519a2.51 2.51 0 002.447.097 2.506 2.506 0 001.248-3.002 2.497 2.497 0 00-1.991-1.697 2.512 2.512 0 00-2.419 1 2.501 2.501 0 00-.207 2.605 2.5 2.5 0 00.922.997zm1.064-2.883a.792.792 0 011.005.966.785.785 0 01-.668.569.791.791 0 01-.714-1.273.79.79 0 01.377-.262zm-17.718 31.692h-10.13a.855.855 0 110-1.711h10.13a.857.857 0 01.606 1.461.86.86 0 01-.606.25zm-17.017 0h1.62a.857.857 0 100-1.711h-1.62a.857.857 0 00-.606 1.461.86.86 0 00.606.25zm6.955-11.318h-9.286a.857.857 0 01-.606-1.46.857.857 0 01.606-.251h9.286a.857.857 0 01.606 1.46.857.857 0 01-.606.251zm-16.174 0h1.621a.857.857 0 00.606-1.46.857.857 0 00-.606-.251h-1.621a.857.857 0 00-.606 1.46.857.857 0 00.606.251zm21.053 5.656h-10.131a.857.857 0 110-1.711h10.131a.857.857 0 01.606 1.461.86.86 0 01-.606.25zm-17.021 0h1.624a.859.859 0 00.607-1.46.857.857 0 00-.607-.251h-1.624a.857.857 0 00-.606 1.461.86.86 0 00.606.25z" fill="#fff" style="mix-blend-mode:overlay"/></g><g filter="url(#filter0_d)"><path fill-rule="evenodd" clip-rule="evenodd" d="M30.399 23A7.399 7.399 0 0023 30.399V165.6a7.398 7.398 0 007.399 7.4H285.6a7.398 7.398 0 007.399-7.399v-22.603l-.438.002c-25.563 0-46.286-20.147-46.286-45s20.723-45 46.286-45c.146 0 .292 0 .438.002V30.399A7.398 7.398 0 00285.601 23H30.399z" fill="#fff"/></g><g filter="url(#filter1_d)"><path d="M283 148.396h.37v-.328l-.325-.04-.045.368zm0-102.82l.045.367.325-.04v-.327H283zm-250.37-2.94a.37.37 0 10.74 0h-.74zm.74 5.273a.37.37 0 10-.74 0h.74zm-.74 5.273a.37.37 0 10.74 0h-.74zm.74 5.273a.37.37 0 10-.74 0h.74zm-.74 5.272a.37.37 0 10.74 0h-.74zM33.37 69a.37.37 0 10-.74 0h.74zm-.74 5.273a.37.37 0 10.74 0h-.74zm.74 5.273a.37.37 0 10-.74 0h.74zm-.74 5.272a.37.37 0 10.74 0h-.74zm.74 5.273a.37.37 0 10-.74 0h.74zm-.74 5.273a.37.37 0 10.74 0h-.74zm.74 5.272a.37.37 0 00-.74 0h.74zm-.74 5.273a.37.37 0 00.74 0h-.74zm.74 5.273a.37.37 0 00-.74 0h.74zm-.74 5.273a.37.37 0 00.74 0h-.74zm.74 5.272a.37.37 0 00-.74 0h.74zM32.63 127a.37.37 0 00.74 0h-.74zm.74 5.273a.37.37 0 10-.74 0h.74zm-.74 5.272a.37.37 0 10.74 0h-.74zm.74 5.273a.37.37 0 00-.74 0h.74zm-.74 5.273a.37.37 0 00.74 0h-.74zm.74 5.273a.37.37 0 10-.74 0h.74zm-.18 5.457a.37.37 0 00.683-.283l-.683.283zm4.272 3.306a.37.37 0 10-.283.684l.283-.684zm5.103 1.243a.37.37 0 000-.74v.74zm5.13-.74a.37.37 0 000 .74v-.74zm5.131.74a.37.37 0 000-.74v.74zm5.13-.74a.37.37 0 000 .74v-.74zm5.131.74a.37.37 0 000-.74v.74zm5.13-.74a.37.37 0 000 .74v-.74zm5.13.74a.37.37 0 000-.74v.74zm5.131-.74a.37.37 0 000 .74v-.74zm5.13.74a.37.37 0 000-.74v.74zm5.131-.74a.37.37 0 000 .74v-.74zm5.13.74a.37.37 0 000-.74v.74zm5.131-.74a.37.37 0 000 .74v-.74zm5.13.74a.37.37 0 100-.74v.74zm5.131-.74a.37.37 0 000 .74v-.74zm5.13.74a.37.37 0 100-.74v.74zm5.131-.74a.37.37 0 100 .74v-.74zm5.13.74a.37.37 0 000-.74v.74zm5.131-.74a.37.37 0 100 .74v-.74zm5.13.74a.37.37 0 000-.74v.74zm5.13-.74a.37.37 0 000 .74v-.74zm5.131.74a.37.37 0 000-.74v.74zm5.13-.74a.37.37 0 000 .74v-.74zm5.131.74a.37.37 0 000-.74v.74zm5.13-.74a.37.37 0 000 .74v-.74zm5.131.74a.37.37 0 000-.74v.74zm5.13-.74a.37.37 0 000 .74v-.74zm5.131.74a.37.37 0 000-.74v.74zm5.13-.74a.37.37 0 000 .74v-.74zm5.13.74a.37.37 0 100-.74v.74zm5.131-.74a.37.37 0 100 .74v-.74zm5.13.74a.37.37 0 100-.74v.74zm5.131-.74a.37.37 0 100 .74v-.74zm5.13.74a.37.37 0 000-.74v.74zm5.131-.74a.37.37 0 100 .74v-.74zm5.13.74a.37.37 0 000-.74v.74zm5.13-.74a.37.37 0 000 .74v-.74zm5.131.74a.37.37 0 000-.74v.74zm5.13-.74a.37.37 0 000 .74v-.74zm5.131.74a.37.37 0 000-.74v.74zm5.13-.74a.37.37 0 000 .74v-.74zm5.131.74a.37.37 0 000-.74v.74zm5.13-.74a.37.37 0 000 .74v-.74zm5.13.74a.37.37 0 100-.74v.74zm5.131-.74a.37.37 0 000 .74v-.74zm5.13.74a.37.37 0 100-.74v.74zm5.131-.74a.37.37 0 100 .74v-.74zm5.386.181a.37.37 0 00-.283-.684l.283.684zm3.306-4.273a.37.37 0 10.684.283l-.684-.283zm1.243-4.439a.37.37 0 00-.74 0h.74zm-.74-3.802a.37.37 0 00.74 0h-.74zm-2.218-2.658a.37.37 0 00-.127.729l.127-.729zm-5.388-.473a.372.372 0 00.457-.255.371.371 0 00-.255-.457l-.202.712zm-4.832-2.43a.37.37 0 00-.275.686l.275-.686zm-5.172-1.578a.37.37 0 00.345-.654l-.345.654zm-4.226-3.375a.37.37 0 10-.411.615l.411-.615zm-4.738-2.608a.37.37 0 00.472-.57l-.472.57zm-3.444-4.169a.37.37 0 10-.528.518l.528-.518zm-4.105-3.521a.37.37 0 10.578-.462l-.578.462zm-2.52-4.786a.369.369 0 10-.622.4l.622-.4zm-3.296-4.288a.37.37 0 10.661-.333l-.661.333zm-1.481-5.201a.37.37 0 00-.691.262l.691-.262zm-2.338-4.875a.37.37 0 00.715-.189l-.715.189zm-.373-5.396a.37.37 0 00-.731.114l.731-.114zm-1.283-5.255a.372.372 0 00.389.351.369.369 0 00.35-.388l-.739.037zm.739-5.36a.37.37 0 10-.739-.037l.739.038zm-.187-5.405a.37.37 0 10.731.113l-.731-.113zm1.819-5.093a.37.37 0 00-.715-.19l.715.19zm.932-5.327a.37.37 0 10.691.263l-.691-.263zm2.833-4.606a.37.37 0 10-.661-.333l.661.333zm2.013-5.02a.369.369 0 10.622.4l-.622-.4zm3.72-3.925a.37.37 0 10-.578-.461l.578.461zm2.999-4.5a.37.37 0 00.528.518l-.528-.518zm4.444-3.081a.37.37 0 00-.472-.57l.472.57zm3.855-3.793a.37.37 0 00.411.615l-.411-.615zm4.982-2.106a.37.37 0 10-.345-.654l.345.654zm4.552-2.919a.37.37 0 00.275.687l-.275-.687zm5.309-1.031a.37.37 0 00-.202-.712l.202.712zm5.059-1.915a.37.37 0 10.127.73l-.127-.73zm3.085-1.421a.37.37 0 00-.74 0h.74zm-.74-2.788a.37.37 0 00.74 0h-.74zm.181-4.215a.37.37 0 00-.684.283l.684-.283zm-4.273-3.306a.37.37 0 10.283-.683l-.283.683zm-5.103-1.243a.37.37 0 100 .74v-.74zm-5.131.74a.37.37 0 100-.74v.74zm-5.13-.74a.37.37 0 000 .74v-.74zm-5.131.74a.37.37 0 100-.74v.74zm-5.13-.74a.37.37 0 000 .74v-.74zm-5.13.74a.37.37 0 000-.74v.74zm-5.131-.74a.37.37 0 000 .74v-.74zm-5.13.74a.37.37 0 000-.74v.74zm-5.131-.74a.37.37 0 000 .74v-.74zm-5.13.74a.37.37 0 000-.74v.74zm-5.131-.74a.37.37 0 000 .74v-.74zm-5.13.74a.37.37 0 000-.74v.74zm-5.13-.74a.37.37 0 100 .74v-.74zm-5.131.74a.37.37 0 000-.74v.74zm-5.13-.74a.37.37 0 100 .74v-.74zm-5.131.74a.37.37 0 100-.74v.74zm-5.13-.74a.37.37 0 000 .74v-.74zm-5.131.74a.37.37 0 100-.74v.74zm-5.13-.74a.37.37 0 000 .74v-.74zm-5.13.74a.37.37 0 000-.74v.74zm-5.131-.74a.37.37 0 000 .74v-.74zm-5.13.74a.37.37 0 000-.74v.74zm-5.131-.74a.37.37 0 000 .74v-.74zm-5.13.74a.37.37 0 000-.74v.74zm-5.131-.74a.37.37 0 000 .74v-.74zm-5.13.74a.37.37 0 000-.74v.74zm-5.131-.74a.37.37 0 000 .74v-.74zm-5.13.74a.37.37 0 000-.74v.74zm-5.13-.74a.37.37 0 100 .74v-.74zm-5.131.74a.37.37 0 100-.74v.74zm-5.13-.74a.37.37 0 100 .74v-.74zm-5.131.74a.37.37 0 100-.74v.74zm-5.13-.74a.37.37 0 000 .74v-.74zm-5.131.74a.37.37 0 100-.74v.74zM99 32.63a.37.37 0 100 .74v-.74zm-5.13.74a.37.37 0 100-.74v.74zm-5.13-.74a.37.37 0 100 .74v-.74zm-5.131.74a.37.37 0 100-.74v.74zm-5.13-.74a.37.37 0 100 .74v-.74zm-5.131.74a.37.37 0 100-.74v.74zm-5.13-.74a.37.37 0 100 .74v-.74zm-5.131.74a.37.37 0 100-.74v.74zm-5.13-.74a.37.37 0 100 .74v-.74zm-5.13.74a.37.37 0 100-.74v.74zm-5.131-.74a.37.37 0 100 .74v-.74zm-5.13.74a.37.37 0 100-.74v.74zm-5.387-.18a.37.37 0 10.283.683l-.283-.683zm-3.306 4.272a.37.37 0 00-.683-.283l.683.283zM32.63 40v2.636h.74V40h-.74zm0 7.91v5.272h.74v-5.273h-.74zm0 10.545v5.272h.74v-5.272h-.74zm0 10.545v5.273h.74V69h-.74zm0 10.546v5.272h.74v-5.272h-.74zm0 10.545v5.273h.74V90.09h-.74zm0 10.545v5.273h.74v-5.273h-.74zm0 10.546v5.273h.74v-5.273h-.74zm0 10.545V127h.74v-5.273h-.74zm0 10.546v5.272h.74v-5.272h-.74zm0 10.545v5.273h.74v-5.273h-.74zm0 10.546V156h.74v-2.636h-.74zm0 2.636c0 .999.199 1.952.56 2.821l.683-.283A6.607 6.607 0 0133.37 156h-.74zm4.549 6.811a7.36 7.36 0 002.821.559v-.74c-.9 0-1.757-.179-2.538-.503l-.283.684zm2.821.559h2.565v-.74H40v.74zm7.696 0h5.13v-.74h-5.13v.74zm10.26 0h5.131v-.74h-5.13v.74zm10.261 0h5.13v-.74h-5.13v.74zm10.261 0h5.13v-.74h-5.13v.74zm10.261 0h5.13v-.74h-5.13v.74zm10.261 0h5.13v-.74H99v.74zm10.261 0h5.13v-.74h-5.13v.74zm10.261 0h5.13v-.74h-5.13v.74zm10.261 0h5.13v-.74h-5.13v.74zm10.26 0h5.131v-.74h-5.131v.74zm10.261 0h5.131v-.74h-5.131v.74zm10.261 0h5.131v-.74h-5.131v.74zm10.261 0h5.131v-.74h-5.131v.74zm10.261 0h5.13v-.74h-5.13v.74zm10.261 0h5.13v-.74h-5.13v.74zm10.261 0h5.13v-.74h-5.13v.74zm10.261 0H217v-.74h-5.13v.74zm10.26 0h5.131v-.74h-5.131v.74zm10.261 0h5.131v-.74h-5.131v.74zm10.261 0h5.131v-.74h-5.131v.74zm10.261 0h5.13v-.74h-5.13v.74zm10.261 0h5.13v-.74h-5.13v.74zm10.261 0H276v-.74h-2.565v.74zm2.565 0c.999 0 1.952-.199 2.821-.559l-.283-.684a6.607 6.607 0 01-2.538.503v.74zm6.811-4.549c.36-.869.559-1.822.559-2.821h-.74c0 .9-.179 1.757-.503 2.538l.684.283zm.559-2.821v-1.901h-.74V156h.74zm0-5.703v-1.901h-.74v1.901h.74zm-.325-2.269a50.563 50.563 0 01-2.633-.389l-.127.729c.883.154 1.773.286 2.67.395l.09-.735zm-7.819-1.574a51.236 51.236 0 01-5.034-1.718l-.275.686a51.85 51.85 0 005.107 1.744l.202-.712zm-9.861-3.95a51.784 51.784 0 01-4.571-2.721l-.411.615a52.016 52.016 0 004.637 2.76l.345-.654zm-8.837-5.899a51.699 51.699 0 01-3.916-3.599l-.528.518a52.576 52.576 0 003.972 3.651l.472-.57zm-7.443-7.582a51.709 51.709 0 01-3.098-4.324l-.622.4a52.332 52.332 0 003.142 4.386l.578-.462zm-5.733-8.945a51.354 51.354 0 01-2.142-4.868l-.691.262a51.71 51.71 0 002.172 4.939l.661-.333zm-3.765-9.932a50.917 50.917 0 01-1.088-5.207l-.731.114a51.791 51.791 0 001.104 5.282l.715-.189zm-1.632-10.5a52.175 52.175 0 01-.067-2.66h-.74c0 .905.023 1.805.068 2.698l.739-.037zm-.067-2.66c0-.893.022-1.78.067-2.661l-.739-.038a53.664 53.664 0 00-.068 2.699h.74zm.611-7.954a50.885 50.885 0 011.088-5.206l-.715-.19a51.782 51.782 0 00-1.104 5.283l.731.113zm2.711-10.27a51.372 51.372 0 012.142-4.869l-.661-.333a51.685 51.685 0 00-2.172 4.94l.691.261zm4.777-9.49a51.658 51.658 0 013.098-4.324l-.578-.461a52.184 52.184 0 00-3.142 4.386l.622.4zm6.625-8.306a51.62 51.62 0 013.916-3.6l-.472-.57a52.512 52.512 0 00-3.972 3.652l.528.518zm8.182-6.777a51.467 51.467 0 014.571-2.72l-.345-.655a52.326 52.326 0 00-4.637 2.76l.411.615zm9.398-4.953a51.054 51.054 0 015.034-1.718l-.202-.712a51.793 51.793 0 00-5.107 1.743l.275.687zm10.22-2.904c.87-.151 1.748-.281 2.633-.389l-.09-.734c-.897.109-1.787.24-2.67.394l.127.73zm2.958-.756v-1.394h-.74v1.394h.74zm0-4.182V40h-.74v1.394h.74zm0-1.394a7.36 7.36 0 00-.559-2.821l-.684.283c.324.781.503 1.638.503 2.538h.74zm-4.549-6.81a7.344 7.344 0 00-2.821-.56v.74c.9 0 1.757.179 2.538.503l.283-.683zM276 32.63h-2.565v.74H276v-.74zm-7.696 0h-5.13v.74h5.13v-.74zm-10.261 0h-5.13v.74h5.13v-.74zm-10.26 0h-5.131v.74h5.131v-.74zm-10.261 0h-5.131v.74h5.131v-.74zm-10.261 0h-5.131v.74h5.131v-.74zm-10.261 0h-5.13v.74H217v-.74zm-10.261 0h-5.13v.74h5.13v-.74zm-10.261 0h-5.13v.74h5.13v-.74zm-10.261 0h-5.13v.74h5.13v-.74zm-10.26 0h-5.131v.74h5.131v-.74zm-10.261 0h-5.131v.74h5.131v-.74zm-10.261 0h-5.131v.74h5.131v-.74zm-10.261 0h-5.131v.74h5.131v-.74zm-10.261 0h-5.13v.74h5.13v-.74zm-10.261 0h-5.13v.74h5.13v-.74zm-10.261 0h-5.13v.74h5.13v-.74zm-10.261 0H99v.74h5.13v-.74zm-10.26 0h-5.13v.74h5.13v-.74zm-10.261 0h-5.13v.74h5.13v-.74zm-10.261 0h-5.13v.74h5.13v-.74zm-10.261 0h-5.13v.74h5.13v-.74zm-10.26 0h-5.131v.74h5.13v-.74zm-10.262 0H40v.74h2.565v-.74zm-2.565 0c-.999 0-1.952.199-2.821.56l.283.683A6.608 6.608 0 0140 33.37v-.74zm-6.81 4.549A7.34 7.34 0 0032.63 40h.74c0-.9.179-1.757.503-2.538l-.683-.283z" fill="#E5E5E5"/></g><defs><linearGradient id="paint0_linear" x1="294.984" y1="133.978" x2="294.984" y2="59.993" gradientUnits="userSpaceOnUse"><stop stop-color="#FCCB05"/><stop offset="1" stop-color="#FFE57D"/></linearGradient><linearGradient id="paint1_linear" x1="294.991" y1="134" x2="294.991" y2="60" gradientUnits="userSpaceOnUse"><stop stop-color="#FCCB05"/><stop offset="1" stop-color="#FFE57D"/></linearGradient><filter id="filter0_d" x=".804" y=".804" width="314.391" height="194.391" filterUnits="userSpaceOnUse" color-interpolation-filters="sRGB"><feFlood flood-opacity="0" result="BackgroundImageFix"/><feColorMatrix in="SourceAlpha" values="0 0 0 0 0 0 0 0 0 0 0 0 0 0 0 0 0 0 127 0"/><feOffset/><feGaussianBlur stdDeviation="11.098"/><feColorMatrix values="0 0 0 0 0 0 0 0 0 0 0 0 0 0 0 0 0 0 0.1 0"/><feBlend in2="BackgroundImageFix" result="effect1_dropShadow"/><feBlend in="SourceGraphic" in2="effect1_dropShadow" result="shape"/></filter><filter id="filter1_d" x="10.434" y="10.434" width="295.131" height="175.131" filterUnits="userSpaceOnUse" color-interpolation-filters="sRGB"><feFlood flood-opacity="0" result="BackgroundImageFix"/><feColorMatrix in="SourceAlpha" values="0 0 0 0 0 0 0 0 0 0 0 0 0 0 0 0 0 0 127 0"/><feOffset/><feGaussianBlur stdDeviation="11.098"/><feColorMatrix values="0 0 0 0 0 0 0 0 0 0 0 0 0 0 0 0 0 0 0.1 0"/><feBlend in2="BackgroundImageFix" result="effect1_dropShadow"/><feBlend in="SourceGraphic" in2="effect1_dropShadow" result="shape"/></filter></defs></svg>