<svg width="100" height="96" fill="none" xmlns="http://www.w3.org/2000/svg"><path fill-rule="evenodd" clip-rule="evenodd" d="M84.147 89.416V51.953l-8.145-8.479-24.889-25.908a1.544 1.544 0 00-2.227 0L15.852 51.953V62.12a1.465 1.465 0 01-2.93 0v-7.116L9.94 58.108a3.471 3.471 0 01-4.958.05l-3.973-3.974a3.49 3.49 0 01-.049-4.86L46.05 2.389a5.476 5.476 0 017.9 0l45.089 46.937a3.489 3.489 0 01-.049 4.859l-3.973 3.973a3.47 3.47 0 01-4.958-.05l-2.982-3.104v34.413a5.886 5.886 0 01-5.879 5.88h-2.272a1.465 1.465 0 110-2.93h2.272a2.952 2.952 0 002.949-2.95zm8.798-33.33l3.973-3.974a.544.544 0 00.008-.758L51.836 4.418a2.545 2.545 0 00-3.674 0L3.073 51.354a.545.545 0 00.008.758l3.973 3.973c.26.214.518.212.773-.008l5.501-5.726.002-.002 33.443-34.813a4.47 4.47 0 016.447-.006l.006.006 38.946 40.541c.255.22.513.222.773.008zm-29.576 36.28h8.691a1.465 1.465 0 110 2.93H18.8a5.886 5.886 0 01-5.878-5.88V68.957a1.465 1.465 0 112.93 0v20.46a2.952 2.952 0 002.949 2.948h17.83V75.777c0-7.372 5.997-13.37 13.368-13.37 7.372 0 13.37 5.998 13.37 13.37v16.588zm-13.37-27.028c-5.756 0-10.439 4.683-10.439 10.44v16.587h20.88V75.777c0-5.756-4.684-10.439-10.44-10.439z" fill="#fff" style="mix-blend-mode:overlay"/></svg>