<svg width="320" height="306" fill="none" xmlns="http://www.w3.org/2000/svg"><path d="M201.891 41.892c0 23.136-18.755 41.892-41.892 41.892-23.136 0-41.892-18.756-41.892-41.892C118.107 18.756 136.863 0 159.999 0c23.137 0 41.892 18.756 41.892 41.892z" fill="url(#paint0_linear)"/><mask id="mask0" maskUnits="userSpaceOnUse" x="118" y="0" width="84" height="85"><circle cx="160" cy="42.243" r="42" fill="url(#paint1_linear)"/></mask><g mask="url(#mask0)" stroke="#fff" stroke-width="1.676"><path d="M157.497 19.181c.615-1.245 2.391-1.245 3.006 0l5.096 10.326a3.351 3.351 0 002.523 1.834l11.396 1.655c1.374.2 1.923 1.89.929 2.859l-8.246 8.038a3.35 3.35 0 00-.964 2.966l1.946 11.35c.235 1.368-1.202 2.412-2.431 1.766l-10.192-5.358a3.353 3.353 0 00-3.12 0l-10.192 5.358c-1.229.646-2.666-.398-2.431-1.766l1.946-11.35a3.35 3.35 0 00-.964-2.966l-8.246-8.038c-.994-.97-.445-2.659.929-2.858l11.396-1.656a3.351 3.351 0 002.523-1.834l5.096-10.326z" style="mix-blend-mode:overlay"/><path d="M159.249 30.659a.837.837 0 011.502 0l2.222 4.502a2.514 2.514 0 001.893 1.375l4.968.722c.688.1.962.944.465 1.429l-3.596 3.504a2.514 2.514 0 00-.722 2.225l.848 4.949a.837.837 0 01-1.215.883l-4.444-2.337a2.515 2.515 0 00-2.34 0l-4.444 2.337a.837.837 0 01-1.215-.883l.848-4.949a2.514 2.514 0 00-.722-2.225l-3.596-3.504a.838.838 0 01.465-1.43l4.968-.721a2.514 2.514 0 001.893-1.375l2.222-4.502z" style="mix-blend-mode:overlay"/></g><g filter="url(#filter0_d)"><path fill-rule="evenodd" clip-rule="evenodd" d="M108.928 53.243h-95.55A8.378 8.378 0 005 61.621v210.244a8.378 8.378 0 008.378 8.378h293.244a8.378 8.378 0 008.378-8.378V61.621a8.378 8.378 0 00-8.378-8.378h-96.55c-7.249 20.953-27.153 36-50.572 36-23.419 0-43.323-15.047-50.572-36z" fill="#fff"/></g><g filter="url(#filter1_d)"><path d="M105.651 63.243l.386-.163-.108-.256h-.278v.42zm108.698 0v-.419h-.278l-.108.256.386.163zm-194.338.249a.419.419 0 10.32.774l-.32-.774zm-3.988 5.083a.42.42 0 00-.774-.321l.774.32zm-1.442 6.02a.419.419 0 10.838 0h-.838zm.838 5.944a.419.419 0 10-.838 0h.838zm-.838 5.945a.419.419 0 10.838 0h-.838zm.838 5.945a.419.419 0 10-.838 0h.838zm-.838 5.945a.419.419 0 10.838 0h-.838zm.838 5.946a.419.419 0 10-.838 0h.838zm-.838 5.945a.42.42 0 00.838 0h-.838zm.838 5.945a.419.419 0 10-.838 0h.838zm-.838 5.945a.42.42 0 00.838 0h-.838zm.838 5.945a.42.42 0 00-.838 0h.838zm-.838 5.945a.42.42 0 00.838 0h-.838zm.838 5.945a.42.42 0 00-.838 0h.838zm-.838 5.945a.419.419 0 10.838 0h-.838zm.838 5.945a.42.42 0 00-.838 0h.838zm-.838 5.946a.418.418 0 00.838 0h-.838zm.838 5.945a.419.419 0 10-.838 0h.838zm-.838 5.945a.42.42 0 00.838 0h-.838zm.838 5.945a.419.419 0 10-.838 0h.838zm-.838 5.945a.42.42 0 00.838 0h-.838zm.838 5.945a.42.42 0 00-.838 0h.838zm-.838 5.945a.42.42 0 00.838 0h-.838zm.838 5.945a.42.42 0 00-.838 0h.838zm-.838 5.945a.419.419 0 10.838 0h-.838zm.838 5.945a.42.42 0 00-.838 0h.838zm-.838 5.946a.418.418 0 00.838 0h-.838zm.838 5.945a.419.419 0 10-.838 0h.838zm-.838 5.945a.42.42 0 00.838 0h-.838zm.838 5.945a.419.419 0 10-.838 0h.838zm-.838 5.945a.42.42 0 00.838 0h-.838zm.838 5.945a.42.42 0 00-.838 0h.838zm-.838 5.945a.42.42 0 00.838 0h-.838zm.838 5.945a.42.42 0 00-.838 0h.838zm-.17 6.34a.419.419 0 10.774-.321l-.774.321zm5.083 3.988a.42.42 0 00-.321.774l.32-.774zm6.016 1.442a.419.419 0 100-.838v.838zm5.94-.838a.42.42 0 000 .838v-.838zm5.94.838a.419.419 0 100-.838v.838zm5.94-.838a.42.42 0 000 .838v-.838zm5.94.838a.419.419 0 100-.838v.838zm5.94-.838a.42.42 0 000 .838v-.838zm5.94.838a.419.419 0 100-.838v.838zm5.94-.838a.42.42 0 000 .838v-.838zm5.941.838a.419.419 0 100-.838v.838zm5.94-.838a.42.42 0 000 .838v-.838zm5.94.838a.419.419 0 100-.838v.838zm5.94-.838a.42.42 0 000 .838v-.838zm5.94.838a.419.419 0 100-.838v.838zm5.94-.838a.42.42 0 000 .838v-.838zm5.94.838a.418.418 0 100-.838v.838zm5.94-.838a.419.419 0 000 .838v-.838zm5.941.838a.418.418 0 000-.838v.838zm5.94-.838a.419.419 0 100 .838v-.838zm5.94.838a.419.419 0 100-.838v.838zm5.94-.838a.419.419 0 100 .838v-.838zm5.94.838a.419.419 0 100-.838v.838zm5.94-.838a.42.42 0 000 .838v-.838zm5.94.838a.419.419 0 100-.838v.838zm5.94-.838a.42.42 0 000 .838v-.838zm5.94.838a.419.419 0 100-.838v.838zm5.94-.838a.42.42 0 000 .838v-.838zm5.94.838a.418.418 0 100-.838v.838zm5.94-.838a.42.42 0 000 .838v-.838zm5.94.838a.418.418 0 100-.838v.838zm5.94-.838a.419.419 0 000 .838v-.838zm5.94.838a.418.418 0 100-.838v.838zm5.941-.838a.419.419 0 100 .838v-.838zm5.94.838a.419.419 0 100-.838v.838zm5.94-.838a.419.419 0 100 .838v-.838zm5.94.838a.419.419 0 100-.838v.838zm5.94-.838a.419.419 0 100 .838v-.838zm5.94.838a.419.419 0 100-.838v.838zm5.94-.838a.42.42 0 000 .838v-.838zm5.94.838a.419.419 0 100-.838v.838zm5.94-.838a.42.42 0 000 .838v-.838zm5.94.838a.419.419 0 100-.838v.838zm5.94-.838a.42.42 0 000 .838v-.838zm5.94.838a.418.418 0 100-.838v.838zm5.94-.838a.42.42 0 000 .838v-.838zm5.94.838a.418.418 0 100-.838v.838zm5.94-.838a.419.419 0 000 .838v-.838zm6.338.17a.419.419 0 10-.321-.774l.321.774zm3.988-5.083a.418.418 0 10.774.321l-.774-.321zm1.442-6.019a.42.42 0 00-.838 0h.838zm-.838-5.945a.42.42 0 00.838 0h-.838zm.838-5.945a.42.42 0 00-.838 0h.838zm-.838-5.945a.42.42 0 00.838 0h-.838zm.838-5.945a.419.419 0 10-.838 0h.838zm-.838-5.945a.42.42 0 00.838 0h-.838zm.838-5.945a.419.419 0 10-.838 0h.838zm-.838-5.945a.419.419 0 00.838 0h-.838zm.838-5.946a.419.419 0 00-.838 0h.838zm-.838-5.945a.419.419 0 10.838 0h-.838zm.838-5.945a.42.42 0 00-.838 0h.838zm-.838-5.945a.42.42 0 00.838 0h-.838zm.838-5.945a.42.42 0 00-.838 0h.838zm-.838-5.945a.42.42 0 00.838 0h-.838zm.838-5.945a.419.419 0 10-.838 0h.838zm-.838-5.945a.42.42 0 00.838 0h-.838zm.838-5.945a.419.419 0 10-.838 0h.838zm-.838-5.945a.419.419 0 00.838 0h-.838zm.838-5.946a.419.419 0 00-.838 0h.838zm-.838-5.945a.419.419 0 10.838 0h-.838zm.838-5.945a.42.42 0 00-.838 0h.838zm-.838-5.945a.42.42 0 00.838 0h-.838zm.838-5.945a.42.42 0 00-.838 0h.838zm-.838-5.945a.42.42 0 00.838 0h-.838zm.838-5.945a.419.419 0 10-.838 0h.838zm-.838-5.945a.42.42 0 00.838 0h-.838zm.838-5.945a.419.419 0 10-.838 0h.838zm-.838-5.945a.42.42 0 00.838 0h-.838zm.838-5.946a.42.42 0 00-.838 0h.838zm-.838-5.945a.42.42 0 00.838 0h-.838zm.838-5.945a.42.42 0 00-.838 0h.838zm-.838-5.945a.42.42 0 00.838 0h-.838zm.17-6.34a.419.419 0 10-.774.32l.774-.32zm-5.083-3.988a.42.42 0 00.321-.774l-.321.774zm-5.985-1.442a.42.42 0 000 .838v-.838zm-5.876.838a.42.42 0 000-.838v.838zm-5.877-.838a.42.42 0 000 .838v-.838zm-5.877.838a.419.419 0 100-.838v.838zm-5.876-.838a.419.419 0 100 .838v-.838zm-5.877.838a.419.419 0 100-.838v.838zm-5.876-.838a.419.419 0 100 .838v-.838zm-5.877.838a.42.42 0 000-.838v.838zm-5.877-.838a.42.42 0 000 .838v-.838zm-5.876.838a.42.42 0 000-.838v.838zm-5.877-.838a.42.42 0 000 .838v-.838zm-5.877.838a.419.419 0 100-.838v.838zm-5.876-.838a.419.419 0 100 .838v-.838zm-5.877.838a.419.419 0 100-.838v.838zm-4.503 2.02a.42.42 0 00.755.365l-.755-.364zm-2.017 5.453a.419.419 0 10-.715-.436l.715.436zm-3.923 4.29a.419.419 0 10.67.504l-.67-.504zm-3.034 4.96a.419.419 0 10-.618-.567l.618.567zm-4.677 3.452a.419.419 0 10.56.623l-.56-.623zM195.2 88.12a.418.418 0 00-.497-.675l.497.675zm-5.256 2.484a.418.418 0 10.429.72l-.429-.72zm-4.687 3.44a.418.418 0 00-.357-.759l.357.758zm-5.639 1.416a.42.42 0 00.28.79l-.28-.79zm-5.267 2.458a.419.419 0 00-.202-.813l.202.813zm-5.807.289a.418.418 0 10.121.829l-.121-.83zm-5.646 1.387a.419.419 0 10-.04-.837l.04.837zm-5.756-.837a.42.42 0 00-.041.837l.041-.837zm-5.807.279a.419.419 0 10.121-.83l-.121.83zm-5.484-1.93a.418.418 0 00-.202.812l.202-.813zm-5.749-.857a.42.42 0 10.28-.79l-.28.79zm-5.002-2.964a.419.419 0 00-.357.758l.357-.758zm-5.473-1.96a.418.418 0 10.429-.72l-.429.72zm-4.33-3.88a.42.42 0 00-.497.675l.497-.675zm-4.99-2.984a.42.42 0 00.56-.623l-.56.623zm-3.499-4.642a.419.419 0 00-.618.567l.618-.567zm-4.322-3.889a.42.42 0 00.67-.504l-.67.504zm-2.538-5.23a.42.42 0 00-.715.436l.715-.436zm-3.487-4.652a.42.42 0 00.755-.364l-.755.364zm-3.748-3.223a.419.419 0 100 .838v-.838zm-5.877.838a.419.419 0 000-.838v.838zm-5.876-.838a.419.419 0 000 .838v-.838zm-5.877.838a.419.419 0 100-.838v.838zm-5.877-.838a.419.419 0 000 .838v-.838zm-5.876.838a.419.419 0 000-.838v.838zm-5.877-.838a.419.419 0 000 .838v-.838zm-5.877.838a.419.419 0 100-.838v.838zm-5.876-.838a.419.419 0 000 .838v-.838zm-5.877.838a.419.419 0 000-.838v.838zm-5.876-.838a.419.419 0 000 .838v-.838zm-5.877.838a.419.419 0 100-.838v.838zm-5.877-.838a.419.419 0 000 .838v-.838zm-5.876.838a.419.419 0 000-.838v.838zm-2.939-.838c-1.192 0-2.33.238-3.367.668l.32.774a7.935 7.935 0 013.047-.604v-.838zm-8.13 5.43a8.772 8.772 0 00-.667 3.367h.838c0-1.08.215-2.108.604-3.046l-.774-.321zm-.667 3.367v2.973h.838v-2.972h-.838zm0 8.918v5.945h.838V80.54h-.838zm0 11.89v5.945h.838V92.43h-.838zm0 11.891v5.945h.838v-5.945h-.838zm0 11.89v5.945h.838v-5.945h-.838zm0 11.89v5.945h.838V128.1h-.838zm0 11.89v5.945h.838v-5.945h-.838zm0 11.89v5.946h.838v-5.946h-.838zm0 11.891v5.945h.838v-5.945h-.838zm0 11.89v5.945h.838v-5.945h-.838zm0 11.89v5.945h.838v-5.945h-.838zm0 11.89v5.945h.838v-5.945h-.838zm0 11.89v5.946h.838v-5.946h-.838zm0 11.891v5.945h.838v-5.945h-.838zm0 11.89v5.945h.838v-5.945h-.838zm0 11.89v5.945h.838v-5.945h-.838zm0 11.89v2.973h.838v-2.973h-.838zm0 2.973c0 1.192.237 2.33.668 3.367l.774-.321a7.928 7.928 0 01-.604-3.046h-.838zm5.43 8.129a8.76 8.76 0 003.367.668v-.838a7.933 7.933 0 01-3.046-.604l-.321.774zm3.367.668h2.97v-.838h-2.97v.838zm8.91 0h5.94v-.838h-5.94v.838zm11.88 0h5.94v-.838h-5.94v.838zm11.88 0h5.94v-.838h-5.94v.838zm11.88 0h5.941v-.838h-5.94v.838zm11.881 0h5.94v-.838h-5.94v.838zm11.88 0h5.94v-.838h-5.94v.838zm11.88 0h5.94v-.838h-5.94v.838zm11.88 0h5.941v-.838h-5.941v.838zm11.881 0h5.94v-.838h-5.94v.838zm11.88 0h5.94v-.838h-5.94v.838zm11.88 0h5.94v-.838h-5.94v.838zm11.88 0h5.94v-.838h-5.94v.838zm11.88 0h5.94v-.838h-5.94v.838zm11.88 0h5.94v-.838h-5.94v.838zm11.88 0h5.94v-.838h-5.94v.838zm11.881 0h5.94v-.838h-5.94v.838zm11.88 0h5.94v-.838h-5.94v.838zm11.88 0h5.94v-.838h-5.94v.838zm11.88 0h5.94v-.838h-5.94v.838zm11.88 0h5.94v-.838h-5.94v.838zm11.88 0h5.94v-.838h-5.94v.838zm11.88 0h5.94v-.838h-5.94v.838zm11.88 0h2.971v-.838h-2.971v.838zm2.971 0a8.759 8.759 0 003.367-.668l-.321-.774a7.93 7.93 0 01-3.046.604v.838zm8.129-5.43a8.755 8.755 0 00.668-3.367h-.838c0 1.08-.215 2.109-.604 3.046l.774.321zm.668-3.367v-2.973h-.838v2.973h.838zm0-8.918v-5.945h-.838v5.945h.838zm0-11.89v-5.945h-.838v5.945h.838zm0-11.89v-5.945h-.838v5.945h.838zm0-11.89v-5.946h-.838v5.946h.838zm0-11.891v-5.945h-.838v5.945h.838zm0-11.89v-5.945h-.838v5.945h.838zm0-11.89v-5.945h-.838v5.945h.838zm0-11.89v-5.945h-.838v5.945h.838zm0-11.89v-5.946h-.838v5.946h.838zm0-11.891v-5.945h-.838v5.945h.838zm0-11.89V128.1h-.838v5.945h.838zm0-11.89v-5.945h-.838v5.945h.838zm0-11.89v-5.945h-.838v5.945h.838zm0-11.89V92.43h-.838v5.945h.838zm0-11.89V80.54h-.838v5.945h.838zm0-11.89V71.62h-.838v2.973h.838zm0-2.974c0-1.191-.237-2.33-.668-3.367l-.774.32c.389.939.604 1.968.604 3.047h.838zm-5.43-8.129a8.77 8.77 0 00-3.367-.668v.838a7.93 7.93 0 013.046.604l.321-.774zm-3.367-.668h-2.939v.838h2.939v-.838zm-8.815 0h-5.877v.838h5.877v-.838zm-11.754 0h-5.876v.838h5.876v-.838zm-11.753 0h-5.876v.838h5.876v-.838zm-11.753 0h-5.877v.838h5.877v-.838zm-11.753 0h-5.877v.838h5.877v-.838zm-11.754 0h-5.876v.838h5.876v-.838zm-11.753 0h-2.938v.838h2.938v-.838zm-3.324.256a57.212 57.212 0 01-1.179 2.603l.755.364c.419-.869.818-1.749 1.196-2.64l-.772-.327zm-3.911 7.619a58.87 58.87 0 01-3.208 4.726l.67.504a59.709 59.709 0 003.253-4.794l-.715-.436zm-6.86 9.12a58.94 58.94 0 01-4.059 4.018l.56.623a59.965 59.965 0 004.117-4.075l-.618-.567zm-8.489 7.625a58.59 58.59 0 01-4.759 3.16l.429.72a59.537 59.537 0 004.827-3.205l-.497-.675zm-9.803 5.84a58.202 58.202 0 01-5.282 2.175l.28.79a59.115 59.115 0 005.359-2.206l-.357-.759zm-10.751 3.82a58.349 58.349 0 01-5.605 1.102l.121.829a59.146 59.146 0 005.686-1.118l-.202-.813zm-11.291 1.652c-.947.045-1.9.068-2.858.068v.838c.972 0 1.938-.023 2.898-.07l-.04-.836zm-2.858.068c-.958 0-1.911-.023-2.858-.068l-.041.837c.961.046 1.927.07 2.899.07v-.839zm-8.544-.618a58.349 58.349 0 01-5.605-1.102l-.202.813a59.27 59.27 0 005.686 1.118l.121-.83zm-11.074-2.747a58.202 58.202 0 01-5.282-2.175l-.357.758a59.115 59.115 0 005.359 2.206l.28-.79zm-10.326-4.856a58.59 58.59 0 01-4.759-3.159l-.497.675a59.565 59.565 0 004.827 3.204l.429-.72zm-9.189-6.766a58.94 58.94 0 01-4.059-4.019l-.618.567a59.987 59.987 0 004.117 4.075l.56-.623zm-7.711-8.412a58.87 58.87 0 01-3.208-4.726l-.715.436a59.709 59.709 0 003.253 4.794l.67-.504zm-5.94-9.742a57.212 57.212 0 01-1.179-2.603l-.772.327c.378.891.777 1.771 1.196 2.64l.755-.364zm-1.565-2.859h-2.938v.838h2.938v-.838zm-8.815 0H90.96v.838h5.876v-.838zm-11.753 0h-5.877v.838h5.877v-.838zm-11.753 0h-5.877v.838h5.877v-.838zm-11.754 0H55.7v.838h5.876v-.838zm-11.753 0h-5.876v.838h5.876v-.838zm-11.753 0h-5.877v.838h5.877v-.838zm-11.753 0h-2.939v.838h2.939v-.838z" fill="#E5E5E5"/></g><defs><linearGradient id="paint0_linear" x1="118.107" y1="0" x2="206.509" y2="7.318" gradientUnits="userSpaceOnUse"><stop stop-color="#051EFC"/><stop offset=".877" stop-color="#51A1FF"/></linearGradient><linearGradient id="paint1_linear" x1="158.855" y1="84.243" x2="158.855" y2=".243" gradientUnits="userSpaceOnUse"><stop stop-color="#FCCB05"/><stop offset="1" stop-color="#FFE57D"/></linearGradient><filter id="filter0_d" x="-20.135" y="28.108" width="360.27" height="277.27" filterUnits="userSpaceOnUse" color-interpolation-filters="sRGB"><feFlood flood-opacity="0" result="BackgroundImageFix"/><feColorMatrix in="SourceAlpha" values="0 0 0 0 0 0 0 0 0 0 0 0 0 0 0 0 0 0 127 0"/><feOffset/><feGaussianBlur stdDeviation="12.568"/><feColorMatrix values="0 0 0 0 0 0 0 0 0 0 0 0 0 0 0 0 0 0 0.1 0"/><feBlend in2="BackgroundImageFix" result="effect1_dropShadow"/><feBlend in="SourceGraphic" in2="effect1_dropShadow" result="shape"/></filter><filter id="filter1_d" x="-10.553" y="37.689" width="341.108" height="258.108" filterUnits="userSpaceOnUse" color-interpolation-filters="sRGB"><feFlood flood-opacity="0" result="BackgroundImageFix"/><feColorMatrix in="SourceAlpha" values="0 0 0 0 0 0 0 0 0 0 0 0 0 0 0 0 0 0 127 0"/><feOffset/><feGaussianBlur stdDeviation="12.568"/><feColorMatrix values="0 0 0 0 0 0 0 0 0 0 0 0 0 0 0 0 0 0 0.1 0"/><feBlend in2="BackgroundImageFix" result="effect1_dropShadow"/><feBlend in="SourceGraphic" in2="effect1_dropShadow" result="shape"/></filter></defs></svg>