<svg width="113" height="56" fill="none" xmlns="http://www.w3.org/2000/svg"><path fill-rule="evenodd" clip-rule="evenodd" d="M107.781 22.537a54.582 54.582 0 00-9.888-3.992 1.656 1.656 0 00-.931 3.177 51.267 51.267 0 019.287 3.75c.329.172.637.372.926.593-1.807.018-3.585.094-4.963.36-3.08.597-3.727 2.163-3.727 3.372 0 3.402 4.581 6.387 9.804 6.387.472 0 .939-.02 1.401-.05v1.551h-8.566c-1.997-2.904-5.341-4.812-9.124-4.812-3.782 0-7.126 1.909-9.123 4.812H35.354c-1.998-2.904-5.341-4.812-9.124-4.812-3.782 0-7.126 1.909-9.123 4.812H3.31v-3.944h2.23c.914 0 1.655-.741 1.655-1.656v-1.249h3.799a4.077 4.077 0 004.072-4.072v-1.425c0-.84-.255-1.649-.738-2.337l-3.37-4.809h4.004c.565 0 1.092-.289 1.396-.766 2.065-3.244 5.16-6.216 9.197-8.832a30.061 30.061 0 018.118-3.684c-.504.29-1 .59-1.487.906-3.16 2.048-5.83 4.335-7.934 6.796a3.438 3.438 0 00-.54 3.646 3.41 3.41 0 003.03 2.048 4052454.783 4052454.783 0 0053.28 1.8l.013-.001.02-.001a1.46 1.46 0 00.133-.008h.006a40.635 40.635 0 019.513.1 1.656 1.656 0 00.415-3.285 44.108 44.108 0 00-9.526-.182 719.81 719.81 0 00-7.602-6.996A34.452 34.452 0 0051.77.882L44.063.47c-7.287-.39-14.31 1.46-20.309 5.347-4.125 2.674-7.378 5.72-9.681 9.066-2.2.01-3.598.003-4.523-.001-1.388-.006-1.705-.008-2.054.056a4.27 4.27 0 00-3.612 4.213v10.02a.134.134 0 000 .03v1.23H2.322A2.323 2.323 0 000 32.75v10.13c0 1.102.785 2.059 1.862 2.273l14.073 2.843c1.621 4.103 5.623 7.014 10.295 7.014 4.388 0 8.187-2.566 9.976-6.277h6.105a1.655 1.655 0 100-3.311h-5.115a11.031 11.031 0 00-.3-4.425h44.438a11.031 11.031 0 00-.3 4.425H50.036a1.655 1.655 0 100 3.31h31.988c1.79 3.712 5.589 6.278 9.976 6.278 4.388 0 8.187-2.566 9.976-6.277h5.043A5.988 5.988 0 00113 42.75V31.14c0-3.625-2-6.921-5.219-8.602zm-81.04-7.613c-.037-.084.005-.133.027-.16 4.65-5.438 11.912-9.856 20.267-10.82l3.452.185c.55 2.038 1.294 6.946-.01 11.667l-23.623-.798c-.038-.001-.081-.003-.112-.074zm48.901 1.723L53.86 15.91c.998-4.266.673-8.668.09-11.504a31.15 31.15 0 0116.823 7.78 690.954 690.954 0 014.87 4.46zm-63.887 8.692v1.425c0 .42-.341.761-.761.761H7.195v-8.374c0-.15.038-.29.1-.417l4.322 6.168c.09.128.138.28.138.437zM3.311 42.068v-1.072h12.253a10.989 10.989 0 00-.388 3.469L3.311 42.067zm22.92 9.63c-4.278 0-7.758-3.48-7.758-7.757 0-4.277 3.48-7.757 7.757-7.757 4.277 0 7.757 3.48 7.757 7.757 0 4.278-3.48 7.758-7.757 7.758zm82.057-18.825c-3.741 0-6.194-1.918-6.467-2.904.685-.397 2.858-.599 6.467-.599.392 0 .78.014 1.164.04.156.554.238 1.134.238 1.728v1.68c-.459.036-.927.055-1.402.055zM92 51.699c-4.277 0-7.757-3.48-7.757-7.758 0-4.277 3.48-7.757 7.757-7.757 4.277 0 7.757 3.48 7.757 7.757 0 4.278-3.48 7.758-7.757 7.758zm15.019-6.278h-4.053c.065-.484.102-.978.102-1.48 0-1.02-.142-2.007-.401-2.945h7.023v1.755a2.674 2.674 0 01-2.671 2.67zm-80.79-6.893a5.419 5.419 0 00-5.412 5.413 5.419 5.419 0 005.413 5.413 5.419 5.419 0 005.412-5.413 5.419 5.419 0 00-5.412-5.413zm0 7.515a2.104 2.104 0 01-2.101-2.102c0-1.159.943-2.102 2.102-2.102 1.159 0 2.101.943 2.101 2.102a2.104 2.104 0 01-2.101 2.102zm60.359-2.102A5.419 5.419 0 0192 38.528a5.419 5.419 0 015.412 5.413A5.419 5.419 0 0192 49.354a5.419 5.419 0 01-5.412-5.413zm3.31 0c0 1.16.943 2.102 2.102 2.102a2.104 2.104 0 002.102-2.102A2.104 2.104 0 0092 41.839a2.104 2.104 0 00-2.102 2.102zM56.5 21.685a1.655 1.655 0 100 3.31h1.148a1.655 1.655 0 100-3.31H56.5zM30.105 23.34c0-.914.742-1.655 1.656-1.655h1.147a1.655 1.655 0 110 3.31h-1.147c-.914 0-1.655-.74-1.655-1.655z" fill="#fff" style="mix-blend-mode:overlay"/></svg>