<svg width="333" height="196" fill="none" xmlns="http://www.w3.org/2000/svg"><g filter="url(#filter0_d)"><path fill-rule="evenodd" clip-rule="evenodd" d="M30.399 23A7.399 7.399 0 0023 30.399V165.6a7.398 7.398 0 007.399 7.4H285.6a7.398 7.398 0 007.399-7.399v-22.603l-.438.002c-25.563 0-46.286-20.147-46.286-45s20.723-45 46.286-45c.146 0 .292 0 .438.002V30.399A7.398 7.398 0 00285.601 23H30.399z" fill="#fff"/></g><g filter="url(#filter1_d)"><path d="M283 148.396h.37v-.328l-.325-.04-.045.368zm0-102.82l.045.367.325-.04v-.327H283zm-250.37-2.94a.37.37 0 10.74 0h-.74zm.74 5.273a.37.37 0 10-.74 0h.74zm-.74 5.273a.37.37 0 10.74 0h-.74zm.74 5.273a.37.37 0 10-.74 0h.74zm-.74 5.272a.37.37 0 10.74 0h-.74zM33.37 69a.37.37 0 10-.74 0h.74zm-.74 5.273a.37.37 0 10.74 0h-.74zm.74 5.273a.37.37 0 10-.74 0h.74zm-.74 5.272a.37.37 0 10.74 0h-.74zm.74 5.273a.37.37 0 10-.74 0h.74zm-.74 5.273a.37.37 0 10.74 0h-.74zm.74 5.272a.37.37 0 00-.74 0h.74zm-.74 5.273a.37.37 0 00.74 0h-.74zm.74 5.273a.37.37 0 00-.74 0h.74zm-.74 5.273a.37.37 0 00.74 0h-.74zm.74 5.272a.37.37 0 00-.74 0h.74zM32.63 127a.37.37 0 00.74 0h-.74zm.74 5.273a.37.37 0 10-.74 0h.74zm-.74 5.272a.37.37 0 10.74 0h-.74zm.74 5.273a.37.37 0 00-.74 0h.74zm-.74 5.273a.37.37 0 00.74 0h-.74zm.74 5.273a.37.37 0 10-.74 0h.74zm-.18 5.457a.37.37 0 00.683-.283l-.683.283zm4.272 3.306a.37.37 0 10-.283.684l.283-.684zm5.103 1.243a.37.37 0 000-.74v.74zm5.13-.74a.37.37 0 000 .74v-.74zm5.131.74a.37.37 0 000-.74v.74zm5.13-.74a.37.37 0 000 .74v-.74zm5.131.74a.37.37 0 000-.74v.74zm5.13-.74a.37.37 0 000 .74v-.74zm5.13.74a.37.37 0 000-.74v.74zm5.131-.74a.37.37 0 000 .74v-.74zm5.13.74a.37.37 0 000-.74v.74zm5.131-.74a.37.37 0 000 .74v-.74zm5.13.74a.37.37 0 000-.74v.74zm5.131-.74a.37.37 0 000 .74v-.74zm5.13.74a.37.37 0 100-.74v.74zm5.131-.74a.37.37 0 000 .74v-.74zm5.13.74a.37.37 0 100-.74v.74zm5.131-.74a.37.37 0 100 .74v-.74zm5.13.74a.37.37 0 000-.74v.74zm5.131-.74a.37.37 0 100 .74v-.74zm5.13.74a.37.37 0 000-.74v.74zm5.13-.74a.37.37 0 000 .74v-.74zm5.131.74a.37.37 0 000-.74v.74zm5.13-.74a.37.37 0 000 .74v-.74zm5.131.74a.37.37 0 000-.74v.74zm5.13-.74a.37.37 0 000 .74v-.74zm5.131.74a.37.37 0 000-.74v.74zm5.13-.74a.37.37 0 000 .74v-.74zm5.131.74a.37.37 0 000-.74v.74zm5.13-.74a.37.37 0 000 .74v-.74zm5.13.74a.37.37 0 100-.74v.74zm5.131-.74a.37.37 0 100 .74v-.74zm5.13.74a.37.37 0 100-.74v.74zm5.131-.74a.37.37 0 100 .74v-.74zm5.13.74a.37.37 0 000-.74v.74zm5.131-.74a.37.37 0 100 .74v-.74zm5.13.74a.37.37 0 000-.74v.74zm5.13-.74a.37.37 0 000 .74v-.74zm5.131.74a.37.37 0 000-.74v.74zm5.13-.74a.37.37 0 000 .74v-.74zm5.131.74a.37.37 0 000-.74v.74zm5.13-.74a.37.37 0 000 .74v-.74zm5.131.74a.37.37 0 000-.74v.74zm5.13-.74a.37.37 0 000 .74v-.74zm5.13.74a.37.37 0 100-.74v.74zm5.131-.74a.37.37 0 000 .74v-.74zm5.13.74a.37.37 0 100-.74v.74zm5.131-.74a.37.37 0 100 .74v-.74zm5.386.181a.37.37 0 00-.283-.684l.283.684zm3.306-4.273a.37.37 0 10.684.283l-.684-.283zm1.243-4.439a.37.37 0 00-.74 0h.74zm-.74-3.802a.37.37 0 00.74 0h-.74zm-2.218-2.658a.37.37 0 00-.127.729l.127-.729zm-5.388-.473a.372.372 0 00.457-.255.371.371 0 00-.255-.457l-.202.712zm-4.832-2.43a.37.37 0 00-.275.686l.275-.686zm-5.172-1.578a.37.37 0 00.345-.654l-.345.654zm-4.226-3.375a.37.37 0 10-.411.615l.411-.615zm-4.738-2.608a.37.37 0 00.472-.57l-.472.57zm-3.444-4.169a.37.37 0 10-.528.518l.528-.518zm-4.105-3.521a.37.37 0 10.578-.462l-.578.462zm-2.52-4.786a.369.369 0 10-.622.4l.622-.4zm-3.296-4.288a.37.37 0 10.661-.333l-.661.333zm-1.481-5.201a.37.37 0 00-.691.262l.691-.262zm-2.338-4.875a.37.37 0 00.715-.189l-.715.189zm-.373-5.396a.37.37 0 00-.731.114l.731-.114zm-1.283-5.255a.372.372 0 00.389.351.369.369 0 00.35-.388l-.739.037zm.739-5.36a.37.37 0 10-.739-.037l.739.038zm-.187-5.405a.37.37 0 10.731.113l-.731-.113zm1.819-5.093a.37.37 0 00-.715-.19l.715.19zm.932-5.327a.37.37 0 10.691.263l-.691-.263zm2.833-4.606a.37.37 0 10-.661-.333l.661.333zm2.013-5.02a.369.369 0 10.622.4l-.622-.4zm3.72-3.925a.37.37 0 10-.578-.461l.578.461zm2.999-4.5a.37.37 0 00.528.518l-.528-.518zm4.444-3.081a.37.37 0 00-.472-.57l.472.57zm3.855-3.793a.37.37 0 00.411.615l-.411-.615zm4.982-2.106a.37.37 0 10-.345-.654l.345.654zm4.552-2.919a.37.37 0 00.275.687l-.275-.687zm5.309-1.031a.37.37 0 00-.202-.712l.202.712zm5.059-1.915a.37.37 0 10.127.73l-.127-.73zm3.085-1.421a.37.37 0 00-.74 0h.74zm-.74-2.788a.37.37 0 00.74 0h-.74zm.181-4.215a.37.37 0 00-.684.283l.684-.283zm-4.273-3.306a.37.37 0 10.283-.683l-.283.683zm-5.103-1.243a.37.37 0 100 .74v-.74zm-5.131.74a.37.37 0 100-.74v.74zm-5.13-.74a.37.37 0 000 .74v-.74zm-5.131.74a.37.37 0 100-.74v.74zm-5.13-.74a.37.37 0 000 .74v-.74zm-5.13.74a.37.37 0 000-.74v.74zm-5.131-.74a.37.37 0 000 .74v-.74zm-5.13.74a.37.37 0 000-.74v.74zm-5.131-.74a.37.37 0 000 .74v-.74zm-5.13.74a.37.37 0 000-.74v.74zm-5.131-.74a.37.37 0 000 .74v-.74zm-5.13.74a.37.37 0 000-.74v.74zm-5.13-.74a.37.37 0 100 .74v-.74zm-5.131.74a.37.37 0 000-.74v.74zm-5.13-.74a.37.37 0 100 .74v-.74zm-5.131.74a.37.37 0 100-.74v.74zm-5.13-.74a.37.37 0 000 .74v-.74zm-5.131.74a.37.37 0 100-.74v.74zm-5.13-.74a.37.37 0 000 .74v-.74zm-5.13.74a.37.37 0 000-.74v.74zm-5.131-.74a.37.37 0 000 .74v-.74zm-5.13.74a.37.37 0 000-.74v.74zm-5.131-.74a.37.37 0 000 .74v-.74zm-5.13.74a.37.37 0 000-.74v.74zm-5.131-.74a.37.37 0 000 .74v-.74zm-5.13.74a.37.37 0 000-.74v.74zm-5.131-.74a.37.37 0 000 .74v-.74zm-5.13.74a.37.37 0 000-.74v.74zm-5.13-.74a.37.37 0 100 .74v-.74zm-5.131.74a.37.37 0 100-.74v.74zm-5.13-.74a.37.37 0 100 .74v-.74zm-5.131.74a.37.37 0 100-.74v.74zm-5.13-.74a.37.37 0 000 .74v-.74zm-5.131.74a.37.37 0 100-.74v.74zM99 32.63a.37.37 0 100 .74v-.74zm-5.13.74a.37.37 0 100-.74v.74zm-5.13-.74a.37.37 0 100 .74v-.74zm-5.131.74a.37.37 0 100-.74v.74zm-5.13-.74a.37.37 0 100 .74v-.74zm-5.131.74a.37.37 0 100-.74v.74zm-5.13-.74a.37.37 0 100 .74v-.74zm-5.131.74a.37.37 0 100-.74v.74zm-5.13-.74a.37.37 0 100 .74v-.74zm-5.13.74a.37.37 0 100-.74v.74zm-5.131-.74a.37.37 0 100 .74v-.74zm-5.13.74a.37.37 0 100-.74v.74zm-5.387-.18a.37.37 0 10.283.683l-.283-.683zm-3.306 4.272a.37.37 0 00-.683-.283l.683.283zM32.63 40v2.636h.74V40h-.74zm0 7.91v5.272h.74v-5.273h-.74zm0 10.545v5.272h.74v-5.272h-.74zm0 10.545v5.273h.74V69h-.74zm0 10.546v5.272h.74v-5.272h-.74zm0 10.545v5.273h.74V90.09h-.74zm0 10.545v5.273h.74v-5.273h-.74zm0 10.546v5.273h.74v-5.273h-.74zm0 10.545V127h.74v-5.273h-.74zm0 10.546v5.272h.74v-5.272h-.74zm0 10.545v5.273h.74v-5.273h-.74zm0 10.546V156h.74v-2.636h-.74zm0 2.636c0 .999.199 1.952.56 2.821l.683-.283A6.607 6.607 0 0133.37 156h-.74zm4.549 6.811a7.36 7.36 0 002.821.559v-.74c-.9 0-1.757-.179-2.538-.503l-.283.684zm2.821.559h2.565v-.74H40v.74zm7.696 0h5.13v-.74h-5.13v.74zm10.26 0h5.131v-.74h-5.13v.74zm10.261 0h5.13v-.74h-5.13v.74zm10.261 0h5.13v-.74h-5.13v.74zm10.261 0h5.13v-.74h-5.13v.74zm10.261 0h5.13v-.74H99v.74zm10.261 0h5.13v-.74h-5.13v.74zm10.261 0h5.13v-.74h-5.13v.74zm10.261 0h5.13v-.74h-5.13v.74zm10.26 0h5.131v-.74h-5.131v.74zm10.261 0h5.131v-.74h-5.131v.74zm10.261 0h5.131v-.74h-5.131v.74zm10.261 0h5.131v-.74h-5.131v.74zm10.261 0h5.13v-.74h-5.13v.74zm10.261 0h5.13v-.74h-5.13v.74zm10.261 0h5.13v-.74h-5.13v.74zm10.261 0H217v-.74h-5.13v.74zm10.26 0h5.131v-.74h-5.131v.74zm10.261 0h5.131v-.74h-5.131v.74zm10.261 0h5.131v-.74h-5.131v.74zm10.261 0h5.13v-.74h-5.13v.74zm10.261 0h5.13v-.74h-5.13v.74zm10.261 0H276v-.74h-2.565v.74zm2.565 0c.999 0 1.952-.199 2.821-.559l-.283-.684a6.607 6.607 0 01-2.538.503v.74zm6.811-4.549c.36-.869.559-1.822.559-2.821h-.74c0 .9-.179 1.757-.503 2.538l.684.283zm.559-2.821v-1.901h-.74V156h.74zm0-5.703v-1.901h-.74v1.901h.74zm-.325-2.269a50.563 50.563 0 01-2.633-.389l-.127.729c.883.154 1.773.286 2.67.395l.09-.735zm-7.819-1.574a51.236 51.236 0 01-5.034-1.718l-.275.686a51.85 51.85 0 005.107 1.744l.202-.712zm-9.861-3.95a51.784 51.784 0 01-4.571-2.721l-.411.615a52.016 52.016 0 004.637 2.76l.345-.654zm-8.837-5.899a51.699 51.699 0 01-3.916-3.599l-.528.518a52.576 52.576 0 003.972 3.651l.472-.57zm-7.443-7.582a51.709 51.709 0 01-3.098-4.324l-.622.4a52.332 52.332 0 003.142 4.386l.578-.462zm-5.733-8.945a51.354 51.354 0 01-2.142-4.868l-.691.262a51.71 51.71 0 002.172 4.939l.661-.333zm-3.765-9.932a50.917 50.917 0 01-1.088-5.207l-.731.114a51.791 51.791 0 001.104 5.282l.715-.189zm-1.632-10.5a52.175 52.175 0 01-.067-2.66h-.74c0 .905.023 1.805.068 2.698l.739-.037zm-.067-2.66c0-.893.022-1.78.067-2.661l-.739-.038a53.664 53.664 0 00-.068 2.699h.74zm.611-7.954a50.885 50.885 0 011.088-5.206l-.715-.19a51.782 51.782 0 00-1.104 5.283l.731.113zm2.711-10.27a51.372 51.372 0 012.142-4.869l-.661-.333a51.685 51.685 0 00-2.172 4.94l.691.261zm4.777-9.49a51.658 51.658 0 013.098-4.324l-.578-.461a52.184 52.184 0 00-3.142 4.386l.622.4zm6.625-8.306a51.62 51.62 0 013.916-3.6l-.472-.57a52.512 52.512 0 00-3.972 3.652l.528.518zm8.182-6.777a51.467 51.467 0 014.571-2.72l-.345-.655a52.326 52.326 0 00-4.637 2.76l.411.615zm9.398-4.953a51.054 51.054 0 015.034-1.718l-.202-.712a51.793 51.793 0 00-5.107 1.743l.275.687zm10.22-2.904c.87-.151 1.748-.281 2.633-.389l-.09-.734c-.897.109-1.787.24-2.67.394l.127.73zm2.958-.756v-1.394h-.74v1.394h.74zm0-4.182V40h-.74v1.394h.74zm0-1.394a7.36 7.36 0 00-.559-2.821l-.684.283c.324.781.503 1.638.503 2.538h.74zm-4.549-6.81a7.344 7.344 0 00-2.821-.56v.74c.9 0 1.757.179 2.538.503l.283-.683zM276 32.63h-2.565v.74H276v-.74zm-7.696 0h-5.13v.74h5.13v-.74zm-10.261 0h-5.13v.74h5.13v-.74zm-10.26 0h-5.131v.74h5.131v-.74zm-10.261 0h-5.131v.74h5.131v-.74zm-10.261 0h-5.131v.74h5.131v-.74zm-10.261 0h-5.13v.74H217v-.74zm-10.261 0h-5.13v.74h5.13v-.74zm-10.261 0h-5.13v.74h5.13v-.74zm-10.261 0h-5.13v.74h5.13v-.74zm-10.26 0h-5.131v.74h5.131v-.74zm-10.261 0h-5.131v.74h5.131v-.74zm-10.261 0h-5.131v.74h5.131v-.74zm-10.261 0h-5.131v.74h5.131v-.74zm-10.261 0h-5.13v.74h5.13v-.74zm-10.261 0h-5.13v.74h5.13v-.74zm-10.261 0h-5.13v.74h5.13v-.74zm-10.261 0H99v.74h5.13v-.74zm-10.26 0h-5.13v.74h5.13v-.74zm-10.261 0h-5.13v.74h5.13v-.74zm-10.261 0h-5.13v.74h5.13v-.74zm-10.261 0h-5.13v.74h5.13v-.74zm-10.26 0h-5.131v.74h5.13v-.74zm-10.262 0H40v.74h2.565v-.74zm-2.565 0c-.999 0-1.952.199-2.821.56l.283.683A6.608 6.608 0 0140 33.37v-.74zm-6.81 4.549A7.34 7.34 0 0032.63 40h.74c0-.9.179-1.757.503-2.538l-.683-.283z" fill="#E5E5E5"/></g><path d="M330 97c0 20.435-16.565 37-37 37s-37-16.565-37-37c0-20.434 16.565-37 37-37s37 16.566 37 37z" fill="url(#paint0_linear)"/><mask id="mask0" maskUnits="userSpaceOnUse" x="256" y="60" width="74" height="74"><circle cx="293" cy="97" r="37" fill="url(#paint1_linear)"/></mask><g mask="url(#mask0)"><path fill-rule="evenodd" clip-rule="evenodd" d="M309.182 100.543a8.467 8.467 0 002.523 2.969c1.719 1.549 3.495 3.157 3.495 5.328 0 2.171-1.776 3.779-3.495 5.334a8.472 8.472 0 00-2.523 2.968 8.687 8.687 0 00.706 3.996c.691 2.163 1.405 4.399.358 6.208-1.062 1.836-3.377 2.336-5.616 2.819l-.002.001a8.578 8.578 0 00-3.753 1.349 8.57 8.57 0 00-1.35 3.755c-.484 2.239-.987 4.554-2.819 5.616-1.811 1.047-4.041.334-6.201-.356l-.007-.002a8.736 8.736 0 00-3.995-.707 8.478 8.478 0 00-2.969 2.524c-1.555 1.719-3.163 3.495-5.334 3.495-2.17 0-3.779-1.776-5.334-3.495a8.491 8.491 0 00-2.967-2.524 8.712 8.712 0 00-3.996.707l-.004.001c-2.164.691-4.397 1.403-6.205.357-1.836-1.062-2.336-3.377-2.819-5.616v-.002a8.575 8.575 0 00-1.35-3.753 8.585 8.585 0 00-3.755-1.351c-2.239-.483-4.554-.986-5.616-2.818-1.046-1.81-.333-4.043.357-6.206l.001-.002a8.697 8.697 0 00.707-3.995 8.468 8.468 0 00-2.524-2.969c-1.719-1.555-3.495-3.163-3.495-5.334s1.776-3.779 3.495-5.334a8.48 8.48 0 002.524-2.967 8.688 8.688 0 00-.707-3.996v-.001c-.691-2.163-1.404-4.399-.358-6.208 1.062-1.836 3.377-2.336 5.616-2.82h.002a8.575 8.575 0 003.753-1.349 8.577 8.577 0 001.357-3.755c.483-2.239.987-4.554 2.818-5.616 1.808-1.046 4.039-.334 6.196.354l.013.004a8.716 8.716 0 003.995.707 8.471 8.471 0 002.968-2.524c1.549-1.719 3.158-3.495 5.328-3.495 2.171 0 3.779 1.776 5.334 3.495a8.478 8.478 0 002.968 2.524 8.715 8.715 0 003.996-.707l.004-.001c2.163-.69 4.396-1.403 6.204-.357 1.836 1.062 2.336 3.377 2.819 5.616l.001.002a8.588 8.588 0 001.349 3.753 8.58 8.58 0 003.756 1.357c2.238.483 4.553.987 5.615 2.818 1.047 1.81.333 4.044-.357 6.206l-.001.003a8.693 8.693 0 00-.706 3.994zm-2.383 15.962a9.74 9.74 0 013.251-4.159l.003-.002c1.318-1.194 2.681-2.428 2.681-3.504s-1.363-2.309-2.681-3.504l-.003-.002a9.736 9.736 0 01-3.251-4.16 10.01 10.01 0 01.74-5.381c.528-1.652 1.071-3.36.572-4.225-.514-.888-2.285-1.27-3.996-1.64l-.005-.001a9.9 9.9 0 01-4.979-2.018c-1.201-1.199-1.616-3.119-2.016-4.976l-.001-.003c-.37-1.714-.752-3.486-1.643-4.002-.864-.493-2.569.046-4.223.574a10.04 10.04 0 01-5.383.74 9.737 9.737 0 01-4.158-3.252l-.003-.002c-1.194-1.32-2.428-2.681-3.504-2.681s-2.309 1.362-3.504 2.68l-.002.004a9.735 9.735 0 01-4.16 3.25c-1.663.447-3.555-.155-5.381-.74l-.018-.005c-1.646-.526-3.341-1.068-4.201-.567-.889.514-1.271 2.285-1.641 3.996l-.001.005a9.899 9.899 0 01-2.018 4.98c-1.199 1.2-3.119 1.615-4.976 2.016h-.003c-1.714.37-3.485.752-4.002 1.644-.493.863.046 2.571.574 4.223a10.03 10.03 0 01.74 5.382 9.756 9.756 0 01-3.251 4.159c-1.325 1.195-2.689 2.429-2.689 3.506 0 1.076 1.362 2.31 2.681 3.504l.003.002a9.744 9.744 0 013.251 4.16 10.032 10.032 0 01-.74 5.382c-.528 1.651-1.072 3.355-.573 4.219.514.888 2.285 1.271 3.997 1.64l.004.001a9.899 9.899 0 014.979 2.018c1.202 1.199 1.616 3.119 2.017 4.977v.002c.37 1.714.753 3.486 1.644 4.002.863.494 2.568-.045 4.223-.573a14.242 14.242 0 014.131-.891c.422-.002.843.05 1.251.156a9.74 9.74 0 014.159 3.251l.002.002c1.195 1.319 2.428 2.681 3.504 2.681s2.31-1.362 3.504-2.681l.003-.002a9.717 9.717 0 014.16-3.251 10.04 10.04 0 015.381.74h.002c1.65.527 3.355 1.071 4.222.572.888-.514 1.271-2.285 1.64-3.996l.001-.005a9.899 9.899 0 012.018-4.979c1.199-1.201 3.119-1.616 4.977-2.017h.002c1.714-.37 3.486-.752 4.002-1.644.494-.863-.045-2.571-.573-4.222a10.017 10.017 0 01-.74-5.383zm-27.366-31.098a1.233 1.233 0 11-2.466 0V82.94a1.233 1.233 0 112.466 0v2.467zm-8.49 1.117a1.234 1.234 0 002.384-.638l-.639-2.382a1.233 1.233 0 10-2.381.64l.636 2.38zm-4.634-.746l.002.004.006.01 1.233 2.138a1.233 1.233 0 11-2.136 1.233l-1.233-2.137a1.233 1.233 0 112.128-1.248zm-5.551 7.364a1.235 1.235 0 001.744 0 1.233 1.233 0 000-1.744l-1.745-1.745-.03-.03a1.233 1.233 0 00-1.714 1.774l1.745 1.745zm-1.745 33.141l1.745-1.745a1.234 1.234 0 011.744 1.744l-1.745 1.745a1.234 1.234 0 01-1.744-1.744zm8.091 1.793a1.233 1.233 0 00-1.687.441l-1.234 2.137a1.233 1.233 0 102.136 1.233l1.234-2.137a1.235 1.235 0 00-.449-1.674zm3.839 3.08a1.233 1.233 0 012.383.638l-.639 2.382a1.232 1.232 0 11-2.381-.638l.637-2.382zm7.257-.116c-.681 0-1.233.552-1.233 1.233v2.467a1.233 1.233 0 102.466 0v-2.467c0-.681-.552-1.233-1.233-1.233zm5.754-.752a1.232 1.232 0 011.503.868l.638 2.382a1.233 1.233 0 11-2.382.638l-.639-2.382a1.233 1.233 0 01.88-1.506zm7.03-1.771l-.009-.015a1.233 1.233 0 00-2.127 1.248l1.233 2.138a1.23 1.23 0 001.685.451c.59-.341.792-1.095.451-1.685l-1.233-2.137zm2.944-3.979a1.233 1.233 0 011.714 0l1.745 1.745a1.232 1.232 0 11-1.744 1.744l-1.745-1.745a1.234 1.234 0 01.03-1.744zm.842-31.034c.327 0 .641-.13.872-.362l1.745-1.745.03-.03a1.233 1.233 0 10-1.774-1.714l-1.745 1.745a1.234 1.234 0 00.872 2.106zm-3.784-4.34a1.232 1.232 0 11-2.136-1.234l1.233-2.137a1.234 1.234 0 012.145 1.219l-.009.014-1.233 2.138zm-7.04-1.768a1.233 1.233 0 001.511-.872l.638-2.381a1.233 1.233 0 10-2.382-.639l-.639 2.383a1.234 1.234 0 00.872 1.51zm-10.679 28.844h8.633a1.234 1.234 0 110 2.467h-9.866a1.233 1.233 0 01-1.234-1.234v-17.266c0-.681.552-1.234 1.234-1.234h9.866a1.234 1.234 0 010 2.467h-8.633v6.167h6.167a1.233 1.233 0 110 2.466h-6.167v6.167zm-8.339 2.003c.086.103.188.191.302.26.04.029.081.056.124.08.16.079.335.121.513.124a1.216 1.216 0 00.565-.154c.051-.022.102-.048.15-.077.016-.01.027-.025.038-.039a.2.2 0 01.027-.031c.066-.056.125-.119.177-.188a.973.973 0 00.206-.403c.024-.08.041-.163.049-.247 0-.017.005-.033.01-.049a.164.164 0 00.01-.049v-17.263a1.234 1.234 0 00-2.466 0v13.418L254.536 99.49c-.01-.015-.025-.026-.039-.037a.2.2 0 01-.031-.028 1.172 1.172 0 00-.188-.177 1.21 1.21 0 00-.186-.123 1.294 1.294 0 00-.214-.08 1.138 1.138 0 00-.247-.05.148.148 0 01-.047-.01c-.016-.004-.032-.01-.049-.01a1.05 1.05 0 00-.124.027 1.158 1.158 0 00-.246.048 1.217 1.217 0 00-.231.103 1.338 1.338 0 00-.116.053c-.015.011-.026.025-.038.04a.242.242 0 01-.027.03 1.155 1.155 0 00-.177.188c-.046.058-.088.12-.123.185-.034.07-.061.143-.081.219a1.22 1.22 0 00-.05.246.165.165 0 01-.01.05.163.163 0 00-.009.049v17.26a1.233 1.233 0 102.466 0v-13.418l10.098 14.135c.008.013.021.021.033.03.01.007.02.014.028.023zm38.198-19.242h.003c.666.145 1.089.801.944 1.467l-3.7 17.267a1.233 1.233 0 01-1.137.972h-.069a1.233 1.233 0 01-1.169-.844l-3.764-11.29-3.769 11.29a1.244 1.244 0 01-1.234.841 1.233 1.233 0 01-1.137-.972l-3.7-17.266a1.234 1.234 0 112.412-.518l2.753 12.849 3.5-10.513a1.234 1.234 0 012.344 0l3.505 10.513 2.753-12.85a1.233 1.233 0 011.465-.947z" fill="#fff" style="mix-blend-mode:overlay"/></g><defs><linearGradient id="paint0_linear" x1="291.991" y1="134" x2="291.991" y2="60" gradientUnits="userSpaceOnUse"><stop stop-color="#FCCB05"/><stop offset="1" stop-color="#FFE57D"/></linearGradient><linearGradient id="paint1_linear" x1="291.991" y1="134" x2="291.991" y2="60" gradientUnits="userSpaceOnUse"><stop stop-color="#FCCB05"/><stop offset="1" stop-color="#FFE57D"/></linearGradient><filter id="filter0_d" x=".804" y=".804" width="314.391" height="194.391" filterUnits="userSpaceOnUse" color-interpolation-filters="sRGB"><feFlood flood-opacity="0" result="BackgroundImageFix"/><feColorMatrix in="SourceAlpha" values="0 0 0 0 0 0 0 0 0 0 0 0 0 0 0 0 0 0 127 0"/><feOffset/><feGaussianBlur stdDeviation="11.098"/><feColorMatrix values="0 0 0 0 0 0 0 0 0 0 0 0 0 0 0 0 0 0 0.1 0"/><feBlend in2="BackgroundImageFix" result="effect1_dropShadow"/><feBlend in="SourceGraphic" in2="effect1_dropShadow" result="shape"/></filter><filter id="filter1_d" x="10.434" y="10.434" width="295.131" height="175.131" filterUnits="userSpaceOnUse" color-interpolation-filters="sRGB"><feFlood flood-opacity="0" result="BackgroundImageFix"/><feColorMatrix in="SourceAlpha" values="0 0 0 0 0 0 0 0 0 0 0 0 0 0 0 0 0 0 127 0"/><feOffset/><feGaussianBlur stdDeviation="11.098"/><feColorMatrix values="0 0 0 0 0 0 0 0 0 0 0 0 0 0 0 0 0 0 0.1 0"/><feBlend in2="BackgroundImageFix" result="effect1_dropShadow"/><feBlend in="SourceGraphic" in2="effect1_dropShadow" result="shape"/></filter></defs></svg>