<svg width="119" height="101" fill="none" xmlns="http://www.w3.org/2000/svg"><path fill-rule="evenodd" clip-rule="evenodd" d="M72.195 9.813A1.687 1.687 0 0170.61 7.55l1.477-4.06a40.174 40.174 0 00-8.858 1.547l-.195 5.603a1.686 1.686 0 01-1.683 1.628h-.06a1.688 1.688 0 01-1.627-1.745l.15-4.317a40.178 40.178 0 00-7.948 4.209l1.547 5.387a1.687 1.687 0 01-1.628 2.152 1.686 1.686 0 01-1.621-1.221l-1.187-4.149a40.176 40.176 0 00-6.255 6.456l3.137 4.647a1.686 1.686 0 01-2.19 2.433 1.687 1.687 0 01-.608-.546l-2.416-3.58a40.183 40.183 0 00-3.954 8.072l4.416 3.448a1.687 1.687 0 01-2.074 2.658l-3.404-2.657a40.188 40.188 0 00-1.268 8.908l5.267 1.916a1.687 1.687 0 11-1.152 3.171l-4.059-1.476a40.188 40.188 0 001.546 8.86l5.601.193a1.687 1.687 0 01-.057 3.373h-.059l-4.316-.15a40.186 40.186 0 004.207 7.947l5.386-1.546a1.687 1.687 0 11.929 3.243l-4.147 1.19a40.19 40.19 0 006.457 6.259l4.648-3.137a1.687 1.687 0 111.887 2.797l-3.58 2.417a40.185 40.185 0 008.08 3.958l3.446-4.42a1.686 1.686 0 012.658 2.076l-2.657 3.405a40.2 40.2 0 008.901 1.267l1.916-5.27a1.688 1.688 0 113.17 1.154l-1.476 4.06c2.996-.182 5.968-.7 8.86-1.547l.193-5.595a1.716 1.716 0 011.743-1.628 1.688 1.688 0 011.627 1.745l-.148 4.309a40.049 40.049 0 007.948-4.209l-1.548-5.39a1.685 1.685 0 012.443-1.961 1.687 1.687 0 01.799 1.03l1.19 4.156a40.165 40.165 0 006.261-6.46l-3.136-4.649a1.685 1.685 0 011.719-2.6c.44.085.827.342 1.077.713l2.416 3.581a40.192 40.192 0 003.956-8.077l-4.42-3.449a1.68 1.68 0 01-.636-1.123 1.672 1.672 0 01.344-1.245 1.682 1.682 0 011.124-.636 1.684 1.684 0 011.244.344l3.406 2.66a40.231 40.231 0 001.267-8.905l-5.27-1.916a1.688 1.688 0 011.154-3.17l4.056 1.474a40.21 40.21 0 00-1.554-8.856l-5.59-.194a1.686 1.686 0 01-1.63-1.745 1.688 1.688 0 011.744-1.629l4.302.148a40.248 40.248 0 00-4.211-7.94l-5.369 1.541a1.687 1.687 0 01-.933-3.242l4.133-1.186a40.221 40.221 0 00-6.454-6.253l-4.63 3.13a1.677 1.677 0 01-.941.284 1.687 1.687 0 01-.946-3.084L96.11 9.73a40.234 40.234 0 00-8.07-3.957l-3.44 4.406a1.686 1.686 0 11-2.658-2.074l2.651-3.395a40.207 40.207 0 00-8.898-1.275l-1.914 5.26a1.686 1.686 0 01-1.586 1.118zm15.42-7.756A43.551 43.551 0 0074.924.045a1.687 1.687 0 00-.772 0 43.545 43.545 0 00-24.967 8.128 1.687 1.687 0 00-.506.367 43.55 43.55 0 00-15.441 21.187 1.687 1.687 0 00-.255.783 43.565 43.565 0 006.23 38.59c.044.07.092.136.145.2a43.556 43.556 0 009.491 9.485l.01.007.028.023.023.017c.026.02.054.038.081.056a43.606 43.606 0 0011.935 6.092c.091.039.186.07.282.092a43.546 43.546 0 0013.285 2.085h.06a43.59 43.59 0 0013.183-2.066c.168-.028.33-.08.481-.157a43.607 43.607 0 0011.647-5.933 1.7 1.7 0 00.484-.352 43.645 43.645 0 009.239-9.246c.118-.118.218-.253.297-.401l.012-.024a43.62 43.62 0 005.975-11.736 1.834 1.834 0 00.122-.373 43.629 43.629 0 002.083-13.12 1.622 1.622 0 000-.296 43.546 43.546 0 00-2.033-13.006 1.687 1.687 0 00-.194-.6 43.575 43.575 0 00-5.838-11.497 1.67 1.67 0 00-.488-.674 43.567 43.567 0 00-9.098-9.093 1.672 1.672 0 00-.584-.425 43.548 43.548 0 00-11.46-5.852 1.687 1.687 0 00-.766-.249zm7.757 56.437a1.686 1.686 0 001.67.03c.25-.135.46-.331.614-.57a26.153 26.153 0 002.49-5.091 1.69 1.69 0 00-3.173-1.15 22.605 22.605 0 01-2.165 4.424 1.686 1.686 0 00.564 2.357zM74.405 70.843h-.008a27.241 27.241 0 01-26.586-32.59A27.244 27.244 0 0184.89 18.404a27.241 27.241 0 0116.875 25.068 1.689 1.689 0 01-1.678 1.687h-.009a1.687 1.687 0 01-1.687-1.679 23.872 23.872 0 00-14.79-21.958 23.867 23.867 0 00-32.483 17.396 23.872 23.872 0 0023.295 28.55 1.687 1.687 0 01-.008 3.375zm7.721-1.915a1.686 1.686 0 001.657.295 26.542 26.542 0 004.971-2.412 1.687 1.687 0 10-1.78-2.868 23.084 23.084 0 01-4.338 2.109 1.687 1.687 0 00-.51 2.876zm-7.603-18.136a7.191 7.191 0 01-7.056-8.596A7.194 7.194 0 0181.714 43.6a7.2 7.2 0 01-7.19 7.193zm0-11.011a3.818 3.818 0 10-.003 7.636 3.818 3.818 0 00.003-7.636zm-2.74-6.965a4.93 4.93 0 105.47-8.204 4.93 4.93 0 00-5.47 8.204zm1.875-5.396a1.557 1.557 0 111.73 2.589 1.557 1.557 0 01-1.73-2.59zM60.361 43.93a4.93 4.93 0 11.013-9.86 4.93 4.93 0 01-.014 9.86zm-1.475-5.411a1.557 1.557 0 102.963.961 1.557 1.557 0 00-2.963-.961zm3.99 21.112c.838.613 1.85.944 2.887.944a4.946 4.946 0 003.998-2.035 4.932 4.932 0 10-6.885 1.091zm1.993-5.25a1.557 1.557 0 111.827 2.52 1.557 1.557 0 01-1.827-2.52zm18.412 6.193a4.93 4.93 0 11-.02-9.861 4.93 4.93 0 01.02 9.86zm-.007-6.488a1.556 1.556 0 00-1.258 2.471 1.558 1.558 0 101.258-2.477v.006zm2.823-10.882a4.933 4.933 0 002.575.73 4.939 4.939 0 004.696-6.458 4.933 4.933 0 10-7.271 5.728zm2.093-5.685a1.56 1.56 0 011.98 1.904 1.557 1.557 0 11-1.98-1.904zm-34.868 62.489H33.385a1.686 1.686 0 110-3.373h19.937a1.687 1.687 0 110 3.373zm-33.492 0h3.188a1.686 1.686 0 100-3.373H19.83a1.687 1.687 0 100 3.373zm13.69-22.316H15.244a1.687 1.687 0 110-3.374h18.275a1.687 1.687 0 110 3.374zm-31.832 0h3.19a1.687 1.687 0 100-3.374h-3.19a1.687 1.687 0 100 3.374zm41.431 11.152H23.18a1.687 1.687 0 110-3.373h19.938a1.687 1.687 0 010 3.373zm-33.495 0h3.197a1.687 1.687 0 100-3.373H9.623a1.687 1.687 0 100 3.373z" fill="#fff" style="mix-blend-mode:overlay"/></svg>