<svg width="450" height="260" fill="none" xmlns="http://www.w3.org/2000/svg"><path d="M449 130c0 27.614-22.386 50-50 50s-50-22.386-50-50 22.386-50 50-50 50 22.386 50 50z" fill="url(#paint0_linear)"/><mask id="mask0" maskUnits="userSpaceOnUse" x="350" y="80" width="100" height="100"><circle cx="400" cy="130" r="50" fill="url(#paint1_linear)"/></mask><g mask="url(#mask0)"><path fill-rule="evenodd" clip-rule="evenodd" d="M401.816 92.117v10.612a1.117 1.117 0 11-2.234 0V92.117a1.117 1.117 0 112.234 0zm-1.119 46.15c-8.947 0-16.199-7.252-16.199-16.198.011-8.942 7.257-16.189 16.199-16.199 8.946 0 16.199 7.252 16.199 16.199 0 8.946-7.253 16.198-16.199 16.198zm13.965-16.198c0-7.713-6.252-13.965-13.965-13.965-7.709.009-13.956 6.256-13.965 13.965 0 7.712 6.252 13.964 13.965 13.964s13.965-6.252 13.965-13.964zm-14.255 6.086c.128-.019.257-.014.383.013a2.534 2.534 0 00-.093-5.068 4.77 4.77 0 01-1.256-9.371v-1.085a1.117 1.117 0 112.234 0v1.016a4.78 4.78 0 013.793 4.67 1.117 1.117 0 11-2.234 0 2.536 2.536 0 10-2.537 2.536 4.771 4.771 0 01.978 9.439v1.05a1.117 1.117 0 11-2.234 0v-1.117a4.779 4.779 0 01-3.514-4.602 1.117 1.117 0 112.234 0 2.54 2.54 0 002.246 2.519zm21.996 12.867l-8.75 4.134a7.128 7.128 0 00-6.077-3.749l-8.078-.222a8.542 8.542 0 01-3.671-.948l-.822-.426a14.498 14.498 0 00-13.43.014l.052-1.862a1.117 1.117 0 00-1.086-1.148l-8.858-.244a1.116 1.116 0 00-1.147 1.086L370 157.096a1.119 1.119 0 001.086 1.148l8.859.243h.03c.606 0 1.101-.481 1.117-1.086l.026-.93 2.301-1.232a3.949 3.949 0 012.946-.323l13.742 3.857a14.73 14.73 0 003.093.33 14.9 14.9 0 006.226-1.359c.048-.022.094-.047.139-.076l19.924-12.888c.497-.322.657-.973.366-1.488a5.642 5.642 0 00-7.452-2.27zm-50.138 15.019l.473-17.206 6.625.183-.474 17.206-6.624-.183zm36.155-.292a12.668 12.668 0 01-7.746.864l-13.705-3.847a6.173 6.173 0 00-4.604.504l-1.176.63.314-11.44a12.281 12.281 0 0112.475-.666l.822.426a10.788 10.788 0 004.637 1.198l8.079.222a4.9 4.9 0 014.656 3.905l-12.033-.333a1.117 1.117 0 00-.061 2.234l13.279.365h.031c.605 0 1.1-.482 1.116-1.086a7.029 7.029 0 00-.108-1.449l8.976-4.241.026-.013a3.413 3.413 0 013.859.541l-18.837 12.186zm1.772-53.02v-5.026a1.117 1.117 0 10-2.234 0v5.026a1.118 1.118 0 102.234 0zm-16.755-5.026v5.026a1.119 1.119 0 01-2.235 0v-5.026a1.118 1.118 0 012.235 0z" fill="#fff" style="mix-blend-mode:overlay"/></g><g filter="url(#filter0_d)"><path fill-rule="evenodd" clip-rule="evenodd" d="M40 30c-5.523 0-10 4.477-10 10v180c0 5.523 4.477 10 10 10h350c5.523 0 10-4.477 10-10v-30.003l-.6.003c-35.031 0-63.429-26.863-63.429-60s28.398-60 63.429-60c.2 0 .4 0 .6.003V40c0-5.523-4.477-10-10-10H40z" fill="#fff"/></g><g filter="url(#filter1_d)"><path d="M390 199.888h.5v-.473l-.472-.027-.028.5zm0-139.776l.028.5.472-.027v-.473h-.5zM39.5 53.636a.5.5 0 001 0h-1zm1 7.273a.5.5 0 00-1 0h1zm-1 7.273a.5.5 0 101 0h-1zm1 7.272a.5.5 0 00-1 0h1zm-1 7.273a.5.5 0 001 0h-1zm1 7.273a.5.5 0 00-1 0h1zm-1 7.273a.5.5 0 101 0h-1zm1 7.272a.5.5 0 00-1 0h1zm-1 7.273a.5.5 0 001 0h-1zm1 7.273a.5.5 0 00-1 0h1zm-1 7.273a.5.5 0 001 0h-1zm1 7.272a.5.5 0 00-1 0h1zm-1 7.273a.5.5 0 001 0h-1zm1 7.273a.5.5 0 00-1 0h1zm-1 7.273a.5.5 0 001 0h-1zm1 7.272a.5.5 0 00-1 0h1zm-1 7.273a.5.5 0 001 0h-1zm1 7.273a.5.5 0 00-1 0h1zm-1 7.272a.5.5 0 101 0h-1zm1 7.273a.5.5 0 00-1 0h1zm-1 7.273a.5.5 0 001 0h-1zm1 7.273a.5.5 0 10-1 0h1zm-.203 7.655a.5.5 0 10.924-.383l-.924.383zm6.067 4.76a.5.5 0 00-.383.924l.383-.924zm7.074 1.721a.5.5 0 000-1v1zm6.874-1a.5.5 0 000 1v-1zm6.876 1a.5.5 0 000-1v1zm6.874-1a.5.5 0 000 1v-1zm6.876 1a.5.5 0 000-1v1zm6.874-1a.5.5 0 000 1v-1zm6.876 1a.5.5 0 000-1v1zm6.874-1a.5.5 0 000 1v-1zm6.876 1a.5.5 0 000-1v1zm6.874-1a.5.5 0 000 1v-1zm6.876 1a.5.5 0 000-1v1zm6.874-1a.5.5 0 000 1v-1zm6.875 1a.5.5 0 100-1v1zm6.875-1a.5.5 0 000 1v-1zm6.876 1a.5.5 0 000-1v1zm6.874-1a.5.5 0 000 1v-1zm6.876 1a.5.5 0 000-1v1zm6.874-1a.5.5 0 000 1v-1zm6.876 1a.5.5 0 000-1v1zm6.874-1a.5.5 0 000 1v-1zm6.876 1a.5.5 0 000-1v1zm6.874-1a.5.5 0 000 1v-1zm6.876 1a.5.5 0 000-1v1zm6.874-1a.5.5 0 000 1v-1zm6.876 1a.5.5 0 000-1v1zm6.874-1a.5.5 0 000 1v-1zm6.876 1a.5.5 0 000-1v1zm6.874-1a.5.5 0 000 1v-1zm6.876 1a.5.5 0 000-1v1zm6.874-1a.5.5 0 000 1v-1zm6.876 1a.5.5 0 000-1v1zm6.874-1a.5.5 0 000 1v-1zm6.876 1a.5.5 0 000-1v1zm6.874-1a.5.5 0 000 1v-1zm6.876 1a.5.5 0 000-1v1zm6.874-1a.5.5 0 000 1v-1zm6.876 1a.5.5 0 000-1v1zm6.874-1a.5.5 0 000 1v-1zm6.876 1a.5.5 0 000-1v1zm6.874-1a.5.5 0 000 1v-1zm6.876 1a.5.5 0 000-1v1zm6.874-1a.5.5 0 000 1v-1zm6.876 1a.5.5 0 000-1v1zm6.874-1a.5.5 0 000 1v-1zm6.876 1a.5.5 0 000-1v1zm6.874-1a.5.5 0 000 1v-1zm6.876 1a.5.5 0 000-1v1zm6.874-1a.5.5 0 000 1v-1zm7.457.203a.5.5 0 10-.383-.924l.383.924zm4.76-6.067a.5.5 0 10.924.383l-.924-.383zm1.721-6.164a.5.5 0 00-1 0h1zm-1-5.056a.5.5 0 001 0h-1zm-2.75-3.29a.5.5 0 10-.103.995l.103-.995zm-6.696-.005a.5.5 0 10.197-.981l-.197.981zm-6.179-2.579a.5.5 0 00-.289.957l.289-.957zm-6.573-1.273a.499.499 0 10.379-.925l-.379.925zm-5.578-3.702a.499.499 0 10-.465.885l.465-.885zm-6.215-2.492a.501.501 0 00.547-.837l-.547.837zm-4.781-4.686a.5.5 0 10-.623.782l.623-.782zm-5.637-3.613a.5.5 0 00.694-.721l-.694.721zm-3.821-5.499a.5.5 0 00-.758.652l.758-.652zm-4.861-4.604a.5.5 0 10.816-.577l-.816.577zm-2.723-6.116a.5.5 0 10-.867.498l.867-.498zm-3.909-5.436a.5.5 0 10.91-.413l-.91.413zm-1.52-6.52a.5.5 0 10-.945.325l.945-.325zm-2.81-6.077a.5.5 0 00.973-.233l-.973.233zm-.257-6.69a.5.5 0 10-.99.14l.99-.14zm-1.613-6.5a.5.5 0 00.999-.046l-.999.046zm.999-6.622a.5.5 0 10-.999-.046l.999.046zm-.376-6.686a.5.5 0 10.99.14l-.99-.14zm2.22-6.317a.5.5 0 00-.973-.233l.973.233zm.892-6.635a.5.5 0 10.945.325l-.945-.325zm3.375-5.782a.5.5 0 10-.91-.413l.91.413zm2.132-6.347a.5.5 0 00.867.498l-.867-.498zm4.406-5.04a.5.5 0 10-.816-.578l.816.577zm3.287-5.834a.5.5 0 00.758.652l-.758-.652zm5.273-4.126a.5.5 0 00-.694-.72l.694.72zm4.32-5.116a.5.5 0 10.623.782l-.623-.782zm5.951-3.067a.501.501 0 00-.547-.837l.547.837zm5.203-4.214a.499.499 0 10.465.885l-.465-.885zm6.422-1.892a.5.5 0 10-.379-.925l.379.925zm5.905-3.155a.5.5 0 00.289.957l-.289-.957zm6.665-.641a.5.5 0 10-.197-.98l.197.98zm6.396-1.981a.5.5 0 00.103.995l-.103-.995zm3.853-2.295a.5.5 0 00-1 0h1zm-1-5.056a.5.5 0 001 0h-1zm.203-6.547a.5.5 0 10-.924.383l.924-.383zm-6.067-4.76a.5.5 0 00.383-.924l-.383.924zm-7.074-1.721a.5.5 0 000 1v-1zm-6.874 1a.5.5 0 000-1v1zm-6.876-1a.5.5 0 000 1v-1zm-6.874 1a.5.5 0 000-1v1zm-6.876-1a.5.5 0 000 1v-1zm-6.874 1a.5.5 0 000-1v1zm-6.876-1a.5.5 0 000 1v-1zm-6.874 1a.5.5 0 000-1v1zm-6.876-1a.5.5 0 000 1v-1zm-6.874 1a.5.5 0 000-1v1zm-6.876-1a.5.5 0 000 1v-1zm-6.874 1a.5.5 0 000-1v1zm-6.876-1a.5.5 0 000 1v-1zm-6.874 1a.5.5 0 000-1v1zm-6.876-1a.5.5 0 000 1v-1zm-6.874 1a.5.5 0 000-1v1zm-6.876-1a.5.5 0 000 1v-1zm-6.874 1a.5.5 0 000-1v1zm-6.876-1a.5.5 0 000 1v-1zm-6.874 1a.5.5 0 000-1v1zm-6.876-1a.5.5 0 000 1v-1zm-6.874 1a.5.5 0 000-1v1zm-6.876-1a.5.5 0 000 1v-1zm-6.874 1a.5.5 0 000-1v1zm-6.876-1a.5.5 0 000 1v-1zm-6.874 1a.5.5 0 000-1v1zm-6.876-1a.5.5 0 000 1v-1zm-6.874 1a.5.5 0 000-1v1zm-6.876-1a.5.5 0 000 1v-1zm-6.874 1a.5.5 0 000-1v1zm-6.876-1a.5.5 0 000 1v-1zm-6.874 1a.5.5 0 000-1v1zm-6.875-1a.5.5 0 100 1v-1zm-6.876 1a.5.5 0 100-1v1zm-6.875-1a.5.5 0 000 1v-1zm-6.874 1a.5.5 0 000-1v1zm-6.876-1a.5.5 0 000 1v-1zm-6.874 1a.5.5 0 000-1v1zm-6.875-1a.5.5 0 100 1v-1zm-6.876 1a.5.5 0 100-1v1zm-6.875-1a.5.5 0 000 1v-1zm-6.874 1a.5.5 0 000-1v1zm-6.876-1a.5.5 0 000 1v-1zm-6.874 1a.5.5 0 000-1v1zm-6.876-1a.5.5 0 000 1v-1zm-6.874 1a.5.5 0 000-1v1zm-6.876-1a.5.5 0 000 1v-1zm-6.874 1a.5.5 0 000-1v1zm-7.457-.203a.5.5 0 00.383.924l-.383-.924zm-4.76 6.067a.5.5 0 00-.924-.383l.924.383zM39.5 50v3.636h1V50h-1zm0 10.91v7.272h1v-7.273h-1zm0 14.544v7.273h1v-7.273h-1zM39.5 90v7.273h1V90h-1zm0 14.545v7.273h1v-7.273h-1zm0 14.546v7.273h1v-7.273h-1zm0 14.545v7.273h1v-7.273h-1zm0 14.546v7.273h1v-7.273h-1zm0 14.545V170h1v-7.273h-1zm0 14.546v7.272h1v-7.272h-1zm0 14.545v7.273h1v-7.273h-1zm0 14.546V210h1v-3.636h-1zm0 3.636c0 1.423.283 2.781.797 4.019l.924-.383A9.467 9.467 0 0140.5 210h-1zm6.48 9.703c1.24.514 2.597.797 4.02.797v-1a9.456 9.456 0 01-3.636-.721l-.383.924zm4.02.797h3.438v-1H50v1zm10.313 0h6.874v-1h-6.874v1zm13.75 0h6.874v-1h-6.874v1zm13.75 0h6.874v-1h-6.874v1zm13.749 0h6.876v-1h-6.876v1zm13.75 0h6.876v-1h-6.876v1zm13.75 0h6.875v-1h-6.875v1zm13.75 0h6.876v-1h-6.876v1zm13.75 0h6.876v-1h-6.876v1zm13.75 0h6.876v-1h-6.876v1zm13.75 0h6.876v-1h-6.876v1zm13.75 0h6.876v-1h-6.876v1zm13.75 0h6.876v-1h-6.876v1zm13.75 0h6.876v-1h-6.876v1zm13.75 0h6.876v-1h-6.876v1zm13.75 0h6.876v-1h-6.876v1zm13.75 0h6.876v-1h-6.876v1zm13.75 0h6.876v-1h-6.876v1zm13.75 0h6.876v-1h-6.876v1zm13.75 0h6.876v-1h-6.876v1zm13.75 0h6.876v-1h-6.876v1zm13.75 0h6.876v-1h-6.876v1zm13.75 0h6.876v-1h-6.876v1zm13.75 0h6.876v-1h-6.876v1zm13.75 0H380v-1h-3.438v1zm3.438 0c1.423 0 2.781-.283 4.019-.797l-.383-.924a9.452 9.452 0 01-3.636.721v1zm9.703-6.481c.514-1.238.797-2.596.797-4.019h-1a9.452 9.452 0 01-.721 3.636l.924.383zM390.5 210v-2.528h-1V210h1zm0-7.584v-2.528h-1v2.528h1zm-.472-3.028a69.392 69.392 0 01-3.278-.262l-.103.995c1.101.114 2.21.203 3.325.266l.056-.999zm-9.777-1.248a69.002 69.002 0 01-6.376-1.598l-.289.957a70.277 70.277 0 006.468 1.622l.197-.981zm-12.57-3.796a69.248 69.248 0 01-5.957-2.777l-.465.885a69.901 69.901 0 006.043 2.817l.379-.925zm-11.625-6.106a69.7 69.7 0 01-5.328-3.849l-.623.782a70.749 70.749 0 005.404 3.904l.547-.837zm-10.271-8.183a69.792 69.792 0 01-4.515-4.778l-.758.652a71.067 71.067 0 004.579 4.847l.694-.721zm-8.56-9.959a69.786 69.786 0 01-3.539-5.539l-.867.498a70.565 70.565 0 003.59 5.618l.816-.577zm-6.538-11.388a69.289 69.289 0 01-2.43-6.107l-.945.325a69.926 69.926 0 002.465 6.195l.91-.413zm-4.267-12.417a69.146 69.146 0 01-1.23-6.457l-.99.14a70.36 70.36 0 001.247 6.55l.973-.233zm-1.844-13.003A71.742 71.742 0 01324.5 130h-1c0 1.118.026 2.229.077 3.334l.999-.046zM324.5 130c0-1.102.026-2.198.076-3.288l-.999-.046A72.292 72.292 0 00323.5 130h1zm.69-9.834c.31-2.186.721-4.34 1.23-6.457l-.973-.233a70.36 70.36 0 00-1.247 6.55l.99.14zm3.067-12.767a69.289 69.289 0 012.43-6.107l-.91-.413a69.926 69.926 0 00-2.465 6.195l.945.325zm5.429-11.956a69.806 69.806 0 013.539-5.539l-.816-.577a70.615 70.615 0 00-3.59 5.618l.867.498zm7.584-10.72a69.937 69.937 0 014.515-4.778l-.694-.72a70.97 70.97 0 00-4.579 4.846l.758.652zm9.458-9.112a69.73 69.73 0 015.328-3.849l-.547-.837a70.726 70.726 0 00-5.404 3.904l.623.782zm10.996-7.178a69.128 69.128 0 015.957-2.777l-.379-.925a70.233 70.233 0 00-6.043 2.817l.465.885zm12.151-4.975a69.1 69.1 0 016.376-1.598l-.197-.98c-2.194.44-4.352.982-6.468 1.62l.289.958zm12.875-2.584c1.086-.113 2.178-.2 3.278-.262l-.056-.999a70.987 70.987 0 00-3.325.266l.103.995zm3.75-.762v-2.528h-1v2.528h1zm0-7.584V50h-1v2.528h1zm0-2.528c0-1.423-.283-2.78-.797-4.02l-.924.384A9.456 9.456 0 01389.5 50h1zm-6.481-9.703A10.466 10.466 0 00380 39.5v1c1.289 0 2.517.257 3.636.72l.383-.923zM380 39.5h-3.438v1H380v-1zm-10.312 0h-6.876v1h6.876v-1zm-13.75 0h-6.876v1h6.876v-1zm-13.75 0h-6.876v1h6.876v-1zm-13.75 0h-6.876v1h6.876v-1zm-13.75 0h-6.876v1h6.876v-1zm-13.75 0h-6.876v1h6.876v-1zm-13.75 0h-6.876v1h6.876v-1zm-13.75 0h-6.876v1h6.876v-1zm-13.75 0h-6.876v1h6.876v-1zm-13.75 0h-6.876v1h6.876v-1zm-13.75 0h-6.876v1h6.876v-1zm-13.75 0h-6.876v1h6.876v-1zm-13.75 0h-6.876v1h6.876v-1zm-13.75 0h-6.876v1h6.876v-1zm-13.75 0h-6.876v1h6.876v-1zm-13.75 0h-6.875v1h6.875v-1zm-13.751 0h-6.875v1h6.875v-1zm-13.749 0h-6.876v1h6.876v-1zm-13.75 0h-6.875v1h6.875v-1zm-13.751 0h-6.875v1h6.875v-1zm-13.75 0h-6.874v1h6.874v-1zm-13.75 0h-6.874v1h6.874v-1zm-13.75 0h-6.874v1h6.874v-1zm-13.75 0H50v1h3.438v-1zM50 39.5c-1.423 0-2.78.283-4.02.797l.384.924A9.47 9.47 0 0150 40.5v-1zm-9.703 6.48A10.471 10.471 0 0039.5 50h1a9.47 9.47 0 01.72-3.636l-.923-.383z" fill="#E5E5E5"/></g><defs><linearGradient id="paint0_linear" x1="397.636" y1="180" x2="397.636" y2="80" gradientUnits="userSpaceOnUse"><stop stop-color="#FCCB05"/><stop offset="1" stop-color="#FFE57D"/></linearGradient><linearGradient id="paint1_linear" x1="398.636" y1="180" x2="398.636" y2="80" gradientUnits="userSpaceOnUse"><stop stop-color="#FCCB05"/><stop offset="1" stop-color="#FFE57D"/></linearGradient><filter id="filter0_d" x="0" y="0" width="430" height="260" filterUnits="userSpaceOnUse" color-interpolation-filters="sRGB"><feFlood flood-opacity="0" result="BackgroundImageFix"/><feColorMatrix in="SourceAlpha" values="0 0 0 0 0 0 0 0 0 0 0 0 0 0 0 0 0 0 127 0"/><feOffset/><feGaussianBlur stdDeviation="15"/><feColorMatrix values="0 0 0 0 0 0 0 0 0 0 0 0 0 0 0 0 0 0 0.1 0"/><feBlend in2="BackgroundImageFix" result="effect1_dropShadow"/><feBlend in="SourceGraphic" in2="effect1_dropShadow" result="shape"/></filter><filter id="filter1_d" x="9.5" y="9.5" width="411" height="241" filterUnits="userSpaceOnUse" color-interpolation-filters="sRGB"><feFlood flood-opacity="0" result="BackgroundImageFix"/><feColorMatrix in="SourceAlpha" values="0 0 0 0 0 0 0 0 0 0 0 0 0 0 0 0 0 0 127 0"/><feOffset/><feGaussianBlur stdDeviation="15"/><feColorMatrix values="0 0 0 0 0 0 0 0 0 0 0 0 0 0 0 0 0 0 0.1 0"/><feBlend in2="BackgroundImageFix" result="effect1_dropShadow"/><feBlend in="SourceGraphic" in2="effect1_dropShadow" result="shape"/></filter></defs></svg>