<svg width="446" height="260" fill="none" xmlns="http://www.w3.org/2000/svg"><path d="M100 130c0 27.614-22.385 50-50 50-27.614 0-50-22.386-50-50s22.386-50 50-50c27.615 0 50 22.386 50 50z" fill="url(#paint0_linear)"/><mask id="mask0" maskUnits="userSpaceOnUse" x="0" y="80" width="100" height="100"><circle cx="50" cy="130" r="50" fill="url(#paint1_linear)"/></mask><g mask="url(#mask0)"><path fill-rule="evenodd" clip-rule="evenodd" d="M63.147 189.417v-37.464l-8.145-8.479-24.889-25.908a1.544 1.544 0 00-2.227 0l-33.034 34.387v10.167a1.464 1.464 0 11-2.93 0v-7.116l-2.982 3.103a3.47 3.47 0 01-4.958.05l-3.973-3.973a3.49 3.49 0 01-.049-4.859l45.09-46.937a5.476 5.476 0 017.9 0l45.089 46.937a3.489 3.489 0 01-.049 4.859l-3.973 3.973a3.47 3.47 0 01-4.958-.05l-2.982-3.104v34.414a5.885 5.885 0 01-5.879 5.878h-2.272a1.464 1.464 0 110-2.93h2.272a2.951 2.951 0 002.949-2.948zm8.798-33.332l3.973-3.973a.544.544 0 00.008-.758l-45.09-46.936a2.545 2.545 0 00-3.674 0l-45.089 46.936a.545.545 0 00.008.758l3.973 3.973c.26.214.518.211.773-.008l5.501-5.726.002-.002 33.443-34.813a4.471 4.471 0 016.447-.006l.006.006 38.946 40.541c.255.219.513.222.773.008zm-29.576 36.28h8.691a1.465 1.465 0 110 2.93H-2.2a5.885 5.885 0 01-5.878-5.879v-20.459a1.465 1.465 0 012.93 0v20.459a2.952 2.952 0 002.949 2.949h17.83v-16.588c0-7.372 5.997-13.369 13.368-13.369 7.372 0 13.37 5.997 13.37 13.369v16.588zm-13.37-27.027c-5.756 0-10.439 4.683-10.439 10.439v16.588h20.88v-16.588c0-5.756-4.684-10.439-10.44-10.439z" fill="#fff" style="mix-blend-mode:overlay"/></g><g filter="url(#filter0_d)"><path fill-rule="evenodd" clip-rule="evenodd" d="M56 30c-5.522 0-10 4.477-10 10v30.404A67.722 67.722 0 0153.4 70c35.031 0 63.429 26.863 63.429 60s-28.398 60-63.428 60c-2.504 0-4.973-.137-7.4-.404V220c0 5.523 4.477 10 10 10H406c5.523 0 10-4.477 10-10V40c0-5.523-4.477-10-10-10H56z" fill="#fff"/></g><g filter="url(#filter1_d)"><path d="M56 60.028h-.5v.486l.486.014.015-.5zm0 139.944l-.014-.5-.485.014v.486h.5zm-.5-147.465a.5.5 0 101 0h-1zm1 5.014a.5.5 0 00-1 0h1zm2.833 3.18a.5.5 0 00.075-.997l-.075.998zm6.818-.158a.5.5 0 10-.172.985l.172-.985zm6.363 2.45a.5.5 0 00.266-.964l-.266.964zm6.72 1.157a.5.5 0 10-.358.934l.358-.934zm5.771 3.632a.5.5 0 00.447-.895l-.447.895zm6.371 2.43a.5.5 0 00-.53.847l.53-.847zm4.968 4.672a.5.5 0 10.61-.793l-.61.793zm5.789 3.603a.5.5 0 00-.683.73l.683-.73zm3.985 5.534a.5.5 0 00.75-.662l-.75.662zm4.997 4.64a.5.5 0 00-.81.587l.81-.587zm2.856 6.192a.5.5 0 10.862-.507l-.862.507zm4.016 5.51a.5.5 0 00-.907.421l.907-.421zm1.614 6.625a.5.5 0 10.943-.331l-.943.331zm2.878 6.182a.5.5 0 10-.971.238l.971-.238zm.305 6.812a.5.5 0 10.99-.143l-.99.143zm1.636 6.621a.5.5 0 10-.999.047l.999-.047zm-.999 6.747a.5.5 0 10.999.047l-.999-.047zm.353 6.811a.5.5 0 00-.99-.143l.99.143zm-2.266 6.431a.5.5 0 10.971.238l-.971-.238zm-.964 6.751a.5.5 0 10-.943-.331l.943.331zm-3.464 5.873a.5.5 0 00.907.421l-.907-.421zm-2.247 6.438a.5.5 0 10-.862-.507l.862.507zm-4.528 5.098a.5.5 0 00.81.587l-.81-.587zm-3.437 5.889a.499.499 0 10-.75-.661l.75.661zm-5.418 4.141a.5.5 0 00.683.731l-.683-.731zm-4.497 5.127a.5.5 0 00-.61-.793l.61.793zm-6.107 3.032a.5.5 0 10.53.847l-.53-.847zm-5.394 4.172a.5.5 0 00-.447-.895l.447.895zm-6.576 1.803a.5.5 0 00.358.934l-.358-.934zm-6.096 3.055a.5.5 0 10-.266-.964l.266.964zm-6.8.501a.5.5 0 10.17.985l-.17-.985zm-6.572 1.824a.5.5 0 00-.075-.997l.075.997zm-3.907 2.183a.5.5 0 001 0h-1zm1 5.014a.5.5 0 00-1 0h1zm-.204 6.526a.5.5 0 10.924-.383l-.924.383zm6.067 4.76a.501.501 0 00-.383.924l.383-.924zm7.074 1.721a.5.5 0 000-1v1zm6.875-1a.5.5 0 000 1v-1zm6.875 1a.5.5 0 000-1v1zm6.875-1a.5.5 0 000 1v-1zm6.875 1a.5.5 0 000-1v1zm6.875-1a.5.5 0 000 1v-1zm6.875 1a.5.5 0 000-1v1zm6.875-1a.5.5 0 000 1v-1zm6.875 1a.5.5 0 000-1v1zm6.875-1a.5.5 0 000 1v-1zm6.875 1a.5.5 0 000-1v1zm6.875-1a.5.5 0 000 1v-1zm6.875 1a.5.5 0 000-1v1zm6.875-1a.5.5 0 000 1v-1zm6.875 1a.5.5 0 000-1v1zm6.875-1a.5.5 0 000 1v-1zm6.875 1a.5.5 0 000-1v1zm6.875-1a.5.5 0 000 1v-1zm6.875 1a.5.5 0 000-1v1zm6.875-1a.5.5 0 000 1v-1zm6.875 1a.5.5 0 000-1v1zm6.875-1a.5.5 0 000 1v-1zm6.875 1a.5.5 0 000-1v1zm6.875-1a.5.5 0 000 1v-1zm6.875 1a.5.5 0 000-1v1zm6.875-1a.5.5 0 000 1v-1zm6.875 1a.5.5 0 000-1v1zm6.875-1a.5.5 0 000 1v-1zm6.875 1a.5.5 0 000-1v1zm6.875-1a.5.5 0 000 1v-1zm6.875 1a.5.5 0 000-1v1zm6.875-1a.5.5 0 000 1v-1zm6.875 1a.5.5 0 000-1v1zm6.875-1a.5.5 0 000 1v-1zm6.875 1a.5.5 0 000-1v1zm6.875-1a.5.5 0 000 1v-1zm6.875 1a.5.5 0 000-1v1zm6.875-1a.5.5 0 000 1v-1zm6.875 1a.5.5 0 000-1v1zm6.875-1a.5.5 0 000 1v-1zm6.875 1a.5.5 0 000-1v1zm6.875-1a.5.5 0 000 1v-1zm6.875 1a.5.5 0 000-1v1zm6.875-1a.5.5 0 000 1v-1zm6.875 1a.5.5 0 000-1v1zm6.875-1a.5.5 0 000 1v-1zm6.875 1a.5.5 0 000-1v1zm6.875-1a.5.5 0 000 1v-1zm7.457.203a.5.5 0 10-.383-.924l.383.924zm4.76-6.067a.5.5 0 10.924.383l-.924-.383zm1.72-7.272a.499.499 0 10-1 0h1zm-1-7.273a.5.5 0 001 0h-1zm1-7.273a.5.5 0 10-1 0h1zm-1-7.273a.5.5 0 101 0h-1zm1-7.272a.5.5 0 10-1 0h1zm-1-7.273a.5.5 0 001 0h-1zm1-7.273a.5.5 0 10-1 0h1zm-1-7.272a.5.5 0 001 0h-1zm1-7.273a.5.5 0 10-1 0h1zm-1-7.273a.5.5 0 001 0h-1zm1-7.273a.5.5 0 10-1 0h1zm-1-7.272a.5.5 0 001 0h-1zm1-7.273a.5.5 0 10-1 0h1zm-1-7.273a.5.5 0 001 0h-1zm1-7.273a.5.5 0 10-1 0h1zm-1-7.272a.5.5 0 001 0h-1zm1-7.273a.5.5 0 10-1 0h1zm-1-7.273a.5.5 0 001 0h-1zm1-7.273a.5.5 0 10-1 0h1zm-1-7.272a.5.5 0 001 0h-1zm1-7.273a.5.5 0 10-1 0h1zm-1-7.273a.5.5 0 001 0h-1zm.204-7.655a.5.5 0 00-.924.383l.924-.383zm-6.067-4.76a.5.5 0 00.383-.924l-.383.924zm-7.074-1.721a.5.5 0 000 1v-1zm-6.875 1a.5.5 0 000-1v1zm-6.875-1a.5.5 0 000 1v-1zm-6.875 1a.5.5 0 000-1v1zm-6.875-1a.5.5 0 000 1v-1zm-6.875 1a.5.5 0 000-1v1zm-6.875-1a.5.5 0 000 1v-1zm-6.875 1a.5.5 0 000-1v1zm-6.875-1a.5.5 0 000 1v-1zm-6.875 1a.5.5 0 000-1v1zm-6.875-1a.5.5 0 000 1v-1zm-6.875 1a.5.5 0 000-1v1zm-6.875-1a.5.5 0 000 1v-1zm-6.875 1a.5.5 0 000-1v1zm-6.875-1a.5.5 0 000 1v-1zm-6.875 1a.5.5 0 000-1v1zm-6.875-1a.5.5 0 000 1v-1zm-6.875 1a.5.5 0 000-1v1zm-6.875-1a.5.5 0 000 1v-1zm-6.875 1a.5.5 0 000-1v1zm-6.875-1a.5.5 0 000 1v-1zm-6.875 1a.5.5 0 000-1v1zm-6.875-1a.5.5 0 000 1v-1zm-6.875 1a.5.5 0 000-1v1zm-6.875-1a.5.5 0 000 1v-1zm-6.875 1a.5.5 0 000-1v1zm-6.875-1a.5.5 0 000 1v-1zm-6.875 1a.5.5 0 000-1v1zm-6.875-1a.5.5 0 000 1v-1zm-6.875 1a.5.5 0 000-1v1zm-6.875-1a.5.5 0 000 1v-1zm-6.875 1a.5.5 0 000-1v1zm-6.875-1a.5.5 0 000 1v-1zm-6.875 1a.5.5 0 000-1v1zm-6.875-1a.5.5 0 000 1v-1zm-6.875 1a.5.5 0 000-1v1zm-6.875-1a.5.5 0 000 1v-1zm-6.875 1a.5.5 0 000-1v1zm-6.875-1a.5.5 0 000 1v-1zm-6.875 1a.5.5 0 000-1v1zm-6.875-1a.5.5 0 000 1v-1zm-6.875 1a.5.5 0 000-1v1zm-6.875-1a.5.5 0 000 1v-1zm-6.875 1a.5.5 0 000-1v1zm-6.875-1a.5.5 0 000 1v-1zm-6.875 1a.5.5 0 000-1v1zm-6.875-1a.5.5 0 100 1v-1zm-6.875 1a.5.5 0 000-1v1zm-7.457-.203a.5.5 0 00.383.924l-.383-.924zm-4.76 6.067a.5.5 0 00-.924-.383l.924.383zM55.501 50v2.507h1V50h-1zm0 7.521v2.507h1v-2.507h-1zm.486 3.007c1.122.031 2.237.09 3.346.174l.075-.998a71.485 71.485 0 00-3.394-.176l-.028 1zm9.992 1c2.216.385 4.397.875 6.535 1.465l.266-.964a70.041 70.041 0 00-6.63-1.486l-.17.985zm12.897 3.556a69.107 69.107 0 016.13 2.698l.446-.895a70.081 70.081 0 00-6.218-2.737l-.358.934zm11.97 5.975a69.672 69.672 0 015.498 3.825l.61-.793a70.663 70.663 0 00-5.578-3.879l-.53.847zm10.604 8.159a69.682 69.682 0 014.668 4.802l.75-.661a70.994 70.994 0 00-4.735-4.872l-.683.73zm8.855 10.03a69.366 69.366 0 013.666 5.605l.862-.507a70.48 70.48 0 00-3.718-5.685l-.81.587zm6.775 11.536a69.343 69.343 0 012.521 6.204l.943-.331a69.921 69.921 0 00-2.557-6.294l-.907.421zm4.428 12.624a69.456 69.456 0 011.276 6.574l.99-.143a70.515 70.515 0 00-1.295-6.669l-.971.238zm1.913 13.242c.053 1.11.079 2.227.079 3.35h1c0-1.139-.027-2.272-.08-3.397l-.999.047zm.079 3.35c0 1.123-.026 2.24-.079 3.35l.999.047c.053-1.125.08-2.258.08-3.397h-1zm-.716 10.018a69.456 69.456 0 01-1.276 6.574l.971.238c.535-2.185.968-4.41 1.295-6.669l-.99-.143zm-3.183 12.994a69.343 69.343 0 01-2.521 6.204l.907.421a69.921 69.921 0 002.557-6.294l-.943-.331zm-5.63 12.135a69.354 69.354 0 01-3.666 5.605l.81.587a70.617 70.617 0 003.718-5.685l-.862-.507zm-7.853 10.833a69.807 69.807 0 01-4.668 4.802l.683.731a70.912 70.912 0 004.735-4.872l-.75-.661zm-9.774 9.136a69.707 69.707 0 01-5.498 3.825l.53.847a70.793 70.793 0 005.577-3.879l-.61-.793zm-11.339 7.102a69.137 69.137 0 01-6.129 2.698l.358.934a70.346 70.346 0 006.218-2.737l-.447-.895zm-12.49 4.789a68.946 68.946 0 01-6.536 1.465l.172.985a70.26 70.26 0 006.63-1.486l-.267-.964zm-13.182 2.292a69.764 69.764 0 01-3.346.173l.027 1a71.752 71.752 0 003.394-.176l-.075-.997zm-3.832.673v2.507h1v-2.507h-1zm0 7.521V210h1v-2.507h-1zm0 2.507c0 1.423.283 2.781.796 4.019l.924-.383a9.465 9.465 0 01-.72-3.636h-1zm6.48 9.703c1.239.514 2.597.797 4.02.797v-1a9.456 9.456 0 01-3.637-.721l-.383.924zm4.02.797h3.437v-1H66v1zm10.312 0h6.875v-1h-6.875v1zm13.75 0h6.875v-1h-6.875v1zm13.75 0h6.875v-1h-6.875v1zm13.75 0h6.875v-1h-6.875v1zm13.75 0h6.875v-1h-6.875v1zm13.75 0h6.875v-1h-6.875v1zm13.75 0h6.875v-1h-6.875v1zm13.75 0h6.875v-1h-6.875v1zm13.75 0h6.875v-1h-6.875v1zm13.75 0h6.875v-1h-6.875v1zm13.75 0h6.875v-1h-6.875v1zm13.75 0h6.875v-1h-6.875v1zm13.75 0h6.875v-1h-6.875v1zm13.75 0h6.875v-1h-6.875v1zm13.75 0h6.875v-1h-6.875v1zm13.75 0h6.875v-1h-6.875v1zm13.75 0h6.875v-1h-6.875v1zm13.75 0h6.875v-1h-6.875v1zm13.75 0h6.875v-1h-6.875v1zm13.75 0h6.875v-1h-6.875v1zm13.75 0h6.875v-1h-6.875v1zm13.75 0h6.875v-1h-6.875v1zm13.75 0h6.875v-1h-6.875v1zm13.75 0H396v-1h-3.437v1zm3.437 0c1.423 0 2.781-.283 4.02-.797l-.383-.924a9.457 9.457 0 01-3.637.721v1zm9.704-6.481c.513-1.238.796-2.596.796-4.019h-1a9.47 9.47 0 01-.72 3.636l.924.383zM406.5 210v-3.636h-1V210h1zm0-10.909v-7.273h-1v7.273h1zm0-14.546v-7.272h-1v7.272h1zm0-14.545v-7.273h-1V170h1zm0-14.545v-7.273h-1v7.273h1zm0-14.546v-7.273h-1v7.273h1zm0-14.545v-7.273h-1v7.273h1zm0-14.546v-7.273h-1v7.273h1zm0-14.545V90h-1v7.273h1zm0-14.546v-7.273h-1v7.273h1zm0-14.545v-7.273h-1v7.273h1zm0-14.546V50h-1v3.636h1zm0-3.636c0-1.423-.283-2.78-.796-4.02l-.924.384c.464 1.12.72 2.347.72 3.636h1zm-6.48-9.703A10.475 10.475 0 00396 39.5v1c1.29 0 2.517.257 3.637.72l.383-.923zM396 39.5h-3.437v1H396v-1zm-10.312 0h-6.875v1h6.875v-1zm-13.75 0h-6.875v1h6.875v-1zm-13.75 0h-6.875v1h6.875v-1zm-13.75 0h-6.875v1h6.875v-1zm-13.75 0h-6.875v1h6.875v-1zm-13.75 0h-6.875v1h6.875v-1zm-13.75 0h-6.875v1h6.875v-1zm-13.75 0h-6.875v1h6.875v-1zm-13.75 0h-6.875v1h6.875v-1zm-13.75 0h-6.875v1h6.875v-1zm-13.75 0h-6.875v1h6.875v-1zm-13.75 0h-6.875v1h6.875v-1zm-13.75 0h-6.875v1h6.875v-1zm-13.75 0h-6.875v1h6.875v-1zm-13.75 0h-6.875v1h6.875v-1zm-13.75 0h-6.875v1h6.875v-1zm-13.75 0h-6.875v1h6.875v-1zm-13.75 0h-6.875v1h6.875v-1zm-13.75 0h-6.875v1h6.875v-1zm-13.75 0h-6.875v1h6.875v-1zm-13.75 0h-6.875v1h6.875v-1zm-13.75 0h-6.875v1h6.875v-1zm-13.75 0h-6.875v1h6.875v-1zm-13.75 0H66v1h3.438v-1zM66 39.5c-1.422 0-2.78.283-4.019.797l.383.924a9.47 9.47 0 013.637-.721v-1zm-9.703 6.48a10.471 10.471 0 00-.796 4.02h1a9.47 9.47 0 01.72-3.636l-.924-.383z" fill="#E5E5E5"/></g><defs><linearGradient id="paint0_linear" x1="48.637" y1="180" x2="48.637" y2="80" gradientUnits="userSpaceOnUse"><stop stop-color="#FCCB05"/><stop offset="1" stop-color="#FFE57D"/></linearGradient><linearGradient id="paint1_linear" x1="48.636" y1="180" x2="48.636" y2="80" gradientUnits="userSpaceOnUse"><stop stop-color="#FCCB05"/><stop offset="1" stop-color="#FFE57D"/></linearGradient><filter id="filter0_d" x="16" y="0" width="430" height="260" filterUnits="userSpaceOnUse" color-interpolation-filters="sRGB"><feFlood flood-opacity="0" result="BackgroundImageFix"/><feColorMatrix in="SourceAlpha" values="0 0 0 0 0 0 0 0 0 0 0 0 0 0 0 0 0 0 127 0"/><feOffset/><feGaussianBlur stdDeviation="15"/><feColorMatrix values="0 0 0 0 0 0 0 0 0 0 0 0 0 0 0 0 0 0 0.1 0"/><feBlend in2="BackgroundImageFix" result="effect1_dropShadow"/><feBlend in="SourceGraphic" in2="effect1_dropShadow" result="shape"/></filter><filter id="filter1_d" x="25.5" y="9.5" width="411" height="241" filterUnits="userSpaceOnUse" color-interpolation-filters="sRGB"><feFlood flood-opacity="0" result="BackgroundImageFix"/><feColorMatrix in="SourceAlpha" values="0 0 0 0 0 0 0 0 0 0 0 0 0 0 0 0 0 0 127 0"/><feOffset/><feGaussianBlur stdDeviation="15"/><feColorMatrix values="0 0 0 0 0 0 0 0 0 0 0 0 0 0 0 0 0 0 0.1 0"/><feBlend in2="BackgroundImageFix" result="effect1_dropShadow"/><feBlend in="SourceGraphic" in2="effect1_dropShadow" result="shape"/></filter></defs></svg>