<svg width="334" height="196" fill="none" xmlns="http://www.w3.org/2000/svg"><path d="M334 97c0 20.435-16.565 37-37 37s-37-16.565-37-37c0-20.434 16.565-37 37-37s37 16.566 37 37z" fill="url(#paint0_linear)"/><mask id="mask0" maskUnits="userSpaceOnUse" x="260" y="60" width="74" height="74"><circle cx="297" cy="97" r="37" fill="url(#paint1_linear)"/></mask><g mask="url(#mask0)"><path d="M319.2 84.418v25.327a3.703 3.703 0 01-3.7 3.697h-37c-2.04 0-3.7-1.658-3.7-3.697V98.653a.74.74 0 011.48 0v11.092c0 1.223.996 2.218 2.22 2.218h37c1.224 0 2.22-.995 2.22-2.218V84.418a2.222 2.222 0 00-2.22-2.219h-37c-1.224 0-2.22.995-2.22 2.219v2.957h37.925a.74.74 0 010 1.48H276.28v4.806h37.925a.74.74 0 010 1.48H275.54a.74.74 0 01-.74-.74v-9.983a3.703 3.703 0 013.7-3.698h37c2.04 0 3.7 1.659 3.7 3.698zm-5.92 19.226c0-1.898-2.112-3.05-3.712-2.017 1.57 2.57-.288 5.899-3.318 5.899a3.888 3.888 0 01-3.885-3.882c0-3.186 3.648-5.01 6.197-3.117 2.561-1.893 6.198-.063 6.198 3.117a3.888 3.888 0 01-3.885 3.882.74.74 0 110-1.479 2.407 2.407 0 002.405-2.403zm-4.625 0a2.407 2.407 0 00-2.405-2.403 2.407 2.407 0 00-2.405 2.403 2.407 2.407 0 002.405 2.403 2.407 2.407 0 002.405-2.403zm-27.103-1.571h6.198a.74.74 0 000-1.479h-6.198a.74.74 0 000 1.479zm0 4.621h6.198a.74.74 0 000-1.478h-6.198a.74.74 0 000 1.478z" fill="#fff" style="mix-blend-mode:overlay"/></g><path d="M332.986 96.986c0 20.43-16.563 36.992-36.993 36.992-20.431 0-36.993-16.562-36.993-36.993 0-20.43 16.562-36.992 36.993-36.992 20.43 0 36.993 16.562 36.993 36.992z" fill="url(#paint2_linear)"/><mask id="mask1" maskUnits="userSpaceOnUse" x="259" y="60" width="74" height="74"><circle cx="296" cy="97" r="37" fill="url(#paint3_linear)"/></mask><g mask="url(#mask1)"><path fill-rule="evenodd" clip-rule="evenodd" d="M316.933 91.394a5.732 5.732 0 001.705 2.006C319.8 94.447 321 95.533 321 97s-1.2 2.553-2.362 3.604a5.737 5.737 0 00-1.705 2.005c-.056.925.108 1.85.478 2.7v.001c.467 1.461.949 2.972.242 4.194-.718 1.241-2.282 1.578-3.795 1.905h-.001a5.804 5.804 0 00-2.536.912 5.792 5.792 0 00-.913 2.537c-.326 1.513-.666 3.077-1.904 3.795-1.223.707-2.731.226-4.19-.241l-.005-.001a5.897 5.897 0 00-2.699-.478 5.731 5.731 0 00-2.006 1.705C298.553 120.8 297.467 122 296 122s-2.553-1.2-3.604-2.362a5.737 5.737 0 00-2.005-1.705 5.888 5.888 0 00-2.7.478l-.003.001c-1.462.466-2.97.948-4.192.241-1.241-.718-1.578-2.282-1.905-3.795v-.001a5.804 5.804 0 00-.912-2.536 5.797 5.797 0 00-2.537-.913c-1.513-.326-3.077-.666-3.794-1.904-.708-1.223-.226-2.732.241-4.193v-.002c.37-.849.534-1.774.478-2.699a5.731 5.731 0 00-1.705-2.006C272.2 99.554 271 98.467 271 97s1.2-2.553 2.362-3.604a5.73 5.73 0 001.705-2.005 5.874 5.874 0 00-.478-2.7c-.467-1.462-.949-2.973-.241-4.195.717-1.24 2.281-1.578 3.794-1.905h.001a5.8 5.8 0 002.536-.912 5.8 5.8 0 00.917-2.537c.326-1.513.666-3.077 1.904-3.794 1.222-.707 2.729-.227 4.187.239l.008.002a5.89 5.89 0 002.699.478 5.725 5.725 0 002.006-1.705C293.447 73.2 294.533 72 296 72s2.553 1.2 3.604 2.362a5.735 5.735 0 002.005 1.705 5.889 5.889 0 002.7-.478h.003c1.462-.467 2.97-.949 4.192-.242 1.241.718 1.578 2.282 1.905 3.795v.001c.101.905.413 1.774.912 2.536a5.798 5.798 0 002.537.917c1.513.326 3.077.666 3.795 1.904.707 1.223.225 2.732-.242 4.193v.002a5.871 5.871 0 00-.478 2.7zm-1.61 10.785a6.585 6.585 0 012.197-2.81l.002-.001c.891-.807 1.811-1.641 1.811-2.368 0-.727-.92-1.56-1.811-2.368l-.002-.001a6.584 6.584 0 01-2.197-2.811 6.775 6.775 0 01.5-3.636c.357-1.116.724-2.27.387-2.854-.347-.6-1.544-.859-2.7-1.108l-.003-.001a6.693 6.693 0 01-3.365-1.364c-.811-.81-1.091-2.107-1.362-3.362v-.002c-.25-1.158-.509-2.355-1.111-2.704-.583-.333-1.736.031-2.853.388a6.783 6.783 0 01-3.637.5 6.584 6.584 0 01-2.81-2.197l-.002-.002c-.806-.89-1.64-1.811-2.367-1.811-.727 0-1.561.92-2.368 1.811l-.001.002a6.582 6.582 0 01-2.811 2.197c-1.123.301-2.402-.105-3.636-.5l-.012-.004c-1.112-.356-2.257-.722-2.839-.383-.6.347-.858 1.544-1.108 2.7l-.001.003a6.681 6.681 0 01-1.363 3.365c-.81.811-2.108 1.091-3.363 1.362h-.002c-1.157.25-2.355.509-2.703 1.11-.334.584.03 1.738.387 2.854a6.778 6.778 0 01.5 3.637 6.584 6.584 0 01-2.197 2.81c-.895.807-1.816 1.641-1.816 2.369 0 .727.92 1.56 1.811 2.368l.002.001a6.588 6.588 0 012.197 2.811 6.776 6.776 0 01-.5 3.636c-.357 1.116-.725 2.267-.387 2.851.347.6 1.544.858 2.7 1.108l.003.001a6.685 6.685 0 013.365 1.363c.811.81 1.091 2.108 1.362 3.363v.002c.25 1.157.509 2.355 1.111 2.704.583.333 1.735-.031 2.853-.388a9.654 9.654 0 012.792-.602c.285-.001.569.034.845.105a6.587 6.587 0 012.81 2.197l.001.002c.807.891 1.641 1.811 2.368 1.811.727 0 1.561-.92 2.367-1.811l.002-.002a6.59 6.59 0 012.811-2.197 6.795 6.795 0 013.636.5l.002.001c1.114.356 2.266.723 2.852.386.6-.347.859-1.544 1.108-2.7l.001-.003a6.703 6.703 0 011.363-3.365c.81-.811 2.108-1.091 3.363-1.362h.002c1.158-.25 2.355-.509 2.704-1.111.333-.583-.031-1.737-.388-2.853a6.78 6.78 0 01-.5-3.637zm-18.49-21.012a.833.833 0 11-1.666 0V79.5a.833.833 0 111.666 0v1.667zm-5.736.755a.833.833 0 101.61-.431l-.431-1.61-.012-.044a.833.833 0 10-1.597.475l.43 1.61zm-3.132-.504l.006.01.833 1.444a.833.833 0 11-1.443.833l-.833-1.444a.833.833 0 111.437-.843zm-3.75 4.975a.833.833 0 101.178-1.178l-1.179-1.18-.02-.02a.834.834 0 00-1.158 1.2l1.179 1.178zm-1.179 22.393l1.179-1.179a.833.833 0 011.178 1.178l-1.179 1.179a.833.833 0 01-1.178-1.178zm5.467 1.212a.832.832 0 00-1.14.297l-.834 1.444a.833.833 0 001.444.833l.833-1.444a.833.833 0 00-.303-1.13zm2.594 2.08a.833.833 0 011.61.431l-.432 1.61a.834.834 0 11-1.609-.432l.431-1.609zM296 112a.833.833 0 00-.833.833v1.667a.833.833 0 001.666 0v-1.667A.833.833 0 00296 112zm3.888-.508a.832.832 0 011.015.586l.431 1.61a.832.832 0 11-1.609.431l-.432-1.61a.833.833 0 01.595-1.017zm4.749-1.197l-.005-.01a.834.834 0 00-1.438.843l.833 1.445a.832.832 0 001.139.305.835.835 0 00.305-1.139l-.834-1.444zm1.99-2.688a.833.833 0 011.158 0l1.179 1.179a.834.834 0 01-1.178 1.178l-1.179-1.179a.833.833 0 01.02-1.178zm.569-20.97a.833.833 0 00.589-.244l1.179-1.179.01-.009.011-.011a.834.834 0 00-1.199-1.158l-1.179 1.179a.834.834 0 00.589 1.422zm-2.557-2.932a.832.832 0 11-1.443-.833l.833-1.444a.833.833 0 111.449.823l-.006.01-.833 1.444zm-4.756-1.194a.832.832 0 001.02-.59l.431-1.609c.005-.014.008-.028.012-.043a.834.834 0 00-1.621-.388l-.432 1.61c-.118.444.145.9.59 1.02zM292.667 102h5.833a.833.833 0 010 1.667h-6.667a.833.833 0 01-.833-.834V91.167c0-.46.373-.834.833-.834h6.667a.833.833 0 010 1.667h-5.833v4.167h4.166a.833.833 0 110 1.666h-4.166V102zm-5.634 1.353a.8.8 0 00.204.176c.027.02.054.038.083.054a.82.82 0 00.347.084.83.83 0 00.382-.105.796.796 0 00.101-.051c.011-.007.018-.017.026-.026a.124.124 0 01.018-.022.753.753 0 00.12-.126.669.669 0 00.139-.273.851.851 0 00.033-.167c0-.011.003-.022.007-.033a.128.128 0 00.006-.033V91.167a.833.833 0 10-1.665 0v9.066l-6.823-9.55c-.007-.01-.017-.018-.026-.026a.108.108 0 01-.021-.019.892.892 0 00-.253-.203.86.86 0 00-.145-.053.76.76 0 00-.167-.034c-.011 0-.021-.003-.032-.006a.105.105 0 00-.033-.007.699.699 0 00-.083.018.79.79 0 00-.167.032.825.825 0 00-.155.07.874.874 0 00-.079.036.113.113 0 00-.025.026c-.006.007-.012.015-.019.021a.794.794 0 00-.119.127.716.716 0 00-.138.272.86.86 0 00-.034.167.124.124 0 01-.006.034.095.095 0 00-.007.033v11.662a.833.833 0 101.667 0v-9.066l6.822 9.55a.077.077 0 00.023.021.125.125 0 01.019.015zm25.809-13.001h.002c.45.098.735.541.638.991l-2.5 11.667a.834.834 0 01-.769.657h-.046a.834.834 0 01-.79-.57l-2.544-7.629-2.546 7.629a.842.842 0 01-.834.568.833.833 0 01-.768-.657l-2.5-11.666a.833.833 0 111.63-.35l1.86 8.681 2.365-7.103a.834.834 0 011.583 0l2.369 7.103 1.86-8.681a.833.833 0 01.99-.64z" fill="#fff" style="mix-blend-mode:overlay"/></g><g filter="url(#filter0_d)"><path fill-rule="evenodd" clip-rule="evenodd" d="M30.399 23A7.399 7.399 0 0023 30.399V165.6a7.398 7.398 0 007.399 7.4H285.6a7.398 7.398 0 007.399-7.399v-22.603l-.438.002c-25.563 0-46.286-20.147-46.286-45s20.723-45 46.286-45c.146 0 .292 0 .438.002V30.399A7.398 7.398 0 00285.601 23H30.399z" fill="#fff"/></g><g filter="url(#filter1_d)"><path d="M283 148.396h.37v-.328l-.325-.04-.045.368zm0-102.82l.045.367.325-.04v-.327H283zm-250.37-2.94a.37.37 0 10.74 0h-.74zm.74 5.273a.37.37 0 10-.74 0h.74zm-.74 5.273a.37.37 0 10.74 0h-.74zm.74 5.273a.37.37 0 10-.74 0h.74zm-.74 5.272a.37.37 0 10.74 0h-.74zM33.37 69a.37.37 0 10-.74 0h.74zm-.74 5.273a.37.37 0 10.74 0h-.74zm.74 5.273a.37.37 0 10-.74 0h.74zm-.74 5.272a.37.37 0 10.74 0h-.74zm.74 5.273a.37.37 0 10-.74 0h.74zm-.74 5.273a.37.37 0 10.74 0h-.74zm.74 5.272a.37.37 0 00-.74 0h.74zm-.74 5.273a.37.37 0 00.74 0h-.74zm.74 5.273a.37.37 0 00-.74 0h.74zm-.74 5.273a.37.37 0 00.74 0h-.74zm.74 5.272a.37.37 0 00-.74 0h.74zM32.63 127a.37.37 0 00.74 0h-.74zm.74 5.273a.37.37 0 10-.74 0h.74zm-.74 5.272a.37.37 0 10.74 0h-.74zm.74 5.273a.37.37 0 00-.74 0h.74zm-.74 5.273a.37.37 0 00.74 0h-.74zm.74 5.273a.37.37 0 10-.74 0h.74zm-.18 5.457a.37.37 0 00.683-.283l-.683.283zm4.272 3.306a.37.37 0 10-.283.684l.283-.684zm5.103 1.243a.37.37 0 000-.74v.74zm5.13-.74a.37.37 0 000 .74v-.74zm5.131.74a.37.37 0 000-.74v.74zm5.13-.74a.37.37 0 000 .74v-.74zm5.131.74a.37.37 0 000-.74v.74zm5.13-.74a.37.37 0 000 .74v-.74zm5.13.74a.37.37 0 000-.74v.74zm5.131-.74a.37.37 0 000 .74v-.74zm5.13.74a.37.37 0 000-.74v.74zm5.131-.74a.37.37 0 000 .74v-.74zm5.13.74a.37.37 0 000-.74v.74zm5.131-.74a.37.37 0 000 .74v-.74zm5.13.74a.37.37 0 100-.74v.74zm5.131-.74a.37.37 0 000 .74v-.74zm5.13.74a.37.37 0 100-.74v.74zm5.131-.74a.37.37 0 100 .74v-.74zm5.13.74a.37.37 0 000-.74v.74zm5.131-.74a.37.37 0 100 .74v-.74zm5.13.74a.37.37 0 000-.74v.74zm5.13-.74a.37.37 0 000 .74v-.74zm5.131.74a.37.37 0 000-.74v.74zm5.13-.74a.37.37 0 000 .74v-.74zm5.131.74a.37.37 0 000-.74v.74zm5.13-.74a.37.37 0 000 .74v-.74zm5.131.74a.37.37 0 000-.74v.74zm5.13-.74a.37.37 0 000 .74v-.74zm5.13.74a.37.37 0 100-.74v.74zm5.131-.74a.37.37 0 000 .74v-.74zm5.13.74a.37.37 0 100-.74v.74zm5.131-.74a.37.37 0 100 .74v-.74zm5.13.74a.37.37 0 100-.74v.74zm5.131-.74a.37.37 0 100 .74v-.74zm5.13.74a.37.37 0 000-.74v.74zm5.131-.74a.37.37 0 100 .74v-.74zm5.13.74a.37.37 0 000-.74v.74zm5.13-.74a.37.37 0 000 .74v-.74zm5.131.74a.37.37 0 000-.74v.74zm5.13-.74a.37.37 0 000 .74v-.74zm5.131.74a.37.37 0 000-.74v.74zm5.13-.74a.37.37 0 000 .74v-.74zm5.131.74a.37.37 0 000-.74v.74zm5.13-.74a.37.37 0 000 .74v-.74zm5.13.74a.37.37 0 100-.74v.74zm5.131-.74a.37.37 0 000 .74v-.74zm5.13.74a.37.37 0 100-.74v.74zm5.131-.74a.37.37 0 100 .74v-.74zm5.386.181a.37.37 0 00-.283-.684l.283.684zm3.306-4.273a.37.37 0 10.684.283l-.684-.283zm1.243-4.439a.37.37 0 00-.74 0h.74zm-.74-3.802a.37.37 0 00.74 0h-.74zm-2.218-2.658a.37.37 0 00-.127.729l.127-.729zm-5.388-.473a.372.372 0 00.457-.255.371.371 0 00-.255-.457l-.202.712zm-4.832-2.43a.37.37 0 00-.275.686l.275-.686zm-5.172-1.578a.37.37 0 00.345-.654l-.345.654zm-4.226-3.375a.37.37 0 10-.411.615l.411-.615zm-4.738-2.608a.37.37 0 00.472-.57l-.472.57zm-3.444-4.169a.37.37 0 10-.528.518l.528-.518zm-4.105-3.521a.37.37 0 10.578-.462l-.578.462zm-2.52-4.786a.369.369 0 10-.622.4l.622-.4zm-3.296-4.288a.37.37 0 10.661-.333l-.661.333zm-1.481-5.201a.37.37 0 00-.691.262l.691-.262zm-2.338-4.875a.37.37 0 00.715-.189l-.715.189zm-.373-5.396a.37.37 0 00-.731.114l.731-.114zm-1.283-5.255a.37.37 0 00.739-.037l-.739.037zm.739-5.36a.37.37 0 10-.739-.037l.739.038zm-.187-5.405a.37.37 0 10.731.113l-.731-.113zm1.819-5.093a.37.37 0 00-.715-.19l.715.19zm.932-5.327a.37.37 0 10.691.263l-.691-.263zm2.833-4.606a.37.37 0 10-.661-.333l.661.333zm2.013-5.02a.369.369 0 10.622.4l-.622-.4zm3.72-3.925a.37.37 0 10-.578-.461l.578.461zm2.999-4.5a.37.37 0 00.528.518l-.528-.518zm4.444-3.081a.37.37 0 00-.472-.57l.472.57zm3.855-3.793a.37.37 0 00.411.615l-.411-.615zm4.982-2.106a.37.37 0 10-.345-.654l.345.654zm4.552-2.919a.37.37 0 00.275.687l-.275-.687zm5.309-1.031a.37.37 0 00-.202-.712l.202.712zm5.059-1.915a.37.37 0 10.127.73l-.127-.73zm3.085-1.421a.37.37 0 00-.74 0h.74zm-.74-2.788a.37.37 0 00.74 0h-.74zm.181-4.215a.37.37 0 00-.684.283l.684-.283zm-4.273-3.306a.37.37 0 10.283-.683l-.283.683zm-5.103-1.243a.37.37 0 100 .74v-.74zm-5.131.74a.37.37 0 100-.74v.74zm-5.13-.74a.37.37 0 000 .74v-.74zm-5.131.74a.37.37 0 100-.74v.74zm-5.13-.74a.37.37 0 000 .74v-.74zm-5.13.74a.37.37 0 000-.74v.74zm-5.131-.74a.37.37 0 000 .74v-.74zm-5.13.74a.37.37 0 000-.74v.74zm-5.131-.74a.37.37 0 000 .74v-.74zm-5.13.74a.37.37 0 000-.74v.74zm-5.131-.74a.37.37 0 000 .74v-.74zm-5.13.74a.37.37 0 000-.74v.74zm-5.13-.74a.37.37 0 100 .74v-.74zm-5.131.74a.37.37 0 000-.74v.74zm-5.13-.74a.37.37 0 100 .74v-.74zm-5.131.74a.37.37 0 100-.74v.74zm-5.13-.74a.37.37 0 000 .74v-.74zm-5.131.74a.37.37 0 100-.74v.74zm-5.13-.74a.37.37 0 000 .74v-.74zm-5.13.74a.37.37 0 000-.74v.74zm-5.131-.74a.37.37 0 000 .74v-.74zm-5.13.74a.37.37 0 000-.74v.74zm-5.131-.74a.37.37 0 000 .74v-.74zm-5.13.74a.37.37 0 000-.74v.74zm-5.131-.74a.37.37 0 000 .74v-.74zm-5.13.74a.37.37 0 000-.74v.74zm-5.131-.74a.37.37 0 000 .74v-.74zm-5.13.74a.37.37 0 000-.74v.74zm-5.13-.74a.37.37 0 100 .74v-.74zm-5.131.74a.37.37 0 100-.74v.74zm-5.13-.74a.37.37 0 100 .74v-.74zm-5.131.74a.37.37 0 100-.74v.74zm-5.13-.74a.37.37 0 000 .74v-.74zm-5.131.74a.37.37 0 100-.74v.74zM99 32.63a.37.37 0 100 .74v-.74zm-5.13.74a.37.37 0 100-.74v.74zm-5.13-.74a.37.37 0 100 .74v-.74zm-5.131.74a.37.37 0 100-.74v.74zm-5.13-.74a.37.37 0 100 .74v-.74zm-5.131.74a.37.37 0 100-.74v.74zm-5.13-.74a.37.37 0 100 .74v-.74zm-5.131.74a.37.37 0 100-.74v.74zm-5.13-.74a.37.37 0 100 .74v-.74zm-5.13.74a.37.37 0 100-.74v.74zm-5.131-.74a.37.37 0 100 .74v-.74zm-5.13.74a.37.37 0 100-.74v.74zm-5.387-.18a.37.37 0 10.283.683l-.283-.683zm-3.306 4.272a.37.37 0 00-.683-.283l.683.283zM32.63 40v2.636h.74V40h-.74zm0 7.91v5.272h.74v-5.273h-.74zm0 10.545v5.272h.74v-5.272h-.74zm0 10.545v5.273h.74V69h-.74zm0 10.546v5.272h.74v-5.272h-.74zm0 10.545v5.273h.74V90.09h-.74zm0 10.545v5.273h.74v-5.273h-.74zm0 10.546v5.273h.74v-5.273h-.74zm0 10.545V127h.74v-5.273h-.74zm0 10.546v5.272h.74v-5.272h-.74zm0 10.545v5.273h.74v-5.273h-.74zm0 10.546V156h.74v-2.636h-.74zm0 2.636c0 .999.199 1.952.56 2.821l.683-.283A6.607 6.607 0 0133.37 156h-.74zm4.549 6.811a7.36 7.36 0 002.821.559v-.74c-.9 0-1.757-.179-2.538-.503l-.283.684zm2.821.559h2.565v-.74H40v.74zm7.696 0h5.13v-.74h-5.13v.74zm10.26 0h5.131v-.74h-5.13v.74zm10.261 0h5.13v-.74h-5.13v.74zm10.261 0h5.13v-.74h-5.13v.74zm10.261 0h5.13v-.74h-5.13v.74zm10.261 0h5.13v-.74H99v.74zm10.261 0h5.13v-.74h-5.13v.74zm10.261 0h5.13v-.74h-5.13v.74zm10.261 0h5.13v-.74h-5.13v.74zm10.26 0h5.131v-.74h-5.131v.74zm10.261 0h5.131v-.74h-5.131v.74zm10.261 0h5.131v-.74h-5.131v.74zm10.261 0h5.13v-.74h-5.13v.74zm10.261 0h5.13v-.74h-5.13v.74zm10.261 0h5.13v-.74h-5.13v.74zm10.261 0h5.13v-.74h-5.13v.74zm10.261 0H217v-.74h-5.13v.74zm10.26 0h5.131v-.74h-5.131v.74zm10.261 0h5.131v-.74h-5.131v.74zm10.261 0h5.131v-.74h-5.131v.74zm10.261 0h5.13v-.74h-5.13v.74zm10.261 0h5.13v-.74h-5.13v.74zm10.261 0H276v-.74h-2.565v.74zm2.565 0c.999 0 1.952-.199 2.821-.559l-.283-.684a6.607 6.607 0 01-2.538.503v.74zm6.811-4.549c.36-.869.559-1.822.559-2.821h-.74c0 .9-.179 1.757-.503 2.538l.684.283zm.559-2.821v-1.901h-.74V156h.74zm0-5.703v-1.901h-.74v1.901h.74zm-.325-2.269a50.563 50.563 0 01-2.633-.389l-.127.729c.883.154 1.773.286 2.67.395l.09-.735zm-7.819-1.574a51.236 51.236 0 01-5.034-1.718l-.275.686a51.85 51.85 0 005.107 1.744l.202-.712zm-9.861-3.95a51.784 51.784 0 01-4.571-2.721l-.411.615a52.016 52.016 0 004.637 2.76l.345-.654zm-8.837-5.899a51.699 51.699 0 01-3.916-3.599l-.528.518a52.576 52.576 0 003.972 3.651l.472-.57zm-7.443-7.582a51.709 51.709 0 01-3.098-4.324l-.622.4a52.332 52.332 0 003.142 4.386l.578-.462zm-5.733-8.945a51.354 51.354 0 01-2.142-4.868l-.691.262a51.71 51.71 0 002.172 4.939l.661-.333zm-3.765-9.932a50.917 50.917 0 01-1.088-5.207l-.731.114a51.791 51.791 0 001.104 5.282l.715-.189zm-1.632-10.5a52.175 52.175 0 01-.067-2.66h-.74c0 .905.023 1.805.068 2.698l.739-.037zm-.067-2.66c0-.893.022-1.78.067-2.661l-.739-.038a53.664 53.664 0 00-.068 2.699h.74zm.611-7.954a50.885 50.885 0 011.088-5.206l-.715-.19a51.782 51.782 0 00-1.104 5.283l.731.113zm2.711-10.27a51.372 51.372 0 012.142-4.869l-.661-.333a51.685 51.685 0 00-2.172 4.94l.691.261zm4.777-9.49a51.658 51.658 0 013.098-4.324l-.578-.461a52.184 52.184 0 00-3.142 4.386l.622.4zm6.625-8.306a51.62 51.62 0 013.916-3.6l-.472-.57a52.512 52.512 0 00-3.972 3.652l.528.518zm8.182-6.777a51.467 51.467 0 014.571-2.72l-.345-.655a52.182 52.182 0 00-4.637 2.76l.411.615zm9.398-4.953a51.054 51.054 0 015.034-1.718l-.202-.712a51.793 51.793 0 00-5.107 1.743l.275.687zm10.22-2.904c.87-.151 1.748-.281 2.633-.389l-.09-.734c-.897.109-1.787.24-2.67.394l.127.73zm2.958-.756v-1.394h-.74v1.394h.74zm0-4.182V40h-.74v1.394h.74zm0-1.394a7.36 7.36 0 00-.559-2.821l-.684.283c.324.781.503 1.638.503 2.538h.74zm-4.549-6.81a7.344 7.344 0 00-2.821-.56v.74c.9 0 1.757.179 2.538.503l.283-.683zM276 32.63h-2.565v.74H276v-.74zm-7.696 0h-5.13v.74h5.13v-.74zm-10.261 0h-5.13v.74h5.13v-.74zm-10.26 0h-5.131v.74h5.131v-.74zm-10.261 0h-5.131v.74h5.131v-.74zm-10.261 0h-5.131v.74h5.131v-.74zm-10.261 0h-5.13v.74H217v-.74zm-10.261 0h-5.13v.74h5.13v-.74zm-10.261 0h-5.13v.74h5.13v-.74zm-10.261 0h-5.13v.74h5.13v-.74zm-10.26 0h-5.131v.74h5.131v-.74zm-10.261 0h-5.131v.74h5.131v-.74zm-10.261 0h-5.131v.74h5.131v-.74zm-10.261 0h-5.131v.74h5.131v-.74zm-10.261 0h-5.13v.74h5.13v-.74zm-10.261 0h-5.13v.74h5.13v-.74zm-10.261 0h-5.13v.74h5.13v-.74zm-10.261 0H99v.74h5.13v-.74zm-10.26 0h-5.13v.74h5.13v-.74zm-10.261 0h-5.13v.74h5.13v-.74zm-10.261 0h-5.13v.74h5.13v-.74zm-10.261 0h-5.13v.74h5.13v-.74zm-10.26 0h-5.131v.74h5.13v-.74zm-10.262 0H40v.74h2.565v-.74zm-2.565 0c-.999 0-1.952.199-2.821.56l.283.683A6.608 6.608 0 0140 33.37v-.74zm-6.81 4.549A7.34 7.34 0 0032.63 40h.74c0-.9.179-1.757.503-2.538l-.683-.283z" fill="#E5E5E5"/></g><path d="M332.267 96.577c0 19.649-16.401 35.577-36.633 35.577-20.233 0-36.634-15.928-36.634-35.577C259 76.928 275.401 61 295.634 61c20.232 0 36.633 15.928 36.633 35.577z" fill="url(#paint4_linear)"/><mask id="mask2" maskUnits="userSpaceOnUse" x="259" y="63" width="74" height="72"><ellipse cx="296.366" cy="99.423" rx="36.634" ry="35.577" fill="url(#paint5_linear)"/></mask><g mask="url(#mask2)"><path fill-rule="evenodd" clip-rule="evenodd" d="M296.964 69.622v7.55a.807.807 0 01-.818.796.807.807 0 01-.819-.795v-7.551c0-.44.367-.795.819-.795.452 0 .818.356.818.795zm-.82 32.837c-6.555 0-11.868-5.16-11.868-11.526.007-6.362 5.316-11.519 11.868-11.526 6.555 0 11.869 5.16 11.869 11.526s-5.314 11.526-11.869 11.526zm10.232-11.526c0-5.488-4.581-9.936-10.232-9.936-5.648.006-10.225 4.451-10.231 9.936 0 5.488 4.58 9.937 10.231 9.937s10.232-4.449 10.232-9.937zm-10.444 4.33a.801.801 0 01.28.01c1.012-.035 1.808-.852 1.789-1.835-.018-.983-.844-1.77-1.857-1.77-1.751 0-3.231-1.258-3.464-2.943-.232-1.685.855-3.278 2.544-3.726v-.772c0-.439.366-.795.818-.795.452 0 .818.356.818.795v.724c1.619.331 2.777 1.716 2.779 3.322a.807.807 0 01-.818.795.807.807 0 01-.818-.795c0-.996-.832-1.804-1.859-1.804-1.026 0-1.858.808-1.858 1.804 0 .997.832 1.805 1.858 1.805 1.791 0 3.292 1.315 3.476 3.045.185 1.73-1.007 3.315-2.76 3.671v.747a.807.807 0 01-.818.795.807.807 0 01-.818-.795v-.795c-1.519-.405-2.573-1.744-2.575-3.274 0-.439.367-.795.819-.795.452 0 .818.356.818.795.002.916.709 1.686 1.646 1.792zm16.116 9.156l-6.411 2.942c-.886-1.599-2.584-2.617-4.452-2.668l-5.919-.158a6.397 6.397 0 01-2.69-.674l-.602-.304a10.905 10.905 0 00-9.84.011l.038-1.325a.806.806 0 00-.796-.817l-6.49-.173a.806.806 0 00-.84.772l-.392 13.832a.804.804 0 00.795.816l6.49.174h.023a.808.808 0 00.818-.773l.019-.662 1.686-.877a2.968 2.968 0 012.159-.229l10.068 2.744.011.003.017.004.025.006a11.21 11.21 0 006.775-.745.758.758 0 00.101-.055l14.599-9.17a.782.782 0 00.268-1.059c-1.084-1.867-3.488-2.579-5.46-1.615zm-36.735 10.687l.346-12.242 4.854.129-.347 12.243-4.853-.13zm26.489-.208a9.534 9.534 0 01-5.674.615l-10.042-2.737a4.643 4.643 0 00-3.373.358l-.862.448.231-8.139a9.224 9.224 0 019.139-.474l.603.303a8.078 8.078 0 003.397.852l5.919.158c1.663.047 3.075 1.197 3.412 2.778l-8.816-.236a.81.81 0 00-.841.773.804.804 0 00.795.816l9.73.26h.023a.807.807 0 00.817-.773 4.885 4.885 0 00-.079-1.031l6.576-3.017.019-.009a2.558 2.558 0 012.828.384l-13.802 8.671zm1.299-37.725v-3.577a.807.807 0 00-.819-.795.807.807 0 00-.818.795v3.577c0 .439.367.795.818.795a.807.807 0 00.819-.795zm-12.276-3.577v3.577a.807.807 0 01-.819.795.807.807 0 01-.818-.795v-3.577c0-.439.366-.795.818-.795.452 0 .819.356.819.795z" fill="#fff" style="mix-blend-mode:overlay"/></g><defs><linearGradient id="paint0_linear" x1="295.991" y1="134" x2="295.991" y2="60" gradientUnits="userSpaceOnUse"><stop stop-color="#FCCB05"/><stop offset="1" stop-color="#FFE57D"/></linearGradient><linearGradient id="paint1_linear" x1="295.991" y1="134" x2="295.991" y2="60" gradientUnits="userSpaceOnUse"><stop stop-color="#FCCB05"/><stop offset="1" stop-color="#FFE57D"/></linearGradient><linearGradient id="paint2_linear" x1="294.984" y1="133.978" x2="294.984" y2="59.993" gradientUnits="userSpaceOnUse"><stop stop-color="#FCCB05"/><stop offset="1" stop-color="#FFE57D"/></linearGradient><linearGradient id="paint3_linear" x1="294.991" y1="134" x2="294.991" y2="60" gradientUnits="userSpaceOnUse"><stop stop-color="#FCCB05"/><stop offset="1" stop-color="#FFE57D"/></linearGradient><linearGradient id="paint4_linear" x1="294.635" y1="132.154" x2="294.635" y2="61" gradientUnits="userSpaceOnUse"><stop stop-color="#FCCB05"/><stop offset="1" stop-color="#FFE57D"/></linearGradient><linearGradient id="paint5_linear" x1="295.367" y1="135" x2="295.367" y2="63.846" gradientUnits="userSpaceOnUse"><stop stop-color="#FCCB05"/><stop offset="1" stop-color="#FFE57D"/></linearGradient><filter id="filter0_d" x=".804" y=".804" width="314.391" height="194.391" filterUnits="userSpaceOnUse" color-interpolation-filters="sRGB"><feFlood flood-opacity="0" result="BackgroundImageFix"/><feColorMatrix in="SourceAlpha" values="0 0 0 0 0 0 0 0 0 0 0 0 0 0 0 0 0 0 127 0"/><feOffset/><feGaussianBlur stdDeviation="11.098"/><feColorMatrix values="0 0 0 0 0 0 0 0 0 0 0 0 0 0 0 0 0 0 0.1 0"/><feBlend in2="BackgroundImageFix" result="effect1_dropShadow"/><feBlend in="SourceGraphic" in2="effect1_dropShadow" result="shape"/></filter><filter id="filter1_d" x="10.434" y="10.434" width="295.131" height="175.131" filterUnits="userSpaceOnUse" color-interpolation-filters="sRGB"><feFlood flood-opacity="0" result="BackgroundImageFix"/><feColorMatrix in="SourceAlpha" values="0 0 0 0 0 0 0 0 0 0 0 0 0 0 0 0 0 0 127 0"/><feOffset/><feGaussianBlur stdDeviation="11.098"/><feColorMatrix values="0 0 0 0 0 0 0 0 0 0 0 0 0 0 0 0 0 0 0.1 0"/><feBlend in2="BackgroundImageFix" result="effect1_dropShadow"/><feBlend in="SourceGraphic" in2="effect1_dropShadow" result="shape"/></filter></defs></svg>