<svg width="100" height="100" fill="none" xmlns="http://www.w3.org/2000/svg"><path fill-rule="evenodd" clip-rule="evenodd" d="M91.867 38.788a11.448 11.448 0 003.41 4.012C97.6 44.893 100 47.067 100 50s-2.4 5.107-4.723 7.208a11.458 11.458 0 00-3.41 4.01c-.113 1.85.215 3.701.955 5.4v.001c.933 2.923 1.898 5.945.483 8.39-1.435 2.48-4.563 3.156-7.589 3.809h-.003c-1.81.201-3.547.826-5.071 1.824a11.595 11.595 0 00-1.825 5.075c-.654 3.025-1.334 6.153-3.809 7.588-2.447 1.415-5.461.452-8.38-.48l-.01-.003a11.777 11.777 0 00-5.398-.955 11.448 11.448 0 00-4.012 3.41C55.107 97.6 52.933 100 50 100s-5.107-2.4-7.208-4.723a11.458 11.458 0 00-4.01-3.41c-1.85-.111-3.7.216-5.4.955l-.006.001c-2.923.933-5.94 1.896-8.384.482-2.481-1.435-3.157-4.563-3.81-7.589v-.003a11.597 11.597 0 00-1.824-5.071 11.595 11.595 0 00-5.075-1.825c-3.025-.654-6.153-1.334-7.588-3.809-1.414-2.445-.45-5.464.482-8.386l.001-.004a11.747 11.747 0 00.955-5.398 11.449 11.449 0 00-3.41-4.012C2.4 55.107 0 52.933 0 50s2.4-5.107 4.723-7.208a11.458 11.458 0 003.41-4.01 11.734 11.734 0 00-.955-5.4v-.001c-.933-2.923-1.898-5.945-.483-8.39 1.435-2.48 4.563-3.156 7.589-3.809h.003a11.597 11.597 0 005.071-1.824 11.596 11.596 0 001.834-5.075c.653-3.025 1.333-6.153 3.808-7.588 2.444-1.414 5.458-.452 8.373.478l.017.005a11.77 11.77 0 005.398.955 11.449 11.449 0 004.012-3.41C44.893 2.4 47.067 0 50 0s5.107 2.4 7.208 4.723a11.458 11.458 0 004.01 3.41c1.85.111 3.7-.216 5.4-.955l.006-.001c2.923-.933 5.94-1.896 8.384-.482 2.481 1.435 3.157 4.563 3.81 7.589v.003c.201 1.81.826 3.547 1.824 5.071a11.596 11.596 0 005.075 1.834c3.025.653 6.153 1.333 7.588 3.808 1.414 2.446.45 5.464-.482 8.387l-.001.003a11.748 11.748 0 00-.955 5.398zm-3.22 21.57a13.166 13.166 0 014.393-5.62l.004-.003c1.782-1.614 3.623-3.281 3.623-4.735 0-1.454-1.841-3.121-3.623-4.735l-.004-.003a13.153 13.153 0 01-4.393-5.622 13.54 13.54 0 011-7.272c.713-2.231 1.448-4.54.773-5.708-.694-1.2-3.087-1.717-5.4-2.217l-.007-.001a13.377 13.377 0 01-6.728-2.727c-1.623-1.62-2.183-4.215-2.725-6.725v-.004c-.5-2.315-1.017-4.71-2.222-5.408-1.166-.666-3.471.062-5.706.775a13.563 13.563 0 01-7.274 1 13.166 13.166 0 01-5.62-4.393l-.003-.004C53.121 5.174 51.454 3.333 50 3.333c-1.454 0-3.121 1.841-4.735 3.623l-.003.004a13.153 13.153 0 01-5.622 4.393c-2.247.604-4.803-.21-7.272-1l-.023-.007c-2.225-.711-4.516-1.444-5.678-.766-1.2.694-1.718 3.087-2.217 5.4l-.002.007a13.377 13.377 0 01-2.726 6.728c-1.62 1.623-4.215 2.183-6.725 2.725h-.004c-2.316.5-4.71 1.017-5.408 2.222-.667 1.166.062 3.475.775 5.706a13.543 13.543 0 011 7.274 13.167 13.167 0 01-4.393 5.62C5.177 46.877 3.333 48.545 3.333 50c0 1.454 1.841 3.121 3.623 4.735l.004.003a13.153 13.153 0 014.393 5.622 13.54 13.54 0 01-1 7.272c-.713 2.231-1.448 4.535-.773 5.701.694 1.2 3.087 1.718 5.4 2.217l.007.002a13.377 13.377 0 016.728 2.726c1.623 1.62 2.183 4.215 2.725 6.725v.004c.5 2.316 1.017 4.71 2.222 5.408 1.166.667 3.47-.062 5.706-.775a19.235 19.235 0 015.584-1.203 6.572 6.572 0 011.69.21 13.177 13.177 0 015.62 4.393l.003.004c1.614 1.782 3.281 3.623 4.735 3.623 1.454 0 3.121-1.841 4.735-3.623l.003-.004a13.153 13.153 0 015.622-4.393 13.57 13.57 0 017.272 1h.003c2.23.712 4.534 1.448 5.705.773 1.2-.694 1.717-3.087 2.217-5.4l.001-.007a13.377 13.377 0 012.727-6.728c1.62-1.623 4.215-2.183 6.725-2.725h.004c2.315-.5 4.71-1.017 5.408-2.222.666-1.166-.062-3.475-.775-5.706a13.543 13.543 0 01-1-7.274zm-36.98-42.025a1.667 1.667 0 01-3.334 0V15a1.667 1.667 0 013.334 0v3.333zm-11.474 1.51a1.667 1.667 0 003.222-.861l-.863-3.22a1.667 1.667 0 10-3.218.864l.86 3.217zm-6.26-1.002l.004.005.005.009 1.666 2.888a1.667 1.667 0 01-2.886 1.667l-1.667-2.889a1.667 1.667 0 112.876-1.685l.003.005zm-7.503 9.946a1.666 1.666 0 102.357-2.357l-2.359-2.358a1.667 1.667 0 10-2.357 2.357l2.36 2.358zm-2.358 44.785l2.358-2.359a1.666 1.666 0 012.357 2.357l-2.359 2.358a1.666 1.666 0 11-2.356-2.356zm10.934 2.423a1.667 1.667 0 00-2.281.595l-1.667 2.888a1.667 1.667 0 102.887 1.667l1.667-2.888c.45-.793.18-1.8-.606-2.262zm5.187 4.162a1.667 1.667 0 013.22.861l-.863 3.22a1.667 1.667 0 11-3.218-.863l.861-3.218zM50 80c-.92 0-1.667.746-1.667 1.667V85a1.667 1.667 0 003.334 0v-3.333c0-.92-.747-1.667-1.667-1.667zm7.776-1.017a1.667 1.667 0 012.03 1.174l.862 3.218a1.667 1.667 0 01-3.218.863l-.863-3.22a1.667 1.667 0 011.189-2.035zm9.5-2.393l-.012-.02a1.667 1.667 0 10-2.876 1.687l1.667 2.888a1.666 1.666 0 102.887-1.666l-1.667-2.889zm3.978-5.377a1.667 1.667 0 012.316 0l2.358 2.359a1.667 1.667 0 01-2.356 2.356l-2.359-2.358a1.667 1.667 0 01.041-2.357zm1.138-41.938c.442 0 .865-.176 1.178-.488l2.358-2.359a1.667 1.667 0 10-2.357-2.357l-2.358 2.36a1.667 1.667 0 001.179 2.844zm-5.114-5.865a1.666 1.666 0 11-2.886-1.666l1.666-2.889a1.667 1.667 0 012.898 1.647l-.011.02-1.667 2.888zm-9.513-2.388a1.667 1.667 0 002.042-1.178l.861-3.219.024-.087a1.666 1.666 0 10-3.242-.776l-.863 3.22a1.667 1.667 0 001.178 2.04zM43.333 60H55a1.667 1.667 0 010 3.333H41.667c-.92 0-1.667-.746-1.667-1.666V38.333c0-.92.746-1.666 1.667-1.666H55A1.667 1.667 0 0155 40H43.333v8.333h8.334a1.667 1.667 0 010 3.334h-8.334V60zm-11.268 2.707c.116.139.254.258.408.351.054.04.11.076.167.109.216.106.453.163.693.166a1.67 1.67 0 00.58-.116c.063-.028.124-.058.184-.092.07-.03.137-.064.203-.103a.228.228 0 00.05-.053.324.324 0 01.038-.042c.089-.076.169-.16.239-.254a1.31 1.31 0 00.278-.545 1.71 1.71 0 00.067-.333c0-.023.006-.045.013-.067a.224.224 0 00.013-.066V38.333a1.667 1.667 0 10-3.331 0v18.134L18.022 37.365a.235.235 0 00-.053-.05.324.324 0 01-.042-.038 1.555 1.555 0 00-.254-.239 1.672 1.672 0 00-.251-.166 1.718 1.718 0 00-.29-.109 1.534 1.534 0 00-.334-.066c-.022 0-.043-.007-.064-.014-.02-.006-.042-.013-.066-.013-.056.008-.112.02-.166.035-.113.01-.225.031-.334.065a1.688 1.688 0 00-.311.14 1.688 1.688 0 00-.157.072.233.233 0 00-.051.052.3.3 0 01-.037.043c-.089.075-.169.16-.239.253a1.632 1.632 0 00-.166.25 1.59 1.59 0 00-.11.295c-.034.108-.056.22-.067.333 0 .024-.007.045-.013.067-.007.022-.014.043-.014.067v23.325a1.667 1.667 0 003.334 0V43.533l13.645 19.102a.143.143 0 00.045.04.2.2 0 01.038.032zm51.618-26.004l.005.001c.9.196 1.47 1.083 1.275 1.983l-5 23.333a1.666 1.666 0 01-1.536 1.313h-.094c-.717 0-1.353-.46-1.58-1.14l-5.086-15.256-5.094 15.256a1.68 1.68 0 01-1.666 1.137 1.666 1.666 0 01-1.537-1.313l-5-23.334a1.667 1.667 0 113.26-.7l3.72 17.364 4.73-14.207a1.667 1.667 0 013.167 0l4.736 14.207 3.72-17.364a1.667 1.667 0 011.98-1.28z" fill="#fff" style="mix-blend-mode:overlay"/></svg>