<svg width="333" height="196" fill="none" xmlns="http://www.w3.org/2000/svg"><path d="M332.986 96.986c0 20.43-16.563 36.992-36.993 36.992-20.431 0-36.993-16.562-36.993-36.993 0-20.43 16.562-36.992 36.993-36.992 20.43 0 36.993 16.562 36.993 36.992z" fill="url(#paint0_linear)"/><mask id="mask0" maskUnits="userSpaceOnUse" x="259" y="60" width="74" height="74"><circle cx="296" cy="97" r="37" fill="url(#paint1_linear)"/></mask><g mask="url(#mask0)"><path fill-rule="evenodd" clip-rule="evenodd" d="M282.079 74.964a1.249 1.249 0 01-1.173-1.672l1.093-2.997c-2.228.135-4.426.52-6.553 1.142l-.144 4.137a1.247 1.247 0 01-1.245 1.202h-.044a1.247 1.247 0 01-1.204-1.288l.11-3.188a29.765 29.765 0 00-5.88 3.108l1.144 3.979a1.242 1.242 0 01-.855 1.54 1.249 1.249 0 01-1.549-.853l-.877-3.064a29.666 29.666 0 00-4.628 4.767l2.32 3.432a1.242 1.242 0 01-.392 1.764 1.25 1.25 0 01-1.678-.37l-1.787-2.643a29.63 29.63 0 00-2.926 5.96l3.268 2.546a1.247 1.247 0 01.412 1.387 1.246 1.246 0 01-1.947.576l-2.518-1.962a29.636 29.636 0 00-.939 6.578l3.898 1.415a1.242 1.242 0 01.807 1.388 1.249 1.249 0 01-1.659.954l-3.004-1.09a29.544 29.544 0 001.144 6.542l4.144.143a1.249 1.249 0 011.227 1.267 1.245 1.245 0 01-1.269 1.224h-.044l-3.193-.11a29.582 29.582 0 003.113 5.868l3.984-1.142a1.25 1.25 0 011.544.855 1.246 1.246 0 01-.856 1.54l-3.069.879a29.731 29.731 0 004.778 4.622l3.439-2.316a1.262 1.262 0 01.936-.19 1.236 1.236 0 01.797.526 1.242 1.242 0 01-.336 1.729l-2.65 1.785a29.687 29.687 0 005.977 2.923l2.55-3.265a1.251 1.251 0 011.74-.201 1.243 1.243 0 01.227 1.734l-1.966 2.515a29.762 29.762 0 006.587.936l1.417-3.892a1.252 1.252 0 012.029-.511 1.246 1.246 0 01.316 1.364l-1.092 2.997a29.723 29.723 0 006.554-1.142l.143-4.132a1.268 1.268 0 011.289-1.202 1.25 1.25 0 011.205 1.288l-.11 3.183a29.793 29.793 0 005.881-3.108l-1.145-3.98a1.25 1.25 0 011.339-1.602 1.265 1.265 0 01.84.474c.102.131.176.281.219.44l.881 3.068a29.669 29.669 0 004.632-4.771l-2.32-3.432a1.24 1.24 0 01.336-1.729 1.249 1.249 0 011.733.335l1.787 2.645a29.702 29.702 0 002.927-5.965l-3.27-2.547a1.237 1.237 0 01-.216-1.748 1.252 1.252 0 011.317-.434c.158.043.306.118.435.218l2.519 1.963c.555-2.14.872-4.345.937-6.574l-3.899-1.416a1.248 1.248 0 01-.723-1.588 1.248 1.248 0 011.577-.752l3.001 1.088a29.66 29.66 0 00-1.15-6.54l-4.135-.143a1.25 1.25 0 01-1.206-1.288 1.25 1.25 0 011.291-1.204l3.182.11a29.7 29.7 0 00-3.116-5.865l-3.971 1.14a1.246 1.246 0 11-.69-2.394l3.057-.877a29.776 29.776 0 00-4.776-4.618l-3.425 2.312a1.25 1.25 0 01-1.89-.67 1.245 1.245 0 01.493-1.397l2.637-1.778a29.762 29.762 0 00-5.969-2.921l-2.546 3.253a1.254 1.254 0 01-.985.48 1.253 1.253 0 01-1.121-.7 1.252 1.252 0 01.139-1.312l1.962-2.507a29.797 29.797 0 00-6.584-.941l-1.417 3.884a1.24 1.24 0 01-1.173.826zm11.408-5.728a32.273 32.273 0 00-9.389-1.486 1.256 1.256 0 00-.571 0 32.276 32.276 0 00-18.474 6.004 1.27 1.27 0 00-.37.268 32.109 32.109 0 00-6.92 6.944 32.18 32.18 0 00-4.507 8.705 1.258 1.258 0 00-.187.575 32.1 32.1 0 00.962 21.978 32.148 32.148 0 003.652 6.529c.029.046.061.09.096.132a32.195 32.195 0 007.036 7.019l.037.028.052.036a32.252 32.252 0 008.839 4.505c.067.028.136.051.207.067a32.244 32.244 0 009.827 1.54l.026.001.025-.001a32.297 32.297 0 009.752-1.526 1.26 1.26 0 00.35-.114 32.291 32.291 0 008.62-4.383c.135-.064.257-.153.36-.261a32.225 32.225 0 006.833-6.825c.088-.088.162-.188.221-.298l.01-.02a32.143 32.143 0 004.418-8.661 1.21 1.21 0 00.093-.283 32.155 32.155 0 001.54-9.688 1.25 1.25 0 000-.212 32.127 32.127 0 00-1.503-9.603 1.254 1.254 0 00-.147-.45 32.137 32.137 0 00-4.315-8.486 1.26 1.26 0 00-.365-.502 32.208 32.208 0 00-6.73-6.713 1.263 1.263 0 00-.432-.313 32.197 32.197 0 00-8.477-4.32 1.23 1.23 0 00-.569-.186zm5.74 41.677c.192.114.412.174.635.174a1.247 1.247 0 001.055-.573 19.264 19.264 0 001.842-3.759 1.245 1.245 0 00-1.703-1.553c-.3.14-.532.393-.644.704a16.662 16.662 0 01-1.602 3.267 1.24 1.24 0 00-.041 1.268c.108.195.266.358.458.472zm-15.512 9.119h-.007a20.182 20.182 0 01-11.162-3.429 20.128 20.128 0 01-7.383-9.034 20.08 20.08 0 01-1.124-11.603 20.11 20.11 0 015.511-10.279 20.166 20.166 0 0110.297-5.501 20.19 20.19 0 0111.625 1.122 20.143 20.143 0 019.049 7.37 20.096 20.096 0 013.436 11.142 1.246 1.246 0 01-1.242 1.246h-.006a1.25 1.25 0 01-1.248-1.24 17.606 17.606 0 00-3.013-9.761 17.649 17.649 0 00-7.93-6.454 17.688 17.688 0 00-19.205 3.84 17.599 17.599 0 00-3.841 19.172 17.643 17.643 0 006.469 7.914 17.689 17.689 0 009.78 3.004 1.249 1.249 0 011.245 1.249 1.245 1.245 0 01-1.251 1.242zm5.713-1.413a1.247 1.247 0 001.226.217 19.614 19.614 0 003.677-1.781 1.246 1.246 0 10-1.316-2.118 17.108 17.108 0 01-3.21 1.557 1.248 1.248 0 00-.804 1.386c.051.289.202.55.427.739zm-5.626-13.393a5.334 5.334 0 01-2.957-.895 5.31 5.31 0 011.917-9.627 5.33 5.33 0 015.463 2.258 5.304 5.304 0 01-.663 6.706 5.332 5.332 0 01-3.76 1.558zm0-8.132a2.826 2.826 0 00-2.773 3.371 2.821 2.821 0 003.853 2.055 2.814 2.814 0 001.744-2.607 2.822 2.822 0 00-2.824-2.819zm-2.028-5.143a3.654 3.654 0 004.604-.457 3.637 3.637 0 00-1.185-5.937 3.653 3.653 0 00-3.976.791 3.637 3.637 0 00.557 5.603zm1.388-3.985a1.152 1.152 0 011.598 1.594 1.156 1.156 0 01-1.773.175 1.154 1.154 0 01-.249-1.253c.087-.21.235-.39.424-.516zm-9.838 12.192a3.654 3.654 0 01-2.948-1.503 3.64 3.64 0 012.383-5.734 3.653 3.653 0 013.522 1.458 3.637 3.637 0 01-2.957 5.779zm-1.091-3.996a1.152 1.152 0 102.122-.167 1.152 1.152 0 00-2.122.167zm2.952 15.591c.62.453 1.368.697 2.136.696a3.663 3.663 0 002.958-1.502 3.637 3.637 0 00-1.424-5.447 3.648 3.648 0 00-5.074 2.457 3.63 3.63 0 001.404 3.796zm1.474-3.877a1.155 1.155 0 011.609.256 1.155 1.155 0 01.162 1.031 1.16 1.16 0 01-.739.738 1.159 1.159 0 01-1.033-.164 1.151 1.151 0 01-.418-1.286c.075-.231.222-.433.419-.575zm13.622 4.573a3.648 3.648 0 01-3.61-3.065 3.64 3.64 0 012.471-4.037 3.654 3.654 0 014.38 1.806 3.636 3.636 0 01-1.103 4.6 3.619 3.619 0 01-2.138.696zm-.005-4.79a1.15 1.15 0 00-.931 1.825 1.153 1.153 0 001.61.249c.196-.143.343-.345.418-.576a1.149 1.149 0 00-1.097-1.503v.005zm2.088-8.036a3.657 3.657 0 001.906.538 3.656 3.656 0 003.605-3.073 3.637 3.637 0 00-.131-1.695 3.646 3.646 0 00-2.899-2.472 3.656 3.656 0 00-3.523 1.455 3.642 3.642 0 001.042 5.247zm1.549-4.2a1.156 1.156 0 011.451.739 1.15 1.15 0 01-1.619 1.38 1.155 1.155 0 01-.625-1.115 1.15 1.15 0 01.793-1.003zm-25.797 46.147h-14.751a1.246 1.246 0 110-2.491h14.751a1.246 1.246 0 110 2.491zm-24.779 0h2.359a1.246 1.246 0 100-2.491h-2.359a1.246 1.246 0 100 2.491zm10.127-16.48h-13.52a1.249 1.249 0 01-1.248-1.246 1.249 1.249 0 011.248-1.245h13.52a1.249 1.249 0 011.248 1.245 1.242 1.242 0 01-1.248 1.246zm-23.55 0h2.359a1.249 1.249 0 001.248-1.246 1.249 1.249 0 00-1.248-1.245h-2.359a1.249 1.249 0 00-1.248 1.245 1.242 1.242 0 001.248 1.246zm30.652 8.236h-14.751a1.246 1.246 0 110-2.491h14.751a1.249 1.249 0 011.248 1.245 1.242 1.242 0 01-1.248 1.246zm-24.781 0h2.365a1.246 1.246 0 100-2.491h-2.365a1.246 1.246 0 100 2.491z" fill="#fff" style="mix-blend-mode:overlay"/></g><g filter="url(#filter0_d)"><path fill-rule="evenodd" clip-rule="evenodd" d="M30.399 23A7.399 7.399 0 0023 30.399V165.6a7.398 7.398 0 007.399 7.4H285.6a7.398 7.398 0 007.399-7.399v-22.603l-.438.002c-25.563 0-46.286-20.147-46.286-45s20.723-45 46.286-45c.146 0 .292 0 .438.002V30.399A7.398 7.398 0 00285.601 23H30.399z" fill="#fff"/></g><g filter="url(#filter1_d)"><path d="M283 148.396h.37v-.328l-.325-.04-.045.368zm0-102.82l.045.367.325-.04v-.327H283zm-250.37-2.94a.37.37 0 10.74 0h-.74zm.74 5.273a.37.37 0 10-.74 0h.74zm-.74 5.273a.37.37 0 10.74 0h-.74zm.74 5.273a.37.37 0 10-.74 0h.74zm-.74 5.272a.37.37 0 10.74 0h-.74zM33.37 69a.37.37 0 10-.74 0h.74zm-.74 5.273a.37.37 0 10.74 0h-.74zm.74 5.273a.37.37 0 10-.74 0h.74zm-.74 5.272a.37.37 0 10.74 0h-.74zm.74 5.273a.37.37 0 10-.74 0h.74zm-.74 5.273a.37.37 0 10.74 0h-.74zm.74 5.272a.37.37 0 00-.74 0h.74zm-.74 5.273a.37.37 0 00.74 0h-.74zm.74 5.273a.37.37 0 00-.74 0h.74zm-.74 5.273a.37.37 0 00.74 0h-.74zm.74 5.272a.37.37 0 00-.74 0h.74zM32.63 127a.37.37 0 00.74 0h-.74zm.74 5.273a.37.37 0 10-.74 0h.74zm-.74 5.272a.37.37 0 10.74 0h-.74zm.74 5.273a.37.37 0 00-.74 0h.74zm-.74 5.273a.37.37 0 00.74 0h-.74zm.74 5.273a.37.37 0 10-.74 0h.74zm-.18 5.457a.37.37 0 00.683-.283l-.683.283zm4.272 3.306a.37.37 0 10-.283.684l.283-.684zm5.103 1.243a.37.37 0 000-.74v.74zm5.13-.74a.37.37 0 000 .74v-.74zm5.131.74a.37.37 0 000-.74v.74zm5.13-.74a.37.37 0 000 .74v-.74zm5.131.74a.37.37 0 000-.74v.74zm5.13-.74a.37.37 0 000 .74v-.74zm5.13.74a.37.37 0 000-.74v.74zm5.131-.74a.37.37 0 000 .74v-.74zm5.13.74a.37.37 0 000-.74v.74zm5.131-.74a.37.37 0 000 .74v-.74zm5.13.74a.37.37 0 000-.74v.74zm5.131-.74a.37.37 0 000 .74v-.74zm5.13.74a.37.37 0 100-.74v.74zm5.131-.74a.37.37 0 000 .74v-.74zm5.13.74a.37.37 0 100-.74v.74zm5.131-.74a.37.37 0 100 .74v-.74zm5.13.74a.37.37 0 000-.74v.74zm5.131-.74a.37.37 0 100 .74v-.74zm5.13.74a.37.37 0 000-.74v.74zm5.13-.74a.37.37 0 000 .74v-.74zm5.131.74a.37.37 0 000-.74v.74zm5.13-.74a.37.37 0 000 .74v-.74zm5.131.74a.37.37 0 000-.74v.74zm5.13-.74a.37.37 0 000 .74v-.74zm5.131.74a.37.37 0 000-.74v.74zm5.13-.74a.37.37 0 000 .74v-.74zm5.131.74a.37.37 0 000-.74v.74zm5.13-.74a.37.37 0 000 .74v-.74zm5.13.74a.37.37 0 100-.74v.74zm5.131-.74a.37.37 0 100 .74v-.74zm5.13.74a.37.37 0 100-.74v.74zm5.131-.74a.37.37 0 100 .74v-.74zm5.13.74a.37.37 0 000-.74v.74zm5.131-.74a.37.37 0 100 .74v-.74zm5.13.74a.37.37 0 000-.74v.74zm5.13-.74a.37.37 0 000 .74v-.74zm5.131.74a.37.37 0 000-.74v.74zm5.13-.74a.37.37 0 000 .74v-.74zm5.131.74a.37.37 0 000-.74v.74zm5.13-.74a.37.37 0 000 .74v-.74zm5.131.74a.37.37 0 000-.74v.74zm5.13-.74a.37.37 0 000 .74v-.74zm5.13.74a.37.37 0 100-.74v.74zm5.131-.74a.37.37 0 000 .74v-.74zm5.13.74a.37.37 0 100-.74v.74zm5.131-.74a.37.37 0 100 .74v-.74zm5.386.181a.37.37 0 00-.283-.684l.283.684zm3.306-4.273a.37.37 0 10.684.283l-.684-.283zm1.243-4.439a.37.37 0 00-.74 0h.74zm-.74-3.802a.37.37 0 00.74 0h-.74zm-2.218-2.658a.37.37 0 00-.127.729l.127-.729zm-5.388-.473a.372.372 0 00.457-.255.371.371 0 00-.255-.457l-.202.712zm-4.832-2.43a.37.37 0 00-.275.686l.275-.686zm-5.172-1.578a.37.37 0 00.345-.654l-.345.654zm-4.226-3.375a.37.37 0 10-.411.615l.411-.615zm-4.738-2.608a.37.37 0 00.472-.57l-.472.57zm-3.444-4.169a.37.37 0 10-.528.518l.528-.518zm-4.105-3.521a.37.37 0 10.578-.462l-.578.462zm-2.52-4.786a.369.369 0 10-.622.4l.622-.4zm-3.296-4.288a.37.37 0 10.661-.333l-.661.333zm-1.481-5.201a.37.37 0 00-.691.262l.691-.262zm-2.338-4.875a.37.37 0 00.715-.189l-.715.189zm-.373-5.396a.37.37 0 00-.731.114l.731-.114zm-1.283-5.255a.372.372 0 00.389.351.369.369 0 00.35-.388l-.739.037zm.739-5.36a.37.37 0 10-.739-.037l.739.038zm-.187-5.405a.37.37 0 10.731.113l-.731-.113zm1.819-5.093a.37.37 0 00-.715-.19l.715.19zm.932-5.327a.37.37 0 10.691.263l-.691-.263zm2.833-4.606a.37.37 0 10-.661-.333l.661.333zm2.013-5.02a.369.369 0 10.622.4l-.622-.4zm3.72-3.925a.37.37 0 10-.578-.461l.578.461zm2.999-4.5a.37.37 0 00.528.518l-.528-.518zm4.444-3.081a.37.37 0 00-.472-.57l.472.57zm3.855-3.793a.37.37 0 00.411.615l-.411-.615zm4.982-2.106a.37.37 0 10-.345-.654l.345.654zm4.552-2.919a.37.37 0 00.275.687l-.275-.687zm5.309-1.031a.37.37 0 00-.202-.712l.202.712zm5.059-1.915a.37.37 0 10.127.73l-.127-.73zm3.085-1.421a.37.37 0 00-.74 0h.74zm-.74-2.788a.37.37 0 00.74 0h-.74zm.181-4.215a.37.37 0 00-.684.283l.684-.283zm-4.273-3.306a.37.37 0 10.283-.683l-.283.683zm-5.103-1.243a.37.37 0 100 .74v-.74zm-5.131.74a.37.37 0 100-.74v.74zm-5.13-.74a.37.37 0 000 .74v-.74zm-5.131.74a.37.37 0 100-.74v.74zm-5.13-.74a.37.37 0 000 .74v-.74zm-5.13.74a.37.37 0 000-.74v.74zm-5.131-.74a.37.37 0 000 .74v-.74zm-5.13.74a.37.37 0 000-.74v.74zm-5.131-.74a.37.37 0 000 .74v-.74zm-5.13.74a.37.37 0 000-.74v.74zm-5.131-.74a.37.37 0 000 .74v-.74zm-5.13.74a.37.37 0 000-.74v.74zm-5.13-.74a.37.37 0 100 .74v-.74zm-5.131.74a.37.37 0 000-.74v.74zm-5.13-.74a.37.37 0 100 .74v-.74zm-5.131.74a.37.37 0 100-.74v.74zm-5.13-.74a.37.37 0 000 .74v-.74zm-5.131.74a.37.37 0 100-.74v.74zm-5.13-.74a.37.37 0 000 .74v-.74zm-5.13.74a.37.37 0 000-.74v.74zm-5.131-.74a.37.37 0 000 .74v-.74zm-5.13.74a.37.37 0 000-.74v.74zm-5.131-.74a.37.37 0 000 .74v-.74zm-5.13.74a.37.37 0 000-.74v.74zm-5.131-.74a.37.37 0 000 .74v-.74zm-5.13.74a.37.37 0 000-.74v.74zm-5.131-.74a.37.37 0 000 .74v-.74zm-5.13.74a.37.37 0 000-.74v.74zm-5.13-.74a.37.37 0 100 .74v-.74zm-5.131.74a.37.37 0 100-.74v.74zm-5.13-.74a.37.37 0 100 .74v-.74zm-5.131.74a.37.37 0 100-.74v.74zm-5.13-.74a.37.37 0 000 .74v-.74zm-5.131.74a.37.37 0 100-.74v.74zM99 32.63a.37.37 0 100 .74v-.74zm-5.13.74a.37.37 0 100-.74v.74zm-5.13-.74a.37.37 0 100 .74v-.74zm-5.131.74a.37.37 0 100-.74v.74zm-5.13-.74a.37.37 0 100 .74v-.74zm-5.131.74a.37.37 0 100-.74v.74zm-5.13-.74a.37.37 0 100 .74v-.74zm-5.131.74a.37.37 0 100-.74v.74zm-5.13-.74a.37.37 0 100 .74v-.74zm-5.13.74a.37.37 0 100-.74v.74zm-5.131-.74a.37.37 0 100 .74v-.74zm-5.13.74a.37.37 0 100-.74v.74zm-5.387-.18a.37.37 0 10.283.683l-.283-.683zm-3.306 4.272a.37.37 0 00-.683-.283l.683.283zM32.63 40v2.636h.74V40h-.74zm0 7.91v5.272h.74v-5.273h-.74zm0 10.545v5.272h.74v-5.272h-.74zm0 10.545v5.273h.74V69h-.74zm0 10.546v5.272h.74v-5.272h-.74zm0 10.545v5.273h.74V90.09h-.74zm0 10.545v5.273h.74v-5.273h-.74zm0 10.546v5.273h.74v-5.273h-.74zm0 10.545V127h.74v-5.273h-.74zm0 10.546v5.272h.74v-5.272h-.74zm0 10.545v5.273h.74v-5.273h-.74zm0 10.546V156h.74v-2.636h-.74zm0 2.636c0 .999.199 1.952.56 2.821l.683-.283A6.607 6.607 0 0133.37 156h-.74zm4.549 6.811a7.36 7.36 0 002.821.559v-.74c-.9 0-1.757-.179-2.538-.503l-.283.684zm2.821.559h2.565v-.74H40v.74zm7.696 0h5.13v-.74h-5.13v.74zm10.26 0h5.131v-.74h-5.13v.74zm10.261 0h5.13v-.74h-5.13v.74zm10.261 0h5.13v-.74h-5.13v.74zm10.261 0h5.13v-.74h-5.13v.74zm10.261 0h5.13v-.74H99v.74zm10.261 0h5.13v-.74h-5.13v.74zm10.261 0h5.13v-.74h-5.13v.74zm10.261 0h5.13v-.74h-5.13v.74zm10.26 0h5.131v-.74h-5.131v.74zm10.261 0h5.131v-.74h-5.131v.74zm10.261 0h5.131v-.74h-5.131v.74zm10.261 0h5.131v-.74h-5.131v.74zm10.261 0h5.13v-.74h-5.13v.74zm10.261 0h5.13v-.74h-5.13v.74zm10.261 0h5.13v-.74h-5.13v.74zm10.261 0H217v-.74h-5.13v.74zm10.26 0h5.131v-.74h-5.131v.74zm10.261 0h5.131v-.74h-5.131v.74zm10.261 0h5.131v-.74h-5.131v.74zm10.261 0h5.13v-.74h-5.13v.74zm10.261 0h5.13v-.74h-5.13v.74zm10.261 0H276v-.74h-2.565v.74zm2.565 0c.999 0 1.952-.199 2.821-.559l-.283-.684a6.607 6.607 0 01-2.538.503v.74zm6.811-4.549c.36-.869.559-1.822.559-2.821h-.74c0 .9-.179 1.757-.503 2.538l.684.283zm.559-2.821v-1.901h-.74V156h.74zm0-5.703v-1.901h-.74v1.901h.74zm-.325-2.269a50.563 50.563 0 01-2.633-.389l-.127.729c.883.154 1.773.286 2.67.395l.09-.735zm-7.819-1.574a51.236 51.236 0 01-5.034-1.718l-.275.686a51.85 51.85 0 005.107 1.744l.202-.712zm-9.861-3.95a51.784 51.784 0 01-4.571-2.721l-.411.615a52.016 52.016 0 004.637 2.76l.345-.654zm-8.837-5.899a51.699 51.699 0 01-3.916-3.599l-.528.518a52.576 52.576 0 003.972 3.651l.472-.57zm-7.443-7.582a51.709 51.709 0 01-3.098-4.324l-.622.4a52.332 52.332 0 003.142 4.386l.578-.462zm-5.733-8.945a51.354 51.354 0 01-2.142-4.868l-.691.262a51.71 51.71 0 002.172 4.939l.661-.333zm-3.765-9.932a50.917 50.917 0 01-1.088-5.207l-.731.114a51.791 51.791 0 001.104 5.282l.715-.189zm-1.632-10.5a52.175 52.175 0 01-.067-2.66h-.74c0 .905.023 1.805.068 2.698l.739-.037zm-.067-2.66c0-.893.022-1.78.067-2.661l-.739-.038a53.664 53.664 0 00-.068 2.699h.74zm.611-7.954a50.885 50.885 0 011.088-5.206l-.715-.19a51.782 51.782 0 00-1.104 5.283l.731.113zm2.711-10.27a51.372 51.372 0 012.142-4.869l-.661-.333a51.685 51.685 0 00-2.172 4.94l.691.261zm4.777-9.49a51.658 51.658 0 013.098-4.324l-.578-.461a52.184 52.184 0 00-3.142 4.386l.622.4zm6.625-8.306a51.62 51.62 0 013.916-3.6l-.472-.57a52.512 52.512 0 00-3.972 3.652l.528.518zm8.182-6.777a51.467 51.467 0 014.571-2.72l-.345-.655a52.326 52.326 0 00-4.637 2.76l.411.615zm9.398-4.953a51.054 51.054 0 015.034-1.718l-.202-.712a51.793 51.793 0 00-5.107 1.743l.275.687zm10.22-2.904c.87-.151 1.748-.281 2.633-.389l-.09-.734c-.897.109-1.787.24-2.67.394l.127.73zm2.958-.756v-1.394h-.74v1.394h.74zm0-4.182V40h-.74v1.394h.74zm0-1.394a7.36 7.36 0 00-.559-2.821l-.684.283c.324.781.503 1.638.503 2.538h.74zm-4.549-6.81a7.344 7.344 0 00-2.821-.56v.74c.9 0 1.757.179 2.538.503l.283-.683zM276 32.63h-2.565v.74H276v-.74zm-7.696 0h-5.13v.74h5.13v-.74zm-10.261 0h-5.13v.74h5.13v-.74zm-10.26 0h-5.131v.74h5.131v-.74zm-10.261 0h-5.131v.74h5.131v-.74zm-10.261 0h-5.131v.74h5.131v-.74zm-10.261 0h-5.13v.74H217v-.74zm-10.261 0h-5.13v.74h5.13v-.74zm-10.261 0h-5.13v.74h5.13v-.74zm-10.261 0h-5.13v.74h5.13v-.74zm-10.26 0h-5.131v.74h5.131v-.74zm-10.261 0h-5.131v.74h5.131v-.74zm-10.261 0h-5.131v.74h5.131v-.74zm-10.261 0h-5.131v.74h5.131v-.74zm-10.261 0h-5.13v.74h5.13v-.74zm-10.261 0h-5.13v.74h5.13v-.74zm-10.261 0h-5.13v.74h5.13v-.74zm-10.261 0H99v.74h5.13v-.74zm-10.26 0h-5.13v.74h5.13v-.74zm-10.261 0h-5.13v.74h5.13v-.74zm-10.261 0h-5.13v.74h5.13v-.74zm-10.261 0h-5.13v.74h5.13v-.74zm-10.26 0h-5.131v.74h5.13v-.74zm-10.262 0H40v.74h2.565v-.74zm-2.565 0c-.999 0-1.952.199-2.821.56l.283.683A6.608 6.608 0 0140 33.37v-.74zm-6.81 4.549A7.34 7.34 0 0032.63 40h.74c0-.9.179-1.757.503-2.538l-.683-.283z" fill="#E5E5E5"/></g><defs><linearGradient id="paint0_linear" x1="294.984" y1="133.978" x2="294.984" y2="59.993" gradientUnits="userSpaceOnUse"><stop stop-color="#FCCB05"/><stop offset="1" stop-color="#FFE57D"/></linearGradient><linearGradient id="paint1_linear" x1="294.991" y1="134" x2="294.991" y2="60" gradientUnits="userSpaceOnUse"><stop stop-color="#FCCB05"/><stop offset="1" stop-color="#FFE57D"/></linearGradient><filter id="filter0_d" x=".804" y=".804" width="314.391" height="194.391" filterUnits="userSpaceOnUse" color-interpolation-filters="sRGB"><feFlood flood-opacity="0" result="BackgroundImageFix"/><feColorMatrix in="SourceAlpha" values="0 0 0 0 0 0 0 0 0 0 0 0 0 0 0 0 0 0 127 0"/><feOffset/><feGaussianBlur stdDeviation="11.098"/><feColorMatrix values="0 0 0 0 0 0 0 0 0 0 0 0 0 0 0 0 0 0 0.1 0"/><feBlend in2="BackgroundImageFix" result="effect1_dropShadow"/><feBlend in="SourceGraphic" in2="effect1_dropShadow" result="shape"/></filter><filter id="filter1_d" x="10.434" y="10.434" width="295.131" height="175.131" filterUnits="userSpaceOnUse" color-interpolation-filters="sRGB"><feFlood flood-opacity="0" result="BackgroundImageFix"/><feColorMatrix in="SourceAlpha" values="0 0 0 0 0 0 0 0 0 0 0 0 0 0 0 0 0 0 127 0"/><feOffset/><feGaussianBlur stdDeviation="11.098"/><feColorMatrix values="0 0 0 0 0 0 0 0 0 0 0 0 0 0 0 0 0 0 0.1 0"/><feBlend in2="BackgroundImageFix" result="effect1_dropShadow"/><feBlend in="SourceGraphic" in2="effect1_dropShadow" result="shape"/></filter></defs></svg>