<svg width="446" height="260" fill="none" xmlns="http://www.w3.org/2000/svg"><path d="M100 130c0 27.614-22.386 50-50 50S0 157.614 0 130s22.386-50 50-50 50 22.386 50 50z" fill="url(#paint0_linear)"/><mask id="mask0" maskUnits="userSpaceOnUse" x="0" y="80" width="100" height="100"><circle cx="50" cy="130" r="50" fill="url(#paint1_linear)"/></mask><g mask="url(#mask0)"><path fill-rule="evenodd" clip-rule="evenodd" d="M81.767 126.702a33.795 33.795 0 00-6.126-2.474 1.025 1.025 0 00-.576 1.969 31.718 31.718 0 015.753 2.323c.204.106.394.23.573.367-1.12.011-2.22.058-3.074.223-1.908.37-2.309 1.34-2.309 2.089 0 2.108 2.838 3.956 6.073 3.956.293 0 .582-.012.868-.031v.961h-5.306a6.855 6.855 0 00-5.652-2.981 6.854 6.854 0 00-5.651 2.981H36.9a6.854 6.854 0 00-5.651-2.981 6.854 6.854 0 00-5.652 2.981h-8.546v-2.443h1.38c.567 0 1.026-.459 1.026-1.026v-.773h2.353a2.526 2.526 0 002.523-2.523v-.883a2.51 2.51 0 00-.457-1.448l-2.088-2.978h2.48c.35 0 .677-.179.865-.475 1.28-2.009 3.197-3.85 5.698-5.471a18.629 18.629 0 015.028-2.282c-.312.179-.62.365-.92.561-1.959 1.269-3.612 2.686-4.915 4.21a2.13 2.13 0 00-.335 2.259 2.112 2.112 0 001.877 1.268l32.995 1.115h.018l.012-.001c.028-.001.056-.002.083-.005h.003a25.237 25.237 0 015.893.062 1.025 1.025 0 10.257-2.034 27.284 27.284 0 00-5.9-.114c-1.619-1.51-3.2-2.966-4.71-4.334a21.345 21.345 0 00-13.148-5.483l-4.773-.256c-4.514-.24-8.865.905-12.58 3.313-2.557 1.656-4.572 3.544-5.998 5.616a269.22 269.22 0 01-2.802-.001c-.86-.003-1.056-.004-1.272.035a2.646 2.646 0 00-2.238 2.61v6.987h-.968A1.44 1.44 0 0015 133.028v6.275c0 .683.486 1.276 1.153 1.408l8.718 1.762c1.005 2.541 3.484 4.345 6.378 4.345a6.864 6.864 0 006.18-3.889h3.781a1.025 1.025 0 000-2.051h-3.169a6.84 6.84 0 00-.185-2.742h27.528a6.843 6.843 0 00-.186 2.742H45.996a1.025 1.025 0 100 2.051H65.81a6.864 6.864 0 006.18 3.889 6.864 6.864 0 006.18-3.889h3.124A3.71 3.71 0 0085 139.224v-7.194a5.994 5.994 0 00-3.233-5.328zm-50.201-4.716c-.023-.052.002-.083.016-.099v-.001c2.88-3.368 7.379-6.105 12.554-6.702l2.14.114c.34 1.263.8 4.303-.007 7.228l-14.634-.495c-.024 0-.05-.001-.07-.045zm30.292 1.067l-13.494-.456c.618-2.643.417-5.37.055-7.126a19.29 19.29 0 0110.422 4.819c.977.886 1.987 1.811 3.017 2.763zm-39.576 5.384v.883c0 .26-.212.471-.472.471h-2.353v-5.187c0-.093.023-.18.062-.258l2.678 3.821a.467.467 0 01.085.27zM17.051 138.8v-.664h7.59a6.809 6.809 0 00-.24 2.149l-7.35-1.485zm14.198 5.966a4.81 4.81 0 01-4.805-4.805 4.811 4.811 0 014.805-4.806 4.811 4.811 0 014.805 4.806 4.81 4.81 0 01-4.805 4.805zm50.832-11.662c-2.318 0-3.837-1.188-4.006-1.798.424-.247 1.77-.371 4.006-.371.242 0 .483.008.721.024.096.343.147.703.147 1.071v1.04c-.284.023-.574.034-.868.034zm-10.09 11.662a4.81 4.81 0 01-4.805-4.805 4.811 4.811 0 014.805-4.806 4.811 4.811 0 014.805 4.806 4.81 4.81 0 01-4.805 4.805zm9.304-3.888h-2.511a6.834 6.834 0 00-.185-2.742h4.35v1.087c0 .912-.742 1.655-1.654 1.655zm-50.047-4.27a3.356 3.356 0 00-3.352 3.352 3.357 3.357 0 003.352 3.354 3.357 3.357 0 003.353-3.354 3.356 3.356 0 00-3.352-3.352zm0 4.655a1.303 1.303 0 01-1.302-1.302c0-.718.585-1.302 1.302-1.302a1.303 1.303 0 01.001 2.604zm37.39-1.303a3.356 3.356 0 013.353-3.352 3.356 3.356 0 013.353 3.352 3.357 3.357 0 01-3.353 3.354 3.357 3.357 0 01-3.353-3.354zm2.051.001c0 .718.584 1.302 1.302 1.302.718 0 1.302-.584 1.302-1.302 0-.718-.584-1.302-1.302-1.302-.718 0-1.302.584-1.302 1.302zm-20.69-13.787a1.025 1.025 0 100 2.05h.712a1.025 1.025 0 100-2.05H50zm-16.35 1.025c0-.566.46-1.025 1.026-1.025h.71a1.025 1.025 0 110 2.05h-.71a1.025 1.025 0 01-1.026-1.025z" fill="#fff" style="mix-blend-mode:overlay"/></g><g filter="url(#filter0_d)"><path fill-rule="evenodd" clip-rule="evenodd" d="M56 30c-5.523 0-10 4.477-10 10v30.404A67.722 67.722 0 0153.4 70c35.03 0 63.429 26.863 63.429 60S88.431 190 53.4 190c-2.503 0-4.972-.137-7.4-.404V220c0 5.523 4.477 10 10 10h350c5.523 0 10-4.477 10-10V40c0-5.523-4.477-10-10-10H56z" fill="#fff"/></g><g filter="url(#filter1_d)"><path d="M56 60.028h-.5v.486l.486.014.014-.5zm0 139.944l-.014-.5-.486.014v.486h.5zm-.5-147.465a.5.5 0 101 0h-1zm1 5.014a.5.5 0 00-1 0h1zm2.832 3.18a.5.5 0 10.076-.997l-.076.998zm6.818-.158a.5.5 0 10-.171.985l.171-.985zm6.364 2.45a.5.5 0 00.266-.964l-.266.964zm6.72 1.157a.5.5 0 10-.358.934l.358-.934zm5.77 3.632a.5.5 0 00.448-.895l-.447.895zm6.372 2.43a.5.5 0 00-.53.847l.53-.847zm4.967 4.672a.5.5 0 10.61-.793l-.61.793zm5.789 3.603a.5.5 0 10-.683.73l.683-.73zm3.986 5.534a.5.5 0 10.749-.662l-.749.662zm4.996 4.64a.5.5 0 10-.809.587l.809-.587zm2.857 6.192a.5.5 0 10.862-.507l-.862.507zm4.016 5.51a.501.501 0 00-.908.421l.908-.421zm1.613 6.625a.5.5 0 10.944-.331l-.944.331zm2.878 6.182a.5.5 0 10-.971.238l.971-.238zm.305 6.812a.5.5 0 00.99-.143l-.99.143zm1.637 6.621a.5.5 0 10-.999.047l.999-.047zm-.999 6.747a.5.5 0 10.999.047l-.999-.047zm.352 6.811a.5.5 0 10-.99-.143l.99.143zm-2.266 6.431a.5.5 0 00.971.238l-.971-.238zm-.963 6.751a.501.501 0 00-.944-.331l.944.331zm-3.465 5.873a.5.5 0 00.908.421l-.908-.421zm-2.246 6.438a.5.5 0 00-.862-.507l.862.507zm-4.528 5.098a.5.5 0 10.809.587l-.809-.587zm-3.438 5.889a.499.499 0 10-.749-.661l.749.661zm-5.418 4.141a.5.5 0 00.683.731l-.683-.731zm-4.496 5.127a.5.5 0 00-.61-.793l.61.793zm-6.108 3.032a.5.5 0 10.531.847l-.53-.847zm-5.393 4.172a.5.5 0 00-.447-.895l.447.895zm-6.576 1.803a.5.5 0 00.358.934l-.358-.934zm-6.096 3.055a.5.5 0 10-.266-.964l.266.964zm-6.801.501a.5.5 0 10.171.985l-.171-.985zm-6.571 1.824a.5.5 0 00-.076-.997l.076.997zm-3.908 2.183a.5.5 0 001 0h-1zm1 5.014a.5.5 0 00-1 0h1zm-.203 6.526a.5.5 0 10.924-.383l-.924.383zm6.067 4.76a.5.5 0 00-.383.924l.383-.924zm7.074 1.721a.5.5 0 000-1v1zm6.874-1a.5.5 0 000 1v-1zm6.876 1a.5.5 0 000-1v1zm6.874-1a.5.5 0 000 1v-1zm6.876 1a.5.5 0 000-1v1zm6.874-1a.5.5 0 000 1v-1zm6.876 1a.5.5 0 000-1v1zm6.874-1a.5.5 0 000 1v-1zm6.876 1a.5.5 0 000-1v1zm6.874-1a.5.5 0 000 1v-1zm6.876 1a.5.5 0 000-1v1zm6.874-1a.5.5 0 000 1v-1zm6.875 1a.5.5 0 100-1v1zm6.875-1a.5.5 0 000 1v-1zm6.876 1a.5.5 0 000-1v1zm6.874-1a.5.5 0 000 1v-1zm6.876 1a.5.5 0 000-1v1zm6.874-1a.5.5 0 000 1v-1zm6.876 1a.5.5 0 000-1v1zm6.874-1a.5.5 0 000 1v-1zm6.876 1a.5.5 0 000-1v1zm6.874-1a.5.5 0 000 1v-1zm6.876 1a.5.5 0 000-1v1zm6.874-1a.5.5 0 000 1v-1zm6.876 1a.5.5 0 000-1v1zm6.874-1a.5.5 0 000 1v-1zm6.876 1a.5.5 0 000-1v1zm6.874-1a.5.5 0 000 1v-1zm6.876 1a.5.5 0 000-1v1zm6.874-1a.5.5 0 000 1v-1zm6.876 1a.5.5 0 000-1v1zm6.874-1a.5.5 0 000 1v-1zm6.876 1a.5.5 0 000-1v1zm6.874-1a.5.5 0 000 1v-1zm6.876 1a.5.5 0 000-1v1zm6.874-1a.5.5 0 000 1v-1zm6.876 1a.5.5 0 000-1v1zm6.874-1a.5.5 0 000 1v-1zm6.876 1a.5.5 0 000-1v1zm6.874-1a.5.5 0 000 1v-1zm6.876 1a.5.5 0 000-1v1zm6.874-1a.5.5 0 000 1v-1zm6.876 1a.5.5 0 000-1v1zm6.874-1a.5.5 0 000 1v-1zm6.876 1a.5.5 0 000-1v1zm6.874-1a.5.5 0 000 1v-1zm6.876 1a.5.5 0 000-1v1zm6.874-1a.5.5 0 000 1v-1zm7.457.203a.5.5 0 10-.383-.924l.383.924zm4.76-6.067a.5.5 0 10.924.383l-.924-.383zm1.721-7.272a.5.5 0 10-1 0h1zm-1-7.273a.5.5 0 001 0h-1zm1-7.273a.5.5 0 00-1 0h1zm-1-7.273a.5.5 0 101 0h-1zm1-7.272a.5.5 0 00-1 0h1zm-1-7.273a.5.5 0 001 0h-1zm1-7.273a.5.5 0 00-1 0h1zm-1-7.272a.5.5 0 001 0h-1zm1-7.273a.5.5 0 00-1 0h1zm-1-7.273a.5.5 0 001 0h-1zm1-7.273a.5.5 0 00-1 0h1zm-1-7.272a.5.5 0 001 0h-1zm1-7.273a.5.5 0 00-1 0h1zm-1-7.273a.5.5 0 001 0h-1zm1-7.273a.5.5 0 00-1 0h1zm-1-7.272a.5.5 0 001 0h-1zm1-7.273a.5.5 0 00-1 0h1zm-1-7.273a.5.5 0 001 0h-1zm1-7.273a.5.5 0 00-1 0h1zm-1-7.272a.5.5 0 001 0h-1zm1-7.273a.5.5 0 00-1 0h1zm-1-7.273a.5.5 0 001 0h-1zm.203-7.655a.5.5 0 10-.924.383l.924-.383zm-6.067-4.76a.5.5 0 00.383-.924l-.383.924zm-7.074-1.721a.5.5 0 000 1v-1zm-6.874 1a.5.5 0 000-1v1zm-6.876-1a.5.5 0 000 1v-1zm-6.874 1a.5.5 0 000-1v1zm-6.876-1a.5.5 0 000 1v-1zm-6.874 1a.5.5 0 000-1v1zm-6.876-1a.5.5 0 000 1v-1zm-6.874 1a.5.5 0 000-1v1zm-6.876-1a.5.5 0 000 1v-1zm-6.874 1a.5.5 0 000-1v1zm-6.876-1a.5.5 0 000 1v-1zm-6.874 1a.5.5 0 000-1v1zm-6.876-1a.5.5 0 000 1v-1zm-6.874 1a.5.5 0 000-1v1zm-6.876-1a.5.5 0 000 1v-1zm-6.874 1a.5.5 0 000-1v1zm-6.876-1a.5.5 0 000 1v-1zm-6.874 1a.5.5 0 000-1v1zm-6.876-1a.5.5 0 000 1v-1zm-6.874 1a.5.5 0 000-1v1zm-6.876-1a.5.5 0 000 1v-1zm-6.874 1a.5.5 0 000-1v1zm-6.876-1a.5.5 0 000 1v-1zm-6.874 1a.5.5 0 000-1v1zm-6.876-1a.5.5 0 000 1v-1zm-6.874 1a.5.5 0 000-1v1zm-6.876-1a.5.5 0 000 1v-1zm-6.874 1a.5.5 0 000-1v1zm-6.876-1a.5.5 0 000 1v-1zm-6.874 1a.5.5 0 000-1v1zm-6.876-1a.5.5 0 000 1v-1zm-6.874 1a.5.5 0 000-1v1zm-6.875-1a.5.5 0 100 1v-1zm-6.876 1a.5.5 0 100-1v1zm-6.875-1a.5.5 0 000 1v-1zm-6.874 1a.5.5 0 000-1v1zm-6.876-1a.5.5 0 000 1v-1zm-6.874 1a.5.5 0 000-1v1zm-6.875-1a.5.5 0 100 1v-1zm-6.876 1a.5.5 0 100-1v1zm-6.875-1a.5.5 0 000 1v-1zm-6.874 1a.5.5 0 000-1v1zm-6.876-1a.5.5 0 000 1v-1zm-6.874 1a.5.5 0 000-1v1zm-6.876-1a.5.5 0 000 1v-1zm-6.874 1a.5.5 0 000-1v1zm-6.876-1a.5.5 0 000 1v-1zm-6.874 1a.5.5 0 000-1v1zm-7.457-.203a.5.5 0 00.383.924l-.383-.924zm-4.76 6.067a.5.5 0 00-.924-.383l.924.383zM55.5 50v2.507h1V50h-1zm0 7.521v2.507h1v-2.507h-1zm.486 3.007a69.75 69.75 0 013.346.174l.076-.998a71.485 71.485 0 00-3.394-.176l-.028 1zm9.993 1c2.216.385 4.396.875 6.535 1.465l.266-.964a70.034 70.034 0 00-6.63-1.486l-.171.985zm12.897 3.556a69.118 69.118 0 016.129 2.698l.447-.895a70.081 70.081 0 00-6.218-2.737l-.358.934zm11.97 5.975a69.674 69.674 0 015.497 3.825l.61-.793a70.663 70.663 0 00-5.577-3.879l-.53.847zm10.603 8.159a69.93 69.93 0 014.669 4.802l.749-.661a70.76 70.76 0 00-4.735-4.872l-.683.73zm8.856 10.03a69.908 69.908 0 013.666 5.605l.862-.507a70.491 70.491 0 00-3.719-5.685l-.809.587zm6.774 11.536a69.047 69.047 0 012.521 6.204l.944-.331a70.514 70.514 0 00-2.557-6.294l-.908.421zm4.428 12.624a68.83 68.83 0 011.276 6.574l.99-.143a69.887 69.887 0 00-1.295-6.669l-.971.238zm1.914 13.242c.052 1.11.079 2.227.079 3.35h1c0-1.139-.027-2.272-.08-3.397l-.999.047zm.079 3.35c0 1.123-.027 2.24-.079 3.35l.999.047c.053-1.125.08-2.258.08-3.397h-1zm-.717 10.018a68.83 68.83 0 01-1.276 6.574l.971.238c.536-2.185.969-4.41 1.295-6.669l-.99-.143zm-3.183 12.994a69.047 69.047 0 01-2.521 6.204l.908.421a70.514 70.514 0 002.557-6.294l-.944-.331zm-5.629 12.135a69.895 69.895 0 01-3.666 5.605l.809.587a70.628 70.628 0 003.719-5.685l-.862-.507zm-7.853 10.833a70.056 70.056 0 01-4.669 4.802l.683.731a70.68 70.68 0 004.735-4.872l-.749-.661zm-9.775 9.136a69.709 69.709 0 01-5.498 3.825l.531.847a70.793 70.793 0 005.577-3.879l-.61-.793zm-11.338 7.102a69.148 69.148 0 01-6.13 2.698l.359.934a70.346 70.346 0 006.218-2.737l-.447-.895zm-12.491 4.789a68.946 68.946 0 01-6.535 1.465l.171.985a70.253 70.253 0 006.63-1.486l-.266-.964zm-13.182 2.292a69.757 69.757 0 01-3.346.173l.028 1a71.752 71.752 0 003.394-.176l-.076-.997zm-3.832.673v2.507h1v-2.507h-1zm0 7.521V210h1v-2.507h-1zm0 2.507c0 1.423.283 2.781.797 4.019l.924-.383A9.467 9.467 0 0156.5 210h-1zm6.48 9.703c1.24.514 2.597.797 4.02.797v-1a9.456 9.456 0 01-3.636-.721l-.383.924zm4.02.797h3.438v-1H66v1zm10.313 0h6.874v-1h-6.874v1zm13.75 0h6.874v-1h-6.874v1zm13.749 0h6.876v-1h-6.876v1zm13.75 0h6.876v-1h-6.876v1zm13.75 0h6.876v-1h-6.876v1zm13.75 0h6.875v-1h-6.875v1zm13.75 0h6.876v-1h-6.876v1zm13.75 0h6.876v-1h-6.876v1zm13.75 0h6.876v-1h-6.876v1zm13.75 0h6.876v-1h-6.876v1zm13.75 0h6.876v-1h-6.876v1zm13.75 0h6.876v-1h-6.876v1zm13.75 0h6.876v-1h-6.876v1zm13.75 0h6.876v-1h-6.876v1zm13.75 0h6.876v-1h-6.876v1zm13.75 0h6.876v-1h-6.876v1zm13.75 0h6.876v-1h-6.876v1zm13.75 0h6.876v-1h-6.876v1zm13.75 0h6.876v-1h-6.876v1zm13.75 0h6.876v-1h-6.876v1zm13.75 0h6.876v-1h-6.876v1zm13.75 0h6.876v-1h-6.876v1zm13.75 0h6.876v-1h-6.876v1zm13.75 0H396v-1h-3.438v1zm3.438 0c1.423 0 2.781-.283 4.019-.797l-.383-.924a9.452 9.452 0 01-3.636.721v1zm9.703-6.481c.514-1.238.797-2.596.797-4.019h-1a9.452 9.452 0 01-.721 3.636l.924.383zM406.5 210v-3.636h-1V210h1zm0-10.909v-7.273h-1v7.273h1zm0-14.546v-7.272h-1v7.272h1zm0-14.545v-7.273h-1V170h1zm0-14.545v-7.273h-1v7.273h1zm0-14.546v-7.273h-1v7.273h1zm0-14.545v-7.273h-1v7.273h1zm0-14.546v-7.273h-1v7.273h1zm0-14.545V90h-1v7.273h1zm0-14.546v-7.273h-1v7.273h1zm0-14.545v-7.273h-1v7.273h1zm0-14.546V50h-1v3.636h1zm0-3.636c0-1.423-.283-2.78-.797-4.02l-.924.384A9.456 9.456 0 01405.5 50h1zm-6.481-9.703A10.466 10.466 0 00396 39.5v1c1.289 0 2.517.257 3.636.72l.383-.923zM396 39.5h-3.438v1H396v-1zm-10.312 0h-6.876v1h6.876v-1zm-13.75 0h-6.876v1h6.876v-1zm-13.75 0h-6.876v1h6.876v-1zm-13.75 0h-6.876v1h6.876v-1zm-13.75 0h-6.876v1h6.876v-1zm-13.75 0h-6.876v1h6.876v-1zm-13.75 0h-6.876v1h6.876v-1zm-13.75 0h-6.876v1h6.876v-1zm-13.75 0h-6.876v1h6.876v-1zm-13.75 0h-6.876v1h6.876v-1zm-13.75 0h-6.876v1h6.876v-1zm-13.75 0h-6.876v1h6.876v-1zm-13.75 0h-6.876v1h6.876v-1zm-13.75 0h-6.876v1h6.876v-1zm-13.75 0h-6.876v1h6.876v-1zm-13.75 0h-6.875v1h6.875v-1zm-13.751 0h-6.875v1h6.875v-1zm-13.749 0h-6.876v1h6.876v-1zm-13.75 0h-6.875v1h6.875v-1zm-13.751 0h-6.875v1h6.875v-1zm-13.749 0h-6.876v1h6.876v-1zm-13.75 0h-6.876v1h6.876v-1zm-13.75 0h-6.876v1h6.876v-1zm-13.75 0H66v1h3.438v-1zM66 39.5c-1.423 0-2.78.283-4.02.797l.384.924A9.47 9.47 0 0166 40.5v-1zm-9.703 6.48A10.471 10.471 0 0055.5 50h1a9.47 9.47 0 01.72-3.636l-.923-.383z" fill="#E5E5E5"/></g><defs><linearGradient id="paint0_linear" x1="48.636" y1="180" x2="48.636" y2="80" gradientUnits="userSpaceOnUse"><stop stop-color="#FCCB05"/><stop offset="1" stop-color="#FFE57D"/></linearGradient><linearGradient id="paint1_linear" x1="48.636" y1="180" x2="48.636" y2="80" gradientUnits="userSpaceOnUse"><stop stop-color="#FCCB05"/><stop offset="1" stop-color="#FFE57D"/></linearGradient><filter id="filter0_d" x="16" y="0" width="430" height="260" filterUnits="userSpaceOnUse" color-interpolation-filters="sRGB"><feFlood flood-opacity="0" result="BackgroundImageFix"/><feColorMatrix in="SourceAlpha" values="0 0 0 0 0 0 0 0 0 0 0 0 0 0 0 0 0 0 127 0"/><feOffset/><feGaussianBlur stdDeviation="15"/><feColorMatrix values="0 0 0 0 0 0 0 0 0 0 0 0 0 0 0 0 0 0 0.1 0"/><feBlend in2="BackgroundImageFix" result="effect1_dropShadow"/><feBlend in="SourceGraphic" in2="effect1_dropShadow" result="shape"/></filter><filter id="filter1_d" x="25.5" y="9.5" width="411" height="241" filterUnits="userSpaceOnUse" color-interpolation-filters="sRGB"><feFlood flood-opacity="0" result="BackgroundImageFix"/><feColorMatrix in="SourceAlpha" values="0 0 0 0 0 0 0 0 0 0 0 0 0 0 0 0 0 0 127 0"/><feOffset/><feGaussianBlur stdDeviation="15"/><feColorMatrix values="0 0 0 0 0 0 0 0 0 0 0 0 0 0 0 0 0 0 0.1 0"/><feBlend in2="BackgroundImageFix" result="effect1_dropShadow"/><feBlend in="SourceGraphic" in2="effect1_dropShadow" result="shape"/></filter></defs></svg>