<svg width="333" height="196" fill="none" xmlns="http://www.w3.org/2000/svg"><path d="M330 97c0 20.435-16.565 37-37 37s-37-16.565-37-37c0-20.434 16.565-37 37-37s37 16.566 37 37z" fill="url(#paint0_linear)"/><mask id="mask0" maskUnits="userSpaceOnUse" x="256" y="60" width="74" height="74"><circle cx="293" cy="97" r="37" fill="url(#paint1_linear)"/></mask><g mask="url(#mask0)"><path fill-rule="evenodd" clip-rule="evenodd" d="M312.078 92.957a40.405 40.405 0 00-7.317-2.954 1.225 1.225 0 00-.689 2.351 37.932 37.932 0 016.872 2.775c.244.128.472.276.685.439-1.337.013-2.652.07-3.672.267-2.28.441-2.758 1.6-2.758 2.495 0 2.518 3.39 4.726 7.254 4.726.35 0 .696-.014 1.037-.037v1.148h-6.339a8.184 8.184 0 00-6.751-3.561 8.185 8.185 0 00-6.751 3.561h-35.168a8.184 8.184 0 00-6.751-3.561 8.185 8.185 0 00-6.751 3.561H234.77v-2.919h1.649c.677 0 1.225-.548 1.225-1.225v-.924h2.811a3.017 3.017 0 003.014-3.014v-1.054c0-.622-.189-1.22-.546-1.73l-2.494-3.558h2.962c.419 0 .809-.214 1.034-.567 1.528-2.4 3.818-4.6 6.806-6.536a22.242 22.242 0 016.007-2.726c-.373.215-.74.437-1.1.67-2.339 1.516-4.315 3.209-5.871 5.03-.647.756-.8 1.79-.4 2.698a2.523 2.523 0 002.242 1.516 3022976.853 3022976.853 0 0039.436 1.33h.015c.033-.001.067-.002.099-.006h.004a30.075 30.075 0 017.04.074 1.224 1.224 0 10.307-2.43 32.621 32.621 0 00-7.049-.136 534.391 534.391 0 00-5.625-5.177 25.494 25.494 0 00-15.707-6.55l-5.702-.306c-5.393-.287-10.59 1.08-15.029 3.957-3.053 1.979-5.46 4.233-7.164 6.71-1.628.006-2.663.002-3.347-.001-1.028-.005-1.262-.006-1.52.041a3.16 3.16 0 00-2.673 3.118v8.346h-1.156a1.72 1.72 0 00-1.718 1.717v7.496c0 .816.581 1.524 1.377 1.682l10.415 2.104c1.199 3.036 4.161 5.191 7.618 5.191 3.247 0 6.058-1.9 7.382-4.646h4.518a1.224 1.224 0 100-2.45h-3.785a8.171 8.171 0 00-.222-3.275h32.884a8.171 8.171 0 00-.222 3.275h-22.939a1.225 1.225 0 000 2.45h23.672c1.324 2.746 4.135 4.646 7.382 4.646s6.058-1.9 7.382-4.646h3.732a4.43 4.43 0 004.426-4.426v-8.593a7.161 7.161 0 00-3.862-6.365zm-59.969-5.633c-.028-.062.003-.099.019-.118h.001c3.44-4.024 8.814-7.294 14.996-8.008l2.555.137c.408 1.509.958 5.14-.007 8.634l-17.481-.59h-.001c-.028-.002-.059-.003-.082-.055zm36.186 1.275l-16.119-.545c.738-3.157.498-6.415.066-8.513a23.053 23.053 0 0112.449 5.757 521.352 521.352 0 013.604 3.3zm-47.276 6.432v1.054c0 .31-.253.564-.564.564h-2.811v-6.197a.7.7 0 01.074-.309l3.199 4.564a.565.565 0 01.102.324zm-6.249 12.379v-.793h9.067a8.114 8.114 0 00-.287 2.567l-8.78-1.774zm16.96 7.127a5.747 5.747 0 01-5.74-5.74 5.747 5.747 0 015.74-5.741 5.747 5.747 0 015.74 5.741 5.747 5.747 0 01-5.74 5.74zm60.723-13.931c-2.768 0-4.583-1.42-4.786-2.149.507-.294 2.115-.443 4.786-.443.29 0 .577.01.862.029.115.41.175.84.175 1.28v1.242c-.339.027-.686.041-1.037.041zM300.4 114.537a5.747 5.747 0 01-5.74-5.74 5.747 5.747 0 015.74-5.741 5.747 5.747 0 015.74 5.741 5.747 5.747 0 01-5.74 5.74zm11.114-4.645h-2.999a8.166 8.166 0 00-.222-3.275h5.197v1.298c0 1.09-.886 1.977-1.976 1.977zm-59.784-5.101a4.01 4.01 0 00-4.005 4.005 4.01 4.01 0 004.005 4.006 4.01 4.01 0 004.005-4.006 4.01 4.01 0 00-4.005-4.005zm0 5.561a1.558 1.558 0 01-1.555-1.556c0-.857.698-1.555 1.555-1.555a1.557 1.557 0 010 3.111zm44.665-1.556a4.01 4.01 0 014.005-4.005 4.01 4.01 0 014.005 4.005 4.01 4.01 0 01-4.005 4.006 4.01 4.01 0 01-4.005-4.006zm2.45 0c0 .858.698 1.556 1.555 1.556a1.557 1.557 0 000-3.111c-.857 0-1.555.698-1.555 1.555zm-24.715-16.47a1.225 1.225 0 000 2.45h.849a1.225 1.225 0 100-2.45h-.849zm-19.532 1.226c0-.677.549-1.225 1.225-1.225h.849a1.225 1.225 0 110 2.45h-.849a1.225 1.225 0 01-1.225-1.225z" fill="#fff" style="mix-blend-mode:overlay"/></g><g filter="url(#filter0_d)"><path fill-rule="evenodd" clip-rule="evenodd" d="M30.399 23A7.399 7.399 0 0023 30.399V165.6a7.398 7.398 0 007.399 7.4H285.6a7.398 7.398 0 007.399-7.399v-22.603l-.438.002c-25.563 0-46.286-20.147-46.286-45s20.723-45 46.286-45c.146 0 .292 0 .438.002V30.399A7.398 7.398 0 00285.601 23H30.399z" fill="#fff"/></g><g filter="url(#filter1_d)"><path d="M283 148.396h.37v-.328l-.325-.04-.045.368zm0-102.82l.045.367.325-.04v-.327H283zm-250.37-2.94a.37.37 0 10.74 0h-.74zm.74 5.273a.37.37 0 10-.74 0h.74zm-.74 5.273a.37.37 0 10.74 0h-.74zm.74 5.273a.37.37 0 10-.74 0h.74zm-.74 5.272a.37.37 0 10.74 0h-.74zM33.37 69a.37.37 0 10-.74 0h.74zm-.74 5.273a.37.37 0 10.74 0h-.74zm.74 5.273a.37.37 0 10-.74 0h.74zm-.74 5.272a.37.37 0 10.74 0h-.74zm.74 5.273a.37.37 0 10-.74 0h.74zm-.74 5.273a.37.37 0 10.74 0h-.74zm.74 5.272a.37.37 0 00-.74 0h.74zm-.74 5.273a.37.37 0 00.74 0h-.74zm.74 5.273a.37.37 0 00-.74 0h.74zm-.74 5.273a.37.37 0 00.74 0h-.74zm.74 5.272a.37.37 0 00-.74 0h.74zM32.63 127a.37.37 0 00.74 0h-.74zm.74 5.273a.37.37 0 10-.74 0h.74zm-.74 5.272a.37.37 0 10.74 0h-.74zm.74 5.273a.37.37 0 00-.74 0h.74zm-.74 5.273a.37.37 0 00.74 0h-.74zm.74 5.273a.37.37 0 10-.74 0h.74zm-.18 5.457a.37.37 0 00.683-.283l-.683.283zm4.272 3.306a.37.37 0 10-.283.684l.283-.684zm5.103 1.243a.37.37 0 000-.74v.74zm5.13-.74a.37.37 0 000 .74v-.74zm5.131.74a.37.37 0 000-.74v.74zm5.13-.74a.37.37 0 000 .74v-.74zm5.131.74a.37.37 0 000-.74v.74zm5.13-.74a.37.37 0 000 .74v-.74zm5.13.74a.37.37 0 000-.74v.74zm5.131-.74a.37.37 0 000 .74v-.74zm5.13.74a.37.37 0 000-.74v.74zm5.131-.74a.37.37 0 000 .74v-.74zm5.13.74a.37.37 0 000-.74v.74zm5.131-.74a.37.37 0 000 .74v-.74zm5.13.74a.37.37 0 100-.74v.74zm5.131-.74a.37.37 0 000 .74v-.74zm5.13.74a.37.37 0 100-.74v.74zm5.131-.74a.37.37 0 100 .74v-.74zm5.13.74a.37.37 0 000-.74v.74zm5.131-.74a.37.37 0 100 .74v-.74zm5.13.74a.37.37 0 000-.74v.74zm5.13-.74a.37.37 0 000 .74v-.74zm5.131.74a.37.37 0 000-.74v.74zm5.13-.74a.37.37 0 000 .74v-.74zm5.131.74a.37.37 0 000-.74v.74zm5.13-.74a.37.37 0 000 .74v-.74zm5.131.74a.37.37 0 000-.74v.74zm5.13-.74a.37.37 0 000 .74v-.74zm5.131.74a.37.37 0 000-.74v.74zm5.13-.74a.37.37 0 000 .74v-.74zm5.13.74a.37.37 0 100-.74v.74zm5.131-.74a.37.37 0 100 .74v-.74zm5.13.74a.37.37 0 100-.74v.74zm5.131-.74a.37.37 0 100 .74v-.74zm5.13.74a.37.37 0 000-.74v.74zm5.131-.74a.37.37 0 100 .74v-.74zm5.13.74a.37.37 0 000-.74v.74zm5.13-.74a.37.37 0 000 .74v-.74zm5.131.74a.37.37 0 000-.74v.74zm5.13-.74a.37.37 0 000 .74v-.74zm5.131.74a.37.37 0 000-.74v.74zm5.13-.74a.37.37 0 000 .74v-.74zm5.131.74a.37.37 0 000-.74v.74zm5.13-.74a.37.37 0 000 .74v-.74zm5.13.74a.37.37 0 100-.74v.74zm5.131-.74a.37.37 0 000 .74v-.74zm5.13.74a.37.37 0 100-.74v.74zm5.131-.74a.37.37 0 100 .74v-.74zm5.386.181a.37.37 0 00-.283-.684l.283.684zm3.306-4.273a.37.37 0 10.684.283l-.684-.283zm1.243-4.439a.37.37 0 00-.74 0h.74zm-.74-3.802a.37.37 0 00.74 0h-.74zm-2.218-2.658a.37.37 0 00-.127.729l.127-.729zm-5.388-.473a.372.372 0 00.457-.255.371.371 0 00-.255-.457l-.202.712zm-4.832-2.43a.37.37 0 00-.275.686l.275-.686zm-5.172-1.578a.37.37 0 00.345-.654l-.345.654zm-4.226-3.375a.37.37 0 10-.411.615l.411-.615zm-4.738-2.608a.37.37 0 00.472-.57l-.472.57zm-3.444-4.169a.37.37 0 10-.528.518l.528-.518zm-4.105-3.521a.37.37 0 10.578-.462l-.578.462zm-2.52-4.786a.369.369 0 10-.622.4l.622-.4zm-3.296-4.288a.37.37 0 10.661-.333l-.661.333zm-1.481-5.201a.37.37 0 00-.691.262l.691-.262zm-2.338-4.875a.37.37 0 00.715-.189l-.715.189zm-.373-5.396a.37.37 0 00-.731.114l.731-.114zm-1.283-5.255a.372.372 0 00.389.351.369.369 0 00.35-.388l-.739.037zm.739-5.36a.37.37 0 10-.739-.037l.739.038zm-.187-5.405a.37.37 0 10.731.113l-.731-.113zm1.819-5.093a.37.37 0 00-.715-.19l.715.19zm.932-5.327a.37.37 0 10.691.263l-.691-.263zm2.833-4.606a.37.37 0 10-.661-.333l.661.333zm2.013-5.02a.369.369 0 10.622.4l-.622-.4zm3.72-3.925a.37.37 0 10-.578-.461l.578.461zm2.999-4.5a.37.37 0 00.528.518l-.528-.518zm4.444-3.081a.37.37 0 00-.472-.57l.472.57zm3.855-3.793a.37.37 0 00.411.615l-.411-.615zm4.982-2.106a.37.37 0 10-.345-.654l.345.654zm4.552-2.919a.37.37 0 00.275.687l-.275-.687zm5.309-1.031a.37.37 0 00-.202-.712l.202.712zm5.059-1.915a.37.37 0 10.127.73l-.127-.73zm3.085-1.421a.37.37 0 00-.74 0h.74zm-.74-2.788a.37.37 0 00.74 0h-.74zm.181-4.215a.37.37 0 00-.684.283l.684-.283zm-4.273-3.306a.37.37 0 10.283-.683l-.283.683zm-5.103-1.243a.37.37 0 100 .74v-.74zm-5.131.74a.37.37 0 100-.74v.74zm-5.13-.74a.37.37 0 000 .74v-.74zm-5.131.74a.37.37 0 100-.74v.74zm-5.13-.74a.37.37 0 000 .74v-.74zm-5.13.74a.37.37 0 000-.74v.74zm-5.131-.74a.37.37 0 000 .74v-.74zm-5.13.74a.37.37 0 000-.74v.74zm-5.131-.74a.37.37 0 000 .74v-.74zm-5.13.74a.37.37 0 000-.74v.74zm-5.131-.74a.37.37 0 000 .74v-.74zm-5.13.74a.37.37 0 000-.74v.74zm-5.13-.74a.37.37 0 100 .74v-.74zm-5.131.74a.37.37 0 000-.74v.74zm-5.13-.74a.37.37 0 100 .74v-.74zm-5.131.74a.37.37 0 100-.74v.74zm-5.13-.74a.37.37 0 000 .74v-.74zm-5.131.74a.37.37 0 100-.74v.74zm-5.13-.74a.37.37 0 000 .74v-.74zm-5.13.74a.37.37 0 000-.74v.74zm-5.131-.74a.37.37 0 000 .74v-.74zm-5.13.74a.37.37 0 000-.74v.74zm-5.131-.74a.37.37 0 000 .74v-.74zm-5.13.74a.37.37 0 000-.74v.74zm-5.131-.74a.37.37 0 000 .74v-.74zm-5.13.74a.37.37 0 000-.74v.74zm-5.131-.74a.37.37 0 000 .74v-.74zm-5.13.74a.37.37 0 000-.74v.74zm-5.13-.74a.37.37 0 100 .74v-.74zm-5.131.74a.37.37 0 100-.74v.74zm-5.13-.74a.37.37 0 100 .74v-.74zm-5.131.74a.37.37 0 100-.74v.74zm-5.13-.74a.37.37 0 000 .74v-.74zm-5.131.74a.37.37 0 100-.74v.74zM99 32.63a.37.37 0 100 .74v-.74zm-5.13.74a.37.37 0 100-.74v.74zm-5.13-.74a.37.37 0 100 .74v-.74zm-5.131.74a.37.37 0 100-.74v.74zm-5.13-.74a.37.37 0 100 .74v-.74zm-5.131.74a.37.37 0 100-.74v.74zm-5.13-.74a.37.37 0 100 .74v-.74zm-5.131.74a.37.37 0 100-.74v.74zm-5.13-.74a.37.37 0 100 .74v-.74zm-5.13.74a.37.37 0 100-.74v.74zm-5.131-.74a.37.37 0 100 .74v-.74zm-5.13.74a.37.37 0 100-.74v.74zm-5.387-.18a.37.37 0 10.283.683l-.283-.683zm-3.306 4.272a.37.37 0 00-.683-.283l.683.283zM32.63 40v2.636h.74V40h-.74zm0 7.91v5.272h.74v-5.273h-.74zm0 10.545v5.272h.74v-5.272h-.74zm0 10.545v5.273h.74V69h-.74zm0 10.546v5.272h.74v-5.272h-.74zm0 10.545v5.273h.74V90.09h-.74zm0 10.545v5.273h.74v-5.273h-.74zm0 10.546v5.273h.74v-5.273h-.74zm0 10.545V127h.74v-5.273h-.74zm0 10.546v5.272h.74v-5.272h-.74zm0 10.545v5.273h.74v-5.273h-.74zm0 10.546V156h.74v-2.636h-.74zm0 2.636c0 .999.199 1.952.56 2.821l.683-.283A6.607 6.607 0 0133.37 156h-.74zm4.549 6.811a7.36 7.36 0 002.821.559v-.74c-.9 0-1.757-.179-2.538-.503l-.283.684zm2.821.559h2.565v-.74H40v.74zm7.696 0h5.13v-.74h-5.13v.74zm10.26 0h5.131v-.74h-5.13v.74zm10.261 0h5.13v-.74h-5.13v.74zm10.261 0h5.13v-.74h-5.13v.74zm10.261 0h5.13v-.74h-5.13v.74zm10.261 0h5.13v-.74H99v.74zm10.261 0h5.13v-.74h-5.13v.74zm10.261 0h5.13v-.74h-5.13v.74zm10.261 0h5.13v-.74h-5.13v.74zm10.26 0h5.131v-.74h-5.131v.74zm10.261 0h5.131v-.74h-5.131v.74zm10.261 0h5.131v-.74h-5.131v.74zm10.261 0h5.131v-.74h-5.131v.74zm10.261 0h5.13v-.74h-5.13v.74zm10.261 0h5.13v-.74h-5.13v.74zm10.261 0h5.13v-.74h-5.13v.74zm10.261 0H217v-.74h-5.13v.74zm10.26 0h5.131v-.74h-5.131v.74zm10.261 0h5.131v-.74h-5.131v.74zm10.261 0h5.131v-.74h-5.131v.74zm10.261 0h5.13v-.74h-5.13v.74zm10.261 0h5.13v-.74h-5.13v.74zm10.261 0H276v-.74h-2.565v.74zm2.565 0c.999 0 1.952-.199 2.821-.559l-.283-.684a6.607 6.607 0 01-2.538.503v.74zm6.811-4.549c.36-.869.559-1.822.559-2.821h-.74c0 .9-.179 1.757-.503 2.538l.684.283zm.559-2.821v-1.901h-.74V156h.74zm0-5.703v-1.901h-.74v1.901h.74zm-.325-2.269a50.563 50.563 0 01-2.633-.389l-.127.729c.883.154 1.773.286 2.67.395l.09-.735zm-7.819-1.574a51.236 51.236 0 01-5.034-1.718l-.275.686a51.85 51.85 0 005.107 1.744l.202-.712zm-9.861-3.95a51.784 51.784 0 01-4.571-2.721l-.411.615a52.016 52.016 0 004.637 2.76l.345-.654zm-8.837-5.899a51.699 51.699 0 01-3.916-3.599l-.528.518a52.576 52.576 0 003.972 3.651l.472-.57zm-7.443-7.582a51.709 51.709 0 01-3.098-4.324l-.622.4a52.332 52.332 0 003.142 4.386l.578-.462zm-5.733-8.945a51.354 51.354 0 01-2.142-4.868l-.691.262a51.71 51.71 0 002.172 4.939l.661-.333zm-3.765-9.932a50.917 50.917 0 01-1.088-5.207l-.731.114a51.791 51.791 0 001.104 5.282l.715-.189zm-1.632-10.5a52.175 52.175 0 01-.067-2.66h-.74c0 .905.023 1.805.068 2.698l.739-.037zm-.067-2.66c0-.893.022-1.78.067-2.661l-.739-.038a53.664 53.664 0 00-.068 2.699h.74zm.611-7.954a50.885 50.885 0 011.088-5.206l-.715-.19a51.782 51.782 0 00-1.104 5.283l.731.113zm2.711-10.27a51.372 51.372 0 012.142-4.869l-.661-.333a51.685 51.685 0 00-2.172 4.94l.691.261zm4.777-9.49a51.658 51.658 0 013.098-4.324l-.578-.461a52.184 52.184 0 00-3.142 4.386l.622.4zm6.625-8.306a51.62 51.62 0 013.916-3.6l-.472-.57a52.512 52.512 0 00-3.972 3.652l.528.518zm8.182-6.777a51.467 51.467 0 014.571-2.72l-.345-.655a52.326 52.326 0 00-4.637 2.76l.411.615zm9.398-4.953a51.054 51.054 0 015.034-1.718l-.202-.712a51.793 51.793 0 00-5.107 1.743l.275.687zm10.22-2.904c.87-.151 1.748-.281 2.633-.389l-.09-.734c-.897.109-1.787.24-2.67.394l.127.73zm2.958-.756v-1.394h-.74v1.394h.74zm0-4.182V40h-.74v1.394h.74zm0-1.394a7.36 7.36 0 00-.559-2.821l-.684.283c.324.781.503 1.638.503 2.538h.74zm-4.549-6.81a7.344 7.344 0 00-2.821-.56v.74c.9 0 1.757.179 2.538.503l.283-.683zM276 32.63h-2.565v.74H276v-.74zm-7.696 0h-5.13v.74h5.13v-.74zm-10.261 0h-5.13v.74h5.13v-.74zm-10.26 0h-5.131v.74h5.131v-.74zm-10.261 0h-5.131v.74h5.131v-.74zm-10.261 0h-5.131v.74h5.131v-.74zm-10.261 0h-5.13v.74H217v-.74zm-10.261 0h-5.13v.74h5.13v-.74zm-10.261 0h-5.13v.74h5.13v-.74zm-10.261 0h-5.13v.74h5.13v-.74zm-10.26 0h-5.131v.74h5.131v-.74zm-10.261 0h-5.131v.74h5.131v-.74zm-10.261 0h-5.131v.74h5.131v-.74zm-10.261 0h-5.131v.74h5.131v-.74zm-10.261 0h-5.13v.74h5.13v-.74zm-10.261 0h-5.13v.74h5.13v-.74zm-10.261 0h-5.13v.74h5.13v-.74zm-10.261 0H99v.74h5.13v-.74zm-10.26 0h-5.13v.74h5.13v-.74zm-10.261 0h-5.13v.74h5.13v-.74zm-10.261 0h-5.13v.74h5.13v-.74zm-10.261 0h-5.13v.74h5.13v-.74zm-10.26 0h-5.131v.74h5.13v-.74zm-10.262 0H40v.74h2.565v-.74zm-2.565 0c-.999 0-1.952.199-2.821.56l.283.683A6.608 6.608 0 0140 33.37v-.74zm-6.81 4.549A7.34 7.34 0 0032.63 40h.74c0-.9.179-1.757.503-2.538l-.683-.283z" fill="#E5E5E5"/></g><defs><linearGradient id="paint0_linear" x1="291.991" y1="134" x2="291.991" y2="60" gradientUnits="userSpaceOnUse"><stop stop-color="#FCCB05"/><stop offset="1" stop-color="#FFE57D"/></linearGradient><linearGradient id="paint1_linear" x1="291.991" y1="134" x2="291.991" y2="60" gradientUnits="userSpaceOnUse"><stop stop-color="#FCCB05"/><stop offset="1" stop-color="#FFE57D"/></linearGradient><filter id="filter0_d" x=".804" y=".804" width="314.391" height="194.391" filterUnits="userSpaceOnUse" color-interpolation-filters="sRGB"><feFlood flood-opacity="0" result="BackgroundImageFix"/><feColorMatrix in="SourceAlpha" values="0 0 0 0 0 0 0 0 0 0 0 0 0 0 0 0 0 0 127 0"/><feOffset/><feGaussianBlur stdDeviation="11.098"/><feColorMatrix values="0 0 0 0 0 0 0 0 0 0 0 0 0 0 0 0 0 0 0.1 0"/><feBlend in2="BackgroundImageFix" result="effect1_dropShadow"/><feBlend in="SourceGraphic" in2="effect1_dropShadow" result="shape"/></filter><filter id="filter1_d" x="10.434" y="10.434" width="295.131" height="175.131" filterUnits="userSpaceOnUse" color-interpolation-filters="sRGB"><feFlood flood-opacity="0" result="BackgroundImageFix"/><feColorMatrix in="SourceAlpha" values="0 0 0 0 0 0 0 0 0 0 0 0 0 0 0 0 0 0 127 0"/><feOffset/><feGaussianBlur stdDeviation="11.098"/><feColorMatrix values="0 0 0 0 0 0 0 0 0 0 0 0 0 0 0 0 0 0 0.1 0"/><feBlend in2="BackgroundImageFix" result="effect1_dropShadow"/><feBlend in="SourceGraphic" in2="effect1_dropShadow" result="shape"/></filter></defs></svg>