<svg width="100" height="75" fill="none" xmlns="http://www.w3.org/2000/svg"><path d="M100 8.711v57.088c0 4.596-3.738 8.334-8.333 8.334H8.333C3.738 74.133 0 70.395 0 65.8V40.797a1.667 1.667 0 013.333 0V65.8c0 2.757 2.243 5 5 5h83.334c2.757 0 5-2.243 5-5V8.711c0-2.757-2.243-5-5-5H8.333c-2.757 0-5 2.243-5 5v6.667H88.75a1.667 1.667 0 010 3.334H3.333v10.834H88.75a1.667 1.667 0 010 3.334H1.667C.747 32.88 0 32.133 0 31.213V8.71C0 4.116 3.738.377 8.333.377h83.334C96.262.377 100 4.116 100 8.711zM86.667 52.048c0-4.279-4.757-6.874-8.36-4.546 3.536 5.793-.65 13.297-7.474 13.297-4.825 0-8.75-3.926-8.75-8.75 0-7.182 8.217-11.296 13.959-7.028C81.809 40.754 90 44.881 90 52.048c0 4.825-3.925 8.75-8.75 8.75a1.667 1.667 0 010-3.333 5.423 5.423 0 005.417-5.417zm-10.417 0a5.423 5.423 0 00-5.417-5.417 5.423 5.423 0 00-5.416 5.417 5.423 5.423 0 005.416 5.417 5.423 5.423 0 005.417-5.417zm-61.042-3.542h13.959a1.667 1.667 0 000-3.334H15.208a1.667 1.667 0 000 3.334zm0 10.418h13.959a1.667 1.667 0 000-3.334H15.208a1.667 1.667 0 000 3.334z" fill="#fff" style="mix-blend-mode:overlay"/></svg>