<svg width="89" height="100" fill="none" xmlns="http://www.w3.org/2000/svg"><path fill-rule="evenodd" clip-rule="evenodd" d="M47.615 1.64v15.583a1.64 1.64 0 01-3.28 0V1.64a1.64 1.64 0 013.28 0zm-1.643 67.766c-13.137 0-23.786-10.649-23.786-23.786.015-13.13 10.656-23.771 23.786-23.786 13.137 0 23.786 10.65 23.786 23.786 0 13.137-10.65 23.786-23.786 23.786zM66.477 45.62c0-11.325-9.18-20.505-20.505-20.505-11.32.013-20.492 9.186-20.505 20.505 0 11.325 9.18 20.506 20.505 20.506s20.505-9.18 20.505-20.506zm-20.93 8.937a1.54 1.54 0 01.562.02 3.721 3.721 0 00-.137-7.442 7.005 7.005 0 01-1.845-13.76V31.78a1.64 1.64 0 013.28 0v1.493a7.017 7.017 0 015.57 6.857 1.64 1.64 0 01-3.28 0 3.724 3.724 0 10-3.725 3.724 7.005 7.005 0 011.436 13.86v1.54a1.64 1.64 0 01-3.28 0v-1.64a7.017 7.017 0 01-5.16-6.756 1.64 1.64 0 013.28 0 3.73 3.73 0 003.298 3.698zM77.844 73.45l-12.85 6.071a10.466 10.466 0 00-8.921-5.505l-11.862-.326a12.527 12.527 0 01-5.391-1.392l-1.207-.626a21.29 21.29 0 00-19.72.02l.076-2.733a1.64 1.64 0 00-1.595-1.686l-13.007-.358a1.64 1.64 0 00-1.684 1.595L.898 97.053a1.64 1.64 0 001.595 1.686l13.007.358h.045a1.64 1.64 0 001.64-1.596l.038-1.366 3.379-1.809a5.796 5.796 0 014.325-.473l20.179 5.663.018.005.021.006.067.016a21.878 21.878 0 0013.577-1.538c.071-.032.14-.07.204-.112L88.25 78.969a1.641 1.641 0 00.537-2.185 8.286 8.286 0 00-10.942-3.334zM4.223 95.504l.695-25.264 9.727.268-.695 25.265-9.727-.269zm53.089-.429a18.598 18.598 0 01-11.373 1.27l-20.124-5.65a9.07 9.07 0 00-6.762.74l-1.726.925.462-16.798a18.03 18.03 0 0118.317-.977l1.207.626a15.843 15.843 0 006.81 1.758l11.862.326a7.195 7.195 0 016.837 5.733l-17.669-.487a1.641 1.641 0 00-.09 3.28l19.499.536h.045a1.64 1.64 0 001.64-1.595c.02-.713-.034-1.427-.16-2.129l13.18-6.227a.604.604 0 00.024-.011l.014-.007a5.012 5.012 0 015.667.794l-27.66 17.893zm2.602-77.852V9.842a1.64 1.64 0 00-3.28 0v7.381a1.64 1.64 0 003.28 0zM35.311 9.842v7.381a1.64 1.64 0 01-3.28 0V9.842a1.64 1.64 0 013.28 0z" fill="#fff" style="mix-blend-mode:overlay"/></svg>