<svg width="300" height="338" fill="none" xmlns="http://www.w3.org/2000/svg"><path fill-rule="evenodd" clip-rule="evenodd" d="M0 4a4 4 0 014-4h292a4 4 0 014 4v47.322l-11.806 10.91a1.961 1.961 0 000 2.882L300 76.024v125.399c-3.4.677-6.507 1.367-8.986 2.035-9.892 2.665-24.795 11.69-31.01 15.674-10.991 7.772-35.524 25.862-35.524 25.862-3.205-.261-9.42.392-13.346 2.351-4.143 2.068-4.906 2.547-4.317 6.465.196 1.176.667 3.018.981 3.331.336.335-8.98 4.457-19.627 6.317l-19.037 4.655c-8.5 2.495-15.376 4.572-17.075 5.094-.355.109-.919.256-1.641.444-4.465 1.163-14.967 3.9-19.359 8.96-7.262 5.682-15.309 11.559-17.272 11.559-.327.523-.942 1.96-.785 3.527-3.663 4.506-10.912 15.987-10.598 25.862A184.942 184.942 0 0099.722 330H4a4 4 0 01-4-4V4z" fill="#fff"/><path fill-rule="evenodd" clip-rule="evenodd" d="M10 13.924A3.924 3.924 0 0113.924 10h272.152A3.924 3.924 0 01290 13.924v37.701l-11.865 11.007a1.963 1.963 0 000 2.876L290 76.515V201.34c-5.402.958-10.569 1.993-14.258 2.976-9.292 2.476-23.292 10.864-29.13 14.566-10.325 7.223-33.371 24.034-33.371 24.034-3.011-.242-8.85.365-12.537 2.185-3.892 1.922-4.609 2.367-4.056 6.009.184 1.092.627 2.804.922 3.095.315.312-8.436 4.142-18.437 5.871l-17.884 4.325a1749.298 1749.298 0 00-16.04 4.734c-.334.102-.863.238-1.541.413-4.195 1.081-14.06 3.625-18.187 8.327-6.821 5.28-14.381 10.742-16.224 10.742-.308.486-.885 1.821-.738 3.278-3.441 4.188-10.25 14.857-9.956 24.034a176.006 176.006 0 00-1.742 4.07H13.924A3.924 3.924 0 0110 316.076V13.924z" fill="#fff"/><path d="M290 51.625l.267.288.125-.116v-.172H290zm-11.865 11.007l-.266-.288.266.288zm0 2.876l.267-.287-.267.287zM290 76.515h.392v-.171l-.125-.117-.267.288zm0 124.826l.069.386.323-.057v-.329H290zm-14.258 2.976l.101.379-.101-.379zm-29.13 14.566l-.21-.331-.008.005-.007.005.225.321zm-33.371 24.034l-.032.391.146.012.117-.086-.231-.317zm-12.537 2.185l.174.352-.174-.352zm-4.056 6.009l-.388.059.001.006.387-.065zm.922 3.095l-.276.279.276-.279zm-18.437 5.871l-.067-.387-.013.003-.013.003.093.381zm-17.884 4.325l-.092-.381-.009.002-.009.003.11.376zm-16.04 4.734l.114.376-.114-.376zm-1.541.413l.098.38-.098-.38zm-18.187 8.327l.24.31.03-.023.025-.028-.295-.259zm-16.224 10.742v-.392h-.216l-.116.183.332.209zm-.738 3.278l.303.249.104-.126-.016-.163-.391.04zm-9.956 24.034l.359.159.036-.082-.003-.09-.392.013zM96.821 320v.392h.262l.1-.242-.362-.15zM12.27 9.935a.392.392 0 00.301.725l-.3-.725zm-1.61 2.637a.392.392 0 00-.726-.3l.725.3zm-1.053 3.87a.392.392 0 10.784 0h-.784zm.784 5.035a.392.392 0 00-.784 0h.784zm-.784 5.036a.392.392 0 10.784 0h-.784zm.784 5.036a.392.392 0 00-.784 0h.784zm-.784 5.036a.392.392 0 10.784 0h-.784zm.784 5.036a.392.392 0 00-.784 0h.784zm-.784 5.036a.392.392 0 00.784 0h-.784zm.784 5.036a.392.392 0 00-.784 0h.784zm-.784 5.036a.392.392 0 10.784 0h-.784zm.784 5.035a.392.392 0 00-.784 0h.784zM9.608 66.8a.392.392 0 00.784 0h-.784zm.784 5.036a.392.392 0 00-.784 0h.784zm-.784 5.036a.392.392 0 10.784 0h-.784zm.784 5.036a.392.392 0 00-.784 0h.784zm-.784 5.036a.392.392 0 00.784 0h-.784zm.784 5.036a.392.392 0 00-.784 0h.784zm-.784 5.036a.392.392 0 10.784 0h-.784zm.784 5.036a.393.393 0 10-.784 0h.784zm-.784 5.035a.393.393 0 10.784 0h-.784zm.784 5.036a.393.393 0 00-.784 0h.784zm-.784 5.036a.393.393 0 10.784 0h-.784zm.784 5.036a.392.392 0 10-.784 0h.784zm-.784 5.036a.392.392 0 10.784 0h-.784zm.784 5.036a.393.393 0 10-.784 0h.784zm-.784 5.036a.392.392 0 00.784 0h-.784zm.784 5.036a.393.393 0 10-.784 0h.784zm-.784 5.035a.393.393 0 10.784 0h-.784zm.784 5.036a.393.393 0 00-.784 0h.784zm-.784 5.036a.393.393 0 10.784 0h-.784zm.784 5.036a.392.392 0 10-.784 0h.784zm-.784 5.036a.392.392 0 10.784 0h-.784zm.784 5.036a.393.393 0 10-.784 0h.784zm-.784 5.036a.392.392 0 00.784 0h-.784zm.784 5.036a.393.393 0 10-.784 0h.784zm-.784 5.035a.393.393 0 10.784 0h-.784zm.784 5.036a.393.393 0 00-.784 0h.784zm-.784 5.036a.393.393 0 10.784 0h-.784zm.784 5.036a.392.392 0 10-.784 0h.784zm-.784 5.036a.392.392 0 10.784 0h-.784zm.784 5.036a.393.393 0 10-.784 0h.784zm-.784 5.036a.392.392 0 00.784 0h-.784zm.784 5.036a.393.393 0 10-.784 0h.784zm-.784 5.035a.393.393 0 10.784 0h-.784zm.784 5.036a.393.393 0 00-.784 0h.784zm-.784 5.036a.393.393 0 10.784 0h-.784zm.784 5.036a.392.392 0 10-.784 0h.784zm-.784 5.036a.392.392 0 10.784 0h-.784zm.784 5.036a.393.393 0 10-.784 0h.784zm-.784 5.036a.392.392 0 00.784 0h-.784zm.784 5.036a.393.393 0 10-.784 0h.784zm-.784 5.035a.393.393 0 10.784 0h-.784zm.784 5.036a.393.393 0 00-.784 0h.784zm-.784 5.036a.393.393 0 10.784 0h-.784zm.784 5.036a.392.392 0 10-.784 0h.784zm-.784 5.036a.392.392 0 10.784 0h-.784zm.784 5.036a.393.393 0 10-.784 0h.784zm-.784 5.036a.392.392 0 00.784 0h-.784zm.784 5.036a.393.393 0 10-.784 0h.784zm-.784 5.035a.393.393 0 10.784 0h-.784zm.784 5.036a.393.393 0 00-.784 0h.784zm-.457 4.171a.392.392 0 00.725-.301l-.725.301zm2.637 1.611a.392.392 0 10-.3.725l.3-.725zm3.942 1.052a.392.392 0 100-.784v.784zm5.181-.784a.392.392 0 100 .784v-.784zm5.181.784a.392.392 0 100-.784v.784zm5.181-.784a.392.392 0 100 .784v-.784zm5.181.784a.392.392 0 100-.784v.784zm5.181-.784a.392.392 0 100 .784v-.784zm5.182.784a.392.392 0 100-.784v.784zm5.18-.784a.392.392 0 100 .784v-.784zm5.182.784a.392.392 0 100-.784v.784zm5.18-.784a.392.392 0 100 .784v-.784zm5.182.784a.392.392 0 100-.784v.784zm5.18-.784a.392.392 0 100 .784v-.784zm5.182.784a.392.392 0 100-.784v.784zm5.181-.784a.392.392 0 100 .784v-.784zm5.181.784a.392.392 0 100-.784v.784zm5.181-.784a.392.392 0 100 .784v-.784zm3.379-.477a.393.393 0 00-.724-.305l.724.305zm.15-2.344a.392.392 0 00.719.313l-.72-.313zm1.254-3.029a.392.392 0 10-.782-.064l.782.064zM99 309.283a.393.393 0 10.76.197l-.76-.197zm2.122-3.949a.392.392 0 10-.73-.288l.73.288zm1.101-4.343a.392.392 0 10.7.354l-.7-.354zm2.837-3.473a.392.392 0 10-.67-.409l.67.409zm1.797-4.108a.392.392 0 10.634.462l-.634-.462zm2.044-2.337a.393.393 0 10-.783-.058l.783.058zm-.381-1.828a.392.392 0 10.733.281l-.733-.281zm3.182-1.165a.393.393 0 00-.377-.689l.377.689zm3.723-3.275a.393.393 0 00.443.647l-.443-.647zm4.438-2.194a.39.39 0 00.084-.548.39.39 0 00-.548-.084l.464.632zm3.442-3.558a.393.393 0 00.476.624l-.476-.624zm4.274-2.579a.392.392 0 10-.478-.622l.478.622zm3.939-3.248a.393.393 0 00.337.709l-.337-.709zm4.991-1.172a.392.392 0 10-.257-.741l.257.741zm4.609-2.237a.392.392 0 00.207.757l-.207-.757zm3.034.012a.392.392 0 10-.196-.76l.196.76zm.57-.962a.392.392 0 00.207.757l-.207-.757zm2.6.044a.393.393 0 00-.225-.752l.225.752zm3.783-1.943a.392.392 0 10.223.752l-.223-.752zm4.233-.43a.392.392 0 10-.221-.753l.221.753zm3.793-1.928a.393.393 0 00.219.754l-.219-.754zm4.446-.367a.393.393 0 00-.185-.763l.185.763zm4.286-1.844a.392.392 0 10.185.763l-.185-.763zm4.655-.319a.392.392 0 10-.184-.762l.184.762zm4.287-1.844a.392.392 0 00.184.763l-.184-.763zm4.799-.231a.392.392 0 00-.16-.768l.16.768zm4.546-1.903a.392.392 0 00.207.757l-.207-.757zm4.884-.666a.392.392 0 10-.25-.743l.25.743zm4.275-2.446a.393.393 0 10.309.722l-.309-.722zm2.289-1.64a.392.392 0 10-.743.251l.743-.251zm-1.177-1.358a.393.393 0 00.766-.169l-.766.169zm.461-2.9a.392.392 0 10-.784-.039l.784.039zm1.81-3.402a.393.393 0 00.378.688l-.378-.688zm5.123-1.33a.392.392 0 10-.213-.755l.213.755zm6.193-1.822a.392.392 0 10.051.783l-.051-.783zm5.534-.812a.392.392 0 10-.462-.634l.462.634zm3.695-3.657a.393.393 0 00.461.635l-.461-.635zm4.627-2.389a.392.392 0 10-.46-.635l.46.635zm3.704-3.651a.392.392 0 10.46.636l-.46-.636zm4.629-2.375a.392.392 0 10-.459-.636l.459.636zm3.716-3.641a.392.392 0 10.458.637l-.458-.637zm4.639-2.357a.393.393 0 00-.456-.639l.456.639zm3.732-3.615a.393.393 0 00.452.641l-.452-.641zm4.838-2.262a.392.392 0 10-.411-.669l.411.669zm4.271-3.469a.392.392 0 10.395.678l-.395-.678zm5.129-1.991a.392.392 0 10-.375-.689l.375.689zm4.46-3.223a.393.393 0 00.352.701l-.352-.701zm5.257-1.615a.393.393 0 10-.317-.718l.317.718zm4.776-2.735a.392.392 0 10.255.742l-.255-.742zm6.351-.908a.392.392 0 10-.172-.765l.172.765zm6.978-2.228a.392.392 0 10.146.771l-.146-.771zm4.048-2.87a.391.391 0 10-.784 0h.784zm-.784-5.201a.391.391 0 10.784 0h-.784zm.784-5.201a.391.391 0 10-.784 0h.784zm-.784-5.201a.391.391 0 10.784 0h-.784zm.784-5.201a.392.392 0 10-.784 0h.784zm-.784-5.201a.392.392 0 10.784 0h-.784zm.784-5.201a.392.392 0 10-.784 0h.784zm-.784-5.201a.392.392 0 10.784 0h-.784zm.784-5.202a.392.392 0 10-.784 0h.784zm-.784-5.201a.392.392 0 10.784 0h-.784zm.784-5.201a.392.392 0 10-.784 0h.784zm-.784-5.201a.392.392 0 10.784 0h-.784zm.784-5.201a.391.391 0 10-.784 0h.784zm-.784-5.201a.391.391 0 10.784 0h-.784zm.784-5.201a.391.391 0 10-.784 0h.784zm-.784-5.201a.391.391 0 10.784 0h-.784zm.784-5.201a.392.392 0 10-.784 0h.784zm-.784-5.201a.392.392 0 10.784 0h-.784zm.784-5.201a.392.392 0 10-.784 0h.784zm-.784-5.201a.392.392 0 10.784 0h-.784zm.784-5.201a.392.392 0 10-.784 0h.784zm-.784-5.202a.392.392 0 10.784 0h-.784zm.784-5.2a.392.392 0 10-.784 0h.784zm-.784-5.202a.392.392 0 10.784 0h-.784zm-.824-4.264a.393.393 0 00-.534.576l.534-.576zm-3.5-2.176a.392.392 0 10.534-.575l-.534.575zm-2.433-3.327a.392.392 0 10-.533.575l.533-.575zm-3.499-2.176a.392.392 0 10.533-.576l-.533.576zm-1.321-2.474a.393.393 0 00-.72.314l.72-.314zm-.72-1.57a.393.393 0 00.72.314l-.72-.314zm2.574-1.584a.393.393 0 00-.533-.576l.533.576zm2.433-3.327a.393.393 0 00.533.575l-.533-.575zm3.5-2.177a.393.393 0 00-.534-.575l.534.575zm2.432-3.326a.393.393 0 10.534.575l-.534-.575zm2.142-3.445a.392.392 0 10-.784 0h.784zm-.784-4.713a.392.392 0 10.784 0h-.784zm.784-4.712a.392.392 0 10-.784 0h.784zm-.784-4.713a.392.392 0 10.784 0h-.784zm.784-4.713a.392.392 0 10-.784 0h.784zm-.784-4.713a.392.392 0 10.784 0h-.784zm.784-4.712a.392.392 0 10-.784 0h.784zm-.784-4.713a.392.392 0 10.784 0h-.784zm.457-4.009a.393.393 0 00-.725.301l.725-.3zm-2.637-1.61a.393.393 0 00.301-.726l-.301.725zm-3.872-1.053a.392.392 0 000 .784v-.784zm-5.039.784a.393.393 0 000-.784v.784zm-5.04-.784a.393.393 0 100 .784v-.784zm-5.04.784a.392.392 0 100-.784v.784zm-5.04-.784a.392.392 0 100 .784v-.784zm-5.04.784a.392.392 0 100-.784v.784zm-5.04-.784a.392.392 0 000 .784v-.784zm-5.04.784a.393.393 0 100-.784v.784zm-5.039-.784a.393.393 0 100 .784v-.784zm-5.04.784a.393.393 0 000-.784v.784zm-5.04-.784a.393.393 0 100 .784v-.784zm-5.04.784a.392.392 0 100-.784v.784zm-5.04-.784a.392.392 0 100 .784v-.784zm-5.04.784a.393.393 0 100-.784v.784zm-5.04-.784a.392.392 0 000 .784v-.784zm-5.04.784a.393.393 0 100-.784v.784zm-5.039-.784a.393.393 0 100 .784v-.784zm-5.04.784a.393.393 0 000-.784v.784zm-5.04-.784a.392.392 0 100 .784v-.784zm-5.04.784a.392.392 0 100-.784v.784zm-5.04-.784a.392.392 0 100 .784v-.784zm-5.04.784a.393.393 0 100-.784v.784zm-5.04-.784a.392.392 0 000 .784v-.784zm-5.039.784a.393.393 0 000-.784v.784zm-5.04-.784a.393.393 0 100 .784v-.784zm-5.04.784a.392.392 0 100-.784v.784zm-5.04-.784a.392.392 0 100 .784v-.784zm-5.04.784a.392.392 0 100-.784v.784zm-5.04-.784a.392.392 0 100 .784v-.784zm-5.04.784a.393.393 0 100-.784v.784zm-5.04-.784a.392.392 0 000 .784v-.784zm-5.039.784a.393.393 0 000-.784v.784zm-5.04-.784a.393.393 0 100 .784v-.784zm-5.04.784a.392.392 0 100-.784v.784zm-5.04-.784a.392.392 0 100 .784v-.784zm-5.04.784a.392.392 0 100-.784v.784zm-5.04-.784a.392.392 0 000 .784v-.784zm-5.04.784a.392.392 0 000-.784v.784zm-5.04-.784a.392.392 0 100 .784v-.784zm-5.04.784a.392.392 0 000-.784v.784zm-5.04-.784a.392.392 0 000 .784v-.784zm-5.04.784a.392.392 0 000-.784v.784zm-5.039-.784a.392.392 0 100 .784v-.784zm-5.04.784a.392.392 0 000-.784v.784zm-5.04-.784a.392.392 0 100 .784v-.784zm-5.04.784a.392.392 0 000-.784v.784zm-5.04-.784a.392.392 0 000 .784v-.784zm-5.04.784a.392.392 0 000-.784v.784zm-5.04-.784a.392.392 0 100 .784v-.784zm-5.04.784a.392.392 0 000-.784v.784zm-5.039-.784a.392.392 0 000 .784v-.784zm-5.04.784a.392.392 0 000-.784v.784zm-5.04-.784a.392.392 0 100 .784v-.784zm-5.04.784a.392.392 0 000-.784v.784zm-2.52-.784c-.584 0-1.142.116-1.652.327l.301.725a3.518 3.518 0 011.352-.268v-.784zM9.936 12.27a4.305 4.305 0 00-.327 1.653h.784c0-.48.096-.936.268-1.352l-.725-.3zm-.327 1.653v2.518h.784v-2.518h-.784zm0 7.553v5.036h.784v-5.036h-.784zm0 10.072v5.036h.784V31.55h-.784zm0 10.072v5.036h.784V41.62h-.784zm0 10.072v5.036h.784v-5.036h-.784zm0 10.072V66.8h.784v-5.035h-.784zm0 10.071v5.036h.784v-5.036h-.784zm0 10.072v5.036h.784v-5.036h-.784zm0 10.072v5.036h.784V91.98h-.784zm0 10.072v5.035h.784v-5.035h-.784zm0 10.071v5.036h.784v-5.036h-.784zm0 10.072v5.036h.784v-5.036h-.784zm0 10.072v5.036h.784v-5.036h-.784zm0 10.072v5.035h.784v-5.035h-.784zm0 10.071v5.036h.784v-5.036h-.784zm0 10.072v5.036h.784v-5.036h-.784zm0 10.072v5.036h.784v-5.036h-.784zm0 10.072v5.035h.784v-5.035h-.784zm0 10.071v5.036h.784v-5.036h-.784zm0 10.072v5.036h.784v-5.036h-.784zm0 10.072v5.036h.784v-5.036h-.784zm0 10.072v5.035h.784v-5.035h-.784zm0 10.071v5.036h.784v-5.036h-.784zm0 10.072v5.036h.784v-5.036h-.784zm0 10.072v5.036h.784v-5.036h-.784zm0 10.072v5.035h.784V263.2h-.784zm0 10.071v5.036h.784v-5.036h-.784zm0 10.072v5.036h.784v-5.036h-.784zm0 10.072v5.036h.784v-5.036h-.784zm0 10.072v5.035h.784v-5.035h-.784zm0 10.071v2.518h.784v-2.518h-.784zm0 2.518c0 .585.116 1.143.327 1.653l.725-.301a3.52 3.52 0 01-.268-1.352h-.784zm2.663 3.989c.51.211 1.068.327 1.653.327v-.784c-.48 0-.936-.096-1.352-.268l-.3.725zm1.653.327h2.59v-.784h-2.59v.784zm7.771 0h5.181v-.784h-5.18v.784zm10.362 0h5.181v-.784h-5.18v.784zm10.362 0h5.182v-.784H42.42v.784zm10.363 0h5.18v-.784h-5.18v.784zm10.362 0h5.18v-.784h-5.18v.784zm10.362 0h5.18v-.784h-5.18v.784zm10.362 0h5.181v-.784h-5.181v.784zm10.362 0h2.59v-.784h-2.59v.784zm2.953-.242c.143-.345.285-.686.425-1.019l-.723-.305c-.14.335-.284.678-.427 1.024l.725.3zm1.295-3.05c.157-.363.307-.702.444-1.011l-.717-.318c-.138.31-.288.651-.447 1.016l.72.313zm.477-1.183a19.09 19.09 0 01.058-2.159l-.782-.064a19.806 19.806 0 00-.06 2.249l.784-.026zm.804-6.437a36.087 36.087 0 011.363-4.146l-.73-.288A36.694 36.694 0 0099 309.283l.76.197zm3.164-8.135a55.076 55.076 0 012.137-3.827l-.67-.409a56.335 56.335 0 00-2.167 3.882l.7.354zm4.568-7.473c.48-.658.929-1.238 1.331-1.727l-.606-.498a39.413 39.413 0 00-1.359 1.763l.634.462zm1.419-2.016a4.463 4.463 0 01-.009-.783l-.783-.058c-.022.295-.021.604.011.92l.781-.079zm.343-2.33c.121-.316.246-.557.335-.698l-.663-.419a4.894 4.894 0 00-.405.836l.733.281zm.004-.515c.3 0 .664-.104 1.055-.258.401-.159.869-.388 1.39-.673l-.377-.689c-.506.277-.942.49-1.302.632-.369.146-.62.203-.766.203v.785zm6.611-3.559a148.03 148.03 0 003.995-2.841l-.464-.632a153.023 153.023 0 01-3.974 2.826l.443.647zm7.913-5.775c.65-.495 1.298-.994 1.94-1.491l-.48-.62c-.64.495-1.287.993-1.936 1.487l.476.624zm1.995-1.542a12.543 12.543 0 011.803-1.661l-.478-.622a13.377 13.377 0 00-1.915 1.765l.59.518zm6.079-4.2a46.215 46.215 0 014.654-1.881l-.257-.741a46.778 46.778 0 00-4.734 1.913l.337.709zm9.47-3.361c.93-.256 1.759-.469 2.441-.645l-.196-.76c-.682.176-1.516.391-2.452.648l.207.757zm2.441-.645l.386-.1-.196-.76-.386.1.196.76zm1.163-.305c.149-.04.281-.078.394-.112l-.228-.751a13.15 13.15 0 01-.373.106l.207.757zm.394-.112c.39-.119 1.073-.324 1.999-.601l-.225-.752c-.926.277-1.61.483-2.002.602l.228.751zm6.005-1.792c1.21-.358 2.556-.755 4.01-1.182l-.221-.753c-1.454.427-2.802.824-4.012 1.183l.223.752zm8.022-2.356l2.008-.585-.219-.753c-.681.197-1.351.393-2.008.584l.219.754zm1.991-.58l2.236-.541-.185-.763-2.235.541.184.763zm6.707-1.622l4.47-1.082-.184-.762-4.471 1.081.185.763zm8.941-2.163l2.236-.541-.185-.762-2.235.54.184.763zm2.21-.535a74.797 74.797 0 002.405-.459l-.16-.768c-.782.162-1.576.315-2.378.453l.133.774zm7.158-1.605a84.491 84.491 0 004.677-1.423l-.25-.743a83.494 83.494 0 01-4.634 1.409l.207.757zm9.261-3.147a20.108 20.108 0 001.658-.782c.185-.101.341-.197.449-.281a.775.775 0 00.169-.176.462.462 0 00.075-.215.42.42 0 00-.124-.331l-.551.558a.364.364 0 01-.107-.287.318.318 0 01.051-.155c.021-.032.034-.037.001-.011a2.666 2.666 0 01-.34.21c-.345.189-.884.446-1.59.748l.309.722zm2.227-1.785c.003.003-.028-.034-.084-.155a4.23 4.23 0 01-.163-.422l-.743.251c.062.186.128.358.194.501.06.13.14.28.245.383l.551-.558zm-.658-2.104c-.06-.276-.113-.542-.152-.777l-.774.13c.042.25.097.529.16.816l.766-.169zm-.151-.771c-.125-.818-.18-1.448-.154-1.96l-.784-.039c-.03.591.035 1.283.162 2.117l.776-.118zm2.034-4.674a47.432 47.432 0 011.808-.924l-.348-.704c-.708.35-1.32.655-1.838.94l.378.688zm1.808-.924c.87-.43 1.872-.793 2.937-1.094l-.213-.755c-1.098.31-2.147.689-3.072 1.145l.348.704zm9.181-2.133c1.213-.081 2.302-.081 3.15-.013l.063-.782c-.896-.072-2.025-.07-3.264.012l.051.783zm3.182-.404l.231.317h.001l.001-.001.007-.005.026-.019.105-.076.404-.295 1.526-1.112-.462-.634-1.526 1.111-.405.296-.104.076-.026.019a.068.068 0 00-.007.005l-.002.001.231.317zm6.457-4.213l4.166-3.024-.46-.635a4612.594 4612.594 0 00-4.167 3.024l.461.635zm8.33-6.039c1.366-.988 2.766-1.999 4.169-3.011l-.459-.636a5453.925 5453.925 0 00-4.17 3.011l.46.636zm8.343-6.015c1.434-1.03 2.839-2.037 4.181-2.994l-.456-.639c-1.342.958-2.748 1.965-4.183 2.996l.458.637zm8.365-5.968c.745-.526 1.449-1.021 2.101-1.477l-.45-.643c-.653.457-1.358.952-2.103 1.479l.452.641zm2.086-1.467c.666-.423 1.44-.907 2.3-1.436l-.411-.669c-.864.532-1.64 1.017-2.309 1.442l.42.663zm6.966-4.227a198.542 198.542 0 014.734-2.669l-.375-.689c-1.659.904-3.26 1.811-4.754 2.68l.395.678zm9.546-5.191c1.64-.821 3.29-1.605 4.905-2.316l-.317-.718c-1.629.717-3.29 1.506-4.94 2.333l.352.701zm9.936-4.309a38.605 38.605 0 012.573-.792l-.202-.758a39.51 39.51 0 00-2.626.808l.255.742zm2.573-.792a97.164 97.164 0 013.523-.858l-.172-.765c-1.287.29-2.481.579-3.553.865l.202.758zm10.647-2.315c1.171-.221 2.369-.439 3.579-.654l-.138-.773c-1.212.215-2.412.434-3.587.656l.146.771zm3.902-1.04v-2.601h-.784v2.601h.784zm0-7.802v-5.201h-.784v5.201h.784zm0-10.402v-5.201h-.784v5.201h.784zm0-10.402v-5.201h-.784v5.201h.784zm0-10.402v-5.202h-.784v5.202h.784zm0-10.403v-5.201h-.784v5.201h.784zm0-10.402v-5.201h-.784v5.201h.784zm0-10.402v-5.201h-.784v5.201h.784zm0-10.402v-5.201h-.784v5.201h.784zm0-10.402v-5.201h-.784v5.201h.784zm0-10.402v-5.201h-.784v5.2h.784zm0-10.403v-5.2h-.784v5.2h.784zm0-10.402v-2.6h-.784v2.6h.784zm-.125-2.888l-1.483-1.376-.534.576 1.483 1.375.534-.575zm-4.449-4.127l-2.967-2.752-.533.575 2.966 2.752.534-.575zm-5.933-5.504l-1.483-1.375-.533.575 1.483 1.376.533-.576zm-1.483-1.375a1.552 1.552 0 01-.371-.523l-.72.314c.126.288.312.556.558.784l.533-.575zm-.371-1.78c.083-.19.206-.369.371-.522l-.533-.575a2.345 2.345 0 00-.558.784l.72.314zm.371-.522l1.483-1.375-.533-.576-1.483 1.376.533.575zm4.449-4.127l2.967-2.752-.534-.575-2.966 2.752.533.575zm5.933-5.503l1.483-1.376-.534-.575-1.483 1.376.534.575zm1.608-1.664V49.27h-.784v2.356h.784zm0-7.069v-4.712h-.784v4.712h.784zm0-9.425v-4.713h-.784v4.713h.784zm0-9.426v-4.712h-.784v4.712h.784zm0-9.425v-2.356h-.784v2.356h.784zm0-2.356c0-.585-.116-1.143-.327-1.653l-.725.301c.172.416.268.872.268 1.352h.784zm-2.663-3.989a4.308 4.308 0 00-1.653-.327v.784c.48 0 .936.096 1.352.268l.301-.725zm-1.653-.327h-2.52v.784h2.52v-.784zm-7.559 0h-5.04v.784h5.04v-.784zm-10.08 0h-5.04v.784h5.04v-.784zm-10.08 0h-5.04v.784h5.04v-.784zm-10.08 0h-5.039v.784h5.039v-.784zm-10.079 0h-5.04v.784h5.04v-.784zm-10.08 0h-5.04v.784h5.04v-.784zm-10.08 0h-5.04v.784h5.04v-.784zm-10.08 0h-5.039v.784h5.039v-.784zm-10.079 0h-5.04v.784h5.04v-.784zm-10.08 0h-5.04v.784h5.04v-.784zm-10.08 0h-5.04v.784h5.04v-.784zm-10.079 0h-5.04v.784h5.04v-.784zm-10.08 0h-5.04v.784h5.04v-.784zm-10.08 0h-5.04v.784h5.04v-.784zm-10.08 0h-5.04v.784h5.04v-.784zm-10.079 0h-5.04v.784h5.04v-.784zm-10.08 0h-5.04v.784h5.04v-.784zm-10.08 0h-5.04v.784h5.04v-.784zm-10.08 0h-5.04v.784h5.04v-.784zm-10.08 0h-5.04v.784h5.04v-.784zm-10.08 0h-5.039v.784h5.04v-.784zm-10.079 0h-5.04v.784h5.04v-.784zm-10.08 0h-5.04v.784h5.04v-.784zm-10.08 0h-5.04v.784h5.04v-.784zm-10.08 0h-5.039v.784h5.04v-.784zm-10.079 0h-5.04v.784h5.04v-.784zm-10.08 0h-2.52v.784h2.52v-.784z" fill="#E5E5E5"/><g filter="url(#filter0_f)"><path d="M256.472 217.369c-10.325 7.222-36.951 26.332-36.951 26.332-3.012-.243-8.85.364-12.537 2.185-3.892 1.922-4.61 2.367-4.057 6.008.185 1.093.627 2.804.922 3.096.316.312-8.435 4.142-18.437 5.871l-17.883 4.325m-16.041 4.734c-2.396.728-14.933 3.277-19.727 8.74-6.822 5.28-14.381 10.742-16.225 10.742-.307.486-.885 1.821-.737 3.278-3.442 4.187-17.007 22.094-16.712 31.271m53.401-54.031a1729.51 1729.51 0 0116.041-4.734m-16.041 4.734l16.041-4.734" stroke="#000" stroke-opacity=".6" stroke-width="2.354"/></g><g filter="url(#filter1_f)"><path d="M260.788 219.328c-10.325 7.222-36.951 26.332-36.951 26.332-3.011-.243-8.85.364-12.537 2.184-3.892 1.922-4.609 2.367-4.056 6.009.184 1.092.627 2.804.922 3.095.315.312-8.436 4.142-18.437 5.871l-17.884 4.326m-16.04 4.734c-2.397.728-18.58 4.094-23.374 9.556-6.821 5.28-16.997 12.735-18.841 12.735-.307.485-.736 2.266-.589 3.722-3.441 4.188-10.893 16.49-10.598 25.666m53.402-51.679c1.596-.486 8.055-2.415 16.04-4.734m-16.04 4.734l16.04-4.734" stroke="#000" stroke-opacity=".6" stroke-width="1.569"/></g><defs><filter id="filter0_f" x="83.172" y="202.672" width="187.707" height="135.049" filterUnits="userSpaceOnUse" color-interpolation-filters="sRGB"><feFlood flood-opacity="0" result="BackgroundImageFix"/><feBlend in="SourceGraphic" in2="BackgroundImageFix" result="shape"/><feGaussianBlur stdDeviation="6.866" result="effect1_foregroundBlur"/></filter><filter id="filter1_f" x="93.762" y="210.837" width="175.323" height="120.593" filterUnits="userSpaceOnUse" color-interpolation-filters="sRGB"><feFlood flood-opacity="0" result="BackgroundImageFix"/><feBlend in="SourceGraphic" in2="BackgroundImageFix" result="shape"/><feGaussianBlur stdDeviation="3.924" result="effect1_foregroundBlur"/></filter></defs></svg>