<svg width="587" height="533" fill="none" xmlns="http://www.w3.org/2000/svg"><g filter="url(#filter0_d)"><path fill-rule="evenodd" clip-rule="evenodd" d="M45.633 52.414a6.489 6.489 0 016.489-6.49h482.022a6.489 6.489 0 016.489 6.49v32.981l-18.788 17.363a3.245 3.245 0 000 4.766l18.788 17.362v155.29c-5.335 1.074-10.204 2.163-14.124 3.219-16.359 4.407-41.005 19.333-51.284 25.921-18.176 12.853-58.749 42.77-58.749 42.77-5.301-.432-15.579.648-22.071 3.888-6.852 3.42-8.114 4.212-7.141 10.693.325 1.944 1.104 4.989 1.623 5.508.556.555-14.85 7.371-32.458 10.447l-31.484 7.698c-14.056 4.127-25.428 7.561-28.238 8.424-.587.18-1.52.423-2.713.734-7.385 1.925-24.752 6.451-32.017 14.819-12.01 9.396-25.317 19.116-28.563 19.116-.541.865-1.558 3.241-1.299 5.833-6.058 7.452-18.046 26.439-17.527 42.77-.58 1.32-1.282 2.952-2.024 4.722H52.122a6.489 6.489 0 01-6.49-6.489V52.414z" fill="#fff"/></g><path fill-rule="evenodd" clip-rule="evenodd" d="M57.504 64.263a6.489 6.489 0 016.489-6.489h458.281a6.489 6.489 0 016.489 6.49v19.728a3.194 3.194 0 00-3.328.666l-20.224 18.76a3.246 3.246 0 00.001 4.758l20.223 18.76a3.195 3.195 0 003.328.666v151.605c-10.317 1.77-20.519 3.745-27.51 5.608-15.367 4.095-38.52 17.967-48.175 24.09-17.075 11.944-55.189 39.747-55.189 39.747-4.98-.402-14.635.602-20.734 3.613-6.436 3.178-7.622 3.915-6.707 9.937.304 1.807 1.036 4.637 1.524 5.119.522.516-13.951 6.85-30.491 9.709l-29.576 7.153c-13.204 3.836-23.886 7.027-26.527 7.829-.551.168-1.426.394-2.546.682l-.002.001c-6.937 1.788-23.252 5.994-30.077 13.771-11.281 8.732-23.783 17.766-26.832 17.766-.508.803-1.463 3.011-1.219 5.42-5.692 6.925-16.953 24.571-16.465 39.747-.665 1.497-1.5 3.423-2.366 5.489H63.993a6.489 6.489 0 01-6.49-6.489V64.263z" fill="#fff"/><path d="M528.763 83.992l-.226.608.875.324v-.932h-.649zm-3.328.666l.441.475-.441-.475zm-20.224 18.76l-.441-.475.441.475zm.001 4.758l.441-.476-.441.476zm20.223 18.76l.441-.476-.441.476zm3.328.666h.649v-.932l-.875.324.226.608zm0 151.605l.11.64.539-.093v-.547h-.649zm-27.51 5.608l.167.627-.167-.627zm-48.175 24.09l-.348-.548-.012.007-.012.009.372.532zm-55.189 39.747l-.052.647.24.019.195-.142-.383-.524zm-20.734 3.613l-.287-.582.287.582zm-6.707 9.937l-.642.097.002.011.64-.108zm1.524 5.119l-.456.462.456-.462zm-30.491 9.709l-.11-.639-.021.003-.021.005.152.631zm-29.576 7.153l-.152-.63-.015.003-.014.004.181.623zm-26.527 7.829l.189.621-.189-.621zm-2.546.682l.157.63.005-.001-.162-.629zm-.002.001l-.158-.63-.004.002.162.628zm-30.077 13.771l.397.513.05-.038.041-.047-.488-.428zm-26.832 17.766v-.649h-.357l-.191.302.548.347zm-1.219 5.42l.501.412.171-.209-.027-.269-.645.066zm-16.465 39.747l.593.263.06-.135-.005-.149-.648.021zm-2.366 5.489v.649h.432l.167-.398-.599-.251zM61.261 57.668a.649.649 0 10.496 1.198l-.497-1.199zm-2.665 4.36a.649.649 0 10-1.2-.497l1.2.497zm-1.741 6.445a.649.649 0 101.298 0h-1.298zm1.298 8.42a.649.649 0 00-1.298 0h1.298zm-1.298 8.419a.649.649 0 101.298 0h-1.298zm1.298 8.42a.649.649 0 00-1.298 0h1.298zm-1.298 8.419a.65.65 0 001.298 0h-1.298zm1.298 8.42a.649.649 0 10-1.298 0h1.298zm-1.298 8.419a.65.65 0 001.298 0h-1.298zm1.298 8.42a.649.649 0 10-1.298 0h1.298zm-1.298 8.419a.65.65 0 001.298 0h-1.298zm1.298 8.42a.649.649 0 10-1.298 0h1.298zm-1.298 8.419a.65.65 0 001.298 0h-1.298zm1.298 8.42a.649.649 0 10-1.298 0h1.298zm-1.298 8.419a.65.65 0 001.298 0h-1.298zm1.298 8.42a.649.649 0 10-1.298 0h1.298zm-1.298 8.419a.65.65 0 001.298 0h-1.298zm1.298 8.42a.649.649 0 10-1.298 0h1.298zm-1.298 8.419a.65.65 0 001.298 0h-1.298zm1.298 8.42a.649.649 0 10-1.298 0h1.298zm-1.298 8.419a.65.65 0 001.298 0h-1.298zm1.298 8.42a.649.649 0 10-1.298 0h1.298zm-1.298 8.419a.65.65 0 001.298 0h-1.298zm1.298 8.42a.649.649 0 10-1.298 0h1.298zm-1.298 8.419a.65.65 0 001.298 0h-1.298zm1.298 8.42a.649.649 0 10-1.298 0h1.298zm-1.298 8.419a.65.65 0 001.298 0h-1.298zm1.298 8.419a.648.648 0 00-1.298 0h1.298zm-1.298 8.42a.65.65 0 001.298 0h-1.298zm1.298 8.419a.648.648 0 00-1.298 0h1.298zm-1.298 8.42a.65.65 0 001.298 0h-1.298zm1.298 8.419a.648.648 0 00-1.298 0h1.298zm-1.298 8.42a.65.65 0 001.298 0h-1.298zm1.298 8.419a.648.648 0 00-1.298 0h1.298zm-1.298 8.42a.65.65 0 001.298 0h-1.298zm1.298 8.419a.648.648 0 00-1.298 0h1.298zm-1.298 8.42a.65.65 0 001.298 0h-1.298zm1.298 8.419a.648.648 0 00-1.298 0h1.298zm-1.298 8.42a.65.65 0 001.298 0h-1.298zm1.298 8.419a.648.648 0 00-1.298 0h1.298zm-1.298 8.42a.65.65 0 001.298 0h-1.298zm1.298 8.419a.648.648 0 00-1.298 0h1.298zm-1.298 8.42a.65.65 0 001.298 0h-1.298zm1.298 8.419a.648.648 0 00-1.298 0h1.298zm-1.298 8.42a.65.65 0 001.298 0h-1.298zm1.298 8.419a.648.648 0 00-1.298 0h1.298zm-1.298 8.42a.65.65 0 001.298 0h-1.298zm1.298 8.419a.648.648 0 00-1.298 0h1.298zm-1.298 8.42a.65.65 0 001.298 0h-1.298zm1.298 8.419a.648.648 0 00-1.298 0h1.298zm-.756 6.943a.65.65 0 001.199-.497l-1.2.497zm4.36 2.664a.65.65 0 00-.497 1.199l.498-1.199zm6.67 1.741a.649.649 0 100-1.298v1.298zm8.867-1.298a.65.65 0 000 1.298v-1.298zm8.867 1.298a.649.649 0 100-1.298v1.298zm8.868-1.298a.65.65 0 000 1.298v-1.298zm8.867 1.298a.648.648 0 100-1.298v1.298zm8.868-1.298a.649.649 0 100 1.298v-1.298zm8.867 1.298a.649.649 0 100-1.298v1.298zm8.867-1.298a.649.649 0 000 1.298v-1.298zm8.868 1.298a.649.649 0 100-1.298v1.298zm8.867-1.298a.65.65 0 000 1.298v-1.298zm8.868 1.298a.649.649 0 100-1.298v1.298zm8.867-1.298a.65.65 0 000 1.298v-1.298zm8.867 1.298a.648.648 0 100-1.298v1.298zm8.868-1.298a.65.65 0 000 1.298v-1.298zm8.867 1.298a.648.648 0 100-1.298v1.298zm8.868-1.298a.649.649 0 100 1.298v-1.298zm5.612-.474a.649.649 0 10-1.195-.507l1.195.507zm-.01-3.258a.648.648 0 101.189.519l-1.189-.519zm1.94-4.701a.649.649 0 00-1.294-.105l1.294.105zm-.022-7.399a.65.65 0 001.256.326l-1.256-.326zm3.51-6.531a.649.649 0 10-1.207-.476l1.207.476zm1.82-7.183a.649.649 0 101.158.586l-1.158-.586zm4.693-5.743a.649.649 0 10-1.108-.676l1.108.676zm2.971-6.794a.65.65 0 001.048.765l-1.048-.765zm3.381-3.865a.649.649 0 10-1.294-.097l1.294.097zm-.63-3.023a.649.649 0 101.212.464l-1.212-.464zm5.262-1.927a.649.649 0 10-.623-1.139l.623 1.139zm6.158-5.417a.648.648 0 10.733 1.072l-.733-1.072zm7.339-3.627a.649.649 0 10-.768-1.046l.768 1.046zm5.693-5.884a.649.649 0 10.787 1.031l-.787-1.031zm7.067-4.265a.65.65 0 00-.79-1.03l.79 1.03zm6.514-5.371a.649.649 0 00.558 1.172l-.558-1.172zm8.255-1.939a.649.649 0 10-.426-1.226l.426 1.226zm7.621-3.7a.649.649 0 10.344 1.251l-.344-1.251zm4.375.186a.65.65 0 00-.314-1.259l.314 1.259zm-.313-1.259a.648.648 0 10.315 1.259l-.315-1.259zm.959 1.093a.649.649 0 10-.326-1.257l.326 1.257zm.941-1.591a.649.649 0 10.342 1.252l-.342-1.252zm4.298.073a.649.649 0 10-.371-1.244l.371 1.244zm6.258-3.214a.647.647 0 10.368 1.244l-.368-1.244zm6.999-.711a.649.649 0 00-.365-1.245l.365 1.245zm6.273-3.188a.65.65 0 00.364 1.246l-.364-1.246zm7.353-.607a.649.649 0 00-.305-1.261l.305 1.261zm7.089-3.05a.648.648 0 10.305 1.262l-.305-1.262zm7.699-.527a.649.649 0 00-.305-1.261l.305 1.261zm7.089-3.049a.649.649 0 10.305 1.261l-.305-1.261zm7.936-.383a.65.65 0 00-.265-1.271l.265 1.271zm7.519-3.147a.648.648 0 10.341 1.252l-.341-1.252zm8.077-1.101a.65.65 0 00-.414-1.23l.414 1.23zm7.069-4.045a.65.65 0 00.511 1.193l-.511-1.193zm3.786-2.713a.648.648 0 10-1.229.415l1.229-.415zm-1.946-2.246a.649.649 0 101.267-.279l-1.267.279zm.761-4.796a.65.65 0 00-1.296-.064l1.296.064zm2.994-5.625a.648.648 0 10.625 1.137l-.625-1.137zm8.472-2.2a.649.649 0 10-.352-1.249l.352 1.249zm10.242-3.014a.648.648 0 10.085 1.295l-.085-1.295zm9.153-1.342a.649.649 0 00-.764-1.049l.764 1.049zm6.11-6.049a.65.65 0 00.763 1.05l-.763-1.05zm7.653-3.95a.65.65 0 00-.762-1.051l.762 1.051zm6.125-6.038a.648.648 0 10.76 1.052l-.76-1.052zm7.655-3.927a.649.649 0 10-.759-1.053l.759 1.053zm6.146-6.023a.649.649 0 10.757 1.054l-.757-1.054zm7.672-3.898a.65.65 0 00-.754-1.056l.754 1.056zm6.171-5.978a.65.65 0 00.749 1.06l-.749-1.06zm8.002-3.741a.649.649 0 10-.679-1.106l.679 1.106zm7.064-5.737a.649.649 0 10.652 1.122l-.652-1.122zm8.482-3.293a.648.648 0 10-.621-1.139l.621 1.139zm7.376-5.33a.65.65 0 10.581 1.16l-.581-1.16zm8.693-2.67a.65.65 0 00-.523-1.188l.523 1.188zm7.898-4.524a.65.65 0 00.422 1.227l-.422-1.227zm8.065-.935a.65.65 0 00-.302-1.262l.302 1.262zm6.57-2.788a.65.65 0 00.265 1.271l-.265-1.271zm7.141-.092a.648.648 0 10-.241-1.275l.241 1.275zm6.673-2.539a.65.65 0 00.226 1.278l-.226-1.278zm4.221-4.174a.649.649 0 10-1.298 0h1.298zm-1.298-8.423a.648.648 0 101.298 0h-1.298zm1.298-8.422a.649.649 0 10-1.298 0h1.298zm-1.298-8.423a.648.648 0 101.298 0h-1.298zm1.298-8.422a.649.649 0 10-1.298 0h1.298zm-1.298-8.423a.648.648 0 101.298 0h-1.298zm1.298-8.422a.649.649 0 10-1.298 0h1.298zm-1.298-8.423a.648.648 0 101.298 0h-1.298zm1.298-8.422a.649.649 0 10-1.298 0h1.298zm-1.298-8.423a.648.648 0 101.298 0h-1.298zm1.298-8.422a.649.649 0 10-1.298 0h1.298zm-1.298-8.423a.648.648 0 101.298 0h-1.298zm1.298-8.422a.649.649 0 10-1.298 0h1.298zm-1.298-8.423a.648.648 0 101.298 0h-1.298zm1.298-8.422a.649.649 0 10-1.298 0h1.298zm-1.298-8.423a.648.648 0 101.298 0h-1.298zm1.298-8.422a.65.65 0 00-1.298 0h1.298zm-1.298-8.423a.648.648 0 101.298 0h-1.298zm-.276-4.663a.649.649 0 10.11 1.293l-.11-1.293zm-1.976.877a.65.65 0 00.6-1.151l-.6 1.151zm-2.514-3.912a.65.65 0 00-.882.952l.882-.952zm-5.938-3.738a.65.65 0 00.882-.952l-.882.952zm-4.173-5.642a.65.65 0 00-.883.951l.883-.951zm-5.939-3.739a.648.648 0 10.883-.951l-.883.951zm-2.26-4.16a.648.648 0 10-1.19.518l1.19-.518zm-1.19-2.596a.65.65 0 001.19.518l-1.19-.518zm4.333-2.691a.65.65 0 00-.883-.951l.883.951zm4.173-5.642a.648.648 0 10.883.952l-.883-.952zm5.938-3.738a.648.648 0 10-.882-.952l.882.952zm4.174-5.642a.65.65 0 00.882.952l-.882-.952zm3.996-1.81a.65.65 0 10-.6-1.15l.6 1.15zm1.486-1.567a.649.649 0 10-.11 1.294l.11-1.294zm1.464-4.09a.65.65 0 00-1.298 0h1.298zm-1.298-9.865a.649.649 0 101.298 0h-1.298zm.756-7.664a.649.649 0 10-1.199.497l1.199-.497zm-4.361-2.665a.649.649 0 10.497-1.199l-.497 1.2zm-6.478-1.74a.649.649 0 100 1.297v-1.297zm-8.487 1.297a.65.65 0 000-1.297v1.297zm-8.487-1.297a.65.65 0 000 1.297v-1.297zm-8.486 1.297a.648.648 0 000-1.297v1.297zm-8.487-1.297a.65.65 0 000 1.297v-1.297zm-8.487 1.297a.649.649 0 100-1.297v1.297zm-8.486-1.297a.649.649 0 100 1.297v-1.297zm-8.487 1.297a.65.65 0 000-1.297v1.297zm-8.487-1.297a.65.65 0 000 1.297v-1.297zm-8.487 1.297a.649.649 0 100-1.297v1.297zm-8.486-1.297a.649.649 0 100 1.297v-1.297zm-8.487 1.297a.65.65 0 000-1.297v1.297zm-8.487-1.297a.65.65 0 000 1.297v-1.297zm-8.486 1.297a.65.65 0 000-1.297v1.297zm-8.487-1.297a.65.65 0 000 1.297v-1.297zm-8.487 1.297a.649.649 0 100-1.297v1.297zm-8.486-1.297a.649.649 0 100 1.297v-1.297zm-8.487 1.297a.65.65 0 000-1.297v1.297zm-8.487-1.297a.65.65 0 000 1.297v-1.297zm-8.486 1.297a.648.648 0 000-1.297v1.297zm-8.487-1.297a.649.649 0 100 1.297v-1.297zm-8.487 1.297a.649.649 0 100-1.297v1.297zm-8.487-1.297a.648.648 0 000 1.297v-1.297zm-8.486 1.297a.65.65 0 000-1.297v1.297zm-8.487-1.297a.65.65 0 000 1.297v-1.297zm-8.487 1.297a.649.649 0 100-1.297v1.297zm-8.486-1.297a.649.649 0 100 1.297v-1.297zm-8.487 1.297a.65.65 0 000-1.297v1.297zm-8.487-1.297a.65.65 0 000 1.297v-1.297zm-8.486 1.297a.648.648 0 000-1.297v1.297zm-8.487-1.297a.65.65 0 000 1.297v-1.297zm-8.487 1.297a.649.649 0 100-1.297v1.297zm-8.486-1.297a.649.649 0 100 1.297v-1.297zm-8.487 1.297a.65.65 0 000-1.297v1.297zm-8.487-1.297a.65.65 0 000 1.297v-1.297zm-8.487 1.297a.649.649 0 100-1.297v1.297zm-8.486-1.297a.649.649 0 100 1.297v-1.297zm-8.487 1.297a.65.65 0 000-1.297v1.297zm-8.487-1.297a.65.65 0 000 1.297v-1.297zm-8.486 1.297a.65.65 0 000-1.297v1.297zm-8.487-1.297a.65.65 0 000 1.297v-1.297zm-8.487 1.297a.649.649 0 100-1.297v1.297zm-8.486-1.297a.649.649 0 100 1.297v-1.297zm-8.487 1.297a.65.65 0 000-1.297v1.297zm-8.487-1.297a.65.65 0 000 1.297v-1.297zm-8.487 1.297a.649.649 0 100-1.297v1.297zm-8.486-1.297a.649.649 0 100 1.297v-1.297zm-8.487 1.297a.65.65 0 000-1.297v1.297zm-8.487-1.297a.648.648 0 000 1.297v-1.297zm-8.486 1.297a.65.65 0 000-1.297v1.297zm-8.487-1.297a.649.649 0 100 1.297v-1.297zm-8.487 1.297a.649.649 0 100-1.297v1.297zm-8.486-1.297a.649.649 0 000 1.297v-1.297zm-8.487 1.297a.649.649 0 100-1.297v1.297zm-4.243-1.297c-.967 0-1.89.192-2.733.541l.498 1.2a5.82 5.82 0 012.235-.444v-1.297zm-6.596 4.405a7.118 7.118 0 00-.542 2.732h1.298c0-.793.157-1.547.443-2.235l-1.2-.497zm-.542 2.732v4.21h1.298v-4.21h-1.298zm0 12.63v8.419h1.298v-8.42h-1.298zm0 16.838v8.42h1.298v-8.42h-1.298zm0 16.84v8.419h1.298v-8.419h-1.298zm0 16.839v8.419h1.298v-8.419h-1.298zm0 16.839v8.419h1.298v-8.419h-1.298zm0 16.839v8.419h1.298v-8.419h-1.298zm0 16.839v8.419h1.298v-8.419h-1.298zm0 16.839v8.419h1.298v-8.419h-1.298zm0 16.839v8.419h1.298v-8.419h-1.298zm0 16.839v8.419h1.298v-8.419h-1.298zm0 16.839v8.419h1.298v-8.419h-1.298zm0 16.839v8.419h1.298v-8.419h-1.298zm0 16.838v8.42h1.298v-8.42h-1.298zm0 16.839v8.42h1.298v-8.42h-1.298zm0 16.839v8.42h1.298v-8.42h-1.298zm0 16.839v8.42h1.298v-8.42h-1.298zm0 16.839v8.42h1.298v-8.42h-1.298zm0 16.839v8.42h1.298v-8.42h-1.298zm0 16.839v8.42h1.298v-8.42h-1.298zm0 16.839v8.42h1.298v-8.42h-1.298zm0 16.839v8.42h1.298v-8.42h-1.298zm0 16.839v8.42h1.298v-8.42h-1.298zm0 16.839v8.42h1.298v-8.42h-1.298zm0 16.839v4.21h1.298v-4.21h-1.298zm0 4.21c0 .967.193 1.89.542 2.733l1.199-.497a5.825 5.825 0 01-.443-2.236h-1.298zm4.405 6.596a7.11 7.11 0 002.733.542v-1.298a5.805 5.805 0 01-2.236-.443l-.497 1.199zm2.733.542h4.434v-1.298h-4.434v1.298zm13.3 0h8.868v-1.298h-8.867v1.298zm17.736 0h8.867v-1.298h-8.867v1.298zm17.735 0h8.867v-1.298h-8.867v1.298zm17.734 0h8.868v-1.298h-8.868v1.298zm17.735 0h8.868v-1.298h-8.868v1.298zm17.735 0h8.867v-1.298h-8.867v1.298zm17.735 0h8.867v-1.298h-8.867v1.298zm17.735 0h4.433v-1.298h-4.433v1.298zm5.032-.398c.195-.466.389-.925.58-1.374l-1.195-.507c-.191.45-.386.911-.582 1.38l1.197.501zm1.759-4.113c.212-.484.413-.941.601-1.364l-1.187-.526a249.6 249.6 0 00-.603 1.371l1.189.519zm.656-1.648a31.508 31.508 0 01.095-3.572l-1.294-.105a32.642 32.642 0 00-.098 3.719l1.297-.042zm1.329-10.645a59.656 59.656 0 012.254-6.857l-1.207-.476a60.597 60.597 0 00-2.303 7.007l1.256.326zm5.232-13.454a91.9 91.9 0 013.535-6.329l-1.108-.676a93.474 93.474 0 00-3.585 6.419l1.158.586zM223 432.921a62.972 62.972 0 012.203-2.857l-1.003-.824a64.22 64.22 0 00-2.248 2.916l1.048.765zm2.347-3.335a7.487 7.487 0 01-.014-1.295l-1.294-.097a8.641 8.641 0 00.017 1.523l1.291-.131zm.568-3.854c.2-.522.407-.921.554-1.153l-1.096-.694a8.046 8.046 0 00-.67 1.383l1.212.464zm.006-.851c.497 0 1.1-.172 1.746-.428.662-.262 1.436-.641 2.298-1.112l-.623-1.139c-.836.458-1.559.809-2.153 1.045-.611.242-1.025.336-1.268.336v1.298zm10.935-5.885a249.594 249.594 0 006.606-4.699l-.768-1.046a246.735 246.735 0 01-6.571 4.673l.733 1.072zm13.086-9.552a529.711 529.711 0 003.208-2.465l-.794-1.026c-1.059.82-2.129 1.642-3.201 2.46l.787 1.031zm3.299-2.55c.847-.965 1.852-1.88 2.981-2.746l-.79-1.03c-1.182.907-2.253 1.879-3.167 2.92l.976.856zm10.053-6.945c2.498-1.189 5.134-2.222 7.697-3.111l-.426-1.226c-2.594.9-5.277 1.951-7.829 3.165l.558 1.172zm15.662-5.56c1.537-.422 2.908-.775 4.036-1.066l-.324-1.256c-1.128.29-2.508.646-4.056 1.071l.344 1.251zm4.031-1.065l-.314-1.259h-.001l.315 1.259zm.002 0l-.315-1.259.315 1.259zm.005-.001l.639-.165-.326-1.257-.637.165.324 1.257zm1.922-.504c.246-.067.465-.129.651-.186l-.377-1.241c-.17.051-.376.11-.616.175l.342 1.252zm.651-.186c.645-.196 1.774-.536 3.305-.993l-.371-1.244c-1.532.458-2.663.799-3.311.996l.377 1.241zm9.931-2.963c2.001-.592 4.228-1.249 6.631-1.955l-.365-1.245a2711.92 2711.92 0 00-6.634 1.956l.368 1.244zm13.268-3.897l3.32-.966-.362-1.247-3.322.967.364 1.246zm3.292-.959l3.697-.894-.305-1.261-3.697.894.305 1.261zm11.091-2.682l7.394-1.789-.305-1.261-7.394 1.788.305 1.262zm14.788-3.577l3.697-.894-.305-1.262-3.697.895.305 1.261zm3.655-.886a117.09 117.09 0 003.976-.758l-.265-1.271c-1.293.27-2.606.521-3.932.751l.221 1.278zm11.836-2.653a139.846 139.846 0 007.736-2.353l-.414-1.23a139.107 139.107 0 01-7.663 2.331l.341 1.252zm15.316-5.205c1.186-.508 2.119-.95 2.742-1.292.306-.168.564-.326.743-.466.081-.064.195-.162.279-.29a.756.756 0 00.125-.356.695.695 0 00-.205-.548l-.912.924a.604.604 0 01-.177-.475.536.536 0 01.084-.257c.035-.053.057-.061.003-.018a4.574 4.574 0 01-.564.348c-.57.313-1.46.737-2.629 1.237l.511 1.193zm3.684-2.952c.005.005-.047-.056-.139-.255a7.209 7.209 0 01-.27-.699l-1.229.415c.104.308.212.592.321.828.099.216.231.463.405.635l.912-.924zm-1.088-3.479c-.1-.456-.187-.897-.253-1.286l-1.279.216c.069.413.16.875.265 1.349l1.267-.279zm-.251-1.275c-.205-1.352-.297-2.395-.255-3.242l-1.296-.064c-.049.978.059 2.122.268 3.5l1.283-.194zm3.364-7.73c.829-.456 1.815-.948 2.99-1.528l-.575-1.164c-1.171.579-2.182 1.083-3.04 1.555l.625 1.137zm2.99-1.528c1.44-.711 3.097-1.312 4.857-1.809l-.352-1.249c-1.815.512-3.55 1.139-5.08 1.894l.575 1.164zm15.184-3.528c2.005-.133 3.807-.134 5.21-.02l.104-1.294c-1.482-.119-3.35-.117-5.399.019l.085 1.295zm5.262-.667l.383.524.001-.001.002-.002.011-.008.044-.031.172-.126.67-.488 2.523-1.838-.764-1.049-2.524 1.838-.669.488a17.48 17.48 0 01-.228.166l-.002.002h-.001v.001l.382.524zm10.679-6.969c2.091-1.519 4.416-3.206 6.89-5l-.762-1.051c-2.474 1.794-4.799 3.482-6.891 5.001l.763 1.05zm13.775-9.986c2.261-1.635 4.575-3.307 6.895-4.979l-.759-1.053c-2.32 1.673-4.636 3.345-6.896 4.98l.76 1.052zm13.798-9.948c2.372-1.703 4.696-3.368 6.915-4.952l-.754-1.056a3144.76 3144.76 0 00-6.918 4.954l.757 1.054zm13.835-9.87c1.232-.87 2.395-1.688 3.473-2.443l-.743-1.063a990.835 990.835 0 00-3.479 2.446l.749 1.06zm3.449-2.426a322.5 322.5 0 013.804-2.375l-.679-1.106a330.291 330.291 0 00-3.82 2.385l.695 1.096zm11.52-6.99a333.487 333.487 0 017.83-4.415l-.621-1.139a328.176 328.176 0 00-7.861 4.432l.652 1.122zm15.787-8.585a181.222 181.222 0 018.112-3.83l-.523-1.188a182.976 182.976 0 00-8.17 3.858l.581 1.16zm16.432-7.127a63.63 63.63 0 014.256-1.309l-.334-1.254a65.05 65.05 0 00-4.344 1.336l.422 1.227zm4.256-1.309c1.057-.281 2.19-.566 3.387-.853l-.302-1.262c-1.206.289-2.349.576-3.419.861l.334 1.254zm10.222-2.37c2.195-.457 4.501-.913 6.876-1.363l-.241-1.275a409.29 409.29 0 00-6.9 1.367l.265 1.271zm13.775-2.624c1.147-.203 2.301-.403 3.456-.601l-.22-1.28c-1.157.199-2.312.4-3.462.603l.226 1.278zm3.995-1.241v-4.211h-1.298v4.211h1.298zm0-12.634v-8.422h-1.298v8.422h1.298zm0-16.845v-8.422h-1.298v8.422h1.298zm0-16.845v-8.422h-1.298v8.422h1.298zm0-16.845v-8.422h-1.298v8.422h1.298zm0-16.845v-8.422h-1.298v8.422h1.298zm0-16.845v-8.422h-1.298v8.422h1.298zm0-16.845v-8.422h-1.298v8.422h1.298zm0-16.845v-8.422h-1.298v8.422h1.298zm0-16.845v-4.211h-1.298v4.211h1.298zm-.875-4.819c-.225.083-.46.136-.699.156l.11 1.293a3.96 3.96 0 001.04-.232l-.451-1.217zm-2.075-.118a2.66 2.66 0 01-.586-.416l-.882.952c.27.251.562.456.868.615l.6-1.151zm-.586-.416l-2.528-2.345-.882.952 2.528 2.345.882-.952zm-7.584-7.035l-5.055-4.69-.883.951 5.056 4.691.882-.952zm-10.111-9.38l-2.528-2.345-.883.951 2.528 2.345.883-.951zm-2.528-2.345a2.585 2.585 0 01-.615-.864l-1.19.518c.208.477.516.921.922 1.297l.883-.951zm-.615-2.942c.138-.316.342-.611.615-.864l-.883-.951a3.869 3.869 0 00-.922 1.297l1.19.518zm.615-.864l2.528-2.345-.883-.951-2.528 2.345.883.951zm7.584-7.035l5.055-4.69-.882-.952-5.056 4.69.883.952zm10.111-9.38l2.528-2.346-.882-.95-2.528 2.344.882.952zm2.528-2.346c.187-.173.384-.31.586-.415l-.6-1.151c-.306.16-.598.364-.868.615l.882.951zm1.962-.69c.239.02.474.074.699.157l.451-1.217a3.958 3.958 0 00-1.04-.233l-.11 1.294zm1.574-.451V79.06h-1.298v4.932h1.298zm0-14.797v-4.932h-1.298v4.932h1.298zm0-4.932c0-.966-.193-1.89-.542-2.732l-1.199.497c.285.688.443 1.442.443 2.235h1.298zm-4.406-6.596a7.112 7.112 0 00-2.732-.541v1.297a5.82 5.82 0 012.235.443l.497-1.199zm-2.732-.541h-4.243v1.297h4.243v-1.297zm-12.73 0h-8.487v1.297h8.487v-1.297zm-16.973 0h-8.487v1.297h8.487v-1.297zm-16.974 0h-8.486v1.297h8.486v-1.297zm-16.973 0h-8.487v1.297h8.487v-1.297zm-16.974 0h-8.486v1.297h8.486v-1.297zm-16.973 0h-8.487v1.297h8.487v-1.297zm-16.973 0h-8.487v1.297h8.487v-1.297zm-16.974 0h-8.486v1.297h8.486v-1.297zm-16.973 0h-8.487v1.297h8.487v-1.297zm-16.973 0h-8.487v1.297h8.487v-1.297zm-16.974 0h-8.487v1.297h8.487v-1.297zm-16.973 0h-8.487v1.297h8.487v-1.297zm-16.974 0h-8.486v1.297h8.486v-1.297zm-16.973 0h-8.487v1.297h8.487v-1.297zm-16.973 0h-8.487v1.297h8.487v-1.297zm-16.974 0h-8.486v1.297h8.486v-1.297zm-16.973 0h-8.487v1.297h8.487v-1.297zm-16.974 0h-8.486v1.297h8.486v-1.297zm-16.973 0h-8.487v1.297h8.487v-1.297zm-16.973 0h-8.487v1.297h8.487v-1.297zm-16.974 0h-8.486v1.297h8.486v-1.297zm-16.973 0h-8.487v1.297h8.487v-1.297zm-16.974 0h-8.486v1.297h8.486v-1.297zm-16.973 0h-8.487v1.297h8.487v-1.297zm-16.973 0h-8.487v1.297h8.487v-1.297zm-16.974 0h-8.486v1.297h8.486v-1.297zm-16.973 0h-4.243v1.297h4.243v-1.297z" fill="#E5E5E5"/><g filter="url(#filter1_f)"><path d="M469.385 306.4c-17.075 11.945-61.11 43.548-61.11 43.548-4.98-.402-14.635.602-20.733 3.613-6.437 3.178-7.623 3.915-6.708 9.937.305 1.807 1.036 4.637 1.524 5.119.522.516-13.95 6.85-30.491 9.709l-29.576 7.153m-26.527 7.829c-3.963 1.205-24.697 5.42-32.625 14.454-11.281 8.732-23.783 17.766-26.832 17.766-.508.803-1.463 3.011-1.219 5.42-5.692 6.925-28.127 36.54-27.639 51.716m88.315-89.356c2.641-.802 13.323-3.993 26.527-7.829m-26.527 7.829l26.527-7.829" stroke="#000" stroke-opacity=".6" stroke-width="3.893"/></g><g filter="url(#filter2_f)"><path d="M476.525 309.641c-17.075 11.944-61.11 43.547-61.11 43.547-4.98-.401-14.635.602-20.733 3.613-6.437 3.179-7.623 3.915-6.708 9.937.304 1.807 1.036 4.637 1.524 5.119.522.516-13.951 6.85-30.491 9.709l-29.576 7.154m-26.527 7.829c-3.964 1.204-30.727 6.771-38.654 15.804-11.282 8.732-28.111 21.061-31.16 21.061-.508.803-1.217 3.747-.973 6.156-5.692 6.926-18.016 27.27-17.528 42.446m88.315-85.467c2.641-.803 13.323-3.993 26.527-7.829m-26.527 7.829l26.527-7.829" stroke="#000" stroke-opacity=".6" stroke-width="2.596"/></g><defs><filter id="filter0_d" x=".211" y=".503" width="585.844" height="531.658" filterUnits="userSpaceOnUse" color-interpolation-filters="sRGB"><feFlood flood-opacity="0" result="BackgroundImageFix"/><feColorMatrix in="SourceAlpha" values="0 0 0 0 0 0 0 0 0 0 0 0 0 0 0 0 0 0 127 0"/><feOffset/><feGaussianBlur stdDeviation="22.711"/><feColorMatrix values="0 0 0 0 0 0 0 0 0 0 0 0 0 0 0 0 0 0 0.3 0"/><feBlend in2="BackgroundImageFix" result="effect1_dropShadow"/><feBlend in="SourceGraphic" in2="effect1_dropShadow" result="shape"/></filter><filter id="filter1_f" x="182.784" y="282.095" width="310.428" height="223.343" filterUnits="userSpaceOnUse" color-interpolation-filters="sRGB"><feFlood flood-opacity="0" result="BackgroundImageFix"/><feBlend in="SourceGraphic" in2="BackgroundImageFix" result="shape"/><feGaussianBlur stdDeviation="11.355" result="effect1_foregroundBlur"/></filter><filter id="filter2_f" x="200.3" y="295.599" width="289.947" height="199.436" filterUnits="userSpaceOnUse" color-interpolation-filters="sRGB"><feFlood flood-opacity="0" result="BackgroundImageFix"/><feBlend in="SourceGraphic" in2="BackgroundImageFix" result="shape"/><feGaussianBlur stdDeviation="6.489" result="effect1_foregroundBlur"/></filter></defs></svg>