<svg width="690" height="595" fill="none" xmlns="http://www.w3.org/2000/svg"><path fill-rule="evenodd" clip-rule="evenodd" d="M0 10C0 4.477 4.477 0 10 0h640c5.523 0 10 4.477 10 10v35.099L628.963 73.83a5.001 5.001 0 000 7.338L660 109.901V293.42C631.138 313.947 571.5 358 571.5 358c-8.167-.667-24 1-34 6-10.555 5.277-12.5 6.5-11 16.5.5 3 1.7 7.7 2.5 8.5.856.856-22.877 11.375-50 16.122L430.5 417c-21.653 6.369-39.17 11.668-43.5 13-.904.278-2.341.653-4.179 1.133-11.375 2.97-38.13 9.954-49.321 22.867-18.5 14.5-39 29.5-44 29.5-.833 1.333-2.4 5-2 9-9.333 11.5-27.8 40.8-27 66a478.546 478.546 0 00-3.207 7.5H10c-5.523 0-10-4.477-10-10V10z" fill="#fff"/><path fill-rule="evenodd" clip-rule="evenodd" d="M20 30c0-5.523 4.477-10 10-10h600c5.523 0 10 4.477 10 10v14.556a5.195 5.195 0 00-.904.675l-31.155 28.952a5 5 0 000 7.325l31.155 28.952c.287.267.59.491.904.675v172.764a535.414 535.414 0 00-12.121 7.465c-26.303 18.432-85.015 61.336-85.015 61.336-7.672-.62-22.546.929-31.94 5.576-9.915 4.904-11.742 6.04-10.333 15.334.47 2.788 1.597 7.156 2.349 7.899.804.796-21.491 10.571-46.97 14.983l-45.561 11.038c-20.341 5.919-36.796 10.843-40.863 12.081-.85.259-2.2.608-3.927 1.054-10.685 2.759-35.818 9.25-46.331 21.25-17.379 13.476-36.636 27.416-41.333 27.416-.783 1.239-2.255 4.646-1.879 8.364-8.768 10.687-26.115 37.916-25.364 61.335A439.521 439.521 0 00247.7 546H30c-5.523 0-10-4.477-10-10V30z" fill="#fff"/><path d="M640 44.556l.507.861.493-.29v-.572h-1zm-.904.675l.681.733-.681-.733zm-31.155 28.952l.681.732-.681-.732zm0 7.325l-.68.733.68-.733zm31.155 28.952l.681-.733-.681.733zm.904.675h1v-.572l-.493-.29-.507.862zm0 172.764l.513.858.487-.291v-.567h-1zm-12.121 7.465l-.536-.844-.019.012-.019.013.574.819zM542.864 352.7l-.081.997.371.03.3-.22-.59-.807zm-31.94 5.576l.444.896-.444-.896zm-10.333 15.334l-.989.15.002.008.001.008.986-.166zm2.349 7.899l-.704.711.704-.711zm-46.97 14.983l-.171-.986-.032.006-.033.008.236.972zm-45.561 11.038l-.235-.972-.022.006-.022.006.279.96zm-40.863 12.081l-.292-.956.292.956zm-3.927 1.054l.25.968-.25-.968zm-46.331 21.25l.613.791.076-.059.063-.073-.752-.659zm-41.333 27.416v-1h-.551l-.295.465.846.535zm-1.879 8.364l.773.634.264-.322-.042-.413-.995.101zm-25.364 61.335l.914.405.093-.208-.007-.229-1 .032zM247.7 546v1h.663l.258-.611-.921-.389zM25.79 19.835a1 1 0 10.765 1.848l-.766-1.848zm-4.107 6.72a1 1 0 10-1.848-.766l1.848.766zM19 36.658a1 1 0 102 0h-2zm2 13.316a1 1 0 10-2 0h2zM19 63.29a1 1 0 002 0h-2zm2 13.315a1 1 0 00-2 0h2zm-2 13.316a1 1 0 102 0h-2zm2 13.316a1 1 0 00-2 0h2zm-2 13.316a1 1 0 002 0h-2zm2 13.315a1 1 0 00-2 0h2zm-2 13.316a1 1 0 002 0h-2zm2 13.316a1 1 0 00-2 0h2zm-2 13.316a1 1 0 002 0h-2zm2 13.316a1 1 0 10-2 0h2zm-2 13.315a1 1 0 102 0h-2zm2 13.316a1 1 0 00-2 0h2zm-2 13.316a1 1 0 002 0h-2zm2 13.316a1 1 0 10-2 0h2zm-2 13.316a1 1 0 002 0h-2zm2 13.315a1 1 0 00-2 0h2zm-2 13.316a1 1 0 002 0h-2zm2 13.316a1 1 0 00-2 0h2zm-2 13.316a1 1 0 002 0h-2zm2 13.316a1 1 0 10-2 0h2zm-2 13.315a1 1 0 102 0h-2zm2 13.316a1 1 0 00-2 0h2zm-2 13.316a1 1 0 002 0h-2zm2 13.316a1 1 0 10-2 0h2zm-2 13.315a1 1 0 102 0h-2zm2 13.316a1 1 0 00-2 0h2zM19 409.5a1 1 0 002 0h-2zm2 13.316a1 1 0 00-2 0h2zm-2 13.316a1 1 0 002 0h-2zm2 13.315a1 1 0 00-2 0h2zm-2 13.316a1 1 0 102 0h-2zm2 13.316a1 1 0 00-2 0h2zm-2 13.316a1 1 0 002 0h-2zm2 13.316a1 1 0 10-2 0h2zm-2 13.315a1 1 0 102 0h-2zm2 13.316a1 1 0 00-2 0h2zm-1.165 10.869a1 1 0 001.848-.766l-1.848.766zm6.72 4.106a1 1 0 00-.766 1.848l.766-1.848zM36.803 547a1 1 0 000-2v2zm13.606-2a1 1 0 000 2v-2zm13.607 2a1 1 0 000-2v2zm13.606-2a1 1 0 000 2v-2zm13.606 2a1 1 0 000-2v2zm13.606-2a1 1 0 000 2v-2zm13.606 2a1 1 0 100-2v2zm13.607-2a1 1 0 100 2v-2zm13.606 2a1 1 0 000-2v2zm13.606-2a1 1 0 000 2v-2zm13.606 2a1 1 0 100-2v2zm13.607-2a1 1 0 100 2v-2zm13.606 2a1 1 0 000-2v2zm13.606-2a1 1 0 000 2v-2zm13.606 2a1 1 0 100-2v2zm13.607-2a1 1 0 100 2v-2zm8.464-.355a1 1 0 00-1.839-.785l1.839.785zm-.33-4.278a1 1 0 001.833.801l-1.833-.801zm2.827-6.879a1 1 0 00-1.994-.163l1.994.163zm-.036-11.415a1 1 0 101.937.501l-1.937-.501zm5.408-10.079a1 1 0 00-1.861-.733l1.861.733zm2.801-11.083a1.001 1.001 0 001.785.903l-1.785-.903zm7.231-8.865a1 1 0 00-1.708-1.041l1.708 1.041zm4.576-10.484a1 1 0 101.617 1.177l-1.617-1.177zm5.211-5.968a1 1 0 00-1.995-.148l1.995.148zm-.972-4.662a1 1 0 101.868.714l-1.868-.714zm8.11-2.978a1 1 0 00-.961-1.754l.961 1.754zm9.484-8.356a1 1 0 001.131 1.65l-1.131-1.65zm11.306-5.6a1 1 0 10-1.184-1.612l1.184 1.612zm8.768-9.078a1 1 0 001.214 1.59l-1.214-1.59zm10.885-6.582a1 1 0 10-1.219-1.586l1.219 1.586zm10.031-8.285a1 1 0 00.861 1.806l-.861-1.806zm12.718-2.996a.999.999 0 10-.657-1.889l.657 1.889zm11.742-5.707a1 1 0 10.53 1.929l-.53-1.929zm7.734.028a1 1 0 00-.502-1.936l.502 1.936zm1.45-2.452a1 1 0 10.528 1.929l-.528-1.929zm6.624.109a1 1 0 00-.574-1.916l.574 1.916zm9.638-4.957a1 1 0 00.568 1.917l-.568-1.917zm10.784-1.099a1 1 0 00-.565-1.919l.565 1.919zm9.662-4.917a1 1 0 10.56 1.92l-.56-1.92zm11.327-.94a1 1 0 10-.471-1.944l.471 1.944zm10.919-4.703a1 1 0 10.471 1.944l-.471-1.944zm11.861-.816a1 1 0 10-.471-1.944l.471 1.944zm10.919-4.703a1 1 0 00.471 1.943l-.471-1.943zm12.227-.594a1 1 0 00-.408-1.958l.408 1.958zm11.583-4.853a.999.999 0 10.527 1.929l-.527-1.929zm12.443-1.702a1.001 1.001 0 00-.638-1.896l.638 1.896zm10.888-6.239a1 1 0 00.789 1.838l-.789-1.838zm5.832-4.188a1 1 0 00-1.895.64l1.895-.64zm-2.999-3.466a1 1 0 001.953-.43l-1.953.43zm1.174-7.397a1 1 0 00-1.998-.098l1.998.098zm4.608-8.681a1 1 0 10.965 1.751l-.965-1.751zm13.054-3.398a1.001 1.001 0 00-.543-1.925l.543 1.925zm15.777-4.65a1 1 0 10.132 1.996l-.132-1.996zm14.101-2.073a1 1 0 10-1.179-1.616l1.179 1.616zm9.411-9.331a1 1 0 001.177 1.617l-1.177-1.617zm11.791-6.099a1 1 0 00-1.176-1.619l1.176 1.619zm9.433-9.314a1 1 0 001.173 1.62l-1.173-1.62zm11.794-6.064a1 1 0 10-1.171-1.621l1.171 1.621zm9.466-9.29a1 1 0 101.168 1.623l-1.168-1.623zm11.82-6.019a1 1 0 10-1.164-1.627l1.164 1.627zm9.505-9.222a1 1 0 101.155 1.633l-1.155-1.633zm9.473-4.004a1 1 0 00-1.06-1.696l1.06 1.696zm5.013-5.435a.999.999 0 101.037 1.709l-1.037-1.709zm4.567-7.153a1 1 0 00-2 0h2zm-2-12.34a1 1 0 102 0h-2zm2-12.34a1 1 0 00-2 0h2zm-2-12.34a1 1 0 002 0h-2zm2-12.34a1 1 0 10-2 0h2zm-2-12.341a1 1 0 102 0h-2zm2-12.34a1 1 0 00-2 0h2zm-2-12.34a1 1 0 002 0h-2zm2-12.34a1 1 0 10-2 0h2zm-2-12.341a1 1 0 102 0h-2zm2-12.34a1 1 0 00-2 0h2zm-2-12.34a1 1 0 002 0h-2zm2-12.34a1 1 0 10-2 0h2zm-2-12.34a1 1 0 002 0h-2zm1.315-7.153a1 1 0 10-1.109 1.665l1.109-1.665zm-1.648 1.261a1 1 0 001.283-1.534l-1.283 1.534zm-2.784-5.306a1.001 1.001 0 00-1.362 1.466l1.362-1.466zm-9.151-5.772a1.001 1.001 0 001.362-1.465l-1.362 1.465zm-6.427-8.704a1 1 0 10-1.361 1.466l1.361-1.466zm-9.15-5.772a1 1 0 101.361-1.465l-1.361 1.465zm-3.478-6.415a1 1 0 00-1.834.798l1.834-.798zm-1.834-3.997a1 1 0 101.834.798l-1.834-.798zm6.673-4.152a1 1 0 10-1.361-1.465l1.361 1.465zm6.428-8.703a1 1 0 101.361 1.465l-1.361-1.465zm9.15-5.773a1 1 0 10-1.361-1.465l1.361 1.465zm6.427-8.703a1.001 1.001 0 001.362 1.466l-1.362-1.466zm5.429-2.306a1 1 0 00-1.283-1.534l1.283 1.534zm-.744-1.938a1 1 0 101.109 1.665l-1.109-1.665zM641 40.917a1 1 0 00-2 0h2zm-2-7.278a1 1 0 002 0h-2zm1.165-7.85a1 1 0 00-1.848.766l1.848-.766zm-6.72-4.107a1 1 0 00.766-1.847l-.766 1.848zM623.478 19a1 1 0 000 2v-2zm-13.043 2a1 1 0 000-2v2zm-13.044-2a1 1 0 000 2v-2zm-13.043 2a1 1 0 000-2v2zm-13.044-2a1 1 0 000 2v-2zm-13.043 2a1 1 0 000-2v2zm-13.044-2a1 1 0 000 2v-2zm-13.043 2a1 1 0 000-2v2zm-13.044-2a1 1 0 000 2v-2zm-13.043 2a1 1 0 000-2v2zm-13.044-2a1 1 0 000 2v-2zM480 21a1 1 0 000-2v2zm-13.043-2a1 1 0 100 2v-2zm-13.044 2a1 1 0 000-2v2zm-13.043-2a1 1 0 100 2v-2zm-13.044 2a1 1 0 000-2v2zm-13.043-2a1 1 0 100 2v-2zm-13.044 2a1 1 0 000-2v2zm-13.043-2a1 1 0 100 2v-2zm-13.044 2a1 1 0 000-2v2zm-13.043-2a1 1 0 100 2v-2zm-13.044 2a1 1 0 100-2v2zm-13.043-2a1 1 0 100 2v-2zm-13.044 2a1 1 0 100-2v2zm-13.043-2a1 1 0 000 2v-2zm-13.044 2a1 1 0 100-2v2zm-13.043-2a1 1 0 000 2v-2zm-13.044 2a1 1 0 100-2v2zm-13.043-2a1 1 0 000 2v-2zm-13.044 2a1 1 0 100-2v2zm-13.043-2a1 1 0 000 2v-2zm-13.044 2a1 1 0 100-2v2zm-13.043-2a1 1 0 000 2v-2zm-13.044 2a1 1 0 100-2v2zM180 19a1 1 0 000 2v-2zm-13.044 2a1 1 0 100-2v2zm-13.043-2a1 1 0 000 2v-2zm-13.044 2a1 1 0 100-2v2zm-13.043-2a1 1 0 000 2v-2zm-13.044 2a1 1 0 100-2v2zm-13.043-2a1 1 0 000 2v-2zm-13.043 2a1 1 0 000-2v2zm-13.044-2a1 1 0 100 2v-2zM62.61 21a1 1 0 000-2v2zm-13.044-2a1 1 0 100 2v-2zm-13.043 2a1 1 0 100-2v2zM30 19c-1.49 0-2.913.297-4.21.835l.765 1.848A8.971 8.971 0 0130 21v-2zm-10.165 6.79A10.97 10.97 0 0019 30h2a8.97 8.97 0 01.683-3.445l-1.848-.766zM19 30v6.658h2V30h-2zm0 19.974V63.29h2V49.973h-2zm0 26.631v13.316h2V76.605h-2zm0 26.632v13.316h2v-13.316h-2zm0 26.631v13.316h2v-13.316h-2zm0 26.632v13.316h2V156.5h-2zm0 26.632v13.315h2v-13.315h-2zm0 26.631v13.316h2v-13.316h-2zm0 26.632v13.316h2v-13.316h-2zm0 26.631v13.316h2v-13.316h-2zm0 26.632v13.316h2v-13.316h-2zm0 26.632v13.315h2V316.29h-2zm0 26.631v13.316h2v-13.316h-2zm0 26.632v13.315h2v-13.315h-2zm0 26.631V409.5h2v-13.316h-2zm0 26.632v13.316h2v-13.316h-2zm0 26.631v13.316h2v-13.316h-2zm0 26.632v13.316h2v-13.316h-2zm0 26.632v13.315h2v-13.315h-2zm0 26.631V536h2v-6.658h-2zM19 536c0 1.49.297 2.913.835 4.211l1.848-.766A8.974 8.974 0 0121 536h-2zm6.79 10.165c1.297.538 2.72.835 4.21.835v-2a8.96 8.96 0 01-3.445-.683l-.766 1.848zM30 547h6.803v-2H30v2zm20.41 0h13.606v-2H50.409v2zm27.212 0h13.606v-2H77.622v2zm27.212 0h13.606v-2h-13.606v2zm27.213 0h13.606v-2h-13.606v2zm27.212 0h13.606v-2h-13.606v2zm27.213 0h13.606v-2h-13.606v2zm27.212 0h13.606v-2h-13.606v2zm27.213 0h6.803v-2h-6.803v2zm7.724-.611c.25-.593.498-1.175.74-1.744l-1.839-.785c-.244.571-.492 1.156-.744 1.751l1.843.778zm2.243-5.221c.267-.61.522-1.19.762-1.733l-1.828-.81c-.242.546-.499 1.128-.767 1.742l1.833.801zm.848-2.17a48.548 48.548 0 01.146-5.51l-1.994-.163a50.607 50.607 0 00-.151 5.737l1.999-.064zm2.047-16.424c.921-3.564 2.107-7.113 3.471-10.58l-1.861-.733c-1.39 3.531-2.603 7.158-3.547 10.812l1.937.501zm8.057-20.76a141.392 141.392 0 015.446-9.768l-1.708-1.041a144.074 144.074 0 00-5.523 9.906l1.785.903zm11.639-19.075a97.394 97.394 0 013.394-4.41l-1.546-1.269a100.31 100.31 0 00-3.465 4.502l1.617 1.177zm3.616-5.145a11.448 11.448 0 01-.022-2l-1.995-.148a13.41 13.41 0 00.027 2.349l1.99-.201zm.874-5.948c.308-.806.628-1.423.855-1.781l-1.691-1.069c-.309.489-.685 1.228-1.032 2.136l1.868.714zm.01-1.315c.765 0 1.694-.265 2.69-.66 1.021-.405 2.214-.99 3.542-1.717l-.961-1.754c-1.29.706-2.403 1.249-3.319 1.612-.941.373-1.579.519-1.952.519v2zm16.847-9.083a384.883 384.883 0 0010.175-7.25l-1.184-1.612a385.094 385.094 0 01-10.122 7.212l1.131 1.65zm20.157-14.738a940.55 940.55 0 004.942-3.804l-1.226-1.581a839.486 839.486 0 01-4.93 3.795l1.214 1.59zm5.081-3.936c1.304-1.488 2.852-2.9 4.59-4.236l-1.219-1.586c-1.82 1.4-3.469 2.899-4.875 4.504l1.504 1.318zm15.482-10.715c3.848-1.834 7.909-3.428 11.857-4.802l-.657-1.889c-3.997 1.39-8.129 3.012-12.061 4.885l.861 1.806zm24.129-8.58c2.368-.652 4.481-1.197 6.218-1.646l-.5-1.937c-1.737.449-3.863.998-6.248 1.654l.53 1.929zm6.218-1.646l.986-.255-.502-1.936-.984.254.5 1.937zm2.964-.778c.38-.104.717-.199 1.004-.287l-.583-1.913c-.262.08-.579.17-.949.271l.528 1.929zm1.004-.287c.994-.303 2.733-.827 5.092-1.533l-.574-1.916c-2.36.707-4.102 1.232-5.101 1.536l.583 1.913zm15.298-4.573c3.082-.913 6.513-1.927 10.216-3.016l-.565-1.919c-3.704 1.09-7.136 2.104-10.219 3.018l.568 1.917zm20.438-6.013l5.116-1.492-.559-1.92c-1.736.505-3.443 1.003-5.117 1.492l.56 1.92zm5.072-1.48l5.695-1.38-.471-1.944-5.695 1.38.471 1.944zm17.085-4.139l11.39-2.76-.471-1.944-11.39 2.76.471 1.944zm22.78-5.52l5.695-1.38-.471-1.943-5.695 1.38.471 1.943zm5.63-1.366c2.067-.358 4.113-.751 6.126-1.171l-.408-1.958a180.48 180.48 0 01-6.059 1.158l.341 1.971zm18.236-4.095a215.705 215.705 0 0011.916-3.631l-.638-1.896a212.378 212.378 0 01-11.805 3.598l.527 1.929zm23.593-8.032c1.826-.784 3.263-1.467 4.223-1.994.472-.259.869-.503 1.144-.72a1.95 1.95 0 00.431-.447c.064-.099.171-.289.19-.547a1.068 1.068 0 00-.314-.844l-1.407 1.422a.933.933 0 01-.273-.731.854.854 0 01.13-.395c.054-.082.088-.094.005-.028-.141.111-.421.291-.869.537-.878.482-2.248 1.136-4.049 1.909l.789 1.838zm5.674-4.552c.007.007-.073-.088-.215-.395-.127-.275-.268-.64-.416-1.079l-1.895.64c.161.474.327.913.495 1.277.153.333.357.714.624.979l1.407-1.422zm-1.677-5.37a42.512 42.512 0 01-.389-1.984l-1.972.332c.107.637.247 1.351.408 2.082l1.953-.43zm-.386-1.968c-.316-2.085-.457-3.693-.393-4.999l-1.998-.098c-.074 1.507.091 3.272.413 5.397l1.978-.3zm5.18-11.929c1.277-.703 2.797-1.463 4.608-2.359l-.887-1.793c-1.806.894-3.364 1.672-4.686 2.401l.965 1.751zm4.608-2.359c2.218-1.097 4.77-2.025 7.481-2.79l-.543-1.925c-2.796.789-5.469 1.757-7.825 2.922l.887 1.793zm23.39-5.444c3.088-.205 5.864-.206 8.025-.031l.161-1.994c-2.284-.184-5.161-.18-8.318.029l.132 1.996zm8.106-1.028l.59.807.001-.001.004-.003.017-.012.068-.049.265-.194 1.031-.753c.902-.659 2.22-1.621 3.887-2.836l-1.179-1.616-3.887 2.836-1.032.754-.265.194-.068.049-.017.012-.004.003-.001.001.59.808zm16.451-10.755c3.221-2.345 6.802-4.948 10.614-7.716l-1.176-1.619c-3.812 2.769-7.393 5.373-10.615 7.718l1.177 1.617zm21.22-15.41c3.482-2.523 7.048-5.103 10.621-7.684l-1.171-1.621a8266.216 8266.216 0 00-10.623 7.685l1.173 1.62zm21.255-15.351c3.654-2.629 7.234-5.198 10.652-7.642l-1.164-1.627c-3.419 2.446-7 5.016-10.656 7.646l1.168 1.623zm21.312-15.231c1.898-1.343 3.689-2.606 5.351-3.77l-1.148-1.638a1631.366 1631.366 0 00-5.358 3.775l1.155 1.633zm5.313-3.745c.924-.586 1.928-1.22 3.005-1.892l-1.06-1.696a482.994 482.994 0 00-3.017 1.9l1.072 1.688zm9.055-5.618c.982-.595 1.998-1.208 3.043-1.833l-1.026-1.717c-1.05.628-2.069 1.243-3.054 1.841l1.037 1.709zm3.53-2.691v-6.171h-2v6.171h2zm0-18.511v-12.34h-2v12.34h2zm0-24.68v-12.34h-2v12.34h2zm0-24.681v-12.34h-2v12.34h2zm0-24.68v-12.34h-2v12.34h2zm0-24.681v-12.34h-2v12.34h2zm0-24.68v-12.34h-2v12.34h2zm0-24.68v-6.171h-2v6.171h2zm-.493-7.033a3.225 3.225 0 01-.192-.12l-1.109 1.665c.095.063.19.123.287.18l1.014-1.725zm-.557-.393a4.86 4.86 0 01-.173-.153l-1.361 1.465c.082.077.166.151.251.222l1.283-1.534zm-.173-.153l-3.894-3.619-1.362 1.466 3.895 3.618 1.361-1.465zm-11.683-10.856l-7.789-7.239-1.361 1.466 7.788 7.238 1.362-1.465zm-15.578-14.476l-3.894-3.62-1.361 1.466 3.894 3.619 1.361-1.465zm-3.894-3.62a3.982 3.982 0 01-.945-1.33l-1.834.798c.32.735.793 1.417 1.418 1.998l1.361-1.465zm-.945-4.529c.212-.487.526-.941.945-1.33l-1.361-1.466a5.975 5.975 0 00-1.418 1.998l1.834.798zm.945-1.33l3.894-3.62-1.361-1.465-3.894 3.62 1.361 1.464zm11.683-10.858l7.789-7.238-1.361-1.465-7.789 7.238 1.361 1.465zm15.578-14.476l3.894-3.618-1.361-1.466-3.895 3.62 1.362 1.465zm3.894-3.618a4.86 4.86 0 01.173-.153l-1.283-1.534a6.113 6.113 0 00-.251.221l1.361 1.466zm.538-.426c.063-.042.127-.083.192-.12l-1.014-1.724a6.054 6.054 0 00-.287.18l1.109 1.664zm.685-.982v-3.64h-2v3.64h2zm0-10.917V30h-2v3.639h2zM641 30c0-1.49-.297-2.913-.835-4.21l-1.848.765A8.96 8.96 0 01639 30h2zm-6.789-10.165A10.968 10.968 0 00630 19v2c1.222 0 2.385.243 3.445.683l.766-1.848zM630 19h-6.522v2H630v-2zm-19.565 0h-13.044v2h13.044v-2zm-26.087 0h-13.044v2h13.044v-2zm-26.087 0h-13.044v2h13.044v-2zm-26.087 0H519.13v2h13.044v-2zm-26.087 0h-13.044v2h13.044v-2zM480 19h-13.043v2H480v-2zm-26.087 0H440.87v2h13.043v-2zm-26.087 0h-13.043v2h13.043v-2zm-26.087 0h-13.043v2h13.043v-2zm-26.087 0h-13.043v2h13.043v-2zm-26.087 0h-13.043v2h13.043v-2zm-26.087 0h-13.043v2h13.043v-2zm-26.087 0h-13.043v2h13.043v-2zm-26.087 0h-13.043v2h13.043v-2zm-26.087 0h-13.043v2h13.043v-2zm-26.087 0h-13.043v2h13.043v-2zm-26.087 0H180v2h13.043v-2zm-26.087 0h-13.043v2h13.043v-2zm-26.087 0h-13.043v2h13.043v-2zm-26.087 0h-13.043v2h13.043v-2zm-26.086 0H75.652v2h13.044v-2zm-26.087 0H49.565v2H62.61v-2zm-26.087 0H30v2h6.522v-2z" fill="#E5E5E5"/><g filter="url(#filter0_f)"><path d="M653 287.5c-26.303 18.432-94.136 67.2-94.136 67.2-7.672-.62-22.546.929-31.94 5.576-9.915 4.904-11.742 6.041-10.333 15.334.47 2.788 1.597 7.156 2.348 7.899.805.796-21.49 10.571-46.969 14.983l-45.561 11.038m-40.864 12.082c-6.106 1.858-38.045 8.364-50.257 22.303-17.379 13.476-36.637 27.416-41.334 27.416-.782 1.239-2.254 4.646-1.878 8.364-8.768 10.687-43.328 56.386-42.576 79.805m136.045-137.888c4.068-1.239 20.523-6.162 40.864-12.082m-40.864 12.082l40.864-12.082" stroke="#000" stroke-opacity=".6" stroke-width="6"/></g><g filter="url(#filter1_f)"><path d="M664 292.5c-26.303 18.432-94.136 67.2-94.136 67.2-7.672-.62-22.546.929-31.94 5.576-9.915 4.904-11.742 6.041-10.333 15.334.47 2.788 1.597 7.156 2.348 7.899.805.796-21.49 10.571-46.969 14.983l-45.561 11.038m-40.864 12.082C390.439 428.47 349.212 437.06 337 451c-17.379 13.475-43.303 32.5-48 32.5-.783 1.239-1.876 5.783-1.5 9.5-8.767 10.687-27.751 42.081-27 65.5m136.045-131.888c4.068-1.239 20.523-6.162 40.864-12.082m-40.864 12.082l40.864-12.082" stroke="#000" stroke-opacity=".6" stroke-width="4"/></g><defs><filter id="filter0_f" x="211.488" y="250.043" width="478.234" height="344.553" filterUnits="userSpaceOnUse" color-interpolation-filters="sRGB"><feFlood flood-opacity="0" result="BackgroundImageFix"/><feBlend in="SourceGraphic" in2="BackgroundImageFix" result="shape"/><feGaussianBlur stdDeviation="17.5" result="effect1_foregroundBlur"/></filter><filter id="filter1_f" x="238.479" y="270.862" width="446.669" height="307.702" filterUnits="userSpaceOnUse" color-interpolation-filters="sRGB"><feFlood flood-opacity="0" result="BackgroundImageFix"/><feBlend in="SourceGraphic" in2="BackgroundImageFix" result="shape"/><feGaussianBlur stdDeviation="10" result="effect1_foregroundBlur"/></filter></defs></svg>