<svg width="19" height="19" fill="none" xmlns="http://www.w3.org/2000/svg"><path d="M9.5 3.098a.414.414 0 00.413-.413v-.207a.414.414 0 00-.413-.413.414.414 0 00-.413.413v.207c0 .227.186.413.413.413zm0 12.804a.414.414 0 00-.413.413v.207c0 .227.186.413.413.413a.414.414 0 00.413-.413v-.207a.414.414 0 00-.413-.413zM2.685 9.087h-.207a.414.414 0 00-.413.413c0 .227.186.413.413.413h.207a.414.414 0 00.413-.413.414.414 0 00-.413-.413zm13.837 0h-.207a.414.414 0 00-.413.413c0 .227.186.413.413.413h.207a.414.414 0 00.413-.413.414.414 0 00-.413-.413zM4.833 4.255a.4.4 0 00-.578 0 .4.4 0 000 .578l.144.145a.408.408 0 00.29.124.408.408 0 00.289-.124.4.4 0 000-.579l-.145-.144zM4.4 14.022l-.145.145a.4.4 0 000 .578.408.408 0 00.289.124.408.408 0 00.289-.124l.145-.144a.4.4 0 000-.579.4.4 0 00-.579 0zm9.768-9.767l-.145.144a.4.4 0 000 .579.408.408 0 00.29.124.408.408 0 00.289-.124l.144-.145a.4.4 0 000-.578.4.4 0 00-.578 0zm-4.255 5.08V5.576a.414.414 0 00-.413-.413.414.414 0 00-.413.413V9.5a.41.41 0 00.124.29l4.523 4.522a.408.408 0 00.289.124.408.408 0 00.289-.124.4.4 0 000-.578l-4.399-4.4z" fill="#FCCB05"/><path d="M9.5 0C4.254 0 0 4.254 0 9.5S4.254 19 9.5 19 19 14.746 19 9.5 14.746 0 9.5 0zm0 18.174A8.673 8.673 0 01.826 9.5 8.673 8.673 0 019.5.826 8.673 8.673 0 0118.174 9.5 8.673 8.673 0 019.5 18.174z" fill="#FCCB05"/></svg>