<svg width="25" height="25" fill="none" xmlns="http://www.w3.org/2000/svg"><path d="M12.5 0C7.407 0 3.265 4.143 3.265 9.235c0 1.677.751 3.48.783 3.556a15 15 0 001.067 1.996l6.332 9.594c.26.394.643.619 1.053.619.41 0 .793-.225 1.052-.618l6.333-9.595c.346-.525.824-1.42 1.067-1.996.032-.076.783-1.879.783-3.556C21.735 4.143 17.592 0 12.5 0zm7.45 12.37a13.47 13.47 0 01-.973 1.819l-6.332 9.595c-.125.19-.165.19-.29 0l-6.332-9.595a13.71 13.71 0 01-.973-1.82c-.01-.023-.699-1.682-.699-3.134 0-4.493 3.656-8.149 8.149-8.149 4.493 0 8.148 3.656 8.148 8.15 0 1.453-.69 3.117-.698 3.133z" fill="#FCCB05"/><path d="M12.5 4.347a4.895 4.895 0 00-4.89 4.889 4.895 4.895 0 004.89 4.889 4.895 4.895 0 004.889-4.89 4.895 4.895 0 00-4.89-4.888zm0 8.692a3.807 3.807 0 01-3.803-3.803A3.807 3.807 0 0112.5 5.433a3.807 3.807 0 013.802 3.803 3.807 3.807 0 01-3.803 3.803z" fill="#FCCB05"/></svg>