<svg width="350" height="378" fill="none" xmlns="http://www.w3.org/2000/svg"><path fill-rule="evenodd" clip-rule="evenodd" d="M10 0C4.477 0 0 4.477 0 10v358c0 5.523 4.477 10 10 10h330c5.523 0 10-4.477 10-10V87.613a2.764 2.764 0 01-.092-.086l-22.699-22.091a3 3 0 010-4.3l22.699-22.092c.03-.03.061-.058.092-.086V10c0-5.523-4.477-10-10-10H10z" fill="#fff"/><mask id="path-2-inside-1" fill="#fff"><path fill-rule="evenodd" clip-rule="evenodd" d="M20 10c-5.523 0-10 4.477-10 10v338c0 5.523 4.477 10 10 10h310c5.523 0 10-4.477 10-10V87.384a2.98 2.98 0 01-1.383-.778l-20.994-20.524a3 3 0 010-4.29l20.994-20.525A2.979 2.979 0 01340 40.49V20c0-5.523-4.477-10-10-10H20z"/></mask><path fill-rule="evenodd" clip-rule="evenodd" d="M20 10c-5.523 0-10 4.477-10 10v338c0 5.523 4.477 10 10 10h310c5.523 0 10-4.477 10-10V87.384a2.98 2.98 0 01-1.383-.778l-20.994-20.524a3 3 0 010-4.29l20.994-20.525A2.979 2.979 0 01340 40.49V20c0-5.523-4.477-10-10-10H20z" fill="#fff"/><path d="M340 87.384h.5v-.393l-.382-.093-.118.486zm-1.383-.778l.35-.357-.35.357zm-20.994-20.524l-.35.358.35-.358zm0-4.29l.35.357-.35-.358zm20.994-20.525l.35.358-.35-.358zM340 40.49l.118.486.382-.093v-.393h-.5zM9.5 20v4.024h1V20h-1zm0 12.071v8.048h1v-8.048h-1zm0 16.096v8.047h1v-8.047h-1zm0 16.095v8.047h1v-8.047h-1zm0 16.095v8.048h1v-8.048h-1zm0 16.095v8.048h1v-8.048h-1zm0 16.096v8.047h1v-8.047h-1zm0 16.095v8.047h1v-8.047h-1zm0 16.095v8.048h1v-8.048h-1zm0 16.095v8.048h1v-8.048h-1zm0 16.096v8.047h1v-8.047h-1zm0 16.095v8.047h1v-8.047h-1zm0 16.095v8.048h1v-8.048h-1zm0 16.095v8.048h1v-8.048h-1zm0 16.096v8.047h1v-8.047h-1zm0 16.095v8.047h1v-8.047h-1zm0 16.095v8.048h1V273.5h-1zm0 16.095v8.048h1v-8.048h-1zm0 16.096v8.047h1v-8.047h-1zm0 16.095v8.047h1v-8.047h-1zm0 16.095v8.048h1v-8.048h-1zm0 16.095V358h1v-4.024h-1zm0 4.024c0 1.423.283 2.781.797 4.019l.924-.383A9.467 9.467 0 0110.5 358h-1zm6.48 9.703c1.24.514 2.597.797 4.02.797v-1a9.456 9.456 0 01-3.636-.721l-.383.924zm4.02.797h4.079v-1H20v1zm12.237 0h8.158v-1h-8.158v1zm16.316 0h8.158v-1h-8.158v1zm16.315 0h8.158v-1h-8.158v1zm16.316 0h8.158v-1h-8.158v1zm16.316 0h8.158v-1H97.5v1zm16.316 0h8.158v-1h-8.158v1zm16.316 0h8.157v-1h-8.157v1zm16.315 0h8.158v-1h-8.158v1zm16.316 0h8.158v-1h-8.158v1zm16.316 0h8.158v-1h-8.158v1zm16.316 0h8.158v-1h-8.158v1zm16.316 0h8.157v-1h-8.157v1zm16.315 0h8.158v-1h-8.158v1zm16.316 0h8.158v-1h-8.158v1zm16.316 0h8.158v-1h-8.158v1zm16.316 0h8.158v-1h-8.158v1zm16.316 0h8.157v-1h-8.157v1zm16.315 0h8.158v-1h-8.158v1zm16.316 0H330v-1h-4.079v1zm4.079 0c1.423 0 2.781-.283 4.019-.797l-.383-.924a9.452 9.452 0 01-3.636.721v1zm9.703-6.481c.514-1.238.797-2.596.797-4.019h-1a9.452 9.452 0 01-.721 3.636l.924.383zM340.5 358v-3.98h-1V358h1zm0-11.939v-7.959h-1v7.959h1zm0-15.919v-7.959h-1v7.959h1zm0-15.918v-7.959h-1v7.959h1zm0-15.919v-7.959h-1v7.959h1zm0-15.918v-7.96h-1v7.96h1zm0-15.919v-7.959h-1v7.959h1zm0-15.918v-7.96h-1v7.96h1zm0-15.919v-7.959h-1v7.959h1zm0-15.919v-7.959h-1v7.959h1zm0-15.918v-7.959h-1v7.959h1zm0-15.919v-7.959h-1v7.959h1zm0-15.918v-7.96h-1v7.96h1zm0-15.919v-7.959h-1v7.959h1zm0-15.918v-7.96h-1v7.96h1zm0-15.919v-7.959h-1v7.959h1zm0-15.919v-7.959h-1v7.959h1zm0-15.918v-3.98h-1v3.98h1zm-.382-4.466a2.403 2.403 0 01-.316-.1l-.369.93c.148.058.298.105.449.142l.236-.972zm-.895-.428a2.718 2.718 0 01-.256-.221l-.699.715c.113.11.23.211.351.303l.604-.797zm-.256-.221l-2.625-2.566-.699.715 2.625 2.566.699-.715zm-7.873-7.697l-5.249-5.131-.699.715 5.249 5.131.699-.715zM320.597 68.29l-2.624-2.566-.7.715 2.625 2.566.699-.715zm-2.624-2.566a2.49 2.49 0 01-.558-.817l-.922.388c.176.418.437.808.78 1.144l.7-.715zm-.558-2.758a2.49 2.49 0 01.558-.817l-.7-.715a3.507 3.507 0 00-.78 1.145l.922.387zm.558-.817l2.624-2.566-.699-.715-2.625 2.566.7.715zm7.872-7.697l5.249-5.13-.699-.716-5.249 5.131.699.715zm10.497-10.262l2.625-2.565-.699-.715-2.625 2.565.699.715zm2.625-2.565a2.72 2.72 0 01.256-.221l-.604-.797a3.731 3.731 0 00-.351.303l.699.715zm.835-.55c.104-.04.21-.074.316-.1l-.236-.971a3.417 3.417 0 00-.449.142l.369.93zm.698-.586v-5.122h-1v5.122h1zm0-15.367V20h-1v5.122h1zm0-5.122c0-1.423-.283-2.78-.797-4.02l-.924.384A9.456 9.456 0 01339.5 20h1zm-6.481-9.703A10.465 10.465 0 00330 9.5v1c1.289 0 2.517.257 3.636.72l.383-.923zM330 9.5h-4.079v1H330v-1zm-12.237 0h-8.158v1h8.158v-1zm-16.316 0h-8.158v1h8.158v-1zm-16.315 0h-8.158v1h8.158v-1zm-16.316 0h-8.158v1h8.158v-1zm-16.316 0h-8.158v1h8.158v-1zm-16.316 0h-8.158v1h8.158v-1zm-16.316 0h-8.157v1h8.157v-1zm-16.315 0h-8.158v1h8.158v-1zm-16.316 0h-8.158v1h8.158v-1zm-16.316 0h-8.158v1h8.158v-1zm-16.316 0h-8.158v1h8.158v-1zm-16.316 0h-8.157v1h8.157v-1zm-16.315 0h-8.158v1h8.158v-1zm-16.316 0H97.5v1h8.158v-1zm-16.316 0h-8.158v1h8.158v-1zm-16.316 0h-8.158v1h8.158v-1zm-16.316 0h-8.157v1h8.157v-1zm-16.315 0h-8.158v1h8.158v-1zm-16.316 0H20v1h4.079v-1zM20 9.5c-1.423 0-2.78.283-4.02.797l.384.924A9.47 9.47 0 0120 10.5v-1zm-9.703 6.48A10.47 10.47 0 009.5 20h1a9.47 9.47 0 01.72-3.636l-.923-.383zM340 87.385h1V86.6l-.763-.186-.237.971zm-1.383-.778l.699-.715-.699.715zm-20.994-20.524l-.699.715.699-.715zm0-4.29l.699.715-.699-.715zm20.994-20.525l.699.715-.699-.715zM340 40.49l.237.972.763-.186v-.786h-1zM9 20v4.024h2V20H9zm0 12.071v8.048h2v-8.048H9zm0 16.096v8.047h2v-8.047H9zm0 16.095v8.047h2v-8.047H9zm0 16.095v8.048h2v-8.048H9zm0 16.095v8.048h2v-8.048H9zm0 16.096v8.047h2v-8.047H9zm0 16.095v8.047h2v-8.047H9zm0 16.095v8.048h2v-8.048H9zm0 16.095v8.048h2v-8.048H9zm0 16.096v8.047h2v-8.047H9zm0 16.095v8.047h2v-8.047H9zm0 16.095v8.048h2v-8.048H9zm0 16.095v8.048h2v-8.048H9zm0 16.096v8.047h2v-8.047H9zm0 16.095v8.047h2v-8.047H9zM9 273.5v8.048h2V273.5H9zm0 16.095v8.048h2v-8.048H9zm0 16.096v8.047h2v-8.047H9zm0 16.095v8.047h2v-8.047H9zm0 16.095v8.048h2v-8.048H9zm0 16.095V358h2v-4.024H9zM9 358c0 1.49.297 2.913.835 4.211l1.847-.766A8.974 8.974 0 0111 358H9zm6.79 10.165c1.297.538 2.72.835 4.21.835v-2a8.96 8.96 0 01-3.445-.683l-.766 1.848zM20 369h4.079v-2H20v2zm12.237 0h8.158v-2h-8.158v2zm16.316 0h8.158v-2h-8.158v2zm16.315 0h8.158v-2h-8.158v2zm16.316 0h8.158v-2h-8.158v2zm16.316 0h8.158v-2H97.5v2zm16.316 0h8.158v-2h-8.158v2zm16.316 0h8.157v-2h-8.157v2zm16.315 0h8.158v-2h-8.158v2zm16.316 0h8.158v-2h-8.158v2zm16.316 0h8.158v-2h-8.158v2zm16.316 0h8.158v-2h-8.158v2zm16.316 0h8.157v-2h-8.157v2zm16.315 0h8.158v-2h-8.158v2zm16.316 0h8.158v-2h-8.158v2zm16.316 0h8.158v-2h-8.158v2zm16.316 0h8.158v-2h-8.158v2zm16.316 0h8.157v-2h-8.157v2zm16.315 0h8.158v-2h-8.158v2zm16.316 0H330v-2h-4.079v2zm4.079 0c1.49 0 2.913-.297 4.211-.835l-.766-1.848A8.963 8.963 0 01330 367v2zm10.165-6.789c.538-1.298.835-2.721.835-4.211h-2a8.963 8.963 0 01-.683 3.445l1.848.766zM341 358v-3.98h-2V358h2zm0-11.939v-7.959h-2v7.959h2zm0-15.919v-7.959h-2v7.959h2zm0-15.918v-7.959h-2v7.959h2zm0-15.919v-7.959h-2v7.959h2zm0-15.918v-7.96h-2v7.96h2zm0-15.919v-7.959h-2v7.959h2zm0-15.918v-7.96h-2v7.96h2zm0-15.919v-7.959h-2v7.959h2zm0-15.919v-7.959h-2v7.959h2zm0-15.918v-7.959h-2v7.959h2zm0-15.919v-7.959h-2v7.959h2zm0-15.918v-7.96h-2v7.96h2zm0-15.919v-7.959h-2v7.959h2zm0-15.918v-7.96h-2v7.96h2zm0-15.919v-7.959h-2v7.959h2zm0-15.919v-7.959h-2v7.959h2zm0-15.918v-3.98h-2v3.98h2zm-.763-4.951a1.879 1.879 0 01-.25-.08l-.738 1.859c.169.067.341.122.514.164l.474-1.943zm-.712-.342a2.23 2.23 0 01-.209-.18l-1.398 1.43c.128.125.261.24.399.344l1.208-1.594zm-.209-.18l-2.624-2.565-1.398 1.43 2.624 2.565 1.398-1.43zm-7.873-7.697l-5.248-5.13-1.398 1.43 5.248 5.13 1.398-1.43zm-10.497-10.262l-2.624-2.565-1.398 1.43 2.624 2.566 1.398-1.43zm-2.624-2.565a2.002 2.002 0 01-.446-.654l-1.844.775c.202.479.5.925.892 1.309l1.398-1.43zm-.446-2.207c.1-.237.248-.46.446-.653l-1.398-1.43a4.01 4.01 0 00-.892 1.308l1.844.775zm.446-.653l2.624-2.566-1.398-1.43-2.624 2.566 1.398 1.43zm7.873-7.697l5.248-5.131-1.398-1.43-5.248 5.13 1.398 1.431zm10.497-10.262l2.624-2.566-1.398-1.43-2.624 2.566 1.398 1.43zm2.624-2.566a2.44 2.44 0 01.209-.18l-1.208-1.594a4.23 4.23 0 00-.399.344l1.398 1.43zm.671-.441a1.77 1.77 0 01.25-.08l-.474-1.943a3.895 3.895 0 00-.514.164l.738 1.858zM341 40.489v-5.122h-2v5.122h2zm0-15.367V20h-2v5.122h2zM341 20c0-1.49-.297-2.913-.835-4.21l-1.848.765A8.96 8.96 0 01339 20h2zm-6.789-10.165A10.968 10.968 0 00330 9v2a8.98 8.98 0 013.445.682l.766-1.847zM330 9h-4.079v2H330V9zm-12.237 0h-8.158v2h8.158V9zm-16.316 0h-8.158v2h8.158V9zm-16.315 0h-8.158v2h8.158V9zm-16.316 0h-8.158v2h8.158V9zM252.5 9h-8.158v2h8.158V9zm-16.316 0h-8.158v2h8.158V9zm-16.316 0h-8.157v2h8.157V9zm-16.315 0h-8.158v2h8.158V9zm-16.316 0h-8.158v2h8.158V9zm-16.316 0h-8.158v2h8.158V9zm-16.316 0h-8.158v2h8.158V9zm-16.316 0h-8.157v2h8.157V9zm-16.315 0h-8.158v2h8.158V9zm-16.316 0H97.5v2h8.158V9zM89.342 9h-8.158v2h8.158V9zM73.026 9h-8.158v2h8.158V9zM56.71 9h-8.157v2h8.157V9zM40.395 9h-8.158v2h8.158V9zM24.079 9H20v2h4.079V9zM20 9c-1.49 0-2.913.297-4.21.835l.765 1.847A8.971 8.971 0 0120 11V9zM9.835 15.79A10.97 10.97 0 009 20h2a8.98 8.98 0 01.682-3.445l-1.847-.766z" fill="#E5E5E5" mask="url(#path-2-inside-1)"/></svg>