<svg width="310" height="335" fill="none" xmlns="http://www.w3.org/2000/svg"><path fill-rule="evenodd" clip-rule="evenodd" d="M8.857 0A8.857 8.857 0 000 8.857v317.086a8.857 8.857 0 008.857 8.857h292.286a8.856 8.856 0 008.857-8.857V77.601a2.36 2.36 0 01-.082-.077l-20.104-19.566a2.657 2.657 0 010-3.809l20.104-19.566a2.36 2.36 0 01.082-.077V8.857A8.857 8.857 0 00301.143 0H8.857z" fill="#fff"/><mask id="path-2-inside-1" fill="#fff"><path fill-rule="evenodd" clip-rule="evenodd" d="M17.715 8.857a8.857 8.857 0 00-8.858 8.858v299.371a8.857 8.857 0 008.858 8.857h274.571a8.856 8.856 0 008.857-8.857V77.398a2.638 2.638 0 01-1.225-.69L281.323 58.53a2.658 2.658 0 010-3.8l18.595-18.179c.367-.359.79-.583 1.225-.689V17.715a8.857 8.857 0 00-8.857-8.858H17.715z"/></mask><path fill-rule="evenodd" clip-rule="evenodd" d="M17.715 8.857a8.857 8.857 0 00-8.858 8.858v299.371a8.857 8.857 0 008.858 8.857h274.571a8.856 8.856 0 008.857-8.857V77.398a2.638 2.638 0 01-1.225-.69L281.323 58.53a2.658 2.658 0 010-3.8l18.595-18.179c.367-.359.79-.583 1.225-.689V17.715a8.857 8.857 0 00-8.857-8.858H17.715z" fill="#fff"/><path d="M301.143 77.398h.443v-.348l-.338-.082-.105.43zm-1.225-.69l-.309.317.309-.316zM281.323 58.53l.31-.317-.31.317zm0-3.8l.31.317-.31-.317zm18.595-18.179l-.309-.316.309.316zm1.225-.689l.105.43.338-.082v-.348h-.443zM8.415 17.715v3.564H9.3v-3.564h-.885zm0 10.691v7.128H9.3v-7.128h-.885zm0 14.256v7.128H9.3v-7.128h-.885zm0 14.256v7.128H9.3v-7.128h-.885zm0 14.256v7.128H9.3v-7.128h-.885zm0 14.255v7.128H9.3V85.43h-.885zm0 14.256v7.128H9.3v-7.128h-.885zm0 14.256v7.128H9.3v-7.128h-.885zm0 14.256v7.128H9.3v-7.128h-.885zm0 14.256v7.128H9.3v-7.128h-.885zm0 14.255v7.128H9.3v-7.128h-.885zm0 14.256v7.128H9.3v-7.128h-.885zm0 14.256v7.128H9.3v-7.128h-.885zm0 14.256v7.128H9.3v-7.128h-.885zm0 14.256v7.127H9.3v-7.127h-.885zm0 14.255v7.128H9.3v-7.128h-.885zm0 14.256v7.128H9.3v-7.128h-.885zm0 14.256v7.128H9.3v-7.128h-.885zm0 14.256v7.127H9.3v-7.127h-.885zm0 14.255v7.128H9.3v-7.128h-.885zm0 14.256v7.128H9.3v-7.128h-.885zm0 14.256v3.564H9.3v-3.564h-.885zm0 3.564c0 1.26.25 2.463.705 3.56l.819-.339a8.39 8.39 0 01-.639-3.221h-.885zm5.74 8.594c1.097.455 2.3.706 3.56.706v-.886a8.39 8.39 0 01-3.221-.638l-.34.818zm3.56.706h3.612v-.886h-3.612v.886zm10.838 0h7.226v-.886h-7.226v.886zm14.451 0h7.226v-.886h-7.226v.886zm14.451 0h7.226v-.886h-7.226v.886zm14.451 0h7.226v-.886h-7.226v.886zm14.451 0h7.226v-.886h-7.226v.886zm14.452 0h7.225v-.886h-7.225v.886zm14.451 0h7.225v-.886h-7.225v.886zm14.451 0h7.225v-.886h-7.225v.886zm14.451 0h7.225v-.886h-7.225v.886zm14.451 0h7.226v-.886h-7.226v.886zm14.451 0h7.226v-.886h-7.226v.886zm14.451 0h7.226v-.886h-7.226v.886zm14.451 0h7.226v-.886h-7.226v.886zm14.452 0h7.225v-.886h-7.225v.886zm14.451 0h7.225v-.886h-7.225v.886zm14.451 0h7.225v-.886h-7.225v.886zm14.451 0h7.226v-.886h-7.226v.886zm14.451 0h7.226v-.886h-7.226v.886zm14.451 0h3.613v-.886h-3.613v.886zm3.613 0c1.26 0 2.463-.251 3.56-.706l-.339-.818a8.392 8.392 0 01-3.221.638v.886zm8.594-5.74c.455-1.097.706-2.3.706-3.56h-.886a8.392 8.392 0 01-.638 3.221l.818.339zm.706-3.56v-3.525h-.886v3.525h.886zm0-10.574v-7.05h-.886v7.05h.886zm0-14.1v-7.049h-.886v7.049h.886zm0-14.099v-7.05h-.886v7.05h.886zm0-14.099v-7.05h-.886v7.05h.886zm0-14.1v-7.049h-.886v7.049h.886zm0-14.099v-7.05h-.886v7.05h.886zm0-14.099v-7.05h-.886v7.05h.886zm0-14.1v-7.049h-.886v7.049h.886zm0-14.099v-7.05h-.886v7.05h.886zm0-14.099v-7.05h-.886v7.05h.886zm0-14.1v-7.049h-.886v7.049h.886zm0-14.099v-7.049h-.886v7.049h.886zm0-14.099v-7.05h-.886v7.05h.886zm0-14.099v-7.05h-.886v7.05h.886zm0-14.1v-7.049h-.886v7.049h.886zm0-14.099v-7.05h-.886v7.05h.886zm0-14.1v-3.524h-.886v3.525h.886zm-.338-3.954a2.124 2.124 0 01-.28-.09l-.327.824c.131.052.264.094.397.126l.21-.86zm-.793-.38a2.25 2.25 0 01-.227-.196l-.619.633c.1.098.203.188.311.269l.535-.706zm-.227-.196l-2.325-2.272-.619.633 2.325 2.272.619-.633zm-6.973-6.817l-4.649-4.545-.619.634 4.648 4.544.62-.633zm-9.298-9.09l-2.324-2.272-.619.634 2.324 2.272.619-.633zm-2.324-2.272a2.205 2.205 0 01-.494-.724l-.816.344c.155.37.386.716.691 1.014l.619-.634zm-.494-2.442c.111-.264.275-.51.494-.724l-.619-.634a3.075 3.075 0 00-.691 1.014l.816.344zm.494-.724l2.324-2.273-.619-.633-2.324 2.272.619.634zm6.973-6.817l4.649-4.545-.62-.633-4.648 4.544.619.634zm9.297-9.09l2.325-2.272-.619-.633-2.325 2.272.619.633zm2.325-2.272a2.29 2.29 0 01.227-.196l-.535-.706a3.119 3.119 0 00-.311.269l.619.633zm.74-.486a2.11 2.11 0 01.28-.09l-.21-.86a3.05 3.05 0 00-.397.127l.327.823zm.618-.52v-4.537h-.886v4.537h.886zm0-13.61v-4.537h-.886v4.537h.886zm0-4.537c0-1.26-.251-2.463-.706-3.56l-.818.339a8.39 8.39 0 01.638 3.22h.886zm-5.74-8.595a9.273 9.273 0 00-3.56-.705V9.3a8.39 8.39 0 013.221.639l.339-.819zm-3.56-.705h-3.613V9.3h3.613v-.885zm-10.838 0h-7.226V9.3h7.226v-.885zm-14.451 0h-7.226V9.3h7.226v-.885zm-14.452 0h-7.225V9.3h7.225v-.885zm-14.451 0h-7.225V9.3h7.225v-.885zm-14.451 0h-7.225V9.3h7.225v-.885zm-14.451 0h-7.226V9.3h7.226v-.885zm-14.451 0h-7.226V9.3h7.226v-.885zm-14.451 0h-7.226V9.3h7.226v-.885zm-14.451 0h-7.226V9.3h7.226v-.885zm-14.452 0h-7.225V9.3h7.225v-.885zm-14.451 0h-7.225V9.3h7.225v-.885zm-14.451 0h-7.225V9.3h7.225v-.885zm-14.451 0h-7.226V9.3h7.226v-.885zm-14.451 0h-7.226V9.3h7.226v-.885zm-14.451 0h-7.226V9.3h7.226v-.885zm-14.451 0h-7.226V9.3h7.226v-.885zm-14.451 0h-7.226V9.3h7.226v-.885zm-14.452 0h-7.225V9.3h7.225v-.885zm-14.45 0h-3.613V9.3h3.612v-.885zm-3.613 0c-1.26 0-2.463.25-3.56.705l.339.819a8.388 8.388 0 013.22-.639v-.885zm-8.595 5.74a9.274 9.274 0 00-.705 3.56H9.3c0-1.142.227-2.23.639-3.221l-.819-.34zm292.023 63.243h.886v-.696l-.676-.165-.21.86zm-1.225-.69l-.619.634.619-.633zM281.323 58.53l.619-.633-.619.633zm0-3.8l.619.633-.619-.633zm18.595-18.179l-.619-.633.619.633zm1.225-.689l.21.86.676-.164v-.696h-.886zM7.972 17.715v3.564h1.771v-3.564H7.972zm0 10.691v7.128h1.771v-7.128H7.972zm0 14.256v7.128h1.771v-7.128H7.972zm0 14.256v7.128h1.771v-7.128H7.972zm0 14.256v7.128h1.771v-7.128H7.972zm0 14.255v7.128h1.771V85.43H7.972zm0 14.256v7.128h1.771v-7.128H7.972zm0 14.256v7.128h1.771v-7.128H7.972zm0 14.256v7.128h1.771v-7.128H7.972zm0 14.256v7.128h1.771v-7.128H7.972zm0 14.255v7.128h1.771v-7.128H7.972zm0 14.256v7.128h1.771v-7.128H7.972zm0 14.256v7.128h1.771v-7.128H7.972zm0 14.256v7.128h1.771v-7.128H7.972zm0 14.256v7.127h1.771v-7.127H7.972zm0 14.255v7.128h1.771v-7.128H7.972zm0 14.256v7.128h1.771v-7.128H7.972zm0 14.256v7.128h1.771v-7.128H7.972zm0 14.256v7.127h1.771v-7.127H7.972zm0 14.255v7.128h1.771v-7.128H7.972zm0 14.256v7.128h1.771v-7.128H7.972zm0 14.256v3.564h1.771v-3.564H7.972zm0 3.564c0 1.319.262 2.58.74 3.73l1.636-.679a7.947 7.947 0 01-.605-3.051H7.972zm6.013 9.003c1.15.477 2.41.74 3.73.74v-1.772a7.95 7.95 0 01-3.052-.604l-.678 1.636zm3.73.74h3.612v-1.772h-3.612v1.772zm10.838 0h7.226v-1.772h-7.226v1.772zm14.451 0h7.226v-1.772h-7.226v1.772zm14.451 0h7.226v-1.772h-7.226v1.772zm14.451 0h7.226v-1.772h-7.226v1.772zm14.451 0h7.226v-1.772h-7.226v1.772zm14.452 0h7.225v-1.772h-7.225v1.772zm14.451 0h7.225v-1.772h-7.225v1.772zm14.451 0h7.225v-1.772h-7.225v1.772zm14.451 0h7.225v-1.772h-7.225v1.772zm14.451 0h7.226v-1.772h-7.226v1.772zm14.451 0h7.226v-1.772h-7.226v1.772zm14.451 0h7.226v-1.772h-7.226v1.772zm14.451 0h7.226v-1.772h-7.226v1.772zm14.452 0h7.225v-1.772h-7.225v1.772zm14.451 0h7.225v-1.772h-7.225v1.772zm14.451 0h7.225v-1.772h-7.225v1.772zm14.451 0h7.226v-1.772h-7.226v1.772zm14.451 0h7.226v-1.772h-7.226v1.772zm14.451 0h3.613v-1.772h-3.613v1.772zm3.613 0c1.319 0 2.58-.263 3.73-.74l-.679-1.636a7.952 7.952 0 01-3.051.604v1.772zm9.003-6.013c.477-1.15.74-2.411.74-3.73h-1.772a7.952 7.952 0 01-.604 3.051l1.636.679zm.74-3.73v-3.525h-1.772v3.525h1.772zm0-10.574v-7.05h-1.772v7.05h1.772zm0-14.1v-7.049h-1.772v7.049h1.772zm0-14.099v-7.05h-1.772v7.05h1.772zm0-14.099v-7.05h-1.772v7.05h1.772zm0-14.1v-7.049h-1.772v7.049h1.772zm0-14.099v-7.05h-1.772v7.05h1.772zm0-14.099v-7.05h-1.772v7.05h1.772zm0-14.1v-7.049h-1.772v7.049h1.772zm0-14.099v-7.05h-1.772v7.05h1.772zm0-14.099v-7.05h-1.772v7.05h1.772zm0-14.1v-7.049h-1.772v7.049h1.772zm0-14.099v-7.049h-1.772v7.049h1.772zm0-14.099v-7.05h-1.772v7.05h1.772zm0-14.099v-7.05h-1.772v7.05h1.772zm0-14.1v-7.049h-1.772v7.049h1.772zm0-14.099v-7.05h-1.772v7.05h1.772zm0-14.1v-3.524h-1.772v3.525h1.772zm-.676-4.385a1.662 1.662 0 01-.222-.07l-.653 1.646c.15.06.302.108.456.145l.419-1.72zm-.631-.302a2.076 2.076 0 01-.185-.16l-1.238 1.267c.113.11.231.212.353.305l1.07-1.412zm-.185-.16l-2.324-2.272-1.238 1.267 2.324 2.272 1.238-1.267zm-6.973-6.817l-4.648-4.544-1.239 1.266 4.649 4.545 1.238-1.267zm-9.297-9.089l-2.325-2.272-1.238 1.266 2.324 2.273 1.239-1.267zm-2.325-2.272a1.784 1.784 0 01-.395-.58l-1.633.687c.179.424.443.82.79 1.16l1.238-1.267zm-.395-1.955c.089-.21.22-.407.395-.579l-1.238-1.266c-.347.34-.611.735-.79 1.159l1.633.686zm.395-.579l2.325-2.272-1.239-1.267-2.324 2.273 1.238 1.266zm6.974-6.817l4.648-4.544-1.238-1.267-4.649 4.545 1.239 1.266zm9.297-9.089l2.324-2.272-1.238-1.267-2.324 2.272 1.238 1.267zm2.324-2.272c.061-.06.123-.113.185-.16l-1.07-1.412a3.72 3.72 0 00-.353.305l1.238 1.267zm.594-.392a1.63 1.63 0 01.222-.07l-.419-1.721a3.432 3.432 0 00-.456.145l.653 1.646zm.898-.93v-4.538h-1.772v4.537h1.772zm0-13.611v-4.537h-1.772v4.537h1.772zm0-4.537c0-1.32-.263-2.58-.74-3.73l-1.636.678a7.95 7.95 0 01.604 3.052h1.772zm-6.013-9.004a9.72 9.72 0 00-3.73-.74v1.772c1.082 0 2.112.215 3.051.605l.679-1.637zm-3.73-.74h-3.613v1.772h3.613V7.972zm-10.838 0h-7.226v1.772h7.226V7.972zm-14.451 0h-7.226v1.772h7.226V7.972zm-14.452 0h-7.225v1.772h7.225V7.972zm-14.451 0h-7.225v1.772h7.225V7.972zm-14.451 0h-7.225v1.772h7.225V7.972zm-14.451 0h-7.226v1.772h7.226V7.972zm-14.451 0h-7.226v1.772h7.226V7.972zm-14.451 0h-7.226v1.772h7.226V7.972zm-14.451 0h-7.226v1.772h7.226V7.972zm-14.452 0h-7.225v1.772h7.225V7.972zm-14.451 0h-7.225v1.772h7.225V7.972zm-14.451 0h-7.225v1.772h7.225V7.972zm-14.451 0h-7.226v1.772h7.226V7.972zm-14.451 0h-7.226v1.772h7.226V7.972zm-14.451 0h-7.226v1.772h7.226V7.972zm-14.451 0h-7.226v1.772h7.226V7.972zm-14.451 0h-7.226v1.772h7.226V7.972zm-14.452 0h-7.225v1.772h7.225V7.972zm-14.45 0h-3.613v1.772h3.612V7.972zm-3.613 0c-1.32 0-2.58.263-3.73.74l.678 1.637a7.945 7.945 0 013.052-.605V7.972zM8.71 13.986a9.716 9.716 0 00-.74 3.73h1.772c0-1.083.215-2.113.605-3.052l-1.637-.678z" fill="#E5E5E5" mask="url(#path-2-inside-1)"/></svg>