<svg width="25" height="25" fill="none" xmlns="http://www.w3.org/2000/svg"><path d="M14.583 2.25h-4.166a.417.417 0 000 .833h4.166a.417.417 0 000-.833zm2.917 0h-.416a.417.417 0 000 .833h.416a.417.417 0 000-.833zm-4.483 18h-1.034c-.634 0-1.15.516-1.15 1.15v.2c0 .635.516 1.15 1.15 1.15h1.034a1.15 1.15 0 001.15-1.15v-.2a1.15 1.15 0 00-1.15-1.15zm.316 1.35a.316.316 0 01-.316.317h-1.034a.316.316 0 01-.317-.316V21.4c0-.175.142-.317.317-.317h1.034c.174 0 .316.142.316.317v.2z" fill="#FCCB05"/><path d="M18.078 0H6.923c-.83 0-1.506.676-1.506 1.506v21.988c0 .83.676 1.506 1.506 1.506h11.154a1.51 1.51 0 001.507-1.506V1.506c0-.83-.676-1.506-1.506-1.506zm.672 23.494c0 .37-.301.673-.672.673H6.923a.674.674 0 01-.673-.673V1.506c0-.37.302-.673.673-.673h11.154c.372 0 .673.302.673.673v21.988z" fill="#FCCB05"/></svg>