<svg width="26" height="22" fill="none" xmlns="http://www.w3.org/2000/svg"><path d="M13 13.53a.586.586 0 01-.437-.196l-2.502-2.805a.586.586 0 01-.058-.702l2.501-3.977a.586.586 0 01.992 0l2.501 3.977a.586.586 0 01-.058.702l-2.502 2.805a.586.586 0 01-.437.195zm-1.77-3.452L13 12.063l1.77-1.985L13 7.262l-1.77 2.816z" fill="url(#paint0_linear)"/><path d="M9.29 16.944a.592.592 0 01-.55-.38.59.59 0 01.163-.646.591.591 0 01.695-.058c.209.13.315.383.264.622a.591.591 0 01-.573.462z" fill="url(#paint1_linear)"/><path d="M25.504 2.267a.586.586 0 00-.655.015l-3.83 2.714-1.158-2.59a.586.586 0 00-.855-.251l-3.06 1.996-2.45-3.878a.586.586 0 00-.991 0L10.053 4.15 6.994 2.155a.586.586 0 00-.855.251l-1.158 2.59-3.83-2.714a.586.586 0 00-.914.588L2.72 15.84l.292 4.381c.018.278.23.504.506.542a70.552 70.552 0 0018.964 0 .586.586 0 00.506-.542l.292-4.381 2.483-12.97a.586.586 0 00-.259-.603zm-6.433 1.244l.973 2.176-2.159 1.53-1.312-2.075 2.498-1.63zm-12.142 0l2.498 1.63-1.313 2.076-2.158-1.53.973-2.176zm15.268 11.753l-.87.105a69.61 69.61 0 01-9.373.494h-.01a.586.586 0 00-.008 1.172 70.804 70.804 0 009.532-.502l.596-.073-.213 3.204a69.362 69.362 0 01-17.702 0l-.213-3.204.596.072c.669.081 1.348.154 2.019.215a.586.586 0 10.107-1.167 69.87 69.87 0 01-1.986-.211l-.87-.105L1.663 4.08 7.94 8.53a.586.586 0 00.834-.164L13 1.682l4.225 6.684a.586.586 0 00.834.165l6.28-4.45-2.142 11.183z" fill="url(#paint2_linear)"/><defs><linearGradient id="paint0_linear" x1="12.916" y1="13.529" x2="12.916" y2="5.576" gradientUnits="userSpaceOnUse"><stop stop-color="#FCCB05"/><stop offset="1" stop-color="#FFE57D"/></linearGradient><linearGradient id="paint1_linear" x1="9.273" y1="16.944" x2="9.273" y2="15.773" gradientUnits="userSpaceOnUse"><stop stop-color="#FCCB05"/><stop offset="1" stop-color="#FFE57D"/></linearGradient><linearGradient id="paint2_linear" x1="12.652" y1="21.403" x2="12.652" y2="0" gradientUnits="userSpaceOnUse"><stop stop-color="#FCCB05"/><stop offset="1" stop-color="#FFE57D"/></linearGradient></defs></svg>