<svg width="25" height="25" fill="none" xmlns="http://www.w3.org/2000/svg"><g clip-path="url(#clip0)" fill="#FCCB05"><path d="M12.5 4.556a3.33 3.33 0 00-1.906.595.37.37 0 00-.093.512c.114.167.341.21.507.094.44-.305.956-.466 1.492-.466 1.453 0 2.635 1.191 2.635 2.655A2.647 2.647 0 0112.5 10.6a2.647 2.647 0 01-2.635-2.654c0-.432.1-.844.296-1.224a.37.37 0 00-.156-.496.364.364 0 00-.492.157 3.42 3.42 0 00-.378 1.563c0 1.87 1.51 3.39 3.365 3.39 1.855 0 3.365-1.52 3.365-3.39s-1.51-3.39-3.365-3.39z"/><path d="M24.973 24.49l-3.604-8.723a.365.365 0 00-.337-.227H17.44c.698-.952 1.28-1.9 1.733-2.831.805-1.65 1.213-3.253 1.213-4.763C20.387 3.565 16.85 0 12.501 0 8.15 0 4.614 3.564 4.614 7.946c0 1.51.408 3.113 1.213 4.763A18.61 18.61 0 007.56 15.54H3.97a.367.367 0 00-.338.227l-2.455 5.945a.369.369 0 00.337.509.365.365 0 00.337-.227l.35-.848h2.486l-1.288 3.118H.913l.373-.904a.369.369 0 00-.196-.48.364.364 0 00-.478.198L.03 24.49a.37.37 0 00.033.345.364.364 0 00.304.164h24.27a.364.364 0 00.303-.164.37.37 0 00.034-.345zM5.343 7.947c0-3.976 3.21-7.21 7.157-7.21 3.946 0 7.156 3.234 7.156 7.21 0 1.667-.575 4.331-3.235 7.726l-.008.01a24.28 24.28 0 01-.423.525 28.091 28.091 0 01-3.49 3.503 28.048 28.048 0 01-3.481-3.492c-.15-.18-.295-.36-.434-.537l-.007-.009c-2.66-3.394-3.235-6.058-3.235-7.726zm-1.131 8.33h2.486l-.907 2.195H3.306l.907-2.195zm2.135 7.988L8.63 18.74l6.495 5.524H6.348zm9.91 0l-7.538-6.41a.363.363 0 00-.572.139l-2.59 6.271H4.19l1.38-3.345a.37.37 0 00-.033-.345.364.364 0 00-.304-.164H2.505l.497-1.204h3.033c.148 0 .28-.089.337-.226l1.117-2.704h.634c.11.138.222.276.337.415 1.884 2.267 3.739 3.722 3.817 3.783a.363.363 0 00.447 0c.043-.033.623-.489 1.449-1.267h4.135a.366.366 0 00.365-.368.366.366 0 00-.365-.368h-3.383a28.187 28.187 0 001.953-2.195h3.91l.907 2.195h-1.927a.366.366 0 00-.365.368c0 .203.163.368.365.368h2.23l.498 1.203h-7.523a.365.365 0 00-.342.24.37.37 0 00.102.406l3.67 3.208h-2.146zm3.258 0l-3.565-3.118h6.85l1.288 3.118h-4.572z"/></g><defs><clipPath id="clip0"><path fill="#fff" d="M0 0h25v25H0z"/></clipPath></defs></svg>