<svg width="40" height="40" fill="none" xmlns="http://www.w3.org/2000/svg"><g clip-path="url(#clip0)"><path d="M28.962 14.483l-2.413-6.03a1.379 1.379 0 00-1.279-.866h-1.825l2.759 6.896h2.758zm0 11.034h-2.758l-2.759 6.897h1.825a1.38 1.38 0 001.279-.867l2.413-6.03z" fill="#E38100"/><path d="M38.43 25.086l1.015-2.37a6.926 6.926 0 000-5.432l-1.012-2.37a6.866 6.866 0 00-6.887-4.155l-11.549.965-11.851-.991A6.865 6.865 0 001.43 14.52l-.27.545a11.074 11.074 0 000 9.868l.27.545a6.865 6.865 0 006.715 3.789l11.851-.992 11.552.965a6.866 6.866 0 006.88-4.155z" fill="#FCCB05"/><path d="M30.956 29.193a15.872 15.872 0 005.763-16.675 6.867 6.867 0 011.71 2.396l1.016 2.37a6.926 6.926 0 010 5.433l-1.012 2.37a6.866 6.866 0 01-6.887 4.154l-.59-.048z" fill="#E38100"/><path d="M28.812 14.66l-.116-.177a1.379 1.379 0 00-1.286-.61l-6.042.61v11.034l6.042.607a1.38 1.38 0 001.287-.607l.115-.174a9.654 9.654 0 000-10.684z" fill="#23AEC8"/><path d="M28.876 14.763a9.656 9.656 0 01-.064 10.577l-.115.177c-.283.426-.778.66-1.287.61l-4.62-.465a15.838 15.838 0 006.086-10.899z" fill="#1967A3"/><path d="M11.721 14.483v11.034l-3.178.53a1.38 1.38 0 01-1.432-.69l-.743-1.337a8.275 8.275 0 010-8.038l.743-1.337a1.38 1.38 0 011.433-.69l3.177.528z" fill="#23AEC8"/><path d="M7.111 25.357l-.374-.674a22.692 22.692 0 004.985-9.457v10.291l-3.178.53a1.378 1.378 0 01-1.433-.69z" fill="#1967A3"/><path d="M36.24 15.978l-4.138-2.758-.765 1.147 4.138 2.76.765-1.149zm.002 8.046l-.765-1.148-4.139 2.759.765 1.147 4.139-2.758z" fill="#555160"/></g><defs><clipPath id="clip0"><path fill="#fff" transform="rotate(-90 20 20)" d="M0 0h40v40H0z"/></clipPath></defs></svg>