<svg width="71" height="71" viewBox="0 0 71 71" fill="none" xmlns="http://www.w3.org/2000/svg">
<circle cx="35" cy="35" r="35" fill="white"/>
<path d="M35.3862 0.667969C16.0588 0.667969 0.387695 16.3404 0.387695 35.6694C0.387695 54.9984 16.0588 70.6738 35.3862 70.6738C54.7137 70.6738 70.3878 54.9984 70.3878 35.6694C70.3878 16.3404 54.7137 0.667969 35.3862 0.667969ZM42.6722 54.9155C40.8707 55.6266 39.4366 56.1659 38.3611 56.5393C37.2885 56.9127 36.0411 57.0994 34.6218 57.0994C32.4411 57.0994 30.7433 56.566 29.5344 55.5022C28.3255 54.4384 27.724 53.0901 27.724 51.4515C27.724 50.8144 27.7685 50.1625 27.8573 49.4987C27.9492 48.835 28.0944 48.0882 28.2929 47.2496L30.5477 39.2845C30.7462 38.52 30.9181 37.794 31.0544 37.1184C31.1907 36.4369 31.2559 35.8117 31.2559 35.2427C31.2559 34.2293 31.0455 33.5181 30.6277 33.1181C30.204 32.7181 29.407 32.5225 28.2188 32.5225C27.6381 32.5225 27.0396 32.6084 26.4262 32.7892C25.8188 32.9759 25.2914 33.1448 24.8588 33.3107L25.4544 30.8572C26.9299 30.2556 28.3433 29.74 29.6914 29.3133C31.0396 28.8807 32.3137 28.6674 33.5136 28.6674C35.6796 28.6674 37.3507 29.1948 38.527 30.2379C39.6974 31.2839 40.287 32.644 40.287 34.3152C40.287 34.6619 40.2455 35.2723 40.1655 36.1435C40.0855 37.0177 39.9344 37.8148 39.7151 38.5467L37.4722 46.4881C37.2885 47.1252 37.1255 47.8541 36.9774 48.669C36.8322 49.4839 36.7611 50.1062 36.7611 50.524C36.7611 51.5789 36.9951 52.299 37.4692 52.6812C37.9374 53.0635 38.7581 53.2561 39.9196 53.2561C40.4677 53.2561 41.0811 53.1583 41.7744 52.9686C42.4618 52.779 42.9596 52.6101 43.2737 52.4649L42.6722 54.9155ZM42.2751 22.6817C41.2292 23.6536 39.97 24.1396 38.4974 24.1396C37.0277 24.1396 35.7596 23.6536 34.7048 22.6817C33.6559 21.7097 33.1255 20.5274 33.1255 19.1466C33.1255 17.7687 33.6588 16.5834 34.7048 15.6026C35.7596 14.6188 37.0277 14.1298 38.4974 14.1298C39.97 14.1298 41.2322 14.6188 42.2751 15.6026C43.3211 16.5834 43.8455 17.7687 43.8455 19.1466C43.8455 20.5304 43.3211 21.7097 42.2751 22.6817Z" fill="url(#paint0_linear)"/>
<defs>
<linearGradient id="paint0_linear" x1="0.387695" y1="0.667969" x2="74.2461" y2="6.78129" gradientUnits="userSpaceOnUse">
<stop stop-color="#051EFC"/>
<stop offset="0.877466" stop-color="#51A1FF"/>
</linearGradient>
</defs>
</svg>
