<svg width="449" height="260" viewBox="0 0 449 260" fill="none" xmlns="http://www.w3.org/2000/svg">
<path d="M449 130C449 157.614 426.614 180 399 180C371.386 180 349 157.614 349 130C349 102.386 371.386 80 399 80C426.614 80 449 102.386 449 130Z" fill="url(#paint0_linear)"/>
<mask id="mask0" mask-type="alpha" maskUnits="userSpaceOnUse" x="349" y="80" width="100" height="100">
<circle cx="399" cy="130" r="50" fill="url(#paint1_linear)"/>
</mask>
<g mask="url(#mask0)">
<path fill-rule="evenodd" clip-rule="evenodd" d="M396.798 108.817C396.637 108.817 396.479 108.779 396.336 108.705C396.193 108.63 396.071 108.523 395.979 108.391C395.886 108.259 395.827 108.107 395.806 107.948C395.785 107.789 395.803 107.627 395.858 107.475L396.734 105.069C394.948 105.178 393.187 105.487 391.483 105.986L391.367 109.307C391.358 109.566 391.249 109.811 391.063 109.991C390.877 110.171 390.628 110.272 390.369 110.272H390.334C390.203 110.268 390.074 110.237 389.954 110.183C389.835 110.129 389.727 110.051 389.638 109.955C389.548 109.859 389.478 109.746 389.432 109.623C389.386 109.5 389.365 109.37 389.369 109.238L389.458 106.679C387.882 107.3 386.368 108.089 384.945 109.04C384.879 109.084 384.813 109.129 384.747 109.174L385.663 112.367C385.737 112.622 385.706 112.896 385.577 113.128C385.449 113.36 385.233 113.531 384.978 113.604C384.888 113.631 384.793 113.644 384.698 113.643C384.481 113.643 384.27 113.573 384.097 113.442C383.924 113.311 383.797 113.128 383.738 112.919L383.034 110.46C381.656 111.595 380.413 112.88 379.326 114.287L381.186 117.042C381.287 117.192 381.346 117.367 381.355 117.549C381.365 117.73 381.325 117.91 381.239 118.07C381.154 118.23 381.027 118.364 380.872 118.458C380.716 118.551 380.538 118.601 380.357 118.601C380.193 118.601 380.032 118.561 379.887 118.484C379.742 118.407 379.618 118.296 379.527 118.161L378.095 116.039C377.351 117.206 376.707 118.441 376.172 119.731C376.023 120.092 375.882 120.457 375.751 120.824L378.369 122.867C378.533 122.995 378.653 123.172 378.712 123.371C378.771 123.571 378.766 123.784 378.699 123.981C378.631 124.178 378.503 124.348 378.334 124.469C378.164 124.59 377.961 124.655 377.753 124.655C377.53 124.655 377.314 124.581 377.139 124.443L375.121 122.868C374.673 124.597 374.422 126.368 374.369 128.149L377.492 129.284C377.714 129.364 377.9 129.52 378.019 129.724C378.137 129.927 378.179 130.167 378.139 130.399C378.098 130.631 377.976 130.841 377.795 130.992C377.614 131.144 377.386 131.226 377.15 131.225C377.034 131.225 376.918 131.204 376.809 131.164L374.403 130.289C374.468 131.361 374.606 132.432 374.817 133.494C374.954 134.186 375.122 134.869 375.319 135.541L378.64 135.656C378.905 135.66 379.158 135.77 379.342 135.961C379.526 136.151 379.627 136.407 379.623 136.673C379.618 136.938 379.509 137.19 379.318 137.375C379.127 137.559 378.871 137.66 378.606 137.656H378.571L376.013 137.567C376.665 139.226 377.502 140.806 378.506 142.278L381.698 141.361C381.953 141.288 382.227 141.319 382.459 141.448C382.691 141.576 382.862 141.792 382.935 142.047C383.008 142.302 382.977 142.576 382.848 142.808C382.72 143.04 382.504 143.211 382.249 143.284L379.791 143.989C380.277 144.579 380.792 145.147 381.336 145.691C382.056 146.411 382.819 147.081 383.619 147.699L386.374 145.84C386.483 145.767 386.606 145.715 386.734 145.689C386.863 145.663 386.996 145.662 387.125 145.687C387.253 145.712 387.376 145.762 387.486 145.835C387.595 145.907 387.689 146.001 387.763 146.11C387.836 146.218 387.888 146.341 387.914 146.469C387.94 146.598 387.941 146.731 387.916 146.86C387.891 146.989 387.841 147.111 387.768 147.221C387.696 147.33 387.602 147.425 387.493 147.498L385.371 148.931C386.873 149.889 388.479 150.676 390.16 151.277L392.203 148.656C392.368 148.452 392.606 148.32 392.867 148.29C393.128 148.26 393.39 148.333 393.597 148.495C393.804 148.657 393.939 148.893 393.973 149.154C394.007 149.414 393.937 149.678 393.779 149.887L392.204 151.906C392.643 152.02 393.086 152.121 393.532 152.21C394.839 152.47 396.16 152.619 397.481 152.657L398.617 149.533C398.66 149.408 398.727 149.292 398.816 149.192C398.904 149.093 399.012 149.012 399.131 148.955C399.251 148.898 399.382 148.865 399.514 148.858C399.647 148.852 399.78 148.872 399.905 148.917C400.03 148.963 400.144 149.033 400.242 149.123C400.339 149.214 400.418 149.322 400.473 149.443C400.528 149.564 400.558 149.695 400.562 149.828C400.566 149.961 400.543 150.093 400.496 150.217L399.621 152.624C401.397 152.516 403.159 152.209 404.873 151.707L404.988 148.39C405.001 148.127 405.116 147.879 405.309 147.699C405.502 147.519 405.757 147.421 406.02 147.425C406.152 147.43 406.281 147.46 406.4 147.514C406.52 147.569 406.627 147.646 406.717 147.742C406.807 147.838 406.877 147.951 406.923 148.074C406.969 148.197 406.99 148.328 406.985 148.459L406.897 151.014C407.03 150.962 407.162 150.908 407.294 150.854C408.816 150.223 410.261 149.439 411.609 148.519L410.691 145.324C410.652 145.197 410.639 145.063 410.652 144.931C410.666 144.799 410.705 144.671 410.768 144.554C410.832 144.438 410.918 144.335 411.021 144.252C411.125 144.168 411.244 144.107 411.371 144.07C411.499 144.033 411.633 144.023 411.764 144.038C411.896 144.054 412.024 144.095 412.139 144.161C412.255 144.226 412.356 144.314 412.438 144.419C412.519 144.524 412.579 144.644 412.613 144.772L413.319 147.235C414.691 146.105 415.937 144.821 417.03 143.406L415.171 140.65C415.023 140.43 414.968 140.16 415.018 139.9C415.069 139.64 415.221 139.41 415.44 139.262C415.66 139.113 415.93 139.058 416.19 139.109C416.451 139.159 416.681 139.311 416.829 139.531L418.261 141.654C419.224 140.144 420.009 138.537 420.606 136.866L417.986 134.822C417.882 134.741 417.796 134.64 417.731 134.526C417.666 134.412 417.625 134.286 417.609 134.156C417.593 134.025 417.602 133.893 417.637 133.766C417.672 133.64 417.732 133.521 417.813 133.418C417.894 133.314 417.994 133.228 418.108 133.163C418.223 133.098 418.349 133.057 418.479 133.04C418.609 133.024 418.742 133.034 418.868 133.069C418.995 133.104 419.113 133.164 419.217 133.245L421.235 134.821C421.681 133.102 421.934 131.332 421.987 129.543L418.862 128.406C418.618 128.312 418.421 128.126 418.312 127.887C418.204 127.649 418.193 127.378 418.283 127.132C418.373 126.885 418.555 126.684 418.791 126.571C419.028 126.458 419.299 126.443 419.546 126.527L421.951 127.401C421.841 125.611 421.529 123.851 421.03 122.151L417.716 122.036C417.451 122.027 417.2 121.913 417.019 121.719C416.838 121.525 416.741 121.267 416.75 121.002C416.759 120.737 416.873 120.486 417.067 120.305C417.261 120.124 417.519 120.027 417.784 120.036L420.334 120.124C419.682 118.471 418.846 116.891 417.838 115.416L414.655 116.331C414.565 116.357 414.472 116.37 414.379 116.37C414.138 116.37 413.905 116.283 413.723 116.125C413.541 115.967 413.422 115.748 413.388 115.51C413.355 115.271 413.408 115.028 413.54 114.826C413.671 114.624 413.87 114.475 414.102 114.409L416.552 113.706C416.068 113.119 415.555 112.553 415.012 112.01C414.29 111.288 413.526 110.616 412.726 109.999L409.981 111.854C409.816 111.965 409.622 112.023 409.423 112.022C409.209 112.022 409.001 111.954 408.829 111.827C408.657 111.699 408.53 111.52 408.467 111.316C408.404 111.111 408.409 110.892 408.48 110.69C408.551 110.488 408.685 110.315 408.862 110.195L410.975 108.768C409.471 107.808 407.866 107.022 406.192 106.422L404.151 109.034C404.058 109.154 403.938 109.252 403.802 109.319C403.665 109.385 403.515 109.42 403.363 109.42C403.175 109.42 402.992 109.367 402.833 109.268C402.674 109.169 402.546 109.027 402.464 108.858C402.382 108.69 402.349 108.502 402.369 108.315C402.389 108.129 402.46 107.952 402.576 107.804L404.148 105.792C402.435 105.347 400.667 105.091 398.873 105.036L397.738 108.154C397.668 108.348 397.541 108.516 397.373 108.635C397.205 108.753 397.004 108.817 396.798 108.817ZM405.938 104.219C403.498 103.45 400.963 103.05 398.416 103.027C398.324 103.005 398.23 102.997 398.136 103.001C398.076 103.004 398.016 103.013 397.958 103.026C396.348 103.04 394.735 103.205 393.14 103.522C389.528 104.241 386.128 105.72 383.158 107.845C383.087 107.878 383.02 107.92 382.959 107.969C382.922 107.998 382.889 108.03 382.857 108.063C381.821 108.827 380.839 109.671 379.921 110.589C378.971 111.539 378.1 112.558 377.315 113.635C377.298 113.657 377.281 113.68 377.266 113.703C375.737 115.815 374.535 118.147 373.704 120.622C373.651 120.706 373.611 120.798 373.585 120.895C373.568 120.958 373.557 121.022 373.553 121.087C373.272 121.978 373.039 122.887 372.855 123.809C372.526 125.465 372.361 127.14 372.359 128.812C372.359 128.834 372.359 128.856 372.359 128.878C372.363 131.561 372.784 134.233 373.614 136.797C373.619 136.816 373.625 136.835 373.632 136.853C373.838 137.485 374.069 138.111 374.325 138.728C375.095 140.588 376.076 142.342 377.242 143.958C377.27 144.003 377.301 144.046 377.335 144.086C378.902 146.229 380.797 148.127 382.958 149.704C382.97 149.713 382.982 149.723 382.994 149.732C383.01 149.744 383.026 149.755 383.043 149.766C383.303 149.954 383.567 150.137 383.834 150.316C385.791 151.623 387.906 152.65 390.117 153.377C390.171 153.4 390.227 153.418 390.284 153.431C392.814 154.244 395.469 154.665 398.155 154.667L398.178 154.668L398.201 154.667C400.876 154.662 403.509 154.242 406.012 153.442C406.11 153.426 406.206 153.395 406.295 153.35C408.754 152.533 411.083 151.349 413.201 149.832C413.308 149.78 413.404 149.71 413.486 149.625C414.522 148.861 415.505 148.017 416.426 147.096C417.351 146.171 418.199 145.183 418.965 144.142C419.034 144.072 419.093 143.993 419.14 143.905L419.147 143.891C420.677 141.759 421.87 139.412 422.689 136.934C422.703 136.904 422.716 136.873 422.726 136.841C422.741 136.799 422.753 136.756 422.761 136.712C423.561 134.218 423.985 131.595 423.996 128.928C424.001 128.874 424.001 128.82 423.997 128.766C423.988 126.133 423.578 123.532 422.791 121.049C422.775 120.924 422.736 120.804 422.676 120.694C421.951 118.515 420.935 116.431 419.645 114.5C419.505 114.291 419.362 114.083 419.216 113.878C419.178 113.784 419.127 113.697 419.064 113.618C419.022 113.567 418.976 113.521 418.926 113.479C417.4 111.418 415.58 109.603 413.533 108.088C413.474 108.022 413.406 107.963 413.332 107.915C413.285 107.884 413.237 107.858 413.186 107.836C411.598 106.702 409.879 105.745 408.058 104.991C407.509 104.763 406.953 104.556 406.393 104.367C406.31 104.316 406.22 104.277 406.125 104.251C406.064 104.235 406.001 104.224 405.938 104.219ZM410.537 137.676C410.691 137.767 410.867 137.815 411.046 137.815C411.214 137.816 411.38 137.774 411.528 137.694C411.675 137.613 411.8 137.497 411.891 137.355C412.491 136.406 412.986 135.394 413.367 134.337C413.458 134.088 413.445 133.813 413.333 133.573C413.22 133.332 413.017 133.146 412.768 133.056C412.518 132.966 412.243 132.978 412.003 133.09C411.763 133.203 411.577 133.406 411.486 133.656C411.155 134.574 410.725 135.453 410.203 136.278C410.107 136.43 410.053 136.604 410.047 136.783C410.042 136.962 410.084 137.139 410.17 137.296C410.256 137.453 410.383 137.584 410.537 137.676ZM398.107 144.996H398.102C394.915 144.981 391.803 144.023 389.159 142.243C386.515 140.463 384.456 137.939 383.243 134.991C382.03 132.043 381.717 128.802 382.342 125.676C382.968 122.55 384.504 119.68 386.758 117.425C389.012 115.171 391.883 113.635 395.009 113.009C398.134 112.383 401.375 112.697 404.323 113.91C407.271 115.123 409.794 117.182 411.574 119.826C413.354 122.47 414.312 125.583 414.327 128.77C414.327 129.035 414.222 129.288 414.036 129.476C413.849 129.663 413.596 129.769 413.332 129.77H413.327C413.062 129.77 412.809 129.666 412.621 129.479C412.434 129.293 412.328 129.04 412.327 128.775C412.313 125.982 411.473 123.256 409.913 120.94C408.352 118.623 406.142 116.82 403.559 115.758C400.976 114.696 398.137 114.422 395.398 114.971C392.66 115.519 390.145 116.866 388.171 118.841C386.196 120.817 384.851 123.332 384.303 126.071C383.755 128.809 384.03 131.649 385.093 134.232C386.156 136.814 387.96 139.025 390.277 140.584C392.593 142.144 395.32 142.983 398.112 142.996C398.378 142.997 398.632 143.103 398.819 143.291C399.006 143.479 399.111 143.733 399.11 143.998C399.109 144.264 399.003 144.518 398.815 144.705C398.627 144.892 398.373 144.997 398.107 144.996ZM402.685 143.861C402.865 144.012 403.092 144.095 403.327 144.096C403.443 144.096 403.558 144.075 403.667 144.036C404.697 143.663 405.684 143.184 406.614 142.606C406.84 142.466 407 142.242 407.061 141.984C407.121 141.726 407.077 141.454 406.937 141.228C406.797 141.003 406.573 140.842 406.315 140.782C406.056 140.721 405.785 140.766 405.559 140.906C404.748 141.411 403.886 141.83 402.987 142.156C402.766 142.236 402.581 142.391 402.463 142.595C402.345 142.798 402.303 143.037 402.344 143.268C402.384 143.5 402.505 143.71 402.685 143.861ZM398.178 133.11C397.334 133.11 396.51 132.86 395.809 132.392C395.107 131.923 394.561 131.257 394.238 130.478C393.915 129.699 393.83 128.842 393.995 128.014C394.159 127.187 394.565 126.427 395.162 125.831C395.758 125.234 396.517 124.828 397.345 124.663C398.172 124.499 399.029 124.583 399.808 124.906C400.587 125.229 401.253 125.775 401.722 126.476C402.19 127.178 402.441 128.002 402.441 128.846C402.44 129.976 401.99 131.06 401.191 131.859C400.392 132.659 399.308 133.108 398.178 133.11ZM398.178 126.582C397.73 126.582 397.292 126.715 396.92 126.964C396.547 127.212 396.257 127.566 396.085 127.98C395.914 128.393 395.869 128.849 395.956 129.288C396.044 129.727 396.259 130.131 396.576 130.448C396.893 130.764 397.296 130.98 397.735 131.067C398.175 131.155 398.63 131.11 399.044 130.938C399.457 130.767 399.811 130.476 400.06 130.104C400.308 129.731 400.441 129.293 400.441 128.846C400.44 128.246 400.201 127.67 399.777 127.246C399.353 126.822 398.778 126.583 398.178 126.582ZM396.553 122.454C397.034 122.775 397.599 122.945 398.178 122.945C398.952 122.943 399.694 122.635 400.242 122.087C400.789 121.539 401.097 120.796 401.098 120.022C401.098 119.444 400.926 118.879 400.605 118.398C400.283 117.917 399.827 117.542 399.293 117.321C398.758 117.1 398.17 117.043 397.603 117.156C397.036 117.269 396.515 117.547 396.107 117.956C395.698 118.365 395.42 118.886 395.308 119.454C395.195 120.021 395.253 120.609 395.475 121.143C395.697 121.677 396.072 122.133 396.553 122.454ZM397.665 119.255C397.817 119.153 397.995 119.099 398.178 119.099C398.422 119.099 398.657 119.197 398.83 119.37C399.003 119.543 399.1 119.777 399.101 120.022C399.101 120.205 399.046 120.383 398.945 120.535C398.844 120.687 398.7 120.805 398.531 120.875C398.362 120.945 398.177 120.963 397.998 120.927C397.819 120.892 397.654 120.804 397.525 120.675C397.396 120.546 397.308 120.381 397.272 120.202C397.237 120.023 397.255 119.837 397.325 119.669C397.395 119.5 397.513 119.356 397.665 119.255ZM389.782 129.042C389.321 129.041 388.867 128.932 388.456 128.722C388.046 128.512 387.691 128.209 387.42 127.836C387.149 127.463 386.971 127.031 386.899 126.576C386.827 126.12 386.864 125.655 387.006 125.216C387.173 124.703 387.478 124.247 387.888 123.896C388.298 123.546 388.797 123.316 389.329 123.232C389.862 123.148 390.408 123.213 390.906 123.419C391.404 123.626 391.835 123.966 392.152 124.403C392.468 124.839 392.658 125.355 392.7 125.892C392.742 126.43 392.634 126.969 392.389 127.449C392.144 127.929 391.77 128.332 391.31 128.613C390.85 128.894 390.321 129.043 389.782 129.042ZM388.908 125.834C388.832 126.067 388.852 126.32 388.964 126.538C389.075 126.757 389.268 126.922 389.501 126.997C389.734 127.073 389.987 127.053 390.205 126.941C390.423 126.83 390.588 126.637 390.664 126.404C390.739 126.171 390.719 125.918 390.608 125.7C390.497 125.482 390.304 125.317 390.071 125.241C389.838 125.166 389.585 125.186 389.367 125.297C389.148 125.408 388.984 125.601 388.908 125.834ZM391.273 138.35C391.77 138.713 392.37 138.909 392.985 138.909C393.447 138.909 393.903 138.8 394.315 138.59C394.726 138.38 395.083 138.076 395.355 137.703C395.695 137.235 395.888 136.677 395.911 136.099C395.934 135.522 395.785 134.95 395.483 134.457C395.18 133.964 394.739 133.572 394.214 133.33C393.689 133.088 393.104 133.007 392.533 133.097C391.962 133.188 391.43 133.446 391.006 133.838C390.582 134.231 390.283 134.74 390.148 135.303C390.013 135.865 390.048 136.455 390.248 136.997C390.449 137.539 390.805 138.01 391.273 138.35ZM392.455 135.237C392.613 135.123 392.803 135.061 392.998 135.062C393.144 135.062 393.287 135.097 393.417 135.163C393.546 135.229 393.658 135.325 393.744 135.443C393.829 135.561 393.885 135.698 393.908 135.841C393.931 135.985 393.919 136.132 393.874 136.271C393.829 136.409 393.751 136.535 393.649 136.638C393.546 136.741 393.42 136.818 393.281 136.863C393.143 136.908 392.996 136.919 392.852 136.897C392.708 136.874 392.572 136.817 392.454 136.732C392.296 136.617 392.179 136.456 392.118 136.27C392.058 136.084 392.058 135.884 392.119 135.699C392.179 135.513 392.297 135.352 392.455 135.237ZM403.369 138.909C402.673 138.91 401.999 138.663 401.469 138.212C400.939 137.761 400.587 137.135 400.477 136.448C400.367 135.761 400.506 135.056 400.869 134.462C401.232 133.868 401.795 133.423 402.456 133.207C403.118 132.991 403.835 133.019 404.479 133.284C405.122 133.55 405.65 134.037 405.966 134.657C406.283 135.277 406.368 135.989 406.206 136.666C406.044 137.343 405.645 137.94 405.082 138.35C404.585 138.713 403.985 138.909 403.369 138.909ZM403.365 135.063C403.195 135.063 403.029 135.11 402.884 135.199C402.739 135.288 402.621 135.415 402.544 135.567C402.467 135.719 402.433 135.888 402.446 136.058C402.46 136.228 402.519 136.39 402.619 136.528C402.764 136.725 402.981 136.857 403.223 136.895C403.465 136.932 403.712 136.872 403.909 136.728C404.067 136.613 404.184 136.451 404.244 136.266C404.304 136.081 404.304 135.881 404.243 135.696C404.183 135.511 404.065 135.349 403.908 135.235C403.75 135.12 403.56 135.059 403.365 135.059V135.063ZM405.039 128.612C405.498 128.894 406.026 129.043 406.565 129.044C407.027 129.044 407.482 128.934 407.893 128.725C408.304 128.515 408.66 128.211 408.931 127.838C409.202 127.465 409.382 127.033 409.454 126.577C409.527 126.122 409.491 125.655 409.349 125.216C409.183 124.704 408.877 124.247 408.468 123.897C408.058 123.547 407.559 123.317 407.026 123.232C406.494 123.148 405.949 123.212 405.451 123.419C404.952 123.625 404.521 123.964 404.204 124.4C403.887 124.836 403.697 125.352 403.654 125.889C403.611 126.426 403.718 126.965 403.962 127.445C404.207 127.926 404.579 128.33 405.039 128.612ZM406.279 125.241C406.372 125.212 406.468 125.196 406.565 125.196C406.76 125.197 406.95 125.259 407.107 125.373C407.265 125.488 407.382 125.649 407.442 125.834C407.499 126.008 407.502 126.194 407.453 126.37C407.403 126.546 407.302 126.703 407.164 126.821C407.025 126.94 406.854 127.014 406.673 127.036C406.491 127.057 406.308 127.024 406.145 126.941C405.983 126.858 405.848 126.729 405.759 126.57C405.67 126.411 405.63 126.228 405.644 126.046C405.659 125.864 405.727 125.691 405.84 125.547C405.953 125.404 406.106 125.298 406.279 125.241ZM385.609 162.286H373.791C373.526 162.286 373.271 162.18 373.084 161.993C372.896 161.805 372.791 161.551 372.791 161.286C372.791 161.021 372.896 160.766 373.084 160.579C373.271 160.391 373.526 160.286 373.791 160.286H385.609C385.875 160.286 386.129 160.391 386.316 160.579C386.504 160.766 386.609 161.021 386.609 161.286C386.609 161.551 386.504 161.805 386.316 161.993C386.129 162.18 385.875 162.286 385.609 162.286ZM365.756 162.286H367.645C367.911 162.286 368.165 162.18 368.353 161.993C368.54 161.805 368.645 161.551 368.645 161.286C368.645 161.021 368.54 160.766 368.353 160.579C368.165 160.391 367.911 160.286 367.645 160.286H365.756C365.49 160.286 365.236 160.391 365.048 160.579C364.861 160.766 364.756 161.021 364.756 161.286C364.756 161.551 364.861 161.805 365.048 161.993C365.236 162.18 365.49 162.286 365.756 162.286ZM373.87 149.056H363.036C362.771 149.056 362.517 148.951 362.329 148.763C362.142 148.576 362.036 148.321 362.036 148.056C362.036 147.791 362.142 147.537 362.329 147.349C362.517 147.161 362.771 147.056 363.036 147.056H373.87C374.135 147.056 374.389 147.161 374.577 147.349C374.764 147.537 374.87 147.791 374.87 148.056C374.87 148.321 374.764 148.576 374.577 148.763C374.389 148.951 374.135 149.056 373.87 149.056ZM355 149.056H356.891C357.156 149.056 357.41 148.951 357.598 148.763C357.785 148.576 357.891 148.321 357.891 148.056C357.891 147.791 357.785 147.537 357.598 147.349C357.41 147.161 357.156 147.056 356.891 147.056H355C354.735 147.056 354.48 147.161 354.293 147.349C354.105 147.537 354 147.791 354 148.056C354 148.321 354.105 148.576 354.293 148.763C354.48 148.951 354.735 149.056 355 149.056ZM379.561 155.667H367.741C367.476 155.667 367.222 155.562 367.034 155.375C366.847 155.187 366.741 154.933 366.741 154.667C366.741 154.402 366.847 154.148 367.034 153.96C367.222 153.773 367.476 153.668 367.741 153.668H379.561C379.826 153.668 380.08 153.773 380.268 153.96C380.455 154.148 380.56 154.402 380.56 154.667C380.56 154.933 380.455 155.187 380.268 155.375C380.08 155.562 379.826 155.667 379.561 155.667ZM359.705 155.667H361.6C361.865 155.667 362.119 155.562 362.307 155.375C362.494 155.187 362.6 154.933 362.6 154.667C362.6 154.402 362.494 154.148 362.307 153.96C362.119 153.773 361.865 153.668 361.6 153.668H359.705C359.439 153.668 359.185 153.773 358.998 153.96C358.81 154.148 358.705 154.402 358.705 154.667C358.705 154.933 358.81 155.187 358.998 155.375C359.185 155.562 359.439 155.667 359.705 155.667Z" fill="white" style="mix-blend-mode:overlay"/>
</g>
<g filter="url(#filter0_d)">
<path fill-rule="evenodd" clip-rule="evenodd" d="M40 30C34.4772 30 30 34.4772 30 40V220C30 225.523 34.4771 230 40 230H390C395.523 230 400 225.523 400 220V189.997C399.8 189.999 399.6 190 399.4 190C364.369 190 335.971 163.137 335.971 130C335.971 96.8629 364.369 70 399.4 70C399.6 70 399.8 70.0009 400 70.0026V40C400 34.4772 395.523 30 390 30H40Z" fill="white"/>
</g>
<g filter="url(#filter1_d)">
<path d="M390 199.888H390.5V199.415L390.028 199.388L390 199.888ZM390 60.1124L390.028 60.6116L390.5 60.585V60.1124H390ZM39.5 53.6364C39.5 53.9125 39.7239 54.1364 40 54.1364C40.2761 54.1364 40.5 53.9125 40.5 53.6364H39.5ZM40.5 60.9091C40.5 60.633 40.2761 60.4091 40 60.4091C39.7239 60.4091 39.5 60.633 39.5 60.9091H40.5ZM39.5 68.1818C39.5 68.458 39.7239 68.6818 40 68.6818C40.2761 68.6818 40.5 68.458 40.5 68.1818H39.5ZM40.5 75.4545C40.5 75.1784 40.2761 74.9545 40 74.9545C39.7239 74.9545 39.5 75.1784 39.5 75.4545H40.5ZM39.5 82.7273C39.5 83.0034 39.7239 83.2273 40 83.2273C40.2761 83.2273 40.5 83.0034 40.5 82.7273H39.5ZM40.5 90C40.5 89.7239 40.2761 89.5 40 89.5C39.7239 89.5 39.5 89.7239 39.5 90H40.5ZM39.5 97.2727C39.5 97.5489 39.7239 97.7727 40 97.7727C40.2761 97.7727 40.5 97.5489 40.5 97.2727H39.5ZM40.5 104.545C40.5 104.269 40.2761 104.045 40 104.045C39.7239 104.045 39.5 104.269 39.5 104.545H40.5ZM39.5 111.818C39.5 112.094 39.7239 112.318 40 112.318C40.2761 112.318 40.5 112.094 40.5 111.818H39.5ZM40.5 119.091C40.5 118.815 40.2761 118.591 40 118.591C39.7239 118.591 39.5 118.815 39.5 119.091H40.5ZM39.5 126.364C39.5 126.64 39.7239 126.864 40 126.864C40.2761 126.864 40.5 126.64 40.5 126.364H39.5ZM40.5 133.636C40.5 133.36 40.2761 133.136 40 133.136C39.7239 133.136 39.5 133.36 39.5 133.636H40.5ZM39.5 140.909C39.5 141.185 39.7239 141.409 40 141.409C40.2761 141.409 40.5 141.185 40.5 140.909H39.5ZM40.5 148.182C40.5 147.906 40.2761 147.682 40 147.682C39.7239 147.682 39.5 147.906 39.5 148.182H40.5ZM39.5 155.455C39.5 155.731 39.7239 155.955 40 155.955C40.2761 155.955 40.5 155.731 40.5 155.455H39.5ZM40.5 162.727C40.5 162.451 40.2761 162.227 40 162.227C39.7239 162.227 39.5 162.451 39.5 162.727H40.5ZM39.5 170C39.5 170.276 39.7239 170.5 40 170.5C40.2761 170.5 40.5 170.276 40.5 170H39.5ZM40.5 177.273C40.5 176.997 40.2761 176.773 40 176.773C39.7239 176.773 39.5 176.997 39.5 177.273H40.5ZM39.5 184.545C39.5 184.822 39.7239 185.045 40 185.045C40.2761 185.045 40.5 184.822 40.5 184.545H39.5ZM40.5 191.818C40.5 191.542 40.2761 191.318 40 191.318C39.7239 191.318 39.5 191.542 39.5 191.818H40.5ZM39.5 199.091C39.5 199.367 39.7239 199.591 40 199.591C40.2761 199.591 40.5 199.367 40.5 199.091H39.5ZM40.5 206.364C40.5 206.087 40.2761 205.864 40 205.864C39.7239 205.864 39.5 206.087 39.5 206.364H40.5ZM40.2969 214.019C40.4027 214.274 40.6953 214.396 40.9503 214.29C41.2054 214.184 41.3264 213.891 41.2207 213.636L40.2969 214.019ZM46.3636 218.779C46.1086 218.674 45.816 218.795 45.7103 219.05C45.6045 219.305 45.7255 219.597 45.9806 219.703L46.3636 218.779ZM53.4375 220.5C53.7136 220.5 53.9375 220.276 53.9375 220C53.9375 219.724 53.7136 219.5 53.4375 219.5V220.5ZM60.3125 219.5C60.0364 219.5 59.8125 219.724 59.8125 220C59.8125 220.276 60.0364 220.5 60.3125 220.5V219.5ZM67.1875 220.5C67.4636 220.5 67.6875 220.276 67.6875 220C67.6875 219.724 67.4636 219.5 67.1875 219.5V220.5ZM74.0625 219.5C73.7864 219.5 73.5625 219.724 73.5625 220C73.5625 220.276 73.7864 220.5 74.0625 220.5V219.5ZM80.9375 220.5C81.2136 220.5 81.4375 220.276 81.4375 220C81.4375 219.724 81.2136 219.5 80.9375 219.5V220.5ZM87.8125 219.5C87.5364 219.5 87.3125 219.724 87.3125 220C87.3125 220.276 87.5364 220.5 87.8125 220.5V219.5ZM94.6875 220.5C94.9636 220.5 95.1875 220.276 95.1875 220C95.1875 219.724 94.9636 219.5 94.6875 219.5V220.5ZM101.562 219.5C101.286 219.5 101.062 219.724 101.062 220C101.062 220.276 101.286 220.5 101.562 220.5V219.5ZM108.438 220.5C108.714 220.5 108.938 220.276 108.938 220C108.938 219.724 108.714 219.5 108.438 219.5V220.5ZM115.312 219.5C115.036 219.5 114.812 219.724 114.812 220C114.812 220.276 115.036 220.5 115.312 220.5V219.5ZM122.188 220.5C122.464 220.5 122.688 220.276 122.688 220C122.688 219.724 122.464 219.5 122.188 219.5V220.5ZM129.062 219.5C128.786 219.5 128.562 219.724 128.562 220C128.562 220.276 128.786 220.5 129.062 220.5V219.5ZM135.937 220.5C136.214 220.5 136.437 220.276 136.437 220C136.437 219.724 136.214 219.5 135.937 219.5V220.5ZM142.812 219.5C142.536 219.5 142.312 219.724 142.312 220C142.312 220.276 142.536 220.5 142.812 220.5V219.5ZM149.688 220.5C149.964 220.5 150.188 220.276 150.188 220C150.188 219.724 149.964 219.5 149.688 219.5V220.5ZM156.562 219.5C156.286 219.5 156.062 219.724 156.062 220C156.062 220.276 156.286 220.5 156.562 220.5V219.5ZM163.438 220.5C163.714 220.5 163.938 220.276 163.938 220C163.938 219.724 163.714 219.5 163.438 219.5V220.5ZM170.312 219.5C170.036 219.5 169.812 219.724 169.812 220C169.812 220.276 170.036 220.5 170.312 220.5V219.5ZM177.188 220.5C177.464 220.5 177.688 220.276 177.688 220C177.688 219.724 177.464 219.5 177.188 219.5V220.5ZM184.062 219.5C183.786 219.5 183.562 219.724 183.562 220C183.562 220.276 183.786 220.5 184.062 220.5V219.5ZM190.938 220.5C191.214 220.5 191.438 220.276 191.438 220C191.438 219.724 191.214 219.5 190.938 219.5V220.5ZM197.812 219.5C197.536 219.5 197.312 219.724 197.312 220C197.312 220.276 197.536 220.5 197.812 220.5V219.5ZM204.688 220.5C204.964 220.5 205.188 220.276 205.188 220C205.188 219.724 204.964 219.5 204.688 219.5V220.5ZM211.562 219.5C211.286 219.5 211.062 219.724 211.062 220C211.062 220.276 211.286 220.5 211.562 220.5V219.5ZM218.438 220.5C218.714 220.5 218.938 220.276 218.938 220C218.938 219.724 218.714 219.5 218.438 219.5V220.5ZM225.312 219.5C225.036 219.5 224.812 219.724 224.812 220C224.812 220.276 225.036 220.5 225.312 220.5V219.5ZM232.188 220.5C232.464 220.5 232.688 220.276 232.688 220C232.688 219.724 232.464 219.5 232.188 219.5V220.5ZM239.062 219.5C238.786 219.5 238.562 219.724 238.562 220C238.562 220.276 238.786 220.5 239.062 220.5V219.5ZM245.938 220.5C246.214 220.5 246.438 220.276 246.438 220C246.438 219.724 246.214 219.5 245.938 219.5V220.5ZM252.812 219.5C252.536 219.5 252.312 219.724 252.312 220C252.312 220.276 252.536 220.5 252.812 220.5V219.5ZM259.688 220.5C259.964 220.5 260.188 220.276 260.188 220C260.188 219.724 259.964 219.5 259.688 219.5V220.5ZM266.562 219.5C266.286 219.5 266.062 219.724 266.062 220C266.062 220.276 266.286 220.5 266.562 220.5V219.5ZM273.438 220.5C273.714 220.5 273.938 220.276 273.938 220C273.938 219.724 273.714 219.5 273.438 219.5V220.5ZM280.312 219.5C280.036 219.5 279.812 219.724 279.812 220C279.812 220.276 280.036 220.5 280.312 220.5V219.5ZM287.188 220.5C287.464 220.5 287.688 220.276 287.688 220C287.688 219.724 287.464 219.5 287.188 219.5V220.5ZM294.062 219.5C293.786 219.5 293.562 219.724 293.562 220C293.562 220.276 293.786 220.5 294.062 220.5V219.5ZM300.938 220.5C301.214 220.5 301.438 220.276 301.438 220C301.438 219.724 301.214 219.5 300.938 219.5V220.5ZM307.812 219.5C307.536 219.5 307.312 219.724 307.312 220C307.312 220.276 307.536 220.5 307.812 220.5V219.5ZM314.688 220.5C314.964 220.5 315.188 220.276 315.188 220C315.188 219.724 314.964 219.5 314.688 219.5V220.5ZM321.562 219.5C321.286 219.5 321.062 219.724 321.062 220C321.062 220.276 321.286 220.5 321.562 220.5V219.5ZM328.438 220.5C328.714 220.5 328.938 220.276 328.938 220C328.938 219.724 328.714 219.5 328.438 219.5V220.5ZM335.312 219.5C335.036 219.5 334.812 219.724 334.812 220C334.812 220.276 335.036 220.5 335.312 220.5V219.5ZM342.188 220.5C342.464 220.5 342.688 220.276 342.688 220C342.688 219.724 342.464 219.5 342.188 219.5V220.5ZM349.062 219.5C348.786 219.5 348.562 219.724 348.562 220C348.562 220.276 348.786 220.5 349.062 220.5V219.5ZM355.938 220.5C356.214 220.5 356.438 220.276 356.438 220C356.438 219.724 356.214 219.5 355.938 219.5V220.5ZM362.812 219.5C362.536 219.5 362.312 219.724 362.312 220C362.312 220.276 362.536 220.5 362.812 220.5V219.5ZM369.688 220.5C369.964 220.5 370.188 220.276 370.188 220C370.188 219.724 369.964 219.5 369.688 219.5V220.5ZM376.562 219.5C376.286 219.5 376.062 219.724 376.062 220C376.062 220.276 376.286 220.5 376.562 220.5V219.5ZM384.019 219.703C384.274 219.597 384.396 219.305 384.29 219.05C384.184 218.795 383.891 218.674 383.636 218.779L384.019 219.703ZM388.779 213.636C388.674 213.891 388.795 214.184 389.05 214.29C389.305 214.396 389.597 214.274 389.703 214.019L388.779 213.636ZM390.5 207.472C390.5 207.196 390.276 206.972 390 206.972C389.724 206.972 389.5 207.196 389.5 207.472H390.5ZM389.5 202.416C389.5 202.692 389.724 202.916 390 202.916C390.276 202.916 390.5 202.692 390.5 202.416H389.5ZM386.75 199.126C386.476 199.098 386.23 199.298 386.201 199.572C386.173 199.847 386.372 200.093 386.647 200.121L386.75 199.126ZM380.054 199.121C380.325 199.175 380.589 199 380.643 198.729C380.697 198.458 380.522 198.195 380.251 198.14L380.054 199.121ZM373.875 196.542C373.611 196.462 373.332 196.612 373.252 196.876C373.172 197.14 373.322 197.419 373.586 197.499L373.875 196.542ZM367.302 195.269C367.558 195.374 367.85 195.252 367.954 194.996C368.059 194.74 367.937 194.448 367.681 194.344L367.302 195.269ZM361.724 191.567C361.479 191.438 361.177 191.532 361.049 191.777C360.92 192.021 361.014 192.324 361.259 192.452L361.724 191.567ZM355.509 189.075C355.741 189.226 356.051 189.161 356.202 188.93C356.352 188.699 356.287 188.389 356.056 188.238L355.509 189.075ZM350.728 184.389C350.512 184.217 350.197 184.252 350.025 184.468C349.853 184.684 349.889 184.999 350.105 185.171L350.728 184.389ZM345.091 180.776C345.29 180.967 345.606 180.961 345.798 180.762C345.989 180.564 345.984 180.247 345.785 180.055L345.091 180.776ZM341.27 175.277C341.09 175.068 340.775 175.044 340.565 175.224C340.356 175.404 340.332 175.719 340.512 175.929L341.27 175.277ZM336.409 170.673C336.568 170.899 336.88 170.952 337.106 170.793C337.331 170.633 337.385 170.321 337.225 170.096L336.409 170.673ZM333.686 164.557C333.549 164.317 333.243 164.235 333.004 164.372C332.764 164.51 332.682 164.815 332.819 165.055L333.686 164.557ZM329.777 159.121C329.891 159.373 330.187 159.484 330.439 159.37C330.69 159.256 330.802 158.959 330.687 158.708L329.777 159.121ZM328.257 152.601C328.168 152.34 327.883 152.201 327.622 152.291C327.361 152.38 327.222 152.665 327.312 152.926L328.257 152.601ZM325.447 146.524C325.512 146.793 325.782 146.958 326.05 146.894C326.319 146.829 326.484 146.559 326.42 146.291L325.447 146.524ZM325.19 139.834C325.152 139.56 324.898 139.37 324.625 139.409C324.352 139.447 324.161 139.7 324.2 139.974L325.19 139.834ZM323.577 133.334C323.59 133.61 323.824 133.824 324.1 133.811C324.376 133.798 324.589 133.564 324.576 133.288L323.577 133.334ZM324.576 126.712C324.589 126.436 324.376 126.202 324.1 126.189C323.824 126.176 323.59 126.39 323.577 126.666L324.576 126.712ZM324.2 120.026C324.161 120.3 324.352 120.553 324.625 120.591C324.898 120.63 325.152 120.44 325.19 120.166L324.2 120.026ZM326.42 113.709C326.484 113.441 326.319 113.171 326.05 113.106C325.782 113.042 325.512 113.207 325.447 113.476L326.42 113.709ZM327.312 107.074C327.222 107.335 327.361 107.62 327.622 107.709C327.883 107.799 328.168 107.66 328.257 107.399L327.312 107.074ZM330.687 101.292C330.802 101.041 330.69 100.744 330.439 100.63C330.187 100.516 329.891 100.627 329.777 100.879L330.687 101.292ZM332.819 94.9454C332.682 95.1848 332.764 95.4904 333.004 95.6279C333.243 95.7654 333.549 95.6828 333.686 95.4433L332.819 94.9454ZM337.225 89.9042C337.385 89.6788 337.331 89.3667 337.106 89.2072C336.88 89.0478 336.568 89.1012 336.409 89.3266L337.225 89.9042ZM340.512 84.0712C340.332 84.2806 340.356 84.5963 340.565 84.7762C340.775 84.9562 341.09 84.9324 341.27 84.723L340.512 84.0712ZM345.785 79.9446C345.984 79.753 345.989 79.4365 345.798 79.2376C345.606 79.0388 345.29 79.0329 345.091 79.2245L345.785 79.9446ZM350.105 74.8292C349.889 75.0012 349.853 75.3158 350.025 75.5318C350.197 75.7478 350.512 75.7834 350.728 75.6113L350.105 74.8292ZM356.056 71.7622C356.287 71.6112 356.352 71.3014 356.202 71.0702C356.051 70.839 355.741 70.7739 355.509 70.9248L356.056 71.7622ZM361.259 67.5479C361.014 67.6763 360.92 67.9786 361.049 68.2231C361.177 68.4675 361.479 68.5616 361.724 68.4332L361.259 67.5479ZM367.681 65.6562C367.937 65.5515 368.059 65.2595 367.954 65.004C367.85 64.7484 367.558 64.6261 367.302 64.7307L367.681 65.6562ZM373.586 62.5008C373.322 62.5807 373.172 62.8597 373.252 63.124C373.332 63.3884 373.611 63.538 373.875 63.4581L373.586 62.5008ZM380.251 61.8597C380.522 61.8054 380.697 61.5418 380.643 61.2711C380.589 61.0003 380.325 60.8249 380.054 60.8792L380.251 61.8597ZM386.647 59.8789C386.372 59.9073 386.173 60.1531 386.201 60.4277C386.23 60.7024 386.476 60.902 386.75 60.8735L386.647 59.8789ZM390.5 57.5843C390.5 57.3081 390.276 57.0843 390 57.0843C389.724 57.0843 389.5 57.3081 389.5 57.5843H390.5ZM389.5 52.5281C389.5 52.8042 389.724 53.0281 390 53.0281C390.276 53.0281 390.5 52.8042 390.5 52.5281H389.5ZM389.703 45.9806C389.597 45.7255 389.305 45.6045 389.05 45.7103C388.795 45.816 388.674 46.1086 388.779 46.3636L389.703 45.9806ZM383.636 41.2207C383.891 41.3264 384.184 41.2054 384.29 40.9503C384.396 40.6953 384.274 40.4027 384.019 40.2969L383.636 41.2207ZM376.562 39.5C376.286 39.5 376.062 39.7239 376.062 40C376.062 40.2761 376.286 40.5 376.562 40.5V39.5ZM369.688 40.5C369.964 40.5 370.188 40.2761 370.188 40C370.188 39.7239 369.964 39.5 369.688 39.5V40.5ZM362.812 39.5C362.536 39.5 362.312 39.7239 362.312 40C362.312 40.2761 362.536 40.5 362.812 40.5V39.5ZM355.938 40.5C356.214 40.5 356.438 40.2761 356.438 40C356.438 39.7239 356.214 39.5 355.938 39.5V40.5ZM349.062 39.5C348.786 39.5 348.562 39.7239 348.562 40C348.562 40.2761 348.786 40.5 349.062 40.5V39.5ZM342.188 40.5C342.464 40.5 342.688 40.2761 342.688 40C342.688 39.7239 342.464 39.5 342.188 39.5V40.5ZM335.312 39.5C335.036 39.5 334.812 39.7239 334.812 40C334.812 40.2761 335.036 40.5 335.312 40.5V39.5ZM328.438 40.5C328.714 40.5 328.938 40.2761 328.938 40C328.938 39.7239 328.714 39.5 328.438 39.5V40.5ZM321.562 39.5C321.286 39.5 321.062 39.7239 321.062 40C321.062 40.2761 321.286 40.5 321.562 40.5V39.5ZM314.688 40.5C314.964 40.5 315.188 40.2761 315.188 40C315.188 39.7239 314.964 39.5 314.688 39.5V40.5ZM307.812 39.5C307.536 39.5 307.312 39.7239 307.312 40C307.312 40.2761 307.536 40.5 307.812 40.5V39.5ZM300.938 40.5C301.214 40.5 301.438 40.2761 301.438 40C301.438 39.7239 301.214 39.5 300.938 39.5V40.5ZM294.062 39.5C293.786 39.5 293.562 39.7239 293.562 40C293.562 40.2761 293.786 40.5 294.062 40.5V39.5ZM287.188 40.5C287.464 40.5 287.688 40.2761 287.688 40C287.688 39.7239 287.464 39.5 287.188 39.5V40.5ZM280.312 39.5C280.036 39.5 279.812 39.7239 279.812 40C279.812 40.2761 280.036 40.5 280.312 40.5V39.5ZM273.438 40.5C273.714 40.5 273.938 40.2761 273.938 40C273.938 39.7239 273.714 39.5 273.438 39.5V40.5ZM266.562 39.5C266.286 39.5 266.062 39.7239 266.062 40C266.062 40.2761 266.286 40.5 266.562 40.5V39.5ZM259.688 40.5C259.964 40.5 260.188 40.2761 260.188 40C260.188 39.7239 259.964 39.5 259.688 39.5V40.5ZM252.812 39.5C252.536 39.5 252.312 39.7239 252.312 40C252.312 40.2761 252.536 40.5 252.812 40.5V39.5ZM245.938 40.5C246.214 40.5 246.438 40.2761 246.438 40C246.438 39.7239 246.214 39.5 245.938 39.5V40.5ZM239.062 39.5C238.786 39.5 238.562 39.7239 238.562 40C238.562 40.2761 238.786 40.5 239.062 40.5V39.5ZM232.188 40.5C232.464 40.5 232.688 40.2761 232.688 40C232.688 39.7239 232.464 39.5 232.188 39.5V40.5ZM225.312 39.5C225.036 39.5 224.812 39.7239 224.812 40C224.812 40.2761 225.036 40.5 225.312 40.5V39.5ZM218.438 40.5C218.714 40.5 218.938 40.2761 218.938 40C218.938 39.7239 218.714 39.5 218.438 39.5V40.5ZM211.562 39.5C211.286 39.5 211.062 39.7239 211.062 40C211.062 40.2761 211.286 40.5 211.562 40.5V39.5ZM204.688 40.5C204.964 40.5 205.188 40.2761 205.188 40C205.188 39.7239 204.964 39.5 204.688 39.5V40.5ZM197.812 39.5C197.536 39.5 197.312 39.7239 197.312 40C197.312 40.2761 197.536 40.5 197.812 40.5V39.5ZM190.938 40.5C191.214 40.5 191.438 40.2761 191.438 40C191.438 39.7239 191.214 39.5 190.938 39.5V40.5ZM184.062 39.5C183.786 39.5 183.562 39.7239 183.562 40C183.562 40.2761 183.786 40.5 184.062 40.5V39.5ZM177.188 40.5C177.464 40.5 177.688 40.2761 177.688 40C177.688 39.7239 177.464 39.5 177.188 39.5V40.5ZM170.312 39.5C170.036 39.5 169.812 39.7239 169.812 40C169.812 40.2761 170.036 40.5 170.312 40.5V39.5ZM163.438 40.5C163.714 40.5 163.938 40.2761 163.938 40C163.938 39.7239 163.714 39.5 163.438 39.5V40.5ZM156.563 39.5C156.286 39.5 156.063 39.7239 156.063 40C156.063 40.2761 156.286 40.5 156.563 40.5V39.5ZM149.687 40.5C149.964 40.5 150.187 40.2761 150.187 40C150.187 39.7239 149.964 39.5 149.687 39.5V40.5ZM142.812 39.5C142.536 39.5 142.312 39.7239 142.312 40C142.312 40.2761 142.536 40.5 142.812 40.5V39.5ZM135.938 40.5C136.214 40.5 136.438 40.2761 136.438 40C136.438 39.7239 136.214 39.5 135.938 39.5V40.5ZM129.062 39.5C128.786 39.5 128.562 39.7239 128.562 40C128.562 40.2761 128.786 40.5 129.062 40.5V39.5ZM122.188 40.5C122.464 40.5 122.688 40.2761 122.688 40C122.688 39.7239 122.464 39.5 122.188 39.5V40.5ZM115.313 39.5C115.036 39.5 114.813 39.7239 114.813 40C114.813 40.2761 115.036 40.5 115.313 40.5V39.5ZM108.437 40.5C108.714 40.5 108.937 40.2761 108.937 40C108.937 39.7239 108.714 39.5 108.437 39.5V40.5ZM101.562 39.5C101.286 39.5 101.062 39.7239 101.062 40C101.062 40.2761 101.286 40.5 101.562 40.5V39.5ZM94.6875 40.5C94.9636 40.5 95.1875 40.2761 95.1875 40C95.1875 39.7239 94.9636 39.5 94.6875 39.5V40.5ZM87.8125 39.5C87.5364 39.5 87.3125 39.7239 87.3125 40C87.3125 40.2761 87.5364 40.5 87.8125 40.5V39.5ZM80.9375 40.5C81.2136 40.5 81.4375 40.2761 81.4375 40C81.4375 39.7239 81.2136 39.5 80.9375 39.5V40.5ZM74.0625 39.5C73.7864 39.5 73.5625 39.7239 73.5625 40C73.5625 40.2761 73.7864 40.5 74.0625 40.5V39.5ZM67.1875 40.5C67.4636 40.5 67.6875 40.2761 67.6875 40C67.6875 39.7239 67.4636 39.5 67.1875 39.5V40.5ZM60.3125 39.5C60.0364 39.5 59.8125 39.7239 59.8125 40C59.8125 40.2761 60.0364 40.5 60.3125 40.5V39.5ZM53.4375 40.5C53.7136 40.5 53.9375 40.2761 53.9375 40C53.9375 39.7239 53.7136 39.5 53.4375 39.5V40.5ZM45.9806 40.2969C45.7255 40.4027 45.6045 40.6953 45.7103 40.9503C45.816 41.2054 46.1086 41.3264 46.3636 41.2207L45.9806 40.2969ZM41.2207 46.3637C41.3264 46.1086 41.2054 45.816 40.9503 45.7103C40.6953 45.6045 40.4027 45.7255 40.2969 45.9806L41.2207 46.3637ZM39.5 50V53.6364H40.5V50H39.5ZM39.5 60.9091V68.1818H40.5V60.9091H39.5ZM39.5 75.4545V82.7273H40.5V75.4545H39.5ZM39.5 90V97.2727H40.5V90H39.5ZM39.5 104.545V111.818H40.5V104.545H39.5ZM39.5 119.091V126.364H40.5V119.091H39.5ZM39.5 133.636V140.909H40.5V133.636H39.5ZM39.5 148.182V155.455H40.5V148.182H39.5ZM39.5 162.727V170H40.5V162.727H39.5ZM39.5 177.273V184.545H40.5V177.273H39.5ZM39.5 191.818V199.091H40.5V191.818H39.5ZM39.5 206.364V210H40.5V206.364H39.5ZM39.5 210C39.5 211.423 39.7833 212.781 40.2969 214.019L41.2207 213.636C40.7565 212.517 40.5 211.289 40.5 210H39.5ZM45.9806 219.703C47.2193 220.217 48.5772 220.5 50 220.5V219.5C48.711 219.5 47.4831 219.244 46.3636 218.779L45.9806 219.703ZM50 220.5H53.4375V219.5H50V220.5ZM60.3125 220.5H67.1875V219.5H60.3125V220.5ZM74.0625 220.5H80.9375V219.5H74.0625V220.5ZM87.8125 220.5H94.6875V219.5H87.8125V220.5ZM101.562 220.5H108.438V219.5H101.562V220.5ZM115.312 220.5H122.188V219.5H115.312V220.5ZM129.062 220.5H135.937V219.5H129.062V220.5ZM142.812 220.5H149.688V219.5H142.812V220.5ZM156.562 220.5H163.438V219.5H156.562V220.5ZM170.312 220.5H177.188V219.5H170.312V220.5ZM184.062 220.5H190.938V219.5H184.062V220.5ZM197.812 220.5H204.688V219.5H197.812V220.5ZM211.562 220.5H218.438V219.5H211.562V220.5ZM225.312 220.5H232.188V219.5H225.312V220.5ZM239.062 220.5H245.938V219.5H239.062V220.5ZM252.812 220.5H259.688V219.5H252.812V220.5ZM266.562 220.5H273.438V219.5H266.562V220.5ZM280.312 220.5H287.188V219.5H280.312V220.5ZM294.062 220.5H300.938V219.5H294.062V220.5ZM307.812 220.5H314.688V219.5H307.812V220.5ZM321.562 220.5H328.438V219.5H321.562V220.5ZM335.312 220.5H342.188V219.5H335.312V220.5ZM349.062 220.5H355.938V219.5H349.062V220.5ZM362.812 220.5H369.688V219.5H362.812V220.5ZM376.562 220.5H380V219.5H376.562V220.5ZM380 220.5C381.423 220.5 382.781 220.217 384.019 219.703L383.636 218.779C382.517 219.244 381.289 219.5 380 219.5V220.5ZM389.703 214.019C390.217 212.781 390.5 211.423 390.5 210H389.5C389.5 211.289 389.244 212.517 388.779 213.636L389.703 214.019ZM390.5 210V207.472H389.5V210H390.5ZM390.5 202.416V199.888H389.5V202.416H390.5ZM390.028 199.388C388.928 199.326 387.836 199.239 386.75 199.126L386.647 200.121C387.748 200.235 388.857 200.324 389.972 200.387L390.028 199.388ZM380.251 198.14C378.088 197.706 375.961 197.172 373.875 196.542L373.586 197.499C375.702 198.138 377.86 198.68 380.054 199.121L380.251 198.14ZM367.681 194.344C365.645 193.51 363.658 192.583 361.724 191.567L361.259 192.452C363.221 193.483 365.237 194.424 367.302 195.269L367.681 194.344ZM356.056 188.238C354.218 187.038 352.44 185.753 350.728 184.389L350.105 185.171C351.841 186.554 353.645 187.858 355.509 189.075L356.056 188.238ZM345.785 180.055C344.206 178.535 342.7 176.94 341.27 175.277L340.512 175.929C341.962 177.616 343.49 179.233 345.091 180.776L345.785 180.055ZM337.225 170.096C335.962 168.31 334.78 166.462 333.686 164.557L332.819 165.055C333.929 166.987 335.127 168.862 336.409 170.673L337.225 170.096ZM330.687 158.708C329.785 156.721 328.973 154.683 328.257 152.601L327.312 152.926C328.038 155.038 328.861 157.105 329.777 159.121L330.687 158.708ZM326.42 146.291C325.911 144.174 325.5 142.02 325.19 139.834L324.2 139.974C324.514 142.192 324.932 144.377 325.447 146.524L326.42 146.291ZM324.576 133.288C324.526 132.198 324.5 131.102 324.5 130H323.5C323.5 131.118 323.526 132.229 323.577 133.334L324.576 133.288ZM324.5 130C324.5 128.898 324.526 127.802 324.576 126.712L323.577 126.666C323.526 127.771 323.5 128.882 323.5 130H324.5ZM325.19 120.166C325.5 117.98 325.911 115.826 326.42 113.709L325.447 113.476C324.932 115.623 324.514 117.808 324.2 120.026L325.19 120.166ZM328.257 107.399C328.973 105.317 329.785 103.279 330.687 101.292L329.777 100.879C328.861 102.895 328.038 104.962 327.312 107.074L328.257 107.399ZM333.686 95.4433C334.78 93.5384 335.962 91.6902 337.225 89.9042L336.409 89.3266C335.127 91.1382 333.929 93.013 332.819 94.9454L333.686 95.4433ZM341.27 84.723C342.7 83.0599 344.206 81.4653 345.785 79.9446L345.091 79.2245C343.49 80.7669 341.962 82.3844 340.512 84.0712L341.27 84.723ZM350.728 75.6113C352.44 74.2472 354.218 72.9624 356.056 71.7622L355.509 70.9248C353.645 72.1423 351.841 73.4456 350.105 74.8292L350.728 75.6113ZM361.724 68.4332C363.658 67.4172 365.645 66.4898 367.681 65.6562L367.302 64.7307C365.237 65.5764 363.221 66.5173 361.259 67.5479L361.724 68.4332ZM373.875 63.4581C375.961 62.8283 378.088 62.2938 380.251 61.8597L380.054 60.8792C377.86 61.3196 375.702 61.8618 373.586 62.5008L373.875 63.4581ZM386.75 60.8735C387.836 60.761 388.928 60.6735 390.028 60.6116L389.972 59.6132C388.857 59.676 387.748 59.7648 386.647 59.8789L386.75 60.8735ZM390.5 60.1124V57.5843H389.5V60.1124H390.5ZM390.5 52.5281V50H389.5V52.5281H390.5ZM390.5 50C390.5 48.5772 390.217 47.2193 389.703 45.9806L388.779 46.3636C389.244 47.4831 389.5 48.711 389.5 50H390.5ZM384.019 40.2969C382.781 39.7833 381.423 39.5 380 39.5V40.5C381.289 40.5 382.517 40.7565 383.636 41.2207L384.019 40.2969ZM380 39.5H376.562V40.5H380V39.5ZM369.688 39.5H362.812V40.5H369.688V39.5ZM355.938 39.5H349.062V40.5H355.938V39.5ZM342.188 39.5H335.312V40.5H342.188V39.5ZM328.438 39.5H321.562V40.5H328.438V39.5ZM314.688 39.5H307.812V40.5H314.688V39.5ZM300.938 39.5H294.062V40.5H300.938V39.5ZM287.188 39.5H280.312V40.5H287.188V39.5ZM273.438 39.5H266.562V40.5H273.438V39.5ZM259.688 39.5H252.812V40.5H259.688V39.5ZM245.938 39.5H239.062V40.5H245.938V39.5ZM232.188 39.5H225.312V40.5H232.188V39.5ZM218.438 39.5H211.562V40.5H218.438V39.5ZM204.688 39.5H197.812V40.5H204.688V39.5ZM190.938 39.5H184.062V40.5H190.938V39.5ZM177.188 39.5H170.312V40.5H177.188V39.5ZM163.438 39.5H156.563V40.5H163.438V39.5ZM149.687 39.5H142.812V40.5H149.687V39.5ZM135.938 39.5H129.062V40.5H135.938V39.5ZM122.188 39.5H115.313V40.5H122.188V39.5ZM108.437 39.5H101.562V40.5H108.437V39.5ZM94.6875 39.5H87.8125V40.5H94.6875V39.5ZM80.9375 39.5H74.0625V40.5H80.9375V39.5ZM67.1875 39.5H60.3125V40.5H67.1875V39.5ZM53.4375 39.5H50V40.5H53.4375V39.5ZM50 39.5C48.5772 39.5 47.2193 39.7833 45.9806 40.2969L46.3636 41.2207C47.4831 40.7565 48.711 40.5 50 40.5V39.5ZM40.2969 45.9806C39.7833 47.2193 39.5 48.5772 39.5 50H40.5C40.5 48.711 40.7565 47.4831 41.2207 46.3637L40.2969 45.9806Z" fill="#E5E5E5"/>
</g>
<defs>
<filter id="filter0_d" x="0" y="0" width="430" height="260" filterUnits="userSpaceOnUse" color-interpolation-filters="sRGB">
<feFlood flood-opacity="0" result="BackgroundImageFix"/>
<feColorMatrix in="SourceAlpha" type="matrix" values="0 0 0 0 0 0 0 0 0 0 0 0 0 0 0 0 0 0 127 0"/>
<feOffset/>
<feGaussianBlur stdDeviation="15"/>
<feColorMatrix type="matrix" values="0 0 0 0 0 0 0 0 0 0 0 0 0 0 0 0 0 0 0.1 0"/>
<feBlend mode="normal" in2="BackgroundImageFix" result="effect1_dropShadow"/>
<feBlend mode="normal" in="SourceGraphic" in2="effect1_dropShadow" result="shape"/>
</filter>
<filter id="filter1_d" x="9.5" y="9.5" width="411" height="241" filterUnits="userSpaceOnUse" color-interpolation-filters="sRGB">
<feFlood flood-opacity="0" result="BackgroundImageFix"/>
<feColorMatrix in="SourceAlpha" type="matrix" values="0 0 0 0 0 0 0 0 0 0 0 0 0 0 0 0 0 0 127 0"/>
<feOffset/>
<feGaussianBlur stdDeviation="15"/>
<feColorMatrix type="matrix" values="0 0 0 0 0 0 0 0 0 0 0 0 0 0 0 0 0 0 0.1 0"/>
<feBlend mode="normal" in2="BackgroundImageFix" result="effect1_dropShadow"/>
<feBlend mode="normal" in="SourceGraphic" in2="effect1_dropShadow" result="shape"/>
</filter>
<linearGradient id="paint0_linear" x1="397.636" y1="180" x2="397.636" y2="80" gradientUnits="userSpaceOnUse">
<stop stop-color="#FCCB05"/>
<stop offset="1" stop-color="#FFE57D"/>
</linearGradient>
<linearGradient id="paint1_linear" x1="397.636" y1="180" x2="397.636" y2="80" gradientUnits="userSpaceOnUse">
<stop stop-color="#FCCB05"/>
<stop offset="1" stop-color="#FFE57D"/>
</linearGradient>
</defs>
</svg>
