<svg width="984" height="306" viewBox="0 0 984 306" fill="none" xmlns="http://www.w3.org/2000/svg">
<path d="M583 50C583 77.6142 560.614 100 533 100C505.386 100 483 77.6142 483 50C483 22.3858 505.386 0 533 0C560.614 0 583 22.3858 583 50Z" fill="url(#paint0_linear)"/>
<mask id="mask0" mask-type="alpha" maskUnits="userSpaceOnUse" x="483" y="0" width="100" height="100">
<circle cx="533" cy="50" r="50" fill="url(#paint1_linear)"/>
</mask>
<g mask="url(#mask0)">
<path d="M530.707 22.8935C531.44 21.407 533.56 21.407 534.293 22.8935L540.457 35.3817C541.039 36.5623 542.166 37.3806 543.469 37.5699L557.25 39.5725C558.89 39.8108 559.546 41.8268 558.358 42.9838L548.386 52.7045C547.443 53.6235 547.013 54.9475 547.236 56.2451L549.59 69.9709C549.87 71.6047 548.155 72.8507 546.688 72.0793L534.361 65.5988C533.196 64.9862 531.804 64.9862 530.639 65.5988L518.312 72.0793C516.845 72.8507 515.13 71.6047 515.41 69.9709L517.764 56.2451C517.987 54.9475 517.557 53.6235 516.614 52.7045L506.642 42.9838C505.454 41.8268 506.11 39.8108 507.75 39.5725L521.531 37.5699C522.834 37.3806 523.961 36.5623 524.543 35.3817L530.707 22.8935Z" stroke="white" stroke-width="2" style="mix-blend-mode:overlay"/>
<path d="M531.603 37.0765C531.97 36.3333 533.03 36.3333 533.397 37.0765L535.987 42.3253C536.424 43.2107 537.269 43.8244 538.246 43.9664L544.038 44.8081C544.859 44.9273 545.186 45.9352 544.593 46.5138L540.401 50.5994C539.694 51.2886 539.371 52.2816 539.538 53.2548L540.528 59.0237C540.668 59.8406 539.81 60.4636 539.077 60.0779L533.896 57.3542C533.022 56.8947 531.978 56.8947 531.104 57.3542L525.923 60.0779C525.19 60.4636 524.332 59.8406 524.472 59.0237L525.462 53.2548C525.629 52.2816 525.306 51.2886 524.599 50.5994L520.407 46.5138C519.814 45.9352 520.141 44.9273 520.962 44.8081L526.754 43.9664C527.731 43.8244 528.576 43.2107 529.013 42.3253L531.603 37.0765Z" stroke="white" stroke-width="2" style="mix-blend-mode:overlay"/>
</g>
<g filter="url(#filter0_d)">
<path fill-rule="evenodd" clip-rule="evenodd" d="M471.709 68H40C34.4772 68 30 72.4772 30 78V266C30 271.523 34.4772 276 40 276H944C949.523 276 954 271.523 954 266V78C954 72.4772 949.523 68 944 68H597.148C592.558 96.8676 566.226 119 534.429 119C502.632 119 476.299 96.8676 471.709 68Z" fill="white"/>
</g>
<g filter="url(#filter1_d)">
<path d="M467.609 78L468.091 77.8646L467.988 77.5H467.609V78ZM602.391 78V77.5H602.012L601.909 77.8646L602.391 78ZM45.9806 78.2969C45.7255 78.4027 45.6045 78.6953 45.7103 78.9503C45.816 79.2054 46.1086 79.3264 46.3636 79.2207L45.9806 78.2969ZM41.2207 84.3636C41.3264 84.1086 41.2054 83.816 40.9503 83.7103C40.6953 83.6045 40.4027 83.7255 40.2969 83.9806L41.2207 84.3636ZM39.5 91.5C39.5 91.7761 39.7239 92 40 92C40.2761 92 40.5 91.7761 40.5 91.5H39.5ZM40.5 98.5C40.5 98.2239 40.2761 98 40 98C39.7239 98 39.5 98.2239 39.5 98.5H40.5ZM39.5 105.5C39.5 105.776 39.7239 106 40 106C40.2761 106 40.5 105.776 40.5 105.5H39.5ZM40.5 112.5C40.5 112.224 40.2761 112 40 112C39.7239 112 39.5 112.224 39.5 112.5H40.5ZM39.5 119.5C39.5 119.776 39.7239 120 40 120C40.2761 120 40.5 119.776 40.5 119.5H39.5ZM40.5 126.5C40.5 126.224 40.2761 126 40 126C39.7239 126 39.5 126.224 39.5 126.5H40.5ZM39.5 133.5C39.5 133.776 39.7239 134 40 134C40.2761 134 40.5 133.776 40.5 133.5H39.5ZM40.5 140.5C40.5 140.224 40.2761 140 40 140C39.7239 140 39.5 140.224 39.5 140.5H40.5ZM39.5 147.5C39.5 147.776 39.7239 148 40 148C40.2761 148 40.5 147.776 40.5 147.5H39.5ZM40.5 154.5C40.5 154.224 40.2761 154 40 154C39.7239 154 39.5 154.224 39.5 154.5H40.5ZM39.5 161.5C39.5 161.776 39.7239 162 40 162C40.2761 162 40.5 161.776 40.5 161.5H39.5ZM40.5 168.5C40.5 168.224 40.2761 168 40 168C39.7239 168 39.5 168.224 39.5 168.5H40.5ZM39.5 175.5C39.5 175.776 39.7239 176 40 176C40.2761 176 40.5 175.776 40.5 175.5H39.5ZM40.5 182.5C40.5 182.224 40.2761 182 40 182C39.7239 182 39.5 182.224 39.5 182.5H40.5ZM39.5 189.5C39.5 189.776 39.7239 190 40 190C40.2761 190 40.5 189.776 40.5 189.5H39.5ZM40.5 196.5C40.5 196.224 40.2761 196 40 196C39.7239 196 39.5 196.224 39.5 196.5H40.5ZM39.5 203.5C39.5 203.776 39.7239 204 40 204C40.2761 204 40.5 203.776 40.5 203.5H39.5ZM40.5 210.5C40.5 210.224 40.2761 210 40 210C39.7239 210 39.5 210.224 39.5 210.5H40.5ZM39.5 217.5C39.5 217.776 39.7239 218 40 218C40.2761 218 40.5 217.776 40.5 217.5H39.5ZM40.5 224.5C40.5 224.224 40.2761 224 40 224C39.7239 224 39.5 224.224 39.5 224.5H40.5ZM39.5 231.5C39.5 231.776 39.7239 232 40 232C40.2761 232 40.5 231.776 40.5 231.5H39.5ZM40.5 238.5C40.5 238.224 40.2761 238 40 238C39.7239 238 39.5 238.224 39.5 238.5H40.5ZM39.5 245.5C39.5 245.776 39.7239 246 40 246C40.2761 246 40.5 245.776 40.5 245.5H39.5ZM40.5 252.5C40.5 252.224 40.2761 252 40 252C39.7239 252 39.5 252.224 39.5 252.5H40.5ZM40.2969 260.019C40.4027 260.274 40.6953 260.396 40.9503 260.29C41.2054 260.184 41.3265 259.891 41.2207 259.636L40.2969 260.019ZM46.3637 264.779C46.1086 264.674 45.8161 264.795 45.7103 265.05C45.6045 265.305 45.7255 265.597 45.9806 265.703L46.3637 264.779ZM53.508 266.5C53.7841 266.5 54.008 266.276 54.008 266C54.008 265.724 53.7841 265.5 53.508 265.5V266.5ZM60.5238 265.5C60.2477 265.5 60.0238 265.724 60.0238 266C60.0238 266.276 60.2477 266.5 60.5238 266.5V265.5ZM67.5397 266.5C67.8158 266.5 68.0397 266.276 68.0397 266C68.0397 265.724 67.8158 265.5 67.5397 265.5V266.5ZM74.5556 265.5C74.2794 265.5 74.0556 265.724 74.0556 266C74.0556 266.276 74.2794 266.5 74.5556 266.5V265.5ZM81.5714 266.5C81.8476 266.5 82.0714 266.276 82.0714 266C82.0714 265.724 81.8476 265.5 81.5714 265.5V266.5ZM88.5873 265.5C88.3112 265.5 88.0873 265.724 88.0873 266C88.0873 266.276 88.3112 266.5 88.5873 266.5V265.5ZM95.6032 266.5C95.8793 266.5 96.1032 266.276 96.1032 266C96.1032 265.724 95.8793 265.5 95.6032 265.5V266.5ZM102.619 265.5C102.343 265.5 102.119 265.724 102.119 266C102.119 266.276 102.343 266.5 102.619 266.5V265.5ZM109.635 266.5C109.911 266.5 110.135 266.276 110.135 266C110.135 265.724 109.911 265.5 109.635 265.5V266.5ZM116.651 265.5C116.375 265.5 116.151 265.724 116.151 266C116.151 266.276 116.375 266.5 116.651 266.5V265.5ZM123.667 266.5C123.943 266.5 124.167 266.276 124.167 266C124.167 265.724 123.943 265.5 123.667 265.5V266.5ZM130.683 265.5C130.406 265.5 130.183 265.724 130.183 266C130.183 266.276 130.406 266.5 130.683 266.5V265.5ZM137.698 266.5C137.975 266.5 138.198 266.276 138.198 266C138.198 265.724 137.975 265.5 137.698 265.5V266.5ZM144.714 265.5C144.438 265.5 144.214 265.724 144.214 266C144.214 266.276 144.438 266.5 144.714 266.5V265.5ZM151.73 266.5C152.006 266.5 152.23 266.276 152.23 266C152.23 265.724 152.006 265.5 151.73 265.5V266.5ZM158.746 265.5C158.47 265.5 158.246 265.724 158.246 266C158.246 266.276 158.47 266.5 158.746 266.5V265.5ZM165.762 266.5C166.038 266.5 166.262 266.276 166.262 266C166.262 265.724 166.038 265.5 165.762 265.5V266.5ZM172.778 265.5C172.502 265.5 172.278 265.724 172.278 266C172.278 266.276 172.502 266.5 172.778 266.5V265.5ZM179.794 266.5C180.07 266.5 180.294 266.276 180.294 266C180.294 265.724 180.07 265.5 179.794 265.5V266.5ZM186.81 265.5C186.533 265.5 186.31 265.724 186.31 266C186.31 266.276 186.533 266.5 186.81 266.5V265.5ZM193.825 266.5C194.102 266.5 194.325 266.276 194.325 266C194.325 265.724 194.102 265.5 193.825 265.5V266.5ZM200.841 265.5C200.565 265.5 200.341 265.724 200.341 266C200.341 266.276 200.565 266.5 200.841 266.5V265.5ZM207.857 266.5C208.133 266.5 208.357 266.276 208.357 266C208.357 265.724 208.133 265.5 207.857 265.5V266.5ZM214.873 265.5C214.597 265.5 214.373 265.724 214.373 266C214.373 266.276 214.597 266.5 214.873 266.5V265.5ZM221.889 266.5C222.165 266.5 222.389 266.276 222.389 266C222.389 265.724 222.165 265.5 221.889 265.5V266.5ZM228.905 265.5C228.629 265.5 228.405 265.724 228.405 266C228.405 266.276 228.629 266.5 228.905 266.5V265.5ZM235.921 266.5C236.197 266.5 236.421 266.276 236.421 266C236.421 265.724 236.197 265.5 235.921 265.5V266.5ZM242.936 265.5C242.66 265.5 242.436 265.724 242.436 266C242.436 266.276 242.66 266.5 242.936 266.5V265.5ZM249.952 266.5C250.228 266.5 250.452 266.276 250.452 266C250.452 265.724 250.228 265.5 249.952 265.5V266.5ZM256.968 265.5C256.692 265.5 256.468 265.724 256.468 266C256.468 266.276 256.692 266.5 256.968 266.5V265.5ZM263.984 266.5C264.26 266.5 264.484 266.276 264.484 266C264.484 265.724 264.26 265.5 263.984 265.5V266.5ZM271 265.5C270.724 265.5 270.5 265.724 270.5 266C270.5 266.276 270.724 266.5 271 266.5V265.5ZM278.016 266.5C278.292 266.5 278.516 266.276 278.516 266C278.516 265.724 278.292 265.5 278.016 265.5V266.5ZM285.032 265.5C284.756 265.5 284.532 265.724 284.532 266C284.532 266.276 284.756 266.5 285.032 266.5V265.5ZM292.048 266.5C292.324 266.5 292.548 266.276 292.548 266C292.548 265.724 292.324 265.5 292.048 265.5V266.5ZM299.063 265.5C298.787 265.5 298.563 265.724 298.563 266C298.563 266.276 298.787 266.5 299.063 266.5V265.5ZM306.079 266.5C306.355 266.5 306.579 266.276 306.579 266C306.579 265.724 306.355 265.5 306.079 265.5V266.5ZM313.095 265.5C312.819 265.5 312.595 265.724 312.595 266C312.595 266.276 312.819 266.5 313.095 266.5V265.5ZM320.111 266.5C320.387 266.5 320.611 266.276 320.611 266C320.611 265.724 320.387 265.5 320.111 265.5V266.5ZM327.127 265.5C326.851 265.5 326.627 265.724 326.627 266C326.627 266.276 326.851 266.5 327.127 266.5V265.5ZM334.143 266.5C334.419 266.5 334.643 266.276 334.643 266C334.643 265.724 334.419 265.5 334.143 265.5V266.5ZM341.159 265.5C340.882 265.5 340.659 265.724 340.659 266C340.659 266.276 340.882 266.5 341.159 266.5V265.5ZM348.174 266.5C348.451 266.5 348.674 266.276 348.674 266C348.674 265.724 348.451 265.5 348.174 265.5V266.5ZM355.19 265.5C354.914 265.5 354.69 265.724 354.69 266C354.69 266.276 354.914 266.5 355.19 266.5V265.5ZM362.206 266.5C362.482 266.5 362.706 266.276 362.706 266C362.706 265.724 362.482 265.5 362.206 265.5V266.5ZM369.222 265.5C368.946 265.5 368.722 265.724 368.722 266C368.722 266.276 368.946 266.5 369.222 266.5V265.5ZM376.238 266.5C376.514 266.5 376.738 266.276 376.738 266C376.738 265.724 376.514 265.5 376.238 265.5V266.5ZM383.254 265.5C382.978 265.5 382.754 265.724 382.754 266C382.754 266.276 382.978 266.5 383.254 266.5V265.5ZM390.27 266.5C390.546 266.5 390.77 266.276 390.77 266C390.77 265.724 390.546 265.5 390.27 265.5V266.5ZM397.286 265.5C397.009 265.5 396.786 265.724 396.786 266C396.786 266.276 397.009 266.5 397.286 266.5V265.5ZM404.301 266.5C404.578 266.5 404.801 266.276 404.801 266C404.801 265.724 404.578 265.5 404.301 265.5V266.5ZM411.317 265.5C411.041 265.5 410.817 265.724 410.817 266C410.817 266.276 411.041 266.5 411.317 266.5V265.5ZM418.333 266.5C418.609 266.5 418.833 266.276 418.833 266C418.833 265.724 418.609 265.5 418.333 265.5V266.5ZM425.349 265.5C425.073 265.5 424.849 265.724 424.849 266C424.849 266.276 425.073 266.5 425.349 266.5V265.5ZM432.365 266.5C432.641 266.5 432.865 266.276 432.865 266C432.865 265.724 432.641 265.5 432.365 265.5V266.5ZM439.381 265.5C439.105 265.5 438.881 265.724 438.881 266C438.881 266.276 439.105 266.5 439.381 266.5V265.5ZM446.397 266.5C446.673 266.5 446.897 266.276 446.897 266C446.897 265.724 446.673 265.5 446.397 265.5V266.5ZM453.413 265.5C453.136 265.5 452.913 265.724 452.913 266C452.913 266.276 453.136 266.5 453.413 266.5V265.5ZM460.428 266.5C460.705 266.5 460.928 266.276 460.928 266C460.928 265.724 460.705 265.5 460.428 265.5V266.5ZM467.444 265.5C467.168 265.5 466.944 265.724 466.944 266C466.944 266.276 467.168 266.5 467.444 266.5V265.5ZM474.46 266.5C474.736 266.5 474.96 266.276 474.96 266C474.96 265.724 474.736 265.5 474.46 265.5V266.5ZM481.476 265.5C481.2 265.5 480.976 265.724 480.976 266C480.976 266.276 481.2 266.5 481.476 266.5V265.5ZM488.492 266.5C488.768 266.5 488.992 266.276 488.992 266C488.992 265.724 488.768 265.5 488.492 265.5V266.5ZM495.508 265.5C495.232 265.5 495.008 265.724 495.008 266C495.008 266.276 495.232 266.5 495.508 266.5V265.5ZM502.524 266.5C502.8 266.5 503.024 266.276 503.024 266C503.024 265.724 502.8 265.5 502.524 265.5V266.5ZM509.54 265.5C509.263 265.5 509.04 265.724 509.04 266C509.04 266.276 509.263 266.5 509.54 266.5V265.5ZM516.555 266.5C516.832 266.5 517.055 266.276 517.055 266C517.055 265.724 516.832 265.5 516.555 265.5V266.5ZM523.571 265.5C523.295 265.5 523.071 265.724 523.071 266C523.071 266.276 523.295 266.5 523.571 266.5V265.5ZM530.587 266.5C530.863 266.5 531.087 266.276 531.087 266C531.087 265.724 530.863 265.5 530.587 265.5V266.5ZM537.603 265.5C537.327 265.5 537.103 265.724 537.103 266C537.103 266.276 537.327 266.5 537.603 266.5V265.5ZM544.619 266.5C544.895 266.5 545.119 266.276 545.119 266C545.119 265.724 544.895 265.5 544.619 265.5V266.5ZM551.635 265.5C551.359 265.5 551.135 265.724 551.135 266C551.135 266.276 551.359 266.5 551.635 266.5V265.5ZM558.651 266.5C558.927 266.5 559.151 266.276 559.151 266C559.151 265.724 558.927 265.5 558.651 265.5V266.5ZM565.666 265.5C565.39 265.5 565.166 265.724 565.166 266C565.166 266.276 565.39 266.5 565.666 266.5V265.5ZM572.682 266.5C572.958 266.5 573.182 266.276 573.182 266C573.182 265.724 572.958 265.5 572.682 265.5V266.5ZM579.698 265.5C579.422 265.5 579.198 265.724 579.198 266C579.198 266.276 579.422 266.5 579.698 266.5V265.5ZM586.714 266.5C586.99 266.5 587.214 266.276 587.214 266C587.214 265.724 586.99 265.5 586.714 265.5V266.5ZM593.73 265.5C593.454 265.5 593.23 265.724 593.23 266C593.23 266.276 593.454 266.5 593.73 266.5V265.5ZM600.746 266.5C601.022 266.5 601.246 266.276 601.246 266C601.246 265.724 601.022 265.5 600.746 265.5V266.5ZM607.762 265.5C607.486 265.5 607.262 265.724 607.262 266C607.262 266.276 607.486 266.5 607.762 266.5V265.5ZM614.778 266.5C615.054 266.5 615.278 266.276 615.278 266C615.278 265.724 615.054 265.5 614.778 265.5V266.5ZM621.793 265.5C621.517 265.5 621.293 265.724 621.293 266C621.293 266.276 621.517 266.5 621.793 266.5V265.5ZM628.809 266.5C629.085 266.5 629.309 266.276 629.309 266C629.309 265.724 629.085 265.5 628.809 265.5V266.5ZM635.825 265.5C635.549 265.5 635.325 265.724 635.325 266C635.325 266.276 635.549 266.5 635.825 266.5V265.5ZM642.841 266.5C643.117 266.5 643.341 266.276 643.341 266C643.341 265.724 643.117 265.5 642.841 265.5V266.5ZM649.857 265.5C649.581 265.5 649.357 265.724 649.357 266C649.357 266.276 649.581 266.5 649.857 266.5V265.5ZM656.873 266.5C657.149 266.5 657.373 266.276 657.373 266C657.373 265.724 657.149 265.5 656.873 265.5V266.5ZM663.889 265.5C663.612 265.5 663.389 265.724 663.389 266C663.389 266.276 663.612 266.5 663.889 266.5V265.5ZM670.904 266.5C671.181 266.5 671.404 266.276 671.404 266C671.404 265.724 671.181 265.5 670.904 265.5V266.5ZM677.92 265.5C677.644 265.5 677.42 265.724 677.42 266C677.42 266.276 677.644 266.5 677.92 266.5V265.5ZM684.936 266.5C685.212 266.5 685.436 266.276 685.436 266C685.436 265.724 685.212 265.5 684.936 265.5V266.5ZM691.952 265.5C691.676 265.5 691.452 265.724 691.452 266C691.452 266.276 691.676 266.5 691.952 266.5V265.5ZM698.968 266.5C699.244 266.5 699.468 266.276 699.468 266C699.468 265.724 699.244 265.5 698.968 265.5V266.5ZM705.984 265.5C705.708 265.5 705.484 265.724 705.484 266C705.484 266.276 705.708 266.5 705.984 266.5V265.5ZM713 266.5C713.276 266.5 713.5 266.276 713.5 266C713.5 265.724 713.276 265.5 713 265.5V266.5ZM720.016 265.5C719.739 265.5 719.516 265.724 719.516 266C719.516 266.276 719.739 266.5 720.016 266.5V265.5ZM727.031 266.5C727.308 266.5 727.531 266.276 727.531 266C727.531 265.724 727.308 265.5 727.031 265.5V266.5ZM734.047 265.5C733.771 265.5 733.547 265.724 733.547 266C733.547 266.276 733.771 266.5 734.047 266.5V265.5ZM741.063 266.5C741.339 266.5 741.563 266.276 741.563 266C741.563 265.724 741.339 265.5 741.063 265.5V266.5ZM748.079 265.5C747.803 265.5 747.579 265.724 747.579 266C747.579 266.276 747.803 266.5 748.079 266.5V265.5ZM755.095 266.5C755.371 266.5 755.595 266.276 755.595 266C755.595 265.724 755.371 265.5 755.095 265.5V266.5ZM762.111 265.5C761.835 265.5 761.611 265.724 761.611 266C761.611 266.276 761.835 266.5 762.111 266.5V265.5ZM769.127 266.5C769.403 266.5 769.627 266.276 769.627 266C769.627 265.724 769.403 265.5 769.127 265.5V266.5ZM776.143 265.5C775.866 265.5 775.643 265.724 775.643 266C775.643 266.276 775.866 266.5 776.143 266.5V265.5ZM783.158 266.5C783.435 266.5 783.658 266.276 783.658 266C783.658 265.724 783.435 265.5 783.158 265.5V266.5ZM790.174 265.5C789.898 265.5 789.674 265.724 789.674 266C789.674 266.276 789.898 266.5 790.174 266.5V265.5ZM797.19 266.5C797.466 266.5 797.69 266.276 797.69 266C797.69 265.724 797.466 265.5 797.19 265.5V266.5ZM804.206 265.5C803.93 265.5 803.706 265.724 803.706 266C803.706 266.276 803.93 266.5 804.206 266.5V265.5ZM811.222 266.5C811.498 266.5 811.722 266.276 811.722 266C811.722 265.724 811.498 265.5 811.222 265.5V266.5ZM818.238 265.5C817.962 265.5 817.738 265.724 817.738 266C817.738 266.276 817.962 266.5 818.238 266.5V265.5ZM825.254 266.5C825.53 266.5 825.754 266.276 825.754 266C825.754 265.724 825.53 265.5 825.254 265.5V266.5ZM832.269 265.5C831.993 265.5 831.769 265.724 831.769 266C831.769 266.276 831.993 266.5 832.269 266.5V265.5ZM839.285 266.5C839.561 266.5 839.785 266.276 839.785 266C839.785 265.724 839.561 265.5 839.285 265.5V266.5ZM846.301 265.5C846.025 265.5 845.801 265.724 845.801 266C845.801 266.276 846.025 266.5 846.301 266.5V265.5ZM853.317 266.5C853.593 266.5 853.817 266.276 853.817 266C853.817 265.724 853.593 265.5 853.317 265.5V266.5ZM860.333 265.5C860.057 265.5 859.833 265.724 859.833 266C859.833 266.276 860.057 266.5 860.333 266.5V265.5ZM867.349 266.5C867.625 266.5 867.849 266.276 867.849 266C867.849 265.724 867.625 265.5 867.349 265.5V266.5ZM874.365 265.5C874.089 265.5 873.865 265.724 873.865 266C873.865 266.276 874.089 266.5 874.365 266.5V265.5ZM881.381 266.5C881.657 266.5 881.881 266.276 881.881 266C881.881 265.724 881.657 265.5 881.381 265.5V266.5ZM888.396 265.5C888.12 265.5 887.896 265.724 887.896 266C887.896 266.276 888.12 266.5 888.396 266.5V265.5ZM895.412 266.5C895.688 266.5 895.912 266.276 895.912 266C895.912 265.724 895.688 265.5 895.412 265.5V266.5ZM902.428 265.5C902.152 265.5 901.928 265.724 901.928 266C901.928 266.276 902.152 266.5 902.428 266.5V265.5ZM909.444 266.5C909.72 266.5 909.944 266.276 909.944 266C909.944 265.724 909.72 265.5 909.444 265.5V266.5ZM916.46 265.5C916.184 265.5 915.96 265.724 915.96 266C915.96 266.276 916.184 266.5 916.46 266.5V265.5ZM923.476 266.5C923.752 266.5 923.976 266.276 923.976 266C923.976 265.724 923.752 265.5 923.476 265.5V266.5ZM930.492 265.5C930.216 265.5 929.992 265.724 929.992 266C929.992 266.276 930.216 266.5 930.492 266.5V265.5ZM938.019 265.703C938.274 265.597 938.396 265.305 938.29 265.05C938.184 264.795 937.891 264.674 937.636 264.779L938.019 265.703ZM942.779 259.636C942.674 259.891 942.795 260.184 943.05 260.29C943.305 260.396 943.597 260.274 943.703 260.019L942.779 259.636ZM944.5 252.5C944.5 252.224 944.276 252 944 252C943.724 252 943.5 252.224 943.5 252.5H944.5ZM943.5 245.5C943.5 245.776 943.724 246 944 246C944.276 246 944.5 245.776 944.5 245.5H943.5ZM944.5 238.5C944.5 238.224 944.276 238 944 238C943.724 238 943.5 238.224 943.5 238.5H944.5ZM943.5 231.5C943.5 231.776 943.724 232 944 232C944.276 232 944.5 231.776 944.5 231.5H943.5ZM944.5 224.5C944.5 224.224 944.276 224 944 224C943.724 224 943.5 224.224 943.5 224.5H944.5ZM943.5 217.5C943.5 217.776 943.724 218 944 218C944.276 218 944.5 217.776 944.5 217.5H943.5ZM944.5 210.5C944.5 210.224 944.276 210 944 210C943.724 210 943.5 210.224 943.5 210.5H944.5ZM943.5 203.5C943.5 203.776 943.724 204 944 204C944.276 204 944.5 203.776 944.5 203.5H943.5ZM944.5 196.5C944.5 196.224 944.276 196 944 196C943.724 196 943.5 196.224 943.5 196.5H944.5ZM943.5 189.5C943.5 189.776 943.724 190 944 190C944.276 190 944.5 189.776 944.5 189.5H943.5ZM944.5 182.5C944.5 182.224 944.276 182 944 182C943.724 182 943.5 182.224 943.5 182.5H944.5ZM943.5 175.5C943.5 175.776 943.724 176 944 176C944.276 176 944.5 175.776 944.5 175.5H943.5ZM944.5 168.5C944.5 168.224 944.276 168 944 168C943.724 168 943.5 168.224 943.5 168.5H944.5ZM943.5 161.5C943.5 161.776 943.724 162 944 162C944.276 162 944.5 161.776 944.5 161.5H943.5ZM944.5 154.5C944.5 154.224 944.276 154 944 154C943.724 154 943.5 154.224 943.5 154.5H944.5ZM943.5 147.5C943.5 147.776 943.724 148 944 148C944.276 148 944.5 147.776 944.5 147.5H943.5ZM944.5 140.5C944.5 140.224 944.276 140 944 140C943.724 140 943.5 140.224 943.5 140.5H944.5ZM943.5 133.5C943.5 133.776 943.724 134 944 134C944.276 134 944.5 133.776 944.5 133.5H943.5ZM944.5 126.5C944.5 126.224 944.276 126 944 126C943.724 126 943.5 126.224 943.5 126.5H944.5ZM943.5 119.5C943.5 119.776 943.724 120 944 120C944.276 120 944.5 119.776 944.5 119.5H943.5ZM944.5 112.5C944.5 112.224 944.276 112 944 112C943.724 112 943.5 112.224 943.5 112.5H944.5ZM943.5 105.5C943.5 105.776 943.724 106 944 106C944.276 106 944.5 105.776 944.5 105.5H943.5ZM944.5 98.5C944.5 98.2239 944.276 98 944 98C943.724 98 943.5 98.2239 943.5 98.5H944.5ZM943.5 91.5C943.5 91.7761 943.724 92 944 92C944.276 92 944.5 91.7761 944.5 91.5H943.5ZM943.703 83.9806C943.597 83.7255 943.305 83.6045 943.05 83.7103C942.795 83.816 942.674 84.1086 942.779 84.3637L943.703 83.9806ZM937.636 79.2207C937.891 79.3264 938.184 79.2054 938.29 78.9503C938.396 78.6953 938.274 78.4027 938.019 78.2969L937.636 79.2207ZM930.546 77.5C930.27 77.5 930.046 77.7239 930.046 78C930.046 78.2761 930.27 78.5 930.546 78.5V77.5ZM923.637 78.5C923.913 78.5 924.137 78.2761 924.137 78C924.137 77.7239 923.913 77.5 923.637 77.5V78.5ZM916.729 77.5C916.453 77.5 916.229 77.7239 916.229 78C916.229 78.2761 916.453 78.5 916.729 78.5V77.5ZM909.82 78.5C910.096 78.5 910.32 78.2761 910.32 78C910.32 77.7239 910.096 77.5 909.82 77.5V78.5ZM902.912 77.5C902.635 77.5 902.412 77.7239 902.412 78C902.412 78.2761 902.635 78.5 902.912 78.5V77.5ZM896.003 78.5C896.279 78.5 896.503 78.2761 896.503 78C896.503 77.7239 896.279 77.5 896.003 77.5V78.5ZM889.095 77.5C888.818 77.5 888.595 77.7239 888.595 78C888.595 78.2761 888.818 78.5 889.095 78.5V77.5ZM882.186 78.5C882.462 78.5 882.686 78.2761 882.686 78C882.686 77.7239 882.462 77.5 882.186 77.5V78.5ZM875.278 77.5C875.001 77.5 874.778 77.7239 874.778 78C874.778 78.2761 875.001 78.5 875.278 78.5V77.5ZM868.369 78.5C868.645 78.5 868.869 78.2761 868.869 78C868.869 77.7239 868.645 77.5 868.369 77.5V78.5ZM861.46 77.5C861.184 77.5 860.96 77.7239 860.96 78C860.96 78.2761 861.184 78.5 861.46 78.5V77.5ZM854.552 78.5C854.828 78.5 855.052 78.2761 855.052 78C855.052 77.7239 854.828 77.5 854.552 77.5V78.5ZM847.643 77.5C847.367 77.5 847.143 77.7239 847.143 78C847.143 78.2761 847.367 78.5 847.643 78.5V77.5ZM840.735 78.5C841.011 78.5 841.235 78.2761 841.235 78C841.235 77.7239 841.011 77.5 840.735 77.5V78.5ZM833.826 77.5C833.55 77.5 833.326 77.7239 833.326 78C833.326 78.2761 833.55 78.5 833.826 78.5V77.5ZM826.918 78.5C827.194 78.5 827.418 78.2761 827.418 78C827.418 77.7239 827.194 77.5 826.918 77.5V78.5ZM820.009 77.5C819.733 77.5 819.509 77.7239 819.509 78C819.509 78.2761 819.733 78.5 820.009 78.5V77.5ZM813.101 78.5C813.377 78.5 813.601 78.2761 813.601 78C813.601 77.7239 813.377 77.5 813.101 77.5V78.5ZM806.192 77.5C805.916 77.5 805.692 77.7239 805.692 78C805.692 78.2761 805.916 78.5 806.192 78.5V77.5ZM799.284 78.5C799.56 78.5 799.784 78.2761 799.784 78C799.784 77.7239 799.56 77.5 799.284 77.5V78.5ZM792.375 77.5C792.099 77.5 791.875 77.7239 791.875 78C791.875 78.2761 792.099 78.5 792.375 78.5V77.5ZM785.467 78.5C785.743 78.5 785.967 78.2761 785.967 78C785.967 77.7239 785.743 77.5 785.467 77.5V78.5ZM778.558 77.5C778.282 77.5 778.058 77.7239 778.058 78C778.058 78.2761 778.282 78.5 778.558 78.5V77.5ZM771.65 78.5C771.926 78.5 772.15 78.2761 772.15 78C772.15 77.7239 771.926 77.5 771.65 77.5V78.5ZM764.741 77.5C764.465 77.5 764.241 77.7239 764.241 78C764.241 78.2761 764.465 78.5 764.741 78.5V77.5ZM757.833 78.5C758.109 78.5 758.333 78.2761 758.333 78C758.333 77.7239 758.109 77.5 757.833 77.5V78.5ZM750.924 77.5C750.648 77.5 750.424 77.7239 750.424 78C750.424 78.2761 750.648 78.5 750.924 78.5V77.5ZM744.016 78.5C744.292 78.5 744.516 78.2761 744.516 78C744.516 77.7239 744.292 77.5 744.016 77.5V78.5ZM737.107 77.5C736.831 77.5 736.607 77.7239 736.607 78C736.607 78.2761 736.831 78.5 737.107 78.5V77.5ZM730.198 78.5C730.475 78.5 730.698 78.2761 730.698 78C730.698 77.7239 730.475 77.5 730.198 77.5V78.5ZM723.29 77.5C723.014 77.5 722.79 77.7239 722.79 78C722.79 78.2761 723.014 78.5 723.29 78.5V77.5ZM716.381 78.5C716.658 78.5 716.881 78.2761 716.881 78C716.881 77.7239 716.658 77.5 716.381 77.5V78.5ZM709.473 77.5C709.197 77.5 708.973 77.7239 708.973 78C708.973 78.2761 709.197 78.5 709.473 78.5V77.5ZM702.564 78.5C702.841 78.5 703.064 78.2761 703.064 78C703.064 77.7239 702.841 77.5 702.564 77.5V78.5ZM695.656 77.5C695.38 77.5 695.156 77.7239 695.156 78C695.156 78.2761 695.38 78.5 695.656 78.5V77.5ZM688.747 78.5C689.023 78.5 689.247 78.2761 689.247 78C689.247 77.7239 689.023 77.5 688.747 77.5V78.5ZM681.839 77.5C681.563 77.5 681.339 77.7239 681.339 78C681.339 78.2761 681.563 78.5 681.839 78.5V77.5ZM674.93 78.5C675.206 78.5 675.43 78.2761 675.43 78C675.43 77.7239 675.206 77.5 674.93 77.5V78.5ZM668.022 77.5C667.746 77.5 667.522 77.7239 667.522 78C667.522 78.2761 667.746 78.5 668.022 78.5V77.5ZM661.113 78.5C661.389 78.5 661.613 78.2761 661.613 78C661.613 77.7239 661.389 77.5 661.113 77.5V78.5ZM654.205 77.5C653.929 77.5 653.705 77.7239 653.705 78C653.705 78.2761 653.929 78.5 654.205 78.5V77.5ZM647.296 78.5C647.572 78.5 647.796 78.2761 647.796 78C647.796 77.7239 647.572 77.5 647.296 77.5V78.5ZM640.388 77.5C640.112 77.5 639.888 77.7239 639.888 78C639.888 78.2761 640.112 78.5 640.388 78.5V77.5ZM633.479 78.5C633.755 78.5 633.979 78.2761 633.979 78C633.979 77.7239 633.755 77.5 633.479 77.5V78.5ZM626.571 77.5C626.294 77.5 626.071 77.7239 626.071 78C626.071 78.2761 626.294 78.5 626.571 78.5V77.5ZM619.662 78.5C619.938 78.5 620.162 78.2761 620.162 78C620.162 77.7239 619.938 77.5 619.662 77.5V78.5ZM612.753 77.5C612.477 77.5 612.253 77.7239 612.253 78C612.253 78.2761 612.477 78.5 612.753 78.5V77.5ZM605.845 78.5C606.121 78.5 606.345 78.2761 606.345 78C606.345 77.7239 606.121 77.5 605.845 77.5V78.5ZM600.795 81.4494C600.705 81.7107 600.845 81.9949 601.106 82.084C601.368 82.1732 601.652 82.0336 601.741 81.7722L600.795 81.4494ZM598.896 88.8309C599.013 88.5807 598.905 88.2831 598.655 88.1661C598.405 88.0492 598.107 88.1571 597.99 88.4073L598.896 88.8309ZM594.448 95.0223C594.305 95.2583 594.38 95.5659 594.616 95.7092C594.852 95.8525 595.159 95.7774 595.303 95.5414L594.448 95.0223ZM591.007 101.824C591.175 101.605 591.134 101.291 590.914 101.123C590.695 100.956 590.381 100.997 590.213 101.216L591.007 101.824ZM585.338 106.92C585.148 107.12 585.155 107.437 585.355 107.627C585.555 107.817 585.872 107.81 586.062 107.61L585.338 106.92ZM580.526 112.832C580.736 112.653 580.763 112.338 580.584 112.127C580.406 111.916 580.09 111.89 579.88 112.069L580.526 112.832ZM573.901 116.602C573.672 116.757 573.612 117.067 573.767 117.296C573.921 117.525 574.232 117.585 574.461 117.43L573.901 116.602ZM567.936 121.349C568.18 121.22 568.273 120.917 568.144 120.673C568.015 120.429 567.713 120.336 567.469 120.465L567.936 121.349ZM560.656 123.611C560.4 123.713 560.275 124.004 560.377 124.26C560.479 124.517 560.769 124.642 561.026 124.54L560.656 123.611ZM553.811 126.962C554.077 126.889 554.234 126.614 554.16 126.347C554.086 126.081 553.811 125.925 553.545 125.998L553.811 126.962ZM546.214 127.6C545.942 127.644 545.757 127.901 545.801 128.174C545.845 128.446 546.102 128.631 546.375 128.587L546.214 127.6ZM538.808 129.399C539.084 129.384 539.295 129.149 539.281 128.873C539.266 128.597 539.03 128.386 538.755 128.4L538.808 129.399ZM531.245 128.4C530.97 128.386 530.734 128.597 530.719 128.873C530.705 129.149 530.916 129.384 531.192 129.399L531.245 128.4ZM523.625 128.587C523.898 128.631 524.155 128.446 524.199 128.174C524.243 127.901 524.058 127.644 523.786 127.6L523.625 128.587ZM516.455 125.998C516.189 125.925 515.913 126.081 515.84 126.347C515.766 126.614 515.923 126.889 516.189 126.962L516.455 125.998ZM508.974 124.54C509.231 124.642 509.521 124.517 509.623 124.26C509.725 124.004 509.6 123.713 509.343 123.611L508.974 124.54ZM502.531 120.465C502.287 120.336 501.985 120.429 501.856 120.673C501.727 120.917 501.82 121.22 502.064 121.349L502.531 120.465ZM495.539 117.43C495.768 117.585 496.079 117.525 496.233 117.296C496.388 117.067 496.328 116.757 496.099 116.602L495.539 117.43ZM490.12 112.069C489.91 111.89 489.594 111.916 489.416 112.127C489.237 112.338 489.264 112.653 489.474 112.832L490.12 112.069ZM483.938 107.61C484.128 107.81 484.445 107.817 484.645 107.627C484.845 107.437 484.852 107.12 484.662 106.92L483.938 107.61ZM479.787 101.216C479.619 100.997 479.305 100.956 479.086 101.123C478.866 101.291 478.825 101.605 478.993 101.824L479.787 101.216ZM474.697 95.5414C474.841 95.7774 475.148 95.8525 475.384 95.7092C475.62 95.5659 475.695 95.2583 475.552 95.0223L474.697 95.5414ZM472.01 88.4073C471.893 88.1571 471.595 88.0492 471.345 88.1662C471.095 88.2831 470.987 88.5807 471.104 88.8309L472.01 88.4073ZM468.259 81.7722C468.348 82.0336 468.632 82.1732 468.894 82.084C469.155 81.9949 469.295 81.7107 469.205 81.4494L468.259 81.7722ZM464.129 77.5C463.853 77.5 463.629 77.7239 463.629 78C463.629 78.2761 463.853 78.5 464.129 78.5V77.5ZM457.169 78.5C457.445 78.5 457.669 78.2761 457.669 78C457.669 77.7239 457.445 77.5 457.169 77.5V78.5ZM450.209 77.5C449.933 77.5 449.709 77.7239 449.709 78C449.709 78.2761 449.933 78.5 450.209 78.5V77.5ZM443.249 78.5C443.525 78.5 443.749 78.2761 443.749 78C443.749 77.7239 443.525 77.5 443.249 77.5V78.5ZM436.289 77.5C436.012 77.5 435.789 77.7239 435.789 78C435.789 78.2761 436.012 78.5 436.289 78.5V77.5ZM429.328 78.5C429.605 78.5 429.828 78.2761 429.828 78C429.828 77.7239 429.605 77.5 429.328 77.5V78.5ZM422.368 77.5C422.092 77.5 421.868 77.7239 421.868 78C421.868 78.2761 422.092 78.5 422.368 78.5V77.5ZM415.408 78.5C415.684 78.5 415.908 78.2761 415.908 78C415.908 77.7239 415.684 77.5 415.408 77.5V78.5ZM408.448 77.5C408.172 77.5 407.948 77.7239 407.948 78C407.948 78.2761 408.172 78.5 408.448 78.5V77.5ZM401.488 78.5C401.764 78.5 401.988 78.2761 401.988 78C401.988 77.7239 401.764 77.5 401.488 77.5V78.5ZM394.528 77.5C394.252 77.5 394.028 77.7239 394.028 78C394.028 78.2761 394.252 78.5 394.528 78.5V77.5ZM387.568 78.5C387.844 78.5 388.068 78.2761 388.068 78C388.068 77.7239 387.844 77.5 387.568 77.5V78.5ZM380.607 77.5C380.331 77.5 380.107 77.7239 380.107 78C380.107 78.2761 380.331 78.5 380.607 78.5V77.5ZM373.647 78.5C373.923 78.5 374.147 78.2761 374.147 78C374.147 77.7239 373.923 77.5 373.647 77.5V78.5ZM366.687 77.5C366.411 77.5 366.187 77.7239 366.187 78C366.187 78.2761 366.411 78.5 366.687 78.5V77.5ZM359.727 78.5C360.003 78.5 360.227 78.2761 360.227 78C360.227 77.7239 360.003 77.5 359.727 77.5V78.5ZM352.767 77.5C352.491 77.5 352.267 77.7239 352.267 78C352.267 78.2761 352.491 78.5 352.767 78.5V77.5ZM345.807 78.5C346.083 78.5 346.307 78.2761 346.307 78C346.307 77.7239 346.083 77.5 345.807 77.5V78.5ZM338.846 77.5C338.57 77.5 338.346 77.7239 338.346 78C338.346 78.2761 338.57 78.5 338.846 78.5V77.5ZM331.886 78.5C332.162 78.5 332.386 78.2761 332.386 78C332.386 77.7239 332.162 77.5 331.886 77.5V78.5ZM324.926 77.5C324.65 77.5 324.426 77.7239 324.426 78C324.426 78.2761 324.65 78.5 324.926 78.5V77.5ZM317.966 78.5C318.242 78.5 318.466 78.2761 318.466 78C318.466 77.7239 318.242 77.5 317.966 77.5V78.5ZM311.006 77.5C310.73 77.5 310.506 77.7239 310.506 78C310.506 78.2761 310.73 78.5 311.006 78.5V77.5ZM304.046 78.5C304.322 78.5 304.546 78.2761 304.546 78C304.546 77.7239 304.322 77.5 304.046 77.5V78.5ZM297.086 77.5C296.809 77.5 296.586 77.7239 296.586 78C296.586 78.2761 296.809 78.5 297.086 78.5V77.5ZM290.125 78.5C290.401 78.5 290.625 78.2761 290.625 78C290.625 77.7239 290.401 77.5 290.125 77.5V78.5ZM283.165 77.5C282.889 77.5 282.665 77.7239 282.665 78C282.665 78.2761 282.889 78.5 283.165 78.5V77.5ZM276.205 78.5C276.481 78.5 276.705 78.2761 276.705 78C276.705 77.7239 276.481 77.5 276.205 77.5V78.5ZM269.245 77.5C268.969 77.5 268.745 77.7239 268.745 78C268.745 78.2761 268.969 78.5 269.245 78.5V77.5ZM262.285 78.5C262.561 78.5 262.785 78.2761 262.785 78C262.785 77.7239 262.561 77.5 262.285 77.5V78.5ZM255.325 77.5C255.048 77.5 254.825 77.7239 254.825 78C254.825 78.2761 255.048 78.5 255.325 78.5V77.5ZM248.364 78.5C248.641 78.5 248.864 78.2761 248.864 78C248.864 77.7239 248.641 77.5 248.364 77.5V78.5ZM241.404 77.5C241.128 77.5 240.904 77.7239 240.904 78C240.904 78.2761 241.128 78.5 241.404 78.5V77.5ZM234.444 78.5C234.72 78.5 234.944 78.2761 234.944 78C234.944 77.7239 234.72 77.5 234.444 77.5V78.5ZM227.484 77.5C227.208 77.5 226.984 77.7239 226.984 78C226.984 78.2761 227.208 78.5 227.484 78.5V77.5ZM220.524 78.5C220.8 78.5 221.024 78.2761 221.024 78C221.024 77.7239 220.8 77.5 220.524 77.5V78.5ZM213.564 77.5C213.287 77.5 213.064 77.7239 213.064 78C213.064 78.2761 213.287 78.5 213.564 78.5V77.5ZM206.603 78.5C206.88 78.5 207.103 78.2761 207.103 78C207.103 77.7239 206.88 77.5 206.603 77.5V78.5ZM199.643 77.5C199.367 77.5 199.143 77.7239 199.143 78C199.143 78.2761 199.367 78.5 199.643 78.5V77.5ZM192.683 78.5C192.959 78.5 193.183 78.2761 193.183 78C193.183 77.7239 192.959 77.5 192.683 77.5V78.5ZM185.723 77.5C185.447 77.5 185.223 77.7239 185.223 78C185.223 78.2761 185.447 78.5 185.723 78.5V77.5ZM178.763 78.5C179.039 78.5 179.263 78.2761 179.263 78C179.263 77.7239 179.039 77.5 178.763 77.5V78.5ZM171.803 77.5C171.527 77.5 171.303 77.7239 171.303 78C171.303 78.2761 171.527 78.5 171.803 78.5V77.5ZM164.843 78.5C165.119 78.5 165.343 78.2761 165.343 78C165.343 77.7239 165.119 77.5 164.843 77.5V78.5ZM157.882 77.5C157.606 77.5 157.382 77.7239 157.382 78C157.382 78.2761 157.606 78.5 157.882 78.5V77.5ZM150.922 78.5C151.198 78.5 151.422 78.2761 151.422 78C151.422 77.7239 151.198 77.5 150.922 77.5V78.5ZM143.962 77.5C143.686 77.5 143.462 77.7239 143.462 78C143.462 78.2761 143.686 78.5 143.962 78.5V77.5ZM137.002 78.5C137.278 78.5 137.502 78.2761 137.502 78C137.502 77.7239 137.278 77.5 137.002 77.5V78.5ZM130.042 77.5C129.766 77.5 129.542 77.7239 129.542 78C129.542 78.2761 129.766 78.5 130.042 78.5V77.5ZM123.082 78.5C123.358 78.5 123.582 78.2761 123.582 78C123.582 77.7239 123.358 77.5 123.082 77.5V78.5ZM116.122 77.5C115.845 77.5 115.622 77.7239 115.622 78C115.622 78.2761 115.845 78.5 116.122 78.5V77.5ZM109.161 78.5C109.438 78.5 109.661 78.2761 109.661 78C109.661 77.7239 109.438 77.5 109.161 77.5V78.5ZM102.201 77.5C101.925 77.5 101.701 77.7239 101.701 78C101.701 78.2761 101.925 78.5 102.201 78.5V77.5ZM95.2411 78.5C95.5173 78.5 95.7411 78.2761 95.7411 78C95.7411 77.7239 95.5173 77.5 95.2411 77.5V78.5ZM88.281 77.5C88.0049 77.5 87.781 77.7239 87.781 78C87.781 78.2761 88.0049 78.5 88.281 78.5V77.5ZM81.3209 78.5C81.597 78.5 81.8209 78.2761 81.8209 78C81.8209 77.7239 81.597 77.5 81.3209 77.5V78.5ZM74.3607 77.5C74.0846 77.5 73.8607 77.7239 73.8607 78C73.8607 78.2761 74.0846 78.5 74.3607 78.5V77.5ZM67.4006 78.5C67.6767 78.5 67.9006 78.2761 67.9006 78C67.9006 77.7239 67.6767 77.5 67.4006 77.5V78.5ZM60.4404 77.5C60.1643 77.5 59.9404 77.7239 59.9404 78C59.9404 78.2761 60.1643 78.5 60.4404 78.5V77.5ZM53.4803 78.5C53.7564 78.5 53.9803 78.2761 53.9803 78C53.9803 77.7239 53.7564 77.5 53.4803 77.5V78.5ZM50 77.5C48.5772 77.5 47.2193 77.7833 45.9806 78.2969L46.3636 79.2207C47.4831 78.7565 48.711 78.5 50 78.5V77.5ZM40.2969 83.9806C39.7833 85.2193 39.5 86.5772 39.5 88H40.5C40.5 86.711 40.7565 85.4831 41.2207 84.3636L40.2969 83.9806ZM39.5 88V91.5H40.5V88H39.5ZM39.5 98.5V105.5H40.5V98.5H39.5ZM39.5 112.5V119.5H40.5V112.5H39.5ZM39.5 126.5V133.5H40.5V126.5H39.5ZM39.5 140.5V147.5H40.5V140.5H39.5ZM39.5 154.5V161.5H40.5V154.5H39.5ZM39.5 168.5V175.5H40.5V168.5H39.5ZM39.5 182.5V189.5H40.5V182.5H39.5ZM39.5 196.5V203.5H40.5V196.5H39.5ZM39.5 210.5V217.5H40.5V210.5H39.5ZM39.5 224.5V231.5H40.5V224.5H39.5ZM39.5 238.5V245.5H40.5V238.5H39.5ZM39.5 252.5V256H40.5V252.5H39.5ZM39.5 256C39.5 257.423 39.7833 258.781 40.2969 260.019L41.2207 259.636C40.7565 258.517 40.5 257.289 40.5 256H39.5ZM45.9806 265.703C47.2193 266.217 48.5772 266.5 50 266.5V265.5C48.711 265.5 47.4831 265.244 46.3637 264.779L45.9806 265.703ZM50 266.5H53.508V265.5H50V266.5ZM60.5238 266.5H67.5397V265.5H60.5238V266.5ZM74.5556 266.5H81.5714V265.5H74.5556V266.5ZM88.5873 266.5H95.6032V265.5H88.5873V266.5ZM102.619 266.5H109.635V265.5H102.619V266.5ZM116.651 266.5H123.667V265.5H116.651V266.5ZM130.683 266.5H137.698V265.5H130.683V266.5ZM144.714 266.5H151.73V265.5H144.714V266.5ZM158.746 266.5H165.762V265.5H158.746V266.5ZM172.778 266.5H179.794V265.5H172.778V266.5ZM186.81 266.5H193.825V265.5H186.81V266.5ZM200.841 266.5H207.857V265.5H200.841V266.5ZM214.873 266.5H221.889V265.5H214.873V266.5ZM228.905 266.5H235.921V265.5H228.905V266.5ZM242.936 266.5H249.952V265.5H242.936V266.5ZM256.968 266.5H263.984V265.5H256.968V266.5ZM271 266.5H278.016V265.5H271V266.5ZM285.032 266.5H292.048V265.5H285.032V266.5ZM299.063 266.5H306.079V265.5H299.063V266.5ZM313.095 266.5H320.111V265.5H313.095V266.5ZM327.127 266.5H334.143V265.5H327.127V266.5ZM341.159 266.5H348.174V265.5H341.159V266.5ZM355.19 266.5H362.206V265.5H355.19V266.5ZM369.222 266.5H376.238V265.5H369.222V266.5ZM383.254 266.5H390.27V265.5H383.254V266.5ZM397.286 266.5H404.301V265.5H397.286V266.5ZM411.317 266.5H418.333V265.5H411.317V266.5ZM425.349 266.5H432.365V265.5H425.349V266.5ZM439.381 266.5H446.397V265.5H439.381V266.5ZM453.413 266.5H460.428V265.5H453.413V266.5ZM467.444 266.5H474.46V265.5H467.444V266.5ZM481.476 266.5H488.492V265.5H481.476V266.5ZM495.508 266.5H502.524V265.5H495.508V266.5ZM509.54 266.5H516.555V265.5H509.54V266.5ZM523.571 266.5H530.587V265.5H523.571V266.5ZM537.603 266.5H544.619V265.5H537.603V266.5ZM551.635 266.5H558.651V265.5H551.635V266.5ZM565.666 266.5H572.682V265.5H565.666V266.5ZM579.698 266.5H586.714V265.5H579.698V266.5ZM593.73 266.5H600.746V265.5H593.73V266.5ZM607.762 266.5H614.778V265.5H607.762V266.5ZM621.793 266.5H628.809V265.5H621.793V266.5ZM635.825 266.5H642.841V265.5H635.825V266.5ZM649.857 266.5H656.873V265.5H649.857V266.5ZM663.889 266.5H670.904V265.5H663.889V266.5ZM677.92 266.5H684.936V265.5H677.92V266.5ZM691.952 266.5H698.968V265.5H691.952V266.5ZM705.984 266.5H713V265.5H705.984V266.5ZM720.016 266.5H727.031V265.5H720.016V266.5ZM734.047 266.5H741.063V265.5H734.047V266.5ZM748.079 266.5H755.095V265.5H748.079V266.5ZM762.111 266.5H769.127V265.5H762.111V266.5ZM776.143 266.5H783.158V265.5H776.143V266.5ZM790.174 266.5H797.19V265.5H790.174V266.5ZM804.206 266.5H811.222V265.5H804.206V266.5ZM818.238 266.5H825.254V265.5H818.238V266.5ZM832.269 266.5H839.285V265.5H832.269V266.5ZM846.301 266.5H853.317V265.5H846.301V266.5ZM860.333 266.5H867.349V265.5H860.333V266.5ZM874.365 266.5H881.381V265.5H874.365V266.5ZM888.396 266.5H895.412V265.5H888.396V266.5ZM902.428 266.5H909.444V265.5H902.428V266.5ZM916.46 266.5H923.476V265.5H916.46V266.5ZM930.492 266.5H934V265.5H930.492V266.5ZM934 266.5C935.423 266.5 936.781 266.217 938.019 265.703L937.636 264.779C936.517 265.244 935.289 265.5 934 265.5V266.5ZM943.703 260.019C944.217 258.781 944.5 257.423 944.5 256H943.5C943.5 257.289 943.244 258.517 942.779 259.636L943.703 260.019ZM944.5 256V252.5H943.5V256H944.5ZM944.5 245.5V238.5H943.5V245.5H944.5ZM944.5 231.5V224.5H943.5V231.5H944.5ZM944.5 217.5V210.5H943.5V217.5H944.5ZM944.5 203.5V196.5H943.5V203.5H944.5ZM944.5 189.5V182.5H943.5V189.5H944.5ZM944.5 175.5V168.5H943.5V175.5H944.5ZM944.5 161.5V154.5H943.5V161.5H944.5ZM944.5 147.5V140.5H943.5V147.5H944.5ZM944.5 133.5V126.5H943.5V133.5H944.5ZM944.5 119.5V112.5H943.5V119.5H944.5ZM944.5 105.5V98.5H943.5V105.5H944.5ZM944.5 91.5V88H943.5V91.5H944.5ZM944.5 88C944.5 86.5772 944.217 85.2193 943.703 83.9806L942.779 84.3637C943.244 85.4831 943.5 86.711 943.5 88H944.5ZM938.019 78.2969C936.781 77.7833 935.423 77.5 934 77.5V78.5C935.289 78.5 936.517 78.7565 937.636 79.2207L938.019 78.2969ZM934 77.5H930.546V78.5H934V77.5ZM923.637 77.5H916.729V78.5H923.637V77.5ZM909.82 77.5H902.912V78.5H909.82V77.5ZM896.003 77.5H889.095V78.5H896.003V77.5ZM882.186 77.5H875.278V78.5H882.186V77.5ZM868.369 77.5H861.46V78.5H868.369V77.5ZM854.552 77.5H847.643V78.5H854.552V77.5ZM840.735 77.5H833.826V78.5H840.735V77.5ZM826.918 77.5H820.009V78.5H826.918V77.5ZM813.101 77.5H806.192V78.5H813.101V77.5ZM799.284 77.5H792.375V78.5H799.284V77.5ZM785.467 77.5H778.558V78.5H785.467V77.5ZM771.65 77.5H764.741V78.5H771.65V77.5ZM757.833 77.5H750.924V78.5H757.833V77.5ZM744.016 77.5H737.107V78.5H744.016V77.5ZM730.198 77.5H723.29V78.5H730.198V77.5ZM716.381 77.5H709.473V78.5H716.381V77.5ZM702.564 77.5H695.656V78.5H702.564V77.5ZM688.747 77.5H681.839V78.5H688.747V77.5ZM674.93 77.5H668.022V78.5H674.93V77.5ZM661.113 77.5H654.205V78.5H661.113V77.5ZM647.296 77.5H640.388V78.5H647.296V77.5ZM633.479 77.5H626.571V78.5H633.479V77.5ZM619.662 77.5H612.753V78.5H619.662V77.5ZM605.845 77.5H602.391V78.5H605.845V77.5ZM601.909 77.8646C601.569 79.0732 601.197 80.2684 600.795 81.4494L601.741 81.7722C602.15 80.5742 602.527 79.3616 602.872 78.1354L601.909 77.8646ZM597.99 88.4073C596.926 90.6821 595.743 92.8898 594.448 95.0223L595.303 95.5414C596.616 93.3781 597.817 91.1386 598.896 88.8309L597.99 88.4073ZM590.213 101.216C588.691 103.205 587.063 105.109 585.338 106.92L586.062 107.61C587.812 105.773 589.463 103.842 591.007 101.824L590.213 101.216ZM579.88 112.069C577.972 113.683 575.976 115.197 573.901 116.602L574.461 117.43C576.566 116.005 578.591 114.47 580.526 112.832L579.88 112.069ZM567.469 120.465C565.265 121.632 562.992 122.683 560.656 123.611L561.026 124.54C563.395 123.599 565.701 122.532 567.936 121.349L567.469 120.465ZM553.545 125.998C551.151 126.66 548.705 127.196 546.214 127.6L546.375 128.587C548.901 128.177 551.382 127.633 553.811 126.962L553.545 125.998ZM538.755 128.4C537.512 128.466 536.26 128.5 535 128.5V129.5C536.277 129.5 537.547 129.466 538.808 129.399L538.755 128.4ZM535 128.5C533.74 128.5 532.488 128.466 531.245 128.4L531.192 129.399C532.453 129.466 533.723 129.5 535 129.5V128.5ZM523.786 127.6C521.295 127.196 518.849 126.66 516.455 125.998L516.189 126.962C518.618 127.633 521.099 128.177 523.625 128.587L523.786 127.6ZM509.343 123.611C507.008 122.683 504.735 121.632 502.531 120.465L502.064 121.349C504.299 122.532 506.605 123.599 508.974 124.54L509.343 123.611ZM496.099 116.602C494.024 115.197 492.028 113.683 490.12 112.069L489.474 112.832C491.409 114.47 493.434 116.005 495.539 117.43L496.099 116.602ZM484.662 106.92C482.937 105.109 481.309 103.205 479.787 101.216L478.993 101.824C480.537 103.842 482.188 105.773 483.938 107.61L484.662 106.92ZM475.552 95.0223C474.257 92.8898 473.074 90.6821 472.01 88.4073L471.104 88.8309C472.183 91.1386 473.384 93.3781 474.697 95.5414L475.552 95.0223ZM469.205 81.4494C468.803 80.2684 468.431 79.0732 468.091 77.8646L467.128 78.1354C467.473 79.3616 467.85 80.5742 468.259 81.7722L469.205 81.4494ZM467.609 77.5H464.129V78.5H467.609V77.5ZM457.169 77.5H450.209V78.5H457.169V77.5ZM443.249 77.5H436.289V78.5H443.249V77.5ZM429.328 77.5H422.368V78.5H429.328V77.5ZM415.408 77.5H408.448V78.5H415.408V77.5ZM401.488 77.5H394.528V78.5H401.488V77.5ZM387.568 77.5H380.607V78.5H387.568V77.5ZM373.647 77.5H366.687V78.5H373.647V77.5ZM359.727 77.5H352.767V78.5H359.727V77.5ZM345.807 77.5H338.846V78.5H345.807V77.5ZM331.886 77.5H324.926V78.5H331.886V77.5ZM317.966 77.5H311.006V78.5H317.966V77.5ZM304.046 77.5H297.086V78.5H304.046V77.5ZM290.125 77.5H283.165V78.5H290.125V77.5ZM276.205 77.5H269.245V78.5H276.205V77.5ZM262.285 77.5H255.325V78.5H262.285V77.5ZM248.364 77.5H241.404V78.5H248.364V77.5ZM234.444 77.5H227.484V78.5H234.444V77.5ZM220.524 77.5H213.564V78.5H220.524V77.5ZM206.603 77.5H199.643V78.5H206.603V77.5ZM192.683 77.5H185.723V78.5H192.683V77.5ZM178.763 77.5H171.803V78.5H178.763V77.5ZM164.843 77.5H157.882V78.5H164.843V77.5ZM150.922 77.5H143.962V78.5H150.922V77.5ZM137.002 77.5H130.042V78.5H137.002V77.5ZM123.082 77.5H116.122V78.5H123.082V77.5ZM109.161 77.5H102.201V78.5H109.161V77.5ZM95.2411 77.5H88.281V78.5H95.2411V77.5ZM81.3209 77.5H74.3607V78.5H81.3209V77.5ZM67.4006 77.5H60.4404V78.5H67.4006V77.5ZM53.4803 77.5H50V78.5H53.4803V77.5Z" fill="#E5E5E5"/>
</g>
<defs>
<filter id="filter0_d" x="0" y="38" width="984" height="268" filterUnits="userSpaceOnUse" color-interpolation-filters="sRGB">
<feFlood flood-opacity="0" result="BackgroundImageFix"/>
<feColorMatrix in="SourceAlpha" type="matrix" values="0 0 0 0 0 0 0 0 0 0 0 0 0 0 0 0 0 0 127 0"/>
<feOffset/>
<feGaussianBlur stdDeviation="15"/>
<feColorMatrix type="matrix" values="0 0 0 0 0 0 0 0 0 0 0 0 0 0 0 0 0 0 0.1 0"/>
<feBlend mode="normal" in2="BackgroundImageFix" result="effect1_dropShadow"/>
<feBlend mode="normal" in="SourceGraphic" in2="effect1_dropShadow" result="shape"/>
</filter>
<filter id="filter1_d" x="9.5" y="47.5" width="965" height="249" filterUnits="userSpaceOnUse" color-interpolation-filters="sRGB">
<feFlood flood-opacity="0" result="BackgroundImageFix"/>
<feColorMatrix in="SourceAlpha" type="matrix" values="0 0 0 0 0 0 0 0 0 0 0 0 0 0 0 0 0 0 127 0"/>
<feOffset/>
<feGaussianBlur stdDeviation="15"/>
<feColorMatrix type="matrix" values="0 0 0 0 0 0 0 0 0 0 0 0 0 0 0 0 0 0 0.1 0"/>
<feBlend mode="normal" in2="BackgroundImageFix" result="effect1_dropShadow"/>
<feBlend mode="normal" in="SourceGraphic" in2="effect1_dropShadow" result="shape"/>
</filter>
<linearGradient id="paint0_linear" x1="483" y1="0" x2="588.512" y2="8.73402" gradientUnits="userSpaceOnUse">
<stop stop-color="#051EFC"/>
<stop offset="0.877466" stop-color="#51A1FF"/>
</linearGradient>
<linearGradient id="paint1_linear" x1="531.636" y1="100" x2="531.636" y2="-2.69316e-06" gradientUnits="userSpaceOnUse">
<stop stop-color="#FCCB05"/>
<stop offset="1" stop-color="#FFE57D"/>
</linearGradient>
</defs>
</svg>
