<svg width="450" height="260" viewBox="0 0 450 260" fill="none" xmlns="http://www.w3.org/2000/svg">
<path d="M449 130C449 157.614 426.614 180 399 180C371.386 180 349 157.614 349 130C349 102.386 371.386 80 399 80C426.614 80 449 102.386 449 130Z" fill="url(#paint0_linear)"/>
<mask id="mask0" mask-type="alpha" maskUnits="userSpaceOnUse" x="350" y="80" width="100" height="100">
<circle cx="400" cy="130" r="50" fill="url(#paint1_linear)"/>
</mask>
<g mask="url(#mask0)">
<path fill-rule="evenodd" clip-rule="evenodd" d="M401.816 92.1171V102.729C401.816 103.346 401.316 103.846 400.699 103.846C400.082 103.846 399.582 103.346 399.582 102.729V92.1171C399.582 91.5002 400.082 91 400.699 91C401.316 91 401.816 91.5002 401.816 92.1171ZM400.697 138.267C391.75 138.267 384.498 131.015 384.498 122.069C384.509 113.127 391.755 105.88 400.697 105.87C409.643 105.87 416.896 113.122 416.896 122.069C416.896 131.015 409.643 138.267 400.697 138.267ZM414.662 122.069C414.662 114.356 408.41 108.104 400.697 108.104C392.988 108.113 386.741 114.36 386.732 122.069C386.732 129.781 392.984 136.033 400.697 136.033C408.41 136.033 414.662 129.781 414.662 122.069ZM400.407 128.155C400.535 128.136 400.664 128.141 400.79 128.168C402.171 128.118 403.258 126.97 403.232 125.588C403.207 124.207 402.08 123.1 400.697 123.1C398.308 123.101 396.287 121.333 395.969 118.964C395.652 116.596 397.136 114.358 399.441 113.729V112.644C399.441 112.027 399.941 111.527 400.558 111.527C401.175 111.527 401.675 112.027 401.675 112.644V113.66C403.883 114.126 405.465 116.073 405.468 118.33C405.468 118.947 404.968 119.447 404.351 119.447C403.734 119.447 403.234 118.947 403.234 118.33C403.234 116.929 402.098 115.794 400.697 115.794C399.297 115.794 398.161 116.929 398.161 118.33C398.161 119.731 399.297 120.866 400.697 120.866C403.142 120.867 405.19 122.714 405.442 125.145C405.693 127.577 404.067 129.805 401.675 130.305V131.355C401.675 131.972 401.175 132.472 400.558 132.472C399.941 132.472 399.441 131.972 399.441 131.355V130.238C397.368 129.669 395.93 127.786 395.927 125.636C395.927 125.019 396.427 124.519 397.044 124.519C397.661 124.519 398.161 125.019 398.161 125.636C398.163 126.924 399.128 128.006 400.407 128.155ZM422.403 141.022L413.653 145.156C412.445 142.909 410.127 141.479 407.576 141.407L399.498 141.185C398.219 141.148 396.964 140.824 395.827 140.237L395.005 139.811C390.796 137.617 385.78 137.622 381.575 139.825L381.627 137.963C381.644 137.346 381.158 136.832 380.541 136.815L371.683 136.571C371.066 136.554 370.552 137.04 370.536 137.657L370 157.096C369.984 157.713 370.47 158.227 371.086 158.244L379.945 158.487H379.975C380.581 158.487 381.076 158.006 381.092 157.401L381.118 156.471L383.419 155.239C384.322 154.753 385.378 154.637 386.365 154.916L400.107 158.773C400.131 158.78 400.155 158.786 400.18 158.791C401.173 158.999 402.185 159.103 403.2 159.103C405.349 159.104 407.473 158.641 409.426 157.744C409.474 157.722 409.52 157.697 409.565 157.668L429.489 144.78C429.986 144.458 430.146 143.807 429.855 143.292C428.376 140.667 425.095 139.667 422.403 141.022ZM372.265 156.041L372.738 138.835L379.363 139.018L378.889 156.224L372.265 156.041ZM408.42 155.749C405.993 156.844 403.283 157.146 400.674 156.613L386.969 152.766C385.427 152.33 383.776 152.511 382.365 153.27L381.189 153.9L381.503 142.46C385.23 139.981 390.009 139.727 393.978 141.794L394.8 142.22C396.237 142.962 397.821 143.371 399.437 143.418L407.516 143.64C409.785 143.706 411.712 145.321 412.172 147.545L400.139 147.212C399.522 147.195 399.009 147.682 398.992 148.298C398.975 148.915 399.461 149.429 400.078 149.446L413.357 149.811H413.388C413.993 149.811 414.488 149.329 414.504 148.725C414.518 148.239 414.482 147.753 414.396 147.276L423.372 143.035C423.38 143.031 423.389 143.027 423.398 143.022C424.671 142.378 426.21 142.594 427.257 143.563L408.42 155.749ZM410.192 102.729V97.7026C410.192 97.0857 409.692 96.5855 409.075 96.5855C408.458 96.5855 407.958 97.0857 407.958 97.7026V102.729C407.958 103.346 408.458 103.847 409.075 103.847C409.692 103.847 410.192 103.346 410.192 102.729ZM393.437 97.7026V102.729C393.437 103.346 392.936 103.847 392.319 103.847C391.703 103.847 391.202 103.346 391.202 102.729V97.7026C391.202 97.0857 391.703 96.5855 392.319 96.5855C392.936 96.5855 393.437 97.0857 393.437 97.7026Z" fill="white" style="mix-blend-mode:overlay"/>
</g>
<g filter="url(#filter0_d)">
<path fill-rule="evenodd" clip-rule="evenodd" d="M40 30C34.4772 30 30 34.4772 30 40V220C30 225.523 34.4771 230 40 230H390C395.523 230 400 225.523 400 220V189.997C399.8 189.999 399.6 190 399.4 190C364.369 190 335.971 163.137 335.971 130C335.971 96.8629 364.369 70 399.4 70C399.6 70 399.8 70.0009 400 70.0026V40C400 34.4772 395.523 30 390 30H40Z" fill="white"/>
</g>
<g filter="url(#filter1_d)">
<path d="M390 199.888H390.5V199.415L390.028 199.388L390 199.888ZM390 60.1124L390.028 60.6116L390.5 60.585V60.1124H390ZM39.5 53.6364C39.5 53.9125 39.7239 54.1364 40 54.1364C40.2761 54.1364 40.5 53.9125 40.5 53.6364H39.5ZM40.5 60.9091C40.5 60.633 40.2761 60.4091 40 60.4091C39.7239 60.4091 39.5 60.633 39.5 60.9091H40.5ZM39.5 68.1818C39.5 68.458 39.7239 68.6818 40 68.6818C40.2761 68.6818 40.5 68.458 40.5 68.1818H39.5ZM40.5 75.4545C40.5 75.1784 40.2761 74.9545 40 74.9545C39.7239 74.9545 39.5 75.1784 39.5 75.4545H40.5ZM39.5 82.7273C39.5 83.0034 39.7239 83.2273 40 83.2273C40.2761 83.2273 40.5 83.0034 40.5 82.7273H39.5ZM40.5 90C40.5 89.7239 40.2761 89.5 40 89.5C39.7239 89.5 39.5 89.7239 39.5 90H40.5ZM39.5 97.2727C39.5 97.5489 39.7239 97.7727 40 97.7727C40.2761 97.7727 40.5 97.5489 40.5 97.2727H39.5ZM40.5 104.545C40.5 104.269 40.2761 104.045 40 104.045C39.7239 104.045 39.5 104.269 39.5 104.545H40.5ZM39.5 111.818C39.5 112.094 39.7239 112.318 40 112.318C40.2761 112.318 40.5 112.094 40.5 111.818H39.5ZM40.5 119.091C40.5 118.815 40.2761 118.591 40 118.591C39.7239 118.591 39.5 118.815 39.5 119.091H40.5ZM39.5 126.364C39.5 126.64 39.7239 126.864 40 126.864C40.2761 126.864 40.5 126.64 40.5 126.364H39.5ZM40.5 133.636C40.5 133.36 40.2761 133.136 40 133.136C39.7239 133.136 39.5 133.36 39.5 133.636H40.5ZM39.5 140.909C39.5 141.185 39.7239 141.409 40 141.409C40.2761 141.409 40.5 141.185 40.5 140.909H39.5ZM40.5 148.182C40.5 147.906 40.2761 147.682 40 147.682C39.7239 147.682 39.5 147.906 39.5 148.182H40.5ZM39.5 155.455C39.5 155.731 39.7239 155.955 40 155.955C40.2761 155.955 40.5 155.731 40.5 155.455H39.5ZM40.5 162.727C40.5 162.451 40.2761 162.227 40 162.227C39.7239 162.227 39.5 162.451 39.5 162.727H40.5ZM39.5 170C39.5 170.276 39.7239 170.5 40 170.5C40.2761 170.5 40.5 170.276 40.5 170H39.5ZM40.5 177.273C40.5 176.997 40.2761 176.773 40 176.773C39.7239 176.773 39.5 176.997 39.5 177.273H40.5ZM39.5 184.545C39.5 184.822 39.7239 185.045 40 185.045C40.2761 185.045 40.5 184.822 40.5 184.545H39.5ZM40.5 191.818C40.5 191.542 40.2761 191.318 40 191.318C39.7239 191.318 39.5 191.542 39.5 191.818H40.5ZM39.5 199.091C39.5 199.367 39.7239 199.591 40 199.591C40.2761 199.591 40.5 199.367 40.5 199.091H39.5ZM40.5 206.364C40.5 206.087 40.2761 205.864 40 205.864C39.7239 205.864 39.5 206.087 39.5 206.364H40.5ZM40.2969 214.019C40.4027 214.274 40.6953 214.396 40.9503 214.29C41.2054 214.184 41.3264 213.891 41.2207 213.636L40.2969 214.019ZM46.3636 218.779C46.1086 218.674 45.816 218.795 45.7103 219.05C45.6045 219.305 45.7255 219.597 45.9806 219.703L46.3636 218.779ZM53.4375 220.5C53.7136 220.5 53.9375 220.276 53.9375 220C53.9375 219.724 53.7136 219.5 53.4375 219.5V220.5ZM60.3125 219.5C60.0364 219.5 59.8125 219.724 59.8125 220C59.8125 220.276 60.0364 220.5 60.3125 220.5V219.5ZM67.1875 220.5C67.4636 220.5 67.6875 220.276 67.6875 220C67.6875 219.724 67.4636 219.5 67.1875 219.5V220.5ZM74.0625 219.5C73.7864 219.5 73.5625 219.724 73.5625 220C73.5625 220.276 73.7864 220.5 74.0625 220.5V219.5ZM80.9375 220.5C81.2136 220.5 81.4375 220.276 81.4375 220C81.4375 219.724 81.2136 219.5 80.9375 219.5V220.5ZM87.8125 219.5C87.5364 219.5 87.3125 219.724 87.3125 220C87.3125 220.276 87.5364 220.5 87.8125 220.5V219.5ZM94.6875 220.5C94.9636 220.5 95.1875 220.276 95.1875 220C95.1875 219.724 94.9636 219.5 94.6875 219.5V220.5ZM101.562 219.5C101.286 219.5 101.062 219.724 101.062 220C101.062 220.276 101.286 220.5 101.562 220.5V219.5ZM108.438 220.5C108.714 220.5 108.938 220.276 108.938 220C108.938 219.724 108.714 219.5 108.438 219.5V220.5ZM115.312 219.5C115.036 219.5 114.812 219.724 114.812 220C114.812 220.276 115.036 220.5 115.312 220.5V219.5ZM122.188 220.5C122.464 220.5 122.688 220.276 122.688 220C122.688 219.724 122.464 219.5 122.188 219.5V220.5ZM129.062 219.5C128.786 219.5 128.562 219.724 128.562 220C128.562 220.276 128.786 220.5 129.062 220.5V219.5ZM135.937 220.5C136.214 220.5 136.437 220.276 136.437 220C136.437 219.724 136.214 219.5 135.937 219.5V220.5ZM142.812 219.5C142.536 219.5 142.312 219.724 142.312 220C142.312 220.276 142.536 220.5 142.812 220.5V219.5ZM149.688 220.5C149.964 220.5 150.188 220.276 150.188 220C150.188 219.724 149.964 219.5 149.688 219.5V220.5ZM156.562 219.5C156.286 219.5 156.062 219.724 156.062 220C156.062 220.276 156.286 220.5 156.562 220.5V219.5ZM163.438 220.5C163.714 220.5 163.938 220.276 163.938 220C163.938 219.724 163.714 219.5 163.438 219.5V220.5ZM170.312 219.5C170.036 219.5 169.812 219.724 169.812 220C169.812 220.276 170.036 220.5 170.312 220.5V219.5ZM177.188 220.5C177.464 220.5 177.688 220.276 177.688 220C177.688 219.724 177.464 219.5 177.188 219.5V220.5ZM184.062 219.5C183.786 219.5 183.562 219.724 183.562 220C183.562 220.276 183.786 220.5 184.062 220.5V219.5ZM190.938 220.5C191.214 220.5 191.438 220.276 191.438 220C191.438 219.724 191.214 219.5 190.938 219.5V220.5ZM197.812 219.5C197.536 219.5 197.312 219.724 197.312 220C197.312 220.276 197.536 220.5 197.812 220.5V219.5ZM204.688 220.5C204.964 220.5 205.188 220.276 205.188 220C205.188 219.724 204.964 219.5 204.688 219.5V220.5ZM211.562 219.5C211.286 219.5 211.062 219.724 211.062 220C211.062 220.276 211.286 220.5 211.562 220.5V219.5ZM218.438 220.5C218.714 220.5 218.938 220.276 218.938 220C218.938 219.724 218.714 219.5 218.438 219.5V220.5ZM225.312 219.5C225.036 219.5 224.812 219.724 224.812 220C224.812 220.276 225.036 220.5 225.312 220.5V219.5ZM232.188 220.5C232.464 220.5 232.688 220.276 232.688 220C232.688 219.724 232.464 219.5 232.188 219.5V220.5ZM239.062 219.5C238.786 219.5 238.562 219.724 238.562 220C238.562 220.276 238.786 220.5 239.062 220.5V219.5ZM245.938 220.5C246.214 220.5 246.438 220.276 246.438 220C246.438 219.724 246.214 219.5 245.938 219.5V220.5ZM252.812 219.5C252.536 219.5 252.312 219.724 252.312 220C252.312 220.276 252.536 220.5 252.812 220.5V219.5ZM259.688 220.5C259.964 220.5 260.188 220.276 260.188 220C260.188 219.724 259.964 219.5 259.688 219.5V220.5ZM266.562 219.5C266.286 219.5 266.062 219.724 266.062 220C266.062 220.276 266.286 220.5 266.562 220.5V219.5ZM273.438 220.5C273.714 220.5 273.938 220.276 273.938 220C273.938 219.724 273.714 219.5 273.438 219.5V220.5ZM280.312 219.5C280.036 219.5 279.812 219.724 279.812 220C279.812 220.276 280.036 220.5 280.312 220.5V219.5ZM287.188 220.5C287.464 220.5 287.688 220.276 287.688 220C287.688 219.724 287.464 219.5 287.188 219.5V220.5ZM294.062 219.5C293.786 219.5 293.562 219.724 293.562 220C293.562 220.276 293.786 220.5 294.062 220.5V219.5ZM300.938 220.5C301.214 220.5 301.438 220.276 301.438 220C301.438 219.724 301.214 219.5 300.938 219.5V220.5ZM307.812 219.5C307.536 219.5 307.312 219.724 307.312 220C307.312 220.276 307.536 220.5 307.812 220.5V219.5ZM314.688 220.5C314.964 220.5 315.188 220.276 315.188 220C315.188 219.724 314.964 219.5 314.688 219.5V220.5ZM321.562 219.5C321.286 219.5 321.062 219.724 321.062 220C321.062 220.276 321.286 220.5 321.562 220.5V219.5ZM328.438 220.5C328.714 220.5 328.938 220.276 328.938 220C328.938 219.724 328.714 219.5 328.438 219.5V220.5ZM335.312 219.5C335.036 219.5 334.812 219.724 334.812 220C334.812 220.276 335.036 220.5 335.312 220.5V219.5ZM342.188 220.5C342.464 220.5 342.688 220.276 342.688 220C342.688 219.724 342.464 219.5 342.188 219.5V220.5ZM349.062 219.5C348.786 219.5 348.562 219.724 348.562 220C348.562 220.276 348.786 220.5 349.062 220.5V219.5ZM355.938 220.5C356.214 220.5 356.438 220.276 356.438 220C356.438 219.724 356.214 219.5 355.938 219.5V220.5ZM362.812 219.5C362.536 219.5 362.312 219.724 362.312 220C362.312 220.276 362.536 220.5 362.812 220.5V219.5ZM369.688 220.5C369.964 220.5 370.188 220.276 370.188 220C370.188 219.724 369.964 219.5 369.688 219.5V220.5ZM376.562 219.5C376.286 219.5 376.062 219.724 376.062 220C376.062 220.276 376.286 220.5 376.562 220.5V219.5ZM384.019 219.703C384.274 219.597 384.396 219.305 384.29 219.05C384.184 218.795 383.891 218.674 383.636 218.779L384.019 219.703ZM388.779 213.636C388.674 213.891 388.795 214.184 389.05 214.29C389.305 214.396 389.597 214.274 389.703 214.019L388.779 213.636ZM390.5 207.472C390.5 207.196 390.276 206.972 390 206.972C389.724 206.972 389.5 207.196 389.5 207.472H390.5ZM389.5 202.416C389.5 202.692 389.724 202.916 390 202.916C390.276 202.916 390.5 202.692 390.5 202.416H389.5ZM386.75 199.126C386.476 199.098 386.23 199.298 386.201 199.572C386.173 199.847 386.372 200.093 386.647 200.121L386.75 199.126ZM380.054 199.121C380.325 199.175 380.589 199 380.643 198.729C380.697 198.458 380.522 198.195 380.251 198.14L380.054 199.121ZM373.875 196.542C373.611 196.462 373.332 196.612 373.252 196.876C373.172 197.14 373.322 197.419 373.586 197.499L373.875 196.542ZM367.302 195.269C367.558 195.374 367.85 195.252 367.954 194.996C368.059 194.74 367.937 194.448 367.681 194.344L367.302 195.269ZM361.724 191.567C361.479 191.438 361.177 191.532 361.049 191.777C360.92 192.021 361.014 192.324 361.259 192.452L361.724 191.567ZM355.509 189.075C355.741 189.226 356.051 189.161 356.202 188.93C356.352 188.699 356.287 188.389 356.056 188.238L355.509 189.075ZM350.728 184.389C350.512 184.217 350.197 184.252 350.025 184.468C349.853 184.684 349.889 184.999 350.105 185.171L350.728 184.389ZM345.091 180.776C345.29 180.967 345.606 180.961 345.798 180.762C345.989 180.564 345.984 180.247 345.785 180.055L345.091 180.776ZM341.27 175.277C341.09 175.068 340.775 175.044 340.565 175.224C340.356 175.404 340.332 175.719 340.512 175.929L341.27 175.277ZM336.409 170.673C336.568 170.899 336.88 170.952 337.106 170.793C337.331 170.633 337.385 170.321 337.225 170.096L336.409 170.673ZM333.686 164.557C333.549 164.317 333.243 164.235 333.004 164.372C332.764 164.51 332.682 164.815 332.819 165.055L333.686 164.557ZM329.777 159.121C329.891 159.373 330.187 159.484 330.439 159.37C330.69 159.256 330.802 158.959 330.687 158.708L329.777 159.121ZM328.257 152.601C328.168 152.34 327.883 152.201 327.622 152.291C327.361 152.38 327.222 152.665 327.312 152.926L328.257 152.601ZM325.447 146.524C325.512 146.793 325.782 146.958 326.05 146.894C326.319 146.829 326.484 146.559 326.42 146.291L325.447 146.524ZM325.19 139.834C325.152 139.56 324.898 139.37 324.625 139.409C324.352 139.447 324.161 139.7 324.2 139.974L325.19 139.834ZM323.577 133.334C323.59 133.61 323.824 133.824 324.1 133.811C324.376 133.798 324.589 133.564 324.576 133.288L323.577 133.334ZM324.576 126.712C324.589 126.436 324.376 126.202 324.1 126.189C323.824 126.176 323.59 126.39 323.577 126.666L324.576 126.712ZM324.2 120.026C324.161 120.3 324.352 120.553 324.625 120.591C324.898 120.63 325.152 120.44 325.19 120.166L324.2 120.026ZM326.42 113.709C326.484 113.441 326.319 113.171 326.05 113.106C325.782 113.042 325.512 113.207 325.447 113.476L326.42 113.709ZM327.312 107.074C327.222 107.335 327.361 107.62 327.622 107.709C327.883 107.799 328.168 107.66 328.257 107.399L327.312 107.074ZM330.687 101.292C330.802 101.041 330.69 100.744 330.439 100.63C330.187 100.516 329.891 100.627 329.777 100.879L330.687 101.292ZM332.819 94.9454C332.682 95.1848 332.764 95.4904 333.004 95.6279C333.243 95.7654 333.549 95.6828 333.686 95.4433L332.819 94.9454ZM337.225 89.9042C337.385 89.6788 337.331 89.3667 337.106 89.2072C336.88 89.0478 336.568 89.1012 336.409 89.3266L337.225 89.9042ZM340.512 84.0712C340.332 84.2806 340.356 84.5963 340.565 84.7762C340.775 84.9562 341.09 84.9324 341.27 84.723L340.512 84.0712ZM345.785 79.9446C345.984 79.753 345.989 79.4365 345.798 79.2376C345.606 79.0388 345.29 79.0329 345.091 79.2245L345.785 79.9446ZM350.105 74.8292C349.889 75.0012 349.853 75.3158 350.025 75.5318C350.197 75.7478 350.512 75.7834 350.728 75.6113L350.105 74.8292ZM356.056 71.7622C356.287 71.6112 356.352 71.3014 356.202 71.0702C356.051 70.839 355.741 70.7739 355.509 70.9248L356.056 71.7622ZM361.259 67.5479C361.014 67.6763 360.92 67.9786 361.049 68.2231C361.177 68.4675 361.479 68.5616 361.724 68.4332L361.259 67.5479ZM367.681 65.6562C367.937 65.5515 368.059 65.2595 367.954 65.004C367.85 64.7484 367.558 64.6261 367.302 64.7307L367.681 65.6562ZM373.586 62.5008C373.322 62.5807 373.172 62.8597 373.252 63.124C373.332 63.3884 373.611 63.538 373.875 63.4581L373.586 62.5008ZM380.251 61.8597C380.522 61.8054 380.697 61.5418 380.643 61.2711C380.589 61.0003 380.325 60.8249 380.054 60.8792L380.251 61.8597ZM386.647 59.8789C386.372 59.9073 386.173 60.1531 386.201 60.4277C386.23 60.7024 386.476 60.902 386.75 60.8735L386.647 59.8789ZM390.5 57.5843C390.5 57.3081 390.276 57.0843 390 57.0843C389.724 57.0843 389.5 57.3081 389.5 57.5843H390.5ZM389.5 52.5281C389.5 52.8042 389.724 53.0281 390 53.0281C390.276 53.0281 390.5 52.8042 390.5 52.5281H389.5ZM389.703 45.9806C389.597 45.7255 389.305 45.6045 389.05 45.7103C388.795 45.816 388.674 46.1086 388.779 46.3636L389.703 45.9806ZM383.636 41.2207C383.891 41.3264 384.184 41.2054 384.29 40.9503C384.396 40.6953 384.274 40.4027 384.019 40.2969L383.636 41.2207ZM376.562 39.5C376.286 39.5 376.062 39.7239 376.062 40C376.062 40.2761 376.286 40.5 376.562 40.5V39.5ZM369.688 40.5C369.964 40.5 370.188 40.2761 370.188 40C370.188 39.7239 369.964 39.5 369.688 39.5V40.5ZM362.812 39.5C362.536 39.5 362.312 39.7239 362.312 40C362.312 40.2761 362.536 40.5 362.812 40.5V39.5ZM355.938 40.5C356.214 40.5 356.438 40.2761 356.438 40C356.438 39.7239 356.214 39.5 355.938 39.5V40.5ZM349.062 39.5C348.786 39.5 348.562 39.7239 348.562 40C348.562 40.2761 348.786 40.5 349.062 40.5V39.5ZM342.188 40.5C342.464 40.5 342.688 40.2761 342.688 40C342.688 39.7239 342.464 39.5 342.188 39.5V40.5ZM335.312 39.5C335.036 39.5 334.812 39.7239 334.812 40C334.812 40.2761 335.036 40.5 335.312 40.5V39.5ZM328.438 40.5C328.714 40.5 328.938 40.2761 328.938 40C328.938 39.7239 328.714 39.5 328.438 39.5V40.5ZM321.562 39.5C321.286 39.5 321.062 39.7239 321.062 40C321.062 40.2761 321.286 40.5 321.562 40.5V39.5ZM314.688 40.5C314.964 40.5 315.188 40.2761 315.188 40C315.188 39.7239 314.964 39.5 314.688 39.5V40.5ZM307.812 39.5C307.536 39.5 307.312 39.7239 307.312 40C307.312 40.2761 307.536 40.5 307.812 40.5V39.5ZM300.938 40.5C301.214 40.5 301.438 40.2761 301.438 40C301.438 39.7239 301.214 39.5 300.938 39.5V40.5ZM294.062 39.5C293.786 39.5 293.562 39.7239 293.562 40C293.562 40.2761 293.786 40.5 294.062 40.5V39.5ZM287.188 40.5C287.464 40.5 287.688 40.2761 287.688 40C287.688 39.7239 287.464 39.5 287.188 39.5V40.5ZM280.312 39.5C280.036 39.5 279.812 39.7239 279.812 40C279.812 40.2761 280.036 40.5 280.312 40.5V39.5ZM273.438 40.5C273.714 40.5 273.938 40.2761 273.938 40C273.938 39.7239 273.714 39.5 273.438 39.5V40.5ZM266.562 39.5C266.286 39.5 266.062 39.7239 266.062 40C266.062 40.2761 266.286 40.5 266.562 40.5V39.5ZM259.688 40.5C259.964 40.5 260.188 40.2761 260.188 40C260.188 39.7239 259.964 39.5 259.688 39.5V40.5ZM252.812 39.5C252.536 39.5 252.312 39.7239 252.312 40C252.312 40.2761 252.536 40.5 252.812 40.5V39.5ZM245.938 40.5C246.214 40.5 246.438 40.2761 246.438 40C246.438 39.7239 246.214 39.5 245.938 39.5V40.5ZM239.062 39.5C238.786 39.5 238.562 39.7239 238.562 40C238.562 40.2761 238.786 40.5 239.062 40.5V39.5ZM232.188 40.5C232.464 40.5 232.688 40.2761 232.688 40C232.688 39.7239 232.464 39.5 232.188 39.5V40.5ZM225.312 39.5C225.036 39.5 224.812 39.7239 224.812 40C224.812 40.2761 225.036 40.5 225.312 40.5V39.5ZM218.438 40.5C218.714 40.5 218.938 40.2761 218.938 40C218.938 39.7239 218.714 39.5 218.438 39.5V40.5ZM211.562 39.5C211.286 39.5 211.062 39.7239 211.062 40C211.062 40.2761 211.286 40.5 211.562 40.5V39.5ZM204.688 40.5C204.964 40.5 205.188 40.2761 205.188 40C205.188 39.7239 204.964 39.5 204.688 39.5V40.5ZM197.812 39.5C197.536 39.5 197.312 39.7239 197.312 40C197.312 40.2761 197.536 40.5 197.812 40.5V39.5ZM190.938 40.5C191.214 40.5 191.438 40.2761 191.438 40C191.438 39.7239 191.214 39.5 190.938 39.5V40.5ZM184.062 39.5C183.786 39.5 183.562 39.7239 183.562 40C183.562 40.2761 183.786 40.5 184.062 40.5V39.5ZM177.188 40.5C177.464 40.5 177.688 40.2761 177.688 40C177.688 39.7239 177.464 39.5 177.188 39.5V40.5ZM170.312 39.5C170.036 39.5 169.812 39.7239 169.812 40C169.812 40.2761 170.036 40.5 170.312 40.5V39.5ZM163.438 40.5C163.714 40.5 163.938 40.2761 163.938 40C163.938 39.7239 163.714 39.5 163.438 39.5V40.5ZM156.563 39.5C156.286 39.5 156.063 39.7239 156.063 40C156.063 40.2761 156.286 40.5 156.563 40.5V39.5ZM149.687 40.5C149.964 40.5 150.187 40.2761 150.187 40C150.187 39.7239 149.964 39.5 149.687 39.5V40.5ZM142.812 39.5C142.536 39.5 142.312 39.7239 142.312 40C142.312 40.2761 142.536 40.5 142.812 40.5V39.5ZM135.938 40.5C136.214 40.5 136.438 40.2761 136.438 40C136.438 39.7239 136.214 39.5 135.938 39.5V40.5ZM129.062 39.5C128.786 39.5 128.562 39.7239 128.562 40C128.562 40.2761 128.786 40.5 129.062 40.5V39.5ZM122.188 40.5C122.464 40.5 122.688 40.2761 122.688 40C122.688 39.7239 122.464 39.5 122.188 39.5V40.5ZM115.313 39.5C115.036 39.5 114.813 39.7239 114.813 40C114.813 40.2761 115.036 40.5 115.313 40.5V39.5ZM108.437 40.5C108.714 40.5 108.937 40.2761 108.937 40C108.937 39.7239 108.714 39.5 108.437 39.5V40.5ZM101.562 39.5C101.286 39.5 101.062 39.7239 101.062 40C101.062 40.2761 101.286 40.5 101.562 40.5V39.5ZM94.6875 40.5C94.9636 40.5 95.1875 40.2761 95.1875 40C95.1875 39.7239 94.9636 39.5 94.6875 39.5V40.5ZM87.8125 39.5C87.5364 39.5 87.3125 39.7239 87.3125 40C87.3125 40.2761 87.5364 40.5 87.8125 40.5V39.5ZM80.9375 40.5C81.2136 40.5 81.4375 40.2761 81.4375 40C81.4375 39.7239 81.2136 39.5 80.9375 39.5V40.5ZM74.0625 39.5C73.7864 39.5 73.5625 39.7239 73.5625 40C73.5625 40.2761 73.7864 40.5 74.0625 40.5V39.5ZM67.1875 40.5C67.4636 40.5 67.6875 40.2761 67.6875 40C67.6875 39.7239 67.4636 39.5 67.1875 39.5V40.5ZM60.3125 39.5C60.0364 39.5 59.8125 39.7239 59.8125 40C59.8125 40.2761 60.0364 40.5 60.3125 40.5V39.5ZM53.4375 40.5C53.7136 40.5 53.9375 40.2761 53.9375 40C53.9375 39.7239 53.7136 39.5 53.4375 39.5V40.5ZM45.9806 40.2969C45.7255 40.4027 45.6045 40.6953 45.7103 40.9503C45.816 41.2054 46.1086 41.3264 46.3636 41.2207L45.9806 40.2969ZM41.2207 46.3637C41.3264 46.1086 41.2054 45.816 40.9503 45.7103C40.6953 45.6045 40.4027 45.7255 40.2969 45.9806L41.2207 46.3637ZM39.5 50V53.6364H40.5V50H39.5ZM39.5 60.9091V68.1818H40.5V60.9091H39.5ZM39.5 75.4545V82.7273H40.5V75.4545H39.5ZM39.5 90V97.2727H40.5V90H39.5ZM39.5 104.545V111.818H40.5V104.545H39.5ZM39.5 119.091V126.364H40.5V119.091H39.5ZM39.5 133.636V140.909H40.5V133.636H39.5ZM39.5 148.182V155.455H40.5V148.182H39.5ZM39.5 162.727V170H40.5V162.727H39.5ZM39.5 177.273V184.545H40.5V177.273H39.5ZM39.5 191.818V199.091H40.5V191.818H39.5ZM39.5 206.364V210H40.5V206.364H39.5ZM39.5 210C39.5 211.423 39.7833 212.781 40.2969 214.019L41.2207 213.636C40.7565 212.517 40.5 211.289 40.5 210H39.5ZM45.9806 219.703C47.2193 220.217 48.5772 220.5 50 220.5V219.5C48.711 219.5 47.4831 219.244 46.3636 218.779L45.9806 219.703ZM50 220.5H53.4375V219.5H50V220.5ZM60.3125 220.5H67.1875V219.5H60.3125V220.5ZM74.0625 220.5H80.9375V219.5H74.0625V220.5ZM87.8125 220.5H94.6875V219.5H87.8125V220.5ZM101.562 220.5H108.438V219.5H101.562V220.5ZM115.312 220.5H122.188V219.5H115.312V220.5ZM129.062 220.5H135.937V219.5H129.062V220.5ZM142.812 220.5H149.688V219.5H142.812V220.5ZM156.562 220.5H163.438V219.5H156.562V220.5ZM170.312 220.5H177.188V219.5H170.312V220.5ZM184.062 220.5H190.938V219.5H184.062V220.5ZM197.812 220.5H204.688V219.5H197.812V220.5ZM211.562 220.5H218.438V219.5H211.562V220.5ZM225.312 220.5H232.188V219.5H225.312V220.5ZM239.062 220.5H245.938V219.5H239.062V220.5ZM252.812 220.5H259.688V219.5H252.812V220.5ZM266.562 220.5H273.438V219.5H266.562V220.5ZM280.312 220.5H287.188V219.5H280.312V220.5ZM294.062 220.5H300.938V219.5H294.062V220.5ZM307.812 220.5H314.688V219.5H307.812V220.5ZM321.562 220.5H328.438V219.5H321.562V220.5ZM335.312 220.5H342.188V219.5H335.312V220.5ZM349.062 220.5H355.938V219.5H349.062V220.5ZM362.812 220.5H369.688V219.5H362.812V220.5ZM376.562 220.5H380V219.5H376.562V220.5ZM380 220.5C381.423 220.5 382.781 220.217 384.019 219.703L383.636 218.779C382.517 219.244 381.289 219.5 380 219.5V220.5ZM389.703 214.019C390.217 212.781 390.5 211.423 390.5 210H389.5C389.5 211.289 389.244 212.517 388.779 213.636L389.703 214.019ZM390.5 210V207.472H389.5V210H390.5ZM390.5 202.416V199.888H389.5V202.416H390.5ZM390.028 199.388C388.928 199.326 387.836 199.239 386.75 199.126L386.647 200.121C387.748 200.235 388.857 200.324 389.972 200.387L390.028 199.388ZM380.251 198.14C378.088 197.706 375.961 197.172 373.875 196.542L373.586 197.499C375.702 198.138 377.86 198.68 380.054 199.121L380.251 198.14ZM367.681 194.344C365.645 193.51 363.658 192.583 361.724 191.567L361.259 192.452C363.221 193.483 365.237 194.424 367.302 195.269L367.681 194.344ZM356.056 188.238C354.218 187.038 352.44 185.753 350.728 184.389L350.105 185.171C351.841 186.554 353.645 187.858 355.509 189.075L356.056 188.238ZM345.785 180.055C344.206 178.535 342.7 176.94 341.27 175.277L340.512 175.929C341.962 177.616 343.49 179.233 345.091 180.776L345.785 180.055ZM337.225 170.096C335.962 168.31 334.78 166.462 333.686 164.557L332.819 165.055C333.929 166.987 335.127 168.862 336.409 170.673L337.225 170.096ZM330.687 158.708C329.785 156.721 328.973 154.683 328.257 152.601L327.312 152.926C328.038 155.038 328.861 157.105 329.777 159.121L330.687 158.708ZM326.42 146.291C325.911 144.174 325.5 142.02 325.19 139.834L324.2 139.974C324.514 142.192 324.932 144.377 325.447 146.524L326.42 146.291ZM324.576 133.288C324.526 132.198 324.5 131.102 324.5 130H323.5C323.5 131.118 323.526 132.229 323.577 133.334L324.576 133.288ZM324.5 130C324.5 128.898 324.526 127.802 324.576 126.712L323.577 126.666C323.526 127.771 323.5 128.882 323.5 130H324.5ZM325.19 120.166C325.5 117.98 325.911 115.826 326.42 113.709L325.447 113.476C324.932 115.623 324.514 117.808 324.2 120.026L325.19 120.166ZM328.257 107.399C328.973 105.317 329.785 103.279 330.687 101.292L329.777 100.879C328.861 102.895 328.038 104.962 327.312 107.074L328.257 107.399ZM333.686 95.4433C334.78 93.5384 335.962 91.6902 337.225 89.9042L336.409 89.3266C335.127 91.1382 333.929 93.013 332.819 94.9454L333.686 95.4433ZM341.27 84.723C342.7 83.0599 344.206 81.4653 345.785 79.9446L345.091 79.2245C343.49 80.7669 341.962 82.3844 340.512 84.0712L341.27 84.723ZM350.728 75.6113C352.44 74.2472 354.218 72.9624 356.056 71.7622L355.509 70.9248C353.645 72.1423 351.841 73.4456 350.105 74.8292L350.728 75.6113ZM361.724 68.4332C363.658 67.4172 365.645 66.4898 367.681 65.6562L367.302 64.7307C365.237 65.5764 363.221 66.5173 361.259 67.5479L361.724 68.4332ZM373.875 63.4581C375.961 62.8283 378.088 62.2938 380.251 61.8597L380.054 60.8792C377.86 61.3196 375.702 61.8618 373.586 62.5008L373.875 63.4581ZM386.75 60.8735C387.836 60.761 388.928 60.6735 390.028 60.6116L389.972 59.6132C388.857 59.676 387.748 59.7648 386.647 59.8789L386.75 60.8735ZM390.5 60.1124V57.5843H389.5V60.1124H390.5ZM390.5 52.5281V50H389.5V52.5281H390.5ZM390.5 50C390.5 48.5772 390.217 47.2193 389.703 45.9806L388.779 46.3636C389.244 47.4831 389.5 48.711 389.5 50H390.5ZM384.019 40.2969C382.781 39.7833 381.423 39.5 380 39.5V40.5C381.289 40.5 382.517 40.7565 383.636 41.2207L384.019 40.2969ZM380 39.5H376.562V40.5H380V39.5ZM369.688 39.5H362.812V40.5H369.688V39.5ZM355.938 39.5H349.062V40.5H355.938V39.5ZM342.188 39.5H335.312V40.5H342.188V39.5ZM328.438 39.5H321.562V40.5H328.438V39.5ZM314.688 39.5H307.812V40.5H314.688V39.5ZM300.938 39.5H294.062V40.5H300.938V39.5ZM287.188 39.5H280.312V40.5H287.188V39.5ZM273.438 39.5H266.562V40.5H273.438V39.5ZM259.688 39.5H252.812V40.5H259.688V39.5ZM245.938 39.5H239.062V40.5H245.938V39.5ZM232.188 39.5H225.312V40.5H232.188V39.5ZM218.438 39.5H211.562V40.5H218.438V39.5ZM204.688 39.5H197.812V40.5H204.688V39.5ZM190.938 39.5H184.062V40.5H190.938V39.5ZM177.188 39.5H170.312V40.5H177.188V39.5ZM163.438 39.5H156.563V40.5H163.438V39.5ZM149.687 39.5H142.812V40.5H149.687V39.5ZM135.938 39.5H129.062V40.5H135.938V39.5ZM122.188 39.5H115.313V40.5H122.188V39.5ZM108.437 39.5H101.562V40.5H108.437V39.5ZM94.6875 39.5H87.8125V40.5H94.6875V39.5ZM80.9375 39.5H74.0625V40.5H80.9375V39.5ZM67.1875 39.5H60.3125V40.5H67.1875V39.5ZM53.4375 39.5H50V40.5H53.4375V39.5ZM50 39.5C48.5772 39.5 47.2193 39.7833 45.9806 40.2969L46.3636 41.2207C47.4831 40.7565 48.711 40.5 50 40.5V39.5ZM40.2969 45.9806C39.7833 47.2193 39.5 48.5772 39.5 50H40.5C40.5 48.711 40.7565 47.4831 41.2207 46.3637L40.2969 45.9806Z" fill="#E5E5E5"/>
</g>
<defs>
<filter id="filter0_d" x="0" y="0" width="430" height="260" filterUnits="userSpaceOnUse" color-interpolation-filters="sRGB">
<feFlood flood-opacity="0" result="BackgroundImageFix"/>
<feColorMatrix in="SourceAlpha" type="matrix" values="0 0 0 0 0 0 0 0 0 0 0 0 0 0 0 0 0 0 127 0"/>
<feOffset/>
<feGaussianBlur stdDeviation="15"/>
<feColorMatrix type="matrix" values="0 0 0 0 0 0 0 0 0 0 0 0 0 0 0 0 0 0 0.1 0"/>
<feBlend mode="normal" in2="BackgroundImageFix" result="effect1_dropShadow"/>
<feBlend mode="normal" in="SourceGraphic" in2="effect1_dropShadow" result="shape"/>
</filter>
<filter id="filter1_d" x="9.5" y="9.5" width="411" height="241" filterUnits="userSpaceOnUse" color-interpolation-filters="sRGB">
<feFlood flood-opacity="0" result="BackgroundImageFix"/>
<feColorMatrix in="SourceAlpha" type="matrix" values="0 0 0 0 0 0 0 0 0 0 0 0 0 0 0 0 0 0 127 0"/>
<feOffset/>
<feGaussianBlur stdDeviation="15"/>
<feColorMatrix type="matrix" values="0 0 0 0 0 0 0 0 0 0 0 0 0 0 0 0 0 0 0.1 0"/>
<feBlend mode="normal" in2="BackgroundImageFix" result="effect1_dropShadow"/>
<feBlend mode="normal" in="SourceGraphic" in2="effect1_dropShadow" result="shape"/>
</filter>
<linearGradient id="paint0_linear" x1="397.636" y1="180" x2="397.636" y2="80" gradientUnits="userSpaceOnUse">
<stop stop-color="#FCCB05"/>
<stop offset="1" stop-color="#FFE57D"/>
</linearGradient>
<linearGradient id="paint1_linear" x1="398.636" y1="180" x2="398.636" y2="80" gradientUnits="userSpaceOnUse">
<stop stop-color="#FCCB05"/>
<stop offset="1" stop-color="#FFE57D"/>
</linearGradient>
</defs>
</svg>
