<svg width="100" height="100" viewBox="0 0 100 100" fill="none" xmlns="http://www.w3.org/2000/svg">
<path fill-rule="evenodd" clip-rule="evenodd" d="M91.8667 38.7883C92.6762 40.3723 93.8438 41.7458 95.2767 42.8C97.6 44.8933 100 47.0667 100 50C100 52.9333 97.6 55.1067 95.2767 57.2083C93.8442 58.2623 92.6767 59.6352 91.8667 61.2183C91.7544 63.0685 92.0817 64.919 92.8217 66.6183L92.822 66.6194C93.7552 69.5424 94.7198 72.5636 93.305 75.0083C91.8704 77.4893 88.7418 78.1646 85.716 78.8178L85.7133 78.8183C83.9031 79.0194 82.1656 79.644 80.6417 80.6417C79.6429 82.1665 79.0177 83.905 78.8167 85.7167C78.1633 88.7417 77.4833 91.87 75.0083 93.305C72.5611 94.7201 69.5467 93.7571 66.6281 92.8248L66.6183 92.8217C64.919 92.0831 63.0696 91.756 61.22 91.8667C59.636 92.6762 58.2625 93.8438 57.2083 95.2767C55.1067 97.6 52.9333 100 50 100C47.0667 100 44.8933 97.6 42.7917 95.2767C41.7377 93.8442 40.3648 92.6767 38.7817 91.8667C36.9317 91.7556 35.0815 92.0827 33.3817 92.8217L33.3763 92.8234C30.4529 93.7562 27.4352 94.7191 24.9917 93.305C22.5107 91.8704 21.8354 88.7418 21.1822 85.716L21.1817 85.7133C20.9806 83.9031 20.356 82.1656 19.3583 80.6417C17.8335 79.6429 16.095 79.0177 14.2833 78.8167C11.2583 78.1633 8.13 77.4833 6.695 75.0083C5.28052 72.5626 6.2443 69.5439 7.17731 66.6215L7.17833 66.6183C7.91792 64.9194 8.24521 63.0696 8.13333 61.22C7.32375 59.636 6.15625 58.2625 4.72333 57.2083C2.4 55.1067 0 52.9333 0 50C0 47.0667 2.4 44.8933 4.72333 42.7917C6.15583 41.7377 7.32333 40.3648 8.13333 38.7817C8.24562 36.9315 7.91833 35.081 7.17833 33.3817L7.17799 33.3806C6.24476 30.4576 5.28018 27.4364 6.695 24.9917C8.12958 22.5107 11.2582 21.8354 14.284 21.1822L14.2867 21.1817C16.0969 20.9806 17.8344 20.356 19.3583 19.3583C20.36 17.8344 20.9881 16.0956 21.1917 14.2833C21.845 11.2583 22.525 8.13 25 6.695C27.4436 5.28105 30.4584 6.24296 33.3732 7.17298L33.39 7.17833C35.0894 7.91687 36.9388 8.24396 38.7883 8.13333C40.3723 7.32375 41.7458 6.15625 42.8 4.72333C44.8933 2.4 47.0667 0 50 0C52.9333 0 55.1067 2.4 57.2083 4.72333C58.2623 6.15583 59.6352 7.32333 61.2183 8.13333C63.0683 8.24438 64.9185 7.91729 66.6183 7.17833L66.6237 7.17661C69.5471 6.24381 72.5648 5.28087 75.0083 6.695C77.4893 8.12958 78.1646 11.2582 78.8178 14.284L78.8183 14.2867C79.0194 16.0969 79.644 17.8344 80.6417 19.3583C82.1656 20.36 83.9044 20.9881 85.7167 21.1917C88.7417 21.845 91.87 22.525 93.305 25C94.7195 27.4458 93.7557 30.4644 92.8227 33.3867L92.8227 33.3868L92.8217 33.39C92.0821 35.089 91.7548 36.9388 91.8667 38.7883ZM88.6467 60.3583C89.566 58.1165 91.0863 56.1717 93.04 54.7383L93.0437 54.735C94.8259 53.121 96.6667 51.454 96.6667 50C96.6667 48.546 94.8259 46.8789 93.0437 45.265L93.04 45.2617C91.0856 43.8283 89.5652 41.8829 88.6467 39.64C88.3042 37.1702 88.6502 34.654 89.6467 32.3683C90.36 30.1367 91.095 27.8283 90.42 26.66C89.7256 25.4594 87.3327 24.9426 85.0197 24.443L85.0133 24.4417C82.5621 24.1704 80.2335 23.2267 78.285 21.715C76.6617 20.095 76.1017 17.5 75.56 14.99L75.5592 14.9861C75.0594 12.6706 74.5426 10.2763 73.3383 9.57833C72.1717 8.91167 69.8667 9.64 67.6317 10.3533C65.3452 11.349 62.8285 11.695 60.3583 11.3533C58.1165 10.434 56.1717 8.91375 54.7383 6.96L54.735 6.9563C53.121 5.17412 51.454 3.33333 50 3.33333C48.546 3.33333 46.879 5.17414 45.265 6.95633L45.2617 6.96C43.8283 8.91438 41.8829 10.4348 39.64 11.3533C37.3933 11.9567 34.8367 11.1433 32.3683 10.3533L32.3446 10.3457C30.1204 9.63477 27.8292 8.90241 26.6667 9.58C25.4661 10.2744 24.9493 12.6673 24.4497 14.9803L24.4483 14.9867C24.1771 17.4379 23.2333 19.7665 21.7217 21.715C20.1017 23.3383 17.5067 23.8983 14.9967 24.44L14.9967 24.44L14.9927 24.4409C12.6773 24.9406 10.2829 25.4573 9.585 26.6617C8.91833 27.8283 9.64667 30.1367 10.36 32.3683C11.3567 34.6544 11.7027 37.1715 11.36 39.6417C10.4406 41.8835 8.92042 43.8283 6.96667 45.2617C5.17667 46.8767 3.33333 48.545 3.33333 50C3.33333 51.454 5.17412 53.121 6.9563 54.735L6.96 54.7383C8.91438 56.1717 10.4348 58.1171 11.3533 60.36C11.6958 62.8298 11.3498 65.346 10.3533 67.6317C9.64 69.8633 8.905 72.1667 9.58 73.3333C10.2744 74.5339 12.6673 75.0507 14.9803 75.5503L14.9867 75.5517C17.4379 75.8229 19.7665 76.7667 21.715 78.2783C23.3383 79.8983 23.8983 82.4933 24.44 85.0033L24.44 85.0033L24.4409 85.0073C24.9406 87.3227 25.4573 89.7171 26.6617 90.415C27.8283 91.0817 30.1317 90.3533 32.3683 89.64C34.1592 88.9633 36.041 88.5577 37.9517 88.4367C38.5217 88.4331 39.0898 88.5037 39.6417 88.6467C41.8835 89.566 43.8283 91.0863 45.2617 93.04L45.265 93.0437C46.8789 94.8259 48.546 96.6667 50 96.6667C51.454 96.6667 53.121 94.8259 54.735 93.0437L54.7383 93.04C56.1717 91.0856 58.1171 89.5652 60.36 88.6467C62.8298 88.306 65.3456 88.6519 67.6317 89.6467L67.635 89.6477L67.6352 89.6478C69.8641 90.3591 72.1689 91.0946 73.34 90.42C74.5406 89.7256 75.0574 87.3328 75.5569 85.0198L75.5583 85.0133C75.8296 82.5621 76.7733 80.2335 78.285 78.285C79.905 76.6617 82.5 76.1017 85.01 75.56L85.0139 75.5592C87.3294 75.0594 89.7237 74.5426 90.4217 73.3383C91.0883 72.1717 90.36 69.8633 89.6467 67.6317C88.65 65.3456 88.304 62.8285 88.6467 60.3583ZM51.6667 18.3333C51.6667 19.2537 50.9204 20 50 20C49.0796 20 48.3333 19.2537 48.3333 18.3333V15C48.3333 14.0796 49.0796 13.3333 50 13.3333C50.9204 13.3333 51.6667 14.0796 51.6667 15V18.3333ZM40.1933 19.8433C40.3885 20.5712 41.0479 21.0776 41.8016 21.0783C41.9485 21.0791 42.0949 21.0601 42.2366 21.0216C43.1249 20.7833 43.6524 19.8703 43.4149 18.9816L42.5516 15.7616C42.5445 15.7324 42.5368 15.7035 42.5283 15.6747C42.2658 14.7924 41.3379 14.2899 40.4556 14.5524C39.5733 14.8149 39.0708 15.7428 39.3333 16.6251L40.1933 19.8433ZM33.9337 18.8409L33.9366 18.8459L33.9417 18.8549L35.6084 21.743C36.0686 22.5401 35.7955 23.5595 34.9984 24.0197C34.7455 24.1658 34.4588 24.2428 34.1667 24.243C33.5707 24.2437 33.0197 23.926 32.7217 23.4097L31.0551 20.5214C30.5897 19.7274 30.8559 18.7062 31.6501 18.2408C32.444 17.7753 33.4653 18.0416 33.9307 18.8358L33.9337 18.8409ZM26.4301 28.7867C26.7426 29.0992 27.1663 29.2751 27.6084 29.2751C28.0503 29.2751 28.4738 29.0994 28.7863 28.7872C29.4374 28.1363 29.4374 27.0811 28.7867 26.4301L26.4284 24.0717C26.4151 24.0578 26.4013 24.0442 26.3874 24.0307C25.7253 23.3913 24.6701 23.4097 24.0307 24.0717C23.3913 24.7338 23.4097 25.789 24.0717 26.4284L26.4301 28.7867ZM24.0717 73.5716L26.4301 71.2133C27.0922 70.5737 28.1474 70.592 28.7867 71.2541C29.4105 71.9001 29.4105 72.9241 28.7867 73.5699L26.4284 75.9283C26.1159 76.2408 25.6922 76.4166 25.2501 76.4166C24.3297 76.4164 23.5836 75.6699 23.5838 74.7495C23.5838 74.3078 23.7595 73.8841 24.0717 73.5716ZM35.0056 75.9949C34.2114 75.5295 33.1904 75.7958 32.7249 76.59L31.0583 79.4783C30.9122 79.7312 30.8354 80.0179 30.835 80.3099C30.8339 81.2304 31.5793 81.9774 32.5 81.9783C33.096 81.9789 33.647 81.6612 33.9449 81.1449L35.6116 78.2566C36.0624 77.4639 35.7922 76.4562 35.0056 75.9949ZM40.1933 80.1567C40.4354 79.2688 41.3516 78.745 42.2398 78.9873C43.1218 79.2279 43.6454 80.134 43.4133 81.0183L42.55 84.2383C42.3548 84.9663 41.6954 85.4727 40.9416 85.4733C40.0212 85.4735 39.275 84.7273 39.2748 83.8069C39.2748 83.661 39.2939 83.5158 39.3316 83.375L40.1933 80.1567ZM50 80C49.0796 80 48.3333 80.7462 48.3333 81.6667V85C48.3333 85.9204 49.0796 86.6667 50 86.6667C50.9204 86.6667 51.6667 85.9204 51.6667 85V81.6667C51.6667 80.7462 50.9204 80 50 80ZM57.7757 78.9831C58.6601 78.7511 59.5661 79.2746 59.8067 80.1567L60.6684 83.375C60.9067 84.2642 60.3794 85.1781 59.4903 85.4165C59.3494 85.4542 59.2042 85.4734 59.0584 85.4734C58.3046 85.4727 57.6453 84.9663 57.4501 84.2384L56.5867 81.0184C56.353 80.1279 56.8855 79.2169 57.7757 78.9831ZM67.2751 76.59L67.2638 76.5706C66.7982 75.7766 65.7772 75.5104 64.983 75.976C64.1888 76.4416 63.9228 77.4627 64.3884 78.2568L66.0551 81.1452C66.353 81.6614 66.904 81.9791 67.5001 81.9785C67.792 81.9783 68.0788 81.9012 68.3317 81.7552C69.1288 81.295 69.402 80.2756 68.9417 79.4785L67.2751 76.59ZM71.2541 71.2134C71.8999 70.5895 72.9241 70.5895 73.5699 71.2134L75.9283 73.5718C76.5789 74.2228 76.5789 75.278 75.9278 75.9288C75.6156 76.2411 75.1918 76.4168 74.7499 76.4168C74.3078 76.4168 73.8841 76.2409 73.5716 75.9284L71.2133 73.5701C70.5737 72.908 70.592 71.853 71.2541 71.2134ZM72.3917 29.2751C72.8338 29.2751 73.2575 29.0993 73.57 28.7868L75.9284 26.4284C75.9423 26.4151 75.9559 26.4013 75.9692 26.3876C76.6088 25.7255 76.5905 24.6705 75.9284 24.0309C75.2663 23.3916 74.2111 23.4097 73.5717 24.0718L71.2134 26.4301C70.9011 26.7426 70.7255 27.1663 70.7255 27.608C70.7253 28.5286 71.4713 29.2749 72.3917 29.2751ZM67.2783 23.41C66.9804 23.9263 66.4293 24.244 65.8333 24.2434C64.9129 24.2423 64.1674 23.4955 64.1683 22.5752C64.1687 22.2832 64.2456 21.9965 64.3916 21.7436L66.0583 18.8552C66.5131 18.055 67.5306 17.775 68.3308 18.2298C69.1312 18.6846 69.411 19.7021 68.9562 20.5023L68.945 20.5217L67.2783 23.41ZM57.765 21.0218C57.9063 21.0601 58.0521 21.0793 58.1984 21.0784C58.9521 21.0778 59.6115 20.5713 59.8067 19.8434L60.6684 16.6251C60.6769 16.5963 60.6846 16.5674 60.6917 16.5382C60.9061 15.643 60.3542 14.7436 59.459 14.5293C58.5638 14.3149 57.6644 14.8668 57.45 15.762L56.5867 18.982C56.3492 19.8705 56.8767 20.7834 57.765 21.0218ZM43.3333 60H55C55.9204 60 56.6667 60.7463 56.6667 61.6667C56.6667 62.5871 55.9204 63.3333 55 63.3333H41.6667C40.7463 63.3333 40 62.5871 40 61.6667V38.3333C40 37.4129 40.7463 36.6667 41.6667 36.6667H55C55.9204 36.6667 56.6667 37.4129 56.6667 38.3333C56.6667 39.2537 55.9204 40 55 40H43.3333V48.3333H51.6667C52.5871 48.3333 53.3333 49.0796 53.3333 50C53.3333 50.9204 52.5871 51.6667 51.6667 51.6667H43.3333V60ZM32.0649 62.7067C32.1805 62.8458 32.3185 62.9646 32.4732 63.0583C32.5266 63.0977 32.5822 63.1338 32.6399 63.1667C32.856 63.2727 33.0926 63.3296 33.3332 63.3333C33.532 63.3294 33.7285 63.2898 33.9132 63.2167C33.976 63.1894 34.0372 63.159 34.0966 63.125C34.1666 63.0952 34.2345 63.0606 34.2999 63.0217C34.3208 63.0075 34.3357 62.9884 34.3508 62.9691C34.3623 62.9544 34.3739 62.9396 34.3882 62.9267C34.4768 62.8512 34.5568 62.7665 34.6266 62.6733C34.7612 62.5163 34.8564 62.3294 34.9049 62.1283C34.938 62.0198 34.9605 61.9081 34.9716 61.795C34.9716 61.7717 34.9782 61.75 34.9849 61.7283C34.9916 61.7067 34.9982 61.685 34.9982 61.6617V38.3333C34.9982 37.4135 34.253 36.6675 33.3332 36.6667C32.4128 36.6667 31.6666 37.4129 31.6666 38.3333V56.4667L18.0216 37.365C18.0074 37.3442 17.9883 37.3292 17.969 37.3141C17.9543 37.3026 17.9395 37.291 17.9266 37.2767C17.8514 37.1881 17.7664 37.1081 17.6732 37.0383C17.5945 36.9752 17.5103 36.9196 17.4216 36.8717C17.3282 36.8269 17.2314 36.7906 17.1316 36.7633C17.0232 36.7288 16.9116 36.7065 16.7982 36.6967C16.7759 36.6967 16.7553 36.6901 16.7344 36.6835L16.7344 36.6835C16.7132 36.6768 16.6918 36.67 16.6682 36.67C16.612 36.6783 16.5564 36.69 16.5016 36.705C16.3885 36.7146 16.2766 36.7363 16.1682 36.77C16.0599 36.806 15.9555 36.8529 15.8566 36.91C15.8032 36.9313 15.751 36.955 15.6999 36.9817C15.6791 36.9959 15.6641 37.0149 15.649 37.0343C15.6375 37.0489 15.626 37.0637 15.6116 37.0767C15.523 37.1519 15.443 37.2369 15.3732 37.33C15.3101 37.4081 15.2543 37.4917 15.2066 37.58C15.1603 37.6744 15.1234 37.7733 15.0966 37.875C15.0632 37.9835 15.0409 38.0952 15.0299 38.2083C15.0299 38.2317 15.0232 38.2533 15.0166 38.275C15.0099 38.2967 15.0032 38.3183 15.0032 38.3417V61.6667C15.0032 62.5871 15.7495 63.3333 16.6699 63.3333C17.5903 63.3333 18.3366 62.5871 18.3366 61.6667V43.5333L31.9816 62.635C31.9935 62.6525 32.01 62.6638 32.0266 62.6753L32.0267 62.6753C32.0402 62.6846 32.0537 62.694 32.0649 62.7067ZM83.6834 36.7033L83.6882 36.7043C84.5878 36.8995 85.1586 37.787 84.9634 38.6866L79.9634 62.0199C79.8055 62.7539 79.1763 63.2916 78.4267 63.3333H78.3334C77.6163 63.3326 76.9801 62.8737 76.7534 62.1933L71.6667 46.9366L66.5734 62.1933C66.3326 62.9008 65.6532 63.3639 64.9067 63.3299C64.1572 63.2883 63.528 62.7505 63.3701 62.0166L58.3701 38.6833C58.1767 37.7831 58.7499 36.8966 59.6501 36.7033C60.5503 36.5099 61.4367 37.0831 61.6301 37.9833L65.3501 55.3466L70.0801 41.1399C70.2455 40.6368 70.6399 40.2424 71.143 40.077C72.0174 39.7895 72.9592 40.2656 73.2467 41.1399L77.9834 55.3466L81.7034 37.9833L81.7036 37.9822C81.8972 37.0824 82.7834 36.5097 83.6834 36.7033Z" fill="white" style="mix-blend-mode:overlay"/>
</svg>
