<svg width="446" height="260" viewBox="0 0 446 260" fill="none" xmlns="http://www.w3.org/2000/svg">
<path d="M100 130C100 157.614 77.6142 180 50 180C22.3858 180 0 157.614 0 130C0 102.386 22.3858 80 50 80C77.6142 80 100 102.386 100 130Z" fill="url(#paint0_linear)"/>
<mask id="mask0" mask-type="alpha" maskUnits="userSpaceOnUse" x="0" y="80" width="100" height="100">
<circle cx="50" cy="130" r="50" fill="url(#paint1_linear)"/>
</mask>
<g mask="url(#mask0)">
<path fill-rule="evenodd" clip-rule="evenodd" d="M81.7668 126.702C79.8031 125.676 77.7422 124.844 75.6415 124.228C75.0981 124.069 74.5284 124.38 74.3691 124.924C74.2098 125.467 74.5212 126.037 75.0647 126.197C77.037 126.775 78.9725 127.556 80.8177 128.52C81.0218 128.626 81.2124 128.75 81.3913 128.887C80.2717 128.898 79.1708 128.945 78.3171 129.11C76.4088 129.48 76.0082 130.45 76.0082 131.199C76.0082 133.307 78.846 135.155 82.0812 135.155C82.3739 135.155 82.6631 135.143 82.9492 135.124V136.085H77.6428C76.4056 134.287 74.3342 133.104 71.9911 133.104C69.6481 133.104 67.5766 134.287 66.3396 136.085H36.9003C35.6632 134.287 33.5918 133.104 31.2487 133.104C28.9056 133.104 26.8342 134.287 25.5972 136.085H17.0509V133.642H18.4318C18.9981 133.642 19.4572 133.183 19.4572 132.616V131.843H21.8103C23.2012 131.843 24.3328 130.711 24.3328 129.32V128.437C24.3328 127.916 24.1747 127.416 23.8759 126.989L21.7882 124.011H24.2683C24.6187 124.011 24.945 123.832 25.1333 123.536C26.4127 121.527 28.3296 119.686 30.8306 118.065C32.3951 117.051 34.0865 116.289 35.8594 115.783C35.5472 115.962 35.2396 116.148 34.9383 116.344C32.9804 117.613 31.3268 119.03 30.0236 120.554C29.4823 121.187 29.354 122.053 29.6887 122.813C30.0211 123.567 30.7402 124.054 31.5657 124.081C31.5657 124.081 64.5513 125.196 64.5612 125.196C64.5671 125.196 64.5729 125.196 64.5788 125.196L64.5908 125.195C64.6189 125.194 64.6468 125.193 64.6741 125.19L64.6775 125.19C66.5992 124.98 68.5818 125.001 70.5705 125.252C71.133 125.324 71.6454 124.926 71.7165 124.364C71.7876 123.802 71.3897 123.289 70.8278 123.218C68.842 122.966 66.859 122.928 64.9262 123.104C63.3084 121.594 61.7261 120.138 60.2176 118.77C56.6031 115.495 51.9333 113.548 47.0689 113.287L42.2958 113.031C37.7818 112.791 33.4311 113.936 29.7151 116.344C27.1593 118 25.1442 119.888 23.7176 121.96C22.3551 121.966 21.4886 121.962 20.9162 121.959H20.9161H20.9161H20.9161C20.0558 121.956 19.86 121.955 19.6436 121.994C18.3786 122.191 17.4062 123.284 17.4062 124.604V130.805L17.406 130.811L17.4057 130.817L17.406 130.823L17.4062 130.829V131.591H16.4383C15.6452 131.591 15 132.236 15 133.028V139.303C15 139.986 15.4863 140.579 16.1532 140.711L24.8712 142.473C25.8755 145.014 28.3546 146.818 31.2486 146.818C33.9666 146.818 36.3203 145.228 37.4285 142.929H41.2104C41.7767 142.929 42.2358 142.47 42.2358 141.903C42.2358 141.337 41.7767 140.878 41.2104 140.878H38.0415C38.0819 140.578 38.1046 140.272 38.1046 139.961C38.1046 139.329 38.0169 138.718 37.8561 138.136H65.3835C65.2228 138.718 65.1351 139.329 65.1351 139.961C65.1351 140.272 65.158 140.578 65.1982 140.878H45.9955C45.4292 140.878 44.9701 141.337 44.9701 141.903C44.9701 142.47 45.4292 142.929 45.9955 142.929H65.8112C66.9194 145.228 69.273 146.818 71.991 146.818C74.7091 146.818 77.0627 145.228 78.1709 142.929H81.2949C83.3379 142.929 85 141.267 85 139.224V132.03C84.9999 129.784 83.7609 127.743 81.7668 126.702ZM31.5656 121.986C31.5425 121.934 31.568 121.903 31.5819 121.887L31.5823 121.886C34.4621 118.518 38.9608 115.781 44.1363 115.184L46.2751 115.298C46.616 116.561 47.0767 119.601 46.2694 122.526L31.6351 122.031L31.6349 122.031C31.6114 122.031 31.5848 122.03 31.5656 121.986ZM61.8577 123.053L48.364 122.597C48.9821 119.954 48.7808 117.227 48.4191 115.471C52.282 115.978 55.938 117.659 58.8406 120.29C59.8183 121.176 60.8277 122.101 61.8577 123.053ZM22.282 128.437V129.32C22.282 129.58 22.0705 129.791 21.8103 129.791H19.4572V124.604C19.4572 124.511 19.4805 124.424 19.5187 124.346L22.1966 128.167C22.2524 128.246 22.282 128.34 22.282 128.437ZM17.0509 138.8V138.136H24.6412C24.4465 138.841 24.3668 139.554 24.401 140.285L17.0509 138.8ZM31.2487 144.766C28.5992 144.766 26.4436 142.61 26.4436 139.961C26.4436 137.311 28.5992 135.155 31.2487 135.155C33.8983 135.155 36.0539 137.311 36.0539 139.961C36.0539 142.61 33.8983 144.766 31.2487 144.766ZM82.0811 133.104C79.7634 133.104 78.2441 131.916 78.0747 131.306C78.4992 131.059 79.8449 130.935 82.0811 130.935C82.3235 130.935 82.5642 130.943 82.8021 130.959C82.8984 131.302 82.9491 131.662 82.9491 132.03V133.07C82.665 133.093 82.375 133.104 82.0811 133.104ZM71.991 144.766C69.3415 144.766 67.1859 142.61 67.1859 139.961C67.1859 137.311 69.3415 135.155 71.991 135.155C74.6406 135.155 76.7962 137.311 76.7962 139.961C76.7962 142.61 74.6406 144.766 71.991 144.766ZM81.2948 140.878H78.7838C78.8242 140.577 78.8469 140.272 78.8469 139.961C78.8469 139.329 78.7592 138.717 78.5984 138.136H82.9491V139.223C82.9491 140.135 82.207 140.878 81.2948 140.878ZM31.2485 136.608C29.3998 136.608 27.8958 138.112 27.8958 139.96C27.8958 141.809 29.3998 143.314 31.2485 143.314C33.0972 143.314 34.6012 141.809 34.6012 139.96C34.6012 138.112 33.0972 136.608 31.2485 136.608ZM31.2485 141.263C30.5306 141.263 29.9465 140.679 29.9465 139.961C29.9465 139.243 30.5306 138.659 31.2485 138.659C31.9664 138.659 32.5505 139.243 32.5505 139.961C32.5505 140.679 31.9664 141.263 31.2485 141.263ZM68.6382 139.96C68.6382 138.112 70.1423 136.608 71.991 136.608C73.8397 136.608 75.3437 138.112 75.3437 139.96C75.3437 141.809 73.8397 143.314 71.991 143.314C70.1423 143.314 68.6382 141.809 68.6382 139.96ZM70.689 139.961C70.689 140.679 71.2731 141.263 71.991 141.263C72.7089 141.263 73.2929 140.679 73.2929 139.961C73.2929 139.243 72.7089 138.659 71.991 138.659C71.2731 138.659 70.689 139.243 70.689 139.961ZM49.9998 126.174C49.4335 126.174 48.9744 126.633 48.9744 127.199C48.9744 127.765 49.4335 128.224 49.9998 128.224H50.7107C51.277 128.224 51.7361 127.765 51.7361 127.199C51.7361 126.633 51.277 126.174 50.7107 126.174H49.9998ZM33.6492 127.199C33.6492 126.633 34.1083 126.174 34.6746 126.174H35.3856C35.9518 126.174 36.4109 126.633 36.4109 127.199C36.4109 127.765 35.9518 128.224 35.3856 128.224H34.6746C34.1083 128.224 33.6492 127.765 33.6492 127.199Z" fill="white" style="mix-blend-mode:overlay"/>
</g>
<g filter="url(#filter0_d)">
<path fill-rule="evenodd" clip-rule="evenodd" d="M56 30C50.4772 30 46 34.4772 46 40V70.404C48.4275 70.1372 50.8968 70 53.4 70C88.4306 70 116.829 96.8629 116.829 130C116.829 163.137 88.4306 190 53.4 190C50.8968 190 48.4275 189.863 46 189.596V220C46 225.523 50.4771 230 56 230H406C411.523 230 416 225.523 416 220V40C416 34.4772 411.523 30 406 30H56Z" fill="white"/>
</g>
<g filter="url(#filter1_d)">
<path d="M56 60.028H55.5V60.5142L55.986 60.5278L56 60.028ZM56 199.972L55.986 199.472L55.5 199.486V199.972H56ZM55.5 52.507C55.5 52.7832 55.7239 53.007 56 53.007C56.2761 53.007 56.5 52.7832 56.5 52.507H55.5ZM56.5 57.521C56.5 57.2449 56.2761 57.021 56 57.021C55.7239 57.021 55.5 57.2449 55.5 57.521H56.5ZM59.3322 60.7015C59.6075 60.7224 59.8477 60.5161 59.8685 60.2407C59.8894 59.9654 59.6831 59.7252 59.4078 59.7043L59.3322 60.7015ZM66.1501 60.5432C65.878 60.4959 65.6191 60.6781 65.5719 60.9502C65.5246 61.2223 65.7069 61.4811 65.9789 61.5284L66.1501 60.5432ZM72.5138 62.9929C72.78 63.0663 73.0553 62.91 73.1287 62.6438C73.2021 62.3776 73.0458 62.1023 72.7796 62.0289L72.5138 62.9929ZM79.2337 64.1504C78.9758 64.0515 78.6867 64.1804 78.5878 64.4382C78.4889 64.6961 78.6178 64.9852 78.8757 65.0841L79.2337 64.1504ZM85.0049 67.782C85.252 67.9053 85.5523 67.805 85.6756 67.558C85.799 67.3109 85.6987 67.0107 85.4516 66.8873L85.0049 67.782ZM91.376 70.212C91.142 70.0654 90.8334 70.1363 90.6868 70.3703C90.5402 70.6043 90.6111 70.9129 90.8451 71.0595L91.376 70.212ZM96.3432 74.8838C96.562 75.0522 96.8759 75.0113 97.0443 74.7924C97.2127 74.5736 97.1718 74.2597 96.9529 74.0913L96.3432 74.8838ZM102.132 78.4872C101.931 78.2987 101.614 78.3093 101.426 78.5111C101.237 78.7128 101.248 79.0292 101.449 79.2178L102.132 78.4872ZM106.118 84.0205C106.3 84.2275 106.616 84.2471 106.823 84.0644C107.03 83.8816 107.05 83.5656 106.867 83.3586L106.118 84.0205ZM111.114 88.6608C110.952 88.4373 110.639 88.3874 110.416 88.5495C110.192 88.7116 110.143 89.0242 110.305 89.2478L111.114 88.6608ZM113.971 94.8525C114.11 95.0907 114.417 95.1703 114.655 95.0305C114.893 94.8906 114.973 94.5842 114.833 94.3461L113.971 94.8525ZM117.987 100.363C117.87 100.113 117.573 100.004 117.323 100.12C117.072 100.236 116.963 100.534 117.079 100.784L117.987 100.363ZM119.6 106.988C119.691 107.249 119.977 107.386 120.237 107.295C120.498 107.203 120.635 106.918 120.544 106.657L119.6 106.988ZM122.478 113.17C122.413 112.902 122.142 112.737 121.874 112.803C121.606 112.869 121.441 113.139 121.507 113.408L122.478 113.17ZM122.783 119.982C122.823 120.255 123.076 120.445 123.35 120.405C123.623 120.366 123.813 120.112 123.773 119.839L122.783 119.982ZM124.42 126.603C124.406 126.327 124.172 126.114 123.896 126.127C123.621 126.14 123.408 126.374 123.421 126.65L124.42 126.603ZM123.421 133.35C123.408 133.626 123.621 133.86 123.896 133.873C124.172 133.886 124.406 133.673 124.42 133.397L123.421 133.35ZM123.773 140.161C123.813 139.888 123.623 139.634 123.35 139.595C123.076 139.555 122.823 139.745 122.783 140.018L123.773 140.161ZM121.507 146.592C121.441 146.861 121.606 147.131 121.874 147.197C122.142 147.263 122.413 147.098 122.478 146.83L121.507 146.592ZM120.544 153.343C120.635 153.082 120.498 152.797 120.237 152.705C119.977 152.614 119.691 152.751 119.6 153.012L120.544 153.343ZM117.079 159.216C116.963 159.466 117.072 159.764 117.323 159.88C117.573 159.996 117.87 159.887 117.987 159.637L117.079 159.216ZM114.833 165.654C114.973 165.416 114.893 165.109 114.655 164.97C114.417 164.83 114.11 164.909 113.971 165.147L114.833 165.654ZM110.305 170.752C110.143 170.976 110.192 171.288 110.416 171.45C110.639 171.613 110.952 171.563 111.114 171.339L110.305 170.752ZM106.867 176.641C107.05 176.434 107.03 176.118 106.823 175.936C106.616 175.753 106.3 175.773 106.118 175.98L106.867 176.641ZM101.449 180.782C101.248 180.971 101.237 181.287 101.426 181.489C101.614 181.691 101.931 181.701 102.132 181.513L101.449 180.782ZM96.9529 185.909C97.1718 185.74 97.2127 185.426 97.0443 185.208C96.8759 184.989 96.562 184.948 96.3432 185.116L96.9529 185.909ZM90.8451 188.941C90.6111 189.087 90.5402 189.396 90.6868 189.63C90.8334 189.864 91.142 189.935 91.376 189.788L90.8451 188.941ZM85.4516 193.113C85.6987 192.989 85.799 192.689 85.6756 192.442C85.5523 192.195 85.252 192.095 85.0049 192.218L85.4516 193.113ZM78.8757 194.916C78.6178 195.015 78.4889 195.304 78.5878 195.562C78.6867 195.82 78.9758 195.949 79.2337 195.85L78.8757 194.916ZM72.7796 197.971C73.0458 197.898 73.2021 197.622 73.1287 197.356C73.0553 197.09 72.78 196.934 72.5138 197.007L72.7796 197.971ZM65.9789 198.472C65.7069 198.519 65.5246 198.778 65.5719 199.05C65.6191 199.322 65.878 199.504 66.1501 199.457L65.9789 198.472ZM59.4078 200.296C59.6831 200.275 59.8894 200.035 59.8685 199.759C59.8476 199.484 59.6075 199.278 59.3321 199.299L59.4078 200.296ZM55.5 202.479C55.5 202.755 55.7239 202.979 56 202.979C56.2761 202.979 56.5 202.755 56.5 202.479H55.5ZM56.5 207.493C56.5 207.217 56.2761 206.993 56 206.993C55.7239 206.993 55.5 207.217 55.5 207.493H56.5ZM56.2969 214.019C56.4027 214.274 56.6953 214.396 56.9503 214.29C57.2054 214.184 57.3264 213.891 57.2207 213.636L56.2969 214.019ZM62.3636 218.779C62.1086 218.674 61.816 218.795 61.7103 219.05C61.6045 219.305 61.7255 219.597 61.9806 219.703L62.3636 218.779ZM69.4375 220.5C69.7136 220.5 69.9375 220.276 69.9375 220C69.9375 219.724 69.7136 219.5 69.4375 219.5V220.5ZM76.3125 219.5C76.0364 219.5 75.8125 219.724 75.8125 220C75.8125 220.276 76.0364 220.5 76.3125 220.5V219.5ZM83.1875 220.5C83.4636 220.5 83.6875 220.276 83.6875 220C83.6875 219.724 83.4636 219.5 83.1875 219.5V220.5ZM90.0625 219.5C89.7864 219.5 89.5625 219.724 89.5625 220C89.5625 220.276 89.7864 220.5 90.0625 220.5V219.5ZM96.9375 220.5C97.2136 220.5 97.4375 220.276 97.4375 220C97.4375 219.724 97.2136 219.5 96.9375 219.5V220.5ZM103.812 219.5C103.536 219.5 103.312 219.724 103.312 220C103.312 220.276 103.536 220.5 103.812 220.5V219.5ZM110.688 220.5C110.964 220.5 111.188 220.276 111.188 220C111.188 219.724 110.964 219.5 110.688 219.5V220.5ZM117.562 219.5C117.286 219.5 117.062 219.724 117.062 220C117.062 220.276 117.286 220.5 117.562 220.5V219.5ZM124.438 220.5C124.714 220.5 124.938 220.276 124.938 220C124.938 219.724 124.714 219.5 124.438 219.5V220.5ZM131.312 219.5C131.036 219.5 130.812 219.724 130.812 220C130.812 220.276 131.036 220.5 131.312 220.5V219.5ZM138.188 220.5C138.464 220.5 138.688 220.276 138.688 220C138.688 219.724 138.464 219.5 138.188 219.5V220.5ZM145.062 219.5C144.786 219.5 144.562 219.724 144.562 220C144.562 220.276 144.786 220.5 145.062 220.5V219.5ZM151.937 220.5C152.214 220.5 152.437 220.276 152.437 220C152.437 219.724 152.214 219.5 151.937 219.5V220.5ZM158.812 219.5C158.536 219.5 158.312 219.724 158.312 220C158.312 220.276 158.536 220.5 158.812 220.5V219.5ZM165.688 220.5C165.964 220.5 166.188 220.276 166.188 220C166.188 219.724 165.964 219.5 165.688 219.5V220.5ZM172.562 219.5C172.286 219.5 172.062 219.724 172.062 220C172.062 220.276 172.286 220.5 172.562 220.5V219.5ZM179.438 220.5C179.714 220.5 179.938 220.276 179.938 220C179.938 219.724 179.714 219.5 179.438 219.5V220.5ZM186.312 219.5C186.036 219.5 185.812 219.724 185.812 220C185.812 220.276 186.036 220.5 186.312 220.5V219.5ZM193.188 220.5C193.464 220.5 193.688 220.276 193.688 220C193.688 219.724 193.464 219.5 193.188 219.5V220.5ZM200.062 219.5C199.786 219.5 199.562 219.724 199.562 220C199.562 220.276 199.786 220.5 200.062 220.5V219.5ZM206.938 220.5C207.214 220.5 207.438 220.276 207.438 220C207.438 219.724 207.214 219.5 206.938 219.5V220.5ZM213.812 219.5C213.536 219.5 213.312 219.724 213.312 220C213.312 220.276 213.536 220.5 213.812 220.5V219.5ZM220.688 220.5C220.964 220.5 221.188 220.276 221.188 220C221.188 219.724 220.964 219.5 220.688 219.5V220.5ZM227.562 219.5C227.286 219.5 227.062 219.724 227.062 220C227.062 220.276 227.286 220.5 227.562 220.5V219.5ZM234.438 220.5C234.714 220.5 234.938 220.276 234.938 220C234.938 219.724 234.714 219.5 234.438 219.5V220.5ZM241.312 219.5C241.036 219.5 240.812 219.724 240.812 220C240.812 220.276 241.036 220.5 241.312 220.5V219.5ZM248.188 220.5C248.464 220.5 248.688 220.276 248.688 220C248.688 219.724 248.464 219.5 248.188 219.5V220.5ZM255.062 219.5C254.786 219.5 254.562 219.724 254.562 220C254.562 220.276 254.786 220.5 255.062 220.5V219.5ZM261.938 220.5C262.214 220.5 262.438 220.276 262.438 220C262.438 219.724 262.214 219.5 261.938 219.5V220.5ZM268.812 219.5C268.536 219.5 268.312 219.724 268.312 220C268.312 220.276 268.536 220.5 268.812 220.5V219.5ZM275.688 220.5C275.964 220.5 276.188 220.276 276.188 220C276.188 219.724 275.964 219.5 275.688 219.5V220.5ZM282.562 219.5C282.286 219.5 282.062 219.724 282.062 220C282.062 220.276 282.286 220.5 282.562 220.5V219.5ZM289.438 220.5C289.714 220.5 289.938 220.276 289.938 220C289.938 219.724 289.714 219.5 289.438 219.5V220.5ZM296.312 219.5C296.036 219.5 295.812 219.724 295.812 220C295.812 220.276 296.036 220.5 296.312 220.5V219.5ZM303.188 220.5C303.464 220.5 303.688 220.276 303.688 220C303.688 219.724 303.464 219.5 303.188 219.5V220.5ZM310.062 219.5C309.786 219.5 309.562 219.724 309.562 220C309.562 220.276 309.786 220.5 310.062 220.5V219.5ZM316.938 220.5C317.214 220.5 317.438 220.276 317.438 220C317.438 219.724 317.214 219.5 316.938 219.5V220.5ZM323.812 219.5C323.536 219.5 323.312 219.724 323.312 220C323.312 220.276 323.536 220.5 323.812 220.5V219.5ZM330.688 220.5C330.964 220.5 331.188 220.276 331.188 220C331.188 219.724 330.964 219.5 330.688 219.5V220.5ZM337.562 219.5C337.286 219.5 337.062 219.724 337.062 220C337.062 220.276 337.286 220.5 337.562 220.5V219.5ZM344.438 220.5C344.714 220.5 344.938 220.276 344.938 220C344.938 219.724 344.714 219.5 344.438 219.5V220.5ZM351.312 219.5C351.036 219.5 350.812 219.724 350.812 220C350.812 220.276 351.036 220.5 351.312 220.5V219.5ZM358.188 220.5C358.464 220.5 358.688 220.276 358.688 220C358.688 219.724 358.464 219.5 358.188 219.5V220.5ZM365.062 219.5C364.786 219.5 364.562 219.724 364.562 220C364.562 220.276 364.786 220.5 365.062 220.5V219.5ZM371.938 220.5C372.214 220.5 372.438 220.276 372.438 220C372.438 219.724 372.214 219.5 371.938 219.5V220.5ZM378.812 219.5C378.536 219.5 378.312 219.724 378.312 220C378.312 220.276 378.536 220.5 378.812 220.5V219.5ZM385.688 220.5C385.964 220.5 386.188 220.276 386.188 220C386.188 219.724 385.964 219.5 385.688 219.5V220.5ZM392.562 219.5C392.286 219.5 392.062 219.724 392.062 220C392.062 220.276 392.286 220.5 392.562 220.5V219.5ZM400.019 219.703C400.274 219.597 400.396 219.305 400.29 219.05C400.184 218.795 399.891 218.674 399.636 218.779L400.019 219.703ZM404.779 213.636C404.674 213.891 404.795 214.184 405.05 214.29C405.305 214.396 405.597 214.274 405.703 214.019L404.779 213.636ZM406.5 206.364C406.5 206.087 406.276 205.864 406 205.864C405.724 205.864 405.5 206.087 405.5 206.364H406.5ZM405.5 199.091C405.5 199.367 405.724 199.591 406 199.591C406.276 199.591 406.5 199.367 406.5 199.091H405.5ZM406.5 191.818C406.5 191.542 406.276 191.318 406 191.318C405.724 191.318 405.5 191.542 405.5 191.818H406.5ZM405.5 184.545C405.5 184.822 405.724 185.045 406 185.045C406.276 185.045 406.5 184.822 406.5 184.545H405.5ZM406.5 177.273C406.5 176.997 406.276 176.773 406 176.773C405.724 176.773 405.5 176.997 405.5 177.273H406.5ZM405.5 170C405.5 170.276 405.724 170.5 406 170.5C406.276 170.5 406.5 170.276 406.5 170H405.5ZM406.5 162.727C406.5 162.451 406.276 162.227 406 162.227C405.724 162.227 405.5 162.451 405.5 162.727H406.5ZM405.5 155.455C405.5 155.731 405.724 155.955 406 155.955C406.276 155.955 406.5 155.731 406.5 155.455H405.5ZM406.5 148.182C406.5 147.906 406.276 147.682 406 147.682C405.724 147.682 405.5 147.906 405.5 148.182H406.5ZM405.5 140.909C405.5 141.185 405.724 141.409 406 141.409C406.276 141.409 406.5 141.185 406.5 140.909H405.5ZM406.5 133.636C406.5 133.36 406.276 133.136 406 133.136C405.724 133.136 405.5 133.36 405.5 133.636H406.5ZM405.5 126.364C405.5 126.64 405.724 126.864 406 126.864C406.276 126.864 406.5 126.64 406.5 126.364H405.5ZM406.5 119.091C406.5 118.815 406.276 118.591 406 118.591C405.724 118.591 405.5 118.815 405.5 119.091H406.5ZM405.5 111.818C405.5 112.094 405.724 112.318 406 112.318C406.276 112.318 406.5 112.094 406.5 111.818H405.5ZM406.5 104.545C406.5 104.269 406.276 104.045 406 104.045C405.724 104.045 405.5 104.269 405.5 104.545H406.5ZM405.5 97.2727C405.5 97.5489 405.724 97.7727 406 97.7727C406.276 97.7727 406.5 97.5489 406.5 97.2727H405.5ZM406.5 90C406.5 89.7238 406.276 89.5 406 89.5C405.724 89.5 405.5 89.7238 405.5 90H406.5ZM405.5 82.7273C405.5 83.0034 405.724 83.2273 406 83.2273C406.276 83.2273 406.5 83.0034 406.5 82.7273H405.5ZM406.5 75.4545C406.5 75.1784 406.276 74.9545 406 74.9545C405.724 74.9545 405.5 75.1784 405.5 75.4545H406.5ZM405.5 68.1818C405.5 68.458 405.724 68.6818 406 68.6818C406.276 68.6818 406.5 68.458 406.5 68.1818H405.5ZM406.5 60.9091C406.5 60.633 406.276 60.4091 406 60.4091C405.724 60.4091 405.5 60.633 405.5 60.9091H406.5ZM405.5 53.6364C405.5 53.9125 405.724 54.1364 406 54.1364C406.276 54.1364 406.5 53.9125 406.5 53.6364H405.5ZM405.703 45.9806C405.597 45.7255 405.305 45.6045 405.05 45.7103C404.795 45.816 404.674 46.1086 404.779 46.3636L405.703 45.9806ZM399.636 41.2207C399.891 41.3264 400.184 41.2054 400.29 40.9503C400.396 40.6953 400.274 40.4027 400.019 40.2969L399.636 41.2207ZM392.562 39.5C392.286 39.5 392.062 39.7239 392.062 40C392.062 40.2761 392.286 40.5 392.562 40.5V39.5ZM385.688 40.5C385.964 40.5 386.188 40.2761 386.188 40C386.188 39.7239 385.964 39.5 385.688 39.5V40.5ZM378.812 39.5C378.536 39.5 378.312 39.7239 378.312 40C378.312 40.2761 378.536 40.5 378.812 40.5V39.5ZM371.938 40.5C372.214 40.5 372.438 40.2761 372.438 40C372.438 39.7239 372.214 39.5 371.938 39.5V40.5ZM365.062 39.5C364.786 39.5 364.562 39.7239 364.562 40C364.562 40.2761 364.786 40.5 365.062 40.5V39.5ZM358.188 40.5C358.464 40.5 358.688 40.2761 358.688 40C358.688 39.7239 358.464 39.5 358.188 39.5V40.5ZM351.312 39.5C351.036 39.5 350.812 39.7239 350.812 40C350.812 40.2761 351.036 40.5 351.312 40.5V39.5ZM344.438 40.5C344.714 40.5 344.938 40.2761 344.938 40C344.938 39.7239 344.714 39.5 344.438 39.5V40.5ZM337.562 39.5C337.286 39.5 337.062 39.7239 337.062 40C337.062 40.2761 337.286 40.5 337.562 40.5V39.5ZM330.688 40.5C330.964 40.5 331.188 40.2761 331.188 40C331.188 39.7239 330.964 39.5 330.688 39.5V40.5ZM323.812 39.5C323.536 39.5 323.312 39.7239 323.312 40C323.312 40.2761 323.536 40.5 323.812 40.5V39.5ZM316.938 40.5C317.214 40.5 317.438 40.2761 317.438 40C317.438 39.7239 317.214 39.5 316.938 39.5V40.5ZM310.062 39.5C309.786 39.5 309.562 39.7239 309.562 40C309.562 40.2761 309.786 40.5 310.062 40.5V39.5ZM303.188 40.5C303.464 40.5 303.688 40.2761 303.688 40C303.688 39.7239 303.464 39.5 303.188 39.5V40.5ZM296.312 39.5C296.036 39.5 295.812 39.7239 295.812 40C295.812 40.2761 296.036 40.5 296.312 40.5V39.5ZM289.438 40.5C289.714 40.5 289.938 40.2761 289.938 40C289.938 39.7239 289.714 39.5 289.438 39.5V40.5ZM282.562 39.5C282.286 39.5 282.062 39.7239 282.062 40C282.062 40.2761 282.286 40.5 282.562 40.5V39.5ZM275.688 40.5C275.964 40.5 276.188 40.2761 276.188 40C276.188 39.7239 275.964 39.5 275.688 39.5V40.5ZM268.812 39.5C268.536 39.5 268.312 39.7239 268.312 40C268.312 40.2761 268.536 40.5 268.812 40.5V39.5ZM261.938 40.5C262.214 40.5 262.438 40.2761 262.438 40C262.438 39.7239 262.214 39.5 261.938 39.5V40.5ZM255.062 39.5C254.786 39.5 254.562 39.7239 254.562 40C254.562 40.2761 254.786 40.5 255.062 40.5V39.5ZM248.188 40.5C248.464 40.5 248.688 40.2761 248.688 40C248.688 39.7239 248.464 39.5 248.188 39.5V40.5ZM241.312 39.5C241.036 39.5 240.812 39.7239 240.812 40C240.812 40.2761 241.036 40.5 241.312 40.5V39.5ZM234.438 40.5C234.714 40.5 234.938 40.2761 234.938 40C234.938 39.7239 234.714 39.5 234.438 39.5V40.5ZM227.562 39.5C227.286 39.5 227.062 39.7239 227.062 40C227.062 40.2761 227.286 40.5 227.562 40.5V39.5ZM220.688 40.5C220.964 40.5 221.188 40.2761 221.188 40C221.188 39.7239 220.964 39.5 220.688 39.5V40.5ZM213.812 39.5C213.536 39.5 213.312 39.7239 213.312 40C213.312 40.2761 213.536 40.5 213.812 40.5V39.5ZM206.938 40.5C207.214 40.5 207.438 40.2761 207.438 40C207.438 39.7239 207.214 39.5 206.938 39.5V40.5ZM200.062 39.5C199.786 39.5 199.562 39.7239 199.562 40C199.562 40.2761 199.786 40.5 200.062 40.5V39.5ZM193.188 40.5C193.464 40.5 193.688 40.2761 193.688 40C193.688 39.7239 193.464 39.5 193.188 39.5V40.5ZM186.312 39.5C186.036 39.5 185.812 39.7239 185.812 40C185.812 40.2761 186.036 40.5 186.312 40.5V39.5ZM179.438 40.5C179.714 40.5 179.938 40.2761 179.938 40C179.938 39.7239 179.714 39.5 179.438 39.5V40.5ZM172.563 39.5C172.286 39.5 172.063 39.7239 172.063 40C172.063 40.2761 172.286 40.5 172.563 40.5V39.5ZM165.687 40.5C165.964 40.5 166.187 40.2761 166.187 40C166.187 39.7239 165.964 39.5 165.687 39.5V40.5ZM158.812 39.5C158.536 39.5 158.312 39.7239 158.312 40C158.312 40.2761 158.536 40.5 158.812 40.5V39.5ZM151.938 40.5C152.214 40.5 152.438 40.2761 152.438 40C152.438 39.7239 152.214 39.5 151.938 39.5V40.5ZM145.062 39.5C144.786 39.5 144.562 39.7239 144.562 40C144.562 40.2761 144.786 40.5 145.062 40.5V39.5ZM138.188 40.5C138.464 40.5 138.688 40.2761 138.688 40C138.688 39.7239 138.464 39.5 138.188 39.5V40.5ZM131.313 39.5C131.036 39.5 130.813 39.7239 130.813 40C130.813 40.2761 131.036 40.5 131.313 40.5V39.5ZM124.437 40.5C124.714 40.5 124.937 40.2761 124.937 40C124.937 39.7239 124.714 39.5 124.437 39.5V40.5ZM117.562 39.5C117.286 39.5 117.062 39.7239 117.062 40C117.062 40.2761 117.286 40.5 117.562 40.5V39.5ZM110.688 40.5C110.964 40.5 111.188 40.2761 111.188 40C111.188 39.7239 110.964 39.5 110.688 39.5V40.5ZM103.812 39.5C103.536 39.5 103.312 39.7239 103.312 40C103.312 40.2761 103.536 40.5 103.812 40.5V39.5ZM96.9375 40.5C97.2136 40.5 97.4375 40.2761 97.4375 40C97.4375 39.7239 97.2136 39.5 96.9375 39.5V40.5ZM90.0625 39.5C89.7864 39.5 89.5625 39.7239 89.5625 40C89.5625 40.2761 89.7864 40.5 90.0625 40.5V39.5ZM83.1875 40.5C83.4636 40.5 83.6875 40.2761 83.6875 40C83.6875 39.7239 83.4636 39.5 83.1875 39.5V40.5ZM76.3125 39.5C76.0364 39.5 75.8125 39.7239 75.8125 40C75.8125 40.2761 76.0364 40.5 76.3125 40.5V39.5ZM69.4375 40.5C69.7136 40.5 69.9375 40.2761 69.9375 40C69.9375 39.7239 69.7136 39.5 69.4375 39.5V40.5ZM61.9806 40.2969C61.7255 40.4027 61.6045 40.6953 61.7103 40.9503C61.816 41.2054 62.1086 41.3264 62.3636 41.2207L61.9806 40.2969ZM57.2207 46.3637C57.3264 46.1086 57.2054 45.816 56.9503 45.7103C56.6953 45.6045 56.4027 45.7255 56.2969 45.9806L57.2207 46.3637ZM55.5 50V52.507H56.5V50H55.5ZM55.5 57.521V60.028H56.5V57.521H55.5ZM55.986 60.5278C57.1083 60.5593 58.2239 60.6174 59.3322 60.7015L59.4078 59.7043C58.2837 59.6191 57.1522 59.5602 56.014 59.5282L55.986 60.5278ZM65.9789 61.5284C68.195 61.9134 70.3751 62.4033 72.5138 62.9929L72.7796 62.0289C70.6099 61.4307 68.3982 60.9337 66.1501 60.5432L65.9789 61.5284ZM78.8757 65.0841C80.9693 65.8869 83.0143 66.7881 85.0049 67.782L85.4516 66.8873C83.4323 65.879 81.3577 64.9648 79.2337 64.1504L78.8757 65.0841ZM90.8451 71.0595C92.7411 72.2472 94.5758 73.524 96.3432 74.8838L96.9529 74.0913C95.1602 72.7119 93.2993 71.4169 91.376 70.212L90.8451 71.0595ZM101.449 79.2178C103.081 80.7429 104.639 82.3458 106.118 84.0205L106.867 83.3586C105.368 81.66 103.787 80.0342 102.132 78.4872L101.449 79.2178ZM110.305 89.2478C111.613 91.0526 112.837 92.9228 113.971 94.8525L114.833 94.3461C113.683 92.3886 112.442 90.4915 111.114 88.6608L110.305 89.2478ZM117.079 100.784C118.015 102.802 118.858 104.872 119.6 106.988L120.544 106.657C119.79 104.51 118.936 102.41 117.987 100.363L117.079 100.784ZM121.507 113.408C122.035 115.561 122.462 117.755 122.783 119.982L123.773 119.839C123.447 117.58 123.014 115.355 122.478 113.17L121.507 113.408ZM123.421 126.65C123.473 127.76 123.5 128.877 123.5 130H124.5C124.5 128.861 124.473 127.728 124.42 126.603L123.421 126.65ZM123.5 130C123.5 131.123 123.473 132.24 123.421 133.35L124.42 133.397C124.473 132.272 124.5 131.139 124.5 130H123.5ZM122.783 140.018C122.462 142.245 122.035 144.439 121.507 146.592L122.478 146.83C123.014 144.645 123.447 142.42 123.773 140.161L122.783 140.018ZM119.6 153.012C118.858 155.128 118.015 157.198 117.079 159.216L117.987 159.637C118.936 157.59 119.79 155.49 120.544 153.343L119.6 153.012ZM113.971 165.147C112.837 167.077 111.613 168.947 110.305 170.752L111.114 171.339C112.442 169.508 113.683 167.611 114.833 165.654L113.971 165.147ZM106.118 175.98C104.639 177.654 103.081 179.257 101.449 180.782L102.132 181.513C103.787 179.966 105.368 178.34 106.867 176.641L106.118 175.98ZM96.3432 185.116C94.5758 186.476 92.7411 187.753 90.8451 188.941L91.376 189.788C93.2993 188.583 95.1602 187.288 96.9529 185.909L96.3432 185.116ZM85.0049 192.218C83.0143 193.212 80.9693 194.113 78.8757 194.916L79.2337 195.85C81.3577 195.035 83.4323 194.121 85.4516 193.113L85.0049 192.218ZM72.5138 197.007C70.3751 197.597 68.195 198.087 65.9789 198.472L66.1501 199.457C68.3982 199.066 70.6099 198.569 72.7796 197.971L72.5138 197.007ZM59.3321 199.299C58.2238 199.383 57.1083 199.441 55.986 199.472L56.014 200.472C57.1522 200.44 58.2837 200.381 59.4078 200.296L59.3321 199.299ZM55.5 199.972V202.479H56.5V199.972H55.5ZM55.5 207.493V210H56.5V207.493H55.5ZM55.5 210C55.5 211.423 55.7833 212.781 56.2969 214.019L57.2207 213.636C56.7565 212.517 56.5 211.289 56.5 210H55.5ZM61.9806 219.703C63.2193 220.217 64.5772 220.5 66 220.5V219.5C64.711 219.5 63.4831 219.244 62.3636 218.779L61.9806 219.703ZM66 220.5H69.4375V219.5H66V220.5ZM76.3125 220.5H83.1875V219.5H76.3125V220.5ZM90.0625 220.5H96.9375V219.5H90.0625V220.5ZM103.812 220.5H110.688V219.5H103.812V220.5ZM117.562 220.5H124.438V219.5H117.562V220.5ZM131.312 220.5H138.188V219.5H131.312V220.5ZM145.062 220.5H151.937V219.5H145.062V220.5ZM158.812 220.5H165.688V219.5H158.812V220.5ZM172.562 220.5H179.438V219.5H172.562V220.5ZM186.312 220.5H193.188V219.5H186.312V220.5ZM200.062 220.5H206.938V219.5H200.062V220.5ZM213.812 220.5H220.688V219.5H213.812V220.5ZM227.562 220.5H234.438V219.5H227.562V220.5ZM241.312 220.5H248.188V219.5H241.312V220.5ZM255.062 220.5H261.938V219.5H255.062V220.5ZM268.812 220.5H275.688V219.5H268.812V220.5ZM282.562 220.5H289.438V219.5H282.562V220.5ZM296.312 220.5H303.188V219.5H296.312V220.5ZM310.062 220.5H316.938V219.5H310.062V220.5ZM323.812 220.5H330.688V219.5H323.812V220.5ZM337.562 220.5H344.438V219.5H337.562V220.5ZM351.312 220.5H358.188V219.5H351.312V220.5ZM365.062 220.5H371.938V219.5H365.062V220.5ZM378.812 220.5H385.688V219.5H378.812V220.5ZM392.562 220.5H396V219.5H392.562V220.5ZM396 220.5C397.423 220.5 398.781 220.217 400.019 219.703L399.636 218.779C398.517 219.244 397.289 219.5 396 219.5V220.5ZM405.703 214.019C406.217 212.781 406.5 211.423 406.5 210H405.5C405.5 211.289 405.244 212.517 404.779 213.636L405.703 214.019ZM406.5 210V206.364H405.5V210H406.5ZM406.5 199.091V191.818H405.5V199.091H406.5ZM406.5 184.545V177.273H405.5V184.545H406.5ZM406.5 170V162.727H405.5V170H406.5ZM406.5 155.455V148.182H405.5V155.455H406.5ZM406.5 140.909V133.636H405.5V140.909H406.5ZM406.5 126.364V119.091H405.5V126.364H406.5ZM406.5 111.818V104.545H405.5V111.818H406.5ZM406.5 97.2727V90H405.5V97.2727H406.5ZM406.5 82.7273V75.4545H405.5V82.7273H406.5ZM406.5 68.1818V60.9091H405.5V68.1818H406.5ZM406.5 53.6364V50H405.5V53.6364H406.5ZM406.5 50C406.5 48.5772 406.217 47.2193 405.703 45.9806L404.779 46.3636C405.244 47.4831 405.5 48.711 405.5 50H406.5ZM400.019 40.2969C398.781 39.7833 397.423 39.5 396 39.5V40.5C397.289 40.5 398.517 40.7565 399.636 41.2207L400.019 40.2969ZM396 39.5H392.562V40.5H396V39.5ZM385.688 39.5H378.812V40.5H385.688V39.5ZM371.938 39.5H365.062V40.5H371.938V39.5ZM358.188 39.5H351.312V40.5H358.188V39.5ZM344.438 39.5H337.562V40.5H344.438V39.5ZM330.688 39.5H323.812V40.5H330.688V39.5ZM316.938 39.5H310.062V40.5H316.938V39.5ZM303.188 39.5H296.312V40.5H303.188V39.5ZM289.438 39.5H282.562V40.5H289.438V39.5ZM275.688 39.5H268.812V40.5H275.688V39.5ZM261.938 39.5H255.062V40.5H261.938V39.5ZM248.188 39.5H241.312V40.5H248.188V39.5ZM234.438 39.5H227.562V40.5H234.438V39.5ZM220.688 39.5H213.812V40.5H220.688V39.5ZM206.938 39.5H200.062V40.5H206.938V39.5ZM193.188 39.5H186.312V40.5H193.188V39.5ZM179.438 39.5H172.563V40.5H179.438V39.5ZM165.687 39.5H158.812V40.5H165.687V39.5ZM151.938 39.5H145.062V40.5H151.938V39.5ZM138.188 39.5H131.313V40.5H138.188V39.5ZM124.437 39.5H117.562V40.5H124.437V39.5ZM110.688 39.5H103.812V40.5H110.688V39.5ZM96.9375 39.5H90.0625V40.5H96.9375V39.5ZM83.1875 39.5H76.3125V40.5H83.1875V39.5ZM69.4375 39.5H66V40.5H69.4375V39.5ZM66 39.5C64.5772 39.5 63.2193 39.7833 61.9806 40.2969L62.3636 41.2207C63.4831 40.7565 64.711 40.5 66 40.5V39.5ZM56.2969 45.9806C55.7833 47.2193 55.5 48.5772 55.5 50H56.5C56.5 48.711 56.7565 47.4831 57.2207 46.3637L56.2969 45.9806Z" fill="#E5E5E5"/>
</g>
<defs>
<filter id="filter0_d" x="16" y="0" width="430" height="260" filterUnits="userSpaceOnUse" color-interpolation-filters="sRGB">
<feFlood flood-opacity="0" result="BackgroundImageFix"/>
<feColorMatrix in="SourceAlpha" type="matrix" values="0 0 0 0 0 0 0 0 0 0 0 0 0 0 0 0 0 0 127 0"/>
<feOffset/>
<feGaussianBlur stdDeviation="15"/>
<feColorMatrix type="matrix" values="0 0 0 0 0 0 0 0 0 0 0 0 0 0 0 0 0 0 0.1 0"/>
<feBlend mode="normal" in2="BackgroundImageFix" result="effect1_dropShadow"/>
<feBlend mode="normal" in="SourceGraphic" in2="effect1_dropShadow" result="shape"/>
</filter>
<filter id="filter1_d" x="25.5" y="9.5" width="411" height="241" filterUnits="userSpaceOnUse" color-interpolation-filters="sRGB">
<feFlood flood-opacity="0" result="BackgroundImageFix"/>
<feColorMatrix in="SourceAlpha" type="matrix" values="0 0 0 0 0 0 0 0 0 0 0 0 0 0 0 0 0 0 127 0"/>
<feOffset/>
<feGaussianBlur stdDeviation="15"/>
<feColorMatrix type="matrix" values="0 0 0 0 0 0 0 0 0 0 0 0 0 0 0 0 0 0 0.1 0"/>
<feBlend mode="normal" in2="BackgroundImageFix" result="effect1_dropShadow"/>
<feBlend mode="normal" in="SourceGraphic" in2="effect1_dropShadow" result="shape"/>
</filter>
<linearGradient id="paint0_linear" x1="48.6364" y1="180" x2="48.6364" y2="80" gradientUnits="userSpaceOnUse">
<stop stop-color="#FCCB05"/>
<stop offset="1" stop-color="#FFE57D"/>
</linearGradient>
<linearGradient id="paint1_linear" x1="48.6364" y1="180" x2="48.6364" y2="80" gradientUnits="userSpaceOnUse">
<stop stop-color="#FCCB05"/>
<stop offset="1" stop-color="#FFE57D"/>
</linearGradient>
</defs>
</svg>
