<svg width="333" height="196" viewBox="0 0 333 196" fill="none" xmlns="http://www.w3.org/2000/svg">
<path d="M333 97C333 117.435 316.434 134 296 134C275.565 134 259 117.435 259 97C259 76.5655 275.565 60 296 60C316.434 60 333 76.5655 333 97Z" fill="url(#paint0_linear)"/>
<mask id="mask0" mask-type="alpha" maskUnits="userSpaceOnUse" x="259" y="60" width="74" height="74">
<ellipse cx="296" cy="97" rx="36.9999" ry="37" fill="url(#paint1_linear)"/>
</mask>
<g mask="url(#mask0)">
<path fill-rule="evenodd" clip-rule="evenodd" d="M311.161 115.669V99.0349L296.494 83.767C296.223 83.4855 295.775 83.4862 295.505 83.767L280.838 99.035V103.549C280.838 103.908 280.547 104.2 280.188 104.2C279.829 104.2 279.537 103.908 279.537 103.549V100.389L278.213 101.767C277.615 102.39 276.622 102.4 276.012 101.789L274.248 100.025C273.659 99.4364 273.649 98.4685 274.226 97.8678L294.246 77.0281C295.204 76.0309 296.797 76.0318 297.754 77.0281L317.773 97.8678C318.35 98.4686 318.34 99.4365 317.751 100.025L315.987 101.789C315.377 102.4 314.384 102.39 313.786 101.767L312.462 100.389V115.669C312.462 117.108 311.291 118.279 309.852 118.279H308.843C308.484 118.279 308.193 117.988 308.193 117.628C308.193 117.269 308.484 116.978 308.843 116.978H309.852C310.574 116.978 311.161 116.391 311.161 115.669ZM315.067 100.869L316.831 99.1053C316.923 99.0136 316.925 98.8626 316.835 98.7689L296.815 77.9294C296.37 77.4654 295.63 77.4654 295.184 77.9293L275.165 98.769C275.075 98.8626 275.076 99.0135 275.168 99.1053L276.932 100.869C277.047 100.964 277.162 100.963 277.275 100.866L279.718 98.3236L279.719 98.3224L294.567 82.8658C295.349 82.0517 296.647 82.0514 297.43 82.863L297.432 82.8657L297.432 82.8659L314.724 100.866C314.838 100.963 314.952 100.964 315.067 100.869ZM301.936 116.978H305.795C306.154 116.978 306.445 117.269 306.445 117.628C306.445 117.988 306.154 118.279 305.795 118.279H282.148C280.708 118.279 279.537 117.108 279.537 115.669V106.585C279.537 106.225 279.829 105.934 280.188 105.934C280.547 105.934 280.838 106.225 280.838 106.585V115.669C280.838 116.391 281.426 116.978 282.148 116.978H290.064V109.613C290.064 106.34 292.727 103.677 296 103.677C299.273 103.677 301.936 106.34 301.936 109.613V116.978ZM296 104.978C293.444 104.978 291.365 107.057 291.365 109.613V116.978H300.635V109.613C300.635 107.057 298.555 104.978 296 104.978Z" fill="white" style="mix-blend-mode:overlay"/>
</g>
<g filter="url(#filter0_d)">
<path fill-rule="evenodd" clip-rule="evenodd" d="M30.3986 23C26.3125 23 23 26.3125 23 30.3986V165.601C23 169.688 26.3124 173 30.3986 173H285.601C289.688 173 293 169.688 293 165.601V142.998C292.854 142.999 292.708 143 292.562 143C266.999 143 246.276 122.853 246.276 98C246.276 73.1472 266.999 53 292.562 53C292.708 53 292.854 53.0007 293 53.002V30.3986C293 26.3125 289.688 23 285.601 23H30.3986Z" fill="white"/>
</g>
<g filter="url(#filter1_d)">
<path d="M283 148.396H283.37V148.068L283.045 148.028L283 148.396ZM283 45.576L283.045 45.9433L283.37 45.9038V45.576H283ZM32.6301 42.6364C32.6301 42.8407 32.7957 43.0063 33 43.0063C33.2043 43.0063 33.3699 42.8407 33.3699 42.6364H32.6301ZM33.3699 47.9091C33.3699 47.7048 33.2043 47.5392 33 47.5392C32.7957 47.5392 32.6301 47.7048 32.6301 47.9091H33.3699ZM32.6301 53.1818C32.6301 53.3861 32.7957 53.5517 33 53.5517C33.2043 53.5517 33.3699 53.3861 33.3699 53.1818H32.6301ZM33.3699 58.4545C33.3699 58.2502 33.2043 58.0846 33 58.0846C32.7957 58.0846 32.6301 58.2502 32.6301 58.4545H33.3699ZM32.6301 63.7273C32.6301 63.9316 32.7957 64.0972 33 64.0972C33.2043 64.0972 33.3699 63.9316 33.3699 63.7273H32.6301ZM33.3699 69C33.3699 68.7957 33.2043 68.6301 33 68.6301C32.7957 68.6301 32.6301 68.7957 32.6301 69H33.3699ZM32.6301 74.2727C32.6301 74.477 32.7957 74.6427 33 74.6427C33.2043 74.6427 33.3699 74.477 33.3699 74.2727H32.6301ZM33.3699 79.5455C33.3699 79.3412 33.2043 79.1755 33 79.1755C32.7957 79.1755 32.6301 79.3412 32.6301 79.5455H33.3699ZM32.6301 84.8182C32.6301 85.0225 32.7957 85.1881 33 85.1881C33.2043 85.1881 33.3699 85.0225 33.3699 84.8182H32.6301ZM33.3699 90.0909C33.3699 89.8866 33.2043 89.721 33 89.721C32.7957 89.721 32.6301 89.8866 32.6301 90.0909H33.3699ZM32.6301 95.3636C32.6301 95.5679 32.7957 95.7336 33 95.7336C33.2043 95.7336 33.3699 95.5679 33.3699 95.3636H32.6301ZM33.3699 100.636C33.3699 100.432 33.2043 100.266 33 100.266C32.7957 100.266 32.6301 100.432 32.6301 100.636H33.3699ZM32.6301 105.909C32.6301 106.113 32.7957 106.279 33 106.279C33.2043 106.279 33.3699 106.113 33.3699 105.909H32.6301ZM33.3699 111.182C33.3699 110.978 33.2043 110.812 33 110.812C32.7957 110.812 32.6301 110.978 32.6301 111.182H33.3699ZM32.6301 116.455C32.6301 116.659 32.7957 116.824 33 116.824C33.2043 116.824 33.3699 116.659 33.3699 116.455H32.6301ZM33.3699 121.727C33.3699 121.523 33.2043 121.357 33 121.357C32.7957 121.357 32.6301 121.523 32.6301 121.727H33.3699ZM32.6301 127C32.6301 127.204 32.7957 127.37 33 127.37C33.2043 127.37 33.3699 127.204 33.3699 127H32.6301ZM33.3699 132.273C33.3699 132.068 33.2043 131.903 33 131.903C32.7957 131.903 32.6301 132.068 32.6301 132.273H33.3699ZM32.6301 137.545C32.6301 137.75 32.7957 137.915 33 137.915C33.2043 137.915 33.3699 137.75 33.3699 137.545H32.6301ZM33.3699 142.818C33.3699 142.614 33.2043 142.448 33 142.448C32.7957 142.448 32.6301 142.614 32.6301 142.818H33.3699ZM32.6301 148.091C32.6301 148.295 32.7957 148.461 33 148.461C33.2043 148.461 33.3699 148.295 33.3699 148.091H32.6301ZM33.3699 153.364C33.3699 153.159 33.2043 152.994 33 152.994C32.7957 152.994 32.6301 153.159 32.6301 153.364H33.3699ZM33.1895 158.821C33.2677 159.01 33.4841 159.099 33.6729 159.021C33.8616 158.943 33.9511 158.727 33.8729 158.538L33.1895 158.821ZM37.4622 162.127C37.2735 162.049 37.057 162.138 36.9788 162.327C36.9005 162.516 36.9901 162.732 37.1788 162.811L37.4622 162.127ZM42.5652 163.37C42.7695 163.37 42.9351 163.204 42.9351 163C42.9351 162.796 42.7695 162.63 42.5652 162.63V163.37ZM47.6957 162.63C47.4913 162.63 47.3257 162.796 47.3257 163C47.3257 163.204 47.4913 163.37 47.6957 163.37V162.63ZM52.8261 163.37C53.0304 163.37 53.196 163.204 53.196 163C53.196 162.796 53.0304 162.63 52.8261 162.63V163.37ZM57.9565 162.63C57.7522 162.63 57.5866 162.796 57.5866 163C57.5866 163.204 57.7522 163.37 57.9565 163.37V162.63ZM63.087 163.37C63.2913 163.37 63.4569 163.204 63.4569 163C63.4569 162.796 63.2913 162.63 63.087 162.63V163.37ZM68.2174 162.63C68.0131 162.63 67.8475 162.796 67.8475 163C67.8475 163.204 68.0131 163.37 68.2174 163.37V162.63ZM73.3478 163.37C73.5521 163.37 73.7178 163.204 73.7178 163C73.7178 162.796 73.5521 162.63 73.3478 162.63V163.37ZM78.4783 162.63C78.274 162.63 78.1083 162.796 78.1083 163C78.1083 163.204 78.274 163.37 78.4783 163.37V162.63ZM83.6087 163.37C83.813 163.37 83.9786 163.204 83.9786 163C83.9786 162.796 83.813 162.63 83.6087 162.63V163.37ZM88.7391 162.63C88.5348 162.63 88.3692 162.796 88.3692 163C88.3692 163.204 88.5348 163.37 88.7391 163.37V162.63ZM93.8696 163.37C94.0739 163.37 94.2395 163.204 94.2395 163C94.2395 162.796 94.0739 162.63 93.8696 162.63V163.37ZM99 162.63C98.7957 162.63 98.6301 162.796 98.6301 163C98.6301 163.204 98.7957 163.37 99 163.37V162.63ZM104.13 163.37C104.335 163.37 104.5 163.204 104.5 163C104.5 162.796 104.335 162.63 104.13 162.63V163.37ZM109.261 162.63C109.057 162.63 108.891 162.796 108.891 163C108.891 163.204 109.057 163.37 109.261 163.37V162.63ZM114.391 163.37C114.596 163.37 114.761 163.204 114.761 163C114.761 162.796 114.596 162.63 114.391 162.63V163.37ZM119.522 162.63C119.317 162.63 119.152 162.796 119.152 163C119.152 163.204 119.317 163.37 119.522 163.37V162.63ZM124.652 163.37C124.856 163.37 125.022 163.204 125.022 163C125.022 162.796 124.856 162.63 124.652 162.63V163.37ZM129.783 162.63C129.578 162.63 129.413 162.796 129.413 163C129.413 163.204 129.578 163.37 129.783 163.37V162.63ZM134.913 163.37C135.117 163.37 135.283 163.204 135.283 163C135.283 162.796 135.117 162.63 134.913 162.63V163.37ZM140.043 162.63C139.839 162.63 139.674 162.796 139.674 163C139.674 163.204 139.839 163.37 140.043 163.37V162.63ZM145.174 163.37C145.378 163.37 145.544 163.204 145.544 163C145.544 162.796 145.378 162.63 145.174 162.63V163.37ZM150.304 162.63C150.1 162.63 149.934 162.796 149.934 163C149.934 163.204 150.1 163.37 150.304 163.37V162.63ZM155.435 163.37C155.639 163.37 155.805 163.204 155.805 163C155.805 162.796 155.639 162.63 155.435 162.63V163.37ZM160.565 162.63C160.361 162.63 160.195 162.796 160.195 163C160.195 163.204 160.361 163.37 160.565 163.37V162.63ZM165.696 163.37C165.9 163.37 166.066 163.204 166.066 163C166.066 162.796 165.9 162.63 165.696 162.63V163.37ZM170.826 162.63C170.622 162.63 170.456 162.796 170.456 163C170.456 163.204 170.622 163.37 170.826 163.37V162.63ZM175.956 163.37C176.161 163.37 176.326 163.204 176.326 163C176.326 162.796 176.161 162.63 175.956 162.63V163.37ZM181.087 162.63C180.883 162.63 180.717 162.796 180.717 163C180.717 163.204 180.883 163.37 181.087 163.37V162.63ZM186.217 163.37C186.422 163.37 186.587 163.204 186.587 163C186.587 162.796 186.422 162.63 186.217 162.63V163.37ZM191.348 162.63C191.143 162.63 190.978 162.796 190.978 163C190.978 163.204 191.143 163.37 191.348 163.37V162.63ZM196.478 163.37C196.683 163.37 196.848 163.204 196.848 163C196.848 162.796 196.683 162.63 196.478 162.63V163.37ZM201.609 162.63C201.404 162.63 201.239 162.796 201.239 163C201.239 163.204 201.404 163.37 201.609 163.37V162.63ZM206.739 163.37C206.943 163.37 207.109 163.204 207.109 163C207.109 162.796 206.943 162.63 206.739 162.63V163.37ZM211.87 162.63C211.665 162.63 211.5 162.796 211.5 163C211.5 163.204 211.665 163.37 211.87 163.37V162.63ZM217 163.37C217.204 163.37 217.37 163.204 217.37 163C217.37 162.796 217.204 162.63 217 162.63V163.37ZM222.13 162.63C221.926 162.63 221.76 162.796 221.76 163C221.76 163.204 221.926 163.37 222.13 163.37V162.63ZM227.261 163.37C227.465 163.37 227.631 163.204 227.631 163C227.631 162.796 227.465 162.63 227.261 162.63V163.37ZM232.391 162.63C232.187 162.63 232.021 162.796 232.021 163C232.021 163.204 232.187 163.37 232.391 163.37V162.63ZM237.522 163.37C237.726 163.37 237.892 163.204 237.892 163C237.892 162.796 237.726 162.63 237.522 162.63V163.37ZM242.652 162.63C242.448 162.63 242.282 162.796 242.282 163C242.282 163.204 242.448 163.37 242.652 163.37V162.63ZM247.783 163.37C247.987 163.37 248.152 163.204 248.152 163C248.152 162.796 247.987 162.63 247.783 162.63V163.37ZM252.913 162.63C252.709 162.63 252.543 162.796 252.543 163C252.543 163.204 252.709 163.37 252.913 163.37V162.63ZM258.043 163.37C258.248 163.37 258.413 163.204 258.413 163C258.413 162.796 258.248 162.63 258.043 162.63V163.37ZM263.174 162.63C262.97 162.63 262.804 162.796 262.804 163C262.804 163.204 262.97 163.37 263.174 163.37V162.63ZM268.304 163.37C268.509 163.37 268.674 163.204 268.674 163C268.674 162.796 268.509 162.63 268.304 162.63V163.37ZM273.435 162.63C273.23 162.63 273.065 162.796 273.065 163C273.065 163.204 273.23 163.37 273.435 163.37V162.63ZM278.821 162.811C279.01 162.732 279.099 162.516 279.021 162.327C278.943 162.138 278.727 162.049 278.538 162.127L278.821 162.811ZM282.127 158.538C282.049 158.727 282.138 158.943 282.327 159.021C282.516 159.099 282.732 159.01 282.811 158.821L282.127 158.538ZM283.37 154.099C283.37 153.895 283.204 153.729 283 153.729C282.796 153.729 282.63 153.895 282.63 154.099H283.37ZM282.63 150.297C282.63 150.501 282.796 150.667 283 150.667C283.204 150.667 283.37 150.501 283.37 150.297H282.63ZM280.412 147.639C280.211 147.604 280.019 147.739 279.984 147.94C279.949 148.141 280.083 148.333 280.285 148.368L280.412 147.639ZM275.024 147.166C275.22 147.221 275.425 147.107 275.481 146.911C275.536 146.714 275.422 146.51 275.226 146.454L275.024 147.166ZM270.192 144.736C270.003 144.66 269.787 144.752 269.711 144.941C269.635 145.131 269.728 145.346 269.917 145.422L270.192 144.736ZM265.02 143.158C265.201 143.253 265.425 143.184 265.52 143.003C265.615 142.823 265.546 142.599 265.365 142.504L265.02 143.158ZM260.794 139.783C260.624 139.669 260.395 139.715 260.281 139.885C260.168 140.055 260.214 140.285 260.383 140.398L260.794 139.783ZM256.056 137.175C256.214 137.305 256.447 137.283 256.577 137.126C256.708 136.969 256.686 136.735 256.528 136.605L256.056 137.175ZM252.612 133.006C252.469 132.86 252.234 132.858 252.089 133.001C251.943 133.144 251.941 133.378 252.084 133.524L252.612 133.006ZM248.507 129.485C248.634 129.644 248.867 129.67 249.027 129.543C249.187 129.416 249.213 129.183 249.085 129.023L248.507 129.485ZM245.987 124.699C245.877 124.527 245.648 124.477 245.476 124.588C245.304 124.698 245.254 124.927 245.365 125.099L245.987 124.699ZM242.691 120.411C242.783 120.594 243.006 120.667 243.188 120.575C243.371 120.483 243.444 120.261 243.352 120.078L242.691 120.411ZM241.21 115.21C241.138 115.019 240.924 114.923 240.733 114.995C240.542 115.068 240.446 115.281 240.519 115.472L241.21 115.21ZM238.872 110.335C238.924 110.532 239.126 110.65 239.324 110.598C239.521 110.546 239.639 110.343 239.587 110.146L238.872 110.335ZM238.499 104.939C238.467 104.738 238.278 104.599 238.077 104.631C237.875 104.662 237.736 104.851 237.768 105.053L238.499 104.939ZM237.216 99.6844C237.227 99.8884 237.4 100.045 237.605 100.035C237.809 100.025 237.966 99.8508 237.955 99.6467L237.216 99.6844ZM237.955 94.3248C237.966 94.1208 237.809 93.9469 237.605 93.9365C237.4 93.9261 237.227 94.0831 237.216 94.2872L237.955 94.3248ZM237.768 88.9186C237.736 89.1205 237.875 89.3096 238.077 89.341C238.278 89.3723 238.467 89.234 238.499 89.0322L237.768 88.9186ZM239.587 83.8257C239.639 83.6281 239.521 83.4257 239.324 83.3736C239.126 83.3214 238.924 83.4393 238.872 83.6368L239.587 83.8257ZM240.519 78.4992C240.446 78.6902 240.542 78.9038 240.733 78.9762C240.924 79.0487 241.138 78.9525 241.21 78.7615L240.519 78.4992ZM243.352 73.8931C243.444 73.7106 243.371 73.4882 243.188 73.3963C243.006 73.3044 242.783 73.3779 242.691 73.5604L243.352 73.8931ZM245.365 68.873C245.254 69.045 245.304 69.2738 245.476 69.384C245.648 69.4943 245.877 69.4442 245.987 69.2723L245.365 68.873ZM249.085 64.9484C249.213 64.7886 249.187 64.5559 249.027 64.4285C248.867 64.3011 248.634 64.3273 248.507 64.487L249.085 64.9484ZM252.084 60.4476C251.941 60.5934 251.943 60.8276 252.089 60.9707C252.234 61.1138 252.469 61.1117 252.612 60.9659L252.084 60.4476ZM256.528 57.3665C256.686 57.2362 256.708 57.003 256.577 56.8456C256.447 56.6883 256.214 56.6664 256.056 56.7967L256.528 57.3665ZM260.383 53.5735C260.214 53.687 260.168 53.9167 260.281 54.0866C260.395 54.2565 260.624 54.3023 260.794 54.1889L260.383 53.5735ZM265.365 51.4681C265.546 51.3728 265.615 51.149 265.52 50.9683C265.425 50.7876 265.201 50.7183 265.02 50.8136L265.365 51.4681ZM269.917 48.5492C269.728 48.6252 269.635 48.8405 269.711 49.0301C269.787 49.2198 270.003 49.3119 270.192 49.2359L269.917 48.5492ZM275.226 47.5177C275.422 47.4618 275.536 47.2573 275.481 47.0607C275.425 46.8642 275.22 46.7501 275.024 46.806L275.226 47.5177ZM280.285 45.6035C280.083 45.6386 279.949 45.8302 279.984 46.0315C280.019 46.2327 280.211 46.3675 280.412 46.3324L280.285 45.6035ZM283.37 44.182C283.37 43.9777 283.204 43.8121 283 43.8121C282.796 43.8121 282.63 43.9777 282.63 44.182H283.37ZM282.63 41.394C282.63 41.5983 282.796 41.7639 283 41.7639C283.204 41.7639 283.37 41.5983 283.37 41.394H282.63ZM282.811 37.1788C282.732 36.9901 282.516 36.9005 282.327 36.9788C282.138 37.057 282.049 37.2735 282.127 37.4622L282.811 37.1788ZM278.538 33.8729C278.727 33.9511 278.943 33.8616 279.021 33.6729C279.099 33.4841 279.01 33.2677 278.821 33.1895L278.538 33.8729ZM273.435 32.6301C273.23 32.6301 273.065 32.7957 273.065 33C273.065 33.2043 273.23 33.3699 273.435 33.3699V32.6301ZM268.304 33.3699C268.509 33.3699 268.674 33.2043 268.674 33C268.674 32.7957 268.509 32.6301 268.304 32.6301V33.3699ZM263.174 32.6301C262.97 32.6301 262.804 32.7957 262.804 33C262.804 33.2043 262.97 33.3699 263.174 33.3699V32.6301ZM258.043 33.3699C258.248 33.3699 258.413 33.2043 258.413 33C258.413 32.7957 258.248 32.6301 258.043 32.6301V33.3699ZM252.913 32.6301C252.709 32.6301 252.543 32.7957 252.543 33C252.543 33.2043 252.709 33.3699 252.913 33.3699V32.6301ZM247.783 33.3699C247.987 33.3699 248.153 33.2043 248.153 33C248.153 32.7957 247.987 32.6301 247.783 32.6301V33.3699ZM242.652 32.6301C242.448 32.6301 242.282 32.7957 242.282 33C242.282 33.2043 242.448 33.3699 242.652 33.3699V32.6301ZM237.522 33.3699C237.726 33.3699 237.892 33.2043 237.892 33C237.892 32.7957 237.726 32.6301 237.522 32.6301V33.3699ZM232.391 32.6301C232.187 32.6301 232.021 32.7957 232.021 33C232.021 33.2043 232.187 33.3699 232.391 33.3699V32.6301ZM227.261 33.3699C227.465 33.3699 227.631 33.2043 227.631 33C227.631 32.7957 227.465 32.6301 227.261 32.6301V33.3699ZM222.13 32.6301C221.926 32.6301 221.76 32.7957 221.76 33C221.76 33.2043 221.926 33.3699 222.13 33.3699V32.6301ZM217 33.3699C217.204 33.3699 217.37 33.2043 217.37 33C217.37 32.7957 217.204 32.6301 217 32.6301V33.3699ZM211.87 32.6301C211.665 32.6301 211.5 32.7957 211.5 33C211.5 33.2043 211.665 33.3699 211.87 33.3699V32.6301ZM206.739 33.3699C206.943 33.3699 207.109 33.2043 207.109 33C207.109 32.7957 206.943 32.6301 206.739 32.6301V33.3699ZM201.609 32.6301C201.404 32.6301 201.239 32.7957 201.239 33C201.239 33.2043 201.404 33.3699 201.609 33.3699V32.6301ZM196.478 33.3699C196.683 33.3699 196.848 33.2043 196.848 33C196.848 32.7957 196.683 32.6301 196.478 32.6301V33.3699ZM191.348 32.6301C191.144 32.6301 190.978 32.7957 190.978 33C190.978 33.2043 191.144 33.3699 191.348 33.3699V32.6301ZM186.217 33.3699C186.422 33.3699 186.587 33.2043 186.587 33C186.587 32.7957 186.422 32.6301 186.217 32.6301V33.3699ZM181.087 32.6301C180.883 32.6301 180.717 32.7957 180.717 33C180.717 33.2043 180.883 33.3699 181.087 33.3699V32.6301ZM175.957 33.3699C176.161 33.3699 176.326 33.2043 176.326 33C176.326 32.7957 176.161 32.6301 175.957 32.6301V33.3699ZM170.826 32.6301C170.622 32.6301 170.456 32.7957 170.456 33C170.456 33.2043 170.622 33.3699 170.826 33.3699V32.6301ZM165.696 33.3699C165.9 33.3699 166.066 33.2043 166.066 33C166.066 32.7957 165.9 32.6301 165.696 32.6301V33.3699ZM160.565 32.6301C160.361 32.6301 160.195 32.7957 160.195 33C160.195 33.2043 160.361 33.3699 160.565 33.3699V32.6301ZM155.435 33.3699C155.639 33.3699 155.805 33.2043 155.805 33C155.805 32.7957 155.639 32.6301 155.435 32.6301V33.3699ZM150.304 32.6301C150.1 32.6301 149.934 32.7957 149.934 33C149.934 33.2043 150.1 33.3699 150.304 33.3699V32.6301ZM145.174 33.3699C145.378 33.3699 145.544 33.2043 145.544 33C145.544 32.7957 145.378 32.6301 145.174 32.6301V33.3699ZM140.043 32.6301C139.839 32.6301 139.674 32.7957 139.674 33C139.674 33.2043 139.839 33.3699 140.043 33.3699V32.6301ZM134.913 33.3699C135.117 33.3699 135.283 33.2043 135.283 33C135.283 32.7957 135.117 32.6301 134.913 32.6301V33.3699ZM129.783 32.6301C129.578 32.6301 129.413 32.7957 129.413 33C129.413 33.2043 129.578 33.3699 129.783 33.3699V32.6301ZM124.652 33.3699C124.857 33.3699 125.022 33.2043 125.022 33C125.022 32.7957 124.857 32.6301 124.652 32.6301V33.3699ZM119.522 32.6301C119.317 32.6301 119.152 32.7957 119.152 33C119.152 33.2043 119.317 33.3699 119.522 33.3699V32.6301ZM114.391 33.3699C114.596 33.3699 114.761 33.2043 114.761 33C114.761 32.7957 114.596 32.6301 114.391 32.6301V33.3699ZM109.261 32.6301C109.057 32.6301 108.891 32.7957 108.891 33C108.891 33.2043 109.057 33.3699 109.261 33.3699V32.6301ZM104.13 33.3699C104.335 33.3699 104.5 33.2043 104.5 33C104.5 32.7957 104.335 32.6301 104.13 32.6301V33.3699ZM99 32.6301C98.7957 32.6301 98.6301 32.7957 98.6301 33C98.6301 33.2043 98.7957 33.3699 99 33.3699V32.6301ZM93.8696 33.3699C94.0739 33.3699 94.2395 33.2043 94.2395 33C94.2395 32.7957 94.0739 32.6301 93.8696 32.6301V33.3699ZM88.7392 32.6301C88.5349 32.6301 88.3692 32.7957 88.3692 33C88.3692 33.2043 88.5349 33.3699 88.7392 33.3699V32.6301ZM83.6088 33.3699C83.8131 33.3699 83.9787 33.2043 83.9787 33C83.9787 32.7957 83.8131 32.6301 83.6088 32.6301V33.3699ZM78.4783 32.6301C78.274 32.6301 78.1084 32.7957 78.1084 33C78.1084 33.2043 78.274 33.3699 78.4783 33.3699V32.6301ZM73.3479 33.3699C73.5522 33.3699 73.7178 33.2043 73.7178 33C73.7178 32.7957 73.5522 32.6301 73.3479 32.6301V33.3699ZM68.2175 32.6301C68.0131 32.6301 67.8475 32.7957 67.8475 33C67.8475 33.2043 68.0131 33.3699 68.2175 33.3699V32.6301ZM63.087 33.3699C63.2913 33.3699 63.4569 33.2043 63.4569 33C63.4569 32.7957 63.2913 32.6301 63.087 32.6301V33.3699ZM57.9566 32.6301C57.7523 32.6301 57.5867 32.7957 57.5867 33C57.5867 33.2043 57.7523 33.3699 57.9566 33.3699V32.6301ZM52.8262 33.3699C53.0305 33.3699 53.1961 33.2043 53.1961 33C53.1961 32.7957 53.0305 32.6301 52.8262 32.6301V33.3699ZM47.6957 32.6301C47.4914 32.6301 47.3258 32.7957 47.3258 33C47.3258 33.2043 47.4914 33.3699 47.6957 33.3699V32.6301ZM42.5653 33.3699C42.7696 33.3699 42.9352 33.2043 42.9352 33C42.9352 32.7957 42.7696 32.6301 42.5653 32.6301V33.3699ZM37.1788 33.1895C36.9901 33.2677 36.9005 33.4841 36.9788 33.6729C37.057 33.8616 37.2735 33.9511 37.4622 33.8729L37.1788 33.1895ZM33.8729 37.4622C33.9511 37.2735 33.8616 37.057 33.6729 36.9788C33.4841 36.9005 33.2677 36.9901 33.1895 37.1788L33.8729 37.4622ZM32.6301 40V42.6364H33.3699V40H32.6301ZM32.6301 47.9091V53.1818H33.3699V47.9091H32.6301ZM32.6301 58.4545V63.7273H33.3699V58.4545H32.6301ZM32.6301 69V74.2727H33.3699V69H32.6301ZM32.6301 79.5455V84.8182H33.3699V79.5455H32.6301ZM32.6301 90.0909V95.3636H33.3699V90.0909H32.6301ZM32.6301 100.636V105.909H33.3699V100.636H32.6301ZM32.6301 111.182V116.455H33.3699V111.182H32.6301ZM32.6301 121.727V127H33.3699V121.727H32.6301ZM32.6301 132.273V137.545H33.3699V132.273H32.6301ZM32.6301 142.818V148.091H33.3699V142.818H32.6301ZM32.6301 153.364V156H33.3699V153.364H32.6301ZM32.6301 156C32.6301 156.999 32.8289 157.952 33.1895 158.821L33.8729 158.538C33.5489 157.757 33.3699 156.9 33.3699 156H32.6301ZM37.1788 162.811C38.0483 163.171 39.0014 163.37 40 163.37V162.63C39.1003 162.63 38.2434 162.451 37.4622 162.127L37.1788 162.811ZM40 163.37H42.5652V162.63H40V163.37ZM47.6957 163.37H52.8261V162.63H47.6957V163.37ZM57.9565 163.37H63.087V162.63H57.9565V163.37ZM68.2174 163.37H73.3478V162.63H68.2174V163.37ZM78.4783 163.37H83.6087V162.63H78.4783V163.37ZM88.7391 163.37H93.8696V162.63H88.7391V163.37ZM99 163.37H104.13V162.63H99V163.37ZM109.261 163.37H114.391V162.63H109.261V163.37ZM119.522 163.37H124.652V162.63H119.522V163.37ZM129.783 163.37H134.913V162.63H129.783V163.37ZM140.043 163.37H145.174V162.63H140.043V163.37ZM150.304 163.37H155.435V162.63H150.304V163.37ZM160.565 163.37H165.696V162.63H160.565V163.37ZM170.826 163.37H175.956V162.63H170.826V163.37ZM181.087 163.37H186.217V162.63H181.087V163.37ZM191.348 163.37H196.478V162.63H191.348V163.37ZM201.609 163.37H206.739V162.63H201.609V163.37ZM211.87 163.37H217V162.63H211.87V163.37ZM222.13 163.37H227.261V162.63H222.13V163.37ZM232.391 163.37H237.522V162.63H232.391V163.37ZM242.652 163.37H247.783V162.63H242.652V163.37ZM252.913 163.37H258.043V162.63H252.913V163.37ZM263.174 163.37H268.304V162.63H263.174V163.37ZM273.435 163.37H276V162.63H273.435V163.37ZM276 163.37C276.999 163.37 277.952 163.171 278.821 162.811L278.538 162.127C277.757 162.451 276.9 162.63 276 162.63V163.37ZM282.811 158.821C283.171 157.952 283.37 156.999 283.37 156H282.63C282.63 156.9 282.451 157.757 282.127 158.538L282.811 158.821ZM283.37 156V154.099H282.63V156H283.37ZM283.37 150.297V148.396H282.63V150.297H283.37ZM283.045 148.028C282.16 147.921 281.282 147.791 280.412 147.639L280.285 148.368C281.168 148.522 282.058 148.654 282.955 148.763L283.045 148.028ZM275.226 146.454C273.51 145.966 271.83 145.392 270.192 144.736L269.917 145.422C271.579 146.088 273.283 146.671 275.024 147.166L275.226 146.454ZM265.365 142.504C263.792 141.674 262.266 140.765 260.794 139.783L260.383 140.398C261.876 141.395 263.424 142.317 265.02 143.158L265.365 142.504ZM256.528 136.605C255.161 135.473 253.854 134.271 252.612 133.006L252.084 133.524C253.344 134.808 254.67 136.026 256.056 137.175L256.528 136.605ZM249.085 129.023C247.981 127.638 246.946 126.195 245.987 124.699L245.365 125.099C246.337 126.616 247.387 128.08 248.507 129.485L249.085 129.023ZM243.352 120.078C242.558 118.5 241.842 116.876 241.21 115.21L240.519 115.472C241.159 117.162 241.885 118.81 242.691 120.411L243.352 120.078ZM239.587 110.146C239.137 108.443 238.773 106.706 238.499 104.939L237.768 105.053C238.046 106.845 238.416 108.608 238.872 110.335L239.587 110.146ZM237.955 99.6467C237.91 98.7655 237.888 97.8783 237.888 96.9858H237.148C237.148 97.8909 237.171 98.7906 237.216 99.6844L237.955 99.6467ZM237.888 96.9858C237.888 96.0933 237.91 95.2061 237.955 94.3248L237.216 94.2872C237.171 95.181 237.148 96.0807 237.148 96.9858H237.888ZM238.499 89.0322C238.773 87.2653 239.137 85.5282 239.587 83.8257L238.872 83.6368C238.416 85.364 238.046 87.1263 237.768 88.9186L238.499 89.0322ZM241.21 78.7615C241.842 77.0956 242.558 75.4711 243.352 73.8931L242.691 73.5604C241.885 75.1612 241.159 76.8092 240.519 78.4992L241.21 78.7615ZM245.987 69.2723C246.946 67.7762 247.981 66.3332 249.085 64.9484L248.507 64.487C247.387 65.8917 246.337 67.3554 245.365 68.873L245.987 69.2723ZM252.612 60.9659C253.854 59.7003 255.161 58.4987 256.528 57.3665L256.056 56.7967C254.67 57.9451 253.344 59.1639 252.084 60.4476L252.612 60.9659ZM260.794 54.1889C262.266 53.2062 263.792 52.2975 265.365 51.4681L265.02 50.8136C263.424 51.655 261.876 52.5768 260.383 53.5735L260.794 54.1889ZM270.192 49.2359C271.83 48.5797 273.51 48.0052 275.226 47.5177L275.024 46.806C273.283 47.3006 271.579 47.8834 269.917 48.5492L270.192 49.2359ZM280.412 46.3324C281.282 46.1806 282.16 46.0507 283.045 45.9433L282.955 45.2088C282.058 45.3178 281.168 45.4495 280.285 45.6035L280.412 46.3324ZM283.37 45.576V44.182H282.63V45.576H283.37ZM283.37 41.394V40H282.63V41.394H283.37ZM283.37 40C283.37 39.0014 283.171 38.0483 282.811 37.1788L282.127 37.4622C282.451 38.2434 282.63 39.1003 282.63 40H283.37ZM278.821 33.1895C277.952 32.8289 276.999 32.6301 276 32.6301V33.3699C276.9 33.3699 277.757 33.5489 278.538 33.8729L278.821 33.1895ZM276 32.6301H273.435V33.3699H276V32.6301ZM268.304 32.6301H263.174V33.3699H268.304V32.6301ZM258.043 32.6301H252.913V33.3699H258.043V32.6301ZM247.783 32.6301H242.652V33.3699H247.783V32.6301ZM237.522 32.6301H232.391V33.3699H237.522V32.6301ZM227.261 32.6301H222.13V33.3699H227.261V32.6301ZM217 32.6301H211.87V33.3699H217V32.6301ZM206.739 32.6301H201.609V33.3699H206.739V32.6301ZM196.478 32.6301H191.348V33.3699H196.478V32.6301ZM186.217 32.6301H181.087V33.3699H186.217V32.6301ZM175.957 32.6301H170.826V33.3699H175.957V32.6301ZM165.696 32.6301H160.565V33.3699H165.696V32.6301ZM155.435 32.6301H150.304V33.3699H155.435V32.6301ZM145.174 32.6301H140.043V33.3699H145.174V32.6301ZM134.913 32.6301H129.783V33.3699H134.913V32.6301ZM124.652 32.6301H119.522V33.3699H124.652V32.6301ZM114.391 32.6301H109.261V33.3699H114.391V32.6301ZM104.13 32.6301H99V33.3699H104.13V32.6301ZM93.8696 32.6301H88.7392V33.3699H93.8696V32.6301ZM83.6088 32.6301H78.4783V33.3699H83.6088V32.6301ZM73.3479 32.6301H68.2175V33.3699H73.3479V32.6301ZM63.087 32.6301H57.9566V33.3699H63.087V32.6301ZM52.8262 32.6301H47.6957V33.3699H52.8262V32.6301ZM42.5653 32.6301H40V33.3699H42.5653V32.6301ZM40 32.6301C39.0014 32.6301 38.0483 32.8289 37.1788 33.1895L37.4622 33.8729C38.2434 33.5489 39.1003 33.3699 40 33.3699V32.6301ZM33.1895 37.1788C32.8289 38.0483 32.6301 39.0014 32.6301 40H33.3699C33.3699 39.1003 33.5489 38.2434 33.8729 37.4622L33.1895 37.1788Z" fill="#E5E5E5"/>
</g>
<defs>
<filter id="filter0_d" x="0.804295" y="0.804295" width="314.391" height="194.391" filterUnits="userSpaceOnUse" color-interpolation-filters="sRGB">
<feFlood flood-opacity="0" result="BackgroundImageFix"/>
<feColorMatrix in="SourceAlpha" type="matrix" values="0 0 0 0 0 0 0 0 0 0 0 0 0 0 0 0 0 0 127 0"/>
<feOffset/>
<feGaussianBlur stdDeviation="11.0979"/>
<feColorMatrix type="matrix" values="0 0 0 0 0 0 0 0 0 0 0 0 0 0 0 0 0 0 0.1 0"/>
<feBlend mode="normal" in2="BackgroundImageFix" result="effect1_dropShadow"/>
<feBlend mode="normal" in="SourceGraphic" in2="effect1_dropShadow" result="shape"/>
</filter>
<filter id="filter1_d" x="10.4342" y="10.4344" width="295.131" height="175.131" filterUnits="userSpaceOnUse" color-interpolation-filters="sRGB">
<feFlood flood-opacity="0" result="BackgroundImageFix"/>
<feColorMatrix in="SourceAlpha" type="matrix" values="0 0 0 0 0 0 0 0 0 0 0 0 0 0 0 0 0 0 127 0"/>
<feOffset/>
<feGaussianBlur stdDeviation="11.0979"/>
<feColorMatrix type="matrix" values="0 0 0 0 0 0 0 0 0 0 0 0 0 0 0 0 0 0 0.1 0"/>
<feBlend mode="normal" in2="BackgroundImageFix" result="effect1_dropShadow"/>
<feBlend mode="normal" in="SourceGraphic" in2="effect1_dropShadow" result="shape"/>
</filter>
<linearGradient id="paint0_linear" x1="294.991" y1="134" x2="294.991" y2="60" gradientUnits="userSpaceOnUse">
<stop stop-color="#FCCB05"/>
<stop offset="1" stop-color="#FFE57D"/>
</linearGradient>
<linearGradient id="paint1_linear" x1="294.991" y1="134" x2="294.991" y2="60" gradientUnits="userSpaceOnUse">
<stop stop-color="#FCCB05"/>
<stop offset="1" stop-color="#FFE57D"/>
</linearGradient>
</defs>
</svg>
