<svg width="334" height="196" viewBox="0 0 334 196" fill="none" xmlns="http://www.w3.org/2000/svg">
<path d="M334 97C334 117.435 317.435 134 297 134C276.565 134 260 117.435 260 97C260 76.5655 276.565 60 297 60C317.435 60 334 76.5655 334 97Z" fill="url(#paint0_linear)"/>
<mask id="mask0" mask-type="alpha" maskUnits="userSpaceOnUse" x="260" y="60" width="74" height="74">
<circle cx="297" cy="97" r="37" fill="url(#paint1_linear)"/>
</mask>
<g mask="url(#mask0)">
<path d="M319.2 84.4176V109.745C319.2 111.784 317.54 113.442 315.5 113.442H278.5C276.46 113.442 274.8 111.784 274.8 109.745V98.6526C274.8 98.2442 275.131 97.9131 275.54 97.9131C275.948 97.9131 276.28 98.2442 276.28 98.6526V109.745C276.28 110.968 277.276 111.963 278.5 111.963H315.5C316.724 111.963 317.72 110.968 317.72 109.745V84.4176C317.72 83.1944 316.724 82.1992 315.5 82.1992H278.5C277.276 82.1992 276.28 83.1944 276.28 84.4176V87.3755H314.205C314.613 87.3755 314.945 87.7066 314.945 88.115C314.945 88.5234 314.613 88.8545 314.205 88.8545H276.28V93.6611H314.205C314.613 93.6611 314.945 93.9922 314.945 94.4006C314.945 94.809 314.613 95.1401 314.205 95.1401H275.54C275.131 95.1401 274.8 94.809 274.8 94.4006V84.4176C274.8 82.3789 276.46 80.7202 278.5 80.7202H315.5C317.54 80.7202 319.2 82.3789 319.2 84.4176ZM313.28 103.644C313.28 101.746 311.168 100.594 309.568 101.627C311.138 104.197 309.28 107.526 306.25 107.526C304.108 107.526 302.365 105.785 302.365 103.644C302.365 100.458 306.013 98.6332 308.562 100.527C311.123 98.6337 314.76 100.464 314.76 103.644C314.76 105.785 313.017 107.526 310.875 107.526C310.466 107.526 310.135 107.195 310.135 106.787C310.135 106.379 310.466 106.047 310.875 106.047C312.201 106.047 313.28 104.969 313.28 103.644ZM308.655 103.644C308.655 102.319 307.576 101.241 306.25 101.241C304.924 101.241 303.845 102.319 303.845 103.644C303.845 104.969 304.924 106.047 306.25 106.047C307.576 106.047 308.655 104.969 308.655 103.644ZM281.552 102.073H287.75C288.158 102.073 288.49 101.742 288.49 101.333C288.49 100.925 288.158 100.594 287.75 100.594H281.552C281.144 100.594 280.812 100.925 280.812 101.333C280.812 101.742 281.144 102.073 281.552 102.073ZM281.552 106.694H287.75C288.158 106.694 288.49 106.363 288.49 105.955C288.49 105.547 288.158 105.216 287.75 105.216H281.552C281.144 105.216 280.812 105.547 280.812 105.955C280.812 106.363 281.144 106.694 281.552 106.694Z" fill="white" style="mix-blend-mode:overlay"/>
</g>
<path d="M332.986 96.9855C332.986 117.416 316.423 133.978 295.993 133.978C275.562 133.978 259 117.416 259 96.9855C259 76.5549 275.562 59.9927 295.993 59.9927C316.423 59.9927 332.986 76.5549 332.986 96.9855Z" fill="url(#paint2_linear)"/>
<mask id="mask1" mask-type="alpha" maskUnits="userSpaceOnUse" x="259" y="60" width="74" height="74">
<circle cx="296" cy="97" r="37" fill="url(#paint3_linear)"/>
</mask>
<g mask="url(#mask1)">
<path fill-rule="evenodd" clip-rule="evenodd" d="M316.933 91.3942C317.338 92.1861 317.922 92.8729 318.638 93.4C319.8 94.4467 321 95.5333 321 97C321 98.4667 319.8 99.5533 318.638 100.604C317.922 101.131 317.338 101.818 316.933 102.609C316.877 103.534 317.041 104.459 317.411 105.309L317.411 105.31C317.878 106.771 318.36 108.282 317.653 109.504C316.935 110.745 315.371 111.082 313.858 111.409L313.857 111.409C312.952 111.51 312.083 111.822 311.321 112.321C310.821 113.083 310.509 113.952 310.408 114.858C310.082 116.371 309.742 117.935 308.504 118.653C307.281 119.36 305.773 118.879 304.314 118.412L304.309 118.411C303.459 118.042 302.535 117.878 301.61 117.933C300.818 118.338 300.131 118.922 299.604 119.638C298.553 120.8 297.467 122 296 122C294.533 122 293.447 120.8 292.396 119.638C291.869 118.922 291.182 118.338 290.391 117.933C289.466 117.878 288.541 118.041 287.691 118.411L287.688 118.412C286.226 118.878 284.718 119.36 283.496 118.653C282.255 117.935 281.918 116.371 281.591 114.858L281.591 114.857C281.49 113.952 281.178 113.083 280.679 112.321C279.917 111.821 279.047 111.509 278.142 111.408C276.629 111.082 275.065 110.742 274.348 109.504C273.64 108.281 274.122 106.772 274.589 105.311L274.589 105.309C274.959 104.46 275.123 103.535 275.067 102.61C274.662 101.818 274.078 101.131 273.362 100.604C272.2 99.5533 271 98.4667 271 97C271 95.5333 272.2 94.4467 273.362 93.3958C274.078 92.8689 274.662 92.1824 275.067 91.3908C275.123 90.4657 274.959 89.5405 274.589 88.6908L274.589 88.6903C274.122 87.2288 273.64 85.7182 274.348 84.4958C275.065 83.2554 276.629 82.9177 278.142 82.5911L278.143 82.5908C279.048 82.4903 279.917 82.178 280.679 81.6792C281.18 80.9172 281.494 80.0478 281.596 79.1417C281.922 77.6292 282.262 76.065 283.5 75.3475C284.722 74.6405 286.229 75.1215 287.687 75.5865L287.695 75.5892C288.545 75.9584 289.469 76.122 290.394 76.0667C291.186 75.6619 291.873 75.0781 292.4 74.3617C293.447 73.2 294.533 72 296 72C297.467 72 298.553 73.2 299.604 74.3617C300.131 75.0779 300.818 75.6617 301.609 76.0667C302.534 76.1222 303.459 75.9586 304.309 75.5892L304.312 75.5883C305.774 75.1219 307.282 74.6404 308.504 75.3475C309.745 76.0648 310.082 77.6291 310.409 79.142L310.409 79.1433C310.51 80.0484 310.822 80.9172 311.321 81.6792C312.083 82.18 312.952 82.4941 313.858 82.5958C315.371 82.9225 316.935 83.2625 317.653 84.5C318.36 85.7229 317.878 87.2322 317.411 88.6934L317.411 88.6934L317.411 88.695C317.041 89.5445 316.877 90.4694 316.933 91.3942ZM315.323 102.179C315.783 101.058 316.543 100.086 317.52 99.3692L317.522 99.3675C318.413 98.5605 319.333 97.727 319.333 97C319.333 96.273 318.413 95.4395 317.522 94.6325L317.52 94.6308C316.543 93.9142 315.783 92.9415 315.323 91.82C315.152 90.5851 315.325 89.327 315.823 88.1842C316.18 87.0683 316.547 85.9142 316.21 85.33C315.863 84.7297 314.666 84.4713 313.51 84.2215L313.507 84.2208C312.281 84.0852 311.117 83.6133 310.142 82.8575C309.331 82.0475 309.051 80.75 308.78 79.495L308.78 79.493C308.53 78.3353 308.271 77.1381 307.669 76.7892C307.086 76.4558 305.933 76.82 304.816 77.1767C303.673 77.6745 302.414 77.8475 301.179 77.6767C300.058 77.217 299.086 76.4569 298.369 75.48L298.367 75.4782C297.561 74.5871 296.727 73.6667 296 73.6667C295.273 73.6667 294.439 74.5871 293.632 75.4782L293.631 75.48C292.914 76.4572 291.941 77.2174 290.82 77.6767C289.697 77.9783 288.418 77.5717 287.184 77.1767L287.172 77.1729C286.06 76.8174 284.915 76.4512 284.333 76.79C283.733 77.1372 283.475 78.3336 283.225 79.4901L283.224 79.4933C283.089 80.719 282.617 81.8832 281.861 82.8575C281.051 83.6692 279.753 83.9492 278.498 84.22L278.498 84.22L278.496 84.2204C277.339 84.4703 276.141 84.7287 275.793 85.3308C275.459 85.9142 275.823 87.0683 276.18 88.1842C276.678 89.3272 276.851 90.5857 276.68 91.8208C276.22 92.9418 275.46 93.9142 274.483 94.6308C273.588 95.4383 272.667 96.2725 272.667 97C272.667 97.727 273.587 98.5605 274.478 99.3675L274.48 99.3692C275.457 100.086 276.217 101.059 276.677 102.18C276.848 103.415 276.675 104.673 276.177 105.816C275.82 106.932 275.452 108.083 275.79 108.667C276.137 109.267 277.334 109.525 278.49 109.775L278.493 109.776C279.719 109.911 280.883 110.383 281.858 111.139C282.669 111.949 282.949 113.247 283.22 114.502L283.22 114.502L283.22 114.504C283.47 115.661 283.729 116.859 284.331 117.208C284.914 117.541 286.066 117.177 287.184 116.82C288.08 116.482 289.021 116.279 289.976 116.218C290.261 116.217 290.545 116.252 290.821 116.323C291.942 116.783 292.914 117.543 293.631 118.52L293.632 118.522C294.439 119.413 295.273 120.333 296 120.333C296.727 120.333 297.561 119.413 298.367 118.522L298.369 118.52C299.086 117.543 300.059 116.783 301.18 116.323C302.415 116.153 303.673 116.326 304.816 116.823L304.818 116.824L304.818 116.824C305.932 117.18 307.084 117.547 307.67 117.21C308.27 116.863 308.529 115.666 308.778 114.51L308.779 114.507C308.915 113.281 309.387 112.117 310.142 111.142C310.952 110.331 312.25 110.051 313.505 109.78L313.507 109.78C314.665 109.53 315.862 109.271 316.211 108.669C316.544 108.086 316.18 106.932 315.823 105.816C315.325 104.673 315.152 103.414 315.323 102.179ZM296.833 81.1667C296.833 81.6269 296.46 82 296 82C295.54 82 295.167 81.6269 295.167 81.1667V79.5C295.167 79.0398 295.54 78.6667 296 78.6667C296.46 78.6667 296.833 79.0398 296.833 79.5V81.1667ZM291.097 81.9216C291.194 82.2855 291.524 82.5388 291.901 82.5391C291.974 82.5395 292.047 82.53 292.118 82.5108C292.562 82.3916 292.826 81.9351 292.707 81.4908L292.276 79.8808C292.272 79.8662 292.268 79.8517 292.264 79.8373C292.133 79.3962 291.669 79.1449 291.228 79.2762C290.787 79.4074 290.535 79.8714 290.667 80.3125L291.097 81.9216ZM287.965 81.4179L287.971 81.4275L288.804 82.8715C289.034 83.2701 288.898 83.7798 288.499 84.0099C288.373 84.0829 288.229 84.1214 288.083 84.1215C287.785 84.1219 287.51 83.963 287.361 83.7049L286.528 82.2607C286.295 81.8637 286.428 81.3531 286.825 81.1204C287.222 80.8877 287.733 81.0208 287.965 81.4179ZM284.215 86.3934C284.371 86.5496 284.583 86.6375 284.804 86.6375C285.025 86.6375 285.237 86.5497 285.393 86.3936C285.719 86.0682 285.719 85.5406 285.393 85.215L284.214 84.0359C284.208 84.0289 284.201 84.0221 284.194 84.0153C283.863 83.6957 283.335 83.7048 283.015 84.0359C282.696 84.3669 282.705 84.8945 283.036 85.2142L284.215 86.3934ZM283.036 108.786L284.215 107.607C284.546 107.287 285.074 107.296 285.393 107.627C285.705 107.95 285.705 108.462 285.393 108.785L284.214 109.964C284.058 110.12 283.846 110.208 283.625 110.208C283.165 110.208 282.792 109.835 282.792 109.375C282.792 109.154 282.88 108.942 283.036 108.786ZM288.503 109.998C288.106 109.765 287.595 109.898 287.363 110.295L286.529 111.739C286.456 111.866 286.418 112.009 286.418 112.155C286.417 112.615 286.79 112.989 287.25 112.989C287.548 112.989 287.824 112.831 287.973 112.572L288.806 111.128C289.031 110.732 288.896 110.228 288.503 109.998ZM291.097 112.078C291.218 111.634 291.676 111.372 292.12 111.494C292.561 111.614 292.823 112.067 292.707 112.509L292.275 114.119C292.178 114.483 291.848 114.736 291.471 114.737C291.011 114.737 290.638 114.364 290.638 113.903C290.638 113.83 290.647 113.758 290.666 113.687L291.097 112.078ZM296 112C295.54 112 295.167 112.373 295.167 112.833V114.5C295.167 114.96 295.54 115.333 296 115.333C296.46 115.333 296.833 114.96 296.833 114.5V112.833C296.833 112.373 296.46 112 296 112ZM299.888 111.492C300.33 111.376 300.783 111.637 300.903 112.078L301.334 113.688C301.453 114.132 301.19 114.589 300.745 114.708C300.675 114.727 300.602 114.737 300.529 114.737C300.152 114.736 299.822 114.483 299.725 114.119L299.293 112.509C299.176 112.064 299.443 111.608 299.888 111.492ZM304.637 110.295L304.632 110.285C304.399 109.888 303.888 109.755 303.491 109.988C303.094 110.221 302.961 110.731 303.194 111.128L304.027 112.573C304.176 112.831 304.452 112.99 304.75 112.989C304.896 112.989 305.039 112.951 305.166 112.878C305.564 112.647 305.701 112.138 305.471 111.739L304.637 110.295ZM306.627 107.607C306.95 107.295 307.462 107.295 307.785 107.607L308.964 108.786C309.289 109.111 309.289 109.639 308.964 109.964C308.808 110.121 308.596 110.208 308.375 110.208C308.154 110.208 307.942 110.121 307.786 109.964L306.607 108.785C306.287 108.454 306.296 107.927 306.627 107.607ZM307.196 86.6375C307.417 86.6375 307.629 86.5496 307.785 86.3934L308.964 85.2142L308.974 85.2051L308.985 85.1938C309.304 84.8627 309.295 84.3352 308.964 84.0154C308.633 83.6958 308.106 83.7048 307.786 84.0359L306.607 85.215C306.451 85.3713 306.363 85.5832 306.363 85.804C306.363 86.2643 306.736 86.6374 307.196 86.6375ZM304.639 83.705C304.49 83.9631 304.215 84.122 303.917 84.1216C303.456 84.1211 303.084 83.7477 303.084 83.2876C303.084 83.1415 303.123 82.9982 303.196 82.8718L304.029 81.4276C304.256 81.0275 304.765 80.8875 305.165 81.1149C305.566 81.3423 305.705 81.851 305.478 82.2511L305.472 82.2608L304.639 83.705ZM299.883 82.5109C299.953 82.53 300.026 82.5396 300.099 82.5392C300.476 82.5389 300.806 82.2857 300.903 81.9217L301.334 80.3125C301.339 80.2982 301.342 80.2837 301.346 80.2691C301.453 79.8215 301.177 79.3718 300.73 79.2646C300.282 79.1574 299.832 79.4334 299.725 79.881L299.293 81.491C299.175 81.9352 299.438 82.3917 299.883 82.5109ZM292.667 102H298.5C298.96 102 299.333 102.373 299.333 102.833C299.333 103.294 298.96 103.667 298.5 103.667H291.833C291.373 103.667 291 103.294 291 102.833V91.1667C291 90.7064 291.373 90.3333 291.833 90.3333H298.5C298.96 90.3333 299.333 90.7064 299.333 91.1667C299.333 91.6269 298.96 92 298.5 92H292.667V96.1667H296.833C297.294 96.1667 297.667 96.5398 297.667 97C297.667 97.4602 297.294 97.8333 296.833 97.8333H292.667V102ZM287.033 103.353C287.091 103.423 287.159 103.482 287.237 103.529C287.264 103.549 287.291 103.567 287.32 103.583C287.428 103.636 287.547 103.665 287.667 103.667C287.766 103.665 287.864 103.645 287.957 103.608C287.988 103.595 288.019 103.579 288.049 103.562C288.084 103.548 288.117 103.53 288.15 103.511C288.161 103.504 288.168 103.494 288.176 103.485L288.176 103.485C288.181 103.477 288.187 103.47 288.194 103.463C288.239 103.426 288.279 103.383 288.314 103.337C288.381 103.258 288.428 103.165 288.453 103.064C288.469 103.01 288.481 102.954 288.486 102.897C288.486 102.886 288.489 102.875 288.493 102.864C288.496 102.853 288.499 102.842 288.499 102.831V91.1667C288.499 90.7068 288.127 90.3337 287.667 90.3333C287.207 90.3333 286.834 90.7064 286.834 91.1667V100.233L280.011 90.6825C280.004 90.6721 279.994 90.6646 279.985 90.657C279.977 90.6513 279.97 90.6455 279.964 90.6383C279.926 90.594 279.883 90.554 279.837 90.5192C279.797 90.4876 279.755 90.4598 279.711 90.4358C279.664 90.4134 279.616 90.3953 279.566 90.3817C279.512 90.3644 279.456 90.3532 279.399 90.3483C279.388 90.3483 279.378 90.345 279.367 90.3417C279.357 90.3384 279.346 90.335 279.334 90.335C279.306 90.3392 279.278 90.345 279.251 90.3525C279.194 90.3573 279.139 90.3681 279.084 90.385C279.03 90.403 278.978 90.4264 278.929 90.455C278.902 90.4656 278.876 90.4775 278.85 90.4908C278.84 90.4979 278.832 90.5075 278.825 90.5171C278.819 90.5244 278.813 90.5318 278.806 90.5383C278.762 90.5759 278.722 90.6184 278.687 90.665C278.655 90.7041 278.627 90.7458 278.604 90.79C278.58 90.8372 278.562 90.8867 278.549 90.9375C278.532 90.9918 278.521 91.0476 278.515 91.1042C278.515 91.1158 278.512 91.1267 278.509 91.1375C278.505 91.1483 278.502 91.1592 278.502 91.1708V102.833C278.502 103.294 278.875 103.667 279.335 103.667C279.795 103.667 280.169 103.294 280.169 102.833V93.7667L286.991 103.317C286.997 103.326 287.005 103.332 287.014 103.338C287.02 103.342 287.027 103.347 287.033 103.353ZM312.842 90.3516L312.844 90.3521C313.294 90.4498 313.579 90.8935 313.482 91.3433L310.982 103.01C310.903 103.377 310.588 103.646 310.213 103.667H310.167C309.808 103.666 309.49 103.437 309.377 103.097L306.833 95.4683L304.287 103.097C304.166 103.45 303.826 103.682 303.453 103.665C303.078 103.644 302.764 103.375 302.685 103.008L300.185 91.3416C300.088 90.8915 300.375 90.4483 300.825 90.3516C301.275 90.255 301.718 90.5415 301.815 90.9916L303.675 99.6733L306.04 92.57C306.123 92.3184 306.32 92.1212 306.571 92.0385C307.009 91.8948 307.479 92.1328 307.623 92.57L309.992 99.6733L311.852 90.9916L311.852 90.9911C311.948 90.5412 312.392 90.2549 312.842 90.3516Z" fill="white" style="mix-blend-mode:overlay"/>
</g>
<g filter="url(#filter0_d)">
<path fill-rule="evenodd" clip-rule="evenodd" d="M30.3986 23C26.3125 23 23 26.3125 23 30.3986V165.601C23 169.688 26.3124 173 30.3986 173H285.601C289.688 173 293 169.688 293 165.601V142.998C292.854 142.999 292.708 143 292.562 143C266.999 143 246.276 122.853 246.276 98C246.276 73.1472 266.999 53 292.562 53C292.708 53 292.854 53.0007 293 53.002V30.3986C293 26.3125 289.688 23 285.601 23H30.3986Z" fill="white"/>
</g>
<g filter="url(#filter1_d)">
<path d="M283 148.396H283.37V148.068L283.045 148.028L283 148.396ZM283 45.576L283.045 45.9433L283.37 45.9038V45.576H283ZM32.6301 42.6364C32.6301 42.8407 32.7957 43.0063 33 43.0063C33.2043 43.0063 33.3699 42.8407 33.3699 42.6364H32.6301ZM33.3699 47.9091C33.3699 47.7048 33.2043 47.5392 33 47.5392C32.7957 47.5392 32.6301 47.7048 32.6301 47.9091H33.3699ZM32.6301 53.1818C32.6301 53.3861 32.7957 53.5517 33 53.5517C33.2043 53.5517 33.3699 53.3861 33.3699 53.1818H32.6301ZM33.3699 58.4545C33.3699 58.2502 33.2043 58.0846 33 58.0846C32.7957 58.0846 32.6301 58.2502 32.6301 58.4545H33.3699ZM32.6301 63.7273C32.6301 63.9316 32.7957 64.0972 33 64.0972C33.2043 64.0972 33.3699 63.9316 33.3699 63.7273H32.6301ZM33.3699 69C33.3699 68.7957 33.2043 68.6301 33 68.6301C32.7957 68.6301 32.6301 68.7957 32.6301 69H33.3699ZM32.6301 74.2727C32.6301 74.477 32.7957 74.6427 33 74.6427C33.2043 74.6427 33.3699 74.477 33.3699 74.2727H32.6301ZM33.3699 79.5455C33.3699 79.3412 33.2043 79.1755 33 79.1755C32.7957 79.1755 32.6301 79.3412 32.6301 79.5455H33.3699ZM32.6301 84.8182C32.6301 85.0225 32.7957 85.1881 33 85.1881C33.2043 85.1881 33.3699 85.0225 33.3699 84.8182H32.6301ZM33.3699 90.0909C33.3699 89.8866 33.2043 89.721 33 89.721C32.7957 89.721 32.6301 89.8866 32.6301 90.0909H33.3699ZM32.6301 95.3636C32.6301 95.5679 32.7957 95.7336 33 95.7336C33.2043 95.7336 33.3699 95.5679 33.3699 95.3636H32.6301ZM33.3699 100.636C33.3699 100.432 33.2043 100.266 33 100.266C32.7957 100.266 32.6301 100.432 32.6301 100.636H33.3699ZM32.6301 105.909C32.6301 106.113 32.7957 106.279 33 106.279C33.2043 106.279 33.3699 106.113 33.3699 105.909H32.6301ZM33.3699 111.182C33.3699 110.978 33.2043 110.812 33 110.812C32.7957 110.812 32.6301 110.978 32.6301 111.182H33.3699ZM32.6301 116.455C32.6301 116.659 32.7957 116.824 33 116.824C33.2043 116.824 33.3699 116.659 33.3699 116.455H32.6301ZM33.3699 121.727C33.3699 121.523 33.2043 121.357 33 121.357C32.7957 121.357 32.6301 121.523 32.6301 121.727H33.3699ZM32.6301 127C32.6301 127.204 32.7957 127.37 33 127.37C33.2043 127.37 33.3699 127.204 33.3699 127H32.6301ZM33.3699 132.273C33.3699 132.068 33.2043 131.903 33 131.903C32.7957 131.903 32.6301 132.068 32.6301 132.273H33.3699ZM32.6301 137.545C32.6301 137.75 32.7957 137.915 33 137.915C33.2043 137.915 33.3699 137.75 33.3699 137.545H32.6301ZM33.3699 142.818C33.3699 142.614 33.2043 142.448 33 142.448C32.7957 142.448 32.6301 142.614 32.6301 142.818H33.3699ZM32.6301 148.091C32.6301 148.295 32.7957 148.461 33 148.461C33.2043 148.461 33.3699 148.295 33.3699 148.091H32.6301ZM33.3699 153.364C33.3699 153.159 33.2043 152.994 33 152.994C32.7957 152.994 32.6301 153.159 32.6301 153.364H33.3699ZM33.1895 158.821C33.2677 159.01 33.4841 159.099 33.6729 159.021C33.8616 158.943 33.9511 158.727 33.8729 158.538L33.1895 158.821ZM37.4622 162.127C37.2735 162.049 37.057 162.138 36.9788 162.327C36.9005 162.516 36.9901 162.732 37.1788 162.811L37.4622 162.127ZM42.5652 163.37C42.7695 163.37 42.9351 163.204 42.9351 163C42.9351 162.796 42.7695 162.63 42.5652 162.63V163.37ZM47.6957 162.63C47.4913 162.63 47.3257 162.796 47.3257 163C47.3257 163.204 47.4913 163.37 47.6957 163.37V162.63ZM52.8261 163.37C53.0304 163.37 53.196 163.204 53.196 163C53.196 162.796 53.0304 162.63 52.8261 162.63V163.37ZM57.9565 162.63C57.7522 162.63 57.5866 162.796 57.5866 163C57.5866 163.204 57.7522 163.37 57.9565 163.37V162.63ZM63.087 163.37C63.2913 163.37 63.4569 163.204 63.4569 163C63.4569 162.796 63.2913 162.63 63.087 162.63V163.37ZM68.2174 162.63C68.0131 162.63 67.8475 162.796 67.8475 163C67.8475 163.204 68.0131 163.37 68.2174 163.37V162.63ZM73.3478 163.37C73.5521 163.37 73.7178 163.204 73.7178 163C73.7178 162.796 73.5521 162.63 73.3478 162.63V163.37ZM78.4783 162.63C78.274 162.63 78.1083 162.796 78.1083 163C78.1083 163.204 78.274 163.37 78.4783 163.37V162.63ZM83.6087 163.37C83.813 163.37 83.9786 163.204 83.9786 163C83.9786 162.796 83.813 162.63 83.6087 162.63V163.37ZM88.7391 162.63C88.5348 162.63 88.3692 162.796 88.3692 163C88.3692 163.204 88.5348 163.37 88.7391 163.37V162.63ZM93.8696 163.37C94.0739 163.37 94.2395 163.204 94.2395 163C94.2395 162.796 94.0739 162.63 93.8696 162.63V163.37ZM99 162.63C98.7957 162.63 98.6301 162.796 98.6301 163C98.6301 163.204 98.7957 163.37 99 163.37V162.63ZM104.13 163.37C104.335 163.37 104.5 163.204 104.5 163C104.5 162.796 104.335 162.63 104.13 162.63V163.37ZM109.261 162.63C109.057 162.63 108.891 162.796 108.891 163C108.891 163.204 109.057 163.37 109.261 163.37V162.63ZM114.391 163.37C114.596 163.37 114.761 163.204 114.761 163C114.761 162.796 114.596 162.63 114.391 162.63V163.37ZM119.522 162.63C119.317 162.63 119.152 162.796 119.152 163C119.152 163.204 119.317 163.37 119.522 163.37V162.63ZM124.652 163.37C124.856 163.37 125.022 163.204 125.022 163C125.022 162.796 124.856 162.63 124.652 162.63V163.37ZM129.783 162.63C129.578 162.63 129.413 162.796 129.413 163C129.413 163.204 129.578 163.37 129.783 163.37V162.63ZM134.913 163.37C135.117 163.37 135.283 163.204 135.283 163C135.283 162.796 135.117 162.63 134.913 162.63V163.37ZM140.043 162.63C139.839 162.63 139.674 162.796 139.674 163C139.674 163.204 139.839 163.37 140.043 163.37V162.63ZM145.174 163.37C145.378 163.37 145.544 163.204 145.544 163C145.544 162.796 145.378 162.63 145.174 162.63V163.37ZM150.304 162.63C150.1 162.63 149.934 162.796 149.934 163C149.934 163.204 150.1 163.37 150.304 163.37V162.63ZM155.435 163.37C155.639 163.37 155.805 163.204 155.805 163C155.805 162.796 155.639 162.63 155.435 162.63V163.37ZM160.565 162.63C160.361 162.63 160.195 162.796 160.195 163C160.195 163.204 160.361 163.37 160.565 163.37V162.63ZM165.696 163.37C165.9 163.37 166.066 163.204 166.066 163C166.066 162.796 165.9 162.63 165.696 162.63V163.37ZM170.826 162.63C170.622 162.63 170.456 162.796 170.456 163C170.456 163.204 170.622 163.37 170.826 163.37V162.63ZM175.956 163.37C176.161 163.37 176.326 163.204 176.326 163C176.326 162.796 176.161 162.63 175.956 162.63V163.37ZM181.087 162.63C180.883 162.63 180.717 162.796 180.717 163C180.717 163.204 180.883 163.37 181.087 163.37V162.63ZM186.217 163.37C186.422 163.37 186.587 163.204 186.587 163C186.587 162.796 186.422 162.63 186.217 162.63V163.37ZM191.348 162.63C191.143 162.63 190.978 162.796 190.978 163C190.978 163.204 191.143 163.37 191.348 163.37V162.63ZM196.478 163.37C196.683 163.37 196.848 163.204 196.848 163C196.848 162.796 196.683 162.63 196.478 162.63V163.37ZM201.609 162.63C201.404 162.63 201.239 162.796 201.239 163C201.239 163.204 201.404 163.37 201.609 163.37V162.63ZM206.739 163.37C206.943 163.37 207.109 163.204 207.109 163C207.109 162.796 206.943 162.63 206.739 162.63V163.37ZM211.87 162.63C211.665 162.63 211.5 162.796 211.5 163C211.5 163.204 211.665 163.37 211.87 163.37V162.63ZM217 163.37C217.204 163.37 217.37 163.204 217.37 163C217.37 162.796 217.204 162.63 217 162.63V163.37ZM222.13 162.63C221.926 162.63 221.76 162.796 221.76 163C221.76 163.204 221.926 163.37 222.13 163.37V162.63ZM227.261 163.37C227.465 163.37 227.631 163.204 227.631 163C227.631 162.796 227.465 162.63 227.261 162.63V163.37ZM232.391 162.63C232.187 162.63 232.021 162.796 232.021 163C232.021 163.204 232.187 163.37 232.391 163.37V162.63ZM237.522 163.37C237.726 163.37 237.892 163.204 237.892 163C237.892 162.796 237.726 162.63 237.522 162.63V163.37ZM242.652 162.63C242.448 162.63 242.282 162.796 242.282 163C242.282 163.204 242.448 163.37 242.652 163.37V162.63ZM247.783 163.37C247.987 163.37 248.152 163.204 248.152 163C248.152 162.796 247.987 162.63 247.783 162.63V163.37ZM252.913 162.63C252.709 162.63 252.543 162.796 252.543 163C252.543 163.204 252.709 163.37 252.913 163.37V162.63ZM258.043 163.37C258.248 163.37 258.413 163.204 258.413 163C258.413 162.796 258.248 162.63 258.043 162.63V163.37ZM263.174 162.63C262.97 162.63 262.804 162.796 262.804 163C262.804 163.204 262.97 163.37 263.174 163.37V162.63ZM268.304 163.37C268.509 163.37 268.674 163.204 268.674 163C268.674 162.796 268.509 162.63 268.304 162.63V163.37ZM273.435 162.63C273.23 162.63 273.065 162.796 273.065 163C273.065 163.204 273.23 163.37 273.435 163.37V162.63ZM278.821 162.811C279.01 162.732 279.099 162.516 279.021 162.327C278.943 162.138 278.727 162.049 278.538 162.127L278.821 162.811ZM282.127 158.538C282.049 158.727 282.138 158.943 282.327 159.021C282.516 159.099 282.732 159.01 282.811 158.821L282.127 158.538ZM283.37 154.099C283.37 153.895 283.204 153.729 283 153.729C282.796 153.729 282.63 153.895 282.63 154.099H283.37ZM282.63 150.297C282.63 150.501 282.796 150.667 283 150.667C283.204 150.667 283.37 150.501 283.37 150.297H282.63ZM280.412 147.639C280.211 147.604 280.019 147.739 279.984 147.94C279.949 148.141 280.083 148.333 280.285 148.368L280.412 147.639ZM275.024 147.166C275.22 147.221 275.425 147.107 275.481 146.911C275.536 146.714 275.422 146.51 275.226 146.454L275.024 147.166ZM270.192 144.736C270.003 144.66 269.787 144.752 269.711 144.941C269.635 145.131 269.728 145.346 269.917 145.422L270.192 144.736ZM265.02 143.158C265.201 143.253 265.425 143.184 265.52 143.003C265.615 142.823 265.546 142.599 265.365 142.504L265.02 143.158ZM260.794 139.783C260.624 139.669 260.395 139.715 260.281 139.885C260.168 140.055 260.214 140.285 260.383 140.398L260.794 139.783ZM256.056 137.175C256.214 137.305 256.447 137.283 256.577 137.126C256.708 136.969 256.686 136.735 256.528 136.605L256.056 137.175ZM252.612 133.006C252.469 132.86 252.234 132.858 252.089 133.001C251.943 133.144 251.941 133.378 252.084 133.524L252.612 133.006ZM248.507 129.485C248.634 129.644 248.867 129.67 249.027 129.543C249.187 129.416 249.213 129.183 249.085 129.023L248.507 129.485ZM245.987 124.699C245.877 124.527 245.648 124.477 245.476 124.588C245.304 124.698 245.254 124.927 245.365 125.099L245.987 124.699ZM242.691 120.411C242.783 120.594 243.006 120.667 243.188 120.575C243.371 120.483 243.444 120.261 243.352 120.078L242.691 120.411ZM241.21 115.21C241.138 115.019 240.924 114.923 240.733 114.995C240.542 115.068 240.446 115.281 240.519 115.472L241.21 115.21ZM238.872 110.335C238.924 110.532 239.126 110.65 239.324 110.598C239.521 110.546 239.639 110.343 239.587 110.146L238.872 110.335ZM238.499 104.939C238.467 104.738 238.278 104.599 238.077 104.631C237.875 104.662 237.736 104.851 237.768 105.053L238.499 104.939ZM237.216 99.6844C237.227 99.8884 237.4 100.045 237.605 100.035C237.809 100.025 237.966 99.8508 237.955 99.6467L237.216 99.6844ZM237.955 94.3248C237.966 94.1208 237.809 93.9469 237.605 93.9365C237.4 93.9261 237.227 94.0831 237.216 94.2872L237.955 94.3248ZM237.768 88.9186C237.736 89.1205 237.875 89.3096 238.077 89.341C238.278 89.3723 238.467 89.234 238.499 89.0322L237.768 88.9186ZM239.587 83.8257C239.639 83.6281 239.521 83.4257 239.324 83.3736C239.126 83.3214 238.924 83.4393 238.872 83.6368L239.587 83.8257ZM240.519 78.4992C240.446 78.6902 240.542 78.9038 240.733 78.9762C240.924 79.0487 241.138 78.9525 241.21 78.7615L240.519 78.4992ZM243.352 73.8931C243.444 73.7106 243.371 73.4882 243.188 73.3963C243.006 73.3044 242.783 73.3779 242.691 73.5604L243.352 73.8931ZM245.365 68.873C245.254 69.045 245.304 69.2738 245.476 69.384C245.648 69.4943 245.877 69.4442 245.987 69.2723L245.365 68.873ZM249.085 64.9484C249.213 64.7886 249.187 64.5559 249.027 64.4285C248.867 64.3011 248.634 64.3273 248.507 64.487L249.085 64.9484ZM252.084 60.4476C251.941 60.5934 251.943 60.8276 252.089 60.9707C252.234 61.1138 252.469 61.1117 252.612 60.9659L252.084 60.4476ZM256.528 57.3665C256.686 57.2362 256.708 57.003 256.577 56.8456C256.447 56.6883 256.214 56.6664 256.056 56.7967L256.528 57.3665ZM260.383 53.5735C260.214 53.687 260.168 53.9167 260.281 54.0866C260.395 54.2565 260.624 54.3023 260.794 54.1889L260.383 53.5735ZM265.365 51.4681C265.546 51.3728 265.615 51.149 265.52 50.9683C265.425 50.7876 265.201 50.7183 265.02 50.8136L265.365 51.4681ZM269.917 48.5492C269.728 48.6252 269.635 48.8405 269.711 49.0301C269.787 49.2198 270.003 49.3119 270.192 49.2359L269.917 48.5492ZM275.226 47.5177C275.422 47.4618 275.536 47.2573 275.481 47.0607C275.425 46.8642 275.22 46.7501 275.024 46.806L275.226 47.5177ZM280.285 45.6035C280.083 45.6386 279.949 45.8302 279.984 46.0315C280.019 46.2327 280.211 46.3675 280.412 46.3324L280.285 45.6035ZM283.37 44.182C283.37 43.9777 283.204 43.8121 283 43.8121C282.796 43.8121 282.63 43.9777 282.63 44.182H283.37ZM282.63 41.394C282.63 41.5983 282.796 41.7639 283 41.7639C283.204 41.7639 283.37 41.5983 283.37 41.394H282.63ZM282.811 37.1788C282.732 36.9901 282.516 36.9005 282.327 36.9788C282.138 37.057 282.049 37.2735 282.127 37.4622L282.811 37.1788ZM278.538 33.8729C278.727 33.9511 278.943 33.8616 279.021 33.6729C279.099 33.4841 279.01 33.2677 278.821 33.1895L278.538 33.8729ZM273.435 32.6301C273.23 32.6301 273.065 32.7957 273.065 33C273.065 33.2043 273.23 33.3699 273.435 33.3699V32.6301ZM268.304 33.3699C268.509 33.3699 268.674 33.2043 268.674 33C268.674 32.7957 268.509 32.6301 268.304 32.6301V33.3699ZM263.174 32.6301C262.97 32.6301 262.804 32.7957 262.804 33C262.804 33.2043 262.97 33.3699 263.174 33.3699V32.6301ZM258.043 33.3699C258.248 33.3699 258.413 33.2043 258.413 33C258.413 32.7957 258.248 32.6301 258.043 32.6301V33.3699ZM252.913 32.6301C252.709 32.6301 252.543 32.7957 252.543 33C252.543 33.2043 252.709 33.3699 252.913 33.3699V32.6301ZM247.783 33.3699C247.987 33.3699 248.153 33.2043 248.153 33C248.153 32.7957 247.987 32.6301 247.783 32.6301V33.3699ZM242.652 32.6301C242.448 32.6301 242.282 32.7957 242.282 33C242.282 33.2043 242.448 33.3699 242.652 33.3699V32.6301ZM237.522 33.3699C237.726 33.3699 237.892 33.2043 237.892 33C237.892 32.7957 237.726 32.6301 237.522 32.6301V33.3699ZM232.391 32.6301C232.187 32.6301 232.021 32.7957 232.021 33C232.021 33.2043 232.187 33.3699 232.391 33.3699V32.6301ZM227.261 33.3699C227.465 33.3699 227.631 33.2043 227.631 33C227.631 32.7957 227.465 32.6301 227.261 32.6301V33.3699ZM222.13 32.6301C221.926 32.6301 221.76 32.7957 221.76 33C221.76 33.2043 221.926 33.3699 222.13 33.3699V32.6301ZM217 33.3699C217.204 33.3699 217.37 33.2043 217.37 33C217.37 32.7957 217.204 32.6301 217 32.6301V33.3699ZM211.87 32.6301C211.665 32.6301 211.5 32.7957 211.5 33C211.5 33.2043 211.665 33.3699 211.87 33.3699V32.6301ZM206.739 33.3699C206.943 33.3699 207.109 33.2043 207.109 33C207.109 32.7957 206.943 32.6301 206.739 32.6301V33.3699ZM201.609 32.6301C201.404 32.6301 201.239 32.7957 201.239 33C201.239 33.2043 201.404 33.3699 201.609 33.3699V32.6301ZM196.478 33.3699C196.683 33.3699 196.848 33.2043 196.848 33C196.848 32.7957 196.683 32.6301 196.478 32.6301V33.3699ZM191.348 32.6301C191.144 32.6301 190.978 32.7957 190.978 33C190.978 33.2043 191.144 33.3699 191.348 33.3699V32.6301ZM186.217 33.3699C186.422 33.3699 186.587 33.2043 186.587 33C186.587 32.7957 186.422 32.6301 186.217 32.6301V33.3699ZM181.087 32.6301C180.883 32.6301 180.717 32.7957 180.717 33C180.717 33.2043 180.883 33.3699 181.087 33.3699V32.6301ZM175.957 33.3699C176.161 33.3699 176.326 33.2043 176.326 33C176.326 32.7957 176.161 32.6301 175.957 32.6301V33.3699ZM170.826 32.6301C170.622 32.6301 170.456 32.7957 170.456 33C170.456 33.2043 170.622 33.3699 170.826 33.3699V32.6301ZM165.696 33.3699C165.9 33.3699 166.066 33.2043 166.066 33C166.066 32.7957 165.9 32.6301 165.696 32.6301V33.3699ZM160.565 32.6301C160.361 32.6301 160.195 32.7957 160.195 33C160.195 33.2043 160.361 33.3699 160.565 33.3699V32.6301ZM155.435 33.3699C155.639 33.3699 155.805 33.2043 155.805 33C155.805 32.7957 155.639 32.6301 155.435 32.6301V33.3699ZM150.304 32.6301C150.1 32.6301 149.934 32.7957 149.934 33C149.934 33.2043 150.1 33.3699 150.304 33.3699V32.6301ZM145.174 33.3699C145.378 33.3699 145.544 33.2043 145.544 33C145.544 32.7957 145.378 32.6301 145.174 32.6301V33.3699ZM140.043 32.6301C139.839 32.6301 139.674 32.7957 139.674 33C139.674 33.2043 139.839 33.3699 140.043 33.3699V32.6301ZM134.913 33.3699C135.117 33.3699 135.283 33.2043 135.283 33C135.283 32.7957 135.117 32.6301 134.913 32.6301V33.3699ZM129.783 32.6301C129.578 32.6301 129.413 32.7957 129.413 33C129.413 33.2043 129.578 33.3699 129.783 33.3699V32.6301ZM124.652 33.3699C124.857 33.3699 125.022 33.2043 125.022 33C125.022 32.7957 124.857 32.6301 124.652 32.6301V33.3699ZM119.522 32.6301C119.317 32.6301 119.152 32.7957 119.152 33C119.152 33.2043 119.317 33.3699 119.522 33.3699V32.6301ZM114.391 33.3699C114.596 33.3699 114.761 33.2043 114.761 33C114.761 32.7957 114.596 32.6301 114.391 32.6301V33.3699ZM109.261 32.6301C109.057 32.6301 108.891 32.7957 108.891 33C108.891 33.2043 109.057 33.3699 109.261 33.3699V32.6301ZM104.13 33.3699C104.335 33.3699 104.5 33.2043 104.5 33C104.5 32.7957 104.335 32.6301 104.13 32.6301V33.3699ZM99 32.6301C98.7957 32.6301 98.6301 32.7957 98.6301 33C98.6301 33.2043 98.7957 33.3699 99 33.3699V32.6301ZM93.8696 33.3699C94.0739 33.3699 94.2395 33.2043 94.2395 33C94.2395 32.7957 94.0739 32.6301 93.8696 32.6301V33.3699ZM88.7392 32.6301C88.5349 32.6301 88.3692 32.7957 88.3692 33C88.3692 33.2043 88.5349 33.3699 88.7392 33.3699V32.6301ZM83.6088 33.3699C83.8131 33.3699 83.9787 33.2043 83.9787 33C83.9787 32.7957 83.8131 32.6301 83.6088 32.6301V33.3699ZM78.4783 32.6301C78.274 32.6301 78.1084 32.7957 78.1084 33C78.1084 33.2043 78.274 33.3699 78.4783 33.3699V32.6301ZM73.3479 33.3699C73.5522 33.3699 73.7178 33.2043 73.7178 33C73.7178 32.7957 73.5522 32.6301 73.3479 32.6301V33.3699ZM68.2175 32.6301C68.0131 32.6301 67.8475 32.7957 67.8475 33C67.8475 33.2043 68.0131 33.3699 68.2175 33.3699V32.6301ZM63.087 33.3699C63.2913 33.3699 63.4569 33.2043 63.4569 33C63.4569 32.7957 63.2913 32.6301 63.087 32.6301V33.3699ZM57.9566 32.6301C57.7523 32.6301 57.5867 32.7957 57.5867 33C57.5867 33.2043 57.7523 33.3699 57.9566 33.3699V32.6301ZM52.8262 33.3699C53.0305 33.3699 53.1961 33.2043 53.1961 33C53.1961 32.7957 53.0305 32.6301 52.8262 32.6301V33.3699ZM47.6957 32.6301C47.4914 32.6301 47.3258 32.7957 47.3258 33C47.3258 33.2043 47.4914 33.3699 47.6957 33.3699V32.6301ZM42.5653 33.3699C42.7696 33.3699 42.9352 33.2043 42.9352 33C42.9352 32.7957 42.7696 32.6301 42.5653 32.6301V33.3699ZM37.1788 33.1895C36.9901 33.2677 36.9005 33.4841 36.9788 33.6729C37.057 33.8616 37.2735 33.9511 37.4622 33.8729L37.1788 33.1895ZM33.8729 37.4622C33.9511 37.2735 33.8616 37.057 33.6729 36.9788C33.4841 36.9005 33.2677 36.9901 33.1895 37.1788L33.8729 37.4622ZM32.6301 40V42.6364H33.3699V40H32.6301ZM32.6301 47.9091V53.1818H33.3699V47.9091H32.6301ZM32.6301 58.4545V63.7273H33.3699V58.4545H32.6301ZM32.6301 69V74.2727H33.3699V69H32.6301ZM32.6301 79.5455V84.8182H33.3699V79.5455H32.6301ZM32.6301 90.0909V95.3636H33.3699V90.0909H32.6301ZM32.6301 100.636V105.909H33.3699V100.636H32.6301ZM32.6301 111.182V116.455H33.3699V111.182H32.6301ZM32.6301 121.727V127H33.3699V121.727H32.6301ZM32.6301 132.273V137.545H33.3699V132.273H32.6301ZM32.6301 142.818V148.091H33.3699V142.818H32.6301ZM32.6301 153.364V156H33.3699V153.364H32.6301ZM32.6301 156C32.6301 156.999 32.8289 157.952 33.1895 158.821L33.8729 158.538C33.5489 157.757 33.3699 156.9 33.3699 156H32.6301ZM37.1788 162.811C38.0483 163.171 39.0014 163.37 40 163.37V162.63C39.1003 162.63 38.2434 162.451 37.4622 162.127L37.1788 162.811ZM40 163.37H42.5652V162.63H40V163.37ZM47.6957 163.37H52.8261V162.63H47.6957V163.37ZM57.9565 163.37H63.087V162.63H57.9565V163.37ZM68.2174 163.37H73.3478V162.63H68.2174V163.37ZM78.4783 163.37H83.6087V162.63H78.4783V163.37ZM88.7391 163.37H93.8696V162.63H88.7391V163.37ZM99 163.37H104.13V162.63H99V163.37ZM109.261 163.37H114.391V162.63H109.261V163.37ZM119.522 163.37H124.652V162.63H119.522V163.37ZM129.783 163.37H134.913V162.63H129.783V163.37ZM140.043 163.37H145.174V162.63H140.043V163.37ZM150.304 163.37H155.435V162.63H150.304V163.37ZM160.565 163.37H165.696V162.63H160.565V163.37ZM170.826 163.37H175.956V162.63H170.826V163.37ZM181.087 163.37H186.217V162.63H181.087V163.37ZM191.348 163.37H196.478V162.63H191.348V163.37ZM201.609 163.37H206.739V162.63H201.609V163.37ZM211.87 163.37H217V162.63H211.87V163.37ZM222.13 163.37H227.261V162.63H222.13V163.37ZM232.391 163.37H237.522V162.63H232.391V163.37ZM242.652 163.37H247.783V162.63H242.652V163.37ZM252.913 163.37H258.043V162.63H252.913V163.37ZM263.174 163.37H268.304V162.63H263.174V163.37ZM273.435 163.37H276V162.63H273.435V163.37ZM276 163.37C276.999 163.37 277.952 163.171 278.821 162.811L278.538 162.127C277.757 162.451 276.9 162.63 276 162.63V163.37ZM282.811 158.821C283.171 157.952 283.37 156.999 283.37 156H282.63C282.63 156.9 282.451 157.757 282.127 158.538L282.811 158.821ZM283.37 156V154.099H282.63V156H283.37ZM283.37 150.297V148.396H282.63V150.297H283.37ZM283.045 148.028C282.16 147.921 281.282 147.791 280.412 147.639L280.285 148.368C281.168 148.522 282.058 148.654 282.955 148.763L283.045 148.028ZM275.226 146.454C273.51 145.966 271.83 145.392 270.192 144.736L269.917 145.422C271.579 146.088 273.283 146.671 275.024 147.166L275.226 146.454ZM265.365 142.504C263.792 141.674 262.266 140.765 260.794 139.783L260.383 140.398C261.876 141.395 263.424 142.317 265.02 143.158L265.365 142.504ZM256.528 136.605C255.161 135.473 253.854 134.271 252.612 133.006L252.084 133.524C253.344 134.808 254.67 136.026 256.056 137.175L256.528 136.605ZM249.085 129.023C247.981 127.638 246.946 126.195 245.987 124.699L245.365 125.099C246.337 126.616 247.387 128.08 248.507 129.485L249.085 129.023ZM243.352 120.078C242.558 118.5 241.842 116.876 241.21 115.21L240.519 115.472C241.159 117.162 241.885 118.81 242.691 120.411L243.352 120.078ZM239.587 110.146C239.137 108.443 238.773 106.706 238.499 104.939L237.768 105.053C238.046 106.845 238.416 108.608 238.872 110.335L239.587 110.146ZM237.955 99.6467C237.91 98.7655 237.888 97.8783 237.888 96.9858H237.148C237.148 97.8909 237.171 98.7906 237.216 99.6844L237.955 99.6467ZM237.888 96.9858C237.888 96.0933 237.91 95.2061 237.955 94.3248L237.216 94.2872C237.171 95.181 237.148 96.0807 237.148 96.9858H237.888ZM238.499 89.0322C238.773 87.2653 239.137 85.5282 239.587 83.8257L238.872 83.6368C238.416 85.364 238.046 87.1263 237.768 88.9186L238.499 89.0322ZM241.21 78.7615C241.842 77.0956 242.558 75.4711 243.352 73.8931L242.691 73.5604C241.885 75.1612 241.159 76.8092 240.519 78.4992L241.21 78.7615ZM245.987 69.2723C246.946 67.7762 247.981 66.3332 249.085 64.9484L248.507 64.487C247.387 65.8917 246.337 67.3554 245.365 68.873L245.987 69.2723ZM252.612 60.9659C253.854 59.7003 255.161 58.4987 256.528 57.3665L256.056 56.7967C254.67 57.9451 253.344 59.1639 252.084 60.4476L252.612 60.9659ZM260.794 54.1889C262.266 53.2062 263.792 52.2975 265.365 51.4681L265.02 50.8136C263.424 51.655 261.876 52.5768 260.383 53.5735L260.794 54.1889ZM270.192 49.2359C271.83 48.5797 273.51 48.0052 275.226 47.5177L275.024 46.806C273.283 47.3006 271.579 47.8834 269.917 48.5492L270.192 49.2359ZM280.412 46.3324C281.282 46.1806 282.16 46.0507 283.045 45.9433L282.955 45.2088C282.058 45.3178 281.168 45.4495 280.285 45.6035L280.412 46.3324ZM283.37 45.576V44.182H282.63V45.576H283.37ZM283.37 41.394V40H282.63V41.394H283.37ZM283.37 40C283.37 39.0014 283.171 38.0483 282.811 37.1788L282.127 37.4622C282.451 38.2434 282.63 39.1003 282.63 40H283.37ZM278.821 33.1895C277.952 32.8289 276.999 32.6301 276 32.6301V33.3699C276.9 33.3699 277.757 33.5489 278.538 33.8729L278.821 33.1895ZM276 32.6301H273.435V33.3699H276V32.6301ZM268.304 32.6301H263.174V33.3699H268.304V32.6301ZM258.043 32.6301H252.913V33.3699H258.043V32.6301ZM247.783 32.6301H242.652V33.3699H247.783V32.6301ZM237.522 32.6301H232.391V33.3699H237.522V32.6301ZM227.261 32.6301H222.13V33.3699H227.261V32.6301ZM217 32.6301H211.87V33.3699H217V32.6301ZM206.739 32.6301H201.609V33.3699H206.739V32.6301ZM196.478 32.6301H191.348V33.3699H196.478V32.6301ZM186.217 32.6301H181.087V33.3699H186.217V32.6301ZM175.957 32.6301H170.826V33.3699H175.957V32.6301ZM165.696 32.6301H160.565V33.3699H165.696V32.6301ZM155.435 32.6301H150.304V33.3699H155.435V32.6301ZM145.174 32.6301H140.043V33.3699H145.174V32.6301ZM134.913 32.6301H129.783V33.3699H134.913V32.6301ZM124.652 32.6301H119.522V33.3699H124.652V32.6301ZM114.391 32.6301H109.261V33.3699H114.391V32.6301ZM104.13 32.6301H99V33.3699H104.13V32.6301ZM93.8696 32.6301H88.7392V33.3699H93.8696V32.6301ZM83.6088 32.6301H78.4783V33.3699H83.6088V32.6301ZM73.3479 32.6301H68.2175V33.3699H73.3479V32.6301ZM63.087 32.6301H57.9566V33.3699H63.087V32.6301ZM52.8262 32.6301H47.6957V33.3699H52.8262V32.6301ZM42.5653 32.6301H40V33.3699H42.5653V32.6301ZM40 32.6301C39.0014 32.6301 38.0483 32.8289 37.1788 33.1895L37.4622 33.8729C38.2434 33.5489 39.1003 33.3699 40 33.3699V32.6301ZM33.1895 37.1788C32.8289 38.0483 32.6301 39.0014 32.6301 40H33.3699C33.3699 39.1003 33.5489 38.2434 33.8729 37.4622L33.1895 37.1788Z" fill="#E5E5E5"/>
</g>
<path d="M332.267 96.5769C332.267 116.226 315.866 132.154 295.634 132.154C275.401 132.154 259 116.226 259 96.5769C259 76.9283 275.401 61 295.634 61C315.866 61 332.267 76.9283 332.267 96.5769Z" fill="url(#paint4_linear)"/>
<mask id="mask2" mask-type="alpha" maskUnits="userSpaceOnUse" x="259" y="63" width="74" height="72">
<ellipse cx="296.366" cy="99.4231" rx="36.6337" ry="35.5769" fill="url(#paint5_linear)"/>
</mask>
<g mask="url(#mask2)">
<path fill-rule="evenodd" clip-rule="evenodd" d="M296.964 69.6218V77.1728C296.964 77.6117 296.598 77.9676 296.146 77.9676C295.694 77.9676 295.327 77.6117 295.327 77.1728V69.6218C295.327 69.1828 295.694 68.8269 296.146 68.8269C296.598 68.8269 296.964 69.1828 296.964 69.6218ZM296.144 102.459C289.589 102.459 284.276 97.2992 284.276 90.9334C284.283 84.5707 289.592 79.4143 296.144 79.4073C302.699 79.4073 308.013 84.5676 308.013 90.9334C308.013 97.2992 302.699 102.459 296.144 102.459ZM306.376 90.9334C306.376 85.4455 301.795 80.997 296.144 80.997C290.496 81.0032 285.919 85.4483 285.913 90.9334C285.913 96.4213 290.493 100.87 296.144 100.87C301.795 100.87 306.376 96.4213 306.376 90.9334ZM295.932 95.2639C296.025 95.2504 296.12 95.2539 296.212 95.2733C297.224 95.2376 298.02 94.421 298.001 93.4379C297.983 92.4548 297.157 91.6673 296.144 91.6673C294.393 91.6677 292.913 90.4099 292.68 88.7247C292.448 87.0395 293.535 85.4471 295.224 84.9992V84.2273C295.224 83.7883 295.59 83.4324 296.042 83.4324C296.494 83.4324 296.86 83.7883 296.86 84.2273V84.9507C298.479 85.2822 299.637 86.6673 299.639 88.2733C299.639 88.7123 299.273 89.0682 298.821 89.0682C298.369 89.0682 298.003 88.7123 298.003 88.2733C298.003 87.2767 297.171 86.4686 296.144 86.4686C295.118 86.4686 294.286 87.2767 294.286 88.2733C294.286 89.27 295.118 90.078 296.144 90.078C297.935 90.0784 299.436 91.3929 299.62 93.1227C299.805 94.8526 298.613 96.438 296.86 96.7943V97.541C296.86 97.9799 296.494 98.3358 296.042 98.3358C295.59 98.3358 295.224 97.9799 295.224 97.541V96.7461C293.705 96.3413 292.651 95.0016 292.649 93.472C292.649 93.0331 293.016 92.6772 293.468 92.6772C293.92 92.6772 294.286 93.0331 294.286 93.472C294.288 94.388 294.995 95.158 295.932 95.2639ZM312.048 104.419L305.637 107.361C304.751 105.762 303.053 104.744 301.185 104.693L295.266 104.535C294.329 104.509 293.409 104.279 292.576 103.861L291.974 103.557C288.89 101.997 285.215 102 282.134 103.568L282.172 102.243C282.184 101.804 281.828 101.438 281.376 101.426L274.886 101.253C274.434 101.24 274.058 101.586 274.046 102.025L273.654 115.857C273.641 116.296 273.997 116.661 274.449 116.673L280.939 116.847H280.962C281.405 116.847 281.768 116.504 281.78 116.074L281.799 115.412L283.485 114.535C284.147 114.189 284.921 114.107 285.644 114.306L295.712 117.05L295.723 117.053L295.74 117.057L295.765 117.063C296.493 117.211 297.235 117.285 297.978 117.285C299.552 117.285 301.109 116.956 302.54 116.318C302.575 116.302 302.609 116.284 302.641 116.263L317.24 107.093C317.603 106.865 317.721 106.401 317.508 106.034C316.424 104.167 314.02 103.455 312.048 104.419ZM275.313 115.106L275.659 102.864L280.513 102.993L280.166 115.236L275.313 115.106ZM301.802 114.898C300.024 115.677 298.039 115.892 296.128 115.513L286.086 112.776C284.956 112.466 283.746 112.594 282.713 113.134L281.851 113.582L282.082 105.443C284.812 103.679 288.314 103.498 291.221 104.969L291.824 105.272C292.876 105.8 294.037 106.091 295.221 106.124L301.14 106.282C302.803 106.329 304.215 107.479 304.552 109.06L295.736 108.824C295.284 108.812 294.908 109.158 294.895 109.597C294.882 110.036 295.239 110.401 295.69 110.413L305.42 110.673H305.443C305.886 110.673 306.248 110.33 306.26 109.9C306.27 109.555 306.244 109.209 306.181 108.869L312.757 105.852C312.764 105.849 312.77 105.846 312.776 105.843C313.709 105.384 314.837 105.538 315.604 106.227L301.802 114.898ZM303.101 77.1729V73.596C303.101 73.1571 302.734 72.8012 302.282 72.8012C301.831 72.8012 301.464 73.1571 301.464 73.596V77.1729C301.464 77.6118 301.831 77.9677 302.282 77.9677C302.734 77.9677 303.101 77.6118 303.101 77.1729ZM290.825 73.596V77.1729C290.825 77.6118 290.458 77.9677 290.006 77.9677C289.554 77.9677 289.188 77.6118 289.188 77.1729V73.596C289.188 73.1571 289.554 72.8012 290.006 72.8012C290.458 72.8012 290.825 73.1571 290.825 73.596Z" fill="white" style="mix-blend-mode:overlay"/>
</g>
<defs>
<filter id="filter0_d" x="0.804295" y="0.804295" width="314.391" height="194.391" filterUnits="userSpaceOnUse" color-interpolation-filters="sRGB">
<feFlood flood-opacity="0" result="BackgroundImageFix"/>
<feColorMatrix in="SourceAlpha" type="matrix" values="0 0 0 0 0 0 0 0 0 0 0 0 0 0 0 0 0 0 127 0"/>
<feOffset/>
<feGaussianBlur stdDeviation="11.0979"/>
<feColorMatrix type="matrix" values="0 0 0 0 0 0 0 0 0 0 0 0 0 0 0 0 0 0 0.1 0"/>
<feBlend mode="normal" in2="BackgroundImageFix" result="effect1_dropShadow"/>
<feBlend mode="normal" in="SourceGraphic" in2="effect1_dropShadow" result="shape"/>
</filter>
<filter id="filter1_d" x="10.4342" y="10.4344" width="295.131" height="175.131" filterUnits="userSpaceOnUse" color-interpolation-filters="sRGB">
<feFlood flood-opacity="0" result="BackgroundImageFix"/>
<feColorMatrix in="SourceAlpha" type="matrix" values="0 0 0 0 0 0 0 0 0 0 0 0 0 0 0 0 0 0 127 0"/>
<feOffset/>
<feGaussianBlur stdDeviation="11.0979"/>
<feColorMatrix type="matrix" values="0 0 0 0 0 0 0 0 0 0 0 0 0 0 0 0 0 0 0.1 0"/>
<feBlend mode="normal" in2="BackgroundImageFix" result="effect1_dropShadow"/>
<feBlend mode="normal" in="SourceGraphic" in2="effect1_dropShadow" result="shape"/>
</filter>
<linearGradient id="paint0_linear" x1="295.991" y1="134" x2="295.991" y2="60" gradientUnits="userSpaceOnUse">
<stop stop-color="#FCCB05"/>
<stop offset="1" stop-color="#FFE57D"/>
</linearGradient>
<linearGradient id="paint1_linear" x1="295.991" y1="134" x2="295.991" y2="60" gradientUnits="userSpaceOnUse">
<stop stop-color="#FCCB05"/>
<stop offset="1" stop-color="#FFE57D"/>
</linearGradient>
<linearGradient id="paint2_linear" x1="294.984" y1="133.978" x2="294.984" y2="59.9927" gradientUnits="userSpaceOnUse">
<stop stop-color="#FCCB05"/>
<stop offset="1" stop-color="#FFE57D"/>
</linearGradient>
<linearGradient id="paint3_linear" x1="294.991" y1="134" x2="294.991" y2="60" gradientUnits="userSpaceOnUse">
<stop stop-color="#FCCB05"/>
<stop offset="1" stop-color="#FFE57D"/>
</linearGradient>
<linearGradient id="paint4_linear" x1="294.635" y1="132.154" x2="294.635" y2="61" gradientUnits="userSpaceOnUse">
<stop stop-color="#FCCB05"/>
<stop offset="1" stop-color="#FFE57D"/>
</linearGradient>
<linearGradient id="paint5_linear" x1="295.367" y1="135" x2="295.367" y2="63.8462" gradientUnits="userSpaceOnUse">
<stop stop-color="#FCCB05"/>
<stop offset="1" stop-color="#FFE57D"/>
</linearGradient>
</defs>
</svg>
