<svg width="100" height="75" viewBox="0 0 100 75" fill="none" xmlns="http://www.w3.org/2000/svg">
<path d="M100 8.711V65.7993C100 70.3946 96.2617 74.1333 91.6667 74.1333H8.33333C3.73833 74.1333 0 70.3946 0 65.7993V40.7971C0 39.8766 0.74625 39.1303 1.66667 39.1303C2.58708 39.1303 3.33333 39.8766 3.33333 40.7971V65.7993C3.33333 68.5564 5.57646 70.7997 8.33333 70.7997H91.6667C94.4235 70.7997 96.6667 68.5564 96.6667 65.7993V8.711C96.6667 5.95389 94.4235 3.71057 91.6667 3.71057H8.33333C5.57646 3.71057 3.33333 5.95389 3.33333 8.711V15.3782H88.75C89.6704 15.3782 90.4167 16.1246 90.4167 17.0451C90.4167 17.9656 89.6704 18.7119 88.75 18.7119H3.33333V29.5461H88.75C89.6704 29.5461 90.4167 30.2924 90.4167 31.2129C90.4167 32.1334 89.6704 32.8797 88.75 32.8797H1.66667C0.74625 32.8797 0 32.1334 0 31.2129V8.711C0 4.11561 3.73833 0.376953 8.33333 0.376953H91.6667C96.2617 0.376953 100 4.11561 100 8.711ZM86.6667 52.0481C86.6667 47.7692 81.9104 45.1741 78.3073 47.5025C81.8429 53.2946 77.6579 60.7988 70.8333 60.7988C66.0085 60.7988 62.0833 56.8733 62.0833 52.0481C62.0833 44.8668 70.2996 40.7533 76.0417 45.0212C81.8094 40.7544 90 44.8802 90 52.0481C90 56.8733 86.0748 60.7988 81.25 60.7988C80.3296 60.7988 79.5833 60.0525 79.5833 59.132C79.5833 58.2115 80.3296 57.4652 81.25 57.4652C84.2369 57.4652 86.6667 55.0352 86.6667 52.0481ZM76.25 52.0481C76.25 49.0609 73.8202 46.6309 70.8333 46.6309C67.8465 46.6309 65.4167 49.0609 65.4167 52.0481C65.4167 55.0352 67.8465 57.4652 70.8333 57.4652C73.8202 57.4652 76.25 55.0352 76.25 52.0481ZM15.2083 48.5061H29.1667C30.0871 48.5061 30.8333 47.7598 30.8333 46.8393C30.8333 45.9188 30.0871 45.1725 29.1667 45.1725H15.2083C14.2879 45.1725 13.5417 45.9188 13.5417 46.8393C13.5417 47.7598 14.2879 48.5061 15.2083 48.5061ZM15.2083 58.9237H29.1667C30.0871 58.9237 30.8333 58.1773 30.8333 57.2569C30.8333 56.3364 30.0871 55.59 29.1667 55.59H15.2083C14.2879 55.59 13.5417 56.3364 13.5417 57.2569C13.5417 58.1773 14.2879 58.9237 15.2083 58.9237Z" fill="white" style="mix-blend-mode:overlay"/>
</svg>
