<svg width="449" height="260" viewBox="0 0 449 260" fill="none" xmlns="http://www.w3.org/2000/svg">
<path d="M449 130C449 157.614 426.614 180 399 180C371.386 180 349 157.614 349 130C349 102.386 371.386 80 399 80C426.614 80 449 102.386 449 130Z" fill="url(#paint0_linear)"/>
<mask id="mask0" mask-type="alpha" maskUnits="userSpaceOnUse" x="349" y="80" width="100" height="100">
<circle cx="399" cy="130" r="50" fill="url(#paint1_linear)"/>
</mask>
<g mask="url(#mask0)">
<path fill-rule="evenodd" clip-rule="evenodd" d="M380.195 108.032C379.924 108.032 379.657 107.967 379.416 107.842C379.175 107.717 378.969 107.535 378.813 107.313C378.657 107.091 378.558 106.835 378.522 106.566C378.487 106.297 378.517 106.023 378.61 105.769L380.087 101.71C377.075 101.893 374.105 102.414 371.229 103.256L371.034 108.859C371.019 109.295 370.835 109.709 370.521 110.012C370.207 110.316 369.788 110.486 369.351 110.487H369.292C369.07 110.479 368.853 110.428 368.651 110.336C368.449 110.244 368.268 110.114 368.117 109.952C367.966 109.79 367.848 109.6 367.77 109.392C367.692 109.185 367.656 108.964 367.664 108.743L367.814 104.425C365.154 105.472 362.601 106.804 360.2 108.408C360.089 108.483 359.977 108.558 359.866 108.634L361.413 114.021C361.536 114.451 361.484 114.912 361.267 115.303C361.05 115.695 360.687 115.984 360.257 116.107C360.104 116.152 359.945 116.174 359.785 116.173C359.419 116.173 359.063 116.054 358.77 115.834C358.478 115.613 358.265 115.304 358.164 114.952L356.977 110.803C354.652 112.718 352.555 114.885 350.722 117.258L353.859 121.906C354.03 122.159 354.129 122.455 354.145 122.761C354.161 123.066 354.094 123.37 353.95 123.641C353.806 123.911 353.592 124.137 353.33 124.294C353.067 124.452 352.767 124.535 352.461 124.535C352.185 124.536 351.912 124.468 351.668 124.339C351.424 124.21 351.216 124.022 351.061 123.793L348.646 120.213C347.39 122.182 346.303 124.265 345.402 126.442C345.149 127.052 344.912 127.666 344.691 128.285L349.108 131.733C349.384 131.949 349.587 132.246 349.686 132.583C349.786 132.92 349.778 133.279 349.664 133.611C349.549 133.943 349.334 134.231 349.048 134.435C348.762 134.639 348.42 134.749 348.068 134.749C347.693 134.749 347.328 134.623 347.033 134.391L343.629 131.734C342.873 134.65 342.449 137.638 342.361 140.642L347.628 142.558C348.002 142.692 348.317 142.955 348.516 143.299C348.716 143.643 348.788 144.046 348.719 144.438C348.65 144.829 348.444 145.184 348.139 145.439C347.834 145.694 347.449 145.833 347.051 145.832C346.855 145.831 346.66 145.797 346.476 145.729L342.417 144.253C342.527 146.062 342.759 147.868 343.116 149.659C343.348 150.825 343.631 151.978 343.963 153.113L349.564 153.306C350.012 153.313 350.438 153.498 350.749 153.82C351.06 154.142 351.23 154.574 351.223 155.021C351.215 155.468 351.03 155.895 350.708 156.205C350.387 156.516 349.954 156.687 349.507 156.679H349.448L345.132 156.529C346.233 159.328 347.644 161.993 349.339 164.476L354.725 162.93C355.155 162.807 355.616 162.859 356.007 163.076C356.399 163.293 356.688 163.657 356.811 164.087C356.934 164.517 356.882 164.979 356.665 165.37C356.448 165.761 356.084 166.05 355.654 166.173L351.507 167.363C352.326 168.359 353.195 169.317 354.112 170.234C355.327 171.448 356.614 172.579 357.964 173.622L362.612 170.485C362.796 170.362 363.002 170.275 363.219 170.231C363.436 170.187 363.66 170.185 363.877 170.228C364.095 170.27 364.302 170.355 364.486 170.477C364.671 170.599 364.83 170.756 364.954 170.94C365.078 171.124 365.165 171.33 365.209 171.547C365.253 171.764 365.254 171.988 365.212 172.205C365.17 172.423 365.085 172.63 364.963 172.815C364.841 172.999 364.683 173.158 364.5 173.282L360.919 175.699C363.453 177.315 366.163 178.644 368.998 179.657L372.444 175.236C372.722 174.891 373.125 174.669 373.565 174.618C374.005 174.567 374.448 174.692 374.797 174.964C375.146 175.237 375.374 175.636 375.431 176.076C375.488 176.515 375.37 176.96 375.103 177.313L372.446 180.718C373.186 180.91 373.933 181.081 374.685 181.23C376.891 181.669 379.119 181.92 381.347 181.985L383.264 176.715C383.336 176.503 383.45 176.308 383.599 176.14C383.749 175.973 383.93 175.836 384.132 175.74C384.334 175.643 384.554 175.588 384.778 175.577C385.002 175.566 385.226 175.6 385.436 175.676C385.647 175.753 385.841 175.871 386.005 176.024C386.17 176.176 386.302 176.359 386.395 176.564C386.488 176.768 386.539 176.989 386.546 177.213C386.552 177.437 386.514 177.66 386.433 177.869L384.957 181.929C387.953 181.747 390.925 181.229 393.817 180.382L394.01 174.787C394.033 174.343 394.227 173.925 394.552 173.621C394.877 173.317 395.308 173.152 395.753 173.159C395.974 173.167 396.192 173.218 396.393 173.31C396.595 173.402 396.777 173.532 396.928 173.694C397.079 173.856 397.197 174.046 397.274 174.254C397.352 174.461 397.388 174.682 397.38 174.904L397.232 179.213C397.455 179.125 397.678 179.035 397.9 178.943C400.469 177.879 402.907 176.557 405.18 175.004L403.632 169.615C403.566 169.401 403.544 169.176 403.566 168.953C403.589 168.73 403.655 168.514 403.762 168.317C403.869 168.12 404.014 167.946 404.188 167.806C404.363 167.666 404.564 167.562 404.779 167.5C404.994 167.438 405.22 167.42 405.442 167.446C405.665 167.472 405.88 167.542 406.075 167.653C406.27 167.763 406.441 167.911 406.578 168.088C406.715 168.265 406.816 168.467 406.874 168.684L408.064 172.839C410.379 170.932 412.481 168.767 414.325 166.378L411.189 161.73C410.938 161.359 410.846 160.904 410.931 160.465C411.016 160.026 411.272 159.638 411.643 159.388C412.014 159.138 412.469 159.045 412.908 159.13C413.348 159.216 413.735 159.472 413.985 159.843L416.401 163.424C418.025 160.877 419.349 158.167 420.357 155.347L415.937 151.898C415.762 151.762 415.616 151.593 415.507 151.4C415.398 151.207 415.328 150.995 415.301 150.775C415.273 150.555 415.29 150.332 415.349 150.118C415.408 149.905 415.509 149.705 415.645 149.53C415.781 149.355 415.951 149.209 416.144 149.1C416.336 148.991 416.549 148.921 416.769 148.894C416.989 148.867 417.212 148.883 417.425 148.942C417.639 149.001 417.839 149.102 418.013 149.238L421.419 151.897C422.17 148.998 422.597 146.012 422.686 142.993L417.416 141.077C417.004 140.918 416.671 140.603 416.488 140.201C416.306 139.799 416.288 139.341 416.439 138.926C416.59 138.511 416.898 138.172 417.296 137.981C417.695 137.791 418.152 137.764 418.57 137.907L422.626 139.381C422.44 136.362 421.914 133.392 421.072 130.525L415.482 130.331C415.034 130.315 414.611 130.123 414.306 129.796C414 129.469 413.837 129.034 413.852 128.586C413.867 128.139 414.06 127.716 414.387 127.411C414.714 127.105 415.149 126.942 415.596 126.957L419.898 127.105C418.798 124.316 417.387 121.652 415.687 119.164L410.318 120.706C410.167 120.75 410.01 120.772 409.853 120.772C409.446 120.772 409.053 120.626 408.746 120.359C408.439 120.092 408.238 119.724 408.182 119.321C408.125 118.919 408.215 118.509 408.436 118.168C408.658 117.827 408.995 117.577 409.385 117.464L413.518 116.278C412.702 115.288 411.836 114.333 410.92 113.418C409.702 112.199 408.413 111.067 407.064 110.025L402.434 113.156C402.156 113.342 401.828 113.441 401.493 113.439C401.132 113.439 400.78 113.323 400.49 113.109C400.2 112.894 399.986 112.592 399.88 112.247C399.774 111.902 399.782 111.532 399.902 111.191C400.022 110.851 400.248 110.558 400.547 110.356L404.111 107.949C401.573 106.33 398.866 105.004 396.042 103.992L392.6 108.398C392.442 108.601 392.24 108.765 392.01 108.878C391.779 108.991 391.526 109.049 391.269 109.049C390.953 109.049 390.643 108.96 390.375 108.792C390.108 108.625 389.892 108.385 389.754 108.101C389.615 107.817 389.56 107.5 389.593 107.185C389.626 106.871 389.747 106.572 389.942 106.324L392.593 102.929C389.704 102.178 386.721 101.746 383.695 101.654L381.781 106.914C381.664 107.241 381.449 107.524 381.165 107.724C380.881 107.924 380.542 108.032 380.195 108.032ZM395.615 100.276C391.498 98.9789 387.221 98.3034 382.924 98.2638C382.77 98.2275 382.611 98.2131 382.452 98.2212C382.351 98.2263 382.251 98.2405 382.152 98.2635C379.436 98.2866 376.715 98.564 374.025 99.0991C367.931 100.312 362.195 102.808 357.185 106.392C357.065 106.448 356.953 106.519 356.85 106.602C356.789 106.65 356.732 106.703 356.679 106.759C354.931 108.048 353.274 109.471 351.726 111.02C350.121 112.625 348.651 114.346 347.325 116.165C347.299 116.198 347.275 116.232 347.251 116.267C344.67 119.831 342.641 123.769 341.238 127.946C341.149 128.088 341.081 128.243 341.037 128.405C341.009 128.511 340.991 128.62 340.983 128.729C340.509 130.232 340.116 131.766 339.806 133.322C339.251 136.114 338.974 138.939 338.97 141.759C338.968 141.798 338.968 141.837 338.97 141.876C338.976 146.402 339.687 150.91 341.087 155.236C341.096 155.264 341.105 155.293 341.115 155.321C341.463 156.389 341.853 157.445 342.285 158.488C343.586 161.629 345.244 164.591 347.214 167.319C347.257 167.389 347.305 167.455 347.358 167.518C350.003 171.138 353.201 174.341 356.849 177.004L356.858 177.011C356.868 177.019 356.877 177.026 356.887 177.034L356.91 177.051C356.936 177.07 356.964 177.089 356.991 177.107C357.43 177.424 357.875 177.734 358.326 178.036C361.627 180.241 365.195 181.973 368.926 183.199C369.017 183.238 369.112 183.269 369.208 183.291C373.479 184.662 377.959 185.373 382.493 185.376L382.523 185.376L382.553 185.376C387.069 185.368 391.512 184.659 395.736 183.31C395.904 183.282 396.066 183.229 396.217 183.153C400.364 181.776 404.292 179.779 407.864 177.22C408.045 177.132 408.209 177.013 408.348 176.868C410.094 175.581 411.753 174.157 413.306 172.603C414.866 171.043 416.295 169.377 417.587 167.622C417.705 167.504 417.805 167.369 417.884 167.221L417.896 167.197C420.477 163.6 422.489 159.641 423.871 155.461C423.894 155.411 423.915 155.359 423.934 155.305C423.958 155.234 423.978 155.162 423.993 155.088C425.341 150.884 426.055 146.463 426.076 141.968C426.085 141.869 426.085 141.77 426.076 141.672C426.061 137.235 425.369 132.852 424.043 128.666C424.017 128.455 423.95 128.252 423.849 128.067C422.625 124.391 420.911 120.875 418.735 117.619C418.499 117.265 418.258 116.915 418.011 116.569C417.949 116.411 417.862 116.263 417.755 116.131C417.685 116.045 417.607 115.966 417.523 115.896C414.948 112.418 411.878 109.357 408.425 106.802C408.326 106.69 408.212 106.592 408.086 106.51C408.008 106.459 407.926 106.414 407.84 106.377C405.162 104.463 402.262 102.85 399.189 101.577C398.263 101.194 397.326 100.843 396.38 100.525C396.241 100.439 396.088 100.373 395.929 100.33C395.826 100.302 395.721 100.284 395.615 100.276ZM403.372 156.713C403.632 156.867 403.928 156.949 404.23 156.949C404.514 156.95 404.793 156.879 405.043 156.743C405.292 156.608 405.503 156.412 405.656 156.173C406.668 154.571 407.503 152.864 408.146 151.082C408.298 150.661 408.277 150.197 408.088 149.792C407.898 149.386 407.555 149.073 407.134 148.92C406.714 148.768 406.249 148.789 405.844 148.978C405.439 149.168 405.125 149.511 404.973 149.932C404.415 151.481 403.689 152.965 402.809 154.356C402.646 154.611 402.555 154.905 402.546 155.207C402.536 155.509 402.607 155.808 402.753 156.073C402.898 156.338 403.112 156.559 403.372 156.713ZM382.405 169.062H382.397C377.02 169.037 371.77 167.421 367.31 164.418C362.849 161.414 359.377 157.158 357.331 152.185C355.285 147.212 354.756 141.745 355.811 136.472C356.866 131.199 359.458 126.356 363.26 122.553C367.063 118.751 371.905 116.158 377.178 115.103C382.45 114.048 387.917 114.577 392.89 116.623C397.862 118.67 402.118 122.142 405.121 126.603C408.124 131.064 409.74 136.313 409.765 141.691C409.765 142.137 409.588 142.565 409.274 142.881C408.959 143.197 408.533 143.376 408.087 143.378H408.078C407.632 143.378 407.205 143.201 406.888 142.887C406.572 142.572 406.394 142.145 406.391 141.699C406.368 136.988 404.951 132.389 402.319 128.481C399.687 124.574 395.958 121.533 391.601 119.741C387.244 117.949 382.454 117.487 377.835 118.412C373.216 119.338 368.974 121.61 365.643 124.942C362.312 128.274 360.042 132.517 359.118 137.137C358.195 141.757 358.659 146.547 360.452 150.904C362.245 155.26 365.287 158.989 369.195 161.62C373.103 164.251 377.703 165.666 382.413 165.688C382.861 165.689 383.289 165.868 383.605 166.185C383.921 166.502 384.097 166.932 384.096 167.379C384.095 167.826 383.916 168.255 383.599 168.571C383.282 168.886 382.852 169.063 382.405 169.062ZM390.126 167.147C390.43 167.402 390.813 167.543 391.21 167.543C391.406 167.543 391.6 167.509 391.783 167.442C393.52 166.813 395.186 166.004 396.755 165.03C397.135 164.794 397.406 164.416 397.508 163.981C397.61 163.545 397.534 163.086 397.299 162.706C397.063 162.326 396.685 162.055 396.249 161.953C395.814 161.851 395.355 161.926 394.975 162.162C393.606 163.014 392.152 163.721 390.636 164.271C390.264 164.406 389.951 164.668 389.752 165.011C389.553 165.355 389.482 165.757 389.55 166.147C389.619 166.538 389.823 166.892 390.126 167.147ZM382.523 149.011C381.1 149.011 379.71 148.589 378.527 147.799C377.344 147.009 376.421 145.886 375.877 144.571C375.332 143.257 375.19 141.811 375.467 140.415C375.744 139.02 376.429 137.738 377.435 136.732C378.441 135.726 379.722 135.04 381.118 134.763C382.513 134.485 383.959 134.627 385.273 135.172C386.588 135.716 387.711 136.638 388.502 137.821C389.292 139.004 389.714 140.395 389.714 141.818C389.712 143.724 388.954 145.553 387.606 146.901C386.258 148.25 384.43 149.009 382.523 149.011ZM382.523 138C381.768 138 381.029 138.223 380.401 138.643C379.772 139.062 379.283 139.659 378.993 140.357C378.704 141.055 378.628 141.823 378.776 142.564C378.923 143.305 379.287 143.986 379.821 144.52C380.355 145.054 381.036 145.418 381.777 145.565C382.518 145.713 383.286 145.637 383.984 145.347C384.681 145.058 385.278 144.568 385.697 143.94C386.117 143.312 386.341 142.573 386.34 141.818C386.339 140.805 385.936 139.835 385.221 139.12C384.505 138.404 383.535 138.001 382.523 138ZM379.782 131.035C380.594 131.576 381.548 131.865 382.523 131.864C383.829 131.861 385.081 131.341 386.005 130.416C386.928 129.492 387.447 128.24 387.448 126.933C387.448 125.958 387.159 125.004 386.617 124.193C386.075 123.383 385.305 122.751 384.404 122.378C383.502 122.004 382.511 121.907 381.554 122.098C380.598 122.288 379.719 122.759 379.03 123.449C378.34 124.139 377.871 125.018 377.682 125.974C377.492 126.931 377.59 127.923 377.964 128.824C378.338 129.724 378.971 130.494 379.782 131.035ZM381.658 125.639C381.914 125.468 382.215 125.376 382.523 125.376C382.936 125.377 383.332 125.541 383.623 125.833C383.915 126.125 384.079 126.52 384.08 126.933C384.08 127.241 383.989 127.542 383.818 127.798C383.646 128.054 383.403 128.254 383.119 128.372C382.834 128.489 382.521 128.52 382.219 128.46C381.917 128.4 381.64 128.252 381.422 128.034C381.204 127.816 381.056 127.539 380.996 127.237C380.936 126.935 380.967 126.622 381.085 126.337C381.202 126.053 381.402 125.81 381.658 125.639ZM368.361 142.149C367.583 142.148 366.817 141.963 366.124 141.609C365.432 141.256 364.833 140.743 364.377 140.114C363.92 139.485 363.619 138.757 363.497 137.989C363.376 137.221 363.438 136.435 363.678 135.695C363.959 134.83 364.474 134.06 365.166 133.469C365.857 132.878 366.699 132.491 367.597 132.349C368.496 132.207 369.416 132.316 370.256 132.664C371.096 133.013 371.824 133.587 372.358 134.323C372.892 135.059 373.212 135.929 373.283 136.836C373.354 137.743 373.172 138.651 372.758 139.461C372.344 140.272 371.715 140.951 370.938 141.426C370.162 141.9 369.27 142.15 368.361 142.149ZM366.886 136.738C366.759 137.131 366.793 137.558 366.98 137.926C367.168 138.294 367.494 138.572 367.887 138.7C368.279 138.827 368.707 138.793 369.075 138.606C369.442 138.418 369.721 138.092 369.848 137.699C369.976 137.307 369.942 136.879 369.754 136.511C369.567 136.143 369.241 135.865 368.848 135.738C368.455 135.61 368.028 135.644 367.66 135.831C367.292 136.019 367.014 136.345 366.886 136.738ZM370.876 157.85C371.714 158.463 372.725 158.794 373.764 158.793C374.543 158.793 375.312 158.609 376.006 158.256C376.701 157.902 377.302 157.389 377.761 156.759C378.335 155.97 378.661 155.029 378.699 154.054C378.738 153.079 378.486 152.115 377.977 151.284C377.467 150.452 376.722 149.79 375.837 149.382C374.951 148.974 373.964 148.837 373.001 148.99C372.037 149.143 371.141 149.578 370.425 150.24C369.709 150.902 369.206 151.762 368.978 152.71C368.751 153.659 368.809 154.653 369.147 155.568C369.485 156.483 370.087 157.277 370.876 157.85ZM372.869 152.6C373.135 152.407 373.456 152.303 373.785 152.304C374.031 152.304 374.273 152.363 374.491 152.475C374.71 152.586 374.899 152.748 375.043 152.947C375.187 153.146 375.282 153.376 375.32 153.619C375.358 153.861 375.339 154.11 375.263 154.343C375.187 154.576 375.056 154.789 374.883 154.962C374.709 155.136 374.497 155.266 374.263 155.342C374.03 155.418 373.782 155.437 373.539 155.399C373.297 155.36 373.067 155.265 372.868 155.121C372.601 154.928 372.403 154.655 372.302 154.342C372.2 154.029 372.2 153.691 372.302 153.378C372.404 153.065 372.602 152.793 372.869 152.6ZM391.281 158.793C390.107 158.795 388.97 158.378 388.076 157.617C387.181 156.856 386.588 155.801 386.402 154.642C386.216 153.482 386.451 152.294 387.063 151.292C387.675 150.29 388.625 149.539 389.741 149.175C390.857 148.811 392.067 148.857 393.153 149.305C394.238 149.753 395.128 150.574 395.662 151.62C396.196 152.666 396.339 153.868 396.066 155.01C395.792 156.152 395.12 157.159 394.17 157.85C393.332 158.463 392.32 158.793 391.281 158.793ZM391.274 152.305C390.987 152.306 390.706 152.385 390.462 152.535C390.217 152.685 390.019 152.9 389.889 153.156C389.759 153.411 389.702 153.698 389.724 153.984C389.746 154.27 389.847 154.544 390.016 154.776C390.26 155.109 390.626 155.332 391.034 155.395C391.442 155.458 391.858 155.357 392.192 155.114C392.458 154.92 392.655 154.648 392.756 154.335C392.858 154.022 392.857 153.685 392.755 153.373C392.653 153.06 392.455 152.788 392.189 152.595C391.923 152.402 391.603 152.298 391.274 152.298V152.305ZM394.096 141.423C394.871 141.899 395.763 142.152 396.672 142.153C397.45 142.152 398.218 141.967 398.911 141.614C399.605 141.26 400.205 140.748 400.663 140.119C401.12 139.489 401.423 138.76 401.546 137.992C401.668 137.223 401.607 136.436 401.368 135.695C401.087 134.831 400.572 134.06 399.881 133.47C399.189 132.879 398.348 132.491 397.45 132.349C396.552 132.207 395.632 132.315 394.792 132.663C393.951 133.011 393.224 133.584 392.689 134.319C392.154 135.055 391.833 135.924 391.761 136.83C391.689 137.737 391.869 138.645 392.281 139.456C392.693 140.267 393.322 140.947 394.096 141.423ZM396.19 135.738C396.346 135.688 396.508 135.662 396.672 135.662C397.001 135.663 397.32 135.767 397.586 135.96C397.852 136.153 398.05 136.426 398.151 136.738C398.246 137.031 398.253 137.345 398.169 137.642C398.085 137.938 397.915 138.203 397.681 138.403C397.447 138.603 397.159 138.729 396.853 138.765C396.547 138.801 396.238 138.745 395.963 138.605C395.689 138.466 395.462 138.247 395.312 137.979C395.162 137.71 395.094 137.403 395.118 137.096C395.143 136.789 395.257 136.496 395.448 136.254C395.639 136.013 395.897 135.833 396.19 135.738ZM361.322 198.227H341.385C340.938 198.227 340.509 198.05 340.193 197.733C339.876 197.417 339.698 196.988 339.698 196.541C339.698 196.093 339.876 195.664 340.193 195.348C340.509 195.031 340.938 194.854 341.385 194.854H361.322C361.769 194.854 362.198 195.031 362.514 195.348C362.831 195.664 363.008 196.093 363.008 196.541C363.008 196.988 362.831 197.417 362.514 197.733C362.198 198.05 361.769 198.227 361.322 198.227ZM327.83 198.227H331.018C331.466 198.227 331.895 198.05 332.211 197.733C332.527 197.417 332.705 196.988 332.705 196.541C332.705 196.093 332.527 195.664 332.211 195.348C331.895 195.031 331.466 194.854 331.018 194.854H327.83C327.383 194.854 326.954 195.031 326.637 195.348C326.321 195.664 326.143 196.093 326.143 196.541C326.143 196.988 326.321 197.417 326.637 197.733C326.954 198.05 327.383 198.227 327.83 198.227ZM341.519 175.91H323.244C322.796 175.91 322.367 175.733 322.051 175.416C321.735 175.1 321.557 174.671 321.557 174.224C321.557 173.776 321.735 173.347 322.051 173.031C322.367 172.715 322.796 172.537 323.244 172.537H341.519C341.966 172.537 342.395 172.715 342.711 173.031C343.028 173.347 343.205 173.776 343.205 174.224C343.205 174.671 343.028 175.1 342.711 175.416C342.395 175.733 341.966 175.91 341.519 175.91ZM309.687 175.91H312.877C313.324 175.91 313.753 175.733 314.069 175.416C314.386 175.1 314.563 174.671 314.563 174.224C314.563 173.776 314.386 173.347 314.069 173.031C313.753 172.715 313.324 172.537 312.877 172.537H309.687C309.239 172.537 308.81 172.715 308.494 173.031C308.178 173.347 308 173.776 308 174.224C308 174.671 308.178 175.1 308.494 175.416C308.81 175.733 309.239 175.91 309.687 175.91ZM351.118 187.063H331.18C330.733 187.063 330.304 186.885 329.987 186.569C329.671 186.253 329.493 185.824 329.493 185.376C329.493 184.929 329.671 184.5 329.987 184.184C330.304 183.867 330.733 183.689 331.18 183.689H351.118C351.565 183.689 351.994 183.867 352.311 184.184C352.627 184.5 352.805 184.929 352.805 185.376C352.805 185.824 352.627 186.253 352.311 186.569C351.994 186.885 351.565 187.063 351.118 187.063ZM317.623 187.063H320.82C321.267 187.063 321.696 186.885 322.013 186.569C322.329 186.253 322.507 185.824 322.507 185.376C322.507 184.929 322.329 184.5 322.013 184.184C321.696 183.867 321.267 183.689 320.82 183.689H317.623C317.176 183.689 316.747 183.867 316.431 184.184C316.114 184.5 315.937 184.929 315.937 185.376C315.937 185.824 316.114 186.253 316.431 186.569C316.747 186.885 317.176 187.063 317.623 187.063Z" fill="white" style="mix-blend-mode:overlay"/>
</g>
<g filter="url(#filter0_d)">
<path fill-rule="evenodd" clip-rule="evenodd" d="M40 30C34.4772 30 30 34.4772 30 40V220C30 225.523 34.4771 230 40 230H390C395.523 230 400 225.523 400 220V189.997C399.8 189.999 399.6 190 399.4 190C364.369 190 335.971 163.137 335.971 130C335.971 96.8629 364.369 70 399.4 70C399.6 70 399.8 70.0009 400 70.0026V40C400 34.4772 395.523 30 390 30H40Z" fill="white"/>
</g>
<g filter="url(#filter1_d)">
<path d="M390 199.888H390.5V199.415L390.028 199.388L390 199.888ZM390 60.1124L390.028 60.6116L390.5 60.585V60.1124H390ZM39.5 53.6364C39.5 53.9125 39.7239 54.1364 40 54.1364C40.2761 54.1364 40.5 53.9125 40.5 53.6364H39.5ZM40.5 60.9091C40.5 60.633 40.2761 60.4091 40 60.4091C39.7239 60.4091 39.5 60.633 39.5 60.9091H40.5ZM39.5 68.1818C39.5 68.458 39.7239 68.6818 40 68.6818C40.2761 68.6818 40.5 68.458 40.5 68.1818H39.5ZM40.5 75.4545C40.5 75.1784 40.2761 74.9545 40 74.9545C39.7239 74.9545 39.5 75.1784 39.5 75.4545H40.5ZM39.5 82.7273C39.5 83.0034 39.7239 83.2273 40 83.2273C40.2761 83.2273 40.5 83.0034 40.5 82.7273H39.5ZM40.5 90C40.5 89.7239 40.2761 89.5 40 89.5C39.7239 89.5 39.5 89.7239 39.5 90H40.5ZM39.5 97.2727C39.5 97.5489 39.7239 97.7727 40 97.7727C40.2761 97.7727 40.5 97.5489 40.5 97.2727H39.5ZM40.5 104.545C40.5 104.269 40.2761 104.045 40 104.045C39.7239 104.045 39.5 104.269 39.5 104.545H40.5ZM39.5 111.818C39.5 112.094 39.7239 112.318 40 112.318C40.2761 112.318 40.5 112.094 40.5 111.818H39.5ZM40.5 119.091C40.5 118.815 40.2761 118.591 40 118.591C39.7239 118.591 39.5 118.815 39.5 119.091H40.5ZM39.5 126.364C39.5 126.64 39.7239 126.864 40 126.864C40.2761 126.864 40.5 126.64 40.5 126.364H39.5ZM40.5 133.636C40.5 133.36 40.2761 133.136 40 133.136C39.7239 133.136 39.5 133.36 39.5 133.636H40.5ZM39.5 140.909C39.5 141.185 39.7239 141.409 40 141.409C40.2761 141.409 40.5 141.185 40.5 140.909H39.5ZM40.5 148.182C40.5 147.906 40.2761 147.682 40 147.682C39.7239 147.682 39.5 147.906 39.5 148.182H40.5ZM39.5 155.455C39.5 155.731 39.7239 155.955 40 155.955C40.2761 155.955 40.5 155.731 40.5 155.455H39.5ZM40.5 162.727C40.5 162.451 40.2761 162.227 40 162.227C39.7239 162.227 39.5 162.451 39.5 162.727H40.5ZM39.5 170C39.5 170.276 39.7239 170.5 40 170.5C40.2761 170.5 40.5 170.276 40.5 170H39.5ZM40.5 177.273C40.5 176.997 40.2761 176.773 40 176.773C39.7239 176.773 39.5 176.997 39.5 177.273H40.5ZM39.5 184.545C39.5 184.822 39.7239 185.045 40 185.045C40.2761 185.045 40.5 184.822 40.5 184.545H39.5ZM40.5 191.818C40.5 191.542 40.2761 191.318 40 191.318C39.7239 191.318 39.5 191.542 39.5 191.818H40.5ZM39.5 199.091C39.5 199.367 39.7239 199.591 40 199.591C40.2761 199.591 40.5 199.367 40.5 199.091H39.5ZM40.5 206.364C40.5 206.087 40.2761 205.864 40 205.864C39.7239 205.864 39.5 206.087 39.5 206.364H40.5ZM40.2969 214.019C40.4027 214.274 40.6953 214.396 40.9503 214.29C41.2054 214.184 41.3264 213.891 41.2207 213.636L40.2969 214.019ZM46.3636 218.779C46.1086 218.674 45.816 218.795 45.7103 219.05C45.6045 219.305 45.7255 219.597 45.9806 219.703L46.3636 218.779ZM53.4375 220.5C53.7136 220.5 53.9375 220.276 53.9375 220C53.9375 219.724 53.7136 219.5 53.4375 219.5V220.5ZM60.3125 219.5C60.0364 219.5 59.8125 219.724 59.8125 220C59.8125 220.276 60.0364 220.5 60.3125 220.5V219.5ZM67.1875 220.5C67.4636 220.5 67.6875 220.276 67.6875 220C67.6875 219.724 67.4636 219.5 67.1875 219.5V220.5ZM74.0625 219.5C73.7864 219.5 73.5625 219.724 73.5625 220C73.5625 220.276 73.7864 220.5 74.0625 220.5V219.5ZM80.9375 220.5C81.2136 220.5 81.4375 220.276 81.4375 220C81.4375 219.724 81.2136 219.5 80.9375 219.5V220.5ZM87.8125 219.5C87.5364 219.5 87.3125 219.724 87.3125 220C87.3125 220.276 87.5364 220.5 87.8125 220.5V219.5ZM94.6875 220.5C94.9636 220.5 95.1875 220.276 95.1875 220C95.1875 219.724 94.9636 219.5 94.6875 219.5V220.5ZM101.562 219.5C101.286 219.5 101.062 219.724 101.062 220C101.062 220.276 101.286 220.5 101.562 220.5V219.5ZM108.438 220.5C108.714 220.5 108.938 220.276 108.938 220C108.938 219.724 108.714 219.5 108.438 219.5V220.5ZM115.312 219.5C115.036 219.5 114.812 219.724 114.812 220C114.812 220.276 115.036 220.5 115.312 220.5V219.5ZM122.188 220.5C122.464 220.5 122.688 220.276 122.688 220C122.688 219.724 122.464 219.5 122.188 219.5V220.5ZM129.062 219.5C128.786 219.5 128.562 219.724 128.562 220C128.562 220.276 128.786 220.5 129.062 220.5V219.5ZM135.937 220.5C136.214 220.5 136.437 220.276 136.437 220C136.437 219.724 136.214 219.5 135.937 219.5V220.5ZM142.812 219.5C142.536 219.5 142.312 219.724 142.312 220C142.312 220.276 142.536 220.5 142.812 220.5V219.5ZM149.688 220.5C149.964 220.5 150.188 220.276 150.188 220C150.188 219.724 149.964 219.5 149.688 219.5V220.5ZM156.562 219.5C156.286 219.5 156.062 219.724 156.062 220C156.062 220.276 156.286 220.5 156.562 220.5V219.5ZM163.438 220.5C163.714 220.5 163.938 220.276 163.938 220C163.938 219.724 163.714 219.5 163.438 219.5V220.5ZM170.312 219.5C170.036 219.5 169.812 219.724 169.812 220C169.812 220.276 170.036 220.5 170.312 220.5V219.5ZM177.188 220.5C177.464 220.5 177.688 220.276 177.688 220C177.688 219.724 177.464 219.5 177.188 219.5V220.5ZM184.062 219.5C183.786 219.5 183.562 219.724 183.562 220C183.562 220.276 183.786 220.5 184.062 220.5V219.5ZM190.938 220.5C191.214 220.5 191.438 220.276 191.438 220C191.438 219.724 191.214 219.5 190.938 219.5V220.5ZM197.812 219.5C197.536 219.5 197.312 219.724 197.312 220C197.312 220.276 197.536 220.5 197.812 220.5V219.5ZM204.688 220.5C204.964 220.5 205.188 220.276 205.188 220C205.188 219.724 204.964 219.5 204.688 219.5V220.5ZM211.562 219.5C211.286 219.5 211.062 219.724 211.062 220C211.062 220.276 211.286 220.5 211.562 220.5V219.5ZM218.438 220.5C218.714 220.5 218.938 220.276 218.938 220C218.938 219.724 218.714 219.5 218.438 219.5V220.5ZM225.312 219.5C225.036 219.5 224.812 219.724 224.812 220C224.812 220.276 225.036 220.5 225.312 220.5V219.5ZM232.188 220.5C232.464 220.5 232.688 220.276 232.688 220C232.688 219.724 232.464 219.5 232.188 219.5V220.5ZM239.062 219.5C238.786 219.5 238.562 219.724 238.562 220C238.562 220.276 238.786 220.5 239.062 220.5V219.5ZM245.938 220.5C246.214 220.5 246.438 220.276 246.438 220C246.438 219.724 246.214 219.5 245.938 219.5V220.5ZM252.812 219.5C252.536 219.5 252.312 219.724 252.312 220C252.312 220.276 252.536 220.5 252.812 220.5V219.5ZM259.688 220.5C259.964 220.5 260.188 220.276 260.188 220C260.188 219.724 259.964 219.5 259.688 219.5V220.5ZM266.562 219.5C266.286 219.5 266.062 219.724 266.062 220C266.062 220.276 266.286 220.5 266.562 220.5V219.5ZM273.438 220.5C273.714 220.5 273.938 220.276 273.938 220C273.938 219.724 273.714 219.5 273.438 219.5V220.5ZM280.312 219.5C280.036 219.5 279.812 219.724 279.812 220C279.812 220.276 280.036 220.5 280.312 220.5V219.5ZM287.188 220.5C287.464 220.5 287.688 220.276 287.688 220C287.688 219.724 287.464 219.5 287.188 219.5V220.5ZM294.062 219.5C293.786 219.5 293.562 219.724 293.562 220C293.562 220.276 293.786 220.5 294.062 220.5V219.5ZM300.938 220.5C301.214 220.5 301.438 220.276 301.438 220C301.438 219.724 301.214 219.5 300.938 219.5V220.5ZM307.812 219.5C307.536 219.5 307.312 219.724 307.312 220C307.312 220.276 307.536 220.5 307.812 220.5V219.5ZM314.688 220.5C314.964 220.5 315.188 220.276 315.188 220C315.188 219.724 314.964 219.5 314.688 219.5V220.5ZM321.562 219.5C321.286 219.5 321.062 219.724 321.062 220C321.062 220.276 321.286 220.5 321.562 220.5V219.5ZM328.438 220.5C328.714 220.5 328.938 220.276 328.938 220C328.938 219.724 328.714 219.5 328.438 219.5V220.5ZM335.312 219.5C335.036 219.5 334.812 219.724 334.812 220C334.812 220.276 335.036 220.5 335.312 220.5V219.5ZM342.188 220.5C342.464 220.5 342.688 220.276 342.688 220C342.688 219.724 342.464 219.5 342.188 219.5V220.5ZM349.062 219.5C348.786 219.5 348.562 219.724 348.562 220C348.562 220.276 348.786 220.5 349.062 220.5V219.5ZM355.938 220.5C356.214 220.5 356.438 220.276 356.438 220C356.438 219.724 356.214 219.5 355.938 219.5V220.5ZM362.812 219.5C362.536 219.5 362.312 219.724 362.312 220C362.312 220.276 362.536 220.5 362.812 220.5V219.5ZM369.688 220.5C369.964 220.5 370.188 220.276 370.188 220C370.188 219.724 369.964 219.5 369.688 219.5V220.5ZM376.562 219.5C376.286 219.5 376.062 219.724 376.062 220C376.062 220.276 376.286 220.5 376.562 220.5V219.5ZM384.019 219.703C384.274 219.597 384.396 219.305 384.29 219.05C384.184 218.795 383.891 218.674 383.636 218.779L384.019 219.703ZM388.779 213.636C388.674 213.891 388.795 214.184 389.05 214.29C389.305 214.396 389.597 214.274 389.703 214.019L388.779 213.636ZM390.5 207.472C390.5 207.196 390.276 206.972 390 206.972C389.724 206.972 389.5 207.196 389.5 207.472H390.5ZM389.5 202.416C389.5 202.692 389.724 202.916 390 202.916C390.276 202.916 390.5 202.692 390.5 202.416H389.5ZM386.75 199.126C386.476 199.098 386.23 199.298 386.201 199.572C386.173 199.847 386.372 200.093 386.647 200.121L386.75 199.126ZM380.054 199.121C380.325 199.175 380.589 199 380.643 198.729C380.697 198.458 380.522 198.195 380.251 198.14L380.054 199.121ZM373.875 196.542C373.611 196.462 373.332 196.612 373.252 196.876C373.172 197.14 373.322 197.419 373.586 197.499L373.875 196.542ZM367.302 195.269C367.558 195.374 367.85 195.252 367.954 194.996C368.059 194.74 367.937 194.448 367.681 194.344L367.302 195.269ZM361.724 191.567C361.479 191.438 361.177 191.532 361.049 191.777C360.92 192.021 361.014 192.324 361.259 192.452L361.724 191.567ZM355.509 189.075C355.741 189.226 356.051 189.161 356.202 188.93C356.352 188.699 356.287 188.389 356.056 188.238L355.509 189.075ZM350.728 184.389C350.512 184.217 350.197 184.252 350.025 184.468C349.853 184.684 349.889 184.999 350.105 185.171L350.728 184.389ZM345.091 180.776C345.29 180.967 345.606 180.961 345.798 180.762C345.989 180.564 345.984 180.247 345.785 180.055L345.091 180.776ZM341.27 175.277C341.09 175.068 340.775 175.044 340.565 175.224C340.356 175.404 340.332 175.719 340.512 175.929L341.27 175.277ZM336.409 170.673C336.568 170.899 336.88 170.952 337.106 170.793C337.331 170.633 337.385 170.321 337.225 170.096L336.409 170.673ZM333.686 164.557C333.549 164.317 333.243 164.235 333.004 164.372C332.764 164.51 332.682 164.815 332.819 165.055L333.686 164.557ZM329.777 159.121C329.891 159.373 330.187 159.484 330.439 159.37C330.69 159.256 330.802 158.959 330.687 158.708L329.777 159.121ZM328.257 152.601C328.168 152.34 327.883 152.201 327.622 152.291C327.361 152.38 327.222 152.665 327.312 152.926L328.257 152.601ZM325.447 146.524C325.512 146.793 325.782 146.958 326.05 146.894C326.319 146.829 326.484 146.559 326.42 146.291L325.447 146.524ZM325.19 139.834C325.152 139.56 324.898 139.37 324.625 139.409C324.352 139.447 324.161 139.7 324.2 139.974L325.19 139.834ZM323.577 133.334C323.59 133.61 323.824 133.824 324.1 133.811C324.376 133.798 324.589 133.564 324.576 133.288L323.577 133.334ZM324.576 126.712C324.589 126.436 324.376 126.202 324.1 126.189C323.824 126.176 323.59 126.39 323.577 126.666L324.576 126.712ZM324.2 120.026C324.161 120.3 324.352 120.553 324.625 120.591C324.898 120.63 325.152 120.44 325.19 120.166L324.2 120.026ZM326.42 113.709C326.484 113.441 326.319 113.171 326.05 113.106C325.782 113.042 325.512 113.207 325.447 113.476L326.42 113.709ZM327.312 107.074C327.222 107.335 327.361 107.62 327.622 107.709C327.883 107.799 328.168 107.66 328.257 107.399L327.312 107.074ZM330.687 101.292C330.802 101.041 330.69 100.744 330.439 100.63C330.187 100.516 329.891 100.627 329.777 100.879L330.687 101.292ZM332.819 94.9454C332.682 95.1848 332.764 95.4904 333.004 95.6279C333.243 95.7654 333.549 95.6828 333.686 95.4433L332.819 94.9454ZM337.225 89.9042C337.385 89.6788 337.331 89.3667 337.106 89.2072C336.88 89.0478 336.568 89.1012 336.409 89.3266L337.225 89.9042ZM340.512 84.0711C340.332 84.2806 340.356 84.5963 340.565 84.7762C340.775 84.9562 341.09 84.9324 341.27 84.723L340.512 84.0711ZM345.785 79.9446C345.984 79.753 345.989 79.4365 345.798 79.2376C345.606 79.0388 345.29 79.0329 345.091 79.2245L345.785 79.9446ZM350.105 74.8292C349.889 75.0012 349.853 75.3158 350.025 75.5318C350.197 75.7478 350.512 75.7834 350.728 75.6113L350.105 74.8292ZM356.056 71.7622C356.287 71.6112 356.352 71.3014 356.202 71.0702C356.051 70.839 355.741 70.7739 355.509 70.9248L356.056 71.7622ZM361.259 67.5479C361.014 67.6763 360.92 67.9786 361.049 68.2231C361.177 68.4675 361.479 68.5616 361.724 68.4332L361.259 67.5479ZM367.681 65.6561C367.937 65.5515 368.059 65.2595 367.954 65.004C367.85 64.7484 367.558 64.6261 367.302 64.7307L367.681 65.6561ZM373.586 62.5008C373.322 62.5807 373.172 62.8597 373.252 63.124C373.332 63.3884 373.611 63.538 373.875 63.4581L373.586 62.5008ZM380.251 61.8597C380.522 61.8054 380.697 61.5418 380.643 61.2711C380.589 61.0003 380.325 60.8249 380.054 60.8792L380.251 61.8597ZM386.647 59.8789C386.372 59.9073 386.173 60.1531 386.201 60.4277C386.23 60.7024 386.476 60.902 386.75 60.8735L386.647 59.8789ZM390.5 57.5843C390.5 57.3081 390.276 57.0843 390 57.0843C389.724 57.0843 389.5 57.3081 389.5 57.5843H390.5ZM389.5 52.5281C389.5 52.8042 389.724 53.0281 390 53.0281C390.276 53.0281 390.5 52.8042 390.5 52.5281H389.5ZM389.703 45.9806C389.597 45.7255 389.305 45.6045 389.05 45.7103C388.795 45.816 388.674 46.1086 388.779 46.3636L389.703 45.9806ZM383.636 41.2207C383.891 41.3264 384.184 41.2054 384.29 40.9503C384.396 40.6953 384.274 40.4027 384.019 40.2969L383.636 41.2207ZM376.562 39.5C376.286 39.5 376.062 39.7239 376.062 40C376.062 40.2761 376.286 40.5 376.562 40.5V39.5ZM369.688 40.5C369.964 40.5 370.188 40.2761 370.188 40C370.188 39.7239 369.964 39.5 369.688 39.5V40.5ZM362.812 39.5C362.536 39.5 362.312 39.7239 362.312 40C362.312 40.2761 362.536 40.5 362.812 40.5V39.5ZM355.938 40.5C356.214 40.5 356.438 40.2761 356.438 40C356.438 39.7239 356.214 39.5 355.938 39.5V40.5ZM349.062 39.5C348.786 39.5 348.562 39.7239 348.562 40C348.562 40.2761 348.786 40.5 349.062 40.5V39.5ZM342.188 40.5C342.464 40.5 342.688 40.2761 342.688 40C342.688 39.7239 342.464 39.5 342.188 39.5V40.5ZM335.312 39.5C335.036 39.5 334.812 39.7239 334.812 40C334.812 40.2761 335.036 40.5 335.312 40.5V39.5ZM328.438 40.5C328.714 40.5 328.938 40.2761 328.938 40C328.938 39.7239 328.714 39.5 328.438 39.5V40.5ZM321.562 39.5C321.286 39.5 321.062 39.7239 321.062 40C321.062 40.2761 321.286 40.5 321.562 40.5V39.5ZM314.688 40.5C314.964 40.5 315.188 40.2761 315.188 40C315.188 39.7239 314.964 39.5 314.688 39.5V40.5ZM307.812 39.5C307.536 39.5 307.312 39.7239 307.312 40C307.312 40.2761 307.536 40.5 307.812 40.5V39.5ZM300.938 40.5C301.214 40.5 301.438 40.2761 301.438 40C301.438 39.7239 301.214 39.5 300.938 39.5V40.5ZM294.062 39.5C293.786 39.5 293.562 39.7239 293.562 40C293.562 40.2761 293.786 40.5 294.062 40.5V39.5ZM287.188 40.5C287.464 40.5 287.688 40.2761 287.688 40C287.688 39.7239 287.464 39.5 287.188 39.5V40.5ZM280.312 39.5C280.036 39.5 279.812 39.7239 279.812 40C279.812 40.2761 280.036 40.5 280.312 40.5V39.5ZM273.438 40.5C273.714 40.5 273.938 40.2761 273.938 40C273.938 39.7239 273.714 39.5 273.438 39.5V40.5ZM266.562 39.5C266.286 39.5 266.062 39.7239 266.062 40C266.062 40.2761 266.286 40.5 266.562 40.5V39.5ZM259.688 40.5C259.964 40.5 260.188 40.2761 260.188 40C260.188 39.7239 259.964 39.5 259.688 39.5V40.5ZM252.812 39.5C252.536 39.5 252.312 39.7239 252.312 40C252.312 40.2761 252.536 40.5 252.812 40.5V39.5ZM245.938 40.5C246.214 40.5 246.438 40.2761 246.438 40C246.438 39.7239 246.214 39.5 245.938 39.5V40.5ZM239.062 39.5C238.786 39.5 238.562 39.7239 238.562 40C238.562 40.2761 238.786 40.5 239.062 40.5V39.5ZM232.188 40.5C232.464 40.5 232.688 40.2761 232.688 40C232.688 39.7239 232.464 39.5 232.188 39.5V40.5ZM225.312 39.5C225.036 39.5 224.812 39.7239 224.812 40C224.812 40.2761 225.036 40.5 225.312 40.5V39.5ZM218.438 40.5C218.714 40.5 218.938 40.2761 218.938 40C218.938 39.7239 218.714 39.5 218.438 39.5V40.5ZM211.562 39.5C211.286 39.5 211.062 39.7239 211.062 40C211.062 40.2761 211.286 40.5 211.562 40.5V39.5ZM204.688 40.5C204.964 40.5 205.188 40.2761 205.188 40C205.188 39.7239 204.964 39.5 204.688 39.5V40.5ZM197.812 39.5C197.536 39.5 197.312 39.7239 197.312 40C197.312 40.2761 197.536 40.5 197.812 40.5V39.5ZM190.938 40.5C191.214 40.5 191.438 40.2761 191.438 40C191.438 39.7239 191.214 39.5 190.938 39.5V40.5ZM184.062 39.5C183.786 39.5 183.562 39.7239 183.562 40C183.562 40.2761 183.786 40.5 184.062 40.5V39.5ZM177.188 40.5C177.464 40.5 177.688 40.2761 177.688 40C177.688 39.7239 177.464 39.5 177.188 39.5V40.5ZM170.312 39.5C170.036 39.5 169.812 39.7239 169.812 40C169.812 40.2761 170.036 40.5 170.312 40.5V39.5ZM163.438 40.5C163.714 40.5 163.938 40.2761 163.938 40C163.938 39.7239 163.714 39.5 163.438 39.5V40.5ZM156.563 39.5C156.286 39.5 156.063 39.7239 156.063 40C156.063 40.2761 156.286 40.5 156.563 40.5V39.5ZM149.687 40.5C149.964 40.5 150.187 40.2761 150.187 40C150.187 39.7239 149.964 39.5 149.687 39.5V40.5ZM142.812 39.5C142.536 39.5 142.312 39.7239 142.312 40C142.312 40.2761 142.536 40.5 142.812 40.5V39.5ZM135.938 40.5C136.214 40.5 136.438 40.2761 136.438 40C136.438 39.7239 136.214 39.5 135.938 39.5V40.5ZM129.062 39.5C128.786 39.5 128.562 39.7239 128.562 40C128.562 40.2761 128.786 40.5 129.062 40.5V39.5ZM122.188 40.5C122.464 40.5 122.688 40.2761 122.688 40C122.688 39.7239 122.464 39.5 122.188 39.5V40.5ZM115.313 39.5C115.036 39.5 114.813 39.7239 114.813 40C114.813 40.2761 115.036 40.5 115.313 40.5V39.5ZM108.437 40.5C108.714 40.5 108.937 40.2761 108.937 40C108.937 39.7239 108.714 39.5 108.437 39.5V40.5ZM101.562 39.5C101.286 39.5 101.062 39.7239 101.062 40C101.062 40.2761 101.286 40.5 101.562 40.5V39.5ZM94.6875 40.5C94.9636 40.5 95.1875 40.2761 95.1875 40C95.1875 39.7239 94.9636 39.5 94.6875 39.5V40.5ZM87.8125 39.5C87.5364 39.5 87.3125 39.7239 87.3125 40C87.3125 40.2761 87.5364 40.5 87.8125 40.5V39.5ZM80.9375 40.5C81.2136 40.5 81.4375 40.2761 81.4375 40C81.4375 39.7239 81.2136 39.5 80.9375 39.5V40.5ZM74.0625 39.5C73.7864 39.5 73.5625 39.7239 73.5625 40C73.5625 40.2761 73.7864 40.5 74.0625 40.5V39.5ZM67.1875 40.5C67.4636 40.5 67.6875 40.2761 67.6875 40C67.6875 39.7239 67.4636 39.5 67.1875 39.5V40.5ZM60.3125 39.5C60.0364 39.5 59.8125 39.7239 59.8125 40C59.8125 40.2761 60.0364 40.5 60.3125 40.5V39.5ZM53.4375 40.5C53.7136 40.5 53.9375 40.2761 53.9375 40C53.9375 39.7239 53.7136 39.5 53.4375 39.5V40.5ZM45.9806 40.2969C45.7255 40.4027 45.6045 40.6953 45.7103 40.9503C45.816 41.2054 46.1086 41.3264 46.3636 41.2207L45.9806 40.2969ZM41.2207 46.3637C41.3264 46.1086 41.2054 45.816 40.9503 45.7103C40.6953 45.6045 40.4027 45.7255 40.2969 45.9806L41.2207 46.3637ZM39.5 50V53.6364H40.5V50H39.5ZM39.5 60.9091V68.1818H40.5V60.9091H39.5ZM39.5 75.4545V82.7273H40.5V75.4545H39.5ZM39.5 90V97.2727H40.5V90H39.5ZM39.5 104.545V111.818H40.5V104.545H39.5ZM39.5 119.091V126.364H40.5V119.091H39.5ZM39.5 133.636V140.909H40.5V133.636H39.5ZM39.5 148.182V155.455H40.5V148.182H39.5ZM39.5 162.727V170H40.5V162.727H39.5ZM39.5 177.273V184.545H40.5V177.273H39.5ZM39.5 191.818V199.091H40.5V191.818H39.5ZM39.5 206.364V210H40.5V206.364H39.5ZM39.5 210C39.5 211.423 39.7833 212.781 40.2969 214.019L41.2207 213.636C40.7565 212.517 40.5 211.289 40.5 210H39.5ZM45.9806 219.703C47.2193 220.217 48.5772 220.5 50 220.5V219.5C48.711 219.5 47.4831 219.244 46.3636 218.779L45.9806 219.703ZM50 220.5H53.4375V219.5H50V220.5ZM60.3125 220.5H67.1875V219.5H60.3125V220.5ZM74.0625 220.5H80.9375V219.5H74.0625V220.5ZM87.8125 220.5H94.6875V219.5H87.8125V220.5ZM101.562 220.5H108.438V219.5H101.562V220.5ZM115.312 220.5H122.188V219.5H115.312V220.5ZM129.062 220.5H135.937V219.5H129.062V220.5ZM142.812 220.5H149.688V219.5H142.812V220.5ZM156.562 220.5H163.438V219.5H156.562V220.5ZM170.312 220.5H177.188V219.5H170.312V220.5ZM184.062 220.5H190.938V219.5H184.062V220.5ZM197.812 220.5H204.688V219.5H197.812V220.5ZM211.562 220.5H218.438V219.5H211.562V220.5ZM225.312 220.5H232.188V219.5H225.312V220.5ZM239.062 220.5H245.938V219.5H239.062V220.5ZM252.812 220.5H259.688V219.5H252.812V220.5ZM266.562 220.5H273.438V219.5H266.562V220.5ZM280.312 220.5H287.188V219.5H280.312V220.5ZM294.062 220.5H300.938V219.5H294.062V220.5ZM307.812 220.5H314.688V219.5H307.812V220.5ZM321.562 220.5H328.438V219.5H321.562V220.5ZM335.312 220.5H342.188V219.5H335.312V220.5ZM349.062 220.5H355.938V219.5H349.062V220.5ZM362.812 220.5H369.688V219.5H362.812V220.5ZM376.562 220.5H380V219.5H376.562V220.5ZM380 220.5C381.423 220.5 382.781 220.217 384.019 219.703L383.636 218.779C382.517 219.244 381.289 219.5 380 219.5V220.5ZM389.703 214.019C390.217 212.781 390.5 211.423 390.5 210H389.5C389.5 211.289 389.244 212.517 388.779 213.636L389.703 214.019ZM390.5 210V207.472H389.5V210H390.5ZM390.5 202.416V199.888H389.5V202.416H390.5ZM390.028 199.388C388.928 199.326 387.836 199.239 386.75 199.126L386.647 200.121C387.748 200.235 388.857 200.324 389.972 200.387L390.028 199.388ZM380.251 198.14C378.088 197.706 375.961 197.172 373.875 196.542L373.586 197.499C375.702 198.138 377.86 198.68 380.054 199.121L380.251 198.14ZM367.681 194.344C365.645 193.51 363.658 192.583 361.724 191.567L361.259 192.452C363.221 193.483 365.237 194.424 367.302 195.269L367.681 194.344ZM356.056 188.238C354.218 187.038 352.44 185.753 350.728 184.389L350.105 185.171C351.841 186.554 353.645 187.858 355.509 189.075L356.056 188.238ZM345.785 180.055C344.206 178.535 342.7 176.94 341.27 175.277L340.512 175.929C341.962 177.616 343.49 179.233 345.091 180.776L345.785 180.055ZM337.225 170.096C335.962 168.31 334.78 166.462 333.686 164.557L332.819 165.055C333.929 166.987 335.127 168.862 336.409 170.673L337.225 170.096ZM330.687 158.708C329.785 156.721 328.973 154.683 328.257 152.601L327.312 152.926C328.038 155.038 328.861 157.105 329.777 159.121L330.687 158.708ZM326.42 146.291C325.911 144.174 325.5 142.02 325.19 139.834L324.2 139.974C324.514 142.192 324.932 144.377 325.447 146.524L326.42 146.291ZM324.576 133.288C324.526 132.198 324.5 131.102 324.5 130H323.5C323.5 131.118 323.526 132.229 323.577 133.334L324.576 133.288ZM324.5 130C324.5 128.898 324.526 127.802 324.576 126.712L323.577 126.666C323.526 127.771 323.5 128.882 323.5 130H324.5ZM325.19 120.166C325.5 117.98 325.911 115.826 326.42 113.709L325.447 113.476C324.932 115.623 324.514 117.808 324.2 120.026L325.19 120.166ZM328.257 107.399C328.973 105.317 329.785 103.279 330.687 101.292L329.777 100.879C328.861 102.895 328.038 104.962 327.312 107.074L328.257 107.399ZM333.686 95.4433C334.78 93.5384 335.962 91.6902 337.225 89.9042L336.409 89.3266C335.127 91.1382 333.929 93.013 332.819 94.9454L333.686 95.4433ZM341.27 84.723C342.7 83.0599 344.206 81.4653 345.785 79.9446L345.091 79.2245C343.49 80.7669 341.962 82.3843 340.512 84.0711L341.27 84.723ZM350.728 75.6113C352.44 74.2472 354.218 72.9624 356.056 71.7622L355.509 70.9248C353.645 72.1423 351.841 73.4456 350.105 74.8292L350.728 75.6113ZM361.724 68.4332C363.658 67.4172 365.645 66.4898 367.681 65.6561L367.302 64.7307C365.237 65.5764 363.221 66.5173 361.259 67.5479L361.724 68.4332ZM373.875 63.4581C375.961 62.8283 378.088 62.2938 380.251 61.8597L380.054 60.8792C377.86 61.3196 375.702 61.8618 373.586 62.5008L373.875 63.4581ZM386.75 60.8735C387.836 60.761 388.928 60.6735 390.028 60.6116L389.972 59.6132C388.857 59.676 387.748 59.7648 386.647 59.8789L386.75 60.8735ZM390.5 60.1124V57.5843H389.5V60.1124H390.5ZM390.5 52.5281V50H389.5V52.5281H390.5ZM390.5 50C390.5 48.5772 390.217 47.2193 389.703 45.9806L388.779 46.3636C389.244 47.4831 389.5 48.711 389.5 50H390.5ZM384.019 40.2969C382.781 39.7833 381.423 39.5 380 39.5V40.5C381.289 40.5 382.517 40.7565 383.636 41.2207L384.019 40.2969ZM380 39.5H376.562V40.5H380V39.5ZM369.688 39.5H362.812V40.5H369.688V39.5ZM355.938 39.5H349.062V40.5H355.938V39.5ZM342.188 39.5H335.312V40.5H342.188V39.5ZM328.438 39.5H321.562V40.5H328.438V39.5ZM314.688 39.5H307.812V40.5H314.688V39.5ZM300.938 39.5H294.062V40.5H300.938V39.5ZM287.188 39.5H280.312V40.5H287.188V39.5ZM273.438 39.5H266.562V40.5H273.438V39.5ZM259.688 39.5H252.812V40.5H259.688V39.5ZM245.938 39.5H239.062V40.5H245.938V39.5ZM232.188 39.5H225.312V40.5H232.188V39.5ZM218.438 39.5H211.562V40.5H218.438V39.5ZM204.688 39.5H197.812V40.5H204.688V39.5ZM190.938 39.5H184.062V40.5H190.938V39.5ZM177.188 39.5H170.312V40.5H177.188V39.5ZM163.438 39.5H156.563V40.5H163.438V39.5ZM149.687 39.5H142.812V40.5H149.687V39.5ZM135.938 39.5H129.062V40.5H135.938V39.5ZM122.188 39.5H115.313V40.5H122.188V39.5ZM108.437 39.5H101.562V40.5H108.437V39.5ZM94.6875 39.5H87.8125V40.5H94.6875V39.5ZM80.9375 39.5H74.0625V40.5H80.9375V39.5ZM67.1875 39.5H60.3125V40.5H67.1875V39.5ZM53.4375 39.5H50V40.5H53.4375V39.5ZM50 39.5C48.5772 39.5 47.2193 39.7833 45.9806 40.2969L46.3636 41.2207C47.4831 40.7565 48.711 40.5 50 40.5V39.5ZM40.2969 45.9806C39.7833 47.2193 39.5 48.5772 39.5 50H40.5C40.5 48.711 40.7565 47.4831 41.2207 46.3637L40.2969 45.9806Z" fill="#E5E5E5"/>
</g>
<defs>
<filter id="filter0_d" x="0" y="0" width="430" height="260" filterUnits="userSpaceOnUse" color-interpolation-filters="sRGB">
<feFlood flood-opacity="0" result="BackgroundImageFix"/>
<feColorMatrix in="SourceAlpha" type="matrix" values="0 0 0 0 0 0 0 0 0 0 0 0 0 0 0 0 0 0 127 0"/>
<feOffset/>
<feGaussianBlur stdDeviation="15"/>
<feColorMatrix type="matrix" values="0 0 0 0 0 0 0 0 0 0 0 0 0 0 0 0 0 0 0.1 0"/>
<feBlend mode="normal" in2="BackgroundImageFix" result="effect1_dropShadow"/>
<feBlend mode="normal" in="SourceGraphic" in2="effect1_dropShadow" result="shape"/>
</filter>
<filter id="filter1_d" x="9.5" y="9.5" width="411" height="241" filterUnits="userSpaceOnUse" color-interpolation-filters="sRGB">
<feFlood flood-opacity="0" result="BackgroundImageFix"/>
<feColorMatrix in="SourceAlpha" type="matrix" values="0 0 0 0 0 0 0 0 0 0 0 0 0 0 0 0 0 0 127 0"/>
<feOffset/>
<feGaussianBlur stdDeviation="15"/>
<feColorMatrix type="matrix" values="0 0 0 0 0 0 0 0 0 0 0 0 0 0 0 0 0 0 0.1 0"/>
<feBlend mode="normal" in2="BackgroundImageFix" result="effect1_dropShadow"/>
<feBlend mode="normal" in="SourceGraphic" in2="effect1_dropShadow" result="shape"/>
</filter>
<linearGradient id="paint0_linear" x1="397.636" y1="180" x2="397.636" y2="80" gradientUnits="userSpaceOnUse">
<stop stop-color="#FCCB05"/>
<stop offset="1" stop-color="#FFE57D"/>
</linearGradient>
<linearGradient id="paint1_linear" x1="397.636" y1="180" x2="397.636" y2="80" gradientUnits="userSpaceOnUse">
<stop stop-color="#FCCB05"/>
<stop offset="1" stop-color="#FFE57D"/>
</linearGradient>
</defs>
</svg>
