<svg width="320" height="306" viewBox="0 0 320 306" fill="none" xmlns="http://www.w3.org/2000/svg">
<path d="M201.891 41.8919C201.891 65.0281 183.136 83.7838 159.999 83.7838C136.863 83.7838 118.107 65.0281 118.107 41.8919C118.107 18.7556 136.863 0 159.999 0C183.136 0 201.891 18.7556 201.891 41.8919Z" fill="url(#paint0_linear)"/>
<mask id="mask0" mask-type="alpha" maskUnits="userSpaceOnUse" x="118" y="0" width="84" height="85">
<circle cx="160" cy="42.2432" r="42" fill="url(#paint1_linear)"/>
</mask>
<g mask="url(#mask0)">
<path d="M157.497 19.181C158.112 17.9355 159.888 17.9355 160.503 19.181L165.599 29.5073C166.087 30.4964 167.031 31.182 168.122 31.3406L179.518 32.9965C180.892 33.1962 181.441 34.8852 180.447 35.8547L172.201 43.8926C171.411 44.6625 171.05 45.7718 171.237 46.8589L173.183 58.2086C173.418 59.5775 171.981 60.6214 170.752 59.9751L160.56 54.6165C159.583 54.1032 158.417 54.1032 157.44 54.6165L147.248 59.9751C146.019 60.6214 144.582 59.5775 144.817 58.2086L146.763 46.8589C146.95 45.7718 146.589 44.6625 145.799 43.8926L137.553 35.8547C136.559 34.8852 137.108 33.1962 138.482 32.9965L149.878 31.3406C150.969 31.182 151.913 30.4964 152.401 29.5073L157.497 19.181Z" stroke="white" stroke-width="1.67568" style="mix-blend-mode:overlay"/>
<path d="M159.249 30.6586C159.556 30.0359 160.444 30.0359 160.751 30.6586L162.973 35.1609C163.339 35.9027 164.047 36.4169 164.866 36.5359L169.834 37.2578C170.522 37.3577 170.796 38.2022 170.299 38.6869L166.703 42.1914C166.111 42.7688 165.841 43.6008 165.981 44.4162L166.829 49.3646C166.947 50.049 166.228 50.571 165.614 50.2478L161.17 47.9115C160.437 47.5265 159.563 47.5265 158.83 47.9115L154.386 50.2478C153.772 50.571 153.053 50.049 153.171 49.3646L154.019 44.4162C154.159 43.6008 153.889 42.7688 153.297 42.1914L149.701 38.6869C149.204 38.2022 149.478 37.3577 150.166 37.2578L155.134 36.5359C155.953 36.4169 156.661 35.9027 157.027 35.1609L159.249 30.6586Z" stroke="white" stroke-width="1.67568" style="mix-blend-mode:overlay"/>
</g>
<g filter="url(#filter0_d)">
<path fill-rule="evenodd" clip-rule="evenodd" d="M108.928 53.2432H13.3784C8.75113 53.2432 5 56.9943 5 61.6215V271.865C5 276.492 8.75114 280.243 13.3784 280.243H306.622C311.249 280.243 315 276.492 315 271.865V61.6215C315 56.9943 311.249 53.2432 306.622 53.2432H210.072C202.823 74.1964 182.919 89.2432 159.5 89.2432C136.081 89.2432 116.177 74.1964 108.928 53.2432Z" fill="white"/>
</g>
<g filter="url(#filter1_d)">
<path d="M105.651 63.2432L106.037 63.0797L105.929 62.8242H105.651V63.2432ZM214.349 63.2432V62.8242H214.071L213.963 63.0797L214.349 63.2432ZM20.0108 63.492C19.7971 63.5806 19.6956 63.8257 19.7843 64.0394C19.8729 64.2531 20.118 64.3545 20.3317 64.2659L20.0108 63.492ZM16.0227 68.5749C16.1113 68.3612 16.0099 68.1161 15.7962 68.0274C15.5825 67.9388 15.3374 68.0402 15.2488 68.2539L16.0227 68.5749ZM14.5811 74.5941C14.5811 74.8255 14.7686 75.013 15 75.013C15.2314 75.013 15.4189 74.8255 15.4189 74.5941H14.5811ZM15.4189 80.5392C15.4189 80.3078 15.2314 80.1203 15 80.1203C14.7686 80.1203 14.5811 80.3078 14.5811 80.5392H15.4189ZM14.5811 86.4843C14.5811 86.7157 14.7686 86.9032 15 86.9032C15.2314 86.9032 15.4189 86.7157 15.4189 86.4843H14.5811ZM15.4189 92.4294C15.4189 92.198 15.2314 92.0105 15 92.0105C14.7686 92.0105 14.5811 92.198 14.5811 92.4294H15.4189ZM14.5811 98.3745C14.5811 98.6059 14.7686 98.7934 15 98.7934C15.2314 98.7934 15.4189 98.6059 15.4189 98.3745H14.5811ZM15.4189 104.32C15.4189 104.088 15.2314 103.901 15 103.901C14.7686 103.901 14.5811 104.088 14.5811 104.32H15.4189ZM14.5811 110.265C14.5811 110.496 14.7686 110.684 15 110.684C15.2314 110.684 15.4189 110.496 15.4189 110.265H14.5811ZM15.4189 116.21C15.4189 115.978 15.2314 115.791 15 115.791C14.7686 115.791 14.5811 115.978 14.5811 116.21H15.4189ZM14.5811 122.155C14.5811 122.386 14.7686 122.574 15 122.574C15.2314 122.574 15.4189 122.386 15.4189 122.155H14.5811ZM15.4189 128.1C15.4189 127.869 15.2314 127.681 15 127.681C14.7686 127.681 14.5811 127.869 14.5811 128.1H15.4189ZM14.5811 134.045C14.5811 134.276 14.7686 134.464 15 134.464C15.2314 134.464 15.4189 134.276 15.4189 134.045H14.5811ZM15.4189 139.99C15.4189 139.759 15.2314 139.571 15 139.571C14.7686 139.571 14.5811 139.759 14.5811 139.99H15.4189ZM14.5811 145.935C14.5811 146.167 14.7686 146.354 15 146.354C15.2314 146.354 15.4189 146.167 15.4189 145.935H14.5811ZM15.4189 151.88C15.4189 151.649 15.2314 151.461 15 151.461C14.7686 151.461 14.5811 151.649 14.5811 151.88H15.4189ZM14.5811 157.826C14.5811 158.057 14.7686 158.244 15 158.244C15.2314 158.244 15.4189 158.057 15.4189 157.826H14.5811ZM15.4189 163.771C15.4189 163.539 15.2314 163.352 15 163.352C14.7686 163.352 14.5811 163.539 14.5811 163.771H15.4189ZM14.5811 169.716C14.5811 169.947 14.7686 170.135 15 170.135C15.2314 170.135 15.4189 169.947 15.4189 169.716H14.5811ZM15.4189 175.661C15.4189 175.429 15.2314 175.242 15 175.242C14.7686 175.242 14.5811 175.429 14.5811 175.661H15.4189ZM14.5811 181.606C14.5811 181.837 14.7686 182.025 15 182.025C15.2314 182.025 15.4189 181.837 15.4189 181.606H14.5811ZM15.4189 187.551C15.4189 187.32 15.2314 187.132 15 187.132C14.7686 187.132 14.5811 187.32 14.5811 187.551H15.4189ZM14.5811 193.496C14.5811 193.727 14.7686 193.915 15 193.915C15.2314 193.915 15.4189 193.727 15.4189 193.496H14.5811ZM15.4189 199.441C15.4189 199.21 15.2314 199.022 15 199.022C14.7686 199.022 14.5811 199.21 14.5811 199.441H15.4189ZM14.5811 205.386C14.5811 205.618 14.7686 205.805 15 205.805C15.2314 205.805 15.4189 205.618 15.4189 205.386H14.5811ZM15.4189 211.331C15.4189 211.1 15.2314 210.912 15 210.912C14.7686 210.912 14.5811 211.1 14.5811 211.331H15.4189ZM14.5811 217.277C14.5811 217.508 14.7686 217.695 15 217.695C15.2314 217.695 15.4189 217.508 15.4189 217.277H14.5811ZM15.4189 223.222C15.4189 222.99 15.2314 222.803 15 222.803C14.7686 222.803 14.5811 222.99 14.5811 223.222H15.4189ZM14.5811 229.167C14.5811 229.398 14.7686 229.586 15 229.586C15.2314 229.586 15.4189 229.398 15.4189 229.167H14.5811ZM15.4189 235.112C15.4189 234.88 15.2314 234.693 15 234.693C14.7686 234.693 14.5811 234.88 14.5811 235.112H15.4189ZM14.5811 241.057C14.5811 241.288 14.7686 241.476 15 241.476C15.2314 241.476 15.4189 241.288 15.4189 241.057H14.5811ZM15.4189 247.002C15.4189 246.771 15.2314 246.583 15 246.583C14.7686 246.583 14.5811 246.771 14.5811 247.002H15.4189ZM14.5811 252.947C14.5811 253.178 14.7686 253.366 15 253.366C15.2314 253.366 15.4189 253.178 15.4189 252.947H14.5811ZM15.4189 258.892C15.4189 258.661 15.2314 258.473 15 258.473C14.7686 258.473 14.5811 258.661 14.5811 258.892H15.4189ZM15.2488 265.232C15.3374 265.446 15.5825 265.548 15.7962 265.459C16.0099 265.37 16.1113 265.125 16.0227 264.911L15.2488 265.232ZM20.3317 269.22C20.118 269.132 19.8729 269.233 19.7843 269.447C19.6956 269.661 19.7971 269.906 20.0108 269.994L20.3317 269.22ZM26.3484 270.662C26.5798 270.662 26.7673 270.475 26.7673 270.243C26.7673 270.012 26.5798 269.824 26.3484 269.824V270.662ZM32.2885 269.824C32.0571 269.824 31.8696 270.012 31.8696 270.243C31.8696 270.475 32.0571 270.662 32.2885 270.662V269.824ZM38.2286 270.662C38.4599 270.662 38.6475 270.475 38.6475 270.243C38.6475 270.012 38.4599 269.824 38.2286 269.824V270.662ZM44.1686 269.824C43.9373 269.824 43.7497 270.012 43.7497 270.243C43.7497 270.475 43.9373 270.662 44.1686 270.662V269.824ZM50.1087 270.662C50.3401 270.662 50.5276 270.475 50.5276 270.243C50.5276 270.012 50.3401 269.824 50.1087 269.824V270.662ZM56.0488 269.824C55.8174 269.824 55.6299 270.012 55.6299 270.243C55.6299 270.475 55.8174 270.662 56.0488 270.662V269.824ZM61.9888 270.662C62.2202 270.662 62.4078 270.475 62.4078 270.243C62.4078 270.012 62.2202 269.824 61.9888 269.824V270.662ZM67.9289 269.824C67.6976 269.824 67.51 270.012 67.51 270.243C67.51 270.475 67.6976 270.662 67.9289 270.662V269.824ZM73.869 270.662C74.1003 270.662 74.2879 270.475 74.2879 270.243C74.2879 270.012 74.1003 269.824 73.869 269.824V270.662ZM79.8091 269.824C79.5777 269.824 79.3901 270.012 79.3901 270.243C79.3901 270.475 79.5777 270.662 79.8091 270.662V269.824ZM85.7491 270.662C85.9805 270.662 86.168 270.475 86.168 270.243C86.168 270.012 85.9805 269.824 85.7491 269.824V270.662ZM91.6892 269.824C91.4578 269.824 91.2703 270.012 91.2703 270.243C91.2703 270.475 91.4578 270.662 91.6892 270.662V269.824ZM97.6293 270.662C97.8606 270.662 98.0482 270.475 98.0482 270.243C98.0482 270.012 97.8606 269.824 97.6293 269.824V270.662ZM103.569 269.824C103.338 269.824 103.15 270.012 103.15 270.243C103.15 270.475 103.338 270.662 103.569 270.662V269.824ZM109.509 270.662C109.741 270.662 109.928 270.475 109.928 270.243C109.928 270.012 109.741 269.824 109.509 269.824V270.662ZM115.449 269.824C115.218 269.824 115.031 270.012 115.031 270.243C115.031 270.475 115.218 270.662 115.449 270.662V269.824ZM121.39 270.662C121.621 270.662 121.808 270.475 121.808 270.243C121.808 270.012 121.621 269.824 121.39 269.824V270.662ZM127.33 269.824C127.098 269.824 126.911 270.012 126.911 270.243C126.911 270.475 127.098 270.662 127.33 270.662V269.824ZM133.27 270.662C133.501 270.662 133.689 270.475 133.689 270.243C133.689 270.012 133.501 269.824 133.27 269.824V270.662ZM139.21 269.824C138.978 269.824 138.791 270.012 138.791 270.243C138.791 270.475 138.978 270.662 139.21 270.662V269.824ZM145.15 270.662C145.381 270.662 145.569 270.475 145.569 270.243C145.569 270.012 145.381 269.824 145.15 269.824V270.662ZM151.09 269.824C150.859 269.824 150.671 270.012 150.671 270.243C150.671 270.475 150.859 270.662 151.09 270.662V269.824ZM157.03 270.662C157.261 270.662 157.449 270.475 157.449 270.243C157.449 270.012 157.261 269.824 157.03 269.824V270.662ZM162.97 269.824C162.739 269.824 162.551 270.012 162.551 270.243C162.551 270.475 162.739 270.662 162.97 270.662V269.824ZM168.91 270.662C169.141 270.662 169.329 270.475 169.329 270.243C169.329 270.012 169.141 269.824 168.91 269.824V270.662ZM174.85 269.824C174.619 269.824 174.431 270.012 174.431 270.243C174.431 270.475 174.619 270.662 174.85 270.662V269.824ZM180.79 270.662C181.022 270.662 181.209 270.475 181.209 270.243C181.209 270.012 181.022 269.824 180.79 269.824V270.662ZM186.73 269.824C186.499 269.824 186.311 270.012 186.311 270.243C186.311 270.475 186.499 270.662 186.73 270.662V269.824ZM192.67 270.662C192.902 270.662 193.089 270.475 193.089 270.243C193.089 270.012 192.902 269.824 192.67 269.824V270.662ZM198.61 269.824C198.379 269.824 198.192 270.012 198.192 270.243C198.192 270.475 198.379 270.662 198.61 270.662V269.824ZM204.55 270.662C204.782 270.662 204.969 270.475 204.969 270.243C204.969 270.012 204.782 269.824 204.55 269.824V270.662ZM210.491 269.824C210.259 269.824 210.072 270.012 210.072 270.243C210.072 270.475 210.259 270.662 210.491 270.662V269.824ZM216.431 270.662C216.662 270.662 216.85 270.475 216.85 270.243C216.85 270.012 216.662 269.824 216.431 269.824V270.662ZM222.371 269.824C222.139 269.824 221.952 270.012 221.952 270.243C221.952 270.475 222.139 270.662 222.371 270.662V269.824ZM228.311 270.662C228.542 270.662 228.73 270.475 228.73 270.243C228.73 270.012 228.542 269.824 228.311 269.824V270.662ZM234.251 269.824C234.019 269.824 233.832 270.012 233.832 270.243C233.832 270.475 234.019 270.662 234.251 270.662V269.824ZM240.191 270.662C240.422 270.662 240.61 270.475 240.61 270.243C240.61 270.012 240.422 269.824 240.191 269.824V270.662ZM246.131 269.824C245.9 269.824 245.712 270.012 245.712 270.243C245.712 270.475 245.9 270.662 246.131 270.662V269.824ZM252.071 270.662C252.302 270.662 252.49 270.475 252.49 270.243C252.49 270.012 252.302 269.824 252.071 269.824V270.662ZM258.011 269.824C257.78 269.824 257.592 270.012 257.592 270.243C257.592 270.475 257.78 270.662 258.011 270.662V269.824ZM263.951 270.662C264.182 270.662 264.37 270.475 264.37 270.243C264.37 270.012 264.182 269.824 263.951 269.824V270.662ZM269.891 269.824C269.66 269.824 269.472 270.012 269.472 270.243C269.472 270.475 269.66 270.662 269.891 270.662V269.824ZM275.831 270.662C276.063 270.662 276.25 270.475 276.25 270.243C276.25 270.012 276.063 269.824 275.831 269.824V270.662ZM281.771 269.824C281.54 269.824 281.352 270.012 281.352 270.243C281.352 270.475 281.54 270.662 281.771 270.662V269.824ZM287.711 270.662C287.943 270.662 288.13 270.475 288.13 270.243C288.13 270.012 287.943 269.824 287.711 269.824V270.662ZM293.651 269.824C293.42 269.824 293.233 270.012 293.233 270.243C293.233 270.475 293.42 270.662 293.651 270.662V269.824ZM299.989 269.994C300.203 269.906 300.304 269.661 300.216 269.447C300.127 269.233 299.882 269.132 299.668 269.22L299.989 269.994ZM303.977 264.911C303.889 265.125 303.99 265.37 304.204 265.459C304.417 265.548 304.663 265.446 304.751 265.232L303.977 264.911ZM305.419 258.892C305.419 258.661 305.231 258.473 305 258.473C304.769 258.473 304.581 258.661 304.581 258.892H305.419ZM304.581 252.947C304.581 253.178 304.769 253.366 305 253.366C305.231 253.366 305.419 253.178 305.419 252.947H304.581ZM305.419 247.002C305.419 246.771 305.231 246.583 305 246.583C304.769 246.583 304.581 246.771 304.581 247.002H305.419ZM304.581 241.057C304.581 241.288 304.769 241.476 305 241.476C305.231 241.476 305.419 241.288 305.419 241.057H304.581ZM305.419 235.112C305.419 234.88 305.231 234.693 305 234.693C304.769 234.693 304.581 234.88 304.581 235.112H305.419ZM304.581 229.167C304.581 229.398 304.769 229.586 305 229.586C305.231 229.586 305.419 229.398 305.419 229.167H304.581ZM305.419 223.222C305.419 222.99 305.231 222.803 305 222.803C304.769 222.803 304.581 222.99 304.581 223.222H305.419ZM304.581 217.277C304.581 217.508 304.769 217.695 305 217.695C305.231 217.695 305.419 217.508 305.419 217.277H304.581ZM305.419 211.331C305.419 211.1 305.231 210.913 305 210.913C304.769 210.913 304.581 211.1 304.581 211.331H305.419ZM304.581 205.386C304.581 205.618 304.769 205.805 305 205.805C305.231 205.805 305.419 205.618 305.419 205.386H304.581ZM305.419 199.441C305.419 199.21 305.231 199.022 305 199.022C304.769 199.022 304.581 199.21 304.581 199.441H305.419ZM304.581 193.496C304.581 193.727 304.769 193.915 305 193.915C305.231 193.915 305.419 193.727 305.419 193.496H304.581ZM305.419 187.551C305.419 187.32 305.231 187.132 305 187.132C304.769 187.132 304.581 187.32 304.581 187.551H305.419ZM304.581 181.606C304.581 181.837 304.769 182.025 305 182.025C305.231 182.025 305.419 181.837 305.419 181.606H304.581ZM305.419 175.661C305.419 175.429 305.231 175.242 305 175.242C304.769 175.242 304.581 175.429 304.581 175.661H305.419ZM304.581 169.716C304.581 169.947 304.769 170.135 305 170.135C305.231 170.135 305.419 169.947 305.419 169.716H304.581ZM305.419 163.771C305.419 163.539 305.231 163.352 305 163.352C304.769 163.352 304.581 163.539 304.581 163.771H305.419ZM304.581 157.826C304.581 158.057 304.769 158.244 305 158.244C305.231 158.244 305.419 158.057 305.419 157.826H304.581ZM305.419 151.88C305.419 151.649 305.231 151.462 305 151.462C304.769 151.462 304.581 151.649 304.581 151.88H305.419ZM304.581 145.935C304.581 146.167 304.769 146.354 305 146.354C305.231 146.354 305.419 146.167 305.419 145.935H304.581ZM305.419 139.99C305.419 139.759 305.231 139.571 305 139.571C304.769 139.571 304.581 139.759 304.581 139.99H305.419ZM304.581 134.045C304.581 134.276 304.769 134.464 305 134.464C305.231 134.464 305.419 134.276 305.419 134.045H304.581ZM305.419 128.1C305.419 127.869 305.231 127.681 305 127.681C304.769 127.681 304.581 127.869 304.581 128.1H305.419ZM304.581 122.155C304.581 122.386 304.769 122.574 305 122.574C305.231 122.574 305.419 122.386 305.419 122.155H304.581ZM305.419 116.21C305.419 115.978 305.231 115.791 305 115.791C304.769 115.791 304.581 115.978 304.581 116.21H305.419ZM304.581 110.265C304.581 110.496 304.769 110.684 305 110.684C305.231 110.684 305.419 110.496 305.419 110.265H304.581ZM305.419 104.32C305.419 104.088 305.231 103.901 305 103.901C304.769 103.901 304.581 104.088 304.581 104.32H305.419ZM304.581 98.3745C304.581 98.6059 304.769 98.7935 305 98.7935C305.231 98.7935 305.419 98.6059 305.419 98.3745H304.581ZM305.419 92.4294C305.419 92.1981 305.231 92.0105 305 92.0105C304.769 92.0105 304.581 92.1981 304.581 92.4294H305.419ZM304.581 86.4843C304.581 86.7157 304.769 86.9032 305 86.9032C305.231 86.9032 305.419 86.7157 305.419 86.4843H304.581ZM305.419 80.5392C305.419 80.3079 305.231 80.1203 305 80.1203C304.769 80.1203 304.581 80.3079 304.581 80.5392H305.419ZM304.581 74.5941C304.581 74.8255 304.769 75.0131 305 75.0131C305.231 75.0131 305.419 74.8255 305.419 74.5941H304.581ZM304.751 68.2539C304.663 68.0402 304.417 67.9388 304.204 68.0274C303.99 68.1161 303.889 68.3612 303.977 68.5749L304.751 68.2539ZM299.668 64.2659C299.882 64.3545 300.127 64.2531 300.216 64.0394C300.304 63.8257 300.203 63.5806 299.989 63.492L299.668 64.2659ZM293.683 62.8242C293.452 62.8242 293.264 63.0118 293.264 63.2432C293.264 63.4745 293.452 63.6621 293.683 63.6621V62.8242ZM287.807 63.6621C288.038 63.6621 288.226 63.4745 288.226 63.2432C288.226 63.0118 288.038 62.8242 287.807 62.8242V63.6621ZM281.93 62.8242C281.699 62.8242 281.511 63.0118 281.511 63.2432C281.511 63.4745 281.699 63.6621 281.93 63.6621V62.8242ZM276.053 63.6621C276.285 63.6621 276.472 63.4745 276.472 63.2432C276.472 63.0118 276.285 62.8242 276.053 62.8242V63.6621ZM270.177 62.8242C269.945 62.8242 269.758 63.0118 269.758 63.2432C269.758 63.4745 269.945 63.6621 270.177 63.6621V62.8242ZM264.3 63.6621C264.532 63.6621 264.719 63.4745 264.719 63.2432C264.719 63.0118 264.532 62.8242 264.3 62.8242V63.6621ZM258.424 62.8242C258.192 62.8242 258.005 63.0118 258.005 63.2432C258.005 63.4745 258.192 63.6621 258.424 63.6621V62.8242ZM252.547 63.6621C252.778 63.6621 252.966 63.4745 252.966 63.2432C252.966 63.0118 252.778 62.8242 252.547 62.8242V63.6621ZM246.67 62.8242C246.439 62.8242 246.251 63.0118 246.251 63.2432C246.251 63.4745 246.439 63.6621 246.67 63.6621V62.8242ZM240.794 63.6621C241.025 63.6621 241.213 63.4745 241.213 63.2432C241.213 63.0118 241.025 62.8242 240.794 62.8242V63.6621ZM234.917 62.8242C234.686 62.8242 234.498 63.0118 234.498 63.2432C234.498 63.4745 234.686 63.6621 234.917 63.6621V62.8242ZM229.04 63.6621C229.272 63.6621 229.459 63.4745 229.459 63.2432C229.459 63.0118 229.272 62.8242 229.04 62.8242V63.6621ZM223.164 62.8242C222.932 62.8242 222.745 63.0118 222.745 63.2432C222.745 63.4745 222.932 63.6621 223.164 63.6621V62.8242ZM217.287 63.6621C217.519 63.6621 217.706 63.4745 217.706 63.2432C217.706 63.0118 217.519 62.8242 217.287 62.8242V63.6621ZM212.784 65.6827C212.684 65.891 212.771 66.1415 212.979 66.2421C213.188 66.3427 213.438 66.2553 213.539 66.047L212.784 65.6827ZM210.767 71.1348C210.888 70.9373 210.825 70.6795 210.628 70.559C210.43 70.4386 210.173 70.5011 210.052 70.6986L210.767 71.1348ZM206.844 75.4254C206.705 75.6102 206.742 75.8729 206.927 76.012C207.112 76.151 207.374 76.1139 207.514 75.929L206.844 75.4254ZM203.81 80.3845C203.966 80.214 203.955 79.949 203.784 79.7927C203.614 79.6363 203.349 79.6478 203.192 79.8184L203.81 80.3845ZM199.133 83.8372C198.961 83.9918 198.946 84.2567 199.101 84.4288C199.256 84.6009 199.52 84.6151 199.693 84.4605L199.133 83.8372ZM195.2 88.1186C195.386 87.9814 195.426 87.7192 195.288 87.5329C195.151 87.3466 194.889 87.3068 194.703 87.444L195.2 88.1186ZM189.944 90.6035C189.745 90.7219 189.68 90.9791 189.799 91.1778C189.917 91.3766 190.174 91.4417 190.373 91.3232L189.944 90.6035ZM185.257 94.0425C185.466 93.9441 185.556 93.6945 185.457 93.4852C185.359 93.2758 185.109 93.1859 184.9 93.2843L185.257 94.0425ZM179.618 95.4588C179.4 95.5363 179.286 95.7758 179.363 95.9938C179.441 96.2118 179.68 96.3258 179.898 96.2483L179.618 95.4588ZM174.351 97.9174C174.575 97.8617 174.712 97.6345 174.656 97.41C174.601 97.1854 174.373 97.0485 174.149 97.1042L174.351 97.9174ZM168.544 98.2058C168.315 98.2392 168.156 98.4519 168.19 98.6808C168.223 98.9098 168.436 99.0682 168.665 99.0348L168.544 98.2058ZM162.898 99.5926C163.13 99.5815 163.308 99.3852 163.297 99.1541C163.286 98.923 163.089 98.7446 162.858 98.7557L162.898 99.5926ZM157.142 98.7557C156.911 98.7446 156.714 98.923 156.703 99.1541C156.692 99.3852 156.87 99.5815 157.101 99.5926L157.142 98.7557ZM151.335 99.0348C151.564 99.0682 151.777 98.9098 151.81 98.6808C151.844 98.4519 151.685 98.2392 151.456 98.2058L151.335 99.0348ZM145.851 97.1042C145.627 97.0485 145.399 97.1854 145.344 97.41C145.288 97.6345 145.425 97.8617 145.649 97.9174L145.851 97.1042ZM140.102 96.2483C140.32 96.3258 140.559 96.2118 140.637 95.9938C140.714 95.7758 140.6 95.5363 140.382 95.4588L140.102 96.2483ZM135.1 93.2843C134.891 93.1859 134.641 93.2758 134.543 93.4852C134.444 93.6945 134.534 93.9441 134.743 94.0425L135.1 93.2843ZM129.627 91.3233C129.826 91.4417 130.083 91.3766 130.201 91.1778C130.32 90.9791 130.255 90.7219 130.056 90.6035L129.627 91.3233ZM125.297 87.444C125.111 87.3068 124.849 87.3466 124.711 87.5329C124.574 87.7192 124.614 87.9814 124.8 88.1186L125.297 87.444ZM120.307 84.4605C120.48 84.6151 120.744 84.6009 120.899 84.4288C121.054 84.2567 121.039 83.9918 120.867 83.8372L120.307 84.4605ZM116.808 79.8184C116.651 79.6478 116.386 79.6363 116.216 79.7927C116.045 79.949 116.034 80.214 116.19 80.3846L116.808 79.8184ZM112.486 75.929C112.626 76.1139 112.888 76.1511 113.073 76.012C113.258 75.8729 113.295 75.6103 113.156 75.4254L112.486 75.929ZM109.948 70.6986C109.827 70.5011 109.57 70.4386 109.372 70.5591C109.175 70.6795 109.112 70.9373 109.233 71.1348L109.948 70.6986ZM106.461 66.047C106.562 66.2553 106.812 66.3427 107.021 66.2421C107.229 66.1415 107.316 65.891 107.216 65.6827L106.461 66.047ZM102.713 62.8242C102.481 62.8242 102.294 63.0118 102.294 63.2432C102.294 63.4745 102.481 63.6621 102.713 63.6621V62.8242ZM96.8362 63.6621C97.0676 63.6621 97.2551 63.4745 97.2551 63.2432C97.2551 63.0118 97.0676 62.8242 96.8362 62.8242V63.6621ZM90.9596 62.8242C90.7282 62.8242 90.5406 63.0118 90.5406 63.2432C90.5406 63.4745 90.7282 63.6621 90.9596 63.6621V62.8242ZM85.0829 63.6621C85.3143 63.6621 85.5019 63.4745 85.5019 63.2432C85.5019 63.0118 85.3143 62.8242 85.0829 62.8242V63.6621ZM79.2063 62.8242C78.975 62.8242 78.7874 63.0118 78.7874 63.2432C78.7874 63.4745 78.975 63.6621 79.2063 63.6621V62.8242ZM73.3297 63.6621C73.5611 63.6621 73.7486 63.4745 73.7486 63.2432C73.7486 63.0118 73.5611 62.8242 73.3297 62.8242V63.6621ZM67.4531 62.8242C67.2217 62.8242 67.0341 63.0118 67.0341 63.2432C67.0341 63.4745 67.2217 63.6621 67.4531 63.6621V62.8242ZM61.5764 63.6621C61.8078 63.6621 61.9954 63.4745 61.9954 63.2432C61.9954 63.0118 61.8078 62.8242 61.5764 62.8242V63.6621ZM55.6998 62.8242C55.4685 62.8242 55.2809 63.0118 55.2809 63.2432C55.2809 63.4745 55.4685 63.6621 55.6998 63.6621V62.8242ZM49.8232 63.6621C50.0546 63.6621 50.2421 63.4745 50.2421 63.2432C50.2421 63.0118 50.0546 62.8242 49.8232 62.8242V63.6621ZM43.9466 62.8242C43.7152 62.8242 43.5276 63.0118 43.5276 63.2432C43.5276 63.4745 43.7152 63.6621 43.9466 63.6621V62.8242ZM38.0699 63.6621C38.3013 63.6621 38.4889 63.4745 38.4889 63.2432C38.4889 63.0118 38.3013 62.8242 38.0699 62.8242V63.6621ZM32.1933 62.8242C31.9619 62.8242 31.7744 63.0118 31.7744 63.2432C31.7744 63.4745 31.9619 63.6621 32.1933 63.6621V62.8242ZM26.3167 63.6621C26.5481 63.6621 26.7356 63.4745 26.7356 63.2432C26.7356 63.0118 26.5481 62.8242 26.3167 62.8242V63.6621ZM23.3784 62.8242C22.1863 62.8242 21.0486 63.0616 20.0108 63.492L20.3317 64.2659C21.2696 63.877 22.2984 63.6621 23.3784 63.6621V62.8242ZM15.2488 68.2539C14.8184 69.2918 14.5811 70.4295 14.5811 71.6215H15.4189C15.4189 70.5415 15.6338 69.5128 16.0227 68.5749L15.2488 68.2539ZM14.5811 71.6215V74.5941H15.4189V71.6215H14.5811ZM14.5811 80.5392V86.4843H15.4189V80.5392H14.5811ZM14.5811 92.4294V98.3745H15.4189V92.4294H14.5811ZM14.5811 104.32V110.265H15.4189V104.32H14.5811ZM14.5811 116.21V122.155H15.4189V116.21H14.5811ZM14.5811 128.1V134.045H15.4189V128.1H14.5811ZM14.5811 139.99V145.935H15.4189V139.99H14.5811ZM14.5811 151.88V157.826H15.4189V151.88H14.5811ZM14.5811 163.771V169.716H15.4189V163.771H14.5811ZM14.5811 175.661V181.606H15.4189V175.661H14.5811ZM14.5811 187.551V193.496H15.4189V187.551H14.5811ZM14.5811 199.441V205.386H15.4189V199.441H14.5811ZM14.5811 211.331V217.277H15.4189V211.331H14.5811ZM14.5811 223.222V229.167H15.4189V223.222H14.5811ZM14.5811 235.112V241.057H15.4189V235.112H14.5811ZM14.5811 247.002V252.947H15.4189V247.002H14.5811ZM14.5811 258.892V261.865H15.4189V258.892H14.5811ZM14.5811 261.865C14.5811 263.057 14.8184 264.195 15.2488 265.232L16.0227 264.911C15.6338 263.974 15.4189 262.945 15.4189 261.865H14.5811ZM20.0108 269.994C21.0486 270.425 22.1863 270.662 23.3784 270.662V269.824C22.2984 269.824 21.2696 269.609 20.3317 269.22L20.0108 269.994ZM23.3784 270.662H26.3484V269.824H23.3784V270.662ZM32.2885 270.662H38.2286V269.824H32.2885V270.662ZM44.1686 270.662H50.1087V269.824H44.1686V270.662ZM56.0488 270.662H61.9888V269.824H56.0488V270.662ZM67.9289 270.662H73.869V269.824H67.9289V270.662ZM79.8091 270.662H85.7491V269.824H79.8091V270.662ZM91.6892 270.662H97.6293V269.824H91.6892V270.662ZM103.569 270.662H109.509V269.824H103.569V270.662ZM115.449 270.662H121.39V269.824H115.449V270.662ZM127.33 270.662H133.27V269.824H127.33V270.662ZM139.21 270.662H145.15V269.824H139.21V270.662ZM151.09 270.662H157.03V269.824H151.09V270.662ZM162.97 270.662H168.91V269.824H162.97V270.662ZM174.85 270.662H180.79V269.824H174.85V270.662ZM186.73 270.662H192.67V269.824H186.73V270.662ZM198.61 270.662H204.55V269.824H198.61V270.662ZM210.491 270.662H216.431V269.824H210.491V270.662ZM222.371 270.662H228.311V269.824H222.371V270.662ZM234.251 270.662H240.191V269.824H234.251V270.662ZM246.131 270.662H252.071V269.824H246.131V270.662ZM258.011 270.662H263.951V269.824H258.011V270.662ZM269.891 270.662H275.831V269.824H269.891V270.662ZM281.771 270.662H287.711V269.824H281.771V270.662ZM293.651 270.662H296.622V269.824H293.651V270.662ZM296.622 270.662C297.814 270.662 298.951 270.425 299.989 269.994L299.668 269.22C298.73 269.609 297.702 269.824 296.622 269.824V270.662ZM304.751 265.232C305.182 264.195 305.419 263.057 305.419 261.865H304.581C304.581 262.945 304.366 263.974 303.977 264.911L304.751 265.232ZM305.419 261.865V258.892H304.581V261.865H305.419ZM305.419 252.947V247.002H304.581V252.947H305.419ZM305.419 241.057V235.112H304.581V241.057H305.419ZM305.419 229.167V223.222H304.581V229.167H305.419ZM305.419 217.277V211.331H304.581V217.277H305.419ZM305.419 205.386V199.441H304.581V205.386H305.419ZM305.419 193.496V187.551H304.581V193.496H305.419ZM305.419 181.606V175.661H304.581V181.606H305.419ZM305.419 169.716V163.771H304.581V169.716H305.419ZM305.419 157.826V151.88H304.581V157.826H305.419ZM305.419 145.935V139.99H304.581V145.935H305.419ZM305.419 134.045V128.1H304.581V134.045H305.419ZM305.419 122.155V116.21H304.581V122.155H305.419ZM305.419 110.265V104.32H304.581V110.265H305.419ZM305.419 98.3745V92.4294H304.581V98.3745H305.419ZM305.419 86.4843V80.5392H304.581V86.4843H305.419ZM305.419 74.5941V71.6215H304.581V74.5941H305.419ZM305.419 71.6215C305.419 70.4295 305.182 69.2918 304.751 68.2539L303.977 68.5749C304.366 69.5128 304.581 70.5415 304.581 71.6215H305.419ZM299.989 63.492C298.951 63.0616 297.814 62.8242 296.622 62.8242V63.6621C297.702 63.6621 298.73 63.877 299.668 64.2659L299.989 63.492ZM296.622 62.8242H293.683V63.6621H296.622V62.8242ZM287.807 62.8242H281.93V63.6621H287.807V62.8242ZM276.053 62.8242H270.177V63.6621H276.053V62.8242ZM264.3 62.8242H258.424V63.6621H264.3V62.8242ZM252.547 62.8242H246.67V63.6621H252.547V62.8242ZM240.794 62.8242H234.917V63.6621H240.794V62.8242ZM229.04 62.8242H223.164V63.6621H229.04V62.8242ZM217.287 62.8242H214.349V63.6621H217.287V62.8242ZM213.963 63.0797C213.591 63.9586 213.198 64.8264 212.784 65.6827L213.539 66.047C213.958 65.1784 214.357 64.2981 214.735 63.4066L213.963 63.0797ZM210.052 70.6986C209.058 72.3282 207.987 73.9055 206.844 75.4254L207.514 75.929C208.673 74.3875 209.759 72.7877 210.767 71.1348L210.052 70.6986ZM203.192 79.8184C201.905 81.2227 200.55 82.564 199.133 83.8372L199.693 84.4605C201.13 83.1692 202.504 81.8088 203.81 80.3845L203.192 79.8184ZM194.703 87.444C193.172 88.5716 191.584 89.6265 189.944 90.6035L190.373 91.3232C192.036 90.3322 193.647 89.2623 195.2 88.1186L194.703 87.444ZM184.9 93.2843C183.183 94.0917 181.421 94.8182 179.618 95.4588L179.898 96.2483C181.727 95.5984 183.515 94.8615 185.257 94.0425L184.9 93.2843ZM174.149 97.1042C172.313 97.5595 170.443 97.9282 168.544 98.2058L168.665 99.0348C170.592 98.7533 172.488 98.3793 174.351 97.9174L174.149 97.1042ZM162.858 98.7557C161.911 98.8012 160.958 98.8242 160 98.8242V99.6621C160.972 99.6621 161.938 99.6388 162.898 99.5926L162.858 98.7557ZM160 98.8242C159.042 98.8242 158.089 98.8012 157.142 98.7557L157.101 99.5926C158.062 99.6388 159.028 99.6621 160 99.6621V98.8242ZM151.456 98.2058C149.557 97.9282 147.687 97.5595 145.851 97.1042L145.649 97.9174C147.512 98.3793 149.408 98.7533 151.335 99.0348L151.456 98.2058ZM140.382 95.4588C138.579 94.8182 136.817 94.0917 135.1 93.2843L134.743 94.0425C136.485 94.8615 138.273 95.5984 140.102 96.2483L140.382 95.4588ZM130.056 90.6035C128.416 89.6265 126.828 88.5716 125.297 87.444L124.8 88.1186C126.353 89.2623 127.964 90.3322 129.627 91.3233L130.056 90.6035ZM120.867 83.8372C119.45 82.564 118.095 81.2227 116.808 79.8184L116.19 80.3846C117.496 81.8088 118.87 83.1692 120.307 84.4605L120.867 83.8372ZM113.156 75.4254C112.013 73.9055 110.942 72.3282 109.948 70.6986L109.233 71.1348C110.241 72.7877 111.327 74.3875 112.486 75.929L113.156 75.4254ZM107.216 65.6827C106.802 64.8264 106.409 63.9586 106.037 63.0797L105.265 63.4066C105.643 64.2981 106.042 65.1784 106.461 66.047L107.216 65.6827ZM105.651 62.8242H102.713V63.6621H105.651V62.8242ZM96.8362 62.8242H90.9596V63.6621H96.8362V62.8242ZM85.0829 62.8242H79.2063V63.6621H85.0829V62.8242ZM73.3297 62.8242H67.4531V63.6621H73.3297V62.8242ZM61.5764 62.8242H55.6998V63.6621H61.5764V62.8242ZM49.8232 62.8242H43.9466V63.6621H49.8232V62.8242ZM38.0699 62.8242H32.1933V63.6621H38.0699V62.8242ZM26.3167 62.8242H23.3784V63.6621H26.3167V62.8242Z" fill="#E5E5E5"/>
</g>
<defs>
<filter id="filter0_d" x="-20.1351" y="28.108" width="360.27" height="277.27" filterUnits="userSpaceOnUse" color-interpolation-filters="sRGB">
<feFlood flood-opacity="0" result="BackgroundImageFix"/>
<feColorMatrix in="SourceAlpha" type="matrix" values="0 0 0 0 0 0 0 0 0 0 0 0 0 0 0 0 0 0 127 0"/>
<feOffset/>
<feGaussianBlur stdDeviation="12.5676"/>
<feColorMatrix type="matrix" values="0 0 0 0 0 0 0 0 0 0 0 0 0 0 0 0 0 0 0.1 0"/>
<feBlend mode="normal" in2="BackgroundImageFix" result="effect1_dropShadow"/>
<feBlend mode="normal" in="SourceGraphic" in2="effect1_dropShadow" result="shape"/>
</filter>
<filter id="filter1_d" x="-10.5531" y="37.6891" width="341.108" height="258.108" filterUnits="userSpaceOnUse" color-interpolation-filters="sRGB">
<feFlood flood-opacity="0" result="BackgroundImageFix"/>
<feColorMatrix in="SourceAlpha" type="matrix" values="0 0 0 0 0 0 0 0 0 0 0 0 0 0 0 0 0 0 127 0"/>
<feOffset/>
<feGaussianBlur stdDeviation="12.5676"/>
<feColorMatrix type="matrix" values="0 0 0 0 0 0 0 0 0 0 0 0 0 0 0 0 0 0 0.1 0"/>
<feBlend mode="normal" in2="BackgroundImageFix" result="effect1_dropShadow"/>
<feBlend mode="normal" in="SourceGraphic" in2="effect1_dropShadow" result="shape"/>
</filter>
<linearGradient id="paint0_linear" x1="118.107" y1="0" x2="206.509" y2="7.31769" gradientUnits="userSpaceOnUse">
<stop stop-color="#051EFC"/>
<stop offset="0.877466" stop-color="#51A1FF"/>
</linearGradient>
<linearGradient id="paint1_linear" x1="158.855" y1="84.2432" x2="158.855" y2="0.243162" gradientUnits="userSpaceOnUse">
<stop stop-color="#FCCB05"/>
<stop offset="1" stop-color="#FFE57D"/>
</linearGradient>
</defs>
</svg>
