<svg width="333" height="196" viewBox="0 0 333 196" fill="none" xmlns="http://www.w3.org/2000/svg">
<path d="M332.986 96.9855C332.986 117.416 316.423 133.978 295.993 133.978C275.562 133.978 259 117.416 259 96.9855C259 76.5549 275.562 59.9927 295.993 59.9927C316.423 59.9927 332.986 76.5549 332.986 96.9855Z" fill="url(#paint0_linear)"/>
<mask id="mask0" mask-type="alpha" maskUnits="userSpaceOnUse" x="259" y="60" width="74" height="74">
<circle cx="296" cy="97" r="37" fill="url(#paint1_linear)"/>
</mask>
<g mask="url(#mask0)">
<path fill-rule="evenodd" clip-rule="evenodd" d="M295.684 78.977C295.546 78.9771 295.411 78.9439 295.288 78.8804C295.166 78.817 295.061 78.725 294.982 78.6123C294.903 78.4997 294.852 78.3696 294.834 78.2333C294.816 78.0969 294.831 77.9582 294.879 77.8289L295.629 75.7704C294.099 75.8631 292.59 76.1272 291.128 76.5544L291.029 79.3961C291.022 79.6175 290.928 79.8272 290.769 79.9812C290.609 80.1351 290.396 80.2213 290.174 80.2216H290.144C290.032 80.2178 289.921 80.1918 289.818 80.1453C289.716 80.0987 289.624 80.0325 289.547 79.9504C289.47 79.8682 289.41 79.7718 289.371 79.6665C289.331 79.5613 289.313 79.4494 289.317 79.3371L289.393 77.1473C288.041 77.678 286.743 78.3539 285.523 79.1676C285.467 79.2053 285.411 79.2432 285.355 79.2815L286.14 82.0145C286.203 82.2325 286.177 82.4665 286.066 82.6649C285.956 82.8634 285.772 83.0101 285.553 83.0727C285.475 83.0954 285.395 83.1066 285.313 83.1061C285.127 83.1061 284.946 83.0456 284.798 82.9339C284.649 82.8221 284.541 82.6652 284.49 82.4867L283.887 80.3817C282.705 81.3531 281.639 82.4521 280.708 83.656L282.302 86.0132C282.389 86.1419 282.439 86.2917 282.447 86.4467C282.455 86.6017 282.421 86.756 282.348 86.893C282.275 87.0301 282.166 87.1447 282.033 87.2246C281.899 87.3046 281.747 87.3468 281.591 87.3469C281.451 87.3471 281.313 87.3129 281.189 87.2472C281.065 87.1816 280.959 87.0865 280.88 86.9705L279.652 85.1547C279.014 86.1532 278.462 87.2098 278.004 88.3139C277.876 88.6229 277.755 88.9343 277.643 89.2481L279.888 90.9971C280.029 91.1067 280.131 91.2575 280.182 91.4283C280.233 91.5991 280.229 91.7814 280.171 91.9498C280.112 92.1182 280.003 92.2643 279.858 92.3677C279.712 92.4711 279.538 92.5266 279.36 92.5266C279.169 92.5269 278.984 92.463 278.834 92.3452L277.104 90.9973C276.719 92.4763 276.503 93.9921 276.459 95.5157L279.136 96.4874C279.326 96.5557 279.486 96.6888 279.587 96.8632C279.688 97.0377 279.725 97.2423 279.69 97.4409C279.655 97.6395 279.55 97.8194 279.395 97.9488C279.24 98.0781 279.045 98.1487 278.843 98.148C278.743 98.1477 278.644 98.13 278.55 98.0958L276.487 97.347C276.543 98.2644 276.661 99.1805 276.842 100.089C276.96 100.681 277.104 101.265 277.273 101.84L280.119 101.938C280.347 101.942 280.563 102.036 280.721 102.199C280.879 102.362 280.966 102.582 280.962 102.808C280.958 103.035 280.864 103.251 280.7 103.409C280.537 103.567 280.317 103.653 280.09 103.649H280.06L277.867 103.573C278.426 104.993 279.144 106.345 280.005 107.604L282.743 106.82C282.961 106.757 283.196 106.784 283.394 106.894C283.593 107.004 283.74 107.188 283.803 107.406C283.865 107.624 283.839 107.858 283.728 108.057C283.618 108.255 283.433 108.402 283.215 108.464L281.106 109.068C281.522 109.573 281.964 110.059 282.43 110.524C283.047 111.14 283.702 111.714 284.388 112.243L286.75 110.652C286.844 110.589 286.948 110.545 287.059 110.522C287.169 110.5 287.283 110.499 287.393 110.521C287.504 110.542 287.609 110.585 287.703 110.647C287.797 110.709 287.877 110.789 287.94 110.882C288.003 110.975 288.047 111.08 288.07 111.19C288.092 111.3 288.093 111.414 288.071 111.524C288.05 111.634 288.007 111.739 287.945 111.833C287.883 111.927 287.803 112.007 287.709 112.07L285.889 113.296C287.177 114.116 288.553 114.789 289.994 115.303L291.745 113.061C291.886 112.886 292.091 112.773 292.315 112.747C292.538 112.722 292.763 112.785 292.941 112.923C293.118 113.061 293.234 113.264 293.263 113.487C293.292 113.71 293.232 113.935 293.096 114.114L291.746 115.841C292.122 115.939 292.501 116.025 292.884 116.101C294.005 116.324 295.137 116.451 296.27 116.484L297.244 113.811C297.28 113.704 297.338 113.604 297.414 113.519C297.49 113.434 297.582 113.365 297.685 113.316C297.788 113.267 297.899 113.239 298.013 113.234C298.127 113.228 298.241 113.245 298.348 113.284C298.455 113.323 298.553 113.383 298.637 113.46C298.72 113.537 298.788 113.631 298.835 113.734C298.882 113.838 298.908 113.95 298.911 114.063C298.915 114.177 298.895 114.29 298.854 114.396L298.104 116.455C299.626 116.363 301.136 116.1 302.606 115.671L302.704 112.833C302.715 112.608 302.814 112.396 302.979 112.241C303.144 112.087 303.363 112.004 303.589 112.007C303.702 112.011 303.812 112.037 303.915 112.084C304.017 112.13 304.109 112.197 304.186 112.279C304.263 112.361 304.323 112.457 304.362 112.562C304.402 112.668 304.42 112.78 304.416 112.892L304.341 115.078C304.454 115.033 304.567 114.988 304.68 114.941C305.985 114.401 307.224 113.731 308.379 112.943L307.593 110.21C307.559 110.101 307.548 109.987 307.559 109.874C307.571 109.761 307.605 109.652 307.659 109.552C307.713 109.452 307.787 109.364 307.875 109.293C307.964 109.222 308.066 109.169 308.176 109.137C308.285 109.106 308.4 109.097 308.513 109.11C308.626 109.123 308.735 109.159 308.834 109.215C308.933 109.271 309.02 109.346 309.09 109.436C309.159 109.525 309.211 109.628 309.24 109.738L309.845 111.845C311.021 110.878 312.089 109.779 313.026 108.568L311.432 106.211C311.305 106.023 311.258 105.792 311.301 105.569C311.345 105.347 311.475 105.15 311.663 105.023C311.852 104.896 312.083 104.849 312.306 104.892C312.529 104.936 312.726 105.066 312.853 105.254L314.081 107.07C314.906 105.778 315.579 104.403 316.091 102.973L313.846 101.224C313.757 101.155 313.683 101.069 313.628 100.972C313.572 100.874 313.536 100.766 313.523 100.655C313.509 100.543 313.517 100.43 313.547 100.322C313.577 100.213 313.628 100.112 313.698 100.023C313.767 99.9348 313.853 99.8607 313.951 99.8053C314.049 99.75 314.157 99.7144 314.269 99.7007C314.38 99.6869 314.494 99.6953 314.602 99.7253C314.711 99.7552 314.812 99.8063 314.901 99.8754L316.63 101.223C317.012 99.7528 317.229 98.2387 317.274 96.7078L314.597 95.7363C314.388 95.6556 314.218 95.4962 314.126 95.2922C314.033 95.0883 314.024 94.8561 314.1 94.6456C314.177 94.4351 314.334 94.2631 314.536 94.1664C314.739 94.0698 314.971 94.0563 315.183 94.1288L317.243 94.876C317.149 93.3449 316.882 91.839 316.454 90.3849L313.614 90.2864C313.386 90.2787 313.171 90.1811 313.016 90.0152C312.861 89.8493 312.778 89.6286 312.786 89.4016C312.793 89.1747 312.891 88.9601 313.057 88.8051C313.224 88.6501 313.445 88.5673 313.672 88.5751L315.857 88.6503C315.298 87.2358 314.581 85.8844 313.717 84.6228L310.99 85.4049C310.913 85.4272 310.833 85.4384 310.753 85.4382C310.547 85.4383 310.347 85.3639 310.191 85.2287C310.035 85.0935 309.933 84.9066 309.904 84.7024C309.875 84.4982 309.921 84.2904 310.034 84.1173C310.146 83.9443 310.317 83.8176 310.516 83.7605L312.615 83.1591C312.201 82.6568 311.76 82.1726 311.295 81.7085C310.676 81.0905 310.022 80.5162 309.336 79.9877L306.983 81.5754C306.842 81.6699 306.675 81.72 306.505 81.7191C306.322 81.7192 306.143 81.6605 305.995 81.5516C305.848 81.4428 305.739 81.2897 305.685 81.1146C305.632 80.9396 305.635 80.7519 305.696 80.5792C305.757 80.4066 305.872 80.258 306.024 80.1553L307.835 78.9347C306.546 78.1139 305.171 77.4414 303.736 76.9284L301.988 79.1626C301.908 79.2653 301.805 79.3485 301.688 79.4057C301.571 79.463 301.442 79.4927 301.312 79.4928C301.151 79.4926 300.994 79.4475 300.858 79.3625C300.722 79.2774 300.612 79.156 300.542 79.0119C300.471 78.8677 300.443 78.7068 300.46 78.5474C300.477 78.388 300.538 78.2366 300.637 78.1103L301.984 76.3889C300.516 76.008 299 75.7888 297.463 75.7423L296.49 78.4098C296.43 78.5756 296.321 78.7191 296.177 78.8206C296.033 78.9221 295.861 78.9767 295.684 78.977ZM303.518 75.0432C301.427 74.3854 299.254 74.0429 297.071 74.0227C296.992 74.0043 296.912 73.997 296.831 74.0011C296.78 74.0037 296.729 74.0109 296.679 74.0226C295.298 74.0342 293.915 74.1749 292.548 74.4464C289.45 75.0616 286.534 76.3286 283.988 78.1473C283.929 78.1756 283.873 78.2106 283.822 78.2517C283.792 78.2754 283.765 78.301 283.738 78.3282C282.849 78.9828 282.005 79.7056 281.217 80.4924C280.399 81.3091 279.65 82.1849 278.975 83.1108C278.966 83.1217 278.958 83.1328 278.95 83.1442C277.635 84.9554 276.601 86.957 275.887 89.0804C275.843 89.1514 275.809 89.2286 275.787 89.3097C275.773 89.3621 275.764 89.4155 275.76 89.4693C275.519 90.2334 275.318 91.0124 275.161 91.8033C274.422 95.5137 274.651 99.3415 275.813 102.922C275.817 102.933 275.82 102.945 275.824 102.956C276.001 103.499 276.2 104.036 276.42 104.567C277.085 106.168 277.932 107.677 278.939 109.066C278.953 109.087 278.968 109.108 278.984 109.127C280.336 110.978 281.973 112.615 283.843 113.974L283.853 113.981C283.859 113.986 283.866 113.991 283.872 113.995C284.102 114.161 284.335 114.323 284.571 114.481C286.249 115.6 288.062 116.478 289.959 117.1C290.004 117.119 290.051 117.135 290.1 117.146C292.27 117.841 294.546 118.202 296.85 118.204L296.867 118.204L296.885 118.204C299.179 118.199 301.435 117.839 303.581 117.155C303.666 117.141 303.748 117.114 303.825 117.076C305.931 116.378 307.927 115.365 309.741 114.068C309.835 114.023 309.919 113.962 309.991 113.887C310.877 113.234 311.719 112.513 312.507 111.726C313.3 110.935 314.026 110.09 314.682 109.2C314.742 109.14 314.794 109.071 314.834 108.996L314.841 108.982C316.15 107.161 317.17 105.157 317.873 103.042C317.886 103.013 317.899 102.983 317.909 102.952C317.923 102.912 317.934 102.872 317.942 102.83C318.623 100.705 318.985 98.4706 318.996 96.1988C319.002 96.1417 319.002 96.0844 318.996 96.0278C318.988 93.7822 318.636 91.5635 317.964 89.4451C317.951 89.336 317.917 89.2308 317.864 89.1352C317.242 87.2719 316.371 85.4896 315.266 83.8391C315.147 83.6602 315.024 83.4832 314.9 83.3083C314.868 83.2275 314.824 83.1519 314.769 83.0841C314.733 83.0399 314.693 82.9995 314.649 82.9634C313.341 81.2004 311.782 79.6483 310.027 78.3529C309.977 78.2962 309.919 78.2464 309.855 78.2048C309.815 78.179 309.774 78.1566 309.731 78.1377C308.37 77.1671 306.896 76.3487 305.334 75.7031C304.865 75.5091 304.39 75.3316 303.911 75.1709C303.839 75.1263 303.761 75.0924 303.679 75.0704C303.626 75.0562 303.572 75.0471 303.518 75.0432ZM307.46 103.666C307.592 103.745 307.743 103.786 307.897 103.786C308.041 103.786 308.183 103.751 308.309 103.682C308.436 103.613 308.543 103.514 308.621 103.392C309.135 102.58 309.559 101.715 309.886 100.811C309.964 100.597 309.953 100.362 309.857 100.156C309.76 99.9508 309.586 99.7918 309.372 99.7145C309.158 99.6371 308.923 99.6477 308.717 99.7438C308.511 99.84 308.351 100.014 308.274 100.227C307.99 101.013 307.621 101.765 307.174 102.471C307.092 102.6 307.046 102.749 307.041 102.903C307.036 103.056 307.072 103.207 307.146 103.342C307.22 103.476 307.328 103.588 307.46 103.666ZM296.807 109.929H296.803C294.071 109.917 291.404 109.097 289.137 107.574C286.871 106.051 285.106 103.892 284.067 101.37C283.027 98.8478 282.758 96.0749 283.295 93.4006C283.831 90.7263 285.148 88.2701 287.08 86.3416C289.012 84.4131 291.472 83.0984 294.151 82.5632C296.83 82.028 299.608 82.2962 302.135 83.3341C304.662 84.3719 306.824 86.133 308.35 88.3954C309.876 90.6578 310.697 93.3204 310.71 96.0477C310.71 96.2738 310.62 96.4908 310.46 96.6511C310.3 96.8115 310.083 96.9021 309.857 96.9032H309.853C309.626 96.9032 309.409 96.8137 309.248 96.6542C309.087 96.4946 308.997 96.2781 308.995 96.052C308.984 93.6625 308.264 91.33 306.926 89.3483C305.589 87.3665 303.694 85.8241 301.48 84.9154C299.266 84.0066 296.832 83.7722 294.485 84.2416C292.138 84.7109 289.983 85.8631 288.29 87.553C286.598 89.2429 285.444 91.395 284.975 93.7381C284.506 96.0811 284.741 98.5105 285.653 100.72C286.564 102.93 288.11 104.821 290.095 106.155C292.081 107.489 294.418 108.207 296.812 108.218C297.039 108.219 297.257 108.309 297.417 108.47C297.578 108.631 297.667 108.849 297.667 109.076C297.666 109.303 297.575 109.52 297.414 109.68C297.253 109.84 297.035 109.93 296.807 109.929ZM300.73 108.958C300.884 109.088 301.079 109.159 301.28 109.159C301.38 109.159 301.479 109.142 301.572 109.108C302.454 108.789 303.301 108.379 304.098 107.884C304.291 107.765 304.429 107.573 304.481 107.352C304.532 107.131 304.494 106.899 304.374 106.706C304.254 106.513 304.063 106.376 303.841 106.324C303.62 106.272 303.387 106.31 303.194 106.43C302.498 106.862 301.759 107.221 300.989 107.499C300.8 107.568 300.641 107.701 300.54 107.875C300.439 108.049 300.402 108.253 300.437 108.451C300.472 108.649 300.576 108.829 300.73 108.958ZM296.867 99.7603C296.144 99.7605 295.438 99.5466 294.837 99.1459C294.236 98.7451 293.767 98.1754 293.49 97.5087C293.214 96.8421 293.141 96.1085 293.282 95.4008C293.423 94.693 293.771 94.0429 294.282 93.5326C294.793 93.0223 295.444 92.6747 296.153 92.5339C296.862 92.393 297.597 92.4652 298.265 92.7413C298.933 93.0174 299.504 93.4851 299.905 94.085C300.307 94.685 300.521 95.3904 300.521 96.112C300.52 97.0792 300.135 98.0065 299.45 98.6904C298.765 99.3744 297.836 99.7592 296.867 99.7603ZM296.867 94.1758C296.483 94.1756 296.108 94.2891 295.789 94.5019C295.47 94.7147 295.221 95.0172 295.074 95.3712C294.927 95.7252 294.888 96.1147 294.963 96.4906C295.038 96.8664 295.223 97.2116 295.494 97.4826C295.766 97.7535 296.112 97.938 296.488 98.0128C296.865 98.0875 297.255 98.049 297.609 97.9023C297.964 97.7556 298.267 97.5072 298.48 97.1885C298.693 96.8698 298.807 96.4952 298.807 96.112C298.806 95.5987 298.602 95.1066 298.238 94.7436C297.875 94.3807 297.382 94.1765 296.867 94.1758ZM295.474 90.6436C295.886 90.9181 296.371 91.0643 296.867 91.0638C297.53 91.0625 298.167 90.7985 298.636 90.3297C299.105 89.8609 299.369 89.2256 299.369 88.563C299.369 88.0683 299.222 87.5846 298.947 87.1733C298.672 86.762 298.28 86.4415 297.822 86.2523C297.364 86.0631 296.86 86.0137 296.374 86.1104C295.888 86.2071 295.442 86.4455 295.092 86.7955C294.741 87.1455 294.503 87.5914 294.407 88.0767C294.31 88.562 294.36 89.0649 294.55 89.5218C294.74 89.9787 295.062 90.3691 295.474 90.6436ZM296.427 87.9064C296.557 87.8196 296.71 87.7733 296.867 87.7733C297.076 87.7735 297.277 87.8568 297.426 88.0048C297.574 88.1529 297.657 88.3536 297.658 88.563C297.658 88.7192 297.611 88.8719 297.524 89.0017C297.437 89.1316 297.314 89.2328 297.169 89.2926C297.025 89.3523 296.866 89.368 296.712 89.3375C296.559 89.307 296.418 89.2318 296.307 89.1214C296.197 89.0109 296.121 88.8702 296.091 88.717C296.06 88.5639 296.076 88.4051 296.136 88.2608C296.196 88.1165 296.297 87.9932 296.427 87.9064ZM289.671 96.2799C289.276 96.2794 288.886 96.1856 288.535 96.0063C288.183 95.8269 287.878 95.567 287.646 95.2479C287.414 94.9288 287.261 94.5594 287.2 94.17C287.138 93.7805 287.169 93.3821 287.291 93.0071C287.434 92.5683 287.696 92.1776 288.047 91.878C288.399 91.5785 288.826 91.3818 289.283 91.3098C289.74 91.2377 290.207 91.2932 290.634 91.4699C291.061 91.6466 291.431 91.9377 291.702 92.3111C291.973 92.6845 292.136 93.1255 292.172 93.5854C292.208 94.0453 292.116 94.5061 291.905 94.9169C291.695 95.3277 291.375 95.6725 290.981 95.913C290.586 96.1536 290.133 96.2806 289.671 96.2799ZM288.922 93.5357C288.857 93.7349 288.874 93.9516 288.969 94.1382C289.065 94.3248 289.23 94.4659 289.43 94.5306C289.63 94.5952 289.847 94.5781 290.034 94.483C290.221 94.3879 290.362 94.2225 290.427 94.0233C290.492 93.8241 290.474 93.6074 290.379 93.4208C290.284 93.2343 290.118 93.0931 289.918 93.0285C289.719 92.9638 289.502 92.9809 289.315 93.076C289.128 93.1712 288.986 93.3365 288.922 93.5357ZM290.948 104.243C291.374 104.554 291.888 104.722 292.415 104.722C292.812 104.722 293.202 104.628 293.555 104.449C293.908 104.269 294.214 104.009 294.447 103.69C294.738 103.29 294.904 102.812 294.923 102.318C294.943 101.824 294.815 101.335 294.556 100.913C294.297 100.491 293.919 100.156 293.469 99.9485C293.019 99.7415 292.517 99.6723 292.028 99.7497C291.538 99.8272 291.083 100.048 290.719 100.384C290.355 100.719 290.099 101.155 289.984 101.636C289.868 102.117 289.898 102.622 290.07 103.086C290.241 103.55 290.547 103.953 290.948 104.243ZM291.961 101.58C292.096 101.482 292.259 101.43 292.427 101.43C292.551 101.43 292.674 101.46 292.785 101.517C292.896 101.574 292.992 101.656 293.066 101.757C293.139 101.857 293.187 101.974 293.206 102.097C293.226 102.22 293.216 102.346 293.177 102.464C293.139 102.583 293.072 102.691 292.984 102.779C292.896 102.867 292.788 102.932 292.669 102.971C292.551 103.009 292.425 103.019 292.301 103C292.178 102.98 292.061 102.932 291.96 102.859C291.825 102.761 291.724 102.623 291.673 102.464C291.621 102.305 291.621 102.134 291.673 101.975C291.725 101.817 291.825 101.678 291.961 101.58ZM301.316 104.722C300.719 104.723 300.142 104.511 299.687 104.125C299.233 103.74 298.931 103.204 298.837 102.616C298.743 102.028 298.862 101.426 299.173 100.917C299.484 100.409 299.966 100.028 300.533 99.8436C301.101 99.6588 301.715 99.6822 302.267 99.9096C302.818 100.137 303.271 100.553 303.542 101.084C303.813 101.614 303.886 102.224 303.747 102.803C303.608 103.382 303.267 103.893 302.784 104.243C302.358 104.554 301.844 104.722 301.316 104.722ZM301.313 101.431C301.167 101.431 301.024 101.472 300.9 101.548C300.775 101.624 300.675 101.733 300.608 101.863C300.542 101.992 300.513 102.138 300.525 102.283C300.536 102.428 300.588 102.567 300.673 102.685C300.797 102.853 300.983 102.966 301.19 102.998C301.398 103.03 301.609 102.979 301.779 102.856C301.914 102.758 302.014 102.619 302.066 102.461C302.117 102.302 302.117 102.131 302.065 101.973C302.013 101.814 301.913 101.676 301.777 101.578C301.642 101.48 301.48 101.428 301.313 101.428V101.431ZM302.747 95.9122C303.141 96.1536 303.594 96.2816 304.056 96.2821C304.451 96.2818 304.841 96.1882 305.194 96.0089C305.546 95.8296 305.851 95.5698 306.084 95.2505C306.316 94.9312 306.47 94.5616 306.532 94.1718C306.594 93.7819 306.564 93.3829 306.442 93.0072C306.299 92.5686 306.038 92.178 305.686 91.8785C305.335 91.5789 304.907 91.3822 304.451 91.31C303.995 91.2377 303.527 91.2929 303.1 91.4692C302.673 91.6456 302.304 91.9363 302.032 92.3093C301.76 92.6823 301.597 93.123 301.56 93.5828C301.524 94.0425 301.615 94.5034 301.825 94.9145C302.034 95.3256 302.353 95.6709 302.747 95.9122ZM303.811 93.0286C303.89 93.0033 303.973 92.9903 304.056 92.9901C304.223 92.9905 304.385 93.0435 304.52 93.1415C304.655 93.2395 304.756 93.3776 304.808 93.5359C304.856 93.6845 304.859 93.844 304.816 93.9943C304.774 94.1446 304.688 94.2789 304.569 94.3803C304.45 94.4816 304.303 94.5455 304.148 94.5638C303.992 94.5821 303.835 94.554 303.696 94.4831C303.556 94.4122 303.441 94.3016 303.365 94.1653C303.288 94.029 303.254 93.8732 303.266 93.7175C303.279 93.5618 303.337 93.4133 303.434 93.2907C303.531 93.168 303.662 93.0768 303.811 93.0286ZM286.093 124.721H275.963C275.736 124.721 275.518 124.631 275.357 124.471C275.196 124.31 275.106 124.093 275.106 123.866C275.106 123.639 275.196 123.421 275.357 123.261C275.518 123.1 275.736 123.01 275.963 123.01H286.093C286.32 123.01 286.538 123.1 286.699 123.261C286.86 123.421 286.95 123.639 286.95 123.866C286.95 124.093 286.86 124.31 286.699 124.471C286.538 124.631 286.32 124.721 286.093 124.721ZM269.076 124.721H270.696C270.924 124.721 271.142 124.631 271.302 124.471C271.463 124.31 271.553 124.093 271.553 123.866C271.553 123.639 271.463 123.421 271.302 123.261C271.142 123.1 270.924 123.01 270.696 123.01H269.076C268.849 123.01 268.631 123.1 268.47 123.261C268.31 123.421 268.219 123.639 268.219 123.866C268.219 124.093 268.31 124.31 268.47 124.471C268.631 124.631 268.849 124.721 269.076 124.721ZM276.031 113.403H266.745C266.518 113.403 266.3 113.313 266.139 113.152C265.978 112.992 265.888 112.774 265.888 112.547C265.888 112.321 265.978 112.103 266.139 111.943C266.3 111.782 266.518 111.692 266.745 111.692H276.031C276.258 111.692 276.476 111.782 276.637 111.943C276.798 112.103 276.888 112.321 276.888 112.547C276.888 112.774 276.798 112.992 276.637 113.152C276.476 113.313 276.258 113.403 276.031 113.403ZM259.857 113.403H261.478C261.705 113.403 261.923 113.313 262.084 113.152C262.245 112.992 262.335 112.774 262.335 112.547C262.335 112.321 262.245 112.103 262.084 111.943C261.923 111.782 261.705 111.692 261.478 111.692H259.857C259.63 111.692 259.412 111.782 259.251 111.943C259.09 112.103 259 112.321 259 112.547C259 112.774 259.09 112.992 259.251 113.152C259.412 113.313 259.63 113.403 259.857 113.403ZM280.91 119.059H270.779C270.551 119.059 270.333 118.969 270.173 118.809C270.012 118.648 269.921 118.431 269.921 118.204C269.921 117.977 270.012 117.759 270.173 117.599C270.333 117.438 270.551 117.348 270.779 117.348H280.91C281.137 117.348 281.355 117.438 281.516 117.599C281.676 117.759 281.767 117.977 281.767 118.204C281.767 118.431 281.676 118.648 281.516 118.809C281.355 118.969 281.137 119.059 280.91 119.059ZM263.889 119.059H265.513C265.741 119.059 265.959 118.969 266.12 118.809C266.28 118.648 266.371 118.431 266.371 118.204C266.371 117.977 266.28 117.759 266.12 117.599C265.959 117.438 265.741 117.348 265.513 117.348H263.889C263.662 117.348 263.444 117.438 263.283 117.599C263.122 117.759 263.032 117.977 263.032 118.204C263.032 118.431 263.122 118.648 263.283 118.809C263.444 118.969 263.662 119.059 263.889 119.059Z" fill="white" style="mix-blend-mode:overlay"/>
</g>
<g filter="url(#filter0_d)">
<path fill-rule="evenodd" clip-rule="evenodd" d="M30.3986 23C26.3125 23 23 26.3125 23 30.3986V165.601C23 169.688 26.3124 173 30.3986 173H285.601C289.688 173 293 169.688 293 165.601V142.998C292.854 142.999 292.708 143 292.562 143C266.999 143 246.276 122.853 246.276 98C246.276 73.1472 266.999 53 292.562 53C292.708 53 292.854 53.0007 293 53.002V30.3986C293 26.3125 289.688 23 285.601 23H30.3986Z" fill="white"/>
</g>
<g filter="url(#filter1_d)">
<path d="M283 148.396H283.37V148.068L283.045 148.028L283 148.396ZM283 45.576L283.045 45.9433L283.37 45.9038V45.576H283ZM32.6301 42.6364C32.6301 42.8407 32.7957 43.0063 33 43.0063C33.2043 43.0063 33.3699 42.8407 33.3699 42.6364H32.6301ZM33.3699 47.9091C33.3699 47.7048 33.2043 47.5392 33 47.5392C32.7957 47.5392 32.6301 47.7048 32.6301 47.9091H33.3699ZM32.6301 53.1818C32.6301 53.3861 32.7957 53.5518 33 53.5518C33.2043 53.5518 33.3699 53.3861 33.3699 53.1818H32.6301ZM33.3699 58.4545C33.3699 58.2502 33.2043 58.0846 33 58.0846C32.7957 58.0846 32.6301 58.2502 32.6301 58.4545H33.3699ZM32.6301 63.7273C32.6301 63.9316 32.7957 64.0972 33 64.0972C33.2043 64.0972 33.3699 63.9316 33.3699 63.7273H32.6301ZM33.3699 69C33.3699 68.7957 33.2043 68.6301 33 68.6301C32.7957 68.6301 32.6301 68.7957 32.6301 69H33.3699ZM32.6301 74.2727C32.6301 74.477 32.7957 74.6427 33 74.6427C33.2043 74.6427 33.3699 74.477 33.3699 74.2727H32.6301ZM33.3699 79.5455C33.3699 79.3412 33.2043 79.1755 33 79.1755C32.7957 79.1755 32.6301 79.3412 32.6301 79.5455H33.3699ZM32.6301 84.8182C32.6301 85.0225 32.7957 85.1881 33 85.1881C33.2043 85.1881 33.3699 85.0225 33.3699 84.8182H32.6301ZM33.3699 90.0909C33.3699 89.8866 33.2043 89.721 33 89.721C32.7957 89.721 32.6301 89.8866 32.6301 90.0909H33.3699ZM32.6301 95.3636C32.6301 95.5679 32.7957 95.7336 33 95.7336C33.2043 95.7336 33.3699 95.5679 33.3699 95.3636H32.6301ZM33.3699 100.636C33.3699 100.432 33.2043 100.266 33 100.266C32.7957 100.266 32.6301 100.432 32.6301 100.636H33.3699ZM32.6301 105.909C32.6301 106.113 32.7957 106.279 33 106.279C33.2043 106.279 33.3699 106.113 33.3699 105.909H32.6301ZM33.3699 111.182C33.3699 110.978 33.2043 110.812 33 110.812C32.7957 110.812 32.6301 110.978 32.6301 111.182H33.3699ZM32.6301 116.455C32.6301 116.659 32.7957 116.824 33 116.824C33.2043 116.824 33.3699 116.659 33.3699 116.455H32.6301ZM33.3699 121.727C33.3699 121.523 33.2043 121.357 33 121.357C32.7957 121.357 32.6301 121.523 32.6301 121.727H33.3699ZM32.6301 127C32.6301 127.204 32.7957 127.37 33 127.37C33.2043 127.37 33.3699 127.204 33.3699 127H32.6301ZM33.3699 132.273C33.3699 132.068 33.2043 131.903 33 131.903C32.7957 131.903 32.6301 132.068 32.6301 132.273H33.3699ZM32.6301 137.545C32.6301 137.75 32.7957 137.915 33 137.915C33.2043 137.915 33.3699 137.75 33.3699 137.545H32.6301ZM33.3699 142.818C33.3699 142.614 33.2043 142.448 33 142.448C32.7957 142.448 32.6301 142.614 32.6301 142.818H33.3699ZM32.6301 148.091C32.6301 148.295 32.7957 148.461 33 148.461C33.2043 148.461 33.3699 148.295 33.3699 148.091H32.6301ZM33.3699 153.364C33.3699 153.159 33.2043 152.994 33 152.994C32.7957 152.994 32.6301 153.159 32.6301 153.364H33.3699ZM33.1895 158.821C33.2677 159.01 33.4841 159.099 33.6729 159.021C33.8616 158.943 33.9511 158.727 33.8729 158.538L33.1895 158.821ZM37.4622 162.127C37.2735 162.049 37.057 162.138 36.9788 162.327C36.9005 162.516 36.9901 162.732 37.1788 162.811L37.4622 162.127ZM42.5652 163.37C42.7695 163.37 42.9351 163.204 42.9351 163C42.9351 162.796 42.7695 162.63 42.5652 162.63V163.37ZM47.6957 162.63C47.4913 162.63 47.3257 162.796 47.3257 163C47.3257 163.204 47.4913 163.37 47.6957 163.37V162.63ZM52.8261 163.37C53.0304 163.37 53.196 163.204 53.196 163C53.196 162.796 53.0304 162.63 52.8261 162.63V163.37ZM57.9565 162.63C57.7522 162.63 57.5866 162.796 57.5866 163C57.5866 163.204 57.7522 163.37 57.9565 163.37V162.63ZM63.087 163.37C63.2913 163.37 63.4569 163.204 63.4569 163C63.4569 162.796 63.2913 162.63 63.087 162.63V163.37ZM68.2174 162.63C68.0131 162.63 67.8475 162.796 67.8475 163C67.8475 163.204 68.0131 163.37 68.2174 163.37V162.63ZM73.3478 163.37C73.5521 163.37 73.7178 163.204 73.7178 163C73.7178 162.796 73.5521 162.63 73.3478 162.63V163.37ZM78.4783 162.63C78.274 162.63 78.1083 162.796 78.1083 163C78.1083 163.204 78.274 163.37 78.4783 163.37V162.63ZM83.6087 163.37C83.813 163.37 83.9786 163.204 83.9786 163C83.9786 162.796 83.813 162.63 83.6087 162.63V163.37ZM88.7391 162.63C88.5348 162.63 88.3692 162.796 88.3692 163C88.3692 163.204 88.5348 163.37 88.7391 163.37V162.63ZM93.8696 163.37C94.0739 163.37 94.2395 163.204 94.2395 163C94.2395 162.796 94.0739 162.63 93.8696 162.63V163.37ZM99 162.63C98.7957 162.63 98.6301 162.796 98.6301 163C98.6301 163.204 98.7957 163.37 99 163.37V162.63ZM104.13 163.37C104.335 163.37 104.5 163.204 104.5 163C104.5 162.796 104.335 162.63 104.13 162.63V163.37ZM109.261 162.63C109.057 162.63 108.891 162.796 108.891 163C108.891 163.204 109.057 163.37 109.261 163.37V162.63ZM114.391 163.37C114.596 163.37 114.761 163.204 114.761 163C114.761 162.796 114.596 162.63 114.391 162.63V163.37ZM119.522 162.63C119.317 162.63 119.152 162.796 119.152 163C119.152 163.204 119.317 163.37 119.522 163.37V162.63ZM124.652 163.37C124.856 163.37 125.022 163.204 125.022 163C125.022 162.796 124.856 162.63 124.652 162.63V163.37ZM129.783 162.63C129.578 162.63 129.413 162.796 129.413 163C129.413 163.204 129.578 163.37 129.783 163.37V162.63ZM134.913 163.37C135.117 163.37 135.283 163.204 135.283 163C135.283 162.796 135.117 162.63 134.913 162.63V163.37ZM140.043 162.63C139.839 162.63 139.674 162.796 139.674 163C139.674 163.204 139.839 163.37 140.043 163.37V162.63ZM145.174 163.37C145.378 163.37 145.544 163.204 145.544 163C145.544 162.796 145.378 162.63 145.174 162.63V163.37ZM150.304 162.63C150.1 162.63 149.934 162.796 149.934 163C149.934 163.204 150.1 163.37 150.304 163.37V162.63ZM155.435 163.37C155.639 163.37 155.805 163.204 155.805 163C155.805 162.796 155.639 162.63 155.435 162.63V163.37ZM160.565 162.63C160.361 162.63 160.195 162.796 160.195 163C160.195 163.204 160.361 163.37 160.565 163.37V162.63ZM165.696 163.37C165.9 163.37 166.066 163.204 166.066 163C166.066 162.796 165.9 162.63 165.696 162.63V163.37ZM170.826 162.63C170.622 162.63 170.456 162.796 170.456 163C170.456 163.204 170.622 163.37 170.826 163.37V162.63ZM175.956 163.37C176.161 163.37 176.326 163.204 176.326 163C176.326 162.796 176.161 162.63 175.956 162.63V163.37ZM181.087 162.63C180.883 162.63 180.717 162.796 180.717 163C180.717 163.204 180.883 163.37 181.087 163.37V162.63ZM186.217 163.37C186.422 163.37 186.587 163.204 186.587 163C186.587 162.796 186.422 162.63 186.217 162.63V163.37ZM191.348 162.63C191.143 162.63 190.978 162.796 190.978 163C190.978 163.204 191.143 163.37 191.348 163.37V162.63ZM196.478 163.37C196.683 163.37 196.848 163.204 196.848 163C196.848 162.796 196.683 162.63 196.478 162.63V163.37ZM201.609 162.63C201.404 162.63 201.239 162.796 201.239 163C201.239 163.204 201.404 163.37 201.609 163.37V162.63ZM206.739 163.37C206.943 163.37 207.109 163.204 207.109 163C207.109 162.796 206.943 162.63 206.739 162.63V163.37ZM211.87 162.63C211.665 162.63 211.5 162.796 211.5 163C211.5 163.204 211.665 163.37 211.87 163.37V162.63ZM217 163.37C217.204 163.37 217.37 163.204 217.37 163C217.37 162.796 217.204 162.63 217 162.63V163.37ZM222.13 162.63C221.926 162.63 221.76 162.796 221.76 163C221.76 163.204 221.926 163.37 222.13 163.37V162.63ZM227.261 163.37C227.465 163.37 227.631 163.204 227.631 163C227.631 162.796 227.465 162.63 227.261 162.63V163.37ZM232.391 162.63C232.187 162.63 232.021 162.796 232.021 163C232.021 163.204 232.187 163.37 232.391 163.37V162.63ZM237.522 163.37C237.726 163.37 237.892 163.204 237.892 163C237.892 162.796 237.726 162.63 237.522 162.63V163.37ZM242.652 162.63C242.448 162.63 242.282 162.796 242.282 163C242.282 163.204 242.448 163.37 242.652 163.37V162.63ZM247.783 163.37C247.987 163.37 248.152 163.204 248.152 163C248.152 162.796 247.987 162.63 247.783 162.63V163.37ZM252.913 162.63C252.709 162.63 252.543 162.796 252.543 163C252.543 163.204 252.709 163.37 252.913 163.37V162.63ZM258.043 163.37C258.248 163.37 258.413 163.204 258.413 163C258.413 162.796 258.248 162.63 258.043 162.63V163.37ZM263.174 162.63C262.97 162.63 262.804 162.796 262.804 163C262.804 163.204 262.97 163.37 263.174 163.37V162.63ZM268.304 163.37C268.509 163.37 268.674 163.204 268.674 163C268.674 162.796 268.509 162.63 268.304 162.63V163.37ZM273.435 162.63C273.23 162.63 273.065 162.796 273.065 163C273.065 163.204 273.23 163.37 273.435 163.37V162.63ZM278.821 162.811C279.01 162.732 279.099 162.516 279.021 162.327C278.943 162.138 278.727 162.049 278.538 162.127L278.821 162.811ZM282.127 158.538C282.049 158.727 282.138 158.943 282.327 159.021C282.516 159.099 282.732 159.01 282.811 158.821L282.127 158.538ZM283.37 154.099C283.37 153.895 283.204 153.729 283 153.729C282.796 153.729 282.63 153.895 282.63 154.099H283.37ZM282.63 150.297C282.63 150.501 282.796 150.667 283 150.667C283.204 150.667 283.37 150.501 283.37 150.297H282.63ZM280.412 147.639C280.211 147.604 280.019 147.739 279.984 147.94C279.949 148.141 280.083 148.333 280.285 148.368L280.412 147.639ZM275.024 147.166C275.22 147.221 275.425 147.107 275.481 146.911C275.536 146.714 275.422 146.51 275.226 146.454L275.024 147.166ZM270.192 144.736C270.003 144.66 269.787 144.752 269.711 144.941C269.635 145.131 269.728 145.346 269.917 145.422L270.192 144.736ZM265.02 143.158C265.201 143.253 265.425 143.184 265.52 143.003C265.615 142.823 265.546 142.599 265.365 142.504L265.02 143.158ZM260.794 139.783C260.624 139.669 260.395 139.715 260.281 139.885C260.168 140.055 260.214 140.285 260.383 140.398L260.794 139.783ZM256.056 137.175C256.214 137.305 256.447 137.283 256.577 137.126C256.708 136.969 256.686 136.735 256.528 136.605L256.056 137.175ZM252.612 133.006C252.469 132.86 252.234 132.858 252.089 133.001C251.943 133.144 251.941 133.378 252.084 133.524L252.612 133.006ZM248.507 129.485C248.634 129.644 248.867 129.67 249.027 129.543C249.187 129.416 249.213 129.183 249.085 129.023L248.507 129.485ZM245.987 124.699C245.877 124.527 245.648 124.477 245.476 124.588C245.304 124.698 245.254 124.927 245.365 125.099L245.987 124.699ZM242.691 120.411C242.783 120.594 243.006 120.667 243.188 120.575C243.371 120.483 243.444 120.261 243.352 120.078L242.691 120.411ZM241.21 115.21C241.138 115.019 240.924 114.923 240.733 114.995C240.542 115.068 240.446 115.281 240.519 115.472L241.21 115.21ZM238.872 110.335C238.924 110.532 239.126 110.65 239.324 110.598C239.521 110.546 239.639 110.343 239.587 110.146L238.872 110.335ZM238.499 104.939C238.467 104.738 238.278 104.599 238.077 104.631C237.875 104.662 237.736 104.851 237.768 105.053L238.499 104.939ZM237.216 99.6844C237.227 99.8884 237.4 100.045 237.605 100.035C237.809 100.025 237.966 99.8508 237.955 99.6467L237.216 99.6844ZM237.955 94.3248C237.966 94.1208 237.809 93.9469 237.605 93.9365C237.4 93.9261 237.227 94.0831 237.216 94.2872L237.955 94.3248ZM237.768 88.9186C237.736 89.1205 237.875 89.3096 238.077 89.341C238.278 89.3723 238.467 89.234 238.499 89.0322L237.768 88.9186ZM239.587 83.8257C239.639 83.6281 239.521 83.4257 239.324 83.3736C239.126 83.3214 238.924 83.4393 238.872 83.6368L239.587 83.8257ZM240.519 78.4992C240.446 78.6902 240.542 78.9038 240.733 78.9762C240.924 79.0487 241.138 78.9525 241.21 78.7615L240.519 78.4992ZM243.352 73.8931C243.444 73.7106 243.371 73.4882 243.188 73.3963C243.006 73.3044 242.783 73.3779 242.691 73.5604L243.352 73.8931ZM245.365 68.873C245.254 69.045 245.304 69.2738 245.476 69.384C245.648 69.4943 245.877 69.4442 245.987 69.2723L245.365 68.873ZM249.085 64.9484C249.213 64.7886 249.187 64.5559 249.027 64.4285C248.867 64.3011 248.634 64.3273 248.507 64.487L249.085 64.9484ZM252.084 60.4476C251.941 60.5934 251.943 60.8276 252.089 60.9707C252.234 61.1138 252.469 61.1117 252.612 60.9659L252.084 60.4476ZM256.528 57.3665C256.686 57.2362 256.708 57.003 256.577 56.8456C256.447 56.6883 256.214 56.6664 256.056 56.7967L256.528 57.3665ZM260.383 53.5735C260.214 53.687 260.168 53.9167 260.281 54.0866C260.395 54.2565 260.624 54.3023 260.794 54.1889L260.383 53.5735ZM265.365 51.4681C265.546 51.3728 265.615 51.149 265.52 50.9683C265.425 50.7876 265.201 50.7183 265.02 50.8136L265.365 51.4681ZM269.917 48.5492C269.728 48.6252 269.635 48.8405 269.711 49.0301C269.787 49.2198 270.003 49.3119 270.192 49.2359L269.917 48.5492ZM275.226 47.5177C275.422 47.4618 275.536 47.2573 275.481 47.0607C275.425 46.8642 275.22 46.7501 275.024 46.806L275.226 47.5177ZM280.285 45.6035C280.083 45.6386 279.949 45.8302 279.984 46.0315C280.019 46.2327 280.211 46.3675 280.412 46.3324L280.285 45.6035ZM283.37 44.182C283.37 43.9777 283.204 43.8121 283 43.8121C282.796 43.8121 282.63 43.9777 282.63 44.182H283.37ZM282.63 41.394C282.63 41.5983 282.796 41.7639 283 41.7639C283.204 41.7639 283.37 41.5983 283.37 41.394H282.63ZM282.811 37.1788C282.732 36.9901 282.516 36.9005 282.327 36.9788C282.138 37.057 282.049 37.2735 282.127 37.4622L282.811 37.1788ZM278.538 33.8729C278.727 33.9511 278.943 33.8616 279.021 33.6729C279.099 33.4841 279.01 33.2677 278.821 33.1895L278.538 33.8729ZM273.435 32.6301C273.23 32.6301 273.065 32.7957 273.065 33C273.065 33.2043 273.23 33.3699 273.435 33.3699V32.6301ZM268.304 33.3699C268.509 33.3699 268.674 33.2043 268.674 33C268.674 32.7957 268.509 32.6301 268.304 32.6301V33.3699ZM263.174 32.6301C262.97 32.6301 262.804 32.7957 262.804 33C262.804 33.2043 262.97 33.3699 263.174 33.3699V32.6301ZM258.043 33.3699C258.248 33.3699 258.413 33.2043 258.413 33C258.413 32.7957 258.248 32.6301 258.043 32.6301V33.3699ZM252.913 32.6301C252.709 32.6301 252.543 32.7957 252.543 33C252.543 33.2043 252.709 33.3699 252.913 33.3699V32.6301ZM247.783 33.3699C247.987 33.3699 248.153 33.2043 248.153 33C248.153 32.7957 247.987 32.6301 247.783 32.6301V33.3699ZM242.652 32.6301C242.448 32.6301 242.282 32.7957 242.282 33C242.282 33.2043 242.448 33.3699 242.652 33.3699V32.6301ZM237.522 33.3699C237.726 33.3699 237.892 33.2043 237.892 33C237.892 32.7957 237.726 32.6301 237.522 32.6301V33.3699ZM232.391 32.6301C232.187 32.6301 232.021 32.7957 232.021 33C232.021 33.2043 232.187 33.3699 232.391 33.3699V32.6301ZM227.261 33.3699C227.465 33.3699 227.631 33.2043 227.631 33C227.631 32.7957 227.465 32.6301 227.261 32.6301V33.3699ZM222.13 32.6301C221.926 32.6301 221.76 32.7957 221.76 33C221.76 33.2043 221.926 33.3699 222.13 33.3699V32.6301ZM217 33.3699C217.204 33.3699 217.37 33.2043 217.37 33C217.37 32.7957 217.204 32.6301 217 32.6301V33.3699ZM211.87 32.6301C211.665 32.6301 211.5 32.7957 211.5 33C211.5 33.2043 211.665 33.3699 211.87 33.3699V32.6301ZM206.739 33.3699C206.943 33.3699 207.109 33.2043 207.109 33C207.109 32.7957 206.943 32.6301 206.739 32.6301V33.3699ZM201.609 32.6301C201.404 32.6301 201.239 32.7957 201.239 33C201.239 33.2043 201.404 33.3699 201.609 33.3699V32.6301ZM196.478 33.3699C196.683 33.3699 196.848 33.2043 196.848 33C196.848 32.7957 196.683 32.6301 196.478 32.6301V33.3699ZM191.348 32.6301C191.144 32.6301 190.978 32.7957 190.978 33C190.978 33.2043 191.144 33.3699 191.348 33.3699V32.6301ZM186.217 33.3699C186.422 33.3699 186.587 33.2043 186.587 33C186.587 32.7957 186.422 32.6301 186.217 32.6301V33.3699ZM181.087 32.6301C180.883 32.6301 180.717 32.7957 180.717 33C180.717 33.2043 180.883 33.3699 181.087 33.3699V32.6301ZM175.957 33.3699C176.161 33.3699 176.326 33.2043 176.326 33C176.326 32.7957 176.161 32.6301 175.957 32.6301V33.3699ZM170.826 32.6301C170.622 32.6301 170.456 32.7957 170.456 33C170.456 33.2043 170.622 33.3699 170.826 33.3699V32.6301ZM165.696 33.3699C165.9 33.3699 166.066 33.2043 166.066 33C166.066 32.7957 165.9 32.6301 165.696 32.6301V33.3699ZM160.565 32.6301C160.361 32.6301 160.195 32.7957 160.195 33C160.195 33.2043 160.361 33.3699 160.565 33.3699V32.6301ZM155.435 33.3699C155.639 33.3699 155.805 33.2043 155.805 33C155.805 32.7957 155.639 32.6301 155.435 32.6301V33.3699ZM150.304 32.6301C150.1 32.6301 149.934 32.7957 149.934 33C149.934 33.2043 150.1 33.3699 150.304 33.3699V32.6301ZM145.174 33.3699C145.378 33.3699 145.544 33.2043 145.544 33C145.544 32.7957 145.378 32.6301 145.174 32.6301V33.3699ZM140.043 32.6301C139.839 32.6301 139.674 32.7957 139.674 33C139.674 33.2043 139.839 33.3699 140.043 33.3699V32.6301ZM134.913 33.3699C135.117 33.3699 135.283 33.2043 135.283 33C135.283 32.7957 135.117 32.6301 134.913 32.6301V33.3699ZM129.783 32.6301C129.578 32.6301 129.413 32.7957 129.413 33C129.413 33.2043 129.578 33.3699 129.783 33.3699V32.6301ZM124.652 33.3699C124.857 33.3699 125.022 33.2043 125.022 33C125.022 32.7957 124.857 32.6301 124.652 32.6301V33.3699ZM119.522 32.6301C119.317 32.6301 119.152 32.7957 119.152 33C119.152 33.2043 119.317 33.3699 119.522 33.3699V32.6301ZM114.391 33.3699C114.596 33.3699 114.761 33.2043 114.761 33C114.761 32.7957 114.596 32.6301 114.391 32.6301V33.3699ZM109.261 32.6301C109.057 32.6301 108.891 32.7957 108.891 33C108.891 33.2043 109.057 33.3699 109.261 33.3699V32.6301ZM104.13 33.3699C104.335 33.3699 104.5 33.2043 104.5 33C104.5 32.7957 104.335 32.6301 104.13 32.6301V33.3699ZM99 32.6301C98.7957 32.6301 98.6301 32.7957 98.6301 33C98.6301 33.2043 98.7957 33.3699 99 33.3699V32.6301ZM93.8696 33.3699C94.0739 33.3699 94.2395 33.2043 94.2395 33C94.2395 32.7957 94.0739 32.6301 93.8696 32.6301V33.3699ZM88.7392 32.6301C88.5349 32.6301 88.3692 32.7957 88.3692 33C88.3692 33.2043 88.5349 33.3699 88.7392 33.3699V32.6301ZM83.6088 33.3699C83.8131 33.3699 83.9787 33.2043 83.9787 33C83.9787 32.7957 83.8131 32.6301 83.6088 32.6301V33.3699ZM78.4783 32.6301C78.274 32.6301 78.1084 32.7957 78.1084 33C78.1084 33.2043 78.274 33.3699 78.4783 33.3699V32.6301ZM73.3479 33.3699C73.5522 33.3699 73.7178 33.2043 73.7178 33C73.7178 32.7957 73.5522 32.6301 73.3479 32.6301V33.3699ZM68.2175 32.6301C68.0131 32.6301 67.8475 32.7957 67.8475 33C67.8475 33.2043 68.0131 33.3699 68.2175 33.3699V32.6301ZM63.087 33.3699C63.2913 33.3699 63.4569 33.2043 63.4569 33C63.4569 32.7957 63.2913 32.6301 63.087 32.6301V33.3699ZM57.9566 32.6301C57.7523 32.6301 57.5867 32.7957 57.5867 33C57.5867 33.2043 57.7523 33.3699 57.9566 33.3699V32.6301ZM52.8262 33.3699C53.0305 33.3699 53.1961 33.2043 53.1961 33C53.1961 32.7957 53.0305 32.6301 52.8262 32.6301V33.3699ZM47.6957 32.6301C47.4914 32.6301 47.3258 32.7957 47.3258 33C47.3258 33.2043 47.4914 33.3699 47.6957 33.3699V32.6301ZM42.5653 33.3699C42.7696 33.3699 42.9352 33.2043 42.9352 33C42.9352 32.7957 42.7696 32.6301 42.5653 32.6301V33.3699ZM37.1788 33.1895C36.9901 33.2677 36.9005 33.4841 36.9788 33.6729C37.057 33.8616 37.2735 33.9511 37.4622 33.8729L37.1788 33.1895ZM33.8729 37.4622C33.9511 37.2735 33.8616 37.057 33.6729 36.9788C33.4841 36.9005 33.2677 36.9901 33.1895 37.1788L33.8729 37.4622ZM32.6301 40V42.6364H33.3699V40H32.6301ZM32.6301 47.9091V53.1818H33.3699V47.9091H32.6301ZM32.6301 58.4545V63.7273H33.3699V58.4545H32.6301ZM32.6301 69V74.2727H33.3699V69H32.6301ZM32.6301 79.5455V84.8182H33.3699V79.5455H32.6301ZM32.6301 90.0909V95.3636H33.3699V90.0909H32.6301ZM32.6301 100.636V105.909H33.3699V100.636H32.6301ZM32.6301 111.182V116.455H33.3699V111.182H32.6301ZM32.6301 121.727V127H33.3699V121.727H32.6301ZM32.6301 132.273V137.545H33.3699V132.273H32.6301ZM32.6301 142.818V148.091H33.3699V142.818H32.6301ZM32.6301 153.364V156H33.3699V153.364H32.6301ZM32.6301 156C32.6301 156.999 32.8289 157.952 33.1895 158.821L33.8729 158.538C33.5489 157.757 33.3699 156.9 33.3699 156H32.6301ZM37.1788 162.811C38.0483 163.171 39.0014 163.37 40 163.37V162.63C39.1003 162.63 38.2434 162.451 37.4622 162.127L37.1788 162.811ZM40 163.37H42.5652V162.63H40V163.37ZM47.6957 163.37H52.8261V162.63H47.6957V163.37ZM57.9565 163.37H63.087V162.63H57.9565V163.37ZM68.2174 163.37H73.3478V162.63H68.2174V163.37ZM78.4783 163.37H83.6087V162.63H78.4783V163.37ZM88.7391 163.37H93.8696V162.63H88.7391V163.37ZM99 163.37H104.13V162.63H99V163.37ZM109.261 163.37H114.391V162.63H109.261V163.37ZM119.522 163.37H124.652V162.63H119.522V163.37ZM129.783 163.37H134.913V162.63H129.783V163.37ZM140.043 163.37H145.174V162.63H140.043V163.37ZM150.304 163.37H155.435V162.63H150.304V163.37ZM160.565 163.37H165.696V162.63H160.565V163.37ZM170.826 163.37H175.956V162.63H170.826V163.37ZM181.087 163.37H186.217V162.63H181.087V163.37ZM191.348 163.37H196.478V162.63H191.348V163.37ZM201.609 163.37H206.739V162.63H201.609V163.37ZM211.87 163.37H217V162.63H211.87V163.37ZM222.13 163.37H227.261V162.63H222.13V163.37ZM232.391 163.37H237.522V162.63H232.391V163.37ZM242.652 163.37H247.783V162.63H242.652V163.37ZM252.913 163.37H258.043V162.63H252.913V163.37ZM263.174 163.37H268.304V162.63H263.174V163.37ZM273.435 163.37H276V162.63H273.435V163.37ZM276 163.37C276.999 163.37 277.952 163.171 278.821 162.811L278.538 162.127C277.757 162.451 276.9 162.63 276 162.63V163.37ZM282.811 158.821C283.171 157.952 283.37 156.999 283.37 156H282.63C282.63 156.9 282.451 157.757 282.127 158.538L282.811 158.821ZM283.37 156V154.099H282.63V156H283.37ZM283.37 150.297V148.396H282.63V150.297H283.37ZM283.045 148.028C282.16 147.921 281.282 147.791 280.412 147.639L280.285 148.368C281.168 148.522 282.058 148.654 282.955 148.763L283.045 148.028ZM275.226 146.454C273.51 145.966 271.83 145.392 270.192 144.736L269.917 145.422C271.579 146.088 273.283 146.671 275.024 147.166L275.226 146.454ZM265.365 142.504C263.792 141.674 262.266 140.765 260.794 139.783L260.383 140.398C261.876 141.395 263.424 142.317 265.02 143.158L265.365 142.504ZM256.528 136.605C255.161 135.473 253.854 134.271 252.612 133.006L252.084 133.524C253.344 134.808 254.67 136.026 256.056 137.175L256.528 136.605ZM249.085 129.023C247.981 127.638 246.946 126.195 245.987 124.699L245.365 125.099C246.337 126.616 247.387 128.08 248.507 129.485L249.085 129.023ZM243.352 120.078C242.558 118.5 241.842 116.876 241.21 115.21L240.519 115.472C241.159 117.162 241.885 118.81 242.691 120.411L243.352 120.078ZM239.587 110.146C239.137 108.443 238.773 106.706 238.499 104.939L237.768 105.053C238.046 106.845 238.416 108.608 238.872 110.335L239.587 110.146ZM237.955 99.6467C237.91 98.7655 237.888 97.8783 237.888 96.9858H237.148C237.148 97.8909 237.171 98.7906 237.216 99.6844L237.955 99.6467ZM237.888 96.9858C237.888 96.0933 237.91 95.2061 237.955 94.3248L237.216 94.2872C237.171 95.181 237.148 96.0807 237.148 96.9858H237.888ZM238.499 89.0322C238.773 87.2653 239.137 85.5282 239.587 83.8257L238.872 83.6368C238.416 85.364 238.046 87.1263 237.768 88.9186L238.499 89.0322ZM241.21 78.7615C241.842 77.0956 242.558 75.4711 243.352 73.8931L242.691 73.5604C241.885 75.1612 241.159 76.8092 240.519 78.4992L241.21 78.7615ZM245.987 69.2723C246.946 67.7762 247.981 66.3332 249.085 64.9484L248.507 64.487C247.387 65.8917 246.337 67.3554 245.365 68.873L245.987 69.2723ZM252.612 60.9659C253.854 59.7003 255.161 58.4987 256.528 57.3665L256.056 56.7967C254.67 57.9451 253.344 59.1639 252.084 60.4476L252.612 60.9659ZM260.794 54.1889C262.266 53.2062 263.792 52.2975 265.365 51.4681L265.02 50.8136C263.424 51.655 261.876 52.5768 260.383 53.5735L260.794 54.1889ZM270.192 49.2359C271.83 48.5797 273.51 48.0052 275.226 47.5177L275.024 46.806C273.283 47.3006 271.579 47.8834 269.917 48.5492L270.192 49.2359ZM280.412 46.3324C281.282 46.1806 282.16 46.0507 283.045 45.9433L282.955 45.2088C282.058 45.3178 281.168 45.4495 280.285 45.6035L280.412 46.3324ZM283.37 45.576V44.182H282.63V45.576H283.37ZM283.37 41.394V40H282.63V41.394H283.37ZM283.37 40C283.37 39.0014 283.171 38.0483 282.811 37.1788L282.127 37.4622C282.451 38.2434 282.63 39.1003 282.63 40H283.37ZM278.821 33.1895C277.952 32.8289 276.999 32.6301 276 32.6301V33.3699C276.9 33.3699 277.757 33.5489 278.538 33.8729L278.821 33.1895ZM276 32.6301H273.435V33.3699H276V32.6301ZM268.304 32.6301H263.174V33.3699H268.304V32.6301ZM258.043 32.6301H252.913V33.3699H258.043V32.6301ZM247.783 32.6301H242.652V33.3699H247.783V32.6301ZM237.522 32.6301H232.391V33.3699H237.522V32.6301ZM227.261 32.6301H222.13V33.3699H227.261V32.6301ZM217 32.6301H211.87V33.3699H217V32.6301ZM206.739 32.6301H201.609V33.3699H206.739V32.6301ZM196.478 32.6301H191.348V33.3699H196.478V32.6301ZM186.217 32.6301H181.087V33.3699H186.217V32.6301ZM175.957 32.6301H170.826V33.3699H175.957V32.6301ZM165.696 32.6301H160.565V33.3699H165.696V32.6301ZM155.435 32.6301H150.304V33.3699H155.435V32.6301ZM145.174 32.6301H140.043V33.3699H145.174V32.6301ZM134.913 32.6301H129.783V33.3699H134.913V32.6301ZM124.652 32.6301H119.522V33.3699H124.652V32.6301ZM114.391 32.6301H109.261V33.3699H114.391V32.6301ZM104.13 32.6301H99V33.3699H104.13V32.6301ZM93.8696 32.6301H88.7392V33.3699H93.8696V32.6301ZM83.6088 32.6301H78.4783V33.3699H83.6088V32.6301ZM73.3479 32.6301H68.2175V33.3699H73.3479V32.6301ZM63.087 32.6301H57.9566V33.3699H63.087V32.6301ZM52.8262 32.6301H47.6957V33.3699H52.8262V32.6301ZM42.5653 32.6301H40V33.3699H42.5653V32.6301ZM40 32.6301C39.0014 32.6301 38.0483 32.8289 37.1788 33.1895L37.4622 33.8729C38.2434 33.5489 39.1003 33.3699 40 33.3699V32.6301ZM33.1895 37.1788C32.8289 38.0483 32.6301 39.0014 32.6301 40H33.3699C33.3699 39.1003 33.5489 38.2434 33.8729 37.4622L33.1895 37.1788Z" fill="#E5E5E5"/>
</g>
<path d="M333 97C333 117.435 316.435 134 296 134C275.565 134 259 117.435 259 97C259 76.5655 275.565 60 296 60C316.435 60 333 76.5655 333 97Z" fill="url(#paint2_linear)"/>
<mask id="mask1" mask-type="alpha" maskUnits="userSpaceOnUse" x="259" y="60" width="74" height="74">
<circle cx="296" cy="97" r="37" fill="url(#paint3_linear)"/>
</mask>
<g mask="url(#mask1)">
<path fill-rule="evenodd" clip-rule="evenodd" d="M314.589 92.0221C314.948 92.7253 315.466 93.3352 316.103 93.8032C317.134 94.7327 318.2 95.6976 318.2 97C318.2 98.3024 317.134 99.2674 316.103 100.201C315.467 100.669 314.948 101.278 314.589 101.981C314.539 102.802 314.684 103.624 315.013 104.379L315.013 104.379L315.013 104.379C315.427 105.677 315.855 107.018 315.227 108.104C314.59 109.205 313.201 109.505 311.858 109.795L311.857 109.795C311.053 109.885 310.281 110.162 309.605 110.605C309.161 111.282 308.884 112.054 308.794 112.858C308.504 114.201 308.202 115.59 307.104 116.227C306.017 116.856 304.679 116.428 303.383 116.014L303.378 116.013C302.624 115.685 301.803 115.54 300.981 115.589C300.278 115.948 299.668 116.467 299.2 117.103C298.267 118.134 297.302 119.2 296 119.2C294.697 119.2 293.732 118.134 292.799 117.103C292.331 116.467 291.722 115.948 291.019 115.589C290.197 115.54 289.376 115.685 288.621 116.013L288.619 116.014C287.321 116.428 285.981 116.855 284.896 116.227C283.795 115.591 283.495 114.201 283.205 112.858L283.204 112.857C283.115 112.053 282.838 111.282 282.395 110.605C281.718 110.162 280.946 109.884 280.142 109.795C278.799 109.505 277.41 109.203 276.772 108.104C276.144 107.018 276.572 105.678 276.987 104.38L276.987 104.379C277.315 103.624 277.461 102.803 277.411 101.982C277.052 101.278 276.533 100.669 275.897 100.201C274.865 99.2674 273.8 98.3024 273.8 97C273.8 95.6976 274.865 94.7327 275.897 93.7995C276.533 93.3316 277.051 92.722 277.411 92.0191C277.461 91.1976 277.316 90.376 276.987 89.6215L276.987 89.621C276.572 88.3232 276.144 86.9818 276.772 85.8963C277.409 84.7948 278.798 84.495 280.142 84.205L280.143 84.2047C280.947 84.1154 281.718 83.8381 282.395 83.3951C282.84 82.7185 283.119 81.9465 283.209 81.1418C283.499 79.7987 283.801 78.4098 284.9 77.7726C285.985 77.1448 287.323 77.5719 288.618 77.9849L288.625 77.9872C289.379 78.3151 290.201 78.4604 291.022 78.4112C291.725 78.0518 292.335 77.5334 292.803 76.8972C293.732 75.8656 294.697 74.8 296 74.8C297.302 74.8 298.267 75.8656 299.2 76.8972C299.668 77.5332 300.278 78.0516 300.981 78.4112C301.802 78.4606 302.624 78.3153 303.378 77.9872L303.381 77.9865C304.679 77.5723 306.019 77.1448 307.104 77.7726C308.205 78.4096 308.505 79.7987 308.795 81.1421L308.795 81.1433C308.884 81.9471 309.162 82.7185 309.605 83.3951C310.281 83.8399 311.053 84.1188 311.858 84.2091C313.201 84.4992 314.59 84.8011 315.227 85.9C315.855 86.986 315.427 88.3263 315.013 89.6238L315.013 89.6252C314.684 90.3795 314.539 91.2009 314.589 92.0221ZM313.159 101.599C313.567 100.604 314.242 99.7403 315.11 99.1039L315.111 99.1024C315.902 98.3858 316.72 97.6456 316.72 97C316.72 96.3545 315.902 95.6143 315.111 94.8977L315.11 94.8962C314.242 94.2598 313.567 93.3961 313.159 92.4002C313.007 91.3036 313.16 90.1864 313.603 89.1716C313.92 88.1807 314.246 87.1558 313.946 86.6371C313.638 86.104 312.576 85.8746 311.549 85.6528L311.546 85.6521C310.457 85.5317 309.423 85.1127 308.558 84.4415C307.838 83.7222 307.589 82.57 307.348 81.4556L307.348 81.4539C307.126 80.4258 306.897 79.3627 306.362 79.0528C305.844 78.7568 304.821 79.0802 303.828 79.3969C302.813 79.839 301.696 79.9926 300.599 79.8409C299.604 79.4327 298.74 78.7578 298.104 77.8903L298.102 77.8887C297.386 77.0974 296.645 76.28 296 76.28C295.354 76.28 294.614 77.0974 293.897 77.8887L293.896 77.8903C293.26 78.758 292.396 79.4331 291.4 79.8409C290.402 80.1088 289.267 79.7477 288.171 79.3969L288.161 79.3936C287.173 79.0779 286.156 78.7527 285.64 79.0536C285.107 79.3619 284.877 80.4243 284.655 81.4513L284.655 81.4513L284.655 81.4541C284.534 82.5425 284.115 83.5764 283.444 84.4415C282.725 85.1623 281.573 85.4109 280.458 85.6514L280.458 85.6514L280.457 85.6518C279.429 85.8737 278.365 86.1031 278.056 86.6378C277.76 87.1558 278.083 88.1807 278.4 89.1716C278.842 90.1866 278.996 91.3042 278.844 92.4009C278.435 93.3963 277.76 94.2598 276.893 94.8962C276.098 95.6133 275.28 96.354 275.28 97C275.28 97.6456 276.097 98.3858 276.888 99.1024L276.89 99.1039C277.758 99.7403 278.433 100.604 278.841 101.6C278.993 102.696 278.839 103.814 278.397 104.829C278.08 105.819 277.754 106.842 278.053 107.36C278.362 107.893 279.424 108.123 280.451 108.344L280.454 108.345C281.542 108.465 282.576 108.884 283.441 109.556C284.162 110.275 284.411 111.427 284.651 112.541L284.651 112.542L284.652 112.543C284.873 113.571 285.103 114.634 285.638 114.944C286.156 115.24 287.178 114.917 288.171 114.6C288.966 114.3 289.802 114.12 290.65 114.066C290.903 114.064 291.156 114.096 291.401 114.159C292.396 114.567 293.26 115.242 293.896 116.11L293.897 116.111C294.614 116.903 295.354 117.72 296 117.72C296.645 117.72 297.386 116.903 298.102 116.111L298.104 116.11C298.74 115.242 299.604 114.567 300.6 114.159C301.696 114.008 302.813 114.161 303.828 114.603L303.83 114.604C304.819 114.919 305.843 115.246 306.363 114.947C306.896 114.638 307.125 113.576 307.347 112.549L307.348 112.546C307.468 111.458 307.887 110.424 308.558 109.559C309.278 108.838 310.43 108.589 311.544 108.349L311.546 108.348C312.574 108.126 313.637 107.897 313.947 107.362C314.243 106.844 313.92 105.819 313.603 104.829C313.16 103.814 313.007 102.696 313.159 101.599ZM296.74 82.9401C296.74 83.3487 296.408 83.6801 296 83.6801C295.591 83.6801 295.26 83.3487 295.26 82.9401V81.4601C295.26 81.0514 295.591 80.7201 296 80.7201C296.408 80.7201 296.74 81.0514 296.74 81.4601V82.9401ZM291.646 83.6104C291.732 83.9336 292.025 84.1585 292.36 84.1587C292.425 84.1591 292.49 84.1507 292.553 84.1336C292.947 84.0278 293.181 83.6224 293.076 83.2278L292.693 81.7981C292.69 81.7852 292.686 81.7723 292.682 81.7596C292.566 81.3678 292.154 81.1447 291.762 81.2613C291.37 81.3778 291.147 81.7898 291.264 82.1816L291.646 83.6104ZM288.865 83.1631L288.87 83.1717L289.61 84.454C289.814 84.8079 289.693 85.2605 289.339 85.4648C289.227 85.5297 289.099 85.5639 288.97 85.564C288.705 85.5643 288.46 85.4232 288.328 85.194L287.588 83.9116C287.382 83.559 287.5 83.1056 287.852 82.899C288.205 82.6923 288.658 82.8105 288.865 83.1631ZM285.535 87.5814C285.673 87.7201 285.862 87.7982 286.058 87.7982C286.254 87.7982 286.442 87.7202 286.581 87.5815C286.87 87.2926 286.87 86.8241 286.581 86.535L285.534 85.4879C285.528 85.4817 285.522 85.4757 285.516 85.4697C285.222 85.1858 284.753 85.1939 284.469 85.4879C284.186 85.7819 284.194 86.2504 284.488 86.5343L285.535 87.5814ZM284.488 107.466L285.535 106.419C285.829 106.135 286.297 106.143 286.581 106.437C286.858 106.724 286.858 107.178 286.581 107.465L285.534 108.512C285.395 108.651 285.207 108.729 285.011 108.729C284.602 108.729 284.271 108.397 284.271 107.989C284.271 107.793 284.349 107.605 284.488 107.466ZM289.342 108.542C288.99 108.335 288.536 108.453 288.33 108.806L287.59 110.088C287.525 110.201 287.491 110.328 287.491 110.458C287.49 110.866 287.821 111.198 288.23 111.198C288.494 111.199 288.739 111.058 288.871 110.828L289.611 109.546C289.812 109.194 289.692 108.747 289.342 108.542ZM291.646 110.39C291.753 109.995 292.16 109.763 292.554 109.87C292.946 109.977 293.178 110.379 293.075 110.772L292.692 112.202C292.605 112.525 292.312 112.75 291.978 112.75C291.569 112.75 291.238 112.419 291.238 112.01C291.238 111.946 291.246 111.881 291.263 111.819L291.646 110.39ZM296 110.32C295.591 110.32 295.26 110.651 295.26 111.06V112.54C295.26 112.949 295.591 113.28 296 113.28C296.408 113.28 296.74 112.949 296.74 112.54V111.06C296.74 110.651 296.408 110.32 296 110.32ZM299.452 109.869C299.845 109.765 300.247 109.998 300.354 110.39L300.737 111.819C300.842 112.213 300.608 112.619 300.213 112.725C300.151 112.742 300.086 112.75 300.022 112.75C299.687 112.75 299.394 112.525 299.308 112.202L298.924 110.772C298.821 110.377 299.057 109.972 299.452 109.869ZM303.67 108.806L303.665 108.797C303.458 108.445 303.005 108.327 302.652 108.533C302.3 108.74 302.181 109.193 302.388 109.546L303.128 110.829C303.26 111.058 303.505 111.199 303.77 111.199C303.899 111.198 304.027 111.164 304.139 111.099C304.493 110.895 304.614 110.442 304.41 110.089L303.67 108.806ZM305.437 106.419C305.723 106.142 306.178 106.142 306.465 106.419L307.512 107.466C307.801 107.755 307.801 108.224 307.512 108.513C307.373 108.651 307.185 108.729 306.989 108.729C306.793 108.729 306.604 108.651 306.466 108.512L305.419 107.465C305.135 107.171 305.143 106.703 305.437 106.419ZM305.942 87.7982C306.138 87.7982 306.326 87.7201 306.465 87.5814L307.512 86.5343C307.518 86.5284 307.524 86.5222 307.53 86.5161C307.814 86.2222 307.806 85.7538 307.512 85.4698C307.218 85.1859 306.75 85.1939 306.466 85.4879L305.419 86.535C305.28 86.6738 305.202 86.8619 305.202 87.058C305.202 87.4668 305.533 87.7981 305.942 87.7982ZM303.671 85.1941C303.539 85.4233 303.294 85.5644 303.03 85.5641C302.621 85.5636 302.29 85.232 302.29 84.8234C302.291 84.6937 302.325 84.5665 302.39 84.4542L303.13 83.1717C303.332 82.8165 303.783 82.6921 304.139 82.8941C304.494 83.096 304.618 83.5478 304.416 83.903L304.411 83.9117L303.671 85.1941ZM299.447 84.1337C299.51 84.1507 299.575 84.1592 299.64 84.1589C299.975 84.1586 300.267 83.9337 300.354 83.6105L300.737 82.1816C300.74 82.1688 300.744 82.156 300.747 82.143C300.842 81.7455 300.597 81.3462 300.2 81.251C299.802 81.1558 299.403 81.4009 299.308 81.7984L298.924 83.228C298.819 83.6225 299.053 84.0279 299.447 84.1337ZM293.04 101.44H298.22C298.628 101.44 298.96 101.771 298.96 102.18C298.96 102.589 298.628 102.92 298.22 102.92H292.3C291.891 102.92 291.56 102.589 291.56 102.18V91.82C291.56 91.4114 291.891 91.08 292.3 91.08H298.22C298.628 91.08 298.96 91.4114 298.96 91.82C298.96 92.2287 298.628 92.56 298.22 92.56H293.04V96.26H296.74C297.148 96.26 297.48 96.5914 297.48 97C297.48 97.4087 297.148 97.74 296.74 97.74H293.04V101.44ZM288.037 102.642C288.088 102.704 288.149 102.756 288.218 102.798C288.242 102.815 288.266 102.831 288.292 102.846C288.388 102.893 288.493 102.918 288.6 102.92C288.688 102.918 288.775 102.901 288.857 102.868C288.885 102.856 288.912 102.843 288.939 102.828C288.97 102.814 289 102.799 289.029 102.782C289.038 102.775 289.045 102.767 289.052 102.758C289.057 102.752 289.062 102.745 289.068 102.739C289.107 102.706 289.143 102.668 289.174 102.627C289.234 102.557 289.276 102.474 289.298 102.385C289.312 102.337 289.322 102.287 289.327 102.237C289.327 102.227 289.33 102.217 289.333 102.207C289.336 102.198 289.339 102.188 289.339 102.178V91.82C289.339 91.4116 289.008 91.0804 288.6 91.08C288.191 91.08 287.86 91.4114 287.86 91.82V99.8712L281.801 91.3901C281.795 91.3808 281.787 91.3742 281.778 91.3675C281.771 91.3624 281.765 91.3573 281.759 91.3509C281.726 91.3116 281.688 91.276 281.647 91.245C281.612 91.217 281.574 91.1923 281.535 91.171C281.493 91.1512 281.45 91.1351 281.406 91.1229C281.358 91.1076 281.308 91.0977 281.258 91.0933C281.248 91.0933 281.239 91.0904 281.23 91.0875L281.23 91.0875C281.22 91.0845 281.211 91.0815 281.2 91.0815C281.175 91.0852 281.151 91.0904 281.126 91.097C281.076 91.1013 281.027 91.1109 280.978 91.1259C280.93 91.1419 280.884 91.1627 280.84 91.1881C280.816 91.1975 280.793 91.208 280.771 91.2199C280.761 91.2262 280.755 91.2347 280.748 91.2432C280.743 91.2497 280.738 91.2563 280.731 91.2621C280.692 91.2955 280.656 91.3332 280.625 91.3745C280.597 91.4092 280.573 91.4463 280.551 91.4855C280.531 91.5275 280.515 91.5714 280.503 91.6165C280.488 91.6647 280.478 91.7143 280.473 91.7645C280.473 91.7749 280.47 91.7845 280.467 91.7941C280.464 91.8037 280.461 91.8134 280.461 91.8237V102.18C280.461 102.589 280.793 102.92 281.201 102.92C281.61 102.92 281.941 102.589 281.941 102.18V94.1288L288 102.61C288.005 102.618 288.012 102.623 288.02 102.628C288.026 102.632 288.032 102.636 288.037 102.642ZM310.955 91.0963L310.957 91.0968C311.357 91.1834 311.61 91.5775 311.524 91.9769L309.304 102.337C309.233 102.663 308.954 102.902 308.621 102.92H308.58C308.261 102.92 307.979 102.716 307.878 102.414L305.62 95.6399L303.358 102.414C303.251 102.728 302.95 102.934 302.618 102.919C302.286 102.9 302.006 102.661 301.936 102.335L299.716 91.9754C299.63 91.5757 299.885 91.1821 300.284 91.0963C300.684 91.0105 301.078 91.2649 301.164 91.6646L302.815 99.3739L304.915 93.0662C304.989 92.8428 305.164 92.6677 305.387 92.5942C305.776 92.4666 306.194 92.678 306.321 93.0662L308.424 99.3739L310.076 91.6646L310.076 91.6642C310.162 91.2647 310.556 91.0104 310.955 91.0963Z" fill="white" style="mix-blend-mode:overlay"/>
</g>
<defs>
<filter id="filter0_d" x="0.804295" y="0.804295" width="314.391" height="194.391" filterUnits="userSpaceOnUse" color-interpolation-filters="sRGB">
<feFlood flood-opacity="0" result="BackgroundImageFix"/>
<feColorMatrix in="SourceAlpha" type="matrix" values="0 0 0 0 0 0 0 0 0 0 0 0 0 0 0 0 0 0 127 0"/>
<feOffset/>
<feGaussianBlur stdDeviation="11.0979"/>
<feColorMatrix type="matrix" values="0 0 0 0 0 0 0 0 0 0 0 0 0 0 0 0 0 0 0.1 0"/>
<feBlend mode="normal" in2="BackgroundImageFix" result="effect1_dropShadow"/>
<feBlend mode="normal" in="SourceGraphic" in2="effect1_dropShadow" result="shape"/>
</filter>
<filter id="filter1_d" x="10.4342" y="10.4344" width="295.131" height="175.131" filterUnits="userSpaceOnUse" color-interpolation-filters="sRGB">
<feFlood flood-opacity="0" result="BackgroundImageFix"/>
<feColorMatrix in="SourceAlpha" type="matrix" values="0 0 0 0 0 0 0 0 0 0 0 0 0 0 0 0 0 0 127 0"/>
<feOffset/>
<feGaussianBlur stdDeviation="11.0979"/>
<feColorMatrix type="matrix" values="0 0 0 0 0 0 0 0 0 0 0 0 0 0 0 0 0 0 0.1 0"/>
<feBlend mode="normal" in2="BackgroundImageFix" result="effect1_dropShadow"/>
<feBlend mode="normal" in="SourceGraphic" in2="effect1_dropShadow" result="shape"/>
</filter>
<linearGradient id="paint0_linear" x1="294.984" y1="133.978" x2="294.984" y2="59.9927" gradientUnits="userSpaceOnUse">
<stop stop-color="#FCCB05"/>
<stop offset="1" stop-color="#FFE57D"/>
</linearGradient>
<linearGradient id="paint1_linear" x1="294.991" y1="134" x2="294.991" y2="60" gradientUnits="userSpaceOnUse">
<stop stop-color="#FCCB05"/>
<stop offset="1" stop-color="#FFE57D"/>
</linearGradient>
<linearGradient id="paint2_linear" x1="294.991" y1="134" x2="294.991" y2="60" gradientUnits="userSpaceOnUse">
<stop stop-color="#FCCB05"/>
<stop offset="1" stop-color="#FFE57D"/>
</linearGradient>
<linearGradient id="paint3_linear" x1="294.991" y1="134" x2="294.991" y2="60" gradientUnits="userSpaceOnUse">
<stop stop-color="#FCCB05"/>
<stop offset="1" stop-color="#FFE57D"/>
</linearGradient>
</defs>
</svg>
