<svg width="449" height="260" viewBox="0 0 449 260" fill="none" xmlns="http://www.w3.org/2000/svg">
<path d="M449 130C449 157.614 426.614 180 399 180C371.386 180 349 157.614 349 130C349 102.386 371.386 80 399 80C426.614 80 449 102.386 449 130Z" fill="url(#paint0_linear)"/>
<mask id="mask0" mask-type="alpha" maskUnits="userSpaceOnUse" x="349" y="80" width="100" height="100">
<circle cx="399" cy="130" r="50" fill="url(#paint1_linear)"/>
</mask>
<g mask="url(#mask0)">
<path fill-rule="evenodd" clip-rule="evenodd" d="M424.12 123.273C424.606 124.223 425.306 125.048 426.166 125.68C427.56 126.936 429 128.24 429 130C429 131.76 427.56 133.064 426.166 134.325C425.306 134.957 424.606 135.781 424.12 136.731C424.053 137.841 424.249 138.951 424.693 139.971L424.693 139.972C425.253 141.725 425.832 143.538 424.983 145.005C424.122 146.494 422.245 146.899 420.43 147.291L420.428 147.291C419.342 147.412 418.299 147.786 417.385 148.385C416.786 149.3 416.411 150.343 416.29 151.43C415.898 153.245 415.49 155.122 414.005 155.983C412.537 156.832 410.728 156.254 408.977 155.695L408.971 155.693C407.951 155.25 406.842 155.054 405.732 155.12C404.782 155.606 403.958 156.306 403.325 157.166C402.064 158.56 400.76 160 399 160C397.24 160 395.936 158.56 394.675 157.166C394.043 156.306 393.219 155.606 392.269 155.12C391.159 155.053 390.049 155.25 389.029 155.693L389.026 155.694C387.272 156.254 385.461 156.831 383.995 155.983C382.506 155.122 382.101 153.245 381.709 151.43L381.709 151.428C381.588 150.342 381.214 149.299 380.615 148.385C379.7 147.786 378.657 147.411 377.57 147.29C375.755 146.898 373.878 146.49 373.017 145.005C372.168 143.538 372.747 141.726 373.306 139.973L373.307 139.971C373.751 138.952 373.947 137.842 373.88 136.732C373.394 135.782 372.694 134.958 371.834 134.325C370.44 133.064 369 131.76 369 130C369 128.24 370.44 126.936 371.834 125.675C372.694 125.043 373.394 124.219 373.88 123.269C373.947 122.159 373.751 121.049 373.307 120.029L373.307 120.028C372.747 118.275 372.168 116.462 373.017 114.995C373.878 113.506 375.755 113.101 377.57 112.709L377.572 112.709C378.658 112.588 379.701 112.214 380.615 111.615C381.216 110.701 381.593 109.657 381.715 108.57C382.107 106.755 382.515 104.878 384 104.017C385.466 103.169 387.275 103.746 389.024 104.304L389.034 104.307C390.054 104.75 391.163 104.946 392.273 104.88C393.223 104.394 394.048 103.694 394.68 102.834C395.936 101.44 397.24 100 399 100C400.76 100 402.064 101.44 403.325 102.834C403.957 103.694 404.781 104.394 405.731 104.88C406.841 104.947 407.951 104.75 408.971 104.307L408.974 104.306C410.728 103.746 412.539 103.169 414.005 104.017C415.494 104.878 415.899 106.755 416.291 108.57L416.291 108.572C416.412 109.658 416.786 110.701 417.385 111.615C418.299 112.216 419.343 112.593 420.43 112.715C422.245 113.107 424.122 113.515 424.983 115C425.832 116.467 425.253 118.279 424.694 120.032L424.693 120.034C424.249 121.053 424.053 122.163 424.12 123.273ZM422.188 136.215C422.74 134.87 423.652 133.703 424.824 132.843L424.826 132.841C425.896 131.873 427 130.872 427 130C427 129.128 425.896 128.127 424.826 127.159L424.824 127.157C423.651 126.297 422.739 125.13 422.188 123.784C421.982 122.302 422.19 120.792 422.788 119.421C423.216 118.082 423.657 116.697 423.252 115.996C422.835 115.276 421.4 114.966 420.012 114.666L420.008 114.665C418.537 114.502 417.14 113.936 415.971 113.029C414.997 112.057 414.661 110.5 414.336 108.994L414.335 108.992L414.335 108.992C414.036 107.602 413.726 106.166 413.003 105.747C412.303 105.347 410.92 105.784 409.579 106.212C408.207 106.809 406.697 107.017 405.215 106.812C403.87 106.26 402.703 105.348 401.843 104.176L401.841 104.174C400.873 103.104 399.872 102 399 102C398.128 102 397.127 103.104 396.159 104.174L396.157 104.176C395.297 105.349 394.13 106.261 392.784 106.812C391.436 107.174 389.902 106.686 388.421 106.212L388.407 106.207C387.072 105.781 385.698 105.341 385 105.748C384.28 106.165 383.97 107.6 383.67 108.988L383.669 108.992C383.506 110.463 382.94 111.86 382.033 113.029C381.061 114.003 379.504 114.339 377.998 114.664L377.998 114.664L377.996 114.665C376.606 114.964 375.17 115.274 374.751 115.997C374.351 116.697 374.788 118.082 375.216 119.421C375.814 120.793 376.022 122.303 375.816 123.785C375.264 125.13 374.352 126.297 373.18 127.157C372.106 128.126 371 129.127 371 130C371 130.872 372.104 131.873 373.174 132.841L373.176 132.843C374.349 133.703 375.261 134.87 375.812 136.216C376.017 137.698 375.81 139.208 375.212 140.579C374.784 141.918 374.343 143.3 374.748 144C375.165 144.72 376.6 145.03 377.988 145.33L377.988 145.33L377.992 145.331C379.463 145.494 380.86 146.06 382.029 146.967C383.003 147.939 383.339 149.496 383.664 151.002L383.664 151.002L383.665 151.004C383.964 152.394 384.274 153.83 384.997 154.249C385.697 154.649 387.079 154.212 388.421 153.784C389.495 153.378 390.625 153.135 391.771 153.062C392.113 153.06 392.454 153.102 392.785 153.188C394.13 153.74 395.297 154.652 396.157 155.824L396.159 155.826C397.127 156.896 398.128 158 399 158C399.872 158 400.873 156.896 401.841 155.826L401.843 155.824C402.703 154.651 403.87 153.739 405.216 153.188C406.698 152.984 408.207 153.191 409.579 153.788L409.581 153.789C410.918 154.215 412.301 154.657 413.004 154.252C413.724 153.835 414.034 152.4 414.334 151.012L414.335 151.008C414.498 149.537 415.064 148.14 415.971 146.971C416.943 145.997 418.5 145.661 420.006 145.336L420.008 145.335L420.008 145.335C421.398 145.036 422.834 144.726 423.253 144.003C423.653 143.303 423.216 141.918 422.788 140.579C422.19 139.207 421.982 137.697 422.188 136.215ZM400 111C400 111.552 399.552 112 399 112C398.448 112 398 111.552 398 111V109C398 108.448 398.448 108 399 108C399.552 108 400 108.448 400 109V111ZM393.116 111.906C393.233 112.343 393.629 112.647 394.081 112.647C394.169 112.647 394.257 112.636 394.342 112.613C394.875 112.47 395.191 111.922 395.049 111.389L394.531 109.457C394.527 109.439 394.522 109.422 394.517 109.405C394.359 108.875 393.803 108.574 393.273 108.731C392.744 108.889 392.442 109.446 392.6 109.975L393.116 111.906ZM389.358 111.301L389.365 111.313L390.365 113.046C390.641 113.524 390.477 114.136 389.999 114.412C389.847 114.499 389.675 114.546 389.5 114.546C389.142 114.546 388.812 114.356 388.633 114.046L387.633 112.313C387.354 111.836 387.514 111.224 387.99 110.944C388.466 110.665 389.079 110.825 389.358 111.301ZM384.858 117.272C385.046 117.46 385.3 117.565 385.565 117.565C385.83 117.565 386.084 117.46 386.272 117.272C386.662 116.882 386.662 116.249 386.272 115.858L384.857 114.443C384.849 114.435 384.841 114.427 384.832 114.418C384.435 114.035 383.802 114.046 383.418 114.443C383.035 114.84 383.046 115.473 383.443 115.857L384.858 117.272ZM383.443 144.143L384.858 142.728C385.255 142.344 385.888 142.355 386.272 142.752C386.646 143.14 386.646 143.754 386.272 144.142L384.857 145.557C384.669 145.744 384.415 145.85 384.15 145.85C383.598 145.85 383.15 145.402 383.15 144.85C383.15 144.585 383.256 144.33 383.443 144.143ZM390.003 145.597C389.527 145.318 388.914 145.477 388.635 145.954L387.635 147.687C387.547 147.839 387.501 148.011 387.501 148.186C387.5 148.738 387.948 149.186 388.5 149.187C388.858 149.187 389.188 148.997 389.367 148.687L390.367 146.954C390.637 146.478 390.475 145.874 390.003 145.597ZM393.116 148.094C393.261 147.561 393.811 147.247 394.344 147.392C394.873 147.537 395.187 148.08 395.048 148.611L394.53 150.543C394.413 150.98 394.017 151.284 393.565 151.284C393.013 151.284 392.565 150.836 392.565 150.284C392.565 150.197 392.576 150.109 392.599 150.025L393.116 148.094ZM399 148C398.448 148 398 148.448 398 149V151C398 151.552 398.448 152 399 152C399.552 152 400 151.552 400 151V149C400 148.448 399.552 148 399 148ZM403.665 147.39C404.196 147.251 404.74 147.565 404.884 148.094L405.401 150.025C405.544 150.558 405.228 151.107 404.694 151.25C404.61 151.272 404.523 151.284 404.435 151.284C403.983 151.284 403.587 150.98 403.47 150.543L402.952 148.611C402.812 148.077 403.131 147.53 403.665 147.39ZM409.365 145.954L409.358 145.942C409.079 145.466 408.466 145.306 407.99 145.586C407.513 145.865 407.354 146.478 407.633 146.954L408.633 148.687C408.812 148.997 409.142 149.187 409.5 149.187C409.675 149.187 409.847 149.141 409.999 149.053C410.477 148.777 410.641 148.165 410.365 147.687L409.365 145.954ZM411.753 142.728C412.14 142.354 412.755 142.354 413.142 142.728L414.557 144.143C414.947 144.534 414.947 145.167 414.557 145.557C414.369 145.745 414.115 145.85 413.85 145.85C413.585 145.85 413.331 145.745 413.143 145.557L411.728 144.142C411.344 143.745 411.355 143.112 411.753 142.728ZM412.435 117.565C412.7 117.565 412.954 117.46 413.142 117.272L414.557 115.857C414.565 115.849 414.573 115.841 414.581 115.833C414.965 115.435 414.954 114.802 414.557 114.419C414.16 114.035 413.527 114.046 413.143 114.443L411.728 115.858C411.541 116.046 411.435 116.3 411.435 116.565C411.435 117.117 411.883 117.565 412.435 117.565ZM409.367 114.046C409.188 114.356 408.858 114.546 408.5 114.546C407.948 114.545 407.5 114.097 407.501 113.545C407.501 113.37 407.547 113.198 407.635 113.046L408.635 111.313C408.908 110.833 409.518 110.665 409.998 110.938C410.479 111.211 410.647 111.821 410.374 112.301L410.367 112.313L409.367 114.046ZM403.659 112.613C403.744 112.636 403.831 112.648 403.919 112.647C404.371 112.647 404.767 112.343 404.884 111.906L405.401 109.975C405.406 109.958 405.411 109.94 405.415 109.923C405.544 109.386 405.213 108.846 404.675 108.718C404.138 108.589 403.599 108.92 403.47 109.457L402.952 111.389C402.81 111.922 403.126 112.47 403.659 112.613ZM395 136H402C402.552 136 403 136.448 403 137C403 137.552 402.552 138 402 138H394C393.448 138 393 137.552 393 137V123C393 122.448 393.448 122 394 122H402C402.552 122 403 122.448 403 123C403 123.552 402.552 124 402 124H395V129H400C400.552 129 401 129.448 401 130C401 130.552 400.552 131 400 131H395V136ZM388.239 137.624C388.308 137.707 388.391 137.779 388.484 137.835C388.516 137.859 388.549 137.88 388.584 137.9C388.714 137.964 388.856 137.998 389 138C389.119 137.998 389.237 137.974 389.348 137.93C389.386 137.914 389.422 137.895 389.458 137.875C389.5 137.857 389.541 137.836 389.58 137.813C389.592 137.804 389.601 137.793 389.61 137.781C389.617 137.773 389.624 137.764 389.633 137.756C389.686 137.711 389.734 137.66 389.776 137.604C389.857 137.51 389.914 137.398 389.943 137.277C389.963 137.212 389.976 137.145 389.983 137.077C389.983 137.063 389.987 137.05 389.991 137.037C389.995 137.024 389.999 137.011 389.999 136.997V123C389.999 122.448 389.552 122 389 122C388.448 122 388 122.448 388 123V133.88L379.813 122.419C379.804 122.406 379.793 122.398 379.781 122.388L379.781 122.388C379.773 122.382 379.764 122.375 379.756 122.366C379.711 122.313 379.66 122.265 379.604 122.223C379.557 122.185 379.506 122.152 379.453 122.123C379.397 122.096 379.339 122.074 379.279 122.058C379.214 122.037 379.147 122.024 379.079 122.018C379.066 122.018 379.053 122.014 379.041 122.01C379.028 122.006 379.015 122.002 379.001 122.002C378.967 122.007 378.934 122.014 378.901 122.023C378.833 122.029 378.766 122.042 378.701 122.062C378.636 122.084 378.573 122.112 378.514 122.146C378.482 122.159 378.451 122.173 378.42 122.189C378.407 122.198 378.398 122.209 378.389 122.221C378.382 122.229 378.376 122.238 378.367 122.246C378.314 122.291 378.266 122.342 378.224 122.398C378.186 122.445 378.153 122.495 378.124 122.548C378.096 122.605 378.074 122.664 378.058 122.725C378.038 122.79 378.025 122.857 378.018 122.925C378.018 122.939 378.014 122.952 378.01 122.965C378.006 122.978 378.002 122.991 378.002 123.005V137C378.002 137.552 378.45 138 379.002 138C379.554 138 380.002 137.552 380.002 137V126.12L388.189 137.581C388.196 137.591 388.206 137.598 388.216 137.605C388.224 137.611 388.232 137.616 388.239 137.624ZM419.21 122.022L419.213 122.023C419.753 122.14 420.095 122.672 419.978 123.212L416.978 137.212C416.883 137.652 416.506 137.975 416.056 138H416C415.57 138 415.188 137.724 415.052 137.316L412 128.162L408.944 137.316C408.8 137.74 408.392 138.018 407.944 137.998C407.494 137.973 407.117 137.65 407.022 137.21L404.022 123.21C403.906 122.67 404.25 122.138 404.79 122.022C405.33 121.906 405.862 122.25 405.978 122.79L408.21 133.208L411.048 124.684C411.147 124.382 411.384 124.145 411.686 124.046C412.21 123.874 412.776 124.159 412.948 124.684L415.79 133.208L418.022 122.79L418.022 122.789C418.138 122.249 418.67 121.906 419.21 122.022Z" fill="white" style="mix-blend-mode:overlay"/>
</g>
<g filter="url(#filter0_d)">
<path fill-rule="evenodd" clip-rule="evenodd" d="M40 30C34.4772 30 30 34.4772 30 40V220C30 225.523 34.4771 230 40 230H390C395.523 230 400 225.523 400 220V189.997C399.8 189.999 399.6 190 399.4 190C364.369 190 335.971 163.137 335.971 130C335.971 96.8629 364.369 70 399.4 70C399.6 70 399.8 70.0009 400 70.0026V40C400 34.4772 395.523 30 390 30H40Z" fill="white"/>
</g>
<g filter="url(#filter1_d)">
<path d="M390 199.888H390.5V199.415L390.028 199.388L390 199.888ZM390 60.1124L390.028 60.6116L390.5 60.585V60.1124H390ZM39.5 53.6364C39.5 53.9125 39.7239 54.1364 40 54.1364C40.2761 54.1364 40.5 53.9125 40.5 53.6364H39.5ZM40.5 60.9091C40.5 60.633 40.2761 60.4091 40 60.4091C39.7239 60.4091 39.5 60.633 39.5 60.9091H40.5ZM39.5 68.1818C39.5 68.458 39.7239 68.6818 40 68.6818C40.2761 68.6818 40.5 68.458 40.5 68.1818H39.5ZM40.5 75.4545C40.5 75.1784 40.2761 74.9545 40 74.9545C39.7239 74.9545 39.5 75.1784 39.5 75.4545H40.5ZM39.5 82.7273C39.5 83.0034 39.7239 83.2273 40 83.2273C40.2761 83.2273 40.5 83.0034 40.5 82.7273H39.5ZM40.5 90C40.5 89.7239 40.2761 89.5 40 89.5C39.7239 89.5 39.5 89.7239 39.5 90H40.5ZM39.5 97.2727C39.5 97.5489 39.7239 97.7727 40 97.7727C40.2761 97.7727 40.5 97.5489 40.5 97.2727H39.5ZM40.5 104.545C40.5 104.269 40.2761 104.045 40 104.045C39.7239 104.045 39.5 104.269 39.5 104.545H40.5ZM39.5 111.818C39.5 112.094 39.7239 112.318 40 112.318C40.2761 112.318 40.5 112.094 40.5 111.818H39.5ZM40.5 119.091C40.5 118.815 40.2761 118.591 40 118.591C39.7239 118.591 39.5 118.815 39.5 119.091H40.5ZM39.5 126.364C39.5 126.64 39.7239 126.864 40 126.864C40.2761 126.864 40.5 126.64 40.5 126.364H39.5ZM40.5 133.636C40.5 133.36 40.2761 133.136 40 133.136C39.7239 133.136 39.5 133.36 39.5 133.636H40.5ZM39.5 140.909C39.5 141.185 39.7239 141.409 40 141.409C40.2761 141.409 40.5 141.185 40.5 140.909H39.5ZM40.5 148.182C40.5 147.906 40.2761 147.682 40 147.682C39.7239 147.682 39.5 147.906 39.5 148.182H40.5ZM39.5 155.455C39.5 155.731 39.7239 155.955 40 155.955C40.2761 155.955 40.5 155.731 40.5 155.455H39.5ZM40.5 162.727C40.5 162.451 40.2761 162.227 40 162.227C39.7239 162.227 39.5 162.451 39.5 162.727H40.5ZM39.5 170C39.5 170.276 39.7239 170.5 40 170.5C40.2761 170.5 40.5 170.276 40.5 170H39.5ZM40.5 177.273C40.5 176.997 40.2761 176.773 40 176.773C39.7239 176.773 39.5 176.997 39.5 177.273H40.5ZM39.5 184.545C39.5 184.822 39.7239 185.045 40 185.045C40.2761 185.045 40.5 184.822 40.5 184.545H39.5ZM40.5 191.818C40.5 191.542 40.2761 191.318 40 191.318C39.7239 191.318 39.5 191.542 39.5 191.818H40.5ZM39.5 199.091C39.5 199.367 39.7239 199.591 40 199.591C40.2761 199.591 40.5 199.367 40.5 199.091H39.5ZM40.5 206.364C40.5 206.087 40.2761 205.864 40 205.864C39.7239 205.864 39.5 206.087 39.5 206.364H40.5ZM40.2969 214.019C40.4027 214.274 40.6953 214.396 40.9503 214.29C41.2054 214.184 41.3264 213.891 41.2207 213.636L40.2969 214.019ZM46.3636 218.779C46.1086 218.674 45.816 218.795 45.7103 219.05C45.6045 219.305 45.7255 219.597 45.9806 219.703L46.3636 218.779ZM53.4375 220.5C53.7136 220.5 53.9375 220.276 53.9375 220C53.9375 219.724 53.7136 219.5 53.4375 219.5V220.5ZM60.3125 219.5C60.0364 219.5 59.8125 219.724 59.8125 220C59.8125 220.276 60.0364 220.5 60.3125 220.5V219.5ZM67.1875 220.5C67.4636 220.5 67.6875 220.276 67.6875 220C67.6875 219.724 67.4636 219.5 67.1875 219.5V220.5ZM74.0625 219.5C73.7864 219.5 73.5625 219.724 73.5625 220C73.5625 220.276 73.7864 220.5 74.0625 220.5V219.5ZM80.9375 220.5C81.2136 220.5 81.4375 220.276 81.4375 220C81.4375 219.724 81.2136 219.5 80.9375 219.5V220.5ZM87.8125 219.5C87.5364 219.5 87.3125 219.724 87.3125 220C87.3125 220.276 87.5364 220.5 87.8125 220.5V219.5ZM94.6875 220.5C94.9636 220.5 95.1875 220.276 95.1875 220C95.1875 219.724 94.9636 219.5 94.6875 219.5V220.5ZM101.562 219.5C101.286 219.5 101.062 219.724 101.062 220C101.062 220.276 101.286 220.5 101.562 220.5V219.5ZM108.438 220.5C108.714 220.5 108.938 220.276 108.938 220C108.938 219.724 108.714 219.5 108.438 219.5V220.5ZM115.312 219.5C115.036 219.5 114.812 219.724 114.812 220C114.812 220.276 115.036 220.5 115.312 220.5V219.5ZM122.188 220.5C122.464 220.5 122.688 220.276 122.688 220C122.688 219.724 122.464 219.5 122.188 219.5V220.5ZM129.062 219.5C128.786 219.5 128.562 219.724 128.562 220C128.562 220.276 128.786 220.5 129.062 220.5V219.5ZM135.937 220.5C136.214 220.5 136.437 220.276 136.437 220C136.437 219.724 136.214 219.5 135.937 219.5V220.5ZM142.812 219.5C142.536 219.5 142.312 219.724 142.312 220C142.312 220.276 142.536 220.5 142.812 220.5V219.5ZM149.688 220.5C149.964 220.5 150.188 220.276 150.188 220C150.188 219.724 149.964 219.5 149.688 219.5V220.5ZM156.562 219.5C156.286 219.5 156.062 219.724 156.062 220C156.062 220.276 156.286 220.5 156.562 220.5V219.5ZM163.438 220.5C163.714 220.5 163.938 220.276 163.938 220C163.938 219.724 163.714 219.5 163.438 219.5V220.5ZM170.312 219.5C170.036 219.5 169.812 219.724 169.812 220C169.812 220.276 170.036 220.5 170.312 220.5V219.5ZM177.188 220.5C177.464 220.5 177.688 220.276 177.688 220C177.688 219.724 177.464 219.5 177.188 219.5V220.5ZM184.062 219.5C183.786 219.5 183.562 219.724 183.562 220C183.562 220.276 183.786 220.5 184.062 220.5V219.5ZM190.938 220.5C191.214 220.5 191.438 220.276 191.438 220C191.438 219.724 191.214 219.5 190.938 219.5V220.5ZM197.812 219.5C197.536 219.5 197.312 219.724 197.312 220C197.312 220.276 197.536 220.5 197.812 220.5V219.5ZM204.688 220.5C204.964 220.5 205.188 220.276 205.188 220C205.188 219.724 204.964 219.5 204.688 219.5V220.5ZM211.562 219.5C211.286 219.5 211.062 219.724 211.062 220C211.062 220.276 211.286 220.5 211.562 220.5V219.5ZM218.438 220.5C218.714 220.5 218.938 220.276 218.938 220C218.938 219.724 218.714 219.5 218.438 219.5V220.5ZM225.312 219.5C225.036 219.5 224.812 219.724 224.812 220C224.812 220.276 225.036 220.5 225.312 220.5V219.5ZM232.188 220.5C232.464 220.5 232.688 220.276 232.688 220C232.688 219.724 232.464 219.5 232.188 219.5V220.5ZM239.062 219.5C238.786 219.5 238.562 219.724 238.562 220C238.562 220.276 238.786 220.5 239.062 220.5V219.5ZM245.938 220.5C246.214 220.5 246.438 220.276 246.438 220C246.438 219.724 246.214 219.5 245.938 219.5V220.5ZM252.812 219.5C252.536 219.5 252.312 219.724 252.312 220C252.312 220.276 252.536 220.5 252.812 220.5V219.5ZM259.688 220.5C259.964 220.5 260.188 220.276 260.188 220C260.188 219.724 259.964 219.5 259.688 219.5V220.5ZM266.562 219.5C266.286 219.5 266.062 219.724 266.062 220C266.062 220.276 266.286 220.5 266.562 220.5V219.5ZM273.438 220.5C273.714 220.5 273.938 220.276 273.938 220C273.938 219.724 273.714 219.5 273.438 219.5V220.5ZM280.312 219.5C280.036 219.5 279.812 219.724 279.812 220C279.812 220.276 280.036 220.5 280.312 220.5V219.5ZM287.188 220.5C287.464 220.5 287.688 220.276 287.688 220C287.688 219.724 287.464 219.5 287.188 219.5V220.5ZM294.062 219.5C293.786 219.5 293.562 219.724 293.562 220C293.562 220.276 293.786 220.5 294.062 220.5V219.5ZM300.938 220.5C301.214 220.5 301.438 220.276 301.438 220C301.438 219.724 301.214 219.5 300.938 219.5V220.5ZM307.812 219.5C307.536 219.5 307.312 219.724 307.312 220C307.312 220.276 307.536 220.5 307.812 220.5V219.5ZM314.688 220.5C314.964 220.5 315.188 220.276 315.188 220C315.188 219.724 314.964 219.5 314.688 219.5V220.5ZM321.562 219.5C321.286 219.5 321.062 219.724 321.062 220C321.062 220.276 321.286 220.5 321.562 220.5V219.5ZM328.438 220.5C328.714 220.5 328.938 220.276 328.938 220C328.938 219.724 328.714 219.5 328.438 219.5V220.5ZM335.312 219.5C335.036 219.5 334.812 219.724 334.812 220C334.812 220.276 335.036 220.5 335.312 220.5V219.5ZM342.188 220.5C342.464 220.5 342.688 220.276 342.688 220C342.688 219.724 342.464 219.5 342.188 219.5V220.5ZM349.062 219.5C348.786 219.5 348.562 219.724 348.562 220C348.562 220.276 348.786 220.5 349.062 220.5V219.5ZM355.938 220.5C356.214 220.5 356.438 220.276 356.438 220C356.438 219.724 356.214 219.5 355.938 219.5V220.5ZM362.812 219.5C362.536 219.5 362.312 219.724 362.312 220C362.312 220.276 362.536 220.5 362.812 220.5V219.5ZM369.688 220.5C369.964 220.5 370.188 220.276 370.188 220C370.188 219.724 369.964 219.5 369.688 219.5V220.5ZM376.562 219.5C376.286 219.5 376.062 219.724 376.062 220C376.062 220.276 376.286 220.5 376.562 220.5V219.5ZM384.019 219.703C384.274 219.597 384.396 219.305 384.29 219.05C384.184 218.795 383.891 218.674 383.636 218.779L384.019 219.703ZM388.779 213.636C388.674 213.891 388.795 214.184 389.05 214.29C389.305 214.396 389.597 214.274 389.703 214.019L388.779 213.636ZM390.5 207.472C390.5 207.196 390.276 206.972 390 206.972C389.724 206.972 389.5 207.196 389.5 207.472H390.5ZM389.5 202.416C389.5 202.692 389.724 202.916 390 202.916C390.276 202.916 390.5 202.692 390.5 202.416H389.5ZM386.75 199.126C386.476 199.098 386.23 199.298 386.201 199.572C386.173 199.847 386.372 200.093 386.647 200.121L386.75 199.126ZM380.054 199.121C380.325 199.175 380.589 199 380.643 198.729C380.697 198.458 380.522 198.195 380.251 198.14L380.054 199.121ZM373.875 196.542C373.611 196.462 373.332 196.612 373.252 196.876C373.172 197.14 373.322 197.419 373.586 197.499L373.875 196.542ZM367.302 195.269C367.558 195.374 367.85 195.252 367.954 194.996C368.059 194.74 367.937 194.448 367.681 194.344L367.302 195.269ZM361.724 191.567C361.479 191.438 361.177 191.532 361.049 191.777C360.92 192.021 361.014 192.324 361.259 192.452L361.724 191.567ZM355.509 189.075C355.741 189.226 356.051 189.161 356.202 188.93C356.352 188.699 356.287 188.389 356.056 188.238L355.509 189.075ZM350.728 184.389C350.512 184.217 350.197 184.252 350.025 184.468C349.853 184.684 349.889 184.999 350.105 185.171L350.728 184.389ZM345.091 180.776C345.29 180.967 345.606 180.961 345.798 180.762C345.989 180.564 345.984 180.247 345.785 180.055L345.091 180.776ZM341.27 175.277C341.09 175.068 340.775 175.044 340.565 175.224C340.356 175.404 340.332 175.719 340.512 175.929L341.27 175.277ZM336.409 170.673C336.568 170.899 336.88 170.952 337.106 170.793C337.331 170.633 337.385 170.321 337.225 170.096L336.409 170.673ZM333.686 164.557C333.549 164.317 333.243 164.235 333.004 164.372C332.764 164.51 332.682 164.815 332.819 165.055L333.686 164.557ZM329.777 159.121C329.891 159.373 330.187 159.484 330.439 159.37C330.69 159.256 330.802 158.959 330.687 158.708L329.777 159.121ZM328.257 152.601C328.168 152.34 327.883 152.201 327.622 152.291C327.361 152.38 327.222 152.665 327.312 152.926L328.257 152.601ZM325.447 146.524C325.512 146.793 325.782 146.958 326.05 146.894C326.319 146.829 326.484 146.559 326.42 146.291L325.447 146.524ZM325.19 139.834C325.152 139.56 324.898 139.37 324.625 139.409C324.352 139.447 324.161 139.7 324.2 139.974L325.19 139.834ZM323.577 133.334C323.59 133.61 323.824 133.824 324.1 133.811C324.376 133.798 324.589 133.564 324.576 133.288L323.577 133.334ZM324.576 126.712C324.589 126.436 324.376 126.202 324.1 126.189C323.824 126.176 323.59 126.39 323.577 126.666L324.576 126.712ZM324.2 120.026C324.161 120.3 324.352 120.553 324.625 120.591C324.898 120.63 325.152 120.44 325.19 120.166L324.2 120.026ZM326.42 113.709C326.484 113.441 326.319 113.171 326.05 113.106C325.782 113.042 325.512 113.207 325.447 113.476L326.42 113.709ZM327.312 107.074C327.222 107.335 327.361 107.62 327.622 107.709C327.883 107.799 328.168 107.66 328.257 107.399L327.312 107.074ZM330.687 101.292C330.802 101.041 330.69 100.744 330.439 100.63C330.187 100.516 329.891 100.627 329.777 100.879L330.687 101.292ZM332.819 94.9454C332.682 95.1848 332.764 95.4904 333.004 95.6279C333.243 95.7654 333.549 95.6828 333.686 95.4433L332.819 94.9454ZM337.225 89.9042C337.385 89.6788 337.331 89.3667 337.106 89.2072C336.88 89.0478 336.568 89.1012 336.409 89.3266L337.225 89.9042ZM340.512 84.0712C340.332 84.2806 340.356 84.5963 340.565 84.7762C340.775 84.9562 341.09 84.9324 341.27 84.723L340.512 84.0712ZM345.785 79.9446C345.984 79.753 345.989 79.4365 345.798 79.2376C345.606 79.0388 345.29 79.0329 345.091 79.2245L345.785 79.9446ZM350.105 74.8292C349.889 75.0012 349.853 75.3158 350.025 75.5318C350.197 75.7478 350.512 75.7834 350.728 75.6113L350.105 74.8292ZM356.056 71.7622C356.287 71.6112 356.352 71.3014 356.202 71.0702C356.051 70.839 355.741 70.7739 355.509 70.9248L356.056 71.7622ZM361.259 67.5479C361.014 67.6763 360.92 67.9786 361.049 68.2231C361.177 68.4675 361.479 68.5616 361.724 68.4332L361.259 67.5479ZM367.681 65.6562C367.937 65.5515 368.059 65.2595 367.954 65.004C367.85 64.7484 367.558 64.6261 367.302 64.7307L367.681 65.6562ZM373.586 62.5008C373.322 62.5807 373.172 62.8597 373.252 63.124C373.332 63.3884 373.611 63.538 373.875 63.4581L373.586 62.5008ZM380.251 61.8597C380.522 61.8054 380.697 61.5418 380.643 61.2711C380.589 61.0003 380.325 60.8249 380.054 60.8792L380.251 61.8597ZM386.647 59.8789C386.372 59.9073 386.173 60.1531 386.201 60.4277C386.23 60.7024 386.476 60.902 386.75 60.8735L386.647 59.8789ZM390.5 57.5843C390.5 57.3081 390.276 57.0843 390 57.0843C389.724 57.0843 389.5 57.3081 389.5 57.5843H390.5ZM389.5 52.5281C389.5 52.8042 389.724 53.0281 390 53.0281C390.276 53.0281 390.5 52.8042 390.5 52.5281H389.5ZM389.703 45.9806C389.597 45.7255 389.305 45.6045 389.05 45.7103C388.795 45.816 388.674 46.1086 388.779 46.3636L389.703 45.9806ZM383.636 41.2207C383.891 41.3264 384.184 41.2054 384.29 40.9503C384.396 40.6953 384.274 40.4027 384.019 40.2969L383.636 41.2207ZM376.562 39.5C376.286 39.5 376.062 39.7239 376.062 40C376.062 40.2761 376.286 40.5 376.562 40.5V39.5ZM369.688 40.5C369.964 40.5 370.188 40.2761 370.188 40C370.188 39.7239 369.964 39.5 369.688 39.5V40.5ZM362.812 39.5C362.536 39.5 362.312 39.7239 362.312 40C362.312 40.2761 362.536 40.5 362.812 40.5V39.5ZM355.938 40.5C356.214 40.5 356.438 40.2761 356.438 40C356.438 39.7239 356.214 39.5 355.938 39.5V40.5ZM349.062 39.5C348.786 39.5 348.562 39.7239 348.562 40C348.562 40.2761 348.786 40.5 349.062 40.5V39.5ZM342.188 40.5C342.464 40.5 342.688 40.2761 342.688 40C342.688 39.7239 342.464 39.5 342.188 39.5V40.5ZM335.312 39.5C335.036 39.5 334.812 39.7239 334.812 40C334.812 40.2761 335.036 40.5 335.312 40.5V39.5ZM328.438 40.5C328.714 40.5 328.938 40.2761 328.938 40C328.938 39.7239 328.714 39.5 328.438 39.5V40.5ZM321.562 39.5C321.286 39.5 321.062 39.7239 321.062 40C321.062 40.2761 321.286 40.5 321.562 40.5V39.5ZM314.688 40.5C314.964 40.5 315.188 40.2761 315.188 40C315.188 39.7239 314.964 39.5 314.688 39.5V40.5ZM307.812 39.5C307.536 39.5 307.312 39.7239 307.312 40C307.312 40.2761 307.536 40.5 307.812 40.5V39.5ZM300.938 40.5C301.214 40.5 301.438 40.2761 301.438 40C301.438 39.7239 301.214 39.5 300.938 39.5V40.5ZM294.062 39.5C293.786 39.5 293.562 39.7239 293.562 40C293.562 40.2761 293.786 40.5 294.062 40.5V39.5ZM287.188 40.5C287.464 40.5 287.688 40.2761 287.688 40C287.688 39.7239 287.464 39.5 287.188 39.5V40.5ZM280.312 39.5C280.036 39.5 279.812 39.7239 279.812 40C279.812 40.2761 280.036 40.5 280.312 40.5V39.5ZM273.438 40.5C273.714 40.5 273.938 40.2761 273.938 40C273.938 39.7239 273.714 39.5 273.438 39.5V40.5ZM266.562 39.5C266.286 39.5 266.062 39.7239 266.062 40C266.062 40.2761 266.286 40.5 266.562 40.5V39.5ZM259.688 40.5C259.964 40.5 260.188 40.2761 260.188 40C260.188 39.7239 259.964 39.5 259.688 39.5V40.5ZM252.812 39.5C252.536 39.5 252.312 39.7239 252.312 40C252.312 40.2761 252.536 40.5 252.812 40.5V39.5ZM245.938 40.5C246.214 40.5 246.438 40.2761 246.438 40C246.438 39.7239 246.214 39.5 245.938 39.5V40.5ZM239.062 39.5C238.786 39.5 238.562 39.7239 238.562 40C238.562 40.2761 238.786 40.5 239.062 40.5V39.5ZM232.188 40.5C232.464 40.5 232.688 40.2761 232.688 40C232.688 39.7239 232.464 39.5 232.188 39.5V40.5ZM225.312 39.5C225.036 39.5 224.812 39.7239 224.812 40C224.812 40.2761 225.036 40.5 225.312 40.5V39.5ZM218.438 40.5C218.714 40.5 218.938 40.2761 218.938 40C218.938 39.7239 218.714 39.5 218.438 39.5V40.5ZM211.562 39.5C211.286 39.5 211.062 39.7239 211.062 40C211.062 40.2761 211.286 40.5 211.562 40.5V39.5ZM204.688 40.5C204.964 40.5 205.188 40.2761 205.188 40C205.188 39.7239 204.964 39.5 204.688 39.5V40.5ZM197.812 39.5C197.536 39.5 197.312 39.7239 197.312 40C197.312 40.2761 197.536 40.5 197.812 40.5V39.5ZM190.938 40.5C191.214 40.5 191.438 40.2761 191.438 40C191.438 39.7239 191.214 39.5 190.938 39.5V40.5ZM184.062 39.5C183.786 39.5 183.562 39.7239 183.562 40C183.562 40.2761 183.786 40.5 184.062 40.5V39.5ZM177.188 40.5C177.464 40.5 177.688 40.2761 177.688 40C177.688 39.7239 177.464 39.5 177.188 39.5V40.5ZM170.312 39.5C170.036 39.5 169.812 39.7239 169.812 40C169.812 40.2761 170.036 40.5 170.312 40.5V39.5ZM163.438 40.5C163.714 40.5 163.938 40.2761 163.938 40C163.938 39.7239 163.714 39.5 163.438 39.5V40.5ZM156.563 39.5C156.286 39.5 156.063 39.7239 156.063 40C156.063 40.2761 156.286 40.5 156.563 40.5V39.5ZM149.687 40.5C149.964 40.5 150.187 40.2761 150.187 40C150.187 39.7239 149.964 39.5 149.687 39.5V40.5ZM142.812 39.5C142.536 39.5 142.312 39.7239 142.312 40C142.312 40.2761 142.536 40.5 142.812 40.5V39.5ZM135.938 40.5C136.214 40.5 136.438 40.2761 136.438 40C136.438 39.7239 136.214 39.5 135.938 39.5V40.5ZM129.062 39.5C128.786 39.5 128.562 39.7239 128.562 40C128.562 40.2761 128.786 40.5 129.062 40.5V39.5ZM122.188 40.5C122.464 40.5 122.688 40.2761 122.688 40C122.688 39.7239 122.464 39.5 122.188 39.5V40.5ZM115.313 39.5C115.036 39.5 114.813 39.7239 114.813 40C114.813 40.2761 115.036 40.5 115.313 40.5V39.5ZM108.437 40.5C108.714 40.5 108.937 40.2761 108.937 40C108.937 39.7239 108.714 39.5 108.437 39.5V40.5ZM101.562 39.5C101.286 39.5 101.062 39.7239 101.062 40C101.062 40.2761 101.286 40.5 101.562 40.5V39.5ZM94.6875 40.5C94.9636 40.5 95.1875 40.2761 95.1875 40C95.1875 39.7239 94.9636 39.5 94.6875 39.5V40.5ZM87.8125 39.5C87.5364 39.5 87.3125 39.7239 87.3125 40C87.3125 40.2761 87.5364 40.5 87.8125 40.5V39.5ZM80.9375 40.5C81.2136 40.5 81.4375 40.2761 81.4375 40C81.4375 39.7239 81.2136 39.5 80.9375 39.5V40.5ZM74.0625 39.5C73.7864 39.5 73.5625 39.7239 73.5625 40C73.5625 40.2761 73.7864 40.5 74.0625 40.5V39.5ZM67.1875 40.5C67.4636 40.5 67.6875 40.2761 67.6875 40C67.6875 39.7239 67.4636 39.5 67.1875 39.5V40.5ZM60.3125 39.5C60.0364 39.5 59.8125 39.7239 59.8125 40C59.8125 40.2761 60.0364 40.5 60.3125 40.5V39.5ZM53.4375 40.5C53.7136 40.5 53.9375 40.2761 53.9375 40C53.9375 39.7239 53.7136 39.5 53.4375 39.5V40.5ZM45.9806 40.2969C45.7255 40.4027 45.6045 40.6953 45.7103 40.9503C45.816 41.2054 46.1086 41.3264 46.3636 41.2207L45.9806 40.2969ZM41.2207 46.3637C41.3264 46.1086 41.2054 45.816 40.9503 45.7103C40.6953 45.6045 40.4027 45.7255 40.2969 45.9806L41.2207 46.3637ZM39.5 50V53.6364H40.5V50H39.5ZM39.5 60.9091V68.1818H40.5V60.9091H39.5ZM39.5 75.4545V82.7273H40.5V75.4545H39.5ZM39.5 90V97.2727H40.5V90H39.5ZM39.5 104.545V111.818H40.5V104.545H39.5ZM39.5 119.091V126.364H40.5V119.091H39.5ZM39.5 133.636V140.909H40.5V133.636H39.5ZM39.5 148.182V155.455H40.5V148.182H39.5ZM39.5 162.727V170H40.5V162.727H39.5ZM39.5 177.273V184.545H40.5V177.273H39.5ZM39.5 191.818V199.091H40.5V191.818H39.5ZM39.5 206.364V210H40.5V206.364H39.5ZM39.5 210C39.5 211.423 39.7833 212.781 40.2969 214.019L41.2207 213.636C40.7565 212.517 40.5 211.289 40.5 210H39.5ZM45.9806 219.703C47.2193 220.217 48.5772 220.5 50 220.5V219.5C48.711 219.5 47.4831 219.244 46.3636 218.779L45.9806 219.703ZM50 220.5H53.4375V219.5H50V220.5ZM60.3125 220.5H67.1875V219.5H60.3125V220.5ZM74.0625 220.5H80.9375V219.5H74.0625V220.5ZM87.8125 220.5H94.6875V219.5H87.8125V220.5ZM101.562 220.5H108.438V219.5H101.562V220.5ZM115.312 220.5H122.188V219.5H115.312V220.5ZM129.062 220.5H135.937V219.5H129.062V220.5ZM142.812 220.5H149.688V219.5H142.812V220.5ZM156.562 220.5H163.438V219.5H156.562V220.5ZM170.312 220.5H177.188V219.5H170.312V220.5ZM184.062 220.5H190.938V219.5H184.062V220.5ZM197.812 220.5H204.688V219.5H197.812V220.5ZM211.562 220.5H218.438V219.5H211.562V220.5ZM225.312 220.5H232.188V219.5H225.312V220.5ZM239.062 220.5H245.938V219.5H239.062V220.5ZM252.812 220.5H259.688V219.5H252.812V220.5ZM266.562 220.5H273.438V219.5H266.562V220.5ZM280.312 220.5H287.188V219.5H280.312V220.5ZM294.062 220.5H300.938V219.5H294.062V220.5ZM307.812 220.5H314.688V219.5H307.812V220.5ZM321.562 220.5H328.438V219.5H321.562V220.5ZM335.312 220.5H342.188V219.5H335.312V220.5ZM349.062 220.5H355.938V219.5H349.062V220.5ZM362.812 220.5H369.688V219.5H362.812V220.5ZM376.562 220.5H380V219.5H376.562V220.5ZM380 220.5C381.423 220.5 382.781 220.217 384.019 219.703L383.636 218.779C382.517 219.244 381.289 219.5 380 219.5V220.5ZM389.703 214.019C390.217 212.781 390.5 211.423 390.5 210H389.5C389.5 211.289 389.244 212.517 388.779 213.636L389.703 214.019ZM390.5 210V207.472H389.5V210H390.5ZM390.5 202.416V199.888H389.5V202.416H390.5ZM390.028 199.388C388.928 199.326 387.836 199.239 386.75 199.126L386.647 200.121C387.748 200.235 388.857 200.324 389.972 200.387L390.028 199.388ZM380.251 198.14C378.088 197.706 375.961 197.172 373.875 196.542L373.586 197.499C375.702 198.138 377.86 198.68 380.054 199.121L380.251 198.14ZM367.681 194.344C365.645 193.51 363.658 192.583 361.724 191.567L361.259 192.452C363.221 193.483 365.237 194.424 367.302 195.269L367.681 194.344ZM356.056 188.238C354.218 187.038 352.44 185.753 350.728 184.389L350.105 185.171C351.841 186.554 353.645 187.858 355.509 189.075L356.056 188.238ZM345.785 180.055C344.206 178.535 342.7 176.94 341.27 175.277L340.512 175.929C341.962 177.616 343.49 179.233 345.091 180.776L345.785 180.055ZM337.225 170.096C335.962 168.31 334.78 166.462 333.686 164.557L332.819 165.055C333.929 166.987 335.127 168.862 336.409 170.673L337.225 170.096ZM330.687 158.708C329.785 156.721 328.973 154.683 328.257 152.601L327.312 152.926C328.038 155.038 328.861 157.105 329.777 159.121L330.687 158.708ZM326.42 146.291C325.911 144.174 325.5 142.02 325.19 139.834L324.2 139.974C324.514 142.192 324.932 144.377 325.447 146.524L326.42 146.291ZM324.576 133.288C324.526 132.198 324.5 131.102 324.5 130H323.5C323.5 131.118 323.526 132.229 323.577 133.334L324.576 133.288ZM324.5 130C324.5 128.898 324.526 127.802 324.576 126.712L323.577 126.666C323.526 127.771 323.5 128.882 323.5 130H324.5ZM325.19 120.166C325.5 117.98 325.911 115.826 326.42 113.709L325.447 113.476C324.932 115.623 324.514 117.808 324.2 120.026L325.19 120.166ZM328.257 107.399C328.973 105.317 329.785 103.279 330.687 101.292L329.777 100.879C328.861 102.895 328.038 104.962 327.312 107.074L328.257 107.399ZM333.686 95.4433C334.78 93.5384 335.962 91.6902 337.225 89.9042L336.409 89.3266C335.127 91.1382 333.929 93.013 332.819 94.9454L333.686 95.4433ZM341.27 84.723C342.7 83.0599 344.206 81.4653 345.785 79.9446L345.091 79.2245C343.49 80.7669 341.962 82.3844 340.512 84.0712L341.27 84.723ZM350.728 75.6113C352.44 74.2472 354.218 72.9624 356.056 71.7622L355.509 70.9248C353.645 72.1423 351.841 73.4456 350.105 74.8292L350.728 75.6113ZM361.724 68.4332C363.658 67.4172 365.645 66.4898 367.681 65.6562L367.302 64.7307C365.237 65.5764 363.221 66.5173 361.259 67.5479L361.724 68.4332ZM373.875 63.4581C375.961 62.8283 378.088 62.2938 380.251 61.8597L380.054 60.8792C377.86 61.3196 375.702 61.8618 373.586 62.5008L373.875 63.4581ZM386.75 60.8735C387.836 60.761 388.928 60.6735 390.028 60.6116L389.972 59.6132C388.857 59.676 387.748 59.7648 386.647 59.8789L386.75 60.8735ZM390.5 60.1124V57.5843H389.5V60.1124H390.5ZM390.5 52.5281V50H389.5V52.5281H390.5ZM390.5 50C390.5 48.5772 390.217 47.2193 389.703 45.9806L388.779 46.3636C389.244 47.4831 389.5 48.711 389.5 50H390.5ZM384.019 40.2969C382.781 39.7833 381.423 39.5 380 39.5V40.5C381.289 40.5 382.517 40.7565 383.636 41.2207L384.019 40.2969ZM380 39.5H376.562V40.5H380V39.5ZM369.688 39.5H362.812V40.5H369.688V39.5ZM355.938 39.5H349.062V40.5H355.938V39.5ZM342.188 39.5H335.312V40.5H342.188V39.5ZM328.438 39.5H321.562V40.5H328.438V39.5ZM314.688 39.5H307.812V40.5H314.688V39.5ZM300.938 39.5H294.062V40.5H300.938V39.5ZM287.188 39.5H280.312V40.5H287.188V39.5ZM273.438 39.5H266.562V40.5H273.438V39.5ZM259.688 39.5H252.812V40.5H259.688V39.5ZM245.938 39.5H239.062V40.5H245.938V39.5ZM232.188 39.5H225.312V40.5H232.188V39.5ZM218.438 39.5H211.562V40.5H218.438V39.5ZM204.688 39.5H197.812V40.5H204.688V39.5ZM190.938 39.5H184.062V40.5H190.938V39.5ZM177.188 39.5H170.312V40.5H177.188V39.5ZM163.438 39.5H156.563V40.5H163.438V39.5ZM149.687 39.5H142.812V40.5H149.687V39.5ZM135.938 39.5H129.062V40.5H135.938V39.5ZM122.188 39.5H115.313V40.5H122.188V39.5ZM108.437 39.5H101.562V40.5H108.437V39.5ZM94.6875 39.5H87.8125V40.5H94.6875V39.5ZM80.9375 39.5H74.0625V40.5H80.9375V39.5ZM67.1875 39.5H60.3125V40.5H67.1875V39.5ZM53.4375 39.5H50V40.5H53.4375V39.5ZM50 39.5C48.5772 39.5 47.2193 39.7833 45.9806 40.2969L46.3636 41.2207C47.4831 40.7565 48.711 40.5 50 40.5V39.5ZM40.2969 45.9806C39.7833 47.2193 39.5 48.5772 39.5 50H40.5C40.5 48.711 40.7565 47.4831 41.2207 46.3637L40.2969 45.9806Z" fill="#E5E5E5"/>
</g>
<defs>
<filter id="filter0_d" x="0" y="0" width="430" height="260" filterUnits="userSpaceOnUse" color-interpolation-filters="sRGB">
<feFlood flood-opacity="0" result="BackgroundImageFix"/>
<feColorMatrix in="SourceAlpha" type="matrix" values="0 0 0 0 0 0 0 0 0 0 0 0 0 0 0 0 0 0 127 0"/>
<feOffset/>
<feGaussianBlur stdDeviation="15"/>
<feColorMatrix type="matrix" values="0 0 0 0 0 0 0 0 0 0 0 0 0 0 0 0 0 0 0.1 0"/>
<feBlend mode="normal" in2="BackgroundImageFix" result="effect1_dropShadow"/>
<feBlend mode="normal" in="SourceGraphic" in2="effect1_dropShadow" result="shape"/>
</filter>
<filter id="filter1_d" x="9.5" y="9.5" width="411" height="241" filterUnits="userSpaceOnUse" color-interpolation-filters="sRGB">
<feFlood flood-opacity="0" result="BackgroundImageFix"/>
<feColorMatrix in="SourceAlpha" type="matrix" values="0 0 0 0 0 0 0 0 0 0 0 0 0 0 0 0 0 0 127 0"/>
<feOffset/>
<feGaussianBlur stdDeviation="15"/>
<feColorMatrix type="matrix" values="0 0 0 0 0 0 0 0 0 0 0 0 0 0 0 0 0 0 0.1 0"/>
<feBlend mode="normal" in2="BackgroundImageFix" result="effect1_dropShadow"/>
<feBlend mode="normal" in="SourceGraphic" in2="effect1_dropShadow" result="shape"/>
</filter>
<linearGradient id="paint0_linear" x1="397.636" y1="180" x2="397.636" y2="80" gradientUnits="userSpaceOnUse">
<stop stop-color="#FCCB05"/>
<stop offset="1" stop-color="#FFE57D"/>
</linearGradient>
<linearGradient id="paint1_linear" x1="397.636" y1="180" x2="397.636" y2="80" gradientUnits="userSpaceOnUse">
<stop stop-color="#FCCB05"/>
<stop offset="1" stop-color="#FFE57D"/>
</linearGradient>
</defs>
</svg>
