<svg width="89" height="100" viewBox="0 0 89 100" fill="none" xmlns="http://www.w3.org/2000/svg">
<path fill-rule="evenodd" clip-rule="evenodd" d="M47.6152 1.64029V17.223C47.6152 18.1289 46.8808 18.8633 45.9749 18.8633C45.0691 18.8633 44.3346 18.1289 44.3346 17.223V1.64029C44.3346 0.734446 45.0691 0 45.9749 0C46.8808 0 47.6152 0.734446 47.6152 1.64029ZM45.972 69.4061C32.8353 69.4061 22.1862 58.757 22.1862 45.6202C22.2014 32.4899 32.8417 21.8488 45.972 21.8344C59.1087 21.8344 69.7577 32.4835 69.7577 45.6202C69.7577 58.757 59.1087 69.4061 45.972 69.4061ZM66.4772 45.6202C66.4772 34.2952 57.297 25.115 45.972 25.115C34.6526 25.1278 25.4796 34.3008 25.4668 45.6202C25.4668 56.9453 34.647 66.1255 45.972 66.1255C57.297 66.1255 66.4772 56.9453 66.4772 45.6202ZM45.5464 54.5569C45.7338 54.5288 45.9236 54.536 46.1086 54.5761C48.1365 54.5024 49.732 52.8173 49.6943 50.7885C49.6575 48.7598 48.002 47.1347 45.9725 47.1347C42.4636 47.1355 39.4962 44.5397 39.0301 41.0621C38.5639 37.5845 40.7424 34.2983 44.1271 33.374V31.781C44.1271 30.8752 44.8616 30.1407 45.7674 30.1407C46.6733 30.1407 47.4077 30.8752 47.4077 31.781V33.2739C50.6506 33.9579 52.9725 36.8164 52.9773 40.1306C52.9773 41.0365 52.2429 41.7709 51.337 41.7709C50.4312 41.7709 49.6967 41.0365 49.6967 40.1306C49.6967 38.0739 48.0292 36.4063 45.9725 36.4063C43.9157 36.4063 42.2482 38.0739 42.2482 40.1306C42.2482 42.1874 43.9157 43.8549 45.9725 43.8549C49.5614 43.8557 52.5688 46.5685 52.9389 50.1382C53.3081 53.7079 50.9206 56.9797 47.4077 57.7149V59.2559C47.4077 60.1617 46.6733 60.8962 45.7674 60.8962C44.8616 60.8962 44.1271 60.1617 44.1271 59.2559V57.6156C41.0836 56.7802 38.9724 54.0154 38.9676 50.859C38.9676 49.9532 39.702 49.2187 40.6079 49.2187C41.5137 49.2187 42.2482 49.9532 42.2482 50.859C42.2514 52.7492 43.6682 54.3382 45.5464 54.5569ZM77.8451 73.4501L64.9959 79.5211C63.2218 76.2213 59.8187 74.1213 56.0736 74.0156L44.212 73.6896C42.3338 73.636 40.4909 73.1602 38.8209 72.2976L37.614 71.6721C31.434 68.4508 24.068 68.4588 17.8945 71.6929L17.9697 68.9586C17.9946 68.0527 17.281 67.2983 16.3751 67.2734L3.36813 66.9154C2.46229 66.8906 1.70862 67.6042 1.68379 68.5101L0.89809 97.0533C0.873261 97.9592 1.58688 98.7137 2.49273 98.7385L15.4997 99.0965H15.5446C16.4336 99.0965 17.1608 98.3893 17.1848 97.5011L17.2225 96.1355L20.6016 94.3262C21.9279 93.6126 23.4785 93.4428 24.9274 93.8529L45.1058 99.5162L45.124 99.5213L45.1451 99.5269C45.1673 99.5325 45.1896 99.5376 45.2123 99.5426C46.6708 99.8478 48.1573 100.001 49.647 99.9999C52.8026 100.002 55.9214 99.3215 58.7895 98.0048C58.86 97.9728 58.9281 97.9352 58.993 97.8927L88.2499 78.9685C88.9787 78.4968 89.2142 77.5397 88.7873 76.7836C86.6152 72.9296 81.7976 71.4615 77.8451 73.4501ZM4.22272 95.5044L4.91792 70.2401L14.6451 70.5076L13.9499 95.7727L4.22272 95.5044ZM57.3118 95.0751C53.7485 96.6833 49.7688 97.127 45.9387 96.3445L25.8148 90.6956C23.5498 90.0557 21.1254 90.3208 19.0534 91.4349L17.3266 92.3599L17.7887 75.5622C23.2606 71.9228 30.2783 71.5488 36.1058 74.5851L37.3128 75.2106C39.4224 76.2998 41.7491 76.9005 44.1223 76.9694L55.9847 77.2954C59.3165 77.3915 62.1462 79.7638 62.8222 83.0284L45.153 82.5406C44.2472 82.5158 43.4935 83.2302 43.4679 84.1353C43.4431 85.0411 44.1575 85.7956 45.0625 85.8204L64.5618 86.357H64.6074C65.4957 86.3562 66.2221 85.649 66.2461 84.7616C66.2661 84.0488 66.2133 83.3351 66.0875 82.6335L79.2667 76.4064C79.2749 76.4028 79.2831 76.3989 79.2912 76.3949L79.3052 76.3879C81.1745 75.442 83.4347 75.7584 84.9725 77.1816L57.3118 95.0751ZM59.9141 17.2232V9.84188C59.9141 8.93603 59.1796 8.20159 58.2738 8.20159C57.3679 8.20159 56.6335 8.93603 56.6335 9.84188V17.2232C56.6335 18.129 57.3679 18.8635 58.2738 18.8635C59.1796 18.8635 59.9141 18.129 59.9141 17.2232ZM35.3109 9.84188V17.2232C35.3109 18.129 34.5765 18.8635 33.6706 18.8635C32.7648 18.8635 32.0303 18.129 32.0303 17.2232V9.84188C32.0303 8.93603 32.7648 8.20159 33.6706 8.20159C34.5765 8.20159 35.3109 8.93603 35.3109 9.84188Z" fill="white" style="mix-blend-mode:overlay"/>
</svg>
