<svg width="113" height="56" viewBox="0 0 113 56" fill="none" xmlns="http://www.w3.org/2000/svg">
<path fill-rule="evenodd" clip-rule="evenodd" d="M107.781 22.5371C104.611 20.8817 101.284 19.5384 97.8931 18.5445C97.0158 18.288 96.0962 18.7902 95.8391 19.6675C95.5819 20.5449 96.0847 21.4646 96.962 21.7218C100.146 22.655 103.27 23.9166 106.249 25.4721C106.578 25.644 106.886 25.8444 107.175 26.0647C105.368 26.0828 103.59 26.1587 102.212 26.4254C99.1317 27.0216 98.4851 28.5882 98.4851 29.7974C98.4851 33.1993 103.066 36.1837 108.289 36.1837C108.761 36.1837 109.228 36.1643 109.69 36.1334V37.6851H101.124C99.1266 34.7815 95.7828 32.8729 92.0004 32.8729C88.2179 32.8729 84.8741 34.7815 82.8772 37.6851H35.3536C33.3564 34.7815 30.0125 32.8729 26.2301 32.8729C22.4477 32.8729 19.1039 34.7815 17.1069 37.6851H3.31077V33.7408H5.53987C6.45402 33.7408 7.19515 32.9998 7.19515 32.0854V30.8361H10.9939C13.2391 30.8361 15.0659 29.0094 15.0659 26.764V25.339C15.0659 24.4983 14.8107 23.6902 14.3283 23.0018L10.9581 18.1933H14.9617C15.5274 18.1933 16.0542 17.9042 16.3581 17.427C18.4234 14.183 21.5179 11.2114 25.5552 8.59476C28.0807 6.95789 30.8113 5.7278 33.6731 4.91135C33.1693 5.20072 32.6727 5.50112 32.1863 5.81653C29.0256 7.8655 26.3562 10.1522 24.2524 12.6128C23.3787 13.635 23.1716 15.0321 23.7119 16.2593C24.2484 17.4777 25.4093 18.2624 26.7419 18.3074C26.7419 18.3074 79.9904 20.1065 80.0062 20.1068C80.0118 20.1068 80.0173 20.1066 80.0228 20.1064L80.0348 20.1058L80.0541 20.105C80.0994 20.1039 80.1444 20.1021 80.1885 20.0975L80.1941 20.0973C83.2963 19.7576 86.4967 19.7913 89.707 20.1977C90.615 20.3136 91.4422 19.6702 91.557 18.7632C91.6717 17.8563 91.0295 17.0279 90.1224 16.9131C86.9167 16.5072 83.7156 16.4459 80.5955 16.7299C77.9839 14.2925 75.4295 11.9414 72.9945 9.73369C67.1595 4.44651 59.6212 1.30298 51.7686 0.882282L44.0634 0.469532C36.7764 0.0806196 29.7532 1.92917 23.7545 5.81675C19.6287 8.49058 16.3757 11.5372 14.0727 14.8827C11.8734 14.8922 10.4745 14.886 9.55046 14.8819H9.55043H9.55041H9.55039C8.16151 14.8757 7.8454 14.8743 7.49619 14.9383C5.45402 15.2551 3.88438 17.0208 3.88438 19.1515V29.1617C3.88438 29.1649 3.88416 29.1681 3.88394 29.1713C3.88371 29.1745 3.88349 29.1777 3.88349 29.1809C3.88349 29.1841 3.88371 29.1873 3.88394 29.1905C3.88416 29.1937 3.88438 29.1969 3.88438 29.2001V30.4302H2.3218C1.0415 30.4302 0 31.4709 0 32.75V42.8791C0 43.9823 0.785042 44.9389 1.86163 45.153L15.935 47.9964C17.5563 52.0989 21.5583 55.0103 26.2299 55.0103C30.6177 55.0103 34.4171 52.4435 36.2061 48.7327H42.3112C43.2254 48.7327 43.9665 47.9917 43.9665 47.0773C43.9665 46.1628 43.2254 45.4219 42.3112 45.4219H37.1958C37.2609 44.9374 37.2975 44.4441 37.2975 43.9419C37.2975 42.922 37.1561 41.9349 36.8965 40.9964H81.3338C81.0742 41.9349 80.9328 42.922 80.9328 43.9419C80.9328 44.4441 80.9696 44.9374 81.0345 45.4219H50.0359C49.1217 45.4219 48.3806 46.1628 48.3806 47.0773C48.3806 47.9917 49.1217 48.7327 50.0359 48.7327H82.0241C83.8132 52.4437 87.6126 55.0103 92.0001 55.0103C96.3879 55.0103 100.187 52.4435 101.976 48.7327H107.019C110.317 48.7327 113 46.0494 113 42.7511V31.1389C113 27.5135 111 24.2179 107.781 22.5371ZM26.7417 14.9244C26.7045 14.8401 26.7457 14.7912 26.7681 14.7646L26.7687 14.764C31.4175 9.32646 38.6798 4.9076 47.0345 3.9437L50.4872 4.12867C51.0374 6.16704 51.7812 11.0748 50.4779 15.7963L26.8538 14.9979L26.8536 14.9979C26.8157 14.9966 26.7728 14.9951 26.7417 14.9244ZM75.6421 16.6467L53.8593 15.9106C54.8571 11.6445 54.532 7.24262 53.9483 4.40722C60.184 5.22588 66.0858 7.94032 70.7716 12.1864C72.3498 13.6173 73.9793 15.1098 75.6421 16.6467ZM11.7553 25.3388V26.7637C11.7553 27.1836 11.4139 27.525 10.9939 27.525H7.19515V19.151C7.19515 19.0009 7.23289 18.8608 7.29446 18.7341L11.6174 24.902C11.7074 25.0304 11.7553 25.1816 11.7553 25.3388ZM3.31077 42.0675V40.9959H15.5638C15.2495 42.1329 15.1208 43.2853 15.176 44.4648L3.31077 42.0675ZM26.2301 51.6988C21.9531 51.6988 18.4733 48.2186 18.4733 43.9412C18.4733 39.6639 21.9531 36.1837 26.2301 36.1837C30.5074 36.1837 33.9872 39.6639 33.9872 43.9412C33.9872 48.2186 30.5074 51.6988 26.2301 51.6988ZM108.288 32.8727C104.547 32.8727 102.094 30.955 101.821 29.9693C102.506 29.5716 104.679 29.3703 108.288 29.3703C108.68 29.3703 109.068 29.3842 109.452 29.4093C109.608 29.9636 109.69 30.5441 109.69 31.1382V32.8173C109.231 32.8539 108.763 32.8727 108.288 32.8727ZM92.0001 51.6988C87.7231 51.6988 84.2433 48.2186 84.2433 43.9412C84.2433 39.6639 87.7231 36.1837 92.0001 36.1837C96.2774 36.1837 99.7572 39.6639 99.7572 43.9412C99.7572 48.2186 96.2774 51.6988 92.0001 51.6988ZM107.019 45.4212H102.966C103.031 44.9367 103.068 44.4434 103.068 43.9412C103.068 42.9213 102.926 41.9342 102.667 40.9957H109.69V42.7505C109.69 44.2231 108.492 45.4212 107.019 45.4212ZM26.2297 38.5283C23.2453 38.5283 20.8174 40.9565 20.8174 43.9409C20.8174 46.9256 23.2453 49.3538 26.2297 49.3538C29.214 49.3538 31.642 46.9256 31.642 43.9409C31.642 40.9565 29.214 38.5283 26.2297 38.5283ZM26.2297 46.0431C25.0708 46.0431 24.1279 45.1002 24.1279 43.9412C24.1279 42.7821 25.0708 41.8394 26.2297 41.8394C27.3886 41.8394 28.3314 42.7821 28.3314 43.9412C28.3314 45.1002 27.3886 46.0431 26.2297 46.0431ZM86.5879 43.9409C86.5879 40.9565 89.0158 38.5283 92.0002 38.5283C94.9845 38.5283 97.4125 40.9565 97.4125 43.9409C97.4125 46.9256 94.9845 49.3538 92.0002 49.3538C89.0158 49.3538 86.5879 46.9256 86.5879 43.9409ZM89.8984 43.9412C89.8984 45.1002 90.8413 46.0431 92.0002 46.0431C93.1591 46.0431 94.1019 45.1002 94.1019 43.9412C94.1019 42.7821 93.1591 41.8394 92.0002 41.8394C90.8413 41.8394 89.8984 42.7821 89.8984 43.9412ZM56.5 21.6848C55.5858 21.6848 54.8447 22.4257 54.8447 23.3401C54.8447 24.2545 55.5858 24.9954 56.5 24.9954H57.6477C58.5618 24.9954 59.3029 24.2545 59.3029 23.3401C59.3029 22.4257 58.5618 21.6848 57.6477 21.6848H56.5ZM30.1055 23.3401C30.1055 22.4257 30.8466 21.6848 31.7607 21.6848H32.9084C33.8226 21.6848 34.5637 22.4257 34.5637 23.3401C34.5637 24.2545 33.8226 24.9954 32.9084 24.9954H31.7607C30.8466 24.9954 30.1055 24.2545 30.1055 23.3401Z" fill="white" style="mix-blend-mode:overlay"/>
</svg>
