<svg width="449" height="260" viewBox="0 0 449 260" fill="none" xmlns="http://www.w3.org/2000/svg">
<path d="M449 130C449 157.614 426.614 180 399 180C371.386 180 349 157.614 349 130C349 102.386 371.386 80 399 80C426.614 80 449 102.386 449 130Z" fill="url(#paint0_linear)"/>
<mask id="mask0" mask-type="alpha" maskUnits="userSpaceOnUse" x="349" y="80" width="100" height="100">
<circle cx="399" cy="130" r="50" fill="url(#paint1_linear)"/>
</mask>
<g mask="url(#mask0)">
<path fill-rule="evenodd" clip-rule="evenodd" d="M420.867 134.788C421.676 136.372 422.844 137.746 424.277 138.8C426.6 140.893 429 143.067 429 146C429 148.933 426.6 151.107 424.277 153.208C422.844 154.262 421.677 155.635 420.867 157.218C420.754 159.069 421.082 160.919 421.822 162.618L421.822 162.619C422.755 165.542 423.72 168.564 422.305 171.008C420.87 173.489 417.742 174.165 414.716 174.818L414.713 174.818C412.903 175.019 411.166 175.644 409.642 176.642C408.643 178.166 408.018 179.905 407.817 181.717C407.163 184.742 406.483 187.87 404.008 189.305C401.561 190.72 398.547 189.757 395.628 188.825L395.618 188.822C393.919 188.083 392.07 187.756 390.22 187.867C388.636 188.676 387.263 189.844 386.208 191.277C384.107 193.6 381.933 196 379 196C376.067 196 373.893 193.6 371.792 191.277C370.738 189.844 369.365 188.677 367.782 187.867C365.932 187.756 364.081 188.083 362.382 188.822L362.376 188.823C359.453 189.756 356.435 190.719 353.992 189.305C351.511 187.87 350.835 184.742 350.182 181.716L350.182 181.713C349.981 179.903 349.356 178.166 348.358 176.642C346.834 175.643 345.095 175.018 343.283 174.817C340.258 174.163 337.13 173.483 335.695 171.008C334.281 168.563 335.244 165.544 336.177 162.622L336.178 162.618C336.918 160.919 337.245 159.07 337.133 157.22C336.324 155.636 335.156 154.263 333.723 153.208C331.4 151.107 329 148.933 329 146C329 143.067 331.4 140.893 333.723 138.792C335.156 137.738 336.323 136.365 337.133 134.782C337.246 132.931 336.918 131.081 336.178 129.382L336.178 129.381C335.245 126.458 334.28 123.436 335.695 120.992C337.13 118.511 340.258 117.835 343.284 117.182L343.287 117.182C345.097 116.981 346.834 116.356 348.358 115.358C349.36 113.834 349.988 112.096 350.192 110.283C350.845 107.258 351.525 104.13 354 102.695C356.444 101.281 359.458 102.243 362.373 103.173L362.39 103.178C364.089 103.917 365.939 104.244 367.788 104.133C369.372 103.324 370.746 102.156 371.8 100.723C373.893 98.4 376.067 96 379 96C381.933 96 384.107 98.4 386.208 100.723C387.262 102.156 388.635 103.323 390.218 104.133C392.068 104.244 393.919 103.917 395.618 103.178L395.624 103.177C398.547 102.244 401.565 101.281 404.008 102.695C406.489 104.13 407.165 107.258 407.818 110.284L407.818 110.287C408.019 112.097 408.644 113.834 409.642 115.358C411.166 116.36 412.904 116.988 414.717 117.192C417.742 117.845 420.87 118.525 422.305 121C423.719 123.446 422.756 126.464 421.823 129.387L421.823 129.387L421.822 129.39C421.082 131.089 420.755 132.939 420.867 134.788ZM417.647 156.358C418.566 154.116 420.086 152.172 422.04 150.738L422.044 150.735C423.826 149.121 425.667 147.454 425.667 146C425.667 144.546 423.826 142.879 422.044 141.265L422.04 141.262C420.086 139.828 418.565 137.883 417.647 135.64C417.304 133.17 417.65 130.654 418.647 128.368C419.36 126.137 420.095 123.828 419.42 122.66C418.726 121.459 416.333 120.943 414.02 120.443L414.013 120.442C411.562 120.17 409.234 119.227 407.285 117.715C405.662 116.095 405.102 113.5 404.56 110.99L404.559 110.986C404.059 108.671 403.543 106.276 402.338 105.578C401.172 104.912 398.867 105.64 396.632 106.353C394.345 107.349 391.829 107.695 389.358 107.353C387.116 106.434 385.172 104.914 383.738 102.96L383.735 102.956C382.121 101.174 380.454 99.3333 379 99.3333C377.546 99.3333 375.879 101.174 374.265 102.956L374.262 102.96C372.828 104.914 370.883 106.435 368.64 107.353C366.393 107.957 363.837 107.143 361.368 106.353L361.345 106.346C359.12 105.635 356.829 104.902 355.667 105.58C354.466 106.274 353.949 108.667 353.45 110.98L353.448 110.987C353.177 113.438 352.233 115.766 350.722 117.715C349.102 119.338 346.507 119.898 343.997 120.44L343.997 120.44L343.993 120.441C341.677 120.941 339.283 121.457 338.585 122.662C337.918 123.828 338.647 126.137 339.36 128.368C340.357 130.654 340.703 133.171 340.36 135.642C339.441 137.884 337.92 139.828 335.967 141.262C334.177 142.877 332.333 144.545 332.333 146C332.333 147.454 334.174 149.121 335.956 150.735L335.96 150.738C337.914 152.172 339.435 154.117 340.353 156.36C340.696 158.83 340.35 161.346 339.353 163.632C338.64 165.863 337.905 168.167 338.58 169.333C339.274 170.534 341.667 171.051 343.98 171.55L343.987 171.552C346.438 171.823 348.766 172.767 350.715 174.278C352.338 175.898 352.898 178.493 353.44 181.003L353.44 181.003L353.441 181.007C353.941 183.323 354.457 185.717 355.662 186.415C356.828 187.082 359.132 186.353 361.368 185.64C363.159 184.963 365.041 184.558 366.952 184.437C367.522 184.433 368.09 184.504 368.642 184.647C370.884 185.566 372.828 187.086 374.262 189.04L374.265 189.044C375.879 190.826 377.546 192.667 379 192.667C380.454 192.667 382.121 190.826 383.735 189.044L383.738 189.04C385.172 187.086 387.117 185.565 389.36 184.647C391.83 184.306 394.346 184.652 396.632 185.647L396.635 185.648L396.635 185.648C398.864 186.359 401.169 187.095 402.34 186.42C403.541 185.726 404.057 183.333 404.557 181.02L404.558 181.013C404.83 178.562 405.773 176.234 407.285 174.285C408.905 172.662 411.5 172.102 414.01 171.56L414.014 171.559C416.329 171.059 418.724 170.543 419.422 169.338C420.088 168.172 419.36 165.863 418.647 163.632C417.65 161.346 417.304 158.829 417.647 156.358ZM380.667 114.333C380.667 115.254 379.92 116 379 116C378.08 116 377.333 115.254 377.333 114.333V111C377.333 110.08 378.08 109.333 379 109.333C379.92 109.333 380.667 110.08 380.667 111V114.333ZM369.193 115.843C369.388 116.571 370.048 117.078 370.802 117.078C370.948 117.079 371.095 117.06 371.237 117.022C372.125 116.783 372.652 115.87 372.415 114.982L371.552 111.762C371.545 111.732 371.537 111.703 371.528 111.675C371.266 110.792 370.338 110.29 369.456 110.552C368.573 110.815 368.071 111.743 368.333 112.625L369.193 115.843ZM362.934 114.841L362.937 114.846L362.942 114.855L364.608 117.743C365.069 118.54 364.795 119.56 363.998 120.02C363.745 120.166 363.459 120.243 363.167 120.243C362.571 120.244 362.02 119.926 361.722 119.41L360.055 116.521C359.59 115.727 359.856 114.706 360.65 114.241C361.444 113.775 362.465 114.042 362.931 114.836L362.934 114.841ZM355.43 124.787C355.743 125.099 356.166 125.275 356.608 125.275C357.05 125.275 357.474 125.099 357.786 124.787C358.437 124.136 358.437 123.081 357.787 122.43L355.428 120.072C355.415 120.058 355.401 120.044 355.387 120.031C354.725 119.391 353.67 119.41 353.031 120.072C352.391 120.734 352.41 121.789 353.072 122.428L355.43 124.787ZM353.072 169.572L355.43 167.213C356.092 166.574 357.147 166.592 357.787 167.254C358.41 167.9 358.41 168.924 357.787 169.57L355.428 171.928C355.116 172.241 354.692 172.417 354.25 172.417C353.33 172.416 352.584 171.67 352.584 170.75C352.584 170.308 352.759 169.884 353.072 169.572ZM364.006 171.995C363.211 171.53 362.19 171.796 361.725 172.59L360.058 175.478C359.912 175.731 359.835 176.018 359.835 176.31C359.834 177.23 360.579 177.977 361.5 177.978C362.096 177.979 362.647 177.661 362.945 177.145L364.612 174.257C365.062 173.464 364.792 172.456 364.006 171.995ZM369.193 176.157C369.435 175.269 370.352 174.745 371.24 174.987C372.122 175.228 372.645 176.134 372.413 177.018L371.55 180.238C371.355 180.966 370.695 181.473 369.942 181.473C369.021 181.474 368.275 180.727 368.275 179.807C368.275 179.661 368.294 179.516 368.332 179.375L369.193 176.157ZM379 176C378.08 176 377.333 176.746 377.333 177.667V181C377.333 181.92 378.08 182.667 379 182.667C379.92 182.667 380.667 181.92 380.667 181V177.667C380.667 176.746 379.92 176 379 176ZM386.776 174.983C387.66 174.751 388.566 175.275 388.807 176.157L389.668 179.375C389.907 180.264 389.379 181.178 388.49 181.416C388.349 181.454 388.204 181.473 388.058 181.473C387.305 181.473 386.645 180.966 386.45 180.238L385.587 177.018C385.353 176.128 385.885 175.217 386.776 174.983ZM396.275 172.59L396.264 172.571C395.798 171.777 394.777 171.51 393.983 171.976C393.189 172.442 392.923 173.463 393.388 174.257L395.055 177.145C395.353 177.661 395.904 177.979 396.5 177.979C396.792 177.978 397.079 177.901 397.332 177.755C398.129 177.295 398.402 176.276 397.942 175.479L396.275 172.59ZM400.254 167.213C400.9 166.589 401.924 166.589 402.57 167.213L404.928 169.572C405.579 170.223 405.579 171.278 404.928 171.929C404.616 172.241 404.192 172.417 403.75 172.417C403.308 172.417 402.884 172.241 402.572 171.928L400.213 169.57C399.574 168.908 399.592 167.853 400.254 167.213ZM401.392 125.275C401.834 125.275 402.258 125.099 402.57 124.787L404.928 122.428C404.942 122.415 404.956 122.401 404.969 122.388C405.609 121.726 405.59 120.671 404.928 120.031C404.266 119.392 403.211 119.41 402.572 120.072L400.213 122.43C399.901 122.743 399.725 123.166 399.725 123.608C399.725 124.529 400.471 125.275 401.392 125.275ZM396.278 119.41C395.98 119.926 395.429 120.244 394.833 120.243C393.913 120.242 393.167 119.495 393.168 118.575C393.169 118.283 393.246 117.996 393.392 117.744L395.058 114.855C395.513 114.055 396.531 113.775 397.331 114.23C398.131 114.685 398.411 115.702 397.956 116.502L397.945 116.522L396.278 119.41ZM386.765 117.022C386.906 117.06 387.052 117.079 387.198 117.078C387.952 117.078 388.611 116.571 388.807 115.843L389.668 112.625C389.677 112.596 389.685 112.567 389.692 112.538C389.906 111.643 389.354 110.744 388.459 110.529C387.564 110.315 386.664 110.867 386.45 111.762L385.587 114.982C385.349 115.871 385.877 116.783 386.765 117.022ZM372.333 156H384C384.92 156 385.667 156.746 385.667 157.667C385.667 158.587 384.92 159.333 384 159.333H370.667C369.746 159.333 369 158.587 369 157.667V134.333C369 133.413 369.746 132.667 370.667 132.667H384C384.92 132.667 385.667 133.413 385.667 134.333C385.667 135.254 384.92 136 384 136H372.333V144.333H380.667C381.587 144.333 382.333 145.08 382.333 146C382.333 146.92 381.587 147.667 380.667 147.667H372.333V156ZM361.065 158.707C361.181 158.846 361.318 158.965 361.473 159.058C361.527 159.098 361.582 159.134 361.64 159.167C361.856 159.273 362.093 159.33 362.333 159.333C362.532 159.329 362.728 159.29 362.913 159.217C362.976 159.189 363.037 159.159 363.097 159.125C363.167 159.095 363.234 159.061 363.3 159.022C363.321 159.007 363.336 158.988 363.351 158.969C363.362 158.954 363.374 158.94 363.388 158.927C363.477 158.851 363.557 158.766 363.627 158.673C363.761 158.516 363.856 158.329 363.905 158.128C363.938 158.02 363.961 157.908 363.972 157.795C363.972 157.772 363.978 157.75 363.985 157.728C363.992 157.707 363.998 157.685 363.998 157.662V134.333C363.998 133.414 363.253 132.667 362.333 132.667C361.413 132.667 360.667 133.413 360.667 134.333V152.467L347.022 133.365C347.007 133.344 346.988 133.329 346.969 133.314C346.954 133.303 346.94 133.291 346.927 133.277C346.851 133.188 346.766 133.108 346.673 133.038C346.594 132.975 346.51 132.92 346.422 132.872C346.328 132.827 346.231 132.791 346.132 132.763C346.023 132.729 345.912 132.706 345.798 132.697C345.776 132.697 345.755 132.69 345.734 132.684L345.734 132.684C345.713 132.677 345.692 132.67 345.668 132.67C345.612 132.678 345.556 132.69 345.502 132.705C345.388 132.715 345.277 132.736 345.168 132.77C345.06 132.806 344.956 132.853 344.857 132.91C344.803 132.931 344.751 132.955 344.7 132.982C344.679 132.996 344.664 133.015 344.649 133.034C344.638 133.049 344.626 133.064 344.612 133.077C344.523 133.152 344.443 133.237 344.373 133.33C344.31 133.408 344.254 133.492 344.207 133.58C344.16 133.674 344.123 133.773 344.097 133.875C344.063 133.984 344.041 134.095 344.03 134.208C344.03 134.232 344.023 134.253 344.017 134.275C344.01 134.297 344.003 134.318 344.003 134.342V157.667C344.003 158.587 344.749 159.333 345.67 159.333C346.59 159.333 347.337 158.587 347.337 157.667V139.533L360.982 158.635C360.994 158.652 361.01 158.664 361.027 158.675L361.027 158.675C361.04 158.685 361.054 158.694 361.065 158.707ZM412.683 132.703L412.688 132.704C413.588 132.9 414.159 133.787 413.963 134.687L408.963 158.02C408.805 158.754 408.176 159.292 407.427 159.333H407.333C406.616 159.333 405.98 158.874 405.753 158.193L400.667 142.937L395.573 158.193C395.333 158.901 394.653 159.364 393.907 159.33C393.157 159.288 392.528 158.751 392.37 158.017L387.37 134.683C387.177 133.783 387.75 132.897 388.65 132.703C389.55 132.51 390.437 133.083 390.63 133.983L394.35 151.347L399.08 137.14C399.245 136.637 399.64 136.242 400.143 136.077C401.017 135.79 401.959 136.266 402.247 137.14L406.983 151.347L410.703 133.983L410.704 133.982C410.897 133.082 411.783 132.51 412.683 132.703Z" fill="white" style="mix-blend-mode:overlay"/>
</g>
<g filter="url(#filter0_d)">
<path fill-rule="evenodd" clip-rule="evenodd" d="M40 30C34.4772 30 30 34.4772 30 40V220C30 225.523 34.4771 230 40 230H390C395.523 230 400 225.523 400 220V189.997C399.8 189.999 399.6 190 399.4 190C364.369 190 335.971 163.137 335.971 130C335.971 96.8629 364.369 70 399.4 70C399.6 70 399.8 70.0009 400 70.0026V40C400 34.4772 395.523 30 390 30H40Z" fill="white"/>
</g>
<g filter="url(#filter1_d)">
<path d="M390 199.888H390.5V199.415L390.028 199.388L390 199.888ZM390 60.1124L390.028 60.6116L390.5 60.585V60.1124H390ZM39.5 53.6364C39.5 53.9125 39.7239 54.1364 40 54.1364C40.2761 54.1364 40.5 53.9125 40.5 53.6364H39.5ZM40.5 60.9091C40.5 60.633 40.2761 60.4091 40 60.4091C39.7239 60.4091 39.5 60.633 39.5 60.9091H40.5ZM39.5 68.1818C39.5 68.458 39.7239 68.6818 40 68.6818C40.2761 68.6818 40.5 68.458 40.5 68.1818H39.5ZM40.5 75.4545C40.5 75.1784 40.2761 74.9545 40 74.9545C39.7239 74.9545 39.5 75.1784 39.5 75.4545H40.5ZM39.5 82.7273C39.5 83.0034 39.7239 83.2273 40 83.2273C40.2761 83.2273 40.5 83.0034 40.5 82.7273H39.5ZM40.5 90C40.5 89.7239 40.2761 89.5 40 89.5C39.7239 89.5 39.5 89.7239 39.5 90H40.5ZM39.5 97.2727C39.5 97.5489 39.7239 97.7727 40 97.7727C40.2761 97.7727 40.5 97.5489 40.5 97.2727H39.5ZM40.5 104.545C40.5 104.269 40.2761 104.045 40 104.045C39.7239 104.045 39.5 104.269 39.5 104.545H40.5ZM39.5 111.818C39.5 112.094 39.7239 112.318 40 112.318C40.2761 112.318 40.5 112.094 40.5 111.818H39.5ZM40.5 119.091C40.5 118.815 40.2761 118.591 40 118.591C39.7239 118.591 39.5 118.815 39.5 119.091H40.5ZM39.5 126.364C39.5 126.64 39.7239 126.864 40 126.864C40.2761 126.864 40.5 126.64 40.5 126.364H39.5ZM40.5 133.636C40.5 133.36 40.2761 133.136 40 133.136C39.7239 133.136 39.5 133.36 39.5 133.636H40.5ZM39.5 140.909C39.5 141.185 39.7239 141.409 40 141.409C40.2761 141.409 40.5 141.185 40.5 140.909H39.5ZM40.5 148.182C40.5 147.906 40.2761 147.682 40 147.682C39.7239 147.682 39.5 147.906 39.5 148.182H40.5ZM39.5 155.455C39.5 155.731 39.7239 155.955 40 155.955C40.2761 155.955 40.5 155.731 40.5 155.455H39.5ZM40.5 162.727C40.5 162.451 40.2761 162.227 40 162.227C39.7239 162.227 39.5 162.451 39.5 162.727H40.5ZM39.5 170C39.5 170.276 39.7239 170.5 40 170.5C40.2761 170.5 40.5 170.276 40.5 170H39.5ZM40.5 177.273C40.5 176.997 40.2761 176.773 40 176.773C39.7239 176.773 39.5 176.997 39.5 177.273H40.5ZM39.5 184.545C39.5 184.822 39.7239 185.045 40 185.045C40.2761 185.045 40.5 184.822 40.5 184.545H39.5ZM40.5 191.818C40.5 191.542 40.2761 191.318 40 191.318C39.7239 191.318 39.5 191.542 39.5 191.818H40.5ZM39.5 199.091C39.5 199.367 39.7239 199.591 40 199.591C40.2761 199.591 40.5 199.367 40.5 199.091H39.5ZM40.5 206.364C40.5 206.087 40.2761 205.864 40 205.864C39.7239 205.864 39.5 206.087 39.5 206.364H40.5ZM40.2969 214.019C40.4027 214.274 40.6953 214.396 40.9503 214.29C41.2054 214.184 41.3264 213.891 41.2207 213.636L40.2969 214.019ZM46.3636 218.779C46.1086 218.674 45.816 218.795 45.7103 219.05C45.6045 219.305 45.7255 219.597 45.9806 219.703L46.3636 218.779ZM53.4375 220.5C53.7136 220.5 53.9375 220.276 53.9375 220C53.9375 219.724 53.7136 219.5 53.4375 219.5V220.5ZM60.3125 219.5C60.0364 219.5 59.8125 219.724 59.8125 220C59.8125 220.276 60.0364 220.5 60.3125 220.5V219.5ZM67.1875 220.5C67.4636 220.5 67.6875 220.276 67.6875 220C67.6875 219.724 67.4636 219.5 67.1875 219.5V220.5ZM74.0625 219.5C73.7864 219.5 73.5625 219.724 73.5625 220C73.5625 220.276 73.7864 220.5 74.0625 220.5V219.5ZM80.9375 220.5C81.2136 220.5 81.4375 220.276 81.4375 220C81.4375 219.724 81.2136 219.5 80.9375 219.5V220.5ZM87.8125 219.5C87.5364 219.5 87.3125 219.724 87.3125 220C87.3125 220.276 87.5364 220.5 87.8125 220.5V219.5ZM94.6875 220.5C94.9636 220.5 95.1875 220.276 95.1875 220C95.1875 219.724 94.9636 219.5 94.6875 219.5V220.5ZM101.562 219.5C101.286 219.5 101.062 219.724 101.062 220C101.062 220.276 101.286 220.5 101.562 220.5V219.5ZM108.438 220.5C108.714 220.5 108.938 220.276 108.938 220C108.938 219.724 108.714 219.5 108.438 219.5V220.5ZM115.312 219.5C115.036 219.5 114.812 219.724 114.812 220C114.812 220.276 115.036 220.5 115.312 220.5V219.5ZM122.188 220.5C122.464 220.5 122.688 220.276 122.688 220C122.688 219.724 122.464 219.5 122.188 219.5V220.5ZM129.062 219.5C128.786 219.5 128.562 219.724 128.562 220C128.562 220.276 128.786 220.5 129.062 220.5V219.5ZM135.937 220.5C136.214 220.5 136.437 220.276 136.437 220C136.437 219.724 136.214 219.5 135.937 219.5V220.5ZM142.812 219.5C142.536 219.5 142.312 219.724 142.312 220C142.312 220.276 142.536 220.5 142.812 220.5V219.5ZM149.688 220.5C149.964 220.5 150.188 220.276 150.188 220C150.188 219.724 149.964 219.5 149.688 219.5V220.5ZM156.562 219.5C156.286 219.5 156.062 219.724 156.062 220C156.062 220.276 156.286 220.5 156.562 220.5V219.5ZM163.438 220.5C163.714 220.5 163.938 220.276 163.938 220C163.938 219.724 163.714 219.5 163.438 219.5V220.5ZM170.312 219.5C170.036 219.5 169.812 219.724 169.812 220C169.812 220.276 170.036 220.5 170.312 220.5V219.5ZM177.188 220.5C177.464 220.5 177.688 220.276 177.688 220C177.688 219.724 177.464 219.5 177.188 219.5V220.5ZM184.062 219.5C183.786 219.5 183.562 219.724 183.562 220C183.562 220.276 183.786 220.5 184.062 220.5V219.5ZM190.938 220.5C191.214 220.5 191.438 220.276 191.438 220C191.438 219.724 191.214 219.5 190.938 219.5V220.5ZM197.812 219.5C197.536 219.5 197.312 219.724 197.312 220C197.312 220.276 197.536 220.5 197.812 220.5V219.5ZM204.688 220.5C204.964 220.5 205.188 220.276 205.188 220C205.188 219.724 204.964 219.5 204.688 219.5V220.5ZM211.562 219.5C211.286 219.5 211.062 219.724 211.062 220C211.062 220.276 211.286 220.5 211.562 220.5V219.5ZM218.438 220.5C218.714 220.5 218.938 220.276 218.938 220C218.938 219.724 218.714 219.5 218.438 219.5V220.5ZM225.312 219.5C225.036 219.5 224.812 219.724 224.812 220C224.812 220.276 225.036 220.5 225.312 220.5V219.5ZM232.188 220.5C232.464 220.5 232.688 220.276 232.688 220C232.688 219.724 232.464 219.5 232.188 219.5V220.5ZM239.062 219.5C238.786 219.5 238.562 219.724 238.562 220C238.562 220.276 238.786 220.5 239.062 220.5V219.5ZM245.938 220.5C246.214 220.5 246.438 220.276 246.438 220C246.438 219.724 246.214 219.5 245.938 219.5V220.5ZM252.812 219.5C252.536 219.5 252.312 219.724 252.312 220C252.312 220.276 252.536 220.5 252.812 220.5V219.5ZM259.688 220.5C259.964 220.5 260.188 220.276 260.188 220C260.188 219.724 259.964 219.5 259.688 219.5V220.5ZM266.562 219.5C266.286 219.5 266.062 219.724 266.062 220C266.062 220.276 266.286 220.5 266.562 220.5V219.5ZM273.438 220.5C273.714 220.5 273.938 220.276 273.938 220C273.938 219.724 273.714 219.5 273.438 219.5V220.5ZM280.312 219.5C280.036 219.5 279.812 219.724 279.812 220C279.812 220.276 280.036 220.5 280.312 220.5V219.5ZM287.188 220.5C287.464 220.5 287.688 220.276 287.688 220C287.688 219.724 287.464 219.5 287.188 219.5V220.5ZM294.062 219.5C293.786 219.5 293.562 219.724 293.562 220C293.562 220.276 293.786 220.5 294.062 220.5V219.5ZM300.938 220.5C301.214 220.5 301.438 220.276 301.438 220C301.438 219.724 301.214 219.5 300.938 219.5V220.5ZM307.812 219.5C307.536 219.5 307.312 219.724 307.312 220C307.312 220.276 307.536 220.5 307.812 220.5V219.5ZM314.688 220.5C314.964 220.5 315.188 220.276 315.188 220C315.188 219.724 314.964 219.5 314.688 219.5V220.5ZM321.562 219.5C321.286 219.5 321.062 219.724 321.062 220C321.062 220.276 321.286 220.5 321.562 220.5V219.5ZM328.438 220.5C328.714 220.5 328.938 220.276 328.938 220C328.938 219.724 328.714 219.5 328.438 219.5V220.5ZM335.312 219.5C335.036 219.5 334.812 219.724 334.812 220C334.812 220.276 335.036 220.5 335.312 220.5V219.5ZM342.188 220.5C342.464 220.5 342.688 220.276 342.688 220C342.688 219.724 342.464 219.5 342.188 219.5V220.5ZM349.062 219.5C348.786 219.5 348.562 219.724 348.562 220C348.562 220.276 348.786 220.5 349.062 220.5V219.5ZM355.938 220.5C356.214 220.5 356.438 220.276 356.438 220C356.438 219.724 356.214 219.5 355.938 219.5V220.5ZM362.812 219.5C362.536 219.5 362.312 219.724 362.312 220C362.312 220.276 362.536 220.5 362.812 220.5V219.5ZM369.688 220.5C369.964 220.5 370.188 220.276 370.188 220C370.188 219.724 369.964 219.5 369.688 219.5V220.5ZM376.562 219.5C376.286 219.5 376.062 219.724 376.062 220C376.062 220.276 376.286 220.5 376.562 220.5V219.5ZM384.019 219.703C384.274 219.597 384.396 219.305 384.29 219.05C384.184 218.795 383.891 218.674 383.636 218.779L384.019 219.703ZM388.779 213.636C388.674 213.891 388.795 214.184 389.05 214.29C389.305 214.396 389.597 214.274 389.703 214.019L388.779 213.636ZM390.5 207.472C390.5 207.196 390.276 206.972 390 206.972C389.724 206.972 389.5 207.196 389.5 207.472H390.5ZM389.5 202.416C389.5 202.692 389.724 202.916 390 202.916C390.276 202.916 390.5 202.692 390.5 202.416H389.5ZM386.75 199.126C386.476 199.098 386.23 199.298 386.201 199.572C386.173 199.847 386.372 200.093 386.647 200.121L386.75 199.126ZM380.054 199.121C380.325 199.175 380.589 199 380.643 198.729C380.697 198.458 380.522 198.195 380.251 198.14L380.054 199.121ZM373.875 196.542C373.611 196.462 373.332 196.612 373.252 196.876C373.172 197.14 373.322 197.419 373.586 197.499L373.875 196.542ZM367.302 195.269C367.558 195.374 367.85 195.252 367.954 194.996C368.059 194.74 367.937 194.448 367.681 194.344L367.302 195.269ZM361.724 191.567C361.479 191.438 361.177 191.532 361.049 191.777C360.92 192.021 361.014 192.324 361.259 192.452L361.724 191.567ZM355.509 189.075C355.741 189.226 356.051 189.161 356.202 188.93C356.352 188.699 356.287 188.389 356.056 188.238L355.509 189.075ZM350.728 184.389C350.512 184.217 350.197 184.252 350.025 184.468C349.853 184.684 349.889 184.999 350.105 185.171L350.728 184.389ZM345.091 180.776C345.29 180.967 345.606 180.961 345.798 180.762C345.989 180.564 345.984 180.247 345.785 180.055L345.091 180.776ZM341.27 175.277C341.09 175.068 340.775 175.044 340.565 175.224C340.356 175.404 340.332 175.719 340.512 175.929L341.27 175.277ZM336.409 170.673C336.568 170.899 336.88 170.952 337.106 170.793C337.331 170.633 337.385 170.321 337.225 170.096L336.409 170.673ZM333.686 164.557C333.549 164.317 333.243 164.235 333.004 164.372C332.764 164.51 332.682 164.815 332.819 165.055L333.686 164.557ZM329.777 159.121C329.891 159.373 330.187 159.484 330.439 159.37C330.69 159.256 330.802 158.959 330.687 158.708L329.777 159.121ZM328.257 152.601C328.168 152.34 327.883 152.201 327.622 152.291C327.361 152.38 327.222 152.665 327.312 152.926L328.257 152.601ZM325.447 146.524C325.512 146.793 325.782 146.958 326.05 146.894C326.319 146.829 326.484 146.559 326.42 146.291L325.447 146.524ZM325.19 139.834C325.152 139.56 324.898 139.37 324.625 139.409C324.352 139.447 324.161 139.7 324.2 139.974L325.19 139.834ZM323.577 133.334C323.59 133.61 323.824 133.824 324.1 133.811C324.376 133.798 324.589 133.564 324.576 133.288L323.577 133.334ZM324.576 126.712C324.589 126.436 324.376 126.202 324.1 126.189C323.824 126.176 323.59 126.39 323.577 126.666L324.576 126.712ZM324.2 120.026C324.161 120.3 324.352 120.553 324.625 120.591C324.898 120.63 325.152 120.44 325.19 120.166L324.2 120.026ZM326.42 113.709C326.484 113.441 326.319 113.171 326.05 113.106C325.782 113.042 325.512 113.207 325.447 113.476L326.42 113.709ZM327.312 107.074C327.222 107.335 327.361 107.62 327.622 107.709C327.883 107.799 328.168 107.66 328.257 107.399L327.312 107.074ZM330.687 101.292C330.802 101.041 330.69 100.744 330.439 100.63C330.187 100.516 329.891 100.627 329.777 100.879L330.687 101.292ZM332.819 94.9454C332.682 95.1848 332.764 95.4904 333.004 95.6279C333.243 95.7654 333.549 95.6828 333.686 95.4433L332.819 94.9454ZM337.225 89.9042C337.385 89.6788 337.331 89.3667 337.106 89.2072C336.88 89.0478 336.568 89.1012 336.409 89.3266L337.225 89.9042ZM340.512 84.0711C340.332 84.2806 340.356 84.5963 340.565 84.7762C340.775 84.9562 341.09 84.9324 341.27 84.723L340.512 84.0711ZM345.785 79.9446C345.984 79.753 345.989 79.4365 345.798 79.2376C345.606 79.0388 345.29 79.0329 345.091 79.2245L345.785 79.9446ZM350.105 74.8292C349.889 75.0012 349.853 75.3158 350.025 75.5318C350.197 75.7478 350.512 75.7834 350.728 75.6113L350.105 74.8292ZM356.056 71.7622C356.287 71.6112 356.352 71.3014 356.202 71.0702C356.051 70.839 355.741 70.7739 355.509 70.9248L356.056 71.7622ZM361.259 67.5479C361.014 67.6763 360.92 67.9786 361.049 68.2231C361.177 68.4675 361.479 68.5616 361.724 68.4332L361.259 67.5479ZM367.681 65.6561C367.937 65.5515 368.059 65.2595 367.954 65.004C367.85 64.7484 367.558 64.6261 367.302 64.7307L367.681 65.6561ZM373.586 62.5008C373.322 62.5807 373.172 62.8597 373.252 63.124C373.332 63.3884 373.611 63.538 373.875 63.4581L373.586 62.5008ZM380.251 61.8597C380.522 61.8054 380.697 61.5418 380.643 61.2711C380.589 61.0003 380.325 60.8249 380.054 60.8792L380.251 61.8597ZM386.647 59.8789C386.372 59.9073 386.173 60.1531 386.201 60.4277C386.23 60.7024 386.476 60.902 386.75 60.8735L386.647 59.8789ZM390.5 57.5843C390.5 57.3081 390.276 57.0843 390 57.0843C389.724 57.0843 389.5 57.3081 389.5 57.5843H390.5ZM389.5 52.5281C389.5 52.8042 389.724 53.0281 390 53.0281C390.276 53.0281 390.5 52.8042 390.5 52.5281H389.5ZM389.703 45.9806C389.597 45.7255 389.305 45.6045 389.05 45.7103C388.795 45.816 388.674 46.1086 388.779 46.3636L389.703 45.9806ZM383.636 41.2207C383.891 41.3264 384.184 41.2054 384.29 40.9503C384.396 40.6953 384.274 40.4027 384.019 40.2969L383.636 41.2207ZM376.562 39.5C376.286 39.5 376.062 39.7239 376.062 40C376.062 40.2761 376.286 40.5 376.562 40.5V39.5ZM369.688 40.5C369.964 40.5 370.188 40.2761 370.188 40C370.188 39.7239 369.964 39.5 369.688 39.5V40.5ZM362.812 39.5C362.536 39.5 362.312 39.7239 362.312 40C362.312 40.2761 362.536 40.5 362.812 40.5V39.5ZM355.938 40.5C356.214 40.5 356.438 40.2761 356.438 40C356.438 39.7239 356.214 39.5 355.938 39.5V40.5ZM349.062 39.5C348.786 39.5 348.562 39.7239 348.562 40C348.562 40.2761 348.786 40.5 349.062 40.5V39.5ZM342.188 40.5C342.464 40.5 342.688 40.2761 342.688 40C342.688 39.7239 342.464 39.5 342.188 39.5V40.5ZM335.312 39.5C335.036 39.5 334.812 39.7239 334.812 40C334.812 40.2761 335.036 40.5 335.312 40.5V39.5ZM328.438 40.5C328.714 40.5 328.938 40.2761 328.938 40C328.938 39.7239 328.714 39.5 328.438 39.5V40.5ZM321.562 39.5C321.286 39.5 321.062 39.7239 321.062 40C321.062 40.2761 321.286 40.5 321.562 40.5V39.5ZM314.688 40.5C314.964 40.5 315.188 40.2761 315.188 40C315.188 39.7239 314.964 39.5 314.688 39.5V40.5ZM307.812 39.5C307.536 39.5 307.312 39.7239 307.312 40C307.312 40.2761 307.536 40.5 307.812 40.5V39.5ZM300.938 40.5C301.214 40.5 301.438 40.2761 301.438 40C301.438 39.7239 301.214 39.5 300.938 39.5V40.5ZM294.062 39.5C293.786 39.5 293.562 39.7239 293.562 40C293.562 40.2761 293.786 40.5 294.062 40.5V39.5ZM287.188 40.5C287.464 40.5 287.688 40.2761 287.688 40C287.688 39.7239 287.464 39.5 287.188 39.5V40.5ZM280.312 39.5C280.036 39.5 279.812 39.7239 279.812 40C279.812 40.2761 280.036 40.5 280.312 40.5V39.5ZM273.438 40.5C273.714 40.5 273.938 40.2761 273.938 40C273.938 39.7239 273.714 39.5 273.438 39.5V40.5ZM266.562 39.5C266.286 39.5 266.062 39.7239 266.062 40C266.062 40.2761 266.286 40.5 266.562 40.5V39.5ZM259.688 40.5C259.964 40.5 260.188 40.2761 260.188 40C260.188 39.7239 259.964 39.5 259.688 39.5V40.5ZM252.812 39.5C252.536 39.5 252.312 39.7239 252.312 40C252.312 40.2761 252.536 40.5 252.812 40.5V39.5ZM245.938 40.5C246.214 40.5 246.438 40.2761 246.438 40C246.438 39.7239 246.214 39.5 245.938 39.5V40.5ZM239.062 39.5C238.786 39.5 238.562 39.7239 238.562 40C238.562 40.2761 238.786 40.5 239.062 40.5V39.5ZM232.188 40.5C232.464 40.5 232.688 40.2761 232.688 40C232.688 39.7239 232.464 39.5 232.188 39.5V40.5ZM225.312 39.5C225.036 39.5 224.812 39.7239 224.812 40C224.812 40.2761 225.036 40.5 225.312 40.5V39.5ZM218.438 40.5C218.714 40.5 218.938 40.2761 218.938 40C218.938 39.7239 218.714 39.5 218.438 39.5V40.5ZM211.562 39.5C211.286 39.5 211.062 39.7239 211.062 40C211.062 40.2761 211.286 40.5 211.562 40.5V39.5ZM204.688 40.5C204.964 40.5 205.188 40.2761 205.188 40C205.188 39.7239 204.964 39.5 204.688 39.5V40.5ZM197.812 39.5C197.536 39.5 197.312 39.7239 197.312 40C197.312 40.2761 197.536 40.5 197.812 40.5V39.5ZM190.938 40.5C191.214 40.5 191.438 40.2761 191.438 40C191.438 39.7239 191.214 39.5 190.938 39.5V40.5ZM184.062 39.5C183.786 39.5 183.562 39.7239 183.562 40C183.562 40.2761 183.786 40.5 184.062 40.5V39.5ZM177.188 40.5C177.464 40.5 177.688 40.2761 177.688 40C177.688 39.7239 177.464 39.5 177.188 39.5V40.5ZM170.312 39.5C170.036 39.5 169.812 39.7239 169.812 40C169.812 40.2761 170.036 40.5 170.312 40.5V39.5ZM163.438 40.5C163.714 40.5 163.938 40.2761 163.938 40C163.938 39.7239 163.714 39.5 163.438 39.5V40.5ZM156.563 39.5C156.286 39.5 156.063 39.7239 156.063 40C156.063 40.2761 156.286 40.5 156.563 40.5V39.5ZM149.687 40.5C149.964 40.5 150.187 40.2761 150.187 40C150.187 39.7239 149.964 39.5 149.687 39.5V40.5ZM142.812 39.5C142.536 39.5 142.312 39.7239 142.312 40C142.312 40.2761 142.536 40.5 142.812 40.5V39.5ZM135.938 40.5C136.214 40.5 136.438 40.2761 136.438 40C136.438 39.7239 136.214 39.5 135.938 39.5V40.5ZM129.062 39.5C128.786 39.5 128.562 39.7239 128.562 40C128.562 40.2761 128.786 40.5 129.062 40.5V39.5ZM122.188 40.5C122.464 40.5 122.688 40.2761 122.688 40C122.688 39.7239 122.464 39.5 122.188 39.5V40.5ZM115.313 39.5C115.036 39.5 114.813 39.7239 114.813 40C114.813 40.2761 115.036 40.5 115.313 40.5V39.5ZM108.437 40.5C108.714 40.5 108.937 40.2761 108.937 40C108.937 39.7239 108.714 39.5 108.437 39.5V40.5ZM101.562 39.5C101.286 39.5 101.062 39.7239 101.062 40C101.062 40.2761 101.286 40.5 101.562 40.5V39.5ZM94.6875 40.5C94.9636 40.5 95.1875 40.2761 95.1875 40C95.1875 39.7239 94.9636 39.5 94.6875 39.5V40.5ZM87.8125 39.5C87.5364 39.5 87.3125 39.7239 87.3125 40C87.3125 40.2761 87.5364 40.5 87.8125 40.5V39.5ZM80.9375 40.5C81.2136 40.5 81.4375 40.2761 81.4375 40C81.4375 39.7239 81.2136 39.5 80.9375 39.5V40.5ZM74.0625 39.5C73.7864 39.5 73.5625 39.7239 73.5625 40C73.5625 40.2761 73.7864 40.5 74.0625 40.5V39.5ZM67.1875 40.5C67.4636 40.5 67.6875 40.2761 67.6875 40C67.6875 39.7239 67.4636 39.5 67.1875 39.5V40.5ZM60.3125 39.5C60.0364 39.5 59.8125 39.7239 59.8125 40C59.8125 40.2761 60.0364 40.5 60.3125 40.5V39.5ZM53.4375 40.5C53.7136 40.5 53.9375 40.2761 53.9375 40C53.9375 39.7239 53.7136 39.5 53.4375 39.5V40.5ZM45.9806 40.2969C45.7255 40.4027 45.6045 40.6953 45.7103 40.9503C45.816 41.2054 46.1086 41.3264 46.3636 41.2207L45.9806 40.2969ZM41.2207 46.3637C41.3264 46.1086 41.2054 45.816 40.9503 45.7103C40.6953 45.6045 40.4027 45.7255 40.2969 45.9806L41.2207 46.3637ZM39.5 50V53.6364H40.5V50H39.5ZM39.5 60.9091V68.1818H40.5V60.9091H39.5ZM39.5 75.4545V82.7273H40.5V75.4545H39.5ZM39.5 90V97.2727H40.5V90H39.5ZM39.5 104.545V111.818H40.5V104.545H39.5ZM39.5 119.091V126.364H40.5V119.091H39.5ZM39.5 133.636V140.909H40.5V133.636H39.5ZM39.5 148.182V155.455H40.5V148.182H39.5ZM39.5 162.727V170H40.5V162.727H39.5ZM39.5 177.273V184.545H40.5V177.273H39.5ZM39.5 191.818V199.091H40.5V191.818H39.5ZM39.5 206.364V210H40.5V206.364H39.5ZM39.5 210C39.5 211.423 39.7833 212.781 40.2969 214.019L41.2207 213.636C40.7565 212.517 40.5 211.289 40.5 210H39.5ZM45.9806 219.703C47.2193 220.217 48.5772 220.5 50 220.5V219.5C48.711 219.5 47.4831 219.244 46.3636 218.779L45.9806 219.703ZM50 220.5H53.4375V219.5H50V220.5ZM60.3125 220.5H67.1875V219.5H60.3125V220.5ZM74.0625 220.5H80.9375V219.5H74.0625V220.5ZM87.8125 220.5H94.6875V219.5H87.8125V220.5ZM101.562 220.5H108.438V219.5H101.562V220.5ZM115.312 220.5H122.188V219.5H115.312V220.5ZM129.062 220.5H135.937V219.5H129.062V220.5ZM142.812 220.5H149.688V219.5H142.812V220.5ZM156.562 220.5H163.438V219.5H156.562V220.5ZM170.312 220.5H177.188V219.5H170.312V220.5ZM184.062 220.5H190.938V219.5H184.062V220.5ZM197.812 220.5H204.688V219.5H197.812V220.5ZM211.562 220.5H218.438V219.5H211.562V220.5ZM225.312 220.5H232.188V219.5H225.312V220.5ZM239.062 220.5H245.938V219.5H239.062V220.5ZM252.812 220.5H259.688V219.5H252.812V220.5ZM266.562 220.5H273.438V219.5H266.562V220.5ZM280.312 220.5H287.188V219.5H280.312V220.5ZM294.062 220.5H300.938V219.5H294.062V220.5ZM307.812 220.5H314.688V219.5H307.812V220.5ZM321.562 220.5H328.438V219.5H321.562V220.5ZM335.312 220.5H342.188V219.5H335.312V220.5ZM349.062 220.5H355.938V219.5H349.062V220.5ZM362.812 220.5H369.688V219.5H362.812V220.5ZM376.562 220.5H380V219.5H376.562V220.5ZM380 220.5C381.423 220.5 382.781 220.217 384.019 219.703L383.636 218.779C382.517 219.244 381.289 219.5 380 219.5V220.5ZM389.703 214.019C390.217 212.781 390.5 211.423 390.5 210H389.5C389.5 211.289 389.244 212.517 388.779 213.636L389.703 214.019ZM390.5 210V207.472H389.5V210H390.5ZM390.5 202.416V199.888H389.5V202.416H390.5ZM390.028 199.388C388.928 199.326 387.836 199.239 386.75 199.126L386.647 200.121C387.748 200.235 388.857 200.324 389.972 200.387L390.028 199.388ZM380.251 198.14C378.088 197.706 375.961 197.172 373.875 196.542L373.586 197.499C375.702 198.138 377.86 198.68 380.054 199.121L380.251 198.14ZM367.681 194.344C365.645 193.51 363.658 192.583 361.724 191.567L361.259 192.452C363.221 193.483 365.237 194.424 367.302 195.269L367.681 194.344ZM356.056 188.238C354.218 187.038 352.44 185.753 350.728 184.389L350.105 185.171C351.841 186.554 353.645 187.858 355.509 189.075L356.056 188.238ZM345.785 180.055C344.206 178.535 342.7 176.94 341.27 175.277L340.512 175.929C341.962 177.616 343.49 179.233 345.091 180.776L345.785 180.055ZM337.225 170.096C335.962 168.31 334.78 166.462 333.686 164.557L332.819 165.055C333.929 166.987 335.127 168.862 336.409 170.673L337.225 170.096ZM330.687 158.708C329.785 156.721 328.973 154.683 328.257 152.601L327.312 152.926C328.038 155.038 328.861 157.105 329.777 159.121L330.687 158.708ZM326.42 146.291C325.911 144.174 325.5 142.02 325.19 139.834L324.2 139.974C324.514 142.192 324.932 144.377 325.447 146.524L326.42 146.291ZM324.576 133.288C324.526 132.198 324.5 131.102 324.5 130H323.5C323.5 131.118 323.526 132.229 323.577 133.334L324.576 133.288ZM324.5 130C324.5 128.898 324.526 127.802 324.576 126.712L323.577 126.666C323.526 127.771 323.5 128.882 323.5 130H324.5ZM325.19 120.166C325.5 117.98 325.911 115.826 326.42 113.709L325.447 113.476C324.932 115.623 324.514 117.808 324.2 120.026L325.19 120.166ZM328.257 107.399C328.973 105.317 329.785 103.279 330.687 101.292L329.777 100.879C328.861 102.895 328.038 104.962 327.312 107.074L328.257 107.399ZM333.686 95.4433C334.78 93.5384 335.962 91.6902 337.225 89.9042L336.409 89.3266C335.127 91.1382 333.929 93.013 332.819 94.9454L333.686 95.4433ZM341.27 84.723C342.7 83.0599 344.206 81.4653 345.785 79.9446L345.091 79.2245C343.49 80.7669 341.962 82.3843 340.512 84.0711L341.27 84.723ZM350.728 75.6113C352.44 74.2472 354.218 72.9624 356.056 71.7622L355.509 70.9248C353.645 72.1423 351.841 73.4456 350.105 74.8292L350.728 75.6113ZM361.724 68.4332C363.658 67.4172 365.645 66.4898 367.681 65.6561L367.302 64.7307C365.237 65.5764 363.221 66.5173 361.259 67.5479L361.724 68.4332ZM373.875 63.4581C375.961 62.8283 378.088 62.2938 380.251 61.8597L380.054 60.8792C377.86 61.3196 375.702 61.8618 373.586 62.5008L373.875 63.4581ZM386.75 60.8735C387.836 60.761 388.928 60.6735 390.028 60.6116L389.972 59.6132C388.857 59.676 387.748 59.7648 386.647 59.8789L386.75 60.8735ZM390.5 60.1124V57.5843H389.5V60.1124H390.5ZM390.5 52.5281V50H389.5V52.5281H390.5ZM390.5 50C390.5 48.5772 390.217 47.2193 389.703 45.9806L388.779 46.3636C389.244 47.4831 389.5 48.711 389.5 50H390.5ZM384.019 40.2969C382.781 39.7833 381.423 39.5 380 39.5V40.5C381.289 40.5 382.517 40.7565 383.636 41.2207L384.019 40.2969ZM380 39.5H376.562V40.5H380V39.5ZM369.688 39.5H362.812V40.5H369.688V39.5ZM355.938 39.5H349.062V40.5H355.938V39.5ZM342.188 39.5H335.312V40.5H342.188V39.5ZM328.438 39.5H321.562V40.5H328.438V39.5ZM314.688 39.5H307.812V40.5H314.688V39.5ZM300.938 39.5H294.062V40.5H300.938V39.5ZM287.188 39.5H280.312V40.5H287.188V39.5ZM273.438 39.5H266.562V40.5H273.438V39.5ZM259.688 39.5H252.812V40.5H259.688V39.5ZM245.938 39.5H239.062V40.5H245.938V39.5ZM232.188 39.5H225.312V40.5H232.188V39.5ZM218.438 39.5H211.562V40.5H218.438V39.5ZM204.688 39.5H197.812V40.5H204.688V39.5ZM190.938 39.5H184.062V40.5H190.938V39.5ZM177.188 39.5H170.312V40.5H177.188V39.5ZM163.438 39.5H156.563V40.5H163.438V39.5ZM149.687 39.5H142.812V40.5H149.687V39.5ZM135.938 39.5H129.062V40.5H135.938V39.5ZM122.188 39.5H115.313V40.5H122.188V39.5ZM108.437 39.5H101.562V40.5H108.437V39.5ZM94.6875 39.5H87.8125V40.5H94.6875V39.5ZM80.9375 39.5H74.0625V40.5H80.9375V39.5ZM67.1875 39.5H60.3125V40.5H67.1875V39.5ZM53.4375 39.5H50V40.5H53.4375V39.5ZM50 39.5C48.5772 39.5 47.2193 39.7833 45.9806 40.2969L46.3636 41.2207C47.4831 40.7565 48.711 40.5 50 40.5V39.5ZM40.2969 45.9806C39.7833 47.2193 39.5 48.5772 39.5 50H40.5C40.5 48.711 40.7565 47.4831 41.2207 46.3637L40.2969 45.9806Z" fill="#E5E5E5"/>
</g>
<defs>
<filter id="filter0_d" x="0" y="0" width="430" height="260" filterUnits="userSpaceOnUse" color-interpolation-filters="sRGB">
<feFlood flood-opacity="0" result="BackgroundImageFix"/>
<feColorMatrix in="SourceAlpha" type="matrix" values="0 0 0 0 0 0 0 0 0 0 0 0 0 0 0 0 0 0 127 0"/>
<feOffset/>
<feGaussianBlur stdDeviation="15"/>
<feColorMatrix type="matrix" values="0 0 0 0 0 0 0 0 0 0 0 0 0 0 0 0 0 0 0.1 0"/>
<feBlend mode="normal" in2="BackgroundImageFix" result="effect1_dropShadow"/>
<feBlend mode="normal" in="SourceGraphic" in2="effect1_dropShadow" result="shape"/>
</filter>
<filter id="filter1_d" x="9.5" y="9.5" width="411" height="241" filterUnits="userSpaceOnUse" color-interpolation-filters="sRGB">
<feFlood flood-opacity="0" result="BackgroundImageFix"/>
<feColorMatrix in="SourceAlpha" type="matrix" values="0 0 0 0 0 0 0 0 0 0 0 0 0 0 0 0 0 0 127 0"/>
<feOffset/>
<feGaussianBlur stdDeviation="15"/>
<feColorMatrix type="matrix" values="0 0 0 0 0 0 0 0 0 0 0 0 0 0 0 0 0 0 0.1 0"/>
<feBlend mode="normal" in2="BackgroundImageFix" result="effect1_dropShadow"/>
<feBlend mode="normal" in="SourceGraphic" in2="effect1_dropShadow" result="shape"/>
</filter>
<linearGradient id="paint0_linear" x1="397.636" y1="180" x2="397.636" y2="80" gradientUnits="userSpaceOnUse">
<stop stop-color="#FCCB05"/>
<stop offset="1" stop-color="#FFE57D"/>
</linearGradient>
<linearGradient id="paint1_linear" x1="397.636" y1="180" x2="397.636" y2="80" gradientUnits="userSpaceOnUse">
<stop stop-color="#FCCB05"/>
<stop offset="1" stop-color="#FFE57D"/>
</linearGradient>
</defs>
</svg>
