<svg width="430" height="360" viewBox="0 0 430 360" fill="none" xmlns="http://www.w3.org/2000/svg">
<path d="M265 50C265 77.6142 242.614 100 215 100C187.386 100 165 77.6142 165 50C165 22.3858 187.386 0 215 0C242.614 0 265 22.3858 265 50Z" fill="url(#paint0_linear)"/>
<mask id="mask0" mask-type="alpha" maskUnits="userSpaceOnUse" x="165" y="0" width="100" height="100">
<circle cx="215" cy="50" r="50" fill="url(#paint1_linear)"/>
</mask>
<g mask="url(#mask0)">
<path d="M212.707 22.8935C213.44 21.407 215.56 21.407 216.293 22.8935L222.457 35.3817C223.039 36.5623 224.166 37.3806 225.469 37.5699L239.25 39.5725C240.89 39.8108 241.546 41.8268 240.358 42.9838L230.386 52.7045C229.443 53.6235 229.013 54.9475 229.236 56.2451L231.59 69.9709C231.87 71.6047 230.155 72.8507 228.688 72.0793L216.361 65.5988C215.196 64.9862 213.804 64.9862 212.639 65.5988L200.312 72.0793C198.845 72.8507 197.13 71.6047 197.41 69.9709L199.764 56.2451C199.987 54.9475 199.557 53.6235 198.614 52.7045L188.642 42.9838C187.454 41.8268 188.11 39.8108 189.75 39.5725L203.531 37.5699C204.834 37.3806 205.961 36.5623 206.543 35.3817L212.707 22.8935Z" stroke="white" stroke-width="2" style="mix-blend-mode:overlay"/>
<path d="M213.603 37.0765C213.97 36.3333 215.03 36.3333 215.397 37.0765L217.987 42.3253C218.424 43.2107 219.269 43.8244 220.246 43.9664L226.038 44.8081C226.859 44.9273 227.186 45.9352 226.593 46.5138L222.401 50.5994C221.694 51.2886 221.371 52.2816 221.538 53.2548L222.528 59.0237C222.668 59.8406 221.81 60.4636 221.077 60.0779L215.896 57.3542C215.022 56.8947 213.978 56.8947 213.104 57.3542L207.923 60.0779C207.19 60.4636 206.332 59.8406 206.472 59.0237L207.462 53.2548C207.629 52.2816 207.306 51.2886 206.599 50.5994L202.407 46.5138C201.814 45.9352 202.141 44.9273 202.962 44.8081L208.754 43.9664C209.731 43.8244 210.576 43.2107 211.013 42.3253L213.603 37.0765Z" stroke="white" stroke-width="2" style="mix-blend-mode:overlay"/>
</g>
<g filter="url(#filter0_d)">
<path fill-rule="evenodd" clip-rule="evenodd" d="M152.709 63H40C34.4772 63 30 67.4772 30 73V320C30 325.523 34.4771 330 40 330H390C395.523 330 400 325.523 400 320V73C400 67.4772 395.523 63 390 63H278.148C273.558 91.8676 247.226 114 215.429 114C183.632 114 157.299 91.8676 152.709 63Z" fill="white"/>
</g>
<g filter="url(#filter1_d)">
<path d="M148.609 73L149.091 72.8646L148.988 72.5H148.609V73ZM283.391 73V72.5H283.012L282.909 72.8646L283.391 73ZM45.9806 73.2969C45.7255 73.4027 45.6045 73.6953 45.7103 73.9503C45.816 74.2054 46.1086 74.3264 46.3636 74.2207L45.9806 73.2969ZM41.2207 79.3637C41.3264 79.1086 41.2054 78.816 40.9503 78.7103C40.6953 78.6045 40.4027 78.7255 40.2969 78.9806L41.2207 79.3637ZM39.5 86.5469C39.5 86.823 39.7239 87.0469 40 87.0469C40.2761 87.0469 40.5 86.823 40.5 86.5469H39.5ZM40.5 93.6406C40.5 93.3645 40.2761 93.1406 40 93.1406C39.7239 93.1406 39.5 93.3645 39.5 93.6406H40.5ZM39.5 100.734C39.5 101.011 39.7239 101.234 40 101.234C40.2761 101.234 40.5 101.011 40.5 100.734H39.5ZM40.5 107.828C40.5 107.552 40.2761 107.328 40 107.328C39.7239 107.328 39.5 107.552 39.5 107.828H40.5ZM39.5 114.922C39.5 115.198 39.7239 115.422 40 115.422C40.2761 115.422 40.5 115.198 40.5 114.922H39.5ZM40.5 122.016C40.5 121.739 40.2761 121.516 40 121.516C39.7239 121.516 39.5 121.739 39.5 122.016H40.5ZM39.5 129.109C39.5 129.386 39.7239 129.609 40 129.609C40.2761 129.609 40.5 129.386 40.5 129.109H39.5ZM40.5 136.203C40.5 135.927 40.2761 135.703 40 135.703C39.7239 135.703 39.5 135.927 39.5 136.203H40.5ZM39.5 143.297C39.5 143.573 39.7239 143.797 40 143.797C40.2761 143.797 40.5 143.573 40.5 143.297H39.5ZM40.5 150.391C40.5 150.114 40.2761 149.891 40 149.891C39.7239 149.891 39.5 150.114 39.5 150.391H40.5ZM39.5 157.484C39.5 157.761 39.7239 157.984 40 157.984C40.2761 157.984 40.5 157.761 40.5 157.484H39.5ZM40.5 164.578C40.5 164.302 40.2761 164.078 40 164.078C39.7239 164.078 39.5 164.302 39.5 164.578H40.5ZM39.5 171.672C39.5 171.948 39.7239 172.172 40 172.172C40.2761 172.172 40.5 171.948 40.5 171.672H39.5ZM40.5 178.766C40.5 178.489 40.2761 178.266 40 178.266C39.7239 178.266 39.5 178.489 39.5 178.766H40.5ZM39.5 185.859C39.5 186.136 39.7239 186.359 40 186.359C40.2761 186.359 40.5 186.136 40.5 185.859H39.5ZM40.5 192.953C40.5 192.677 40.2761 192.453 40 192.453C39.7239 192.453 39.5 192.677 39.5 192.953H40.5ZM39.5 200.047C39.5 200.323 39.7239 200.547 40 200.547C40.2761 200.547 40.5 200.323 40.5 200.047H39.5ZM40.5 207.141C40.5 206.864 40.2761 206.641 40 206.641C39.7239 206.641 39.5 206.864 39.5 207.141H40.5ZM39.5 214.234C39.5 214.511 39.7239 214.734 40 214.734C40.2761 214.734 40.5 214.511 40.5 214.234H39.5ZM40.5 221.328C40.5 221.052 40.2761 220.828 40 220.828C39.7239 220.828 39.5 221.052 39.5 221.328H40.5ZM39.5 228.422C39.5 228.698 39.7239 228.922 40 228.922C40.2761 228.922 40.5 228.698 40.5 228.422H39.5ZM40.5 235.516C40.5 235.239 40.2761 235.016 40 235.016C39.7239 235.016 39.5 235.239 39.5 235.516H40.5ZM39.5 242.609C39.5 242.886 39.7239 243.109 40 243.109C40.2761 243.109 40.5 242.886 40.5 242.609H39.5ZM40.5 249.703C40.5 249.427 40.2761 249.203 40 249.203C39.7239 249.203 39.5 249.427 39.5 249.703H40.5ZM39.5 256.797C39.5 257.073 39.7239 257.297 40 257.297C40.2761 257.297 40.5 257.073 40.5 256.797H39.5ZM40.5 263.891C40.5 263.614 40.2761 263.391 40 263.391C39.7239 263.391 39.5 263.614 39.5 263.891H40.5ZM39.5 270.984C39.5 271.261 39.7239 271.484 40 271.484C40.2761 271.484 40.5 271.261 40.5 270.984H39.5ZM40.5 278.078C40.5 277.802 40.2761 277.578 40 277.578C39.7239 277.578 39.5 277.802 39.5 278.078H40.5ZM39.5 285.172C39.5 285.448 39.7239 285.672 40 285.672C40.2761 285.672 40.5 285.448 40.5 285.172H39.5ZM40.5 292.266C40.5 291.989 40.2761 291.766 40 291.766C39.7239 291.766 39.5 291.989 39.5 292.266H40.5ZM39.5 299.359C39.5 299.636 39.7239 299.859 40 299.859C40.2761 299.859 40.5 299.636 40.5 299.359H39.5ZM40.5 306.453C40.5 306.177 40.2761 305.953 40 305.953C39.7239 305.953 39.5 306.177 39.5 306.453H40.5ZM40.2969 314.019C40.4027 314.274 40.6953 314.396 40.9503 314.29C41.2054 314.184 41.3264 313.891 41.2207 313.636L40.2969 314.019ZM46.3636 318.779C46.1086 318.674 45.816 318.795 45.7103 319.05C45.6045 319.305 45.7255 319.597 45.9806 319.703L46.3636 318.779ZM53.4375 320.5C53.7136 320.5 53.9375 320.276 53.9375 320C53.9375 319.724 53.7136 319.5 53.4375 319.5V320.5ZM60.3125 319.5C60.0364 319.5 59.8125 319.724 59.8125 320C59.8125 320.276 60.0364 320.5 60.3125 320.5V319.5ZM67.1875 320.5C67.4636 320.5 67.6875 320.276 67.6875 320C67.6875 319.724 67.4636 319.5 67.1875 319.5V320.5ZM74.0625 319.5C73.7864 319.5 73.5625 319.724 73.5625 320C73.5625 320.276 73.7864 320.5 74.0625 320.5V319.5ZM80.9375 320.5C81.2136 320.5 81.4375 320.276 81.4375 320C81.4375 319.724 81.2136 319.5 80.9375 319.5V320.5ZM87.8125 319.5C87.5364 319.5 87.3125 319.724 87.3125 320C87.3125 320.276 87.5364 320.5 87.8125 320.5V319.5ZM94.6875 320.5C94.9636 320.5 95.1875 320.276 95.1875 320C95.1875 319.724 94.9636 319.5 94.6875 319.5V320.5ZM101.562 319.5C101.286 319.5 101.062 319.724 101.062 320C101.062 320.276 101.286 320.5 101.562 320.5V319.5ZM108.438 320.5C108.714 320.5 108.938 320.276 108.938 320C108.938 319.724 108.714 319.5 108.438 319.5V320.5ZM115.312 319.5C115.036 319.5 114.812 319.724 114.812 320C114.812 320.276 115.036 320.5 115.312 320.5V319.5ZM122.188 320.5C122.464 320.5 122.688 320.276 122.688 320C122.688 319.724 122.464 319.5 122.188 319.5V320.5ZM129.062 319.5C128.786 319.5 128.562 319.724 128.562 320C128.562 320.276 128.786 320.5 129.062 320.5V319.5ZM135.937 320.5C136.214 320.5 136.437 320.276 136.437 320C136.437 319.724 136.214 319.5 135.937 319.5V320.5ZM142.812 319.5C142.536 319.5 142.312 319.724 142.312 320C142.312 320.276 142.536 320.5 142.812 320.5V319.5ZM149.688 320.5C149.964 320.5 150.188 320.276 150.188 320C150.188 319.724 149.964 319.5 149.688 319.5V320.5ZM156.562 319.5C156.286 319.5 156.062 319.724 156.062 320C156.062 320.276 156.286 320.5 156.562 320.5V319.5ZM163.438 320.5C163.714 320.5 163.938 320.276 163.938 320C163.938 319.724 163.714 319.5 163.438 319.5V320.5ZM170.312 319.5C170.036 319.5 169.812 319.724 169.812 320C169.812 320.276 170.036 320.5 170.312 320.5V319.5ZM177.188 320.5C177.464 320.5 177.688 320.276 177.688 320C177.688 319.724 177.464 319.5 177.188 319.5V320.5ZM184.062 319.5C183.786 319.5 183.562 319.724 183.562 320C183.562 320.276 183.786 320.5 184.062 320.5V319.5ZM190.938 320.5C191.214 320.5 191.438 320.276 191.438 320C191.438 319.724 191.214 319.5 190.938 319.5V320.5ZM197.812 319.5C197.536 319.5 197.312 319.724 197.312 320C197.312 320.276 197.536 320.5 197.812 320.5V319.5ZM204.688 320.5C204.964 320.5 205.188 320.276 205.188 320C205.188 319.724 204.964 319.5 204.688 319.5V320.5ZM211.562 319.5C211.286 319.5 211.062 319.724 211.062 320C211.062 320.276 211.286 320.5 211.562 320.5V319.5ZM218.438 320.5C218.714 320.5 218.938 320.276 218.938 320C218.938 319.724 218.714 319.5 218.438 319.5V320.5ZM225.312 319.5C225.036 319.5 224.812 319.724 224.812 320C224.812 320.276 225.036 320.5 225.312 320.5V319.5ZM232.188 320.5C232.464 320.5 232.688 320.276 232.688 320C232.688 319.724 232.464 319.5 232.188 319.5V320.5ZM239.062 319.5C238.786 319.5 238.562 319.724 238.562 320C238.562 320.276 238.786 320.5 239.062 320.5V319.5ZM245.938 320.5C246.214 320.5 246.438 320.276 246.438 320C246.438 319.724 246.214 319.5 245.938 319.5V320.5ZM252.812 319.5C252.536 319.5 252.312 319.724 252.312 320C252.312 320.276 252.536 320.5 252.812 320.5V319.5ZM259.688 320.5C259.964 320.5 260.188 320.276 260.188 320C260.188 319.724 259.964 319.5 259.688 319.5V320.5ZM266.562 319.5C266.286 319.5 266.062 319.724 266.062 320C266.062 320.276 266.286 320.5 266.562 320.5V319.5ZM273.438 320.5C273.714 320.5 273.938 320.276 273.938 320C273.938 319.724 273.714 319.5 273.438 319.5V320.5ZM280.312 319.5C280.036 319.5 279.812 319.724 279.812 320C279.812 320.276 280.036 320.5 280.312 320.5V319.5ZM287.188 320.5C287.464 320.5 287.688 320.276 287.688 320C287.688 319.724 287.464 319.5 287.188 319.5V320.5ZM294.062 319.5C293.786 319.5 293.562 319.724 293.562 320C293.562 320.276 293.786 320.5 294.062 320.5V319.5ZM300.938 320.5C301.214 320.5 301.438 320.276 301.438 320C301.438 319.724 301.214 319.5 300.938 319.5V320.5ZM307.812 319.5C307.536 319.5 307.312 319.724 307.312 320C307.312 320.276 307.536 320.5 307.812 320.5V319.5ZM314.688 320.5C314.964 320.5 315.188 320.276 315.188 320C315.188 319.724 314.964 319.5 314.688 319.5V320.5ZM321.562 319.5C321.286 319.5 321.062 319.724 321.062 320C321.062 320.276 321.286 320.5 321.562 320.5V319.5ZM328.438 320.5C328.714 320.5 328.938 320.276 328.938 320C328.938 319.724 328.714 319.5 328.438 319.5V320.5ZM335.312 319.5C335.036 319.5 334.812 319.724 334.812 320C334.812 320.276 335.036 320.5 335.312 320.5V319.5ZM342.188 320.5C342.464 320.5 342.688 320.276 342.688 320C342.688 319.724 342.464 319.5 342.188 319.5V320.5ZM349.062 319.5C348.786 319.5 348.562 319.724 348.562 320C348.562 320.276 348.786 320.5 349.062 320.5V319.5ZM355.938 320.5C356.214 320.5 356.438 320.276 356.438 320C356.438 319.724 356.214 319.5 355.938 319.5V320.5ZM362.812 319.5C362.536 319.5 362.312 319.724 362.312 320C362.312 320.276 362.536 320.5 362.812 320.5V319.5ZM369.688 320.5C369.964 320.5 370.188 320.276 370.188 320C370.188 319.724 369.964 319.5 369.688 319.5V320.5ZM376.562 319.5C376.286 319.5 376.062 319.724 376.062 320C376.062 320.276 376.286 320.5 376.562 320.5V319.5ZM384.019 319.703C384.274 319.597 384.396 319.305 384.29 319.05C384.184 318.795 383.891 318.674 383.636 318.779L384.019 319.703ZM388.779 313.636C388.674 313.891 388.795 314.184 389.05 314.29C389.305 314.396 389.597 314.274 389.703 314.019L388.779 313.636ZM390.5 306.453C390.5 306.177 390.276 305.953 390 305.953C389.724 305.953 389.5 306.177 389.5 306.453H390.5ZM389.5 299.359C389.5 299.636 389.724 299.859 390 299.859C390.276 299.859 390.5 299.636 390.5 299.359H389.5ZM390.5 292.266C390.5 291.989 390.276 291.766 390 291.766C389.724 291.766 389.5 291.989 389.5 292.266H390.5ZM389.5 285.172C389.5 285.448 389.724 285.672 390 285.672C390.276 285.672 390.5 285.448 390.5 285.172H389.5ZM390.5 278.078C390.5 277.802 390.276 277.578 390 277.578C389.724 277.578 389.5 277.802 389.5 278.078H390.5ZM389.5 270.984C389.5 271.261 389.724 271.484 390 271.484C390.276 271.484 390.5 271.261 390.5 270.984H389.5ZM390.5 263.891C390.5 263.614 390.276 263.391 390 263.391C389.724 263.391 389.5 263.614 389.5 263.891H390.5ZM389.5 256.797C389.5 257.073 389.724 257.297 390 257.297C390.276 257.297 390.5 257.073 390.5 256.797H389.5ZM390.5 249.703C390.5 249.427 390.276 249.203 390 249.203C389.724 249.203 389.5 249.427 389.5 249.703H390.5ZM389.5 242.609C389.5 242.886 389.724 243.109 390 243.109C390.276 243.109 390.5 242.886 390.5 242.609H389.5ZM390.5 235.516C390.5 235.239 390.276 235.016 390 235.016C389.724 235.016 389.5 235.239 389.5 235.516H390.5ZM389.5 228.422C389.5 228.698 389.724 228.922 390 228.922C390.276 228.922 390.5 228.698 390.5 228.422H389.5ZM390.5 221.328C390.5 221.052 390.276 220.828 390 220.828C389.724 220.828 389.5 221.052 389.5 221.328H390.5ZM389.5 214.234C389.5 214.511 389.724 214.734 390 214.734C390.276 214.734 390.5 214.511 390.5 214.234H389.5ZM390.5 207.141C390.5 206.864 390.276 206.641 390 206.641C389.724 206.641 389.5 206.864 389.5 207.141H390.5ZM389.5 200.047C389.5 200.323 389.724 200.547 390 200.547C390.276 200.547 390.5 200.323 390.5 200.047H389.5ZM390.5 192.953C390.5 192.677 390.276 192.453 390 192.453C389.724 192.453 389.5 192.677 389.5 192.953H390.5ZM389.5 185.859C389.5 186.136 389.724 186.359 390 186.359C390.276 186.359 390.5 186.136 390.5 185.859H389.5ZM390.5 178.766C390.5 178.489 390.276 178.266 390 178.266C389.724 178.266 389.5 178.489 389.5 178.766H390.5ZM389.5 171.672C389.5 171.948 389.724 172.172 390 172.172C390.276 172.172 390.5 171.948 390.5 171.672H389.5ZM390.5 164.578C390.5 164.302 390.276 164.078 390 164.078C389.724 164.078 389.5 164.302 389.5 164.578H390.5ZM389.5 157.484C389.5 157.761 389.724 157.984 390 157.984C390.276 157.984 390.5 157.761 390.5 157.484H389.5ZM390.5 150.391C390.5 150.114 390.276 149.891 390 149.891C389.724 149.891 389.5 150.114 389.5 150.391H390.5ZM389.5 143.297C389.5 143.573 389.724 143.797 390 143.797C390.276 143.797 390.5 143.573 390.5 143.297H389.5ZM390.5 136.203C390.5 135.927 390.276 135.703 390 135.703C389.724 135.703 389.5 135.927 389.5 136.203H390.5ZM389.5 129.109C389.5 129.386 389.724 129.609 390 129.609C390.276 129.609 390.5 129.386 390.5 129.109H389.5ZM390.5 122.016C390.5 121.739 390.276 121.516 390 121.516C389.724 121.516 389.5 121.739 389.5 122.016H390.5ZM389.5 114.922C389.5 115.198 389.724 115.422 390 115.422C390.276 115.422 390.5 115.198 390.5 114.922H389.5ZM390.5 107.828C390.5 107.552 390.276 107.328 390 107.328C389.724 107.328 389.5 107.552 389.5 107.828H390.5ZM389.5 100.734C389.5 101.011 389.724 101.234 390 101.234C390.276 101.234 390.5 101.011 390.5 100.734H389.5ZM390.5 93.6406C390.5 93.3645 390.276 93.1406 390 93.1406C389.724 93.1406 389.5 93.3645 389.5 93.6406H390.5ZM389.5 86.5469C389.5 86.823 389.724 87.0469 390 87.0469C390.276 87.0469 390.5 86.823 390.5 86.5469H389.5ZM389.703 78.9806C389.597 78.7255 389.305 78.6045 389.05 78.7103C388.795 78.816 388.674 79.1086 388.779 79.3636L389.703 78.9806ZM383.636 74.2207C383.891 74.3264 384.184 74.2054 384.29 73.9503C384.396 73.6953 384.274 73.4027 384.019 73.2969L383.636 74.2207ZM376.55 72.5C376.274 72.5 376.05 72.7239 376.05 73C376.05 73.2761 376.274 73.5 376.55 73.5V72.5ZM369.649 73.5C369.925 73.5 370.149 73.2761 370.149 73C370.149 72.7239 369.925 72.5 369.649 72.5V73.5ZM362.748 72.5C362.472 72.5 362.248 72.7239 362.248 73C362.248 73.2761 362.472 73.5 362.748 73.5V72.5ZM355.848 73.5C356.124 73.5 356.348 73.2761 356.348 73C356.348 72.7239 356.124 72.5 355.848 72.5V73.5ZM348.947 72.5C348.671 72.5 348.447 72.7239 348.447 73C348.447 73.2761 348.671 73.5 348.947 73.5V72.5ZM342.046 73.5C342.322 73.5 342.546 73.2761 342.546 73C342.546 72.7239 342.322 72.5 342.046 72.5V73.5ZM335.146 72.5C334.87 72.5 334.646 72.7239 334.646 73C334.646 73.2761 334.87 73.5 335.146 73.5V72.5ZM328.245 73.5C328.521 73.5 328.745 73.2761 328.745 73C328.745 72.7239 328.521 72.5 328.245 72.5V73.5ZM321.344 72.5C321.068 72.5 320.844 72.7239 320.844 73C320.844 73.2761 321.068 73.5 321.344 73.5V72.5ZM314.444 73.5C314.72 73.5 314.944 73.2761 314.944 73C314.944 72.7239 314.72 72.5 314.444 72.5V73.5ZM307.543 72.5C307.267 72.5 307.043 72.7239 307.043 73C307.043 73.2761 307.267 73.5 307.543 73.5V72.5ZM300.642 73.5C300.918 73.5 301.142 73.2761 301.142 73C301.142 72.7239 300.918 72.5 300.642 72.5V73.5ZM293.742 72.5C293.466 72.5 293.242 72.7239 293.242 73C293.242 73.2761 293.466 73.5 293.742 73.5V72.5ZM286.841 73.5C287.117 73.5 287.341 73.2761 287.341 73C287.341 72.7239 287.117 72.5 286.841 72.5V73.5ZM281.795 76.4494C281.705 76.7107 281.845 76.9949 282.106 77.084C282.368 77.1732 282.652 77.0336 282.741 76.7722L281.795 76.4494ZM279.896 83.8309C280.013 83.5807 279.905 83.2831 279.655 83.1661C279.405 83.0492 279.107 83.1571 278.99 83.4073L279.896 83.8309ZM275.448 90.0223C275.305 90.2583 275.38 90.5659 275.616 90.7092C275.852 90.8525 276.159 90.7774 276.303 90.5414L275.448 90.0223ZM272.007 96.8244C272.175 96.6051 272.134 96.2913 271.914 96.1234C271.695 95.9555 271.381 95.9972 271.213 96.2164L272.007 96.8244ZM266.338 101.92C266.148 102.12 266.155 102.437 266.355 102.627C266.555 102.817 266.872 102.81 267.062 102.61L266.338 101.92ZM261.526 107.832C261.736 107.653 261.763 107.338 261.584 107.127C261.406 106.916 261.09 106.89 260.88 107.069L261.526 107.832ZM254.901 111.602C254.672 111.757 254.612 112.067 254.767 112.296C254.921 112.525 255.232 112.585 255.461 112.43L254.901 111.602ZM248.936 116.349C249.18 116.22 249.273 115.917 249.144 115.673C249.015 115.429 248.713 115.336 248.468 115.465L248.936 116.349ZM241.657 118.611C241.4 118.713 241.275 119.004 241.377 119.26C241.479 119.517 241.769 119.642 242.026 119.54L241.657 118.611ZM234.811 121.962C235.077 121.889 235.234 121.614 235.16 121.347C235.087 121.081 234.811 120.925 234.545 120.998L234.811 121.962ZM227.214 122.6C226.942 122.644 226.757 122.901 226.801 123.174C226.845 123.446 227.102 123.631 227.375 123.587L227.214 122.6ZM219.808 124.399C220.084 124.384 220.295 124.149 220.281 123.873C220.266 123.597 220.03 123.386 219.755 123.4L219.808 124.399ZM212.245 123.4C211.97 123.386 211.734 123.597 211.719 123.873C211.705 124.149 211.916 124.384 212.192 124.399L212.245 123.4ZM204.625 123.587C204.898 123.631 205.155 123.446 205.199 123.174C205.243 122.901 205.058 122.644 204.786 122.6L204.625 123.587ZM197.455 120.998C197.189 120.925 196.913 121.081 196.84 121.347C196.766 121.613 196.923 121.889 197.189 121.962L197.455 120.998ZM189.974 119.54C190.231 119.642 190.521 119.517 190.623 119.26C190.725 119.004 190.6 118.713 190.343 118.611L189.974 119.54ZM183.532 115.465C183.287 115.336 182.985 115.429 182.856 115.673C182.726 115.917 182.82 116.22 183.064 116.349L183.532 115.465ZM176.539 112.43C176.768 112.585 177.079 112.525 177.233 112.296C177.388 112.067 177.328 111.757 177.099 111.602L176.539 112.43ZM171.12 107.069C170.91 106.89 170.594 106.916 170.416 107.127C170.237 107.338 170.264 107.653 170.474 107.832L171.12 107.069ZM164.938 102.61C165.128 102.81 165.445 102.817 165.645 102.627C165.845 102.437 165.852 102.12 165.662 101.92L164.938 102.61ZM160.787 96.2164C160.619 95.9972 160.305 95.9555 160.086 96.1234C159.866 96.2913 159.825 96.6051 159.993 96.8244L160.787 96.2164ZM155.697 90.5414C155.841 90.7774 156.148 90.8525 156.384 90.7092C156.62 90.5659 156.695 90.2583 156.552 90.0223L155.697 90.5414ZM153.01 83.4073C152.893 83.1571 152.595 83.0492 152.345 83.1662C152.095 83.2831 151.987 83.5807 152.104 83.8309L153.01 83.4073ZM149.259 76.7722C149.348 77.0336 149.632 77.1732 149.894 77.084C150.155 76.9949 150.295 76.7107 150.205 76.4494L149.259 76.7722ZM145.088 72.5C144.811 72.5 144.588 72.7239 144.588 73C144.588 73.2761 144.811 73.5 145.088 73.5V72.5ZM138.044 73.5C138.32 73.5 138.544 73.2761 138.544 73C138.544 72.7239 138.32 72.5 138.044 72.5V73.5ZM131.001 72.5C130.724 72.5 130.501 72.7239 130.501 73C130.501 73.2761 130.724 73.5 131.001 73.5V72.5ZM123.957 73.5C124.233 73.5 124.457 73.2761 124.457 73C124.457 72.7239 124.233 72.5 123.957 72.5V73.5ZM116.913 72.5C116.637 72.5 116.413 72.7239 116.413 73C116.413 73.2761 116.637 73.5 116.913 73.5V72.5ZM109.87 73.5C110.146 73.5 110.37 73.2761 110.37 73C110.37 72.7239 110.146 72.5 109.87 72.5V73.5ZM102.826 72.5C102.55 72.5 102.326 72.7239 102.326 73C102.326 73.2761 102.55 73.5 102.826 73.5V72.5ZM95.7829 73.5C96.059 73.5 96.2829 73.2761 96.2829 73C96.2829 72.7239 96.059 72.5 95.7829 72.5V73.5ZM88.7394 72.5C88.4632 72.5 88.2394 72.7239 88.2394 73C88.2394 73.2761 88.4632 73.5 88.7394 73.5V72.5ZM81.6959 73.5C81.972 73.5 82.1959 73.2761 82.1959 73C82.1959 72.7239 81.972 72.5 81.6959 72.5V73.5ZM74.6523 72.5C74.3762 72.5 74.1523 72.7239 74.1523 73C74.1523 73.2761 74.3762 73.5 74.6523 73.5V72.5ZM67.6088 73.5C67.8849 73.5 68.1088 73.2761 68.1088 73C68.1088 72.7239 67.8849 72.5 67.6088 72.5V73.5ZM60.5653 72.5C60.2891 72.5 60.0653 72.7239 60.0653 73C60.0653 73.2761 60.2891 73.5 60.5653 73.5V72.5ZM53.5218 73.5C53.7979 73.5 54.0218 73.2761 54.0218 73C54.0218 72.7239 53.7979 72.5 53.5218 72.5V73.5ZM50 72.5C48.5772 72.5 47.2193 72.7833 45.9806 73.2969L46.3636 74.2207C47.4831 73.7565 48.711 73.5 50 73.5V72.5ZM40.2969 78.9806C39.7833 80.2193 39.5 81.5772 39.5 83H40.5C40.5 81.711 40.7565 80.4831 41.2207 79.3637L40.2969 78.9806ZM39.5 83V86.5469H40.5V83H39.5ZM39.5 93.6406V100.734H40.5V93.6406H39.5ZM39.5 107.828V114.922H40.5V107.828H39.5ZM39.5 122.016V129.109H40.5V122.016H39.5ZM39.5 136.203V143.297H40.5V136.203H39.5ZM39.5 150.391V157.484H40.5V150.391H39.5ZM39.5 164.578V171.672H40.5V164.578H39.5ZM39.5 178.766V185.859H40.5V178.766H39.5ZM39.5 192.953V200.047H40.5V192.953H39.5ZM39.5 207.141V214.234H40.5V207.141H39.5ZM39.5 221.328V228.422H40.5V221.328H39.5ZM39.5 235.516V242.609H40.5V235.516H39.5ZM39.5 249.703V256.797H40.5V249.703H39.5ZM39.5 263.891V270.984H40.5V263.891H39.5ZM39.5 278.078V285.172H40.5V278.078H39.5ZM39.5 292.266V299.359H40.5V292.266H39.5ZM39.5 306.453V310H40.5V306.453H39.5ZM39.5 310C39.5 311.423 39.7833 312.781 40.2969 314.019L41.2207 313.636C40.7565 312.517 40.5 311.289 40.5 310H39.5ZM45.9806 319.703C47.2193 320.217 48.5772 320.5 50 320.5V319.5C48.711 319.5 47.4831 319.244 46.3636 318.779L45.9806 319.703ZM50 320.5H53.4375V319.5H50V320.5ZM60.3125 320.5H67.1875V319.5H60.3125V320.5ZM74.0625 320.5H80.9375V319.5H74.0625V320.5ZM87.8125 320.5H94.6875V319.5H87.8125V320.5ZM101.562 320.5H108.438V319.5H101.562V320.5ZM115.312 320.5H122.188V319.5H115.312V320.5ZM129.062 320.5H135.937V319.5H129.062V320.5ZM142.812 320.5H149.688V319.5H142.812V320.5ZM156.562 320.5H163.438V319.5H156.562V320.5ZM170.312 320.5H177.188V319.5H170.312V320.5ZM184.062 320.5H190.938V319.5H184.062V320.5ZM197.812 320.5H204.688V319.5H197.812V320.5ZM211.562 320.5H218.438V319.5H211.562V320.5ZM225.312 320.5H232.188V319.5H225.312V320.5ZM239.062 320.5H245.938V319.5H239.062V320.5ZM252.812 320.5H259.688V319.5H252.812V320.5ZM266.562 320.5H273.438V319.5H266.562V320.5ZM280.312 320.5H287.188V319.5H280.312V320.5ZM294.062 320.5H300.938V319.5H294.062V320.5ZM307.812 320.5H314.688V319.5H307.812V320.5ZM321.562 320.5H328.438V319.5H321.562V320.5ZM335.312 320.5H342.188V319.5H335.312V320.5ZM349.062 320.5H355.938V319.5H349.062V320.5ZM362.812 320.5H369.688V319.5H362.812V320.5ZM376.562 320.5H380V319.5H376.562V320.5ZM380 320.5C381.423 320.5 382.781 320.217 384.019 319.703L383.636 318.779C382.517 319.244 381.289 319.5 380 319.5V320.5ZM389.703 314.019C390.217 312.781 390.5 311.423 390.5 310H389.5C389.5 311.289 389.244 312.517 388.779 313.636L389.703 314.019ZM390.5 310V306.453H389.5V310H390.5ZM390.5 299.359V292.266H389.5V299.359H390.5ZM390.5 285.172V278.078H389.5V285.172H390.5ZM390.5 270.984V263.891H389.5V270.984H390.5ZM390.5 256.797V249.703H389.5V256.797H390.5ZM390.5 242.609V235.516H389.5V242.609H390.5ZM390.5 228.422V221.328H389.5V228.422H390.5ZM390.5 214.234V207.141H389.5V214.234H390.5ZM390.5 200.047V192.953H389.5V200.047H390.5ZM390.5 185.859V178.766H389.5V185.859H390.5ZM390.5 171.672V164.578H389.5V171.672H390.5ZM390.5 157.484V150.391H389.5V157.484H390.5ZM390.5 143.297V136.203H389.5V143.297H390.5ZM390.5 129.109V122.016H389.5V129.109H390.5ZM390.5 114.922V107.828H389.5V114.922H390.5ZM390.5 100.734V93.6406H389.5V100.734H390.5ZM390.5 86.5469V83H389.5V86.5469H390.5ZM390.5 83C390.5 81.5772 390.217 80.2193 389.703 78.9806L388.779 79.3636C389.244 80.4831 389.5 81.711 389.5 83H390.5ZM384.019 73.2969C382.781 72.7833 381.423 72.5 380 72.5V73.5C381.289 73.5 382.517 73.7565 383.636 74.2207L384.019 73.2969ZM380 72.5H376.55V73.5H380V72.5ZM369.649 72.5H362.748V73.5H369.649V72.5ZM355.848 72.5H348.947V73.5H355.848V72.5ZM342.046 72.5H335.146V73.5H342.046V72.5ZM328.245 72.5H321.344V73.5H328.245V72.5ZM314.444 72.5H307.543V73.5H314.444V72.5ZM300.642 72.5H293.742V73.5H300.642V72.5ZM286.841 72.5H283.391V73.5H286.841V72.5ZM282.909 72.8646C282.569 74.0732 282.197 75.2684 281.795 76.4494L282.741 76.7722C283.15 75.5742 283.527 74.3616 283.872 73.1354L282.909 72.8646ZM278.99 83.4073C277.926 85.6821 276.743 87.8898 275.448 90.0223L276.303 90.5414C277.616 88.3781 278.817 86.1386 279.896 83.8309L278.99 83.4073ZM271.213 96.2164C269.691 98.205 268.063 100.109 266.338 101.92L267.062 102.61C268.812 100.773 270.463 98.8415 272.007 96.8244L271.213 96.2164ZM260.88 107.069C258.972 108.683 256.976 110.197 254.901 111.602L255.461 112.43C257.566 111.005 259.591 109.47 261.526 107.832L260.88 107.069ZM248.468 115.465C246.265 116.632 243.992 117.683 241.657 118.611L242.026 119.54C244.395 118.599 246.701 117.532 248.936 116.349L248.468 115.465ZM234.545 120.998C232.151 121.66 229.705 122.196 227.214 122.6L227.375 123.587C229.901 123.177 232.382 122.633 234.811 121.962L234.545 120.998ZM219.755 123.4C218.512 123.466 217.26 123.5 216 123.5V124.5C217.277 124.5 218.547 124.466 219.808 124.399L219.755 123.4ZM216 123.5C214.74 123.5 213.488 123.466 212.245 123.4L212.192 124.399C213.453 124.466 214.723 124.5 216 124.5V123.5ZM204.786 122.6C202.295 122.196 199.849 121.66 197.455 120.998L197.189 121.962C199.618 122.633 202.099 123.177 204.625 123.587L204.786 122.6ZM190.343 118.611C188.008 117.683 185.735 116.632 183.532 115.465L183.064 116.349C185.299 117.532 187.605 118.599 189.974 119.54L190.343 118.611ZM177.099 111.602C175.024 110.197 173.028 108.683 171.12 107.069L170.474 107.832C172.409 109.47 174.434 111.005 176.539 112.43L177.099 111.602ZM165.662 101.92C163.937 100.109 162.309 98.205 160.787 96.2164L159.993 96.8244C161.537 98.8415 163.188 100.773 164.938 102.61L165.662 101.92ZM156.552 90.0223C155.257 87.8898 154.074 85.6821 153.01 83.4073L152.104 83.8309C153.183 86.1386 154.384 88.3781 155.697 90.5414L156.552 90.0223ZM150.205 76.4494C149.803 75.2684 149.431 74.0732 149.091 72.8646L148.128 73.1354C148.473 74.3616 148.85 75.5742 149.259 76.7722L150.205 76.4494ZM148.609 72.5H145.088V73.5H148.609V72.5ZM138.044 72.5H131.001V73.5H138.044V72.5ZM123.957 72.5H116.913V73.5H123.957V72.5ZM109.87 72.5H102.826V73.5H109.87V72.5ZM95.7829 72.5H88.7394V73.5H95.7829V72.5ZM81.6959 72.5H74.6523V73.5H81.6959V72.5ZM67.6088 72.5H60.5653V73.5H67.6088V72.5ZM53.5218 72.5H50V73.5H53.5218V72.5Z" fill="#E5E5E5"/>
</g>
<defs>
<filter id="filter0_d" x="0" y="33" width="430" height="327" filterUnits="userSpaceOnUse" color-interpolation-filters="sRGB">
<feFlood flood-opacity="0" result="BackgroundImageFix"/>
<feColorMatrix in="SourceAlpha" type="matrix" values="0 0 0 0 0 0 0 0 0 0 0 0 0 0 0 0 0 0 127 0"/>
<feOffset/>
<feGaussianBlur stdDeviation="15"/>
<feColorMatrix type="matrix" values="0 0 0 0 0 0 0 0 0 0 0 0 0 0 0 0 0 0 0.1 0"/>
<feBlend mode="normal" in2="BackgroundImageFix" result="effect1_dropShadow"/>
<feBlend mode="normal" in="SourceGraphic" in2="effect1_dropShadow" result="shape"/>
</filter>
<filter id="filter1_d" x="9.5" y="42.5" width="411" height="308" filterUnits="userSpaceOnUse" color-interpolation-filters="sRGB">
<feFlood flood-opacity="0" result="BackgroundImageFix"/>
<feColorMatrix in="SourceAlpha" type="matrix" values="0 0 0 0 0 0 0 0 0 0 0 0 0 0 0 0 0 0 127 0"/>
<feOffset/>
<feGaussianBlur stdDeviation="15"/>
<feColorMatrix type="matrix" values="0 0 0 0 0 0 0 0 0 0 0 0 0 0 0 0 0 0 0.1 0"/>
<feBlend mode="normal" in2="BackgroundImageFix" result="effect1_dropShadow"/>
<feBlend mode="normal" in="SourceGraphic" in2="effect1_dropShadow" result="shape"/>
</filter>
<linearGradient id="paint0_linear" x1="165" y1="0" x2="270.512" y2="8.73402" gradientUnits="userSpaceOnUse">
<stop stop-color="#051EFC"/>
<stop offset="0.877466" stop-color="#51A1FF"/>
</linearGradient>
<linearGradient id="paint1_linear" x1="213.636" y1="100" x2="213.636" y2="-2.69316e-06" gradientUnits="userSpaceOnUse">
<stop stop-color="#FCCB05"/>
<stop offset="1" stop-color="#FFE57D"/>
</linearGradient>
</defs>
</svg>
