<svg width="333" height="196" viewBox="0 0 333 196" fill="none" xmlns="http://www.w3.org/2000/svg">
<path d="M332.986 96.9855C332.986 117.416 316.423 133.978 295.993 133.978C275.562 133.978 259 117.416 259 96.9855C259 76.5549 275.562 59.9927 295.993 59.9927C316.423 59.9927 332.986 76.5549 332.986 96.9855Z" fill="url(#paint0_linear)"/>
<mask id="mask0" mask-type="alpha" maskUnits="userSpaceOnUse" x="259" y="60" width="74" height="74">
<circle cx="296" cy="97" r="37" fill="url(#paint1_linear)"/>
</mask>
<g mask="url(#mask0)">
<path fill-rule="evenodd" clip-rule="evenodd" d="M282.079 74.9639C281.878 74.9639 281.681 74.9157 281.503 74.8233C281.325 74.7308 281.172 74.5969 281.057 74.4329C280.941 74.2688 280.868 74.0795 280.841 73.8809C280.815 73.6823 280.837 73.4804 280.906 73.2922L281.999 70.2949C279.771 70.43 277.573 70.8147 275.446 71.4367L275.302 75.5741C275.291 75.8964 275.155 76.2018 274.922 76.426C274.69 76.6502 274.38 76.7757 274.057 76.7761H274.013C273.849 76.7705 273.688 76.7327 273.539 76.6649C273.39 76.5972 273.255 76.5007 273.143 76.3811C273.032 76.2615 272.944 76.1211 272.887 75.9679C272.83 75.8147 272.803 75.6516 272.809 75.4881L272.919 72.3001C270.952 73.0728 269.062 74.0568 267.286 75.2414C267.203 75.2965 267.121 75.352 267.039 75.4079L268.183 79.3866C268.274 79.7041 268.236 80.0448 268.075 80.3337C267.915 80.6227 267.646 80.8362 267.328 80.9275C267.215 80.9605 267.097 80.9768 266.979 80.976C266.708 80.976 266.444 80.888 266.228 80.7253C266.012 80.5626 265.854 80.3341 265.779 80.0742L264.902 77.01C263.181 78.4245 261.63 80.0245 260.274 81.7774L262.594 85.2089C262.721 85.3963 262.794 85.6145 262.806 85.8402C262.818 86.0659 262.768 86.2905 262.661 86.4901C262.555 86.6896 262.396 86.8565 262.202 86.9729C262.008 87.0893 261.786 87.1508 261.56 87.1509C261.355 87.1512 261.154 87.1014 260.973 87.0058C260.793 86.9102 260.638 86.7718 260.524 86.6028L258.737 83.9595C257.808 85.4133 257.004 86.9515 256.337 88.559C256.15 89.009 255.975 89.4628 255.811 89.9199L259.079 92.4658C259.284 92.6255 259.434 92.845 259.508 93.0937C259.581 93.3423 259.575 93.6078 259.491 93.853C259.406 94.0982 259.247 94.311 259.035 94.4615C258.824 94.6121 258.57 94.693 258.311 94.6929C258.033 94.6933 257.763 94.6003 257.544 94.4288L255.026 92.4669C254.467 94.6202 254.152 96.827 254.087 99.0452L257.985 100.46C258.262 100.559 258.495 100.753 258.642 101.007C258.79 101.261 258.843 101.559 258.792 101.848C258.741 102.138 258.589 102.4 258.363 102.588C258.138 102.776 257.853 102.879 257.558 102.878C257.413 102.877 257.269 102.852 257.133 102.802L254.129 101.712C254.21 103.047 254.382 104.381 254.646 105.704C254.817 106.566 255.027 107.416 255.273 108.254L259.417 108.397C259.748 108.403 260.063 108.539 260.293 108.777C260.523 109.014 260.65 109.333 260.644 109.664C260.638 109.994 260.501 110.309 260.263 110.538C260.025 110.768 259.706 110.894 259.375 110.888H259.331L256.138 110.778C256.952 112.844 257.996 114.813 259.251 116.646L263.235 115.504C263.554 115.413 263.895 115.452 264.184 115.612C264.474 115.773 264.688 116.041 264.779 116.359C264.87 116.676 264.831 117.017 264.671 117.306C264.51 117.595 264.241 117.808 263.923 117.899L260.854 118.778C261.46 119.513 262.103 120.221 262.782 120.898C263.681 121.795 264.633 122.63 265.632 123.4L269.071 121.084C269.207 120.993 269.359 120.929 269.52 120.896C269.681 120.863 269.846 120.862 270.007 120.894C270.168 120.925 270.321 120.987 270.458 121.078C270.595 121.168 270.712 121.284 270.804 121.42C270.896 121.555 270.96 121.708 270.992 121.868C271.025 122.028 271.026 122.193 270.995 122.354C270.963 122.515 270.901 122.667 270.81 122.804C270.72 122.94 270.603 123.058 270.468 123.149L267.818 124.934C269.693 126.128 271.697 127.109 273.795 127.857L276.345 124.592C276.551 124.337 276.848 124.173 277.174 124.135C277.5 124.098 277.827 124.19 278.085 124.391C278.344 124.593 278.512 124.888 278.555 125.212C278.597 125.537 278.51 125.865 278.312 126.125L276.346 128.64C276.894 128.782 277.446 128.908 278.003 129.019C279.635 129.343 281.284 129.528 282.933 129.576L284.35 125.684C284.404 125.528 284.489 125.383 284.599 125.26C284.709 125.136 284.843 125.035 284.993 124.964C285.143 124.892 285.305 124.852 285.471 124.844C285.636 124.835 285.802 124.861 285.958 124.917C286.114 124.974 286.257 125.061 286.379 125.173C286.501 125.286 286.599 125.422 286.667 125.572C286.736 125.723 286.774 125.886 286.779 126.052C286.783 126.217 286.755 126.382 286.695 126.537L285.603 129.534C287.819 129.4 290.018 129.018 292.157 128.392L292.3 124.26C292.317 123.932 292.461 123.623 292.701 123.399C292.942 123.175 293.26 123.052 293.589 123.058C293.753 123.064 293.914 123.101 294.063 123.169C294.213 123.237 294.347 123.333 294.459 123.453C294.571 123.573 294.658 123.713 294.715 123.866C294.773 124.02 294.799 124.183 294.794 124.346L294.684 127.529C294.849 127.464 295.014 127.398 295.179 127.33C297.079 126.544 298.883 125.567 300.565 124.421L299.42 120.441C299.371 120.283 299.355 120.117 299.371 119.952C299.388 119.788 299.437 119.628 299.516 119.483C299.595 119.337 299.702 119.209 299.831 119.105C299.961 119.002 300.109 118.925 300.268 118.879C300.428 118.834 300.594 118.82 300.759 118.839C300.924 118.859 301.083 118.911 301.227 118.992C301.371 119.073 301.498 119.183 301.599 119.313C301.701 119.444 301.775 119.594 301.818 119.753L302.699 122.821C304.412 121.414 305.966 119.814 307.331 118.05L305.011 114.618C304.825 114.344 304.757 114.008 304.82 113.684C304.883 113.36 305.073 113.074 305.347 112.889C305.621 112.704 305.958 112.635 306.283 112.698C306.608 112.761 306.895 112.951 307.08 113.224L308.867 115.869C310.068 113.988 311.048 111.986 311.794 109.904L308.524 107.357C308.395 107.257 308.286 107.132 308.206 106.989C308.125 106.847 308.073 106.69 308.053 106.528C308.033 106.365 308.045 106.201 308.089 106.043C308.133 105.885 308.207 105.738 308.308 105.609C308.409 105.48 308.534 105.372 308.677 105.291C308.819 105.211 308.977 105.159 309.139 105.139C309.302 105.119 309.467 105.131 309.625 105.175C309.783 105.218 309.931 105.293 310.06 105.393L312.579 107.356C313.134 105.216 313.451 103.011 313.516 100.782L309.617 99.3664C309.313 99.2489 309.066 99.0168 308.931 98.7198C308.796 98.4228 308.782 98.0848 308.894 97.7783C309.006 97.4718 309.234 97.2213 309.529 97.0806C309.823 96.9399 310.162 96.9202 310.471 97.0258L313.472 98.1144C313.334 95.8847 312.945 93.6919 312.322 91.5744L308.187 91.431C307.856 91.4198 307.543 91.2778 307.317 91.0362C307.091 90.7946 306.97 90.4732 306.981 90.1428C306.993 89.8123 307.135 89.4999 307.377 89.2742C307.619 89.0485 307.941 88.928 308.272 88.9392L311.454 89.0487C310.64 86.9892 309.596 85.0215 308.338 83.1845L304.367 84.3232C304.255 84.3557 304.139 84.372 304.022 84.3718C303.721 84.372 303.431 84.2636 303.204 84.0667C302.976 83.8698 302.828 83.5977 302.786 83.3003C302.744 83.003 302.811 82.7005 302.975 82.4485C303.138 82.1965 303.388 82.012 303.677 81.929L306.734 81.0532C306.13 80.3219 305.489 79.6169 304.812 78.9411C303.91 78.0412 302.957 77.205 301.958 76.4354L298.533 78.7473C298.327 78.8849 298.084 78.9578 297.836 78.9565C297.569 78.9566 297.309 78.8711 297.094 78.7127C296.88 78.5543 296.721 78.3312 296.643 78.0764C296.565 77.8215 296.57 77.5483 296.659 77.2968C296.748 77.0454 296.915 76.829 297.136 76.6795L299.773 74.9022C297.896 73.7069 295.894 72.7276 293.804 71.9805L291.258 75.234C291.141 75.3837 290.992 75.5048 290.822 75.5881C290.651 75.6714 290.463 75.7148 290.273 75.7148C290.04 75.7147 289.811 75.6489 289.612 75.5251C289.414 75.4013 289.255 75.2244 289.152 75.0146C289.05 74.8048 289.009 74.5705 289.033 74.3384C289.058 74.1063 289.147 73.8857 289.291 73.7019L291.253 71.1952C289.115 70.6406 286.908 70.3215 284.669 70.2539L283.252 74.138C283.166 74.3794 283.007 74.5883 282.797 74.7361C282.587 74.884 282.336 74.9635 282.079 74.9639ZM293.487 69.2362C290.442 68.2781 287.277 67.7793 284.098 67.7501C283.984 67.7234 283.866 67.7127 283.749 67.7186C283.674 67.7224 283.6 67.7329 283.527 67.7499C281.517 67.767 279.504 67.9718 277.514 68.367C273.005 69.2625 268.76 71.1067 265.053 73.7538C264.966 73.7953 264.883 73.847 264.807 73.9078C264.763 73.9433 264.721 73.9816 264.683 74.0225C263.388 74.9747 262.162 76.0261 261.016 77.1704C259.83 78.3545 258.743 79.6241 257.763 80.9659C257.742 80.9929 257.722 81.0207 257.702 81.0493C255.794 83.6808 254.294 86.5876 253.256 89.6709C253.19 89.7754 253.141 89.8893 253.108 90.0089C253.087 90.0867 253.074 90.1662 253.069 90.2461C252.718 91.3571 252.427 92.4898 252.198 93.6398C251.121 99.0417 251.455 104.614 253.147 109.827C253.152 109.845 253.158 109.863 253.164 109.88C253.422 110.67 253.711 111.452 254.031 112.224C254.995 114.547 256.223 116.736 257.683 118.753C257.712 118.799 257.744 118.843 257.779 118.885C259.739 121.564 262.11 123.935 264.815 125.904C264.828 125.913 264.84 125.923 264.852 125.932C264.869 125.944 264.886 125.956 264.904 125.968C265.231 126.204 265.563 126.435 265.9 126.659C268.342 128.288 270.982 129.567 273.743 130.473C273.81 130.501 273.879 130.524 273.95 130.54C277.109 131.553 280.423 132.078 283.777 132.08L283.803 132.081L283.828 132.08C287.169 132.074 290.455 131.55 293.58 130.554C293.702 130.533 293.82 130.495 293.93 130.44C296.999 129.422 299.906 127.948 302.55 126.057C302.685 125.993 302.807 125.904 302.91 125.796C304.201 124.846 305.428 123.794 306.576 122.648C307.73 121.496 308.787 120.266 309.743 118.971C309.831 118.883 309.905 118.783 309.964 118.673L309.974 118.653C311.883 115.999 313.37 113.077 314.392 109.992C314.41 109.954 314.426 109.914 314.44 109.873C314.459 109.819 314.474 109.764 314.485 109.709C315.482 106.604 316.01 103.34 316.025 100.021C316.031 99.9504 316.031 99.8797 316.025 99.8095C316.014 96.5334 315.502 93.2963 314.522 90.2058C314.502 90.0471 314.452 89.8942 314.375 89.7551C313.471 87.0418 312.202 84.4466 310.594 82.0433C310.419 81.7829 310.241 81.5253 310.06 81.2705C310.013 81.1528 309.949 81.0427 309.869 80.944C309.817 80.8797 309.758 80.8209 309.695 80.7683C307.79 78.2012 305.519 75.9412 302.965 74.0549C302.891 73.9725 302.807 73.9 302.714 73.8395C302.657 73.802 302.596 73.7694 302.533 73.7419C300.552 72.3285 298.406 71.1369 296.132 70.1969C295.448 69.914 294.755 69.6553 294.056 69.4211C293.953 69.3566 293.84 69.3075 293.721 69.2757C293.644 69.2551 293.566 69.2419 293.487 69.2362ZM299.227 110.913C299.419 111.027 299.639 111.087 299.862 111.087C300.072 111.088 300.279 111.036 300.463 110.936C300.648 110.835 300.804 110.69 300.917 110.514C301.666 109.332 302.283 108.071 302.759 106.755C302.872 106.444 302.857 106.102 302.716 105.802C302.576 105.503 302.322 105.271 302.011 105.159C301.7 105.046 301.356 105.062 301.056 105.202C300.756 105.342 300.524 105.595 300.412 105.906C299.999 107.05 299.462 108.145 298.81 109.173C298.69 109.361 298.623 109.578 298.616 109.801C298.609 110.024 298.661 110.245 298.769 110.441C298.877 110.636 299.035 110.799 299.227 110.913ZM283.715 120.032H283.708C279.73 120.014 275.846 118.82 272.546 116.603C269.246 114.385 266.677 111.242 265.163 107.569C263.649 103.897 263.258 99.8594 264.039 95.9655C264.82 92.0715 266.737 88.4952 269.55 85.6872C272.363 82.8791 275.946 80.9649 279.847 80.1856C283.748 79.4063 287.793 79.7969 291.472 81.308C295.151 82.8192 298.3 85.3834 300.521 88.6776C302.743 91.9718 303.938 95.8486 303.957 99.8198C303.957 100.149 303.826 100.465 303.594 100.698C303.361 100.932 303.045 101.064 302.715 101.066H302.709C302.379 101.066 302.063 100.935 301.829 100.703C301.595 100.471 301.463 100.155 301.461 99.826C301.444 96.3469 300.395 92.9506 298.448 90.065C296.501 87.1795 293.742 84.9337 290.518 83.6105C287.295 82.2873 283.751 81.9459 280.333 82.6294C276.916 83.3128 273.777 84.9905 271.313 87.4511C268.849 89.9117 267.169 93.0452 266.486 96.4568C265.802 99.8685 266.146 103.406 267.472 106.623C268.799 109.84 271.05 112.594 273.941 114.537C276.833 116.479 280.235 117.525 283.721 117.541C284.052 117.542 284.369 117.674 284.602 117.908C284.836 118.142 284.966 118.459 284.966 118.79C284.965 119.12 284.833 119.437 284.598 119.67C284.363 119.903 284.046 120.033 283.715 120.032ZM289.428 118.619C289.652 118.807 289.936 118.911 290.229 118.911C290.374 118.911 290.518 118.886 290.654 118.836C291.938 118.372 293.171 117.775 294.331 117.055C294.613 116.881 294.813 116.602 294.889 116.28C294.964 115.958 294.909 115.62 294.734 115.339C294.559 115.058 294.28 114.858 293.958 114.783C293.635 114.707 293.296 114.763 293.015 114.937C292.002 115.567 290.926 116.088 289.805 116.494C289.529 116.594 289.298 116.788 289.151 117.041C289.004 117.295 288.951 117.592 289.001 117.88C289.052 118.169 289.203 118.43 289.428 118.619ZM283.802 105.226C282.749 105.226 281.72 104.914 280.845 104.331C279.97 103.747 279.287 102.918 278.885 101.947C278.482 100.977 278.376 99.9084 278.581 98.8779C278.786 97.8473 279.293 96.9007 280.037 96.1576C280.781 95.4146 281.73 94.9086 282.762 94.7035C283.794 94.4984 284.864 94.6035 285.837 95.0056C286.809 95.4076 287.64 96.0885 288.225 96.9621C288.81 97.8357 289.122 98.8628 289.122 99.9135C289.121 101.322 288.56 102.672 287.562 103.668C286.565 104.664 285.212 105.224 283.802 105.226ZM283.802 97.0942C283.243 97.0939 282.696 97.2592 282.232 97.569C281.767 97.8788 281.404 98.3193 281.19 98.8348C280.976 99.3502 280.92 99.9174 281.029 100.465C281.138 101.012 281.407 101.515 281.803 101.909C282.198 102.304 282.701 102.572 283.25 102.681C283.798 102.79 284.366 102.734 284.882 102.52C285.399 102.307 285.84 101.945 286.15 101.481C286.461 101.017 286.626 100.471 286.626 99.9135C286.625 99.166 286.327 98.4495 285.798 97.921C285.268 97.3925 284.551 97.0952 283.802 97.0942ZM281.774 91.9511C282.375 92.3508 283.08 92.5637 283.802 92.563C284.768 92.561 285.695 92.1766 286.378 91.494C287.061 90.8115 287.445 89.8864 287.446 88.9216C287.446 88.2013 287.232 87.4971 286.831 86.8982C286.43 86.2993 285.86 85.8326 285.193 85.5571C284.527 85.2816 283.793 85.2097 283.085 85.3505C282.377 85.4913 281.727 85.8385 281.217 86.3481C280.707 86.8578 280.36 87.5069 280.22 88.2135C280.08 88.9201 280.152 89.6524 280.429 90.3177C280.706 90.983 281.174 91.5515 281.774 91.9511ZM283.162 87.9656C283.351 87.8392 283.574 87.7718 283.802 87.7718C284.107 87.7721 284.4 87.8934 284.616 88.1089C284.832 88.3245 284.954 88.6168 284.954 88.9216C284.954 89.149 284.886 89.3714 284.76 89.5604C284.633 89.7495 284.453 89.8969 284.243 89.9839C284.032 90.071 283.801 90.0937 283.577 90.0494C283.354 90.005 283.149 89.8955 282.987 89.7347C282.826 89.5739 282.717 89.369 282.672 89.146C282.628 88.9229 282.651 88.6917 282.738 88.4816C282.825 88.2715 282.973 88.0919 283.162 87.9656ZM273.324 100.158C272.748 100.157 272.182 100.021 271.669 99.7595C271.157 99.4983 270.714 99.12 270.376 98.6553C270.038 98.1906 269.815 97.6528 269.726 97.0858C269.636 96.5187 269.682 95.9385 269.859 95.3925C270.067 94.7537 270.448 94.1847 270.96 93.7485C271.472 93.3124 272.094 93.026 272.759 92.9211C273.424 92.8162 274.105 92.8969 274.726 93.1542C275.348 93.4116 275.886 93.8355 276.281 94.3791C276.677 94.9228 276.913 95.5649 276.966 96.2346C277.018 96.9042 276.883 97.5752 276.577 98.1733C276.271 98.7715 275.805 99.2735 275.231 99.6237C274.657 99.974 273.997 100.159 273.324 100.158ZM272.233 96.1622C272.139 96.4523 272.164 96.7678 272.302 97.0395C272.441 97.3111 272.682 97.5167 272.973 97.6108C273.264 97.7049 273.58 97.68 273.852 97.5415C274.124 97.403 274.33 97.1622 274.424 96.8722C274.519 96.5822 274.494 96.2666 274.355 95.9949C274.216 95.7233 273.975 95.5178 273.684 95.4236C273.394 95.3295 273.078 95.3544 272.805 95.4929C272.533 95.6314 272.327 95.8722 272.233 96.1622ZM275.185 111.753C275.805 112.206 276.553 112.45 277.321 112.449C277.898 112.449 278.466 112.313 278.98 112.052C279.494 111.791 279.939 111.412 280.279 110.947C280.703 110.364 280.945 109.669 280.973 108.95C281.001 108.23 280.815 107.518 280.438 106.904C280.061 106.29 279.51 105.801 278.855 105.5C278.2 105.198 277.469 105.097 276.757 105.21C276.044 105.323 275.381 105.644 274.851 106.133C274.321 106.622 273.949 107.257 273.781 107.957C273.612 108.658 273.656 109.392 273.906 110.068C274.156 110.743 274.601 111.33 275.185 111.753ZM276.659 107.876C276.856 107.733 277.094 107.657 277.337 107.657C277.519 107.657 277.698 107.701 277.86 107.783C278.021 107.866 278.161 107.986 278.268 108.132C278.374 108.279 278.445 108.449 278.473 108.628C278.501 108.807 278.487 108.991 278.43 109.163C278.374 109.335 278.278 109.492 278.149 109.62C278.021 109.748 277.864 109.844 277.691 109.901C277.518 109.957 277.335 109.971 277.155 109.943C276.976 109.914 276.805 109.844 276.658 109.737C276.461 109.595 276.315 109.393 276.239 109.162C276.164 108.931 276.164 108.682 276.24 108.451C276.315 108.22 276.462 108.018 276.659 107.876ZM290.281 112.449C289.412 112.451 288.571 112.144 287.909 111.582C287.248 111.02 286.809 110.24 286.671 109.384C286.534 108.528 286.707 107.651 287.16 106.91C287.613 106.17 288.316 105.616 289.142 105.347C289.968 105.078 290.863 105.112 291.666 105.443C292.469 105.774 293.127 106.38 293.522 107.153C293.917 107.925 294.023 108.813 293.821 109.656C293.619 110.499 293.121 111.243 292.419 111.753C291.798 112.206 291.05 112.45 290.281 112.449ZM290.276 107.659C290.064 107.659 289.856 107.718 289.675 107.828C289.494 107.939 289.347 108.098 289.251 108.287C289.155 108.475 289.112 108.687 289.129 108.898C289.146 109.109 289.22 109.312 289.345 109.484C289.526 109.729 289.796 109.894 290.098 109.94C290.4 109.987 290.708 109.912 290.955 109.733C291.151 109.59 291.298 109.388 291.373 109.157C291.447 108.926 291.447 108.678 291.372 108.447C291.296 108.216 291.15 108.015 290.953 107.873C290.756 107.73 290.519 107.653 290.276 107.654V107.659ZM292.364 99.6226C292.937 99.974 293.597 100.16 294.27 100.161C294.846 100.161 295.413 100.024 295.926 99.7634C296.439 99.5023 296.883 99.1239 297.222 98.6591C297.561 98.1942 297.785 97.656 297.875 97.0883C297.966 96.5207 297.921 95.9397 297.744 95.3927C297.536 94.7541 297.155 94.1853 296.644 93.7492C296.132 93.313 295.51 93.0266 294.845 92.9214C294.181 92.8162 293.5 92.8965 292.878 93.1533C292.257 93.4101 291.718 93.8334 291.322 94.3765C290.927 94.9196 290.689 95.5613 290.636 96.2307C290.583 96.9001 290.716 97.5712 291.021 98.1698C291.326 98.7684 291.791 99.2712 292.364 99.6226ZM293.913 95.4239C294.028 95.387 294.148 95.3681 294.27 95.3678C294.513 95.3684 294.749 95.4456 294.946 95.5883C295.142 95.731 295.289 95.9319 295.364 96.1625C295.434 96.3788 295.439 96.6111 295.377 96.8299C295.315 97.0487 295.19 97.2443 295.016 97.3919C294.843 97.5396 294.63 97.6326 294.403 97.6592C294.177 97.6859 293.948 97.645 293.745 97.5417C293.542 97.4384 293.375 97.2774 293.263 97.0789C293.152 96.8805 293.102 96.6536 293.12 96.4269C293.138 96.2002 293.223 95.9839 293.364 95.8054C293.505 95.6269 293.696 95.4941 293.913 95.4239ZM268.116 141.57H253.365C253.034 141.57 252.717 141.439 252.483 141.205C252.249 140.972 252.117 140.655 252.117 140.324C252.117 139.994 252.249 139.677 252.483 139.444C252.717 139.21 253.034 139.079 253.365 139.079H268.116C268.447 139.079 268.764 139.21 268.998 139.444C269.232 139.677 269.364 139.994 269.364 140.324C269.364 140.655 269.232 140.972 268.998 141.205C268.764 141.439 268.447 141.57 268.116 141.57ZM243.337 141.57H245.696C246.027 141.57 246.344 141.439 246.578 141.205C246.813 140.972 246.944 140.655 246.944 140.324C246.944 139.994 246.813 139.677 246.578 139.444C246.344 139.21 246.027 139.079 245.696 139.079H243.337C243.006 139.079 242.689 139.21 242.455 139.444C242.221 139.677 242.089 139.994 242.089 140.324C242.089 140.655 242.221 140.972 242.455 141.205C242.689 141.439 243.006 141.57 243.337 141.57ZM253.464 125.09H239.944C239.613 125.09 239.295 124.959 239.061 124.725C238.827 124.492 238.696 124.175 238.696 123.844C238.696 123.514 238.827 123.197 239.061 122.964C239.295 122.73 239.613 122.599 239.944 122.599H253.464C253.795 122.599 254.113 122.73 254.347 122.964C254.581 123.197 254.712 123.514 254.712 123.844C254.712 124.175 254.581 124.492 254.347 124.725C254.113 124.959 253.795 125.09 253.464 125.09ZM229.914 125.09H232.273C232.604 125.09 232.922 124.959 233.156 124.725C233.39 124.492 233.521 124.175 233.521 123.844C233.521 123.514 233.39 123.197 233.156 122.964C232.922 122.73 232.604 122.599 232.273 122.599H229.914C229.583 122.599 229.265 122.73 229.031 122.964C228.797 123.197 228.666 123.514 228.666 123.844C228.666 124.175 228.797 124.492 229.031 124.725C229.265 124.959 229.583 125.09 229.914 125.09ZM260.566 133.326H245.815C245.484 133.326 245.167 133.195 244.933 132.961C244.699 132.728 244.567 132.411 244.567 132.08C244.567 131.75 244.699 131.433 244.933 131.2C245.167 130.966 245.484 130.835 245.815 130.835H260.566C260.897 130.835 261.215 130.966 261.449 131.2C261.683 131.433 261.814 131.75 261.814 132.08C261.814 132.411 261.683 132.728 261.449 132.961C261.215 133.195 260.897 133.326 260.566 133.326ZM235.785 133.326H238.15C238.481 133.326 238.798 133.195 239.032 132.961C239.267 132.728 239.398 132.411 239.398 132.08C239.398 131.75 239.267 131.433 239.032 131.2C238.798 130.966 238.481 130.835 238.15 130.835H235.785C235.454 130.835 235.137 130.966 234.903 131.2C234.669 131.433 234.537 131.75 234.537 132.08C234.537 132.411 234.669 132.728 234.903 132.961C235.137 133.195 235.454 133.326 235.785 133.326Z" fill="white" style="mix-blend-mode:overlay"/>
</g>
<g filter="url(#filter0_d)">
<path fill-rule="evenodd" clip-rule="evenodd" d="M30.3986 23C26.3125 23 23 26.3125 23 30.3986V165.601C23 169.688 26.3124 173 30.3986 173H285.601C289.688 173 293 169.688 293 165.601V142.998C292.854 142.999 292.708 143 292.562 143C266.999 143 246.276 122.853 246.276 98C246.276 73.1472 266.999 53 292.562 53C292.708 53 292.854 53.0007 293 53.002V30.3986C293 26.3125 289.688 23 285.601 23H30.3986Z" fill="white"/>
</g>
<g filter="url(#filter1_d)">
<path d="M283 148.396H283.37V148.068L283.045 148.028L283 148.396ZM283 45.576L283.045 45.9433L283.37 45.9038V45.576H283ZM32.6301 42.6364C32.6301 42.8407 32.7957 43.0063 33 43.0063C33.2043 43.0063 33.3699 42.8407 33.3699 42.6364H32.6301ZM33.3699 47.9091C33.3699 47.7048 33.2043 47.5392 33 47.5392C32.7957 47.5392 32.6301 47.7048 32.6301 47.9091H33.3699ZM32.6301 53.1818C32.6301 53.3861 32.7957 53.5517 33 53.5517C33.2043 53.5517 33.3699 53.3861 33.3699 53.1818H32.6301ZM33.3699 58.4545C33.3699 58.2502 33.2043 58.0846 33 58.0846C32.7957 58.0846 32.6301 58.2502 32.6301 58.4545H33.3699ZM32.6301 63.7273C32.6301 63.9316 32.7957 64.0972 33 64.0972C33.2043 64.0972 33.3699 63.9316 33.3699 63.7273H32.6301ZM33.3699 69C33.3699 68.7957 33.2043 68.6301 33 68.6301C32.7957 68.6301 32.6301 68.7957 32.6301 69H33.3699ZM32.6301 74.2727C32.6301 74.477 32.7957 74.6427 33 74.6427C33.2043 74.6427 33.3699 74.477 33.3699 74.2727H32.6301ZM33.3699 79.5455C33.3699 79.3412 33.2043 79.1755 33 79.1755C32.7957 79.1755 32.6301 79.3412 32.6301 79.5455H33.3699ZM32.6301 84.8182C32.6301 85.0225 32.7957 85.1881 33 85.1881C33.2043 85.1881 33.3699 85.0225 33.3699 84.8182H32.6301ZM33.3699 90.0909C33.3699 89.8866 33.2043 89.721 33 89.721C32.7957 89.721 32.6301 89.8866 32.6301 90.0909H33.3699ZM32.6301 95.3636C32.6301 95.5679 32.7957 95.7336 33 95.7336C33.2043 95.7336 33.3699 95.5679 33.3699 95.3636H32.6301ZM33.3699 100.636C33.3699 100.432 33.2043 100.266 33 100.266C32.7957 100.266 32.6301 100.432 32.6301 100.636H33.3699ZM32.6301 105.909C32.6301 106.113 32.7957 106.279 33 106.279C33.2043 106.279 33.3699 106.113 33.3699 105.909H32.6301ZM33.3699 111.182C33.3699 110.978 33.2043 110.812 33 110.812C32.7957 110.812 32.6301 110.978 32.6301 111.182H33.3699ZM32.6301 116.455C32.6301 116.659 32.7957 116.824 33 116.824C33.2043 116.824 33.3699 116.659 33.3699 116.455H32.6301ZM33.3699 121.727C33.3699 121.523 33.2043 121.357 33 121.357C32.7957 121.357 32.6301 121.523 32.6301 121.727H33.3699ZM32.6301 127C32.6301 127.204 32.7957 127.37 33 127.37C33.2043 127.37 33.3699 127.204 33.3699 127H32.6301ZM33.3699 132.273C33.3699 132.068 33.2043 131.903 33 131.903C32.7957 131.903 32.6301 132.068 32.6301 132.273H33.3699ZM32.6301 137.545C32.6301 137.75 32.7957 137.915 33 137.915C33.2043 137.915 33.3699 137.75 33.3699 137.545H32.6301ZM33.3699 142.818C33.3699 142.614 33.2043 142.448 33 142.448C32.7957 142.448 32.6301 142.614 32.6301 142.818H33.3699ZM32.6301 148.091C32.6301 148.295 32.7957 148.461 33 148.461C33.2043 148.461 33.3699 148.295 33.3699 148.091H32.6301ZM33.3699 153.364C33.3699 153.159 33.2043 152.994 33 152.994C32.7957 152.994 32.6301 153.159 32.6301 153.364H33.3699ZM33.1895 158.821C33.2677 159.01 33.4841 159.099 33.6729 159.021C33.8616 158.943 33.9511 158.727 33.8729 158.538L33.1895 158.821ZM37.4622 162.127C37.2735 162.049 37.057 162.138 36.9788 162.327C36.9005 162.516 36.9901 162.732 37.1788 162.811L37.4622 162.127ZM42.5652 163.37C42.7695 163.37 42.9351 163.204 42.9351 163C42.9351 162.796 42.7695 162.63 42.5652 162.63V163.37ZM47.6957 162.63C47.4913 162.63 47.3257 162.796 47.3257 163C47.3257 163.204 47.4913 163.37 47.6957 163.37V162.63ZM52.8261 163.37C53.0304 163.37 53.196 163.204 53.196 163C53.196 162.796 53.0304 162.63 52.8261 162.63V163.37ZM57.9565 162.63C57.7522 162.63 57.5866 162.796 57.5866 163C57.5866 163.204 57.7522 163.37 57.9565 163.37V162.63ZM63.087 163.37C63.2913 163.37 63.4569 163.204 63.4569 163C63.4569 162.796 63.2913 162.63 63.087 162.63V163.37ZM68.2174 162.63C68.0131 162.63 67.8475 162.796 67.8475 163C67.8475 163.204 68.0131 163.37 68.2174 163.37V162.63ZM73.3478 163.37C73.5521 163.37 73.7178 163.204 73.7178 163C73.7178 162.796 73.5521 162.63 73.3478 162.63V163.37ZM78.4783 162.63C78.274 162.63 78.1083 162.796 78.1083 163C78.1083 163.204 78.274 163.37 78.4783 163.37V162.63ZM83.6087 163.37C83.813 163.37 83.9786 163.204 83.9786 163C83.9786 162.796 83.813 162.63 83.6087 162.63V163.37ZM88.7391 162.63C88.5348 162.63 88.3692 162.796 88.3692 163C88.3692 163.204 88.5348 163.37 88.7391 163.37V162.63ZM93.8696 163.37C94.0739 163.37 94.2395 163.204 94.2395 163C94.2395 162.796 94.0739 162.63 93.8696 162.63V163.37ZM99 162.63C98.7957 162.63 98.6301 162.796 98.6301 163C98.6301 163.204 98.7957 163.37 99 163.37V162.63ZM104.13 163.37C104.335 163.37 104.5 163.204 104.5 163C104.5 162.796 104.335 162.63 104.13 162.63V163.37ZM109.261 162.63C109.057 162.63 108.891 162.796 108.891 163C108.891 163.204 109.057 163.37 109.261 163.37V162.63ZM114.391 163.37C114.596 163.37 114.761 163.204 114.761 163C114.761 162.796 114.596 162.63 114.391 162.63V163.37ZM119.522 162.63C119.317 162.63 119.152 162.796 119.152 163C119.152 163.204 119.317 163.37 119.522 163.37V162.63ZM124.652 163.37C124.856 163.37 125.022 163.204 125.022 163C125.022 162.796 124.856 162.63 124.652 162.63V163.37ZM129.783 162.63C129.578 162.63 129.413 162.796 129.413 163C129.413 163.204 129.578 163.37 129.783 163.37V162.63ZM134.913 163.37C135.117 163.37 135.283 163.204 135.283 163C135.283 162.796 135.117 162.63 134.913 162.63V163.37ZM140.043 162.63C139.839 162.63 139.674 162.796 139.674 163C139.674 163.204 139.839 163.37 140.043 163.37V162.63ZM145.174 163.37C145.378 163.37 145.544 163.204 145.544 163C145.544 162.796 145.378 162.63 145.174 162.63V163.37ZM150.304 162.63C150.1 162.63 149.934 162.796 149.934 163C149.934 163.204 150.1 163.37 150.304 163.37V162.63ZM155.435 163.37C155.639 163.37 155.805 163.204 155.805 163C155.805 162.796 155.639 162.63 155.435 162.63V163.37ZM160.565 162.63C160.361 162.63 160.195 162.796 160.195 163C160.195 163.204 160.361 163.37 160.565 163.37V162.63ZM165.696 163.37C165.9 163.37 166.066 163.204 166.066 163C166.066 162.796 165.9 162.63 165.696 162.63V163.37ZM170.826 162.63C170.622 162.63 170.456 162.796 170.456 163C170.456 163.204 170.622 163.37 170.826 163.37V162.63ZM175.957 163.37C176.161 163.37 176.326 163.204 176.326 163C176.326 162.796 176.161 162.63 175.957 162.63V163.37ZM181.087 162.63C180.883 162.63 180.717 162.796 180.717 163C180.717 163.204 180.883 163.37 181.087 163.37V162.63ZM186.217 163.37C186.422 163.37 186.587 163.204 186.587 163C186.587 162.796 186.422 162.63 186.217 162.63V163.37ZM191.348 162.63C191.143 162.63 190.978 162.796 190.978 163C190.978 163.204 191.143 163.37 191.348 163.37V162.63ZM196.478 163.37C196.683 163.37 196.848 163.204 196.848 163C196.848 162.796 196.683 162.63 196.478 162.63V163.37ZM201.609 162.63C201.404 162.63 201.239 162.796 201.239 163C201.239 163.204 201.404 163.37 201.609 163.37V162.63ZM206.739 163.37C206.943 163.37 207.109 163.204 207.109 163C207.109 162.796 206.943 162.63 206.739 162.63V163.37ZM211.87 162.63C211.665 162.63 211.5 162.796 211.5 163C211.5 163.204 211.665 163.37 211.87 163.37V162.63ZM217 163.37C217.204 163.37 217.37 163.204 217.37 163C217.37 162.796 217.204 162.63 217 162.63V163.37ZM222.13 162.63C221.926 162.63 221.76 162.796 221.76 163C221.76 163.204 221.926 163.37 222.13 163.37V162.63ZM227.261 163.37C227.465 163.37 227.631 163.204 227.631 163C227.631 162.796 227.465 162.63 227.261 162.63V163.37ZM232.391 162.63C232.187 162.63 232.021 162.796 232.021 163C232.021 163.204 232.187 163.37 232.391 163.37V162.63ZM237.522 163.37C237.726 163.37 237.892 163.204 237.892 163C237.892 162.796 237.726 162.63 237.522 162.63V163.37ZM242.652 162.63C242.448 162.63 242.282 162.796 242.282 163C242.282 163.204 242.448 163.37 242.652 163.37V162.63ZM247.783 163.37C247.987 163.37 248.152 163.204 248.152 163C248.152 162.796 247.987 162.63 247.783 162.63V163.37ZM252.913 162.63C252.709 162.63 252.543 162.796 252.543 163C252.543 163.204 252.709 163.37 252.913 163.37V162.63ZM258.043 163.37C258.248 163.37 258.413 163.204 258.413 163C258.413 162.796 258.248 162.63 258.043 162.63V163.37ZM263.174 162.63C262.97 162.63 262.804 162.796 262.804 163C262.804 163.204 262.97 163.37 263.174 163.37V162.63ZM268.304 163.37C268.509 163.37 268.674 163.204 268.674 163C268.674 162.796 268.509 162.63 268.304 162.63V163.37ZM273.435 162.63C273.23 162.63 273.065 162.796 273.065 163C273.065 163.204 273.23 163.37 273.435 163.37V162.63ZM278.821 162.811C279.01 162.732 279.099 162.516 279.021 162.327C278.943 162.138 278.727 162.049 278.538 162.127L278.821 162.811ZM282.127 158.538C282.049 158.727 282.138 158.943 282.327 159.021C282.516 159.099 282.732 159.01 282.811 158.821L282.127 158.538ZM283.37 154.099C283.37 153.895 283.204 153.729 283 153.729C282.796 153.729 282.63 153.895 282.63 154.099H283.37ZM282.63 150.297C282.63 150.501 282.796 150.667 283 150.667C283.204 150.667 283.37 150.501 283.37 150.297H282.63ZM280.412 147.639C280.211 147.604 280.019 147.739 279.984 147.94C279.949 148.141 280.083 148.333 280.285 148.368L280.412 147.639ZM275.024 147.166C275.22 147.221 275.425 147.107 275.481 146.911C275.536 146.714 275.422 146.51 275.226 146.454L275.024 147.166ZM270.192 144.736C270.003 144.66 269.787 144.752 269.711 144.941C269.635 145.131 269.728 145.346 269.917 145.422L270.192 144.736ZM265.02 143.158C265.201 143.253 265.425 143.184 265.52 143.003C265.615 142.823 265.546 142.599 265.365 142.504L265.02 143.158ZM260.794 139.783C260.624 139.669 260.395 139.715 260.281 139.885C260.168 140.055 260.214 140.285 260.383 140.398L260.794 139.783ZM256.056 137.175C256.214 137.305 256.447 137.283 256.577 137.126C256.708 136.969 256.686 136.735 256.528 136.605L256.056 137.175ZM252.612 133.006C252.469 132.86 252.234 132.858 252.089 133.001C251.943 133.144 251.941 133.378 252.084 133.524L252.612 133.006ZM248.507 129.485C248.634 129.644 248.867 129.67 249.027 129.543C249.187 129.416 249.213 129.183 249.085 129.023L248.507 129.485ZM245.987 124.699C245.877 124.527 245.648 124.477 245.476 124.588C245.304 124.698 245.254 124.927 245.365 125.099L245.987 124.699ZM242.691 120.411C242.783 120.594 243.006 120.667 243.188 120.575C243.371 120.483 243.444 120.261 243.352 120.078L242.691 120.411ZM241.21 115.21C241.138 115.019 240.924 114.923 240.733 114.995C240.542 115.068 240.446 115.281 240.519 115.472L241.21 115.21ZM238.872 110.335C238.924 110.532 239.126 110.65 239.324 110.598C239.521 110.546 239.639 110.343 239.587 110.146L238.872 110.335ZM238.499 104.939C238.468 104.738 238.278 104.599 238.077 104.631C237.875 104.662 237.736 104.851 237.768 105.053L238.499 104.939ZM237.216 99.6844C237.227 99.8884 237.401 100.045 237.605 100.035C237.809 100.025 237.966 99.8508 237.955 99.6467L237.216 99.6844ZM237.955 94.3248C237.966 94.1208 237.809 93.9469 237.605 93.9365C237.401 93.9261 237.227 94.0831 237.216 94.2872L237.955 94.3248ZM237.768 88.9186C237.736 89.1205 237.875 89.3096 238.077 89.341C238.278 89.3723 238.468 89.234 238.499 89.0322L237.768 88.9186ZM239.587 83.8257C239.639 83.6281 239.521 83.4257 239.324 83.3736C239.126 83.3214 238.924 83.4393 238.872 83.6368L239.587 83.8257ZM240.519 78.4992C240.446 78.6902 240.542 78.9038 240.733 78.9762C240.924 79.0487 241.138 78.9525 241.21 78.7615L240.519 78.4992ZM243.352 73.8931C243.444 73.7106 243.371 73.4882 243.188 73.3963C243.006 73.3044 242.783 73.3779 242.691 73.5604L243.352 73.8931ZM245.365 68.873C245.254 69.045 245.304 69.2738 245.476 69.384C245.648 69.4943 245.877 69.4442 245.987 69.2723L245.365 68.873ZM249.085 64.9484C249.213 64.7886 249.187 64.5559 249.027 64.4285C248.867 64.3011 248.634 64.3273 248.507 64.487L249.085 64.9484ZM252.084 60.4476C251.941 60.5934 251.943 60.8276 252.089 60.9707C252.234 61.1138 252.469 61.1117 252.612 60.9659L252.084 60.4476ZM256.528 57.3665C256.686 57.2362 256.708 57.003 256.577 56.8456C256.447 56.6883 256.214 56.6664 256.056 56.7967L256.528 57.3665ZM260.383 53.5735C260.214 53.687 260.168 53.9167 260.281 54.0866C260.395 54.2565 260.624 54.3023 260.794 54.1889L260.383 53.5735ZM265.365 51.4681C265.546 51.3728 265.615 51.149 265.52 50.9683C265.425 50.7876 265.201 50.7183 265.02 50.8136L265.365 51.4681ZM269.917 48.5492C269.728 48.6252 269.635 48.8405 269.711 49.0301C269.787 49.2198 270.003 49.3119 270.192 49.2359L269.917 48.5492ZM275.226 47.5177C275.422 47.4618 275.536 47.2573 275.481 47.0607C275.425 46.8642 275.22 46.7501 275.024 46.806L275.226 47.5177ZM280.285 45.6035C280.083 45.6386 279.949 45.8302 279.984 46.0315C280.019 46.2327 280.211 46.3675 280.412 46.3324L280.285 45.6035ZM283.37 44.182C283.37 43.9777 283.204 43.8121 283 43.8121C282.796 43.8121 282.63 43.9777 282.63 44.182H283.37ZM282.63 41.394C282.63 41.5983 282.796 41.7639 283 41.7639C283.204 41.7639 283.37 41.5983 283.37 41.394H282.63ZM282.811 37.1788C282.732 36.9901 282.516 36.9005 282.327 36.9788C282.138 37.057 282.049 37.2735 282.127 37.4622L282.811 37.1788ZM278.538 33.8729C278.727 33.9511 278.943 33.8616 279.021 33.6729C279.099 33.4841 279.01 33.2677 278.821 33.1895L278.538 33.8729ZM273.435 32.6301C273.23 32.6301 273.065 32.7957 273.065 33C273.065 33.2043 273.23 33.3699 273.435 33.3699V32.6301ZM268.304 33.3699C268.509 33.3699 268.674 33.2043 268.674 33C268.674 32.7957 268.509 32.6301 268.304 32.6301V33.3699ZM263.174 32.6301C262.97 32.6301 262.804 32.7957 262.804 33C262.804 33.2043 262.97 33.3699 263.174 33.3699V32.6301ZM258.043 33.3699C258.248 33.3699 258.413 33.2043 258.413 33C258.413 32.7957 258.248 32.6301 258.043 32.6301V33.3699ZM252.913 32.6301C252.709 32.6301 252.543 32.7957 252.543 33C252.543 33.2043 252.709 33.3699 252.913 33.3699V32.6301ZM247.783 33.3699C247.987 33.3699 248.153 33.2043 248.153 33C248.153 32.7957 247.987 32.6301 247.783 32.6301V33.3699ZM242.652 32.6301C242.448 32.6301 242.282 32.7957 242.282 33C242.282 33.2043 242.448 33.3699 242.652 33.3699V32.6301ZM237.522 33.3699C237.726 33.3699 237.892 33.2043 237.892 33C237.892 32.7957 237.726 32.6301 237.522 32.6301V33.3699ZM232.391 32.6301C232.187 32.6301 232.021 32.7957 232.021 33C232.021 33.2043 232.187 33.3699 232.391 33.3699V32.6301ZM227.261 33.3699C227.465 33.3699 227.631 33.2043 227.631 33C227.631 32.7957 227.465 32.6301 227.261 32.6301V33.3699ZM222.13 32.6301C221.926 32.6301 221.76 32.7957 221.76 33C221.76 33.2043 221.926 33.3699 222.13 33.3699V32.6301ZM217 33.3699C217.204 33.3699 217.37 33.2043 217.37 33C217.37 32.7957 217.204 32.6301 217 32.6301V33.3699ZM211.87 32.6301C211.665 32.6301 211.5 32.7957 211.5 33C211.5 33.2043 211.665 33.3699 211.87 33.3699V32.6301ZM206.739 33.3699C206.943 33.3699 207.109 33.2043 207.109 33C207.109 32.7957 206.943 32.6301 206.739 32.6301V33.3699ZM201.609 32.6301C201.404 32.6301 201.239 32.7957 201.239 33C201.239 33.2043 201.404 33.3699 201.609 33.3699V32.6301ZM196.478 33.3699C196.683 33.3699 196.848 33.2043 196.848 33C196.848 32.7957 196.683 32.6301 196.478 32.6301V33.3699ZM191.348 32.6301C191.144 32.6301 190.978 32.7957 190.978 33C190.978 33.2043 191.144 33.3699 191.348 33.3699V32.6301ZM186.217 33.3699C186.422 33.3699 186.587 33.2043 186.587 33C186.587 32.7957 186.422 32.6301 186.217 32.6301V33.3699ZM181.087 32.6301C180.883 32.6301 180.717 32.7957 180.717 33C180.717 33.2043 180.883 33.3699 181.087 33.3699V32.6301ZM175.957 33.3699C176.161 33.3699 176.326 33.2043 176.326 33C176.326 32.7957 176.161 32.6301 175.957 32.6301V33.3699ZM170.826 32.6301C170.622 32.6301 170.456 32.7957 170.456 33C170.456 33.2043 170.622 33.3699 170.826 33.3699V32.6301ZM165.696 33.3699C165.9 33.3699 166.066 33.2043 166.066 33C166.066 32.7957 165.9 32.6301 165.696 32.6301V33.3699ZM160.565 32.6301C160.361 32.6301 160.195 32.7957 160.195 33C160.195 33.2043 160.361 33.3699 160.565 33.3699V32.6301ZM155.435 33.3699C155.639 33.3699 155.805 33.2043 155.805 33C155.805 32.7957 155.639 32.6301 155.435 32.6301V33.3699ZM150.304 32.6301C150.1 32.6301 149.934 32.7957 149.934 33C149.934 33.2043 150.1 33.3699 150.304 33.3699V32.6301ZM145.174 33.3699C145.378 33.3699 145.544 33.2043 145.544 33C145.544 32.7957 145.378 32.6301 145.174 32.6301V33.3699ZM140.043 32.6301C139.839 32.6301 139.674 32.7957 139.674 33C139.674 33.2043 139.839 33.3699 140.043 33.3699V32.6301ZM134.913 33.3699C135.117 33.3699 135.283 33.2043 135.283 33C135.283 32.7957 135.117 32.6301 134.913 32.6301V33.3699ZM129.783 32.6301C129.578 32.6301 129.413 32.7957 129.413 33C129.413 33.2043 129.578 33.3699 129.783 33.3699V32.6301ZM124.652 33.3699C124.857 33.3699 125.022 33.2043 125.022 33C125.022 32.7957 124.857 32.6301 124.652 32.6301V33.3699ZM119.522 32.6301C119.317 32.6301 119.152 32.7957 119.152 33C119.152 33.2043 119.317 33.3699 119.522 33.3699V32.6301ZM114.391 33.3699C114.596 33.3699 114.761 33.2043 114.761 33C114.761 32.7957 114.596 32.6301 114.391 32.6301V33.3699ZM109.261 32.6301C109.057 32.6301 108.891 32.7957 108.891 33C108.891 33.2043 109.057 33.3699 109.261 33.3699V32.6301ZM104.13 33.3699C104.335 33.3699 104.5 33.2043 104.5 33C104.5 32.7957 104.335 32.6301 104.13 32.6301V33.3699ZM99 32.6301C98.7957 32.6301 98.6301 32.7957 98.6301 33C98.6301 33.2043 98.7957 33.3699 99 33.3699V32.6301ZM93.8696 33.3699C94.0739 33.3699 94.2395 33.2043 94.2395 33C94.2395 32.7957 94.0739 32.6301 93.8696 32.6301V33.3699ZM88.7392 32.6301C88.5349 32.6301 88.3692 32.7957 88.3692 33C88.3692 33.2043 88.5349 33.3699 88.7392 33.3699V32.6301ZM83.6088 33.3699C83.8131 33.3699 83.9787 33.2043 83.9787 33C83.9787 32.7957 83.8131 32.6301 83.6088 32.6301V33.3699ZM78.4783 32.6301C78.274 32.6301 78.1084 32.7957 78.1084 33C78.1084 33.2043 78.274 33.3699 78.4783 33.3699V32.6301ZM73.3479 33.3699C73.5522 33.3699 73.7178 33.2043 73.7178 33C73.7178 32.7957 73.5522 32.6301 73.3479 32.6301V33.3699ZM68.2175 32.6301C68.0131 32.6301 67.8475 32.7957 67.8475 33C67.8475 33.2043 68.0131 33.3699 68.2175 33.3699V32.6301ZM63.087 33.3699C63.2913 33.3699 63.4569 33.2043 63.4569 33C63.4569 32.7957 63.2913 32.6301 63.087 32.6301V33.3699ZM57.9566 32.6301C57.7523 32.6301 57.5867 32.7957 57.5867 33C57.5867 33.2043 57.7523 33.3699 57.9566 33.3699V32.6301ZM52.8262 33.3699C53.0305 33.3699 53.1961 33.2043 53.1961 33C53.1961 32.7957 53.0305 32.6301 52.8262 32.6301V33.3699ZM47.6957 32.6301C47.4914 32.6301 47.3258 32.7957 47.3258 33C47.3258 33.2043 47.4914 33.3699 47.6957 33.3699V32.6301ZM42.5653 33.3699C42.7696 33.3699 42.9352 33.2043 42.9352 33C42.9352 32.7957 42.7696 32.6301 42.5653 32.6301V33.3699ZM37.1788 33.1895C36.9901 33.2677 36.9005 33.4841 36.9788 33.6729C37.057 33.8616 37.2735 33.9511 37.4622 33.8729L37.1788 33.1895ZM33.8729 37.4622C33.9511 37.2735 33.8616 37.057 33.6729 36.9788C33.4841 36.9005 33.2677 36.9901 33.1895 37.1788L33.8729 37.4622ZM32.6301 40V42.6364H33.3699V40H32.6301ZM32.6301 47.9091V53.1818H33.3699V47.9091H32.6301ZM32.6301 58.4545V63.7273H33.3699V58.4545H32.6301ZM32.6301 69V74.2727H33.3699V69H32.6301ZM32.6301 79.5455V84.8182H33.3699V79.5455H32.6301ZM32.6301 90.0909V95.3636H33.3699V90.0909H32.6301ZM32.6301 100.636V105.909H33.3699V100.636H32.6301ZM32.6301 111.182V116.455H33.3699V111.182H32.6301ZM32.6301 121.727V127H33.3699V121.727H32.6301ZM32.6301 132.273V137.545H33.3699V132.273H32.6301ZM32.6301 142.818V148.091H33.3699V142.818H32.6301ZM32.6301 153.364V156H33.3699V153.364H32.6301ZM32.6301 156C32.6301 156.999 32.8289 157.952 33.1895 158.821L33.8729 158.538C33.5489 157.757 33.3699 156.9 33.3699 156H32.6301ZM37.1788 162.811C38.0483 163.171 39.0014 163.37 40 163.37V162.63C39.1003 162.63 38.2434 162.451 37.4622 162.127L37.1788 162.811ZM40 163.37H42.5652V162.63H40V163.37ZM47.6957 163.37H52.8261V162.63H47.6957V163.37ZM57.9565 163.37H63.087V162.63H57.9565V163.37ZM68.2174 163.37H73.3478V162.63H68.2174V163.37ZM78.4783 163.37H83.6087V162.63H78.4783V163.37ZM88.7391 163.37H93.8696V162.63H88.7391V163.37ZM99 163.37H104.13V162.63H99V163.37ZM109.261 163.37H114.391V162.63H109.261V163.37ZM119.522 163.37H124.652V162.63H119.522V163.37ZM129.783 163.37H134.913V162.63H129.783V163.37ZM140.043 163.37H145.174V162.63H140.043V163.37ZM150.304 163.37H155.435V162.63H150.304V163.37ZM160.565 163.37H165.696V162.63H160.565V163.37ZM170.826 163.37H175.957V162.63H170.826V163.37ZM181.087 163.37H186.217V162.63H181.087V163.37ZM191.348 163.37H196.478V162.63H191.348V163.37ZM201.609 163.37H206.739V162.63H201.609V163.37ZM211.87 163.37H217V162.63H211.87V163.37ZM222.13 163.37H227.261V162.63H222.13V163.37ZM232.391 163.37H237.522V162.63H232.391V163.37ZM242.652 163.37H247.783V162.63H242.652V163.37ZM252.913 163.37H258.043V162.63H252.913V163.37ZM263.174 163.37H268.304V162.63H263.174V163.37ZM273.435 163.37H276V162.63H273.435V163.37ZM276 163.37C276.999 163.37 277.952 163.171 278.821 162.811L278.538 162.127C277.757 162.451 276.9 162.63 276 162.63V163.37ZM282.811 158.821C283.171 157.952 283.37 156.999 283.37 156H282.63C282.63 156.9 282.451 157.757 282.127 158.538L282.811 158.821ZM283.37 156V154.099H282.63V156H283.37ZM283.37 150.297V148.396H282.63V150.297H283.37ZM283.045 148.028C282.16 147.921 281.282 147.791 280.412 147.639L280.285 148.368C281.168 148.522 282.058 148.654 282.955 148.763L283.045 148.028ZM275.226 146.454C273.51 145.966 271.83 145.392 270.192 144.736L269.917 145.422C271.579 146.088 273.283 146.671 275.024 147.166L275.226 146.454ZM265.365 142.504C263.792 141.674 262.266 140.765 260.794 139.783L260.383 140.398C261.876 141.395 263.424 142.317 265.02 143.158L265.365 142.504ZM256.528 136.605C255.161 135.473 253.854 134.271 252.612 133.006L252.084 133.524C253.344 134.808 254.67 136.026 256.056 137.175L256.528 136.605ZM249.085 129.023C247.981 127.638 246.946 126.195 245.987 124.699L245.365 125.099C246.337 126.616 247.387 128.08 248.507 129.485L249.085 129.023ZM243.352 120.078C242.558 118.5 241.842 116.876 241.21 115.21L240.519 115.472C241.159 117.162 241.885 118.81 242.691 120.411L243.352 120.078ZM239.587 110.146C239.137 108.443 238.773 106.706 238.499 104.939L237.768 105.053C238.046 106.845 238.416 108.608 238.872 110.335L239.587 110.146ZM237.955 99.6467C237.91 98.7655 237.888 97.8783 237.888 96.9858H237.148C237.148 97.8909 237.171 98.7906 237.216 99.6844L237.955 99.6467ZM237.888 96.9858C237.888 96.0933 237.91 95.2061 237.955 94.3248L237.216 94.2872C237.171 95.181 237.148 96.0807 237.148 96.9858H237.888ZM238.499 89.0322C238.773 87.2653 239.137 85.5282 239.587 83.8257L238.872 83.6368C238.416 85.364 238.046 87.1263 237.768 88.9186L238.499 89.0322ZM241.21 78.7615C241.842 77.0956 242.558 75.4711 243.352 73.8931L242.691 73.5604C241.885 75.1612 241.159 76.8092 240.519 78.4992L241.21 78.7615ZM245.987 69.2723C246.946 67.7762 247.981 66.3332 249.085 64.9484L248.507 64.487C247.387 65.8917 246.337 67.3554 245.365 68.873L245.987 69.2723ZM252.612 60.9659C253.854 59.7003 255.161 58.4987 256.528 57.3665L256.056 56.7967C254.67 57.9451 253.344 59.1639 252.084 60.4476L252.612 60.9659ZM260.794 54.1889C262.266 53.2062 263.792 52.2975 265.365 51.4681L265.02 50.8136C263.424 51.655 261.877 52.5768 260.383 53.5735L260.794 54.1889ZM270.192 49.2359C271.83 48.5797 273.51 48.0052 275.226 47.5177L275.024 46.806C273.283 47.3006 271.579 47.8834 269.917 48.5492L270.192 49.2359ZM280.412 46.3324C281.282 46.1806 282.16 46.0507 283.045 45.9433L282.955 45.2088C282.058 45.3178 281.168 45.4495 280.285 45.6035L280.412 46.3324ZM283.37 45.576V44.182H282.63V45.576H283.37ZM283.37 41.394V40H282.63V41.394H283.37ZM283.37 40C283.37 39.0014 283.171 38.0483 282.811 37.1788L282.127 37.4622C282.451 38.2434 282.63 39.1003 282.63 40H283.37ZM278.821 33.1895C277.952 32.8289 276.999 32.6301 276 32.6301V33.3699C276.9 33.3699 277.757 33.5489 278.538 33.8729L278.821 33.1895ZM276 32.6301H273.435V33.3699H276V32.6301ZM268.304 32.6301H263.174V33.3699H268.304V32.6301ZM258.043 32.6301H252.913V33.3699H258.043V32.6301ZM247.783 32.6301H242.652V33.3699H247.783V32.6301ZM237.522 32.6301H232.391V33.3699H237.522V32.6301ZM227.261 32.6301H222.13V33.3699H227.261V32.6301ZM217 32.6301H211.87V33.3699H217V32.6301ZM206.739 32.6301H201.609V33.3699H206.739V32.6301ZM196.478 32.6301H191.348V33.3699H196.478V32.6301ZM186.217 32.6301H181.087V33.3699H186.217V32.6301ZM175.957 32.6301H170.826V33.3699H175.957V32.6301ZM165.696 32.6301H160.565V33.3699H165.696V32.6301ZM155.435 32.6301H150.304V33.3699H155.435V32.6301ZM145.174 32.6301H140.043V33.3699H145.174V32.6301ZM134.913 32.6301H129.783V33.3699H134.913V32.6301ZM124.652 32.6301H119.522V33.3699H124.652V32.6301ZM114.391 32.6301H109.261V33.3699H114.391V32.6301ZM104.13 32.6301H99V33.3699H104.13V32.6301ZM93.8696 32.6301H88.7392V33.3699H93.8696V32.6301ZM83.6088 32.6301H78.4783V33.3699H83.6088V32.6301ZM73.3479 32.6301H68.2175V33.3699H73.3479V32.6301ZM63.087 32.6301H57.9566V33.3699H63.087V32.6301ZM52.8262 32.6301H47.6957V33.3699H52.8262V32.6301ZM42.5653 32.6301H40V33.3699H42.5653V32.6301ZM40 32.6301C39.0014 32.6301 38.0483 32.8289 37.1788 33.1895L37.4622 33.8729C38.2434 33.5489 39.1003 33.3699 40 33.3699V32.6301ZM33.1895 37.1788C32.8289 38.0483 32.6301 39.0014 32.6301 40H33.3699C33.3699 39.1003 33.5489 38.2434 33.8729 37.4622L33.1895 37.1788Z" fill="#E5E5E5"/>
</g>
<defs>
<filter id="filter0_d" x="0.804295" y="0.804295" width="314.391" height="194.391" filterUnits="userSpaceOnUse" color-interpolation-filters="sRGB">
<feFlood flood-opacity="0" result="BackgroundImageFix"/>
<feColorMatrix in="SourceAlpha" type="matrix" values="0 0 0 0 0 0 0 0 0 0 0 0 0 0 0 0 0 0 127 0"/>
<feOffset/>
<feGaussianBlur stdDeviation="11.0979"/>
<feColorMatrix type="matrix" values="0 0 0 0 0 0 0 0 0 0 0 0 0 0 0 0 0 0 0.1 0"/>
<feBlend mode="normal" in2="BackgroundImageFix" result="effect1_dropShadow"/>
<feBlend mode="normal" in="SourceGraphic" in2="effect1_dropShadow" result="shape"/>
</filter>
<filter id="filter1_d" x="10.4342" y="10.4344" width="295.131" height="175.131" filterUnits="userSpaceOnUse" color-interpolation-filters="sRGB">
<feFlood flood-opacity="0" result="BackgroundImageFix"/>
<feColorMatrix in="SourceAlpha" type="matrix" values="0 0 0 0 0 0 0 0 0 0 0 0 0 0 0 0 0 0 127 0"/>
<feOffset/>
<feGaussianBlur stdDeviation="11.0979"/>
<feColorMatrix type="matrix" values="0 0 0 0 0 0 0 0 0 0 0 0 0 0 0 0 0 0 0.1 0"/>
<feBlend mode="normal" in2="BackgroundImageFix" result="effect1_dropShadow"/>
<feBlend mode="normal" in="SourceGraphic" in2="effect1_dropShadow" result="shape"/>
</filter>
<linearGradient id="paint0_linear" x1="294.984" y1="133.978" x2="294.984" y2="59.9927" gradientUnits="userSpaceOnUse">
<stop stop-color="#FCCB05"/>
<stop offset="1" stop-color="#FFE57D"/>
</linearGradient>
<linearGradient id="paint1_linear" x1="294.991" y1="134" x2="294.991" y2="60" gradientUnits="userSpaceOnUse">
<stop stop-color="#FCCB05"/>
<stop offset="1" stop-color="#FFE57D"/>
</linearGradient>
</defs>
</svg>
