<svg width="446" height="260" viewBox="0 0 446 260" fill="none" xmlns="http://www.w3.org/2000/svg">
<path d="M100 130C100 157.614 77.6147 180 50.0005 180C22.3863 180 0.000488281 157.614 0.000488281 130C0.000488281 102.386 22.3863 80 50.0005 80C77.6147 80 100 102.386 100 130Z" fill="url(#paint0_linear)"/>
<mask id="mask0" mask-type="alpha" maskUnits="userSpaceOnUse" x="0" y="80" width="100" height="100">
<circle cx="50" cy="130" r="50" fill="url(#paint1_linear)"/>
</mask>
<g mask="url(#mask0)">
<path fill-rule="evenodd" clip-rule="evenodd" d="M73.8236 157.96V132.217C71.0354 129.314 69.6115 127.832 68.2323 126.396C65.5603 123.615 63.0561 121.008 51.1238 108.587C50.7048 108.151 50.0105 108.152 49.593 108.587L26.8933 132.217V139.203C26.8933 139.759 26.4425 140.21 25.8865 140.21C25.3305 140.21 24.8798 139.759 24.8798 139.203V134.313L22.8309 136.446C21.9043 137.41 20.3685 137.424 19.4238 136.48L16.6936 133.749C15.7821 132.838 15.767 131.34 16.6601 130.41L47.644 98.1569C49.1263 96.6137 51.5918 96.615 53.073 98.1569L84.0568 130.41C84.95 131.34 84.935 132.838 84.0232 133.749L81.2932 136.48C80.3477 137.425 78.8117 137.409 77.8863 136.446L75.8371 134.312V157.96C75.8371 160.188 74.0248 162 71.7972 162H70.2361C69.68 162 69.2294 161.549 69.2294 160.993C69.2294 160.437 69.68 159.987 70.2361 159.987H71.7972C72.9147 159.987 73.8236 159.078 73.8236 157.96ZM79.8693 135.056L82.5994 132.326C82.7417 132.184 82.744 131.95 82.6047 131.805L51.621 99.5519C50.9315 98.8339 49.7858 98.8337 49.096 99.5518L18.1122 131.805C17.973 131.95 17.9753 132.183 18.1174 132.326L20.8476 135.056C21.0261 135.203 21.2033 135.201 21.3789 135.05L25.159 131.116L25.1605 131.114L48.1411 107.192C49.3513 105.932 51.3603 105.931 52.5715 107.188L52.5757 107.192L52.576 107.192L79.3381 135.05C79.5137 135.201 79.6908 135.203 79.8693 135.056ZM59.5455 159.986H65.5179C66.074 159.986 66.5247 160.437 66.5247 160.993C66.5247 161.549 66.074 162 65.5179 162H28.9196C26.692 162 24.8797 160.188 24.8797 157.96V143.901C24.8797 143.345 25.3305 142.894 25.8865 142.894C26.4425 142.894 26.8932 143.345 26.8932 143.901V157.96C26.8932 159.077 27.8023 159.986 28.9196 159.986H41.1714V148.587C41.1714 143.522 45.2927 139.401 50.3584 139.401C55.4242 139.401 59.5455 143.522 59.5455 148.587V159.986ZM50.3584 141.414C46.403 141.414 43.1849 144.632 43.1849 148.588V159.987H57.5319V148.588C57.5319 144.632 54.3138 141.414 50.3584 141.414Z" fill="white" style="mix-blend-mode:overlay"/>
</g>
<g filter="url(#filter0_d)">
<path fill-rule="evenodd" clip-rule="evenodd" d="M56.0005 30C50.4776 30 46.0005 34.4772 46.0005 40V70.404C48.428 70.1372 50.8973 70 53.4005 70C88.4311 70 116.829 96.8629 116.829 130C116.829 163.137 88.4311 190 53.4005 190C50.8973 190 48.428 189.863 46.0005 189.596V220C46.0005 225.523 50.4776 230 56.0005 230H406C411.523 230 416 225.523 416 220V40C416 34.4772 411.523 30 406 30H56.0005Z" fill="white"/>
</g>
<g filter="url(#filter1_d)">
<path d="M56.0005 60.028H55.5005V60.5142L55.9865 60.5278L56.0005 60.028ZM56.0005 199.972L55.9865 199.472L55.5005 199.486V199.972H56.0005ZM55.5005 52.507C55.5005 52.7832 55.7243 53.007 56.0005 53.007C56.2766 53.007 56.5005 52.7832 56.5005 52.507H55.5005ZM56.5005 57.521C56.5005 57.2449 56.2766 57.021 56.0005 57.021C55.7243 57.021 55.5005 57.2449 55.5005 57.521H56.5005ZM59.3326 60.7015C59.608 60.7224 59.8481 60.5161 59.869 60.2407C59.8899 59.9654 59.6836 59.7252 59.4083 59.7043L59.3326 60.7015ZM66.1506 60.5432C65.8785 60.4959 65.6196 60.6781 65.5724 60.9502C65.5251 61.2223 65.7073 61.4811 65.9794 61.5284L66.1506 60.5432ZM72.5143 62.9929C72.7805 63.0663 73.0558 62.91 73.1292 62.6438C73.2026 62.3776 73.0463 62.1023 72.7801 62.0289L72.5143 62.9929ZM79.2342 64.1504C78.9763 64.0515 78.6872 64.1804 78.5883 64.4382C78.4894 64.6961 78.6183 64.9852 78.8761 65.0841L79.2342 64.1504ZM85.0054 67.782C85.2525 67.9053 85.5528 67.805 85.6761 67.558C85.7995 67.3109 85.6992 67.0107 85.4521 66.8873L85.0054 67.782ZM91.3765 70.212C91.1425 70.0654 90.8339 70.1363 90.6873 70.3703C90.5407 70.6043 90.6116 70.9129 90.8456 71.0595L91.3765 70.212ZM96.3436 74.8838C96.5625 75.0522 96.8764 75.0113 97.0448 74.7924C97.2132 74.5736 97.1723 74.2597 96.9534 74.0913L96.3436 74.8838ZM102.133 78.4872C101.931 78.2987 101.615 78.3093 101.426 78.5111C101.238 78.7128 101.248 79.0292 101.45 79.2178L102.133 78.4872ZM106.118 84.0205C106.301 84.2275 106.617 84.2471 106.824 84.0644C107.031 83.8816 107.051 83.5656 106.868 83.3586L106.118 84.0205ZM111.115 88.6608C110.953 88.4373 110.64 88.3874 110.416 88.5495C110.193 88.7116 110.143 89.0242 110.305 89.2478L111.115 88.6608ZM113.971 94.8525C114.111 95.0907 114.417 95.1703 114.655 95.0305C114.894 94.8906 114.973 94.5842 114.833 94.3461L113.971 94.8525ZM117.987 100.363C117.871 100.113 117.574 100.004 117.323 100.12C117.073 100.236 116.964 100.534 117.08 100.784L117.987 100.363ZM119.601 106.988C119.692 107.249 119.977 107.386 120.238 107.295C120.498 107.203 120.636 106.918 120.544 106.657L119.601 106.988ZM122.479 113.17C122.413 112.902 122.143 112.737 121.874 112.803C121.606 112.869 121.442 113.139 121.508 113.408L122.479 113.17ZM122.784 119.982C122.823 120.255 123.077 120.445 123.35 120.405C123.623 120.366 123.813 120.112 123.774 119.839L122.784 119.982ZM124.42 126.603C124.407 126.327 124.173 126.114 123.897 126.127C123.621 126.14 123.408 126.374 123.421 126.65L124.42 126.603ZM123.421 133.35C123.408 133.626 123.621 133.86 123.897 133.873C124.173 133.886 124.407 133.673 124.42 133.397L123.421 133.35ZM123.774 140.161C123.813 139.888 123.623 139.634 123.35 139.595C123.077 139.555 122.823 139.745 122.784 140.018L123.774 140.161ZM121.508 146.592C121.442 146.861 121.606 147.131 121.874 147.197C122.143 147.263 122.413 147.098 122.479 146.83L121.508 146.592ZM120.544 153.343C120.636 153.082 120.498 152.797 120.238 152.705C119.977 152.614 119.692 152.751 119.601 153.012L120.544 153.343ZM117.08 159.216C116.964 159.466 117.073 159.764 117.323 159.88C117.574 159.996 117.871 159.887 117.987 159.637L117.08 159.216ZM114.833 165.654C114.973 165.416 114.894 165.109 114.655 164.97C114.417 164.83 114.111 164.909 113.971 165.147L114.833 165.654ZM110.305 170.752C110.143 170.976 110.193 171.288 110.416 171.45C110.64 171.613 110.953 171.563 111.115 171.339L110.305 170.752ZM106.868 176.641C107.051 176.434 107.031 176.118 106.824 175.936C106.617 175.753 106.301 175.773 106.118 175.98L106.868 176.641ZM101.45 180.782C101.248 180.971 101.238 181.287 101.426 181.489C101.615 181.691 101.931 181.701 102.133 181.513L101.45 180.782ZM96.9534 185.909C97.1723 185.74 97.2132 185.426 97.0448 185.208C96.8764 184.989 96.5625 184.948 96.3436 185.116L96.9534 185.909ZM90.8456 188.941C90.6116 189.087 90.5407 189.396 90.6873 189.63C90.8339 189.864 91.1425 189.935 91.3765 189.788L90.8456 188.941ZM85.4521 193.113C85.6992 192.989 85.7995 192.689 85.6761 192.442C85.5528 192.195 85.2525 192.095 85.0054 192.218L85.4521 193.113ZM78.8761 194.916C78.6183 195.015 78.4894 195.304 78.5883 195.562C78.6872 195.82 78.9763 195.949 79.2342 195.85L78.8761 194.916ZM72.7801 197.971C73.0463 197.898 73.2026 197.622 73.1292 197.356C73.0558 197.09 72.7805 196.934 72.5143 197.007L72.7801 197.971ZM65.9794 198.472C65.7073 198.519 65.5251 198.778 65.5724 199.05C65.6196 199.322 65.8785 199.504 66.1506 199.457L65.9794 198.472ZM59.4083 200.296C59.6836 200.275 59.8899 200.035 59.869 199.759C59.8481 199.484 59.608 199.278 59.3326 199.299L59.4083 200.296ZM55.5005 202.479C55.5005 202.755 55.7243 202.979 56.0005 202.979C56.2766 202.979 56.5005 202.755 56.5005 202.479H55.5005ZM56.5005 207.493C56.5005 207.217 56.2766 206.993 56.0005 206.993C55.7243 206.993 55.5005 207.217 55.5005 207.493H56.5005ZM56.2974 214.019C56.4032 214.274 56.6957 214.396 56.9508 214.29C57.2059 214.184 57.3269 213.891 57.2212 213.636L56.2974 214.019ZM62.3641 218.779C62.1091 218.674 61.8165 218.795 61.7107 219.05C61.605 219.305 61.726 219.597 61.9811 219.703L62.3641 218.779ZM69.438 220.5C69.7141 220.5 69.938 220.276 69.938 220C69.938 219.724 69.7141 219.5 69.438 219.5V220.5ZM76.313 219.5C76.0368 219.5 75.813 219.724 75.813 220C75.813 220.276 76.0368 220.5 76.313 220.5V219.5ZM83.188 220.5C83.4641 220.5 83.688 220.276 83.688 220C83.688 219.724 83.4641 219.5 83.188 219.5V220.5ZM90.063 219.5C89.7868 219.5 89.563 219.724 89.563 220C89.563 220.276 89.7868 220.5 90.063 220.5V219.5ZM96.938 220.5C97.2141 220.5 97.438 220.276 97.438 220C97.438 219.724 97.2141 219.5 96.938 219.5V220.5ZM103.813 219.5C103.537 219.5 103.313 219.724 103.313 220C103.313 220.276 103.537 220.5 103.813 220.5V219.5ZM110.688 220.5C110.964 220.5 111.188 220.276 111.188 220C111.188 219.724 110.964 219.5 110.688 219.5V220.5ZM117.563 219.5C117.287 219.5 117.063 219.724 117.063 220C117.063 220.276 117.287 220.5 117.563 220.5V219.5ZM124.438 220.5C124.714 220.5 124.938 220.276 124.938 220C124.938 219.724 124.714 219.5 124.438 219.5V220.5ZM131.313 219.5C131.037 219.5 130.813 219.724 130.813 220C130.813 220.276 131.037 220.5 131.313 220.5V219.5ZM138.188 220.5C138.464 220.5 138.688 220.276 138.688 220C138.688 219.724 138.464 219.5 138.188 219.5V220.5ZM145.063 219.5C144.787 219.5 144.563 219.724 144.563 220C144.563 220.276 144.787 220.5 145.063 220.5V219.5ZM151.938 220.5C152.214 220.5 152.438 220.276 152.438 220C152.438 219.724 152.214 219.5 151.938 219.5V220.5ZM158.813 219.5C158.537 219.5 158.313 219.724 158.313 220C158.313 220.276 158.537 220.5 158.813 220.5V219.5ZM165.688 220.5C165.964 220.5 166.188 220.276 166.188 220C166.188 219.724 165.964 219.5 165.688 219.5V220.5ZM172.563 219.5C172.287 219.5 172.063 219.724 172.063 220C172.063 220.276 172.287 220.5 172.563 220.5V219.5ZM179.438 220.5C179.714 220.5 179.938 220.276 179.938 220C179.938 219.724 179.714 219.5 179.438 219.5V220.5ZM186.313 219.5C186.037 219.5 185.813 219.724 185.813 220C185.813 220.276 186.037 220.5 186.313 220.5V219.5ZM193.188 220.5C193.464 220.5 193.688 220.276 193.688 220C193.688 219.724 193.464 219.5 193.188 219.5V220.5ZM200.063 219.5C199.787 219.5 199.563 219.724 199.563 220C199.563 220.276 199.787 220.5 200.063 220.5V219.5ZM206.938 220.5C207.214 220.5 207.438 220.276 207.438 220C207.438 219.724 207.214 219.5 206.938 219.5V220.5ZM213.813 219.5C213.537 219.5 213.313 219.724 213.313 220C213.313 220.276 213.537 220.5 213.813 220.5V219.5ZM220.688 220.5C220.964 220.5 221.188 220.276 221.188 220C221.188 219.724 220.964 219.5 220.688 219.5V220.5ZM227.563 219.5C227.287 219.5 227.063 219.724 227.063 220C227.063 220.276 227.287 220.5 227.563 220.5V219.5ZM234.438 220.5C234.714 220.5 234.938 220.276 234.938 220C234.938 219.724 234.714 219.5 234.438 219.5V220.5ZM241.313 219.5C241.037 219.5 240.813 219.724 240.813 220C240.813 220.276 241.037 220.5 241.313 220.5V219.5ZM248.188 220.5C248.464 220.5 248.688 220.276 248.688 220C248.688 219.724 248.464 219.5 248.188 219.5V220.5ZM255.063 219.5C254.787 219.5 254.563 219.724 254.563 220C254.563 220.276 254.787 220.5 255.063 220.5V219.5ZM261.938 220.5C262.214 220.5 262.438 220.276 262.438 220C262.438 219.724 262.214 219.5 261.938 219.5V220.5ZM268.813 219.5C268.537 219.5 268.313 219.724 268.313 220C268.313 220.276 268.537 220.5 268.813 220.5V219.5ZM275.688 220.5C275.964 220.5 276.188 220.276 276.188 220C276.188 219.724 275.964 219.5 275.688 219.5V220.5ZM282.563 219.5C282.287 219.5 282.063 219.724 282.063 220C282.063 220.276 282.287 220.5 282.563 220.5V219.5ZM289.438 220.5C289.714 220.5 289.938 220.276 289.938 220C289.938 219.724 289.714 219.5 289.438 219.5V220.5ZM296.313 219.5C296.037 219.5 295.813 219.724 295.813 220C295.813 220.276 296.037 220.5 296.313 220.5V219.5ZM303.188 220.5C303.464 220.5 303.688 220.276 303.688 220C303.688 219.724 303.464 219.5 303.188 219.5V220.5ZM310.063 219.5C309.787 219.5 309.563 219.724 309.563 220C309.563 220.276 309.787 220.5 310.063 220.5V219.5ZM316.938 220.5C317.214 220.5 317.438 220.276 317.438 220C317.438 219.724 317.214 219.5 316.938 219.5V220.5ZM323.813 219.5C323.537 219.5 323.313 219.724 323.313 220C323.313 220.276 323.537 220.5 323.813 220.5V219.5ZM330.688 220.5C330.964 220.5 331.188 220.276 331.188 220C331.188 219.724 330.964 219.5 330.688 219.5V220.5ZM337.563 219.5C337.287 219.5 337.063 219.724 337.063 220C337.063 220.276 337.287 220.5 337.563 220.5V219.5ZM344.438 220.5C344.714 220.5 344.938 220.276 344.938 220C344.938 219.724 344.714 219.5 344.438 219.5V220.5ZM351.313 219.5C351.037 219.5 350.813 219.724 350.813 220C350.813 220.276 351.037 220.5 351.313 220.5V219.5ZM358.188 220.5C358.464 220.5 358.688 220.276 358.688 220C358.688 219.724 358.464 219.5 358.188 219.5V220.5ZM365.063 219.5C364.787 219.5 364.563 219.724 364.563 220C364.563 220.276 364.787 220.5 365.063 220.5V219.5ZM371.938 220.5C372.214 220.5 372.438 220.276 372.438 220C372.438 219.724 372.214 219.5 371.938 219.5V220.5ZM378.813 219.5C378.537 219.5 378.313 219.724 378.313 220C378.313 220.276 378.537 220.5 378.813 220.5V219.5ZM385.688 220.5C385.964 220.5 386.188 220.276 386.188 220C386.188 219.724 385.964 219.5 385.688 219.5V220.5ZM392.563 219.5C392.287 219.5 392.063 219.724 392.063 220C392.063 220.276 392.287 220.5 392.563 220.5V219.5ZM400.02 219.703C400.275 219.597 400.396 219.305 400.29 219.05C400.184 218.795 399.892 218.674 399.637 218.779L400.02 219.703ZM404.78 213.636C404.674 213.891 404.795 214.184 405.05 214.29C405.305 214.396 405.598 214.274 405.704 214.019L404.78 213.636ZM406.5 206.364C406.5 206.087 406.277 205.864 406 205.864C405.724 205.864 405.5 206.087 405.5 206.364H406.5ZM405.5 199.091C405.5 199.367 405.724 199.591 406 199.591C406.277 199.591 406.5 199.367 406.5 199.091H405.5ZM406.5 191.818C406.5 191.542 406.277 191.318 406 191.318C405.724 191.318 405.5 191.542 405.5 191.818H406.5ZM405.5 184.545C405.5 184.822 405.724 185.045 406 185.045C406.277 185.045 406.5 184.822 406.5 184.545H405.5ZM406.5 177.273C406.5 176.997 406.277 176.773 406 176.773C405.724 176.773 405.5 176.997 405.5 177.273H406.5ZM405.5 170C405.5 170.276 405.724 170.5 406 170.5C406.277 170.5 406.5 170.276 406.5 170H405.5ZM406.5 162.727C406.5 162.451 406.277 162.227 406 162.227C405.724 162.227 405.5 162.451 405.5 162.727H406.5ZM405.5 155.455C405.5 155.731 405.724 155.955 406 155.955C406.277 155.955 406.5 155.731 406.5 155.455H405.5ZM406.5 148.182C406.5 147.906 406.277 147.682 406 147.682C405.724 147.682 405.5 147.906 405.5 148.182H406.5ZM405.5 140.909C405.5 141.185 405.724 141.409 406 141.409C406.277 141.409 406.5 141.185 406.5 140.909H405.5ZM406.5 133.636C406.5 133.36 406.277 133.136 406 133.136C405.724 133.136 405.5 133.36 405.5 133.636H406.5ZM405.5 126.364C405.5 126.64 405.724 126.864 406 126.864C406.277 126.864 406.5 126.64 406.5 126.364H405.5ZM406.5 119.091C406.5 118.815 406.277 118.591 406 118.591C405.724 118.591 405.5 118.815 405.5 119.091H406.5ZM405.5 111.818C405.5 112.094 405.724 112.318 406 112.318C406.277 112.318 406.5 112.094 406.5 111.818H405.5ZM406.5 104.545C406.5 104.269 406.277 104.045 406 104.045C405.724 104.045 405.5 104.269 405.5 104.545H406.5ZM405.5 97.2727C405.5 97.5489 405.724 97.7727 406 97.7727C406.277 97.7727 406.5 97.5489 406.5 97.2727H405.5ZM406.5 90C406.5 89.7238 406.277 89.5 406 89.5C405.724 89.5 405.5 89.7238 405.5 90H406.5ZM405.5 82.7273C405.5 83.0034 405.724 83.2273 406 83.2273C406.277 83.2273 406.5 83.0034 406.5 82.7273H405.5ZM406.5 75.4545C406.5 75.1784 406.277 74.9545 406 74.9545C405.724 74.9545 405.5 75.1784 405.5 75.4545H406.5ZM405.5 68.1818C405.5 68.458 405.724 68.6818 406 68.6818C406.277 68.6818 406.5 68.458 406.5 68.1818H405.5ZM406.5 60.9091C406.5 60.633 406.277 60.4091 406 60.4091C405.724 60.4091 405.5 60.633 405.5 60.9091H406.5ZM405.5 53.6364C405.5 53.9125 405.724 54.1364 406 54.1364C406.277 54.1364 406.5 53.9125 406.5 53.6364H405.5ZM405.704 45.9806C405.598 45.7255 405.305 45.6045 405.05 45.7103C404.795 45.816 404.674 46.1086 404.78 46.3636L405.704 45.9806ZM399.637 41.2207C399.892 41.3264 400.184 41.2054 400.29 40.9503C400.396 40.6953 400.275 40.4027 400.02 40.2969L399.637 41.2207ZM392.563 39.5C392.287 39.5 392.063 39.7239 392.063 40C392.063 40.2761 392.287 40.5 392.563 40.5V39.5ZM385.688 40.5C385.964 40.5 386.188 40.2761 386.188 40C386.188 39.7239 385.964 39.5 385.688 39.5V40.5ZM378.813 39.5C378.537 39.5 378.313 39.7239 378.313 40C378.313 40.2761 378.537 40.5 378.813 40.5V39.5ZM371.938 40.5C372.214 40.5 372.438 40.2761 372.438 40C372.438 39.7239 372.214 39.5 371.938 39.5V40.5ZM365.063 39.5C364.787 39.5 364.563 39.7239 364.563 40C364.563 40.2761 364.787 40.5 365.063 40.5V39.5ZM358.188 40.5C358.464 40.5 358.688 40.2761 358.688 40C358.688 39.7239 358.464 39.5 358.188 39.5V40.5ZM351.313 39.5C351.037 39.5 350.813 39.7239 350.813 40C350.813 40.2761 351.037 40.5 351.313 40.5V39.5ZM344.438 40.5C344.714 40.5 344.938 40.2761 344.938 40C344.938 39.7239 344.714 39.5 344.438 39.5V40.5ZM337.563 39.5C337.287 39.5 337.063 39.7239 337.063 40C337.063 40.2761 337.287 40.5 337.563 40.5V39.5ZM330.688 40.5C330.964 40.5 331.188 40.2761 331.188 40C331.188 39.7239 330.964 39.5 330.688 39.5V40.5ZM323.813 39.5C323.537 39.5 323.313 39.7239 323.313 40C323.313 40.2761 323.537 40.5 323.813 40.5V39.5ZM316.938 40.5C317.214 40.5 317.438 40.2761 317.438 40C317.438 39.7239 317.214 39.5 316.938 39.5V40.5ZM310.063 39.5C309.787 39.5 309.563 39.7239 309.563 40C309.563 40.2761 309.787 40.5 310.063 40.5V39.5ZM303.188 40.5C303.464 40.5 303.688 40.2761 303.688 40C303.688 39.7239 303.464 39.5 303.188 39.5V40.5ZM296.313 39.5C296.037 39.5 295.813 39.7239 295.813 40C295.813 40.2761 296.037 40.5 296.313 40.5V39.5ZM289.438 40.5C289.714 40.5 289.938 40.2761 289.938 40C289.938 39.7239 289.714 39.5 289.438 39.5V40.5ZM282.563 39.5C282.287 39.5 282.063 39.7239 282.063 40C282.063 40.2761 282.287 40.5 282.563 40.5V39.5ZM275.688 40.5C275.964 40.5 276.188 40.2761 276.188 40C276.188 39.7239 275.964 39.5 275.688 39.5V40.5ZM268.813 39.5C268.537 39.5 268.313 39.7239 268.313 40C268.313 40.2761 268.537 40.5 268.813 40.5V39.5ZM261.938 40.5C262.214 40.5 262.438 40.2761 262.438 40C262.438 39.7239 262.214 39.5 261.938 39.5V40.5ZM255.063 39.5C254.787 39.5 254.563 39.7239 254.563 40C254.563 40.2761 254.787 40.5 255.063 40.5V39.5ZM248.188 40.5C248.464 40.5 248.688 40.2761 248.688 40C248.688 39.7239 248.464 39.5 248.188 39.5V40.5ZM241.313 39.5C241.037 39.5 240.813 39.7239 240.813 40C240.813 40.2761 241.037 40.5 241.313 40.5V39.5ZM234.438 40.5C234.714 40.5 234.938 40.2761 234.938 40C234.938 39.7239 234.714 39.5 234.438 39.5V40.5ZM227.563 39.5C227.287 39.5 227.063 39.7239 227.063 40C227.063 40.2761 227.287 40.5 227.563 40.5V39.5ZM220.688 40.5C220.964 40.5 221.188 40.2761 221.188 40C221.188 39.7239 220.964 39.5 220.688 39.5V40.5ZM213.813 39.5C213.537 39.5 213.313 39.7239 213.313 40C213.313 40.2761 213.537 40.5 213.813 40.5V39.5ZM206.938 40.5C207.214 40.5 207.438 40.2761 207.438 40C207.438 39.7239 207.214 39.5 206.938 39.5V40.5ZM200.063 39.5C199.787 39.5 199.563 39.7239 199.563 40C199.563 40.2761 199.787 40.5 200.063 40.5V39.5ZM193.188 40.5C193.464 40.5 193.688 40.2761 193.688 40C193.688 39.7239 193.464 39.5 193.188 39.5V40.5ZM186.313 39.5C186.037 39.5 185.813 39.7239 185.813 40C185.813 40.2761 186.037 40.5 186.313 40.5V39.5ZM179.438 40.5C179.714 40.5 179.938 40.2761 179.938 40C179.938 39.7239 179.714 39.5 179.438 39.5V40.5ZM172.563 39.5C172.287 39.5 172.063 39.7239 172.063 40C172.063 40.2761 172.287 40.5 172.563 40.5V39.5ZM165.688 40.5C165.964 40.5 166.188 40.2761 166.188 40C166.188 39.7239 165.964 39.5 165.688 39.5V40.5ZM158.813 39.5C158.537 39.5 158.313 39.7239 158.313 40C158.313 40.2761 158.537 40.5 158.813 40.5V39.5ZM151.938 40.5C152.214 40.5 152.438 40.2761 152.438 40C152.438 39.7239 152.214 39.5 151.938 39.5V40.5ZM145.063 39.5C144.787 39.5 144.563 39.7239 144.563 40C144.563 40.2761 144.787 40.5 145.063 40.5V39.5ZM138.188 40.5C138.464 40.5 138.688 40.2761 138.688 40C138.688 39.7239 138.464 39.5 138.188 39.5V40.5ZM131.313 39.5C131.037 39.5 130.813 39.7239 130.813 40C130.813 40.2761 131.037 40.5 131.313 40.5V39.5ZM124.438 40.5C124.714 40.5 124.938 40.2761 124.938 40C124.938 39.7239 124.714 39.5 124.438 39.5V40.5ZM117.563 39.5C117.287 39.5 117.063 39.7239 117.063 40C117.063 40.2761 117.287 40.5 117.563 40.5V39.5ZM110.688 40.5C110.964 40.5 111.188 40.2761 111.188 40C111.188 39.7239 110.964 39.5 110.688 39.5V40.5ZM103.813 39.5C103.537 39.5 103.313 39.7239 103.313 40C103.313 40.2761 103.537 40.5 103.813 40.5V39.5ZM96.938 40.5C97.2141 40.5 97.438 40.2761 97.438 40C97.438 39.7239 97.2141 39.5 96.938 39.5V40.5ZM90.063 39.5C89.7869 39.5 89.563 39.7239 89.563 40C89.563 40.2761 89.7869 40.5 90.063 40.5V39.5ZM83.188 40.5C83.4641 40.5 83.688 40.2761 83.688 40C83.688 39.7239 83.4641 39.5 83.188 39.5V40.5ZM76.313 39.5C76.0368 39.5 75.813 39.7239 75.813 40C75.813 40.2761 76.0368 40.5 76.313 40.5V39.5ZM69.438 40.5C69.7141 40.5 69.938 40.2761 69.938 40C69.938 39.7239 69.7141 39.5 69.438 39.5V40.5ZM61.9811 40.2969C61.726 40.4027 61.605 40.6953 61.7107 40.9503C61.8165 41.2054 62.1091 41.3264 62.3641 41.2207L61.9811 40.2969ZM57.2212 46.3637C57.3269 46.1086 57.2059 45.816 56.9508 45.7103C56.6957 45.6045 56.4032 45.7255 56.2974 45.9806L57.2212 46.3637ZM55.5005 50V52.507H56.5005V50H55.5005ZM55.5005 57.521V60.028H56.5005V57.521H55.5005ZM55.9865 60.5278C57.1087 60.5593 58.2243 60.6174 59.3326 60.7015L59.4083 59.7043C58.2842 59.6191 57.1527 59.5602 56.0145 59.5282L55.9865 60.5278ZM65.9794 61.5284C68.1955 61.9134 70.3756 62.4033 72.5143 62.9929L72.7801 62.0289C70.6103 61.4307 68.3987 60.9337 66.1506 60.5432L65.9794 61.5284ZM78.8761 65.0841C80.9698 65.8869 83.0148 66.7881 85.0054 67.782L85.4521 66.8873C83.4328 65.879 81.3582 64.9648 79.2342 64.1504L78.8761 65.0841ZM90.8456 71.0595C92.7416 72.2472 94.5762 73.524 96.3436 74.8838L96.9534 74.0913C95.1607 72.7119 93.2998 71.4169 91.3765 70.212L90.8456 71.0595ZM101.45 79.2178C103.082 80.7429 104.64 82.3458 106.118 84.0205L106.868 83.3586C105.368 81.66 103.788 80.0342 102.133 78.4872L101.45 79.2178ZM110.305 89.2478C111.614 91.0526 112.838 92.9228 113.971 94.8525L114.833 94.3461C113.684 92.3886 112.442 90.4915 111.115 88.6608L110.305 89.2478ZM117.08 100.784C118.016 102.802 118.858 104.872 119.601 106.988L120.544 106.657C119.791 104.51 118.937 102.41 117.987 100.363L117.08 100.784ZM121.508 113.408C122.035 115.561 122.462 117.755 122.784 119.982L123.774 119.839C123.447 117.58 123.014 115.355 122.479 113.17L121.508 113.408ZM123.421 126.65C123.474 127.76 123.5 128.877 123.5 130H124.5C124.5 128.861 124.473 127.728 124.42 126.603L123.421 126.65ZM123.5 130C123.5 131.123 123.474 132.24 123.421 133.35L124.42 133.397C124.473 132.272 124.5 131.139 124.5 130H123.5ZM122.784 140.018C122.462 142.245 122.035 144.439 121.508 146.592L122.479 146.83C123.014 144.645 123.447 142.42 123.774 140.161L122.784 140.018ZM119.601 153.012C118.858 155.128 118.016 157.198 117.08 159.216L117.987 159.637C118.937 157.59 119.791 155.49 120.544 153.343L119.601 153.012ZM113.971 165.147C112.838 167.077 111.614 168.947 110.305 170.752L111.115 171.339C112.442 169.508 113.684 167.611 114.833 165.654L113.971 165.147ZM106.118 175.98C104.64 177.654 103.082 179.257 101.45 180.782L102.133 181.513C103.788 179.966 105.368 178.34 106.868 176.641L106.118 175.98ZM96.3436 185.116C94.5762 186.476 92.7416 187.753 90.8456 188.941L91.3765 189.788C93.2998 188.583 95.1607 187.288 96.9534 185.909L96.3436 185.116ZM85.0054 192.218C83.0148 193.212 80.9698 194.113 78.8761 194.916L79.2342 195.85C81.3582 195.035 83.4328 194.121 85.4521 193.113L85.0054 192.218ZM72.5143 197.007C70.3756 197.597 68.1955 198.087 65.9794 198.472L66.1506 199.457C68.3987 199.066 70.6103 198.569 72.7801 197.971L72.5143 197.007ZM59.3326 199.299C58.2243 199.383 57.1087 199.441 55.9865 199.472L56.0145 200.472C57.1527 200.44 58.2842 200.381 59.4083 200.296L59.3326 199.299ZM55.5005 199.972V202.479H56.5005V199.972H55.5005ZM55.5005 207.493V210H56.5005V207.493H55.5005ZM55.5005 210C55.5005 211.423 55.7838 212.781 56.2974 214.019L57.2212 213.636C56.7569 212.517 56.5005 211.289 56.5005 210H55.5005ZM61.9811 219.703C63.2198 220.217 64.5777 220.5 66.0005 220.5V219.5C64.7114 219.5 63.4836 219.244 62.3641 218.779L61.9811 219.703ZM66.0005 220.5H69.438V219.5H66.0005V220.5ZM76.313 220.5H83.188V219.5H76.313V220.5ZM90.063 220.5H96.938V219.5H90.063V220.5ZM103.813 220.5H110.688V219.5H103.813V220.5ZM117.563 220.5H124.438V219.5H117.563V220.5ZM131.313 220.5H138.188V219.5H131.313V220.5ZM145.063 220.5H151.938V219.5H145.063V220.5ZM158.813 220.5H165.688V219.5H158.813V220.5ZM172.563 220.5H179.438V219.5H172.563V220.5ZM186.313 220.5H193.188V219.5H186.313V220.5ZM200.063 220.5H206.938V219.5H200.063V220.5ZM213.813 220.5H220.688V219.5H213.813V220.5ZM227.563 220.5H234.438V219.5H227.563V220.5ZM241.313 220.5H248.188V219.5H241.313V220.5ZM255.063 220.5H261.938V219.5H255.063V220.5ZM268.813 220.5H275.688V219.5H268.813V220.5ZM282.563 220.5H289.438V219.5H282.563V220.5ZM296.313 220.5H303.188V219.5H296.313V220.5ZM310.063 220.5H316.938V219.5H310.063V220.5ZM323.813 220.5H330.688V219.5H323.813V220.5ZM337.563 220.5H344.438V219.5H337.563V220.5ZM351.313 220.5H358.188V219.5H351.313V220.5ZM365.063 220.5H371.938V219.5H365.063V220.5ZM378.813 220.5H385.688V219.5H378.813V220.5ZM392.563 220.5H396V219.5H392.563V220.5ZM396 220.5C397.423 220.5 398.781 220.217 400.02 219.703L399.637 218.779C398.517 219.244 397.29 219.5 396 219.5V220.5ZM405.704 214.019C406.217 212.781 406.5 211.423 406.5 210H405.5C405.5 211.289 405.244 212.517 404.78 213.636L405.704 214.019ZM406.5 210V206.364H405.5V210H406.5ZM406.5 199.091V191.818H405.5V199.091H406.5ZM406.5 184.545V177.273H405.5V184.545H406.5ZM406.5 170V162.727H405.5V170H406.5ZM406.5 155.455V148.182H405.5V155.455H406.5ZM406.5 140.909V133.636H405.5V140.909H406.5ZM406.5 126.364V119.091H405.5V126.364H406.5ZM406.5 111.818V104.545H405.5V111.818H406.5ZM406.5 97.2727V90H405.5V97.2727H406.5ZM406.5 82.7273V75.4545H405.5V82.7273H406.5ZM406.5 68.1818V60.9091H405.5V68.1818H406.5ZM406.5 53.6364V50H405.5V53.6364H406.5ZM406.5 50C406.5 48.5772 406.217 47.2193 405.704 45.9806L404.78 46.3636C405.244 47.4831 405.5 48.711 405.5 50H406.5ZM400.02 40.2969C398.781 39.7833 397.423 39.5 396 39.5V40.5C397.29 40.5 398.517 40.7565 399.637 41.2207L400.02 40.2969ZM396 39.5H392.563V40.5H396V39.5ZM385.688 39.5H378.813V40.5H385.688V39.5ZM371.938 39.5H365.063V40.5H371.938V39.5ZM358.188 39.5H351.313V40.5H358.188V39.5ZM344.438 39.5H337.563V40.5H344.438V39.5ZM330.688 39.5H323.813V40.5H330.688V39.5ZM316.938 39.5H310.063V40.5H316.938V39.5ZM303.188 39.5H296.313V40.5H303.188V39.5ZM289.438 39.5H282.563V40.5H289.438V39.5ZM275.688 39.5H268.813V40.5H275.688V39.5ZM261.938 39.5H255.063V40.5H261.938V39.5ZM248.188 39.5H241.313V40.5H248.188V39.5ZM234.438 39.5H227.563V40.5H234.438V39.5ZM220.688 39.5H213.813V40.5H220.688V39.5ZM206.938 39.5H200.063V40.5H206.938V39.5ZM193.188 39.5H186.313V40.5H193.188V39.5ZM179.438 39.5H172.563V40.5H179.438V39.5ZM165.688 39.5H158.813V40.5H165.688V39.5ZM151.938 39.5H145.063V40.5H151.938V39.5ZM138.188 39.5H131.313V40.5H138.188V39.5ZM124.438 39.5H117.563V40.5H124.438V39.5ZM110.688 39.5H103.813V40.5H110.688V39.5ZM96.938 39.5H90.063V40.5H96.938V39.5ZM83.188 39.5H76.313V40.5H83.188V39.5ZM69.438 39.5H66.0005V40.5H69.438V39.5ZM66.0005 39.5C64.5777 39.5 63.2198 39.7833 61.9811 40.2969L62.3641 41.2207C63.4836 40.7565 64.7114 40.5 66.0005 40.5V39.5ZM56.2974 45.9806C55.7838 47.2193 55.5005 48.5772 55.5005 50H56.5005C56.5005 48.711 56.7569 47.4831 57.2212 46.3637L56.2974 45.9806Z" fill="#E5E5E5"/>
</g>
<defs>
<filter id="filter0_d" x="16.0005" y="0" width="430" height="260" filterUnits="userSpaceOnUse" color-interpolation-filters="sRGB">
<feFlood flood-opacity="0" result="BackgroundImageFix"/>
<feColorMatrix in="SourceAlpha" type="matrix" values="0 0 0 0 0 0 0 0 0 0 0 0 0 0 0 0 0 0 127 0"/>
<feOffset/>
<feGaussianBlur stdDeviation="15"/>
<feColorMatrix type="matrix" values="0 0 0 0 0 0 0 0 0 0 0 0 0 0 0 0 0 0 0.1 0"/>
<feBlend mode="normal" in2="BackgroundImageFix" result="effect1_dropShadow"/>
<feBlend mode="normal" in="SourceGraphic" in2="effect1_dropShadow" result="shape"/>
</filter>
<filter id="filter1_d" x="25.5005" y="9.5" width="411" height="241" filterUnits="userSpaceOnUse" color-interpolation-filters="sRGB">
<feFlood flood-opacity="0" result="BackgroundImageFix"/>
<feColorMatrix in="SourceAlpha" type="matrix" values="0 0 0 0 0 0 0 0 0 0 0 0 0 0 0 0 0 0 127 0"/>
<feOffset/>
<feGaussianBlur stdDeviation="15"/>
<feColorMatrix type="matrix" values="0 0 0 0 0 0 0 0 0 0 0 0 0 0 0 0 0 0 0.1 0"/>
<feBlend mode="normal" in2="BackgroundImageFix" result="effect1_dropShadow"/>
<feBlend mode="normal" in="SourceGraphic" in2="effect1_dropShadow" result="shape"/>
</filter>
<linearGradient id="paint0_linear" x1="48.6369" y1="180" x2="48.6368" y2="80" gradientUnits="userSpaceOnUse">
<stop stop-color="#FCCB05"/>
<stop offset="1" stop-color="#FFE57D"/>
</linearGradient>
<linearGradient id="paint1_linear" x1="48.6364" y1="180" x2="48.6364" y2="80" gradientUnits="userSpaceOnUse">
<stop stop-color="#FCCB05"/>
<stop offset="1" stop-color="#FFE57D"/>
</linearGradient>
</defs>
</svg>
