<svg width="100" height="96" viewBox="0 0 100 96" fill="none" xmlns="http://www.w3.org/2000/svg">
<path fill-rule="evenodd" clip-rule="evenodd" d="M84.147 89.4165V51.9533C80.0837 47.7235 78.0115 45.5663 76.0018 43.4743C72.1166 39.4298 68.4651 35.6286 51.1133 17.566C50.5034 16.9319 49.4931 16.9337 48.8856 17.566L15.8519 51.9534V62.1204C15.8519 62.9296 15.1959 63.5854 14.3868 63.5854C13.5777 63.5854 12.9218 62.9296 12.9218 62.1204V55.0037L9.9401 58.1075C8.59166 59.5108 6.35677 59.5315 4.98196 58.1571L1.00892 54.184C-0.317641 52.8575 -0.339519 50.6775 0.960084 49.3246L46.0493 2.38823C48.2064 0.142399 51.7942 0.144352 53.9498 2.38823L99.0388 49.3246C100.339 50.6777 100.317 52.8577 98.99 54.184L95.0171 58.1571C93.6411 59.5331 91.4058 59.5092 90.0592 58.1075L87.0771 55.0033V89.4165C87.0771 92.6582 84.4398 95.2955 81.1981 95.2955H78.9263C78.117 95.2955 77.4612 94.6397 77.4612 93.8304C77.4612 93.0211 78.117 92.3654 78.9263 92.3654H81.1981C82.8243 92.3654 84.147 91.0425 84.147 89.4165ZM92.9449 56.0851L96.918 52.1119C97.125 51.9052 97.1284 51.5651 96.9256 51.3541L51.8368 4.41822C50.8334 3.37334 49.1661 3.37314 48.1623 4.41802L3.07328 51.3543C2.87071 51.5651 2.87403 51.905 3.0809 52.1119L7.05394 56.0849C7.31374 56.299 7.57159 56.2965 7.8271 56.0773L13.3281 50.3511L13.3302 50.3485L46.7726 15.5362C48.5338 13.7028 51.4575 13.702 53.22 15.53C53.222 15.5321 53.2241 15.5339 53.2261 15.536L53.2265 15.5364L92.172 56.0773C92.4275 56.2965 92.6851 56.299 92.9449 56.0851ZM63.3689 92.3651H72.0602C72.8695 92.3651 73.5253 93.0209 73.5253 93.8302C73.5253 94.6395 72.8695 95.2952 72.0602 95.2952H18.8007C15.5591 95.2952 12.9218 92.6579 12.9218 89.4163V68.957C12.9218 68.1477 13.5777 67.492 14.3868 67.492C15.1959 67.492 15.8519 68.1477 15.8519 68.957V89.4163C15.8519 91.0425 17.1747 92.3651 18.8007 92.3651H36.6301V75.777C36.6301 68.4052 42.6276 62.4078 49.9994 62.4078C57.3714 62.4078 63.3689 68.4052 63.3689 75.777V92.3651ZM49.9994 65.3381C44.2433 65.3381 39.5602 70.021 39.5602 75.7772V92.3653H60.4386V75.7772C60.4386 70.0212 55.7555 65.3381 49.9994 65.3381Z" fill="white" style="mix-blend-mode:overlay"/>
</svg>
