<svg width="333" height="196" viewBox="0 0 333 196" fill="none" xmlns="http://www.w3.org/2000/svg">
<g filter="url(#filter0_d)">
<path fill-rule="evenodd" clip-rule="evenodd" d="M30.3986 23C26.3125 23 23 26.3125 23 30.3986V165.601C23 169.688 26.3124 173 30.3986 173H285.601C289.688 173 293 169.688 293 165.601V142.998C292.854 142.999 292.708 143 292.562 143C266.999 143 246.276 122.853 246.276 98C246.276 73.1472 266.999 53 292.562 53C292.708 53 292.854 53.0007 293 53.002V30.3986C293 26.3125 289.688 23 285.601 23H30.3986Z" fill="white"/>
</g>
<g filter="url(#filter1_d)">
<path d="M283 148.396H283.37V148.068L283.045 148.028L283 148.396ZM283 45.576L283.045 45.9433L283.37 45.9038V45.576H283ZM32.6301 42.6364C32.6301 42.8407 32.7957 43.0063 33 43.0063C33.2043 43.0063 33.3699 42.8407 33.3699 42.6364H32.6301ZM33.3699 47.9091C33.3699 47.7048 33.2043 47.5392 33 47.5392C32.7957 47.5392 32.6301 47.7048 32.6301 47.9091H33.3699ZM32.6301 53.1818C32.6301 53.3861 32.7957 53.5517 33 53.5517C33.2043 53.5517 33.3699 53.3861 33.3699 53.1818H32.6301ZM33.3699 58.4545C33.3699 58.2502 33.2043 58.0846 33 58.0846C32.7957 58.0846 32.6301 58.2502 32.6301 58.4545H33.3699ZM32.6301 63.7273C32.6301 63.9316 32.7957 64.0972 33 64.0972C33.2043 64.0972 33.3699 63.9316 33.3699 63.7273H32.6301ZM33.3699 69C33.3699 68.7957 33.2043 68.6301 33 68.6301C32.7957 68.6301 32.6301 68.7957 32.6301 69H33.3699ZM32.6301 74.2727C32.6301 74.477 32.7957 74.6427 33 74.6427C33.2043 74.6427 33.3699 74.477 33.3699 74.2727H32.6301ZM33.3699 79.5455C33.3699 79.3412 33.2043 79.1755 33 79.1755C32.7957 79.1755 32.6301 79.3412 32.6301 79.5455H33.3699ZM32.6301 84.8182C32.6301 85.0225 32.7957 85.1881 33 85.1881C33.2043 85.1881 33.3699 85.0225 33.3699 84.8182H32.6301ZM33.3699 90.0909C33.3699 89.8866 33.2043 89.721 33 89.721C32.7957 89.721 32.6301 89.8866 32.6301 90.0909H33.3699ZM32.6301 95.3636C32.6301 95.5679 32.7957 95.7336 33 95.7336C33.2043 95.7336 33.3699 95.5679 33.3699 95.3636H32.6301ZM33.3699 100.636C33.3699 100.432 33.2043 100.266 33 100.266C32.7957 100.266 32.6301 100.432 32.6301 100.636H33.3699ZM32.6301 105.909C32.6301 106.113 32.7957 106.279 33 106.279C33.2043 106.279 33.3699 106.113 33.3699 105.909H32.6301ZM33.3699 111.182C33.3699 110.978 33.2043 110.812 33 110.812C32.7957 110.812 32.6301 110.978 32.6301 111.182H33.3699ZM32.6301 116.455C32.6301 116.659 32.7957 116.824 33 116.824C33.2043 116.824 33.3699 116.659 33.3699 116.455H32.6301ZM33.3699 121.727C33.3699 121.523 33.2043 121.357 33 121.357C32.7957 121.357 32.6301 121.523 32.6301 121.727H33.3699ZM32.6301 127C32.6301 127.204 32.7957 127.37 33 127.37C33.2043 127.37 33.3699 127.204 33.3699 127H32.6301ZM33.3699 132.273C33.3699 132.068 33.2043 131.903 33 131.903C32.7957 131.903 32.6301 132.068 32.6301 132.273H33.3699ZM32.6301 137.545C32.6301 137.75 32.7957 137.915 33 137.915C33.2043 137.915 33.3699 137.75 33.3699 137.545H32.6301ZM33.3699 142.818C33.3699 142.614 33.2043 142.448 33 142.448C32.7957 142.448 32.6301 142.614 32.6301 142.818H33.3699ZM32.6301 148.091C32.6301 148.295 32.7957 148.461 33 148.461C33.2043 148.461 33.3699 148.295 33.3699 148.091H32.6301ZM33.3699 153.364C33.3699 153.159 33.2043 152.994 33 152.994C32.7957 152.994 32.6301 153.159 32.6301 153.364H33.3699ZM33.1895 158.821C33.2677 159.01 33.4841 159.099 33.6729 159.021C33.8616 158.943 33.9511 158.727 33.8729 158.538L33.1895 158.821ZM37.4622 162.127C37.2735 162.049 37.057 162.138 36.9788 162.327C36.9005 162.516 36.9901 162.732 37.1788 162.811L37.4622 162.127ZM42.5652 163.37C42.7695 163.37 42.9351 163.204 42.9351 163C42.9351 162.796 42.7695 162.63 42.5652 162.63V163.37ZM47.6957 162.63C47.4913 162.63 47.3257 162.796 47.3257 163C47.3257 163.204 47.4913 163.37 47.6957 163.37V162.63ZM52.8261 163.37C53.0304 163.37 53.196 163.204 53.196 163C53.196 162.796 53.0304 162.63 52.8261 162.63V163.37ZM57.9565 162.63C57.7522 162.63 57.5866 162.796 57.5866 163C57.5866 163.204 57.7522 163.37 57.9565 163.37V162.63ZM63.087 163.37C63.2913 163.37 63.4569 163.204 63.4569 163C63.4569 162.796 63.2913 162.63 63.087 162.63V163.37ZM68.2174 162.63C68.0131 162.63 67.8475 162.796 67.8475 163C67.8475 163.204 68.0131 163.37 68.2174 163.37V162.63ZM73.3478 163.37C73.5521 163.37 73.7178 163.204 73.7178 163C73.7178 162.796 73.5521 162.63 73.3478 162.63V163.37ZM78.4783 162.63C78.274 162.63 78.1083 162.796 78.1083 163C78.1083 163.204 78.274 163.37 78.4783 163.37V162.63ZM83.6087 163.37C83.813 163.37 83.9786 163.204 83.9786 163C83.9786 162.796 83.813 162.63 83.6087 162.63V163.37ZM88.7391 162.63C88.5348 162.63 88.3692 162.796 88.3692 163C88.3692 163.204 88.5348 163.37 88.7391 163.37V162.63ZM93.8696 163.37C94.0739 163.37 94.2395 163.204 94.2395 163C94.2395 162.796 94.0739 162.63 93.8696 162.63V163.37ZM99 162.63C98.7957 162.63 98.6301 162.796 98.6301 163C98.6301 163.204 98.7957 163.37 99 163.37V162.63ZM104.13 163.37C104.335 163.37 104.5 163.204 104.5 163C104.5 162.796 104.335 162.63 104.13 162.63V163.37ZM109.261 162.63C109.057 162.63 108.891 162.796 108.891 163C108.891 163.204 109.057 163.37 109.261 163.37V162.63ZM114.391 163.37C114.596 163.37 114.761 163.204 114.761 163C114.761 162.796 114.596 162.63 114.391 162.63V163.37ZM119.522 162.63C119.317 162.63 119.152 162.796 119.152 163C119.152 163.204 119.317 163.37 119.522 163.37V162.63ZM124.652 163.37C124.856 163.37 125.022 163.204 125.022 163C125.022 162.796 124.856 162.63 124.652 162.63V163.37ZM129.783 162.63C129.578 162.63 129.413 162.796 129.413 163C129.413 163.204 129.578 163.37 129.783 163.37V162.63ZM134.913 163.37C135.117 163.37 135.283 163.204 135.283 163C135.283 162.796 135.117 162.63 134.913 162.63V163.37ZM140.043 162.63C139.839 162.63 139.674 162.796 139.674 163C139.674 163.204 139.839 163.37 140.043 163.37V162.63ZM145.174 163.37C145.378 163.37 145.544 163.204 145.544 163C145.544 162.796 145.378 162.63 145.174 162.63V163.37ZM150.304 162.63C150.1 162.63 149.934 162.796 149.934 163C149.934 163.204 150.1 163.37 150.304 163.37V162.63ZM155.435 163.37C155.639 163.37 155.805 163.204 155.805 163C155.805 162.796 155.639 162.63 155.435 162.63V163.37ZM160.565 162.63C160.361 162.63 160.195 162.796 160.195 163C160.195 163.204 160.361 163.37 160.565 163.37V162.63ZM165.696 163.37C165.9 163.37 166.066 163.204 166.066 163C166.066 162.796 165.9 162.63 165.696 162.63V163.37ZM170.826 162.63C170.622 162.63 170.456 162.796 170.456 163C170.456 163.204 170.622 163.37 170.826 163.37V162.63ZM175.957 163.37C176.161 163.37 176.326 163.204 176.326 163C176.326 162.796 176.161 162.63 175.957 162.63V163.37ZM181.087 162.63C180.883 162.63 180.717 162.796 180.717 163C180.717 163.204 180.883 163.37 181.087 163.37V162.63ZM186.217 163.37C186.422 163.37 186.587 163.204 186.587 163C186.587 162.796 186.422 162.63 186.217 162.63V163.37ZM191.348 162.63C191.143 162.63 190.978 162.796 190.978 163C190.978 163.204 191.143 163.37 191.348 163.37V162.63ZM196.478 163.37C196.683 163.37 196.848 163.204 196.848 163C196.848 162.796 196.683 162.63 196.478 162.63V163.37ZM201.609 162.63C201.404 162.63 201.239 162.796 201.239 163C201.239 163.204 201.404 163.37 201.609 163.37V162.63ZM206.739 163.37C206.943 163.37 207.109 163.204 207.109 163C207.109 162.796 206.943 162.63 206.739 162.63V163.37ZM211.87 162.63C211.665 162.63 211.5 162.796 211.5 163C211.5 163.204 211.665 163.37 211.87 163.37V162.63ZM217 163.37C217.204 163.37 217.37 163.204 217.37 163C217.37 162.796 217.204 162.63 217 162.63V163.37ZM222.13 162.63C221.926 162.63 221.76 162.796 221.76 163C221.76 163.204 221.926 163.37 222.13 163.37V162.63ZM227.261 163.37C227.465 163.37 227.631 163.204 227.631 163C227.631 162.796 227.465 162.63 227.261 162.63V163.37ZM232.391 162.63C232.187 162.63 232.021 162.796 232.021 163C232.021 163.204 232.187 163.37 232.391 163.37V162.63ZM237.522 163.37C237.726 163.37 237.892 163.204 237.892 163C237.892 162.796 237.726 162.63 237.522 162.63V163.37ZM242.652 162.63C242.448 162.63 242.282 162.796 242.282 163C242.282 163.204 242.448 163.37 242.652 163.37V162.63ZM247.783 163.37C247.987 163.37 248.152 163.204 248.152 163C248.152 162.796 247.987 162.63 247.783 162.63V163.37ZM252.913 162.63C252.709 162.63 252.543 162.796 252.543 163C252.543 163.204 252.709 163.37 252.913 163.37V162.63ZM258.043 163.37C258.248 163.37 258.413 163.204 258.413 163C258.413 162.796 258.248 162.63 258.043 162.63V163.37ZM263.174 162.63C262.97 162.63 262.804 162.796 262.804 163C262.804 163.204 262.97 163.37 263.174 163.37V162.63ZM268.304 163.37C268.509 163.37 268.674 163.204 268.674 163C268.674 162.796 268.509 162.63 268.304 162.63V163.37ZM273.435 162.63C273.23 162.63 273.065 162.796 273.065 163C273.065 163.204 273.23 163.37 273.435 163.37V162.63ZM278.821 162.811C279.01 162.732 279.099 162.516 279.021 162.327C278.943 162.138 278.727 162.049 278.538 162.127L278.821 162.811ZM282.127 158.538C282.049 158.727 282.138 158.943 282.327 159.021C282.516 159.099 282.732 159.01 282.811 158.821L282.127 158.538ZM283.37 154.099C283.37 153.895 283.204 153.729 283 153.729C282.796 153.729 282.63 153.895 282.63 154.099H283.37ZM282.63 150.297C282.63 150.501 282.796 150.667 283 150.667C283.204 150.667 283.37 150.501 283.37 150.297H282.63ZM280.412 147.639C280.211 147.604 280.019 147.739 279.984 147.94C279.949 148.141 280.083 148.333 280.285 148.368L280.412 147.639ZM275.024 147.166C275.22 147.221 275.425 147.107 275.481 146.911C275.536 146.714 275.422 146.51 275.226 146.454L275.024 147.166ZM270.192 144.736C270.003 144.66 269.787 144.752 269.711 144.941C269.635 145.131 269.728 145.346 269.917 145.422L270.192 144.736ZM265.02 143.158C265.201 143.253 265.425 143.184 265.52 143.003C265.615 142.823 265.546 142.599 265.365 142.504L265.02 143.158ZM260.794 139.783C260.624 139.669 260.395 139.715 260.281 139.885C260.168 140.055 260.214 140.285 260.383 140.398L260.794 139.783ZM256.056 137.175C256.214 137.305 256.447 137.283 256.577 137.126C256.708 136.969 256.686 136.735 256.528 136.605L256.056 137.175ZM252.612 133.006C252.469 132.86 252.234 132.858 252.089 133.001C251.943 133.144 251.941 133.378 252.084 133.524L252.612 133.006ZM248.507 129.485C248.634 129.644 248.867 129.67 249.027 129.543C249.187 129.416 249.213 129.183 249.085 129.023L248.507 129.485ZM245.987 124.699C245.877 124.527 245.648 124.477 245.476 124.588C245.304 124.698 245.254 124.927 245.365 125.099L245.987 124.699ZM242.691 120.411C242.783 120.594 243.006 120.667 243.188 120.575C243.371 120.483 243.444 120.261 243.352 120.078L242.691 120.411ZM241.21 115.21C241.138 115.019 240.924 114.923 240.733 114.995C240.542 115.068 240.446 115.281 240.519 115.472L241.21 115.21ZM238.872 110.335C238.924 110.532 239.126 110.65 239.324 110.598C239.521 110.546 239.639 110.343 239.587 110.146L238.872 110.335ZM238.499 104.939C238.468 104.738 238.278 104.599 238.077 104.631C237.875 104.662 237.736 104.851 237.768 105.053L238.499 104.939ZM237.216 99.6844C237.227 99.8884 237.401 100.045 237.605 100.035C237.809 100.025 237.966 99.8508 237.955 99.6467L237.216 99.6844ZM237.955 94.3248C237.966 94.1208 237.809 93.9469 237.605 93.9365C237.401 93.9261 237.227 94.0831 237.216 94.2872L237.955 94.3248ZM237.768 88.9186C237.736 89.1205 237.875 89.3096 238.077 89.341C238.278 89.3723 238.468 89.234 238.499 89.0322L237.768 88.9186ZM239.587 83.8257C239.639 83.6281 239.521 83.4257 239.324 83.3736C239.126 83.3214 238.924 83.4393 238.872 83.6368L239.587 83.8257ZM240.519 78.4992C240.446 78.6902 240.542 78.9038 240.733 78.9762C240.924 79.0487 241.138 78.9525 241.21 78.7615L240.519 78.4992ZM243.352 73.8931C243.444 73.7106 243.371 73.4882 243.188 73.3963C243.006 73.3044 242.783 73.3779 242.691 73.5604L243.352 73.8931ZM245.365 68.873C245.254 69.045 245.304 69.2738 245.476 69.384C245.648 69.4943 245.877 69.4442 245.987 69.2723L245.365 68.873ZM249.085 64.9484C249.213 64.7886 249.187 64.5559 249.027 64.4285C248.867 64.3011 248.634 64.3273 248.507 64.487L249.085 64.9484ZM252.084 60.4476C251.941 60.5934 251.943 60.8276 252.089 60.9707C252.234 61.1138 252.469 61.1117 252.612 60.9659L252.084 60.4476ZM256.528 57.3665C256.686 57.2362 256.708 57.003 256.577 56.8456C256.447 56.6883 256.214 56.6664 256.056 56.7967L256.528 57.3665ZM260.383 53.5735C260.214 53.687 260.168 53.9167 260.281 54.0866C260.395 54.2565 260.624 54.3023 260.794 54.1889L260.383 53.5735ZM265.365 51.4681C265.546 51.3728 265.615 51.149 265.52 50.9683C265.425 50.7876 265.201 50.7183 265.02 50.8136L265.365 51.4681ZM269.917 48.5492C269.728 48.6252 269.635 48.8405 269.711 49.0301C269.787 49.2198 270.003 49.3119 270.192 49.2359L269.917 48.5492ZM275.226 47.5177C275.422 47.4618 275.536 47.2573 275.481 47.0607C275.425 46.8642 275.22 46.7501 275.024 46.806L275.226 47.5177ZM280.285 45.6035C280.083 45.6386 279.949 45.8302 279.984 46.0315C280.019 46.2327 280.211 46.3675 280.412 46.3324L280.285 45.6035ZM283.37 44.182C283.37 43.9777 283.204 43.8121 283 43.8121C282.796 43.8121 282.63 43.9777 282.63 44.182H283.37ZM282.63 41.394C282.63 41.5983 282.796 41.7639 283 41.7639C283.204 41.7639 283.37 41.5983 283.37 41.394H282.63ZM282.811 37.1788C282.732 36.9901 282.516 36.9005 282.327 36.9788C282.138 37.057 282.049 37.2735 282.127 37.4622L282.811 37.1788ZM278.538 33.8729C278.727 33.9511 278.943 33.8616 279.021 33.6729C279.099 33.4841 279.01 33.2677 278.821 33.1895L278.538 33.8729ZM273.435 32.6301C273.23 32.6301 273.065 32.7957 273.065 33C273.065 33.2043 273.23 33.3699 273.435 33.3699V32.6301ZM268.304 33.3699C268.509 33.3699 268.674 33.2043 268.674 33C268.674 32.7957 268.509 32.6301 268.304 32.6301V33.3699ZM263.174 32.6301C262.97 32.6301 262.804 32.7957 262.804 33C262.804 33.2043 262.97 33.3699 263.174 33.3699V32.6301ZM258.043 33.3699C258.248 33.3699 258.413 33.2043 258.413 33C258.413 32.7957 258.248 32.6301 258.043 32.6301V33.3699ZM252.913 32.6301C252.709 32.6301 252.543 32.7957 252.543 33C252.543 33.2043 252.709 33.3699 252.913 33.3699V32.6301ZM247.783 33.3699C247.987 33.3699 248.153 33.2043 248.153 33C248.153 32.7957 247.987 32.6301 247.783 32.6301V33.3699ZM242.652 32.6301C242.448 32.6301 242.282 32.7957 242.282 33C242.282 33.2043 242.448 33.3699 242.652 33.3699V32.6301ZM237.522 33.3699C237.726 33.3699 237.892 33.2043 237.892 33C237.892 32.7957 237.726 32.6301 237.522 32.6301V33.3699ZM232.391 32.6301C232.187 32.6301 232.021 32.7957 232.021 33C232.021 33.2043 232.187 33.3699 232.391 33.3699V32.6301ZM227.261 33.3699C227.465 33.3699 227.631 33.2043 227.631 33C227.631 32.7957 227.465 32.6301 227.261 32.6301V33.3699ZM222.13 32.6301C221.926 32.6301 221.76 32.7957 221.76 33C221.76 33.2043 221.926 33.3699 222.13 33.3699V32.6301ZM217 33.3699C217.204 33.3699 217.37 33.2043 217.37 33C217.37 32.7957 217.204 32.6301 217 32.6301V33.3699ZM211.87 32.6301C211.665 32.6301 211.5 32.7957 211.5 33C211.5 33.2043 211.665 33.3699 211.87 33.3699V32.6301ZM206.739 33.3699C206.943 33.3699 207.109 33.2043 207.109 33C207.109 32.7957 206.943 32.6301 206.739 32.6301V33.3699ZM201.609 32.6301C201.404 32.6301 201.239 32.7957 201.239 33C201.239 33.2043 201.404 33.3699 201.609 33.3699V32.6301ZM196.478 33.3699C196.683 33.3699 196.848 33.2043 196.848 33C196.848 32.7957 196.683 32.6301 196.478 32.6301V33.3699ZM191.348 32.6301C191.144 32.6301 190.978 32.7957 190.978 33C190.978 33.2043 191.144 33.3699 191.348 33.3699V32.6301ZM186.217 33.3699C186.422 33.3699 186.587 33.2043 186.587 33C186.587 32.7957 186.422 32.6301 186.217 32.6301V33.3699ZM181.087 32.6301C180.883 32.6301 180.717 32.7957 180.717 33C180.717 33.2043 180.883 33.3699 181.087 33.3699V32.6301ZM175.957 33.3699C176.161 33.3699 176.326 33.2043 176.326 33C176.326 32.7957 176.161 32.6301 175.957 32.6301V33.3699ZM170.826 32.6301C170.622 32.6301 170.456 32.7957 170.456 33C170.456 33.2043 170.622 33.3699 170.826 33.3699V32.6301ZM165.696 33.3699C165.9 33.3699 166.066 33.2043 166.066 33C166.066 32.7957 165.9 32.6301 165.696 32.6301V33.3699ZM160.565 32.6301C160.361 32.6301 160.195 32.7957 160.195 33C160.195 33.2043 160.361 33.3699 160.565 33.3699V32.6301ZM155.435 33.3699C155.639 33.3699 155.805 33.2043 155.805 33C155.805 32.7957 155.639 32.6301 155.435 32.6301V33.3699ZM150.304 32.6301C150.1 32.6301 149.934 32.7957 149.934 33C149.934 33.2043 150.1 33.3699 150.304 33.3699V32.6301ZM145.174 33.3699C145.378 33.3699 145.544 33.2043 145.544 33C145.544 32.7957 145.378 32.6301 145.174 32.6301V33.3699ZM140.043 32.6301C139.839 32.6301 139.674 32.7957 139.674 33C139.674 33.2043 139.839 33.3699 140.043 33.3699V32.6301ZM134.913 33.3699C135.117 33.3699 135.283 33.2043 135.283 33C135.283 32.7957 135.117 32.6301 134.913 32.6301V33.3699ZM129.783 32.6301C129.578 32.6301 129.413 32.7957 129.413 33C129.413 33.2043 129.578 33.3699 129.783 33.3699V32.6301ZM124.652 33.3699C124.857 33.3699 125.022 33.2043 125.022 33C125.022 32.7957 124.857 32.6301 124.652 32.6301V33.3699ZM119.522 32.6301C119.317 32.6301 119.152 32.7957 119.152 33C119.152 33.2043 119.317 33.3699 119.522 33.3699V32.6301ZM114.391 33.3699C114.596 33.3699 114.761 33.2043 114.761 33C114.761 32.7957 114.596 32.6301 114.391 32.6301V33.3699ZM109.261 32.6301C109.057 32.6301 108.891 32.7957 108.891 33C108.891 33.2043 109.057 33.3699 109.261 33.3699V32.6301ZM104.13 33.3699C104.335 33.3699 104.5 33.2043 104.5 33C104.5 32.7957 104.335 32.6301 104.13 32.6301V33.3699ZM99 32.6301C98.7957 32.6301 98.6301 32.7957 98.6301 33C98.6301 33.2043 98.7957 33.3699 99 33.3699V32.6301ZM93.8696 33.3699C94.0739 33.3699 94.2395 33.2043 94.2395 33C94.2395 32.7957 94.0739 32.6301 93.8696 32.6301V33.3699ZM88.7392 32.6301C88.5349 32.6301 88.3692 32.7957 88.3692 33C88.3692 33.2043 88.5349 33.3699 88.7392 33.3699V32.6301ZM83.6088 33.3699C83.8131 33.3699 83.9787 33.2043 83.9787 33C83.9787 32.7957 83.8131 32.6301 83.6088 32.6301V33.3699ZM78.4783 32.6301C78.274 32.6301 78.1084 32.7957 78.1084 33C78.1084 33.2043 78.274 33.3699 78.4783 33.3699V32.6301ZM73.3479 33.3699C73.5522 33.3699 73.7178 33.2043 73.7178 33C73.7178 32.7957 73.5522 32.6301 73.3479 32.6301V33.3699ZM68.2175 32.6301C68.0131 32.6301 67.8475 32.7957 67.8475 33C67.8475 33.2043 68.0131 33.3699 68.2175 33.3699V32.6301ZM63.087 33.3699C63.2913 33.3699 63.4569 33.2043 63.4569 33C63.4569 32.7957 63.2913 32.6301 63.087 32.6301V33.3699ZM57.9566 32.6301C57.7523 32.6301 57.5867 32.7957 57.5867 33C57.5867 33.2043 57.7523 33.3699 57.9566 33.3699V32.6301ZM52.8262 33.3699C53.0305 33.3699 53.1961 33.2043 53.1961 33C53.1961 32.7957 53.0305 32.6301 52.8262 32.6301V33.3699ZM47.6957 32.6301C47.4914 32.6301 47.3258 32.7957 47.3258 33C47.3258 33.2043 47.4914 33.3699 47.6957 33.3699V32.6301ZM42.5653 33.3699C42.7696 33.3699 42.9352 33.2043 42.9352 33C42.9352 32.7957 42.7696 32.6301 42.5653 32.6301V33.3699ZM37.1788 33.1895C36.9901 33.2677 36.9005 33.4841 36.9788 33.6729C37.057 33.8616 37.2735 33.9511 37.4622 33.8729L37.1788 33.1895ZM33.8729 37.4622C33.9511 37.2735 33.8616 37.057 33.6729 36.9788C33.4841 36.9005 33.2677 36.9901 33.1895 37.1788L33.8729 37.4622ZM32.6301 40V42.6364H33.3699V40H32.6301ZM32.6301 47.9091V53.1818H33.3699V47.9091H32.6301ZM32.6301 58.4545V63.7273H33.3699V58.4545H32.6301ZM32.6301 69V74.2727H33.3699V69H32.6301ZM32.6301 79.5455V84.8182H33.3699V79.5455H32.6301ZM32.6301 90.0909V95.3636H33.3699V90.0909H32.6301ZM32.6301 100.636V105.909H33.3699V100.636H32.6301ZM32.6301 111.182V116.455H33.3699V111.182H32.6301ZM32.6301 121.727V127H33.3699V121.727H32.6301ZM32.6301 132.273V137.545H33.3699V132.273H32.6301ZM32.6301 142.818V148.091H33.3699V142.818H32.6301ZM32.6301 153.364V156H33.3699V153.364H32.6301ZM32.6301 156C32.6301 156.999 32.8289 157.952 33.1895 158.821L33.8729 158.538C33.5489 157.757 33.3699 156.9 33.3699 156H32.6301ZM37.1788 162.811C38.0483 163.171 39.0014 163.37 40 163.37V162.63C39.1003 162.63 38.2434 162.451 37.4622 162.127L37.1788 162.811ZM40 163.37H42.5652V162.63H40V163.37ZM47.6957 163.37H52.8261V162.63H47.6957V163.37ZM57.9565 163.37H63.087V162.63H57.9565V163.37ZM68.2174 163.37H73.3478V162.63H68.2174V163.37ZM78.4783 163.37H83.6087V162.63H78.4783V163.37ZM88.7391 163.37H93.8696V162.63H88.7391V163.37ZM99 163.37H104.13V162.63H99V163.37ZM109.261 163.37H114.391V162.63H109.261V163.37ZM119.522 163.37H124.652V162.63H119.522V163.37ZM129.783 163.37H134.913V162.63H129.783V163.37ZM140.043 163.37H145.174V162.63H140.043V163.37ZM150.304 163.37H155.435V162.63H150.304V163.37ZM160.565 163.37H165.696V162.63H160.565V163.37ZM170.826 163.37H175.957V162.63H170.826V163.37ZM181.087 163.37H186.217V162.63H181.087V163.37ZM191.348 163.37H196.478V162.63H191.348V163.37ZM201.609 163.37H206.739V162.63H201.609V163.37ZM211.87 163.37H217V162.63H211.87V163.37ZM222.13 163.37H227.261V162.63H222.13V163.37ZM232.391 163.37H237.522V162.63H232.391V163.37ZM242.652 163.37H247.783V162.63H242.652V163.37ZM252.913 163.37H258.043V162.63H252.913V163.37ZM263.174 163.37H268.304V162.63H263.174V163.37ZM273.435 163.37H276V162.63H273.435V163.37ZM276 163.37C276.999 163.37 277.952 163.171 278.821 162.811L278.538 162.127C277.757 162.451 276.9 162.63 276 162.63V163.37ZM282.811 158.821C283.171 157.952 283.37 156.999 283.37 156H282.63C282.63 156.9 282.451 157.757 282.127 158.538L282.811 158.821ZM283.37 156V154.099H282.63V156H283.37ZM283.37 150.297V148.396H282.63V150.297H283.37ZM283.045 148.028C282.16 147.921 281.282 147.791 280.412 147.639L280.285 148.368C281.168 148.522 282.058 148.654 282.955 148.763L283.045 148.028ZM275.226 146.454C273.51 145.966 271.83 145.392 270.192 144.736L269.917 145.422C271.579 146.088 273.283 146.671 275.024 147.166L275.226 146.454ZM265.365 142.504C263.792 141.674 262.266 140.765 260.794 139.783L260.383 140.398C261.876 141.395 263.424 142.317 265.02 143.158L265.365 142.504ZM256.528 136.605C255.161 135.473 253.854 134.271 252.612 133.006L252.084 133.524C253.344 134.808 254.67 136.026 256.056 137.175L256.528 136.605ZM249.085 129.023C247.981 127.638 246.946 126.195 245.987 124.699L245.365 125.099C246.337 126.616 247.387 128.08 248.507 129.485L249.085 129.023ZM243.352 120.078C242.558 118.5 241.842 116.876 241.21 115.21L240.519 115.472C241.159 117.162 241.885 118.81 242.691 120.411L243.352 120.078ZM239.587 110.146C239.137 108.443 238.773 106.706 238.499 104.939L237.768 105.053C238.046 106.845 238.416 108.608 238.872 110.335L239.587 110.146ZM237.955 99.6467C237.91 98.7655 237.888 97.8783 237.888 96.9858H237.148C237.148 97.8909 237.171 98.7906 237.216 99.6844L237.955 99.6467ZM237.888 96.9858C237.888 96.0933 237.91 95.2061 237.955 94.3248L237.216 94.2872C237.171 95.181 237.148 96.0807 237.148 96.9858H237.888ZM238.499 89.0322C238.773 87.2653 239.137 85.5282 239.587 83.8257L238.872 83.6368C238.416 85.364 238.046 87.1263 237.768 88.9186L238.499 89.0322ZM241.21 78.7615C241.842 77.0956 242.558 75.4711 243.352 73.8931L242.691 73.5604C241.885 75.1612 241.159 76.8092 240.519 78.4992L241.21 78.7615ZM245.987 69.2723C246.946 67.7762 247.981 66.3332 249.085 64.9484L248.507 64.487C247.387 65.8917 246.337 67.3554 245.365 68.873L245.987 69.2723ZM252.612 60.9659C253.854 59.7003 255.161 58.4987 256.528 57.3665L256.056 56.7967C254.67 57.9451 253.344 59.1639 252.084 60.4476L252.612 60.9659ZM260.794 54.1889C262.266 53.2062 263.792 52.2975 265.365 51.4681L265.02 50.8136C263.424 51.655 261.877 52.5768 260.383 53.5735L260.794 54.1889ZM270.192 49.2359C271.83 48.5797 273.51 48.0052 275.226 47.5177L275.024 46.806C273.283 47.3006 271.579 47.8834 269.917 48.5492L270.192 49.2359ZM280.412 46.3324C281.282 46.1806 282.16 46.0507 283.045 45.9433L282.955 45.2088C282.058 45.3178 281.168 45.4495 280.285 45.6035L280.412 46.3324ZM283.37 45.576V44.182H282.63V45.576H283.37ZM283.37 41.394V40H282.63V41.394H283.37ZM283.37 40C283.37 39.0014 283.171 38.0483 282.811 37.1788L282.127 37.4622C282.451 38.2434 282.63 39.1003 282.63 40H283.37ZM278.821 33.1895C277.952 32.8289 276.999 32.6301 276 32.6301V33.3699C276.9 33.3699 277.757 33.5489 278.538 33.8729L278.821 33.1895ZM276 32.6301H273.435V33.3699H276V32.6301ZM268.304 32.6301H263.174V33.3699H268.304V32.6301ZM258.043 32.6301H252.913V33.3699H258.043V32.6301ZM247.783 32.6301H242.652V33.3699H247.783V32.6301ZM237.522 32.6301H232.391V33.3699H237.522V32.6301ZM227.261 32.6301H222.13V33.3699H227.261V32.6301ZM217 32.6301H211.87V33.3699H217V32.6301ZM206.739 32.6301H201.609V33.3699H206.739V32.6301ZM196.478 32.6301H191.348V33.3699H196.478V32.6301ZM186.217 32.6301H181.087V33.3699H186.217V32.6301ZM175.957 32.6301H170.826V33.3699H175.957V32.6301ZM165.696 32.6301H160.565V33.3699H165.696V32.6301ZM155.435 32.6301H150.304V33.3699H155.435V32.6301ZM145.174 32.6301H140.043V33.3699H145.174V32.6301ZM134.913 32.6301H129.783V33.3699H134.913V32.6301ZM124.652 32.6301H119.522V33.3699H124.652V32.6301ZM114.391 32.6301H109.261V33.3699H114.391V32.6301ZM104.13 32.6301H99V33.3699H104.13V32.6301ZM93.8696 32.6301H88.7392V33.3699H93.8696V32.6301ZM83.6088 32.6301H78.4783V33.3699H83.6088V32.6301ZM73.3479 32.6301H68.2175V33.3699H73.3479V32.6301ZM63.087 32.6301H57.9566V33.3699H63.087V32.6301ZM52.8262 32.6301H47.6957V33.3699H52.8262V32.6301ZM42.5653 32.6301H40V33.3699H42.5653V32.6301ZM40 32.6301C39.0014 32.6301 38.0483 32.8289 37.1788 33.1895L37.4622 33.8729C38.2434 33.5489 39.1003 33.3699 40 33.3699V32.6301ZM33.1895 37.1788C32.8289 38.0483 32.6301 39.0014 32.6301 40H33.3699C33.3699 39.1003 33.5489 38.2434 33.8729 37.4622L33.1895 37.1788Z" fill="#E5E5E5"/>
</g>
<path d="M330 97C330 117.435 313.435 134 293 134C272.565 134 256 117.435 256 97C256 76.5655 272.565 60 293 60C313.435 60 330 76.5655 330 97Z" fill="url(#paint0_linear)"/>
<mask id="mask0" mask-type="alpha" maskUnits="userSpaceOnUse" x="256" y="60" width="74" height="74">
<circle cx="293" cy="97" r="37" fill="url(#paint1_linear)"/>
</mask>
<g mask="url(#mask0)">
<path fill-rule="evenodd" clip-rule="evenodd" d="M309.182 100.543C309.781 101.716 310.645 102.732 311.705 103.512C313.424 105.061 315.2 106.669 315.2 108.84C315.2 111.011 313.424 112.619 311.705 114.174C310.645 114.954 309.781 115.97 309.182 117.142C309.098 118.511 309.341 119.88 309.888 121.138L309.888 121.138C310.579 123.301 311.293 125.537 310.246 127.346C309.184 129.182 306.869 129.682 304.63 130.165L304.63 130.165L304.628 130.166C303.289 130.314 302.003 130.777 300.875 131.515C300.136 132.643 299.673 133.93 299.525 135.27C299.041 137.509 298.538 139.824 296.706 140.886C294.895 141.933 292.665 141.22 290.505 140.53L290.498 140.528C289.24 139.982 287.872 139.74 286.503 139.821C285.331 140.421 284.314 141.284 283.534 142.345C281.979 144.064 280.371 145.84 278.2 145.84C276.03 145.84 274.421 144.064 272.866 142.345C272.086 141.285 271.07 140.421 269.899 139.821C268.53 139.739 267.16 139.981 265.903 140.528L265.899 140.529C263.735 141.22 261.502 141.932 259.694 140.886C257.858 139.824 257.358 137.509 256.875 135.27L256.875 135.268C256.726 133.928 256.264 132.643 255.525 131.515C254.397 130.776 253.11 130.313 251.77 130.164C249.531 129.681 247.216 129.178 246.154 127.346C245.108 125.536 245.821 123.303 246.511 121.14L246.512 121.138C247.059 119.88 247.302 118.512 247.219 117.143C246.62 115.971 245.756 114.954 244.695 114.174C242.976 112.619 241.2 111.011 241.2 108.84C241.2 106.669 242.976 105.061 244.695 103.506C245.756 102.726 246.619 101.71 247.219 100.539C247.302 99.1694 247.06 97.8001 246.512 96.5425L246.512 96.5417C245.821 94.3787 245.108 92.143 246.154 90.3339C247.216 88.498 249.531 87.9983 251.77 87.5149L251.772 87.5145C253.112 87.3658 254.398 86.9036 255.525 86.1653C256.267 85.0375 256.731 83.7509 256.882 82.4098C257.365 80.1713 257.869 77.8563 259.7 76.7944C261.508 75.7481 263.739 76.4599 265.896 77.1481L265.909 77.1521C267.166 77.6986 268.535 77.9406 269.904 77.8588C271.076 77.2597 272.092 76.3957 272.872 75.3354C274.421 73.6161 276.03 71.8401 278.2 71.8401C280.371 71.8401 281.979 73.6161 283.534 75.3354C284.314 76.3954 285.33 77.2594 286.502 77.8588C287.871 77.9409 289.24 77.6989 290.498 77.1521L290.502 77.1508C292.665 76.4605 294.898 75.7479 296.706 76.7944C298.542 77.856 299.042 80.1711 299.525 82.4102L299.526 82.4122C299.675 83.7518 300.137 85.0375 300.875 86.1653C302.003 86.9065 303.289 87.3713 304.631 87.5219C306.869 88.0054 309.184 88.5086 310.246 90.3401C311.293 92.15 310.579 94.3838 309.889 96.5463L309.888 96.5487C309.341 97.8059 309.099 99.1748 309.182 100.543ZM306.799 116.505C307.479 114.846 308.604 113.407 310.05 112.346L310.053 112.344C311.371 111.15 312.734 109.916 312.734 108.84C312.734 107.764 311.371 106.531 310.053 105.336L310.05 105.334C308.604 104.273 307.478 102.833 306.799 101.174C306.545 99.346 306.801 97.484 307.539 95.7927C308.067 94.1412 308.61 92.4331 308.111 91.5685C307.597 90.6801 305.826 90.2976 304.115 89.9279L304.11 89.9269C302.296 89.7262 300.573 89.0278 299.131 87.9092C297.93 86.7104 297.515 84.7901 297.115 82.9327L297.115 82.9327L297.114 82.9298C296.744 81.2164 296.362 79.4445 295.471 78.9281C294.607 78.4347 292.902 78.9737 291.248 79.5016C289.556 80.2383 287.693 80.4944 285.865 80.2416C284.206 79.5612 282.767 78.4363 281.707 76.9905L281.704 76.9877C280.51 75.6689 279.276 74.3068 278.2 74.3068C277.124 74.3068 275.891 75.669 274.696 76.9878L274.694 76.9905C273.633 78.4367 272.194 79.5618 270.534 80.2416C268.871 80.688 266.979 80.0862 265.153 79.5016L265.135 79.4959C263.489 78.9698 261.794 78.4279 260.934 78.9293C260.045 79.4431 259.663 81.2138 259.293 82.9255L259.292 82.9302C259.091 84.7441 258.393 86.4673 257.274 87.9092C256.075 89.1104 254.155 89.5248 252.298 89.9257L252.298 89.9257L252.295 89.9263L252.295 89.9263C250.581 90.2961 248.81 90.6785 248.293 91.5697C247.8 92.4331 248.339 94.1412 248.867 95.7927C249.604 97.4843 249.86 99.347 249.607 101.175C248.926 102.834 247.801 104.273 246.356 105.334C245.031 106.529 243.667 107.763 243.667 108.84C243.667 109.916 245.029 111.15 246.348 112.344L246.351 112.346C247.797 113.407 248.922 114.847 249.602 116.506C249.855 118.334 249.599 120.196 248.862 121.888C248.334 123.539 247.79 125.243 248.289 126.107C248.803 126.995 250.574 127.378 252.286 127.747L252.29 127.748C254.104 127.949 255.827 128.647 257.269 129.766C258.471 130.965 258.885 132.885 259.286 134.743L259.286 134.743L259.286 134.745C259.656 136.459 260.039 138.231 260.93 138.747C261.793 139.241 263.498 138.702 265.153 138.174C266.478 137.673 267.871 137.373 269.284 137.283C269.706 137.281 270.127 137.333 270.535 137.439C272.194 138.119 273.633 139.244 274.694 140.69L274.696 140.692C275.891 142.011 277.124 143.373 278.2 143.373C279.276 143.373 280.51 142.011 281.704 140.692L281.707 140.69C282.767 139.243 284.207 138.118 285.867 137.439C287.694 137.187 289.556 137.442 291.248 138.179L291.25 138.179C292.9 138.706 294.605 139.25 295.472 138.751C296.36 138.237 296.743 136.466 297.112 134.755L297.113 134.75C297.314 132.936 298.012 131.213 299.131 129.771C300.33 128.57 302.25 128.155 304.108 127.754L304.108 127.754L304.11 127.754C305.824 127.384 307.596 127.002 308.112 126.11C308.606 125.247 308.067 123.539 307.539 121.888C306.801 120.196 306.545 118.333 306.799 116.505ZM279.433 85.4068C279.433 86.0879 278.881 86.6401 278.2 86.6401C277.519 86.6401 276.967 86.0879 276.967 85.4068V82.9401C276.967 82.259 277.519 81.7068 278.2 81.7068C278.881 81.7068 279.433 82.259 279.433 82.9401V85.4068ZM270.943 86.5241C271.088 87.0627 271.576 87.4375 272.133 87.438C272.242 87.4386 272.35 87.4246 272.455 87.396C273.113 87.2197 273.503 86.5441 273.327 85.8864L272.688 83.5036C272.683 83.4821 272.677 83.4606 272.671 83.4393C272.477 82.7865 271.79 82.4146 271.137 82.6089C270.484 82.8031 270.113 83.4898 270.307 84.1427L270.943 86.5241ZM266.309 85.7785L266.311 85.7823L266.317 85.7927L267.55 87.9299C267.891 88.5198 267.689 89.2741 267.099 89.6147C266.912 89.7227 266.7 89.7798 266.484 89.7799C266.042 89.7804 265.635 89.5453 265.414 89.1633L264.181 87.0259C263.836 86.4384 264.034 85.6826 264.621 85.3382C265.209 84.9938 265.964 85.1909 266.309 85.7785ZM260.758 93.1423C260.99 93.3735 261.303 93.5036 261.63 93.5036C261.957 93.5036 262.271 93.3737 262.502 93.1426C262.984 92.6609 262.984 91.8801 262.502 91.3983L260.757 89.6532C260.747 89.6428 260.737 89.6328 260.727 89.6228C260.237 89.1496 259.456 89.1632 258.983 89.6532C258.51 90.1431 258.523 90.924 259.013 91.3971L260.758 93.1423ZM259.013 126.283L260.758 124.538C261.248 124.065 262.029 124.078 262.502 124.568C262.964 125.046 262.964 125.804 262.502 126.282L260.757 128.027C260.526 128.258 260.212 128.388 259.885 128.388C259.204 128.388 258.652 127.836 258.652 127.155C258.652 126.828 258.782 126.514 259.013 126.283ZM267.104 128.076C266.517 127.732 265.761 127.929 265.417 128.517L264.183 130.654C264.075 130.841 264.018 131.053 264.018 131.269C264.017 131.951 264.569 132.503 265.25 132.504C265.691 132.504 266.099 132.269 266.319 131.887L267.553 129.75C267.886 129.163 267.686 128.418 267.104 128.076ZM270.943 131.156C271.122 130.499 271.8 130.111 272.458 130.291C273.11 130.469 273.498 131.139 273.326 131.794L272.687 134.176C272.543 134.715 272.055 135.09 271.497 135.09C270.816 135.09 270.264 134.538 270.263 133.857C270.263 133.749 270.278 133.642 270.306 133.538L270.943 131.156ZM278.2 131.04C277.519 131.04 276.967 131.592 276.967 132.273V134.74C276.967 135.421 277.519 135.973 278.2 135.973C278.881 135.973 279.433 135.421 279.433 134.74V132.273C279.433 131.592 278.881 131.04 278.2 131.04ZM283.954 130.288C284.609 130.116 285.279 130.503 285.457 131.156L286.095 133.538C286.271 134.196 285.881 134.872 285.223 135.048C285.119 135.076 285.011 135.09 284.903 135.09C284.346 135.09 283.858 134.715 283.713 134.176L283.074 131.794C282.901 131.135 283.295 130.461 283.954 130.288ZM290.984 128.517L290.975 128.502C290.631 127.915 289.875 127.718 289.288 128.062C288.7 128.407 288.503 129.162 288.848 129.75L290.081 131.888C290.301 132.27 290.709 132.505 291.15 132.504C291.366 132.504 291.579 132.447 291.766 132.339C292.356 131.998 292.558 131.244 292.217 130.654L290.984 128.517ZM293.928 124.538C294.406 124.076 295.164 124.076 295.642 124.538L297.387 126.283C297.869 126.765 297.869 127.546 297.387 128.027C297.156 128.259 296.842 128.389 296.515 128.389C296.188 128.389 295.874 128.258 295.643 128.027L293.898 126.282C293.425 125.792 293.438 125.011 293.928 124.538ZM294.77 93.5037C295.097 93.5037 295.411 93.3736 295.642 93.1423L297.387 91.3971C297.397 91.3873 297.408 91.3771 297.417 91.3669C297.891 90.877 297.877 90.0963 297.387 89.623C296.897 89.1499 296.116 89.1633 295.643 89.6532L293.898 91.3984C293.667 91.6296 293.537 91.9432 293.537 92.27C293.537 92.9513 294.089 93.5035 294.77 93.5037ZM290.986 89.1635C290.766 89.5455 290.358 89.7806 289.917 89.7802C289.236 89.7794 288.684 89.2267 288.685 88.5457C288.685 88.3296 288.742 88.1175 288.85 87.9303L290.083 85.7929C290.42 85.2008 291.173 84.9936 291.765 85.3301C292.357 85.6667 292.564 86.4196 292.228 87.0118L292.219 87.0261L290.986 89.1635ZM283.946 87.3962C284.051 87.4245 284.159 87.4387 284.267 87.4381C284.825 87.4376 285.313 87.0629 285.457 86.5242L286.095 84.1426C286.101 84.1214 286.107 84.0999 286.112 84.0783C286.271 83.4159 285.862 82.7503 285.2 82.5917C284.537 82.4331 283.872 82.8415 283.713 83.5039L283.074 85.8867C282.899 86.5442 283.289 87.2198 283.946 87.3962ZM273.267 116.24H281.9C282.581 116.24 283.134 116.792 283.134 117.473C283.134 118.155 282.581 118.707 281.9 118.707H272.034C271.352 118.707 270.8 118.155 270.8 117.473V100.207C270.8 99.5256 271.352 98.9734 272.034 98.9734H281.9C282.581 98.9734 283.134 99.5256 283.134 100.207C283.134 100.888 282.581 101.44 281.9 101.44H273.267V107.607H279.434C280.115 107.607 280.667 108.159 280.667 108.84C280.667 109.521 280.115 110.073 279.434 110.073H273.267V116.24ZM264.928 118.243C265.014 118.346 265.116 118.434 265.23 118.503C265.27 118.532 265.311 118.559 265.354 118.583C265.514 118.662 265.689 118.704 265.867 118.707C266.014 118.704 266.159 118.675 266.296 118.62C266.342 118.6 266.388 118.578 266.432 118.553C266.483 118.531 266.534 118.505 266.582 118.476C266.598 118.466 266.609 118.451 266.62 118.437C266.628 118.426 266.637 118.415 266.647 118.406C266.713 118.35 266.772 118.287 266.824 118.218C266.923 118.102 266.994 117.964 267.03 117.815C267.054 117.735 267.071 117.652 267.079 117.568C267.079 117.551 267.084 117.535 267.089 117.519C267.094 117.503 267.099 117.487 267.099 117.47V100.207C267.099 99.5261 266.547 98.974 265.867 98.9734C265.186 98.9734 264.633 99.5256 264.633 100.207V113.625L254.536 99.4902C254.526 99.4747 254.511 99.4637 254.497 99.4525C254.486 99.444 254.475 99.4354 254.466 99.4248C254.41 99.3593 254.347 99.3001 254.278 99.2484C254.22 99.2017 254.158 99.1606 254.092 99.1251C254.023 99.092 253.951 99.0651 253.878 99.0449C253.797 99.0193 253.715 99.0028 253.631 98.9956C253.614 98.9956 253.599 98.9908 253.584 98.9859C253.568 98.9809 253.552 98.9759 253.535 98.9759C253.493 98.982 253.452 98.9907 253.411 99.0018C253.328 99.0089 253.245 99.0249 253.165 99.0499C253.084 99.0765 253.007 99.1112 252.934 99.1535C252.895 99.1692 252.856 99.1868 252.818 99.2065C252.803 99.217 252.792 99.2311 252.78 99.2454C252.772 99.2563 252.763 99.2672 252.753 99.2768C252.687 99.3325 252.628 99.3954 252.576 99.4643C252.53 99.5221 252.488 99.5839 252.453 99.6493C252.419 99.7191 252.392 99.7923 252.372 99.8676C252.347 99.9479 252.33 100.031 252.322 100.114C252.322 100.132 252.317 100.148 252.312 100.164C252.307 100.18 252.303 100.196 252.303 100.213V117.473C252.303 118.155 252.855 118.707 253.536 118.707C254.217 118.707 254.769 118.155 254.769 117.473V104.055L264.867 118.19C264.875 118.203 264.888 118.211 264.9 118.22C264.91 118.227 264.92 118.234 264.928 118.243ZM303.126 99.0005L303.129 99.0012C303.795 99.1457 304.218 99.8024 304.073 100.468L300.373 117.735C300.256 118.278 299.791 118.676 299.236 118.707H299.167C298.636 118.706 298.165 118.367 297.998 117.863L294.234 106.573L290.465 117.863C290.286 118.387 289.784 118.729 289.231 118.704C288.676 118.673 288.211 118.275 288.094 117.732L284.394 100.466C284.251 99.7995 284.675 99.1435 285.341 99.0005C286.007 98.8574 286.663 99.2815 286.806 99.9477L289.559 112.797L293.059 102.284C293.182 101.911 293.474 101.619 293.846 101.497C294.493 101.284 295.19 101.637 295.403 102.284L298.908 112.797L301.661 99.9477L301.661 99.9469C301.804 99.2811 302.46 98.8573 303.126 99.0005Z" fill="white" style="mix-blend-mode:overlay"/>
</g>
<defs>
<filter id="filter0_d" x="0.804295" y="0.804295" width="314.391" height="194.391" filterUnits="userSpaceOnUse" color-interpolation-filters="sRGB">
<feFlood flood-opacity="0" result="BackgroundImageFix"/>
<feColorMatrix in="SourceAlpha" type="matrix" values="0 0 0 0 0 0 0 0 0 0 0 0 0 0 0 0 0 0 127 0"/>
<feOffset/>
<feGaussianBlur stdDeviation="11.0979"/>
<feColorMatrix type="matrix" values="0 0 0 0 0 0 0 0 0 0 0 0 0 0 0 0 0 0 0.1 0"/>
<feBlend mode="normal" in2="BackgroundImageFix" result="effect1_dropShadow"/>
<feBlend mode="normal" in="SourceGraphic" in2="effect1_dropShadow" result="shape"/>
</filter>
<filter id="filter1_d" x="10.4342" y="10.4344" width="295.131" height="175.131" filterUnits="userSpaceOnUse" color-interpolation-filters="sRGB">
<feFlood flood-opacity="0" result="BackgroundImageFix"/>
<feColorMatrix in="SourceAlpha" type="matrix" values="0 0 0 0 0 0 0 0 0 0 0 0 0 0 0 0 0 0 127 0"/>
<feOffset/>
<feGaussianBlur stdDeviation="11.0979"/>
<feColorMatrix type="matrix" values="0 0 0 0 0 0 0 0 0 0 0 0 0 0 0 0 0 0 0.1 0"/>
<feBlend mode="normal" in2="BackgroundImageFix" result="effect1_dropShadow"/>
<feBlend mode="normal" in="SourceGraphic" in2="effect1_dropShadow" result="shape"/>
</filter>
<linearGradient id="paint0_linear" x1="291.991" y1="134" x2="291.991" y2="60" gradientUnits="userSpaceOnUse">
<stop stop-color="#FCCB05"/>
<stop offset="1" stop-color="#FFE57D"/>
</linearGradient>
<linearGradient id="paint1_linear" x1="291.991" y1="134" x2="291.991" y2="60" gradientUnits="userSpaceOnUse">
<stop stop-color="#FCCB05"/>
<stop offset="1" stop-color="#FFE57D"/>
</linearGradient>
</defs>
</svg>
