<svg width="119" height="101" viewBox="0 0 119 101" fill="none" xmlns="http://www.w3.org/2000/svg">
<path fill-rule="evenodd" clip-rule="evenodd" d="M72.1951 9.81328C71.9239 9.81337 71.6567 9.74805 71.4161 9.62287C71.1755 9.4977 70.9686 9.31635 70.813 9.09421C70.6574 8.87207 70.5577 8.61569 70.5223 8.3468C70.4868 8.07792 70.5168 7.80445 70.6095 7.54959L72.0866 3.49082C69.0753 3.67375 66.1046 4.19466 63.2289 5.03704L63.0343 10.6399C63.0191 11.0764 62.8351 11.4899 62.5211 11.7935C62.2071 12.0971 61.7876 12.2671 61.3509 12.2677H61.2919C61.0705 12.26 60.8527 12.2089 60.6511 12.1171C60.4494 12.0253 60.2679 11.8947 60.1167 11.7328C59.9656 11.5708 59.8478 11.3806 59.7701 11.1732C59.6925 10.9657 59.6564 10.7449 59.6641 10.5235L59.814 6.20629C57.1543 7.25267 54.6007 8.58504 52.2002 10.1891C52.0885 10.2637 51.9773 10.3389 51.8664 10.4146L53.4126 15.8019C53.536 16.2318 53.4836 16.6931 53.2669 17.0844C53.0502 17.4757 52.687 17.7649 52.2571 17.8885C52.1037 17.9331 51.9446 17.9553 51.7848 17.9542C51.4187 17.9542 51.0625 17.835 50.7701 17.6147C50.4777 17.3944 50.2648 17.0849 50.1638 16.733L48.9773 12.5841C46.6522 14.4994 44.5551 16.6659 42.7223 19.0395L45.8593 23.6867C46.0304 23.9404 46.1292 24.2359 46.1452 24.5415C46.1611 24.8471 46.0937 25.1514 45.95 25.4216C45.8063 25.6918 45.5918 25.9178 45.3295 26.0754C45.0672 26.233 44.767 26.3163 44.4609 26.3164C44.1846 26.3168 43.9125 26.2494 43.6683 26.1199C43.4242 25.9905 43.2156 25.8031 43.0609 25.5742L40.6455 21.9945C39.3902 23.9631 38.3033 26.0462 37.4017 28.223C37.1493 28.8325 36.9123 29.4471 36.6909 30.0661L41.1075 33.5136C41.3843 33.7298 41.5866 34.0271 41.6864 34.3639C41.7861 34.7007 41.7782 35.0602 41.6638 35.3922C41.5494 35.7243 41.3342 36.0124 41.0482 36.2163C40.7622 36.4202 40.4197 36.5297 40.0684 36.5296C39.6928 36.5302 39.328 36.4042 39.0327 36.172L35.6293 33.5154C34.8734 36.4312 34.4486 39.4195 34.3606 42.4233L39.6282 44.3389C40.0023 44.4734 40.317 44.7359 40.5165 45.0799C40.716 45.4238 40.7876 45.8272 40.7186 46.2189C40.6496 46.6105 40.4444 46.9651 40.1394 47.2202C39.8343 47.4753 39.4489 47.6144 39.0513 47.613C38.855 47.6124 38.6604 47.5776 38.4761 47.5101L34.4171 46.034C34.5268 47.8428 34.7593 49.649 35.1155 51.4401C35.3475 52.6065 35.6305 53.7587 35.9628 54.8936L41.5644 55.0866C42.0118 55.0942 42.4378 55.2793 42.7488 55.601C43.0597 55.9227 43.2302 56.3548 43.2226 56.8021C43.215 57.2495 43.0299 57.6755 42.7082 57.9865C42.3865 58.2974 41.9544 58.4679 41.5071 58.4603H41.448L37.1325 58.3104C38.2332 61.1086 39.6444 63.7743 41.3393 66.2571L46.7245 64.7108C47.1547 64.5875 47.6161 64.6402 48.0075 64.8572C48.3988 65.0742 48.6878 65.4378 48.8111 65.8679C48.9343 66.2981 48.8817 66.7596 48.6647 67.1509C48.4477 67.5422 48.0841 67.8312 47.6539 67.9545L43.5068 69.1445C44.3261 70.1395 45.1954 71.0975 46.1123 72.0145C47.3271 73.2294 48.6139 74.3605 49.9636 75.4029L54.612 72.2665C54.7956 72.1425 55.0019 72.056 55.2189 72.0117C55.436 71.9675 55.6597 71.9665 55.8772 72.0087C56.0947 72.0509 56.3017 72.1355 56.4865 72.2578C56.6713 72.38 56.8302 72.5374 56.9541 72.7211C57.078 72.9047 57.1646 73.1109 57.2088 73.328C57.2531 73.5451 57.2541 73.7688 57.2119 73.9863C57.1697 74.2038 57.085 74.4108 56.9628 74.5956C56.8406 74.7804 56.6831 74.9392 56.4995 75.0632L52.9188 77.4803C55.4527 79.0963 58.1627 80.4247 60.9981 81.4384L64.4445 77.0171C64.7223 76.6719 65.1248 76.4499 65.565 76.3991C66.0051 76.3483 66.4476 76.4727 66.7968 76.7454C67.146 77.0182 67.3738 77.4175 67.4311 77.8569C67.4884 78.2963 67.3705 78.7406 67.1029 79.0938L64.4464 82.4991C65.1863 82.6908 65.9329 82.8617 66.6854 83.0114C68.891 83.4501 71.1193 83.7009 73.3474 83.7661L75.2635 78.4965C75.3361 78.2843 75.4503 78.0887 75.5994 77.9211C75.7485 77.7536 75.9295 77.6175 76.1319 77.5207C76.3342 77.424 76.5538 77.3686 76.7778 77.3577C77.0018 77.3468 77.2257 77.3808 77.4365 77.4575C77.6472 77.5342 77.8405 77.6522 78.0051 77.8045C78.1697 77.9569 78.3023 78.1405 78.3951 78.3447C78.4879 78.5489 78.539 78.7695 78.5456 78.9937C78.5521 79.2179 78.5138 79.4411 78.433 79.6504L76.957 83.7095C79.9528 83.5277 82.9251 83.0104 85.8173 82.1632L86.0101 76.5682C86.0328 76.1239 86.2272 75.7058 86.5523 75.4021C86.8774 75.0984 87.3078 74.9329 87.7526 74.9404C87.974 74.9481 88.1918 74.9992 88.3934 75.091C88.595 75.1828 88.7766 75.3134 88.9278 75.4753C89.0789 75.6373 89.1967 75.8275 89.2744 76.035C89.352 76.2424 89.388 76.4632 89.3804 76.6846L89.2318 80.994C89.4553 80.9061 89.6782 80.8161 89.9003 80.7241C92.4687 79.66 94.9066 78.3378 97.18 76.7854L95.6318 71.3959C95.5662 71.1817 95.5439 70.9567 95.5663 70.7338C95.5886 70.5109 95.6552 70.2947 95.7619 70.0979C95.8687 69.901 96.0137 69.7273 96.1883 69.5871C96.3629 69.4468 96.5638 69.3427 96.779 69.2809C96.9943 69.219 97.2198 69.2007 97.4422 69.2269C97.6646 69.2532 97.8796 69.3234 98.0746 69.4337C98.2696 69.5439 98.4407 69.6918 98.5779 69.8688C98.7151 70.0459 98.8157 70.2485 98.8738 70.4648L100.064 74.6197C102.379 72.7134 104.481 70.5479 106.325 68.1594L103.189 63.5112C102.938 63.1403 102.846 62.6852 102.931 62.246C103.016 61.8067 103.272 61.4194 103.643 61.1691C104.014 60.9188 104.469 60.826 104.908 60.9113C105.348 60.9965 105.735 61.2528 105.985 61.6237L108.401 65.205C110.025 62.6579 111.349 59.9476 112.357 57.1284L107.937 53.6794C107.762 53.5431 107.616 53.3737 107.507 53.1809C107.398 52.9881 107.328 52.7757 107.301 52.5557C107.273 52.3358 107.29 52.1127 107.349 51.8992C107.408 51.6856 107.509 51.4858 107.645 51.3112C107.781 51.1365 107.951 50.9904 108.144 50.8812C108.336 50.772 108.549 50.7019 108.769 50.6748C108.989 50.6477 109.212 50.6642 109.425 50.7233C109.639 50.7824 109.839 50.883 110.013 51.0194L113.419 53.6782C114.17 50.7792 114.597 47.7931 114.686 44.774L109.416 42.8578C109.004 42.6987 108.671 42.3843 108.488 41.9822C108.306 41.5801 108.288 41.1223 108.439 40.7072C108.59 40.2922 108.898 39.9529 109.296 39.7624C109.695 39.5719 110.152 39.5453 110.57 39.6883L114.626 41.1622C114.44 38.1428 113.914 35.1733 113.072 32.3057L107.482 32.1116C107.034 32.0964 106.611 31.9041 106.306 31.577C106 31.2499 105.837 30.8149 105.852 30.3675C105.867 29.9201 106.06 29.4971 106.387 29.1915C106.714 28.886 107.149 28.7228 107.596 28.738L111.898 28.8863C110.798 26.0974 109.387 23.4327 107.687 20.9451L102.318 22.4874C102.167 22.5313 102.01 22.5534 101.853 22.5532C101.446 22.5533 101.053 22.4066 100.746 22.14C100.439 21.8734 100.238 21.5049 100.182 21.1023C100.125 20.6996 100.215 20.29 100.436 19.9488C100.658 19.6076 100.995 19.3578 101.385 19.2453L105.518 18.0592C104.702 17.0689 103.836 16.1142 102.92 15.199C101.702 13.9805 100.413 12.8482 99.0642 11.8061L94.4342 14.9366C94.1558 15.123 93.8279 15.2217 93.4929 15.22C93.1319 15.2201 92.7804 15.1044 92.49 14.8898C92.1997 14.6753 91.9858 14.3732 91.8799 14.0281C91.774 13.683 91.7816 13.313 91.9016 12.9725C92.0216 12.632 92.2477 12.339 92.5466 12.1365L96.1109 9.72982C93.5733 8.111 90.8659 6.78475 88.0418 5.77304L84.5999 10.1793C84.4423 10.382 84.2404 10.546 84.0098 10.6588C83.7792 10.7716 83.5258 10.8303 83.2691 10.8304C82.953 10.8302 82.6434 10.7412 82.3755 10.5735C82.1076 10.4058 81.8922 10.1663 81.7538 9.88216C81.6154 9.59802 81.5596 9.28072 81.5928 8.96643C81.626 8.65213 81.7468 8.35349 81.9415 8.10453L84.5934 4.70961C81.7044 3.95881 78.7211 3.52686 75.6955 3.43529L73.7807 8.69493C73.6637 9.02189 73.4486 9.30476 73.1648 9.50491C72.881 9.70507 72.5424 9.81276 72.1951 9.81328ZM87.6147 2.0573C83.4984 0.759861 79.2209 0.0843824 74.9238 0.0448153C74.7696 0.00855238 74.6108 -0.00589563 74.4519 0.00217217C74.3508 0.00731047 74.2505 0.021535 74.1524 0.0445434C71.4359 0.0676436 68.7149 0.345 66.0252 0.880132C59.9308 2.09264 54.1945 4.58925 49.1846 8.17304C49.0654 8.22944 48.953 8.29974 48.8497 8.38271C48.7892 8.43129 48.7323 8.48386 48.6793 8.54003C46.9309 9.82904 45.2743 11.2523 43.7256 12.8012C42.1207 14.4063 40.6507 16.1273 39.3252 17.9463C39.2993 17.9793 39.2746 18.0132 39.2513 18.048C36.6696 21.6124 34.6412 25.5501 33.2379 29.7269C33.1487 29.8689 33.0809 30.0237 33.0372 30.1863C33.0086 30.2923 32.9906 30.4006 32.9832 30.5096C32.5094 32.0133 32.1161 33.5466 31.8065 35.1031C31.2513 37.895 30.9737 40.7205 30.9698 43.5397C30.9684 43.5788 30.9684 43.6178 30.9698 43.6568C30.9757 48.1828 31.687 52.6912 33.0873 57.0166C33.0958 57.0453 33.105 57.0738 33.115 57.102C33.4631 58.1697 33.8533 59.2263 34.2852 60.2691C35.5863 63.4105 37.2436 66.3717 39.2135 69.0999C39.2568 69.1697 39.3051 69.2363 39.3583 69.2993C42.003 72.9187 45.2009 76.1222 48.8492 78.7848L48.8582 78.792C48.8678 78.7997 48.8775 78.8072 48.8873 78.8147L48.9098 78.8316C48.9364 78.8512 48.9635 78.87 48.9911 78.8879C49.4298 79.2053 49.8749 79.515 50.3263 79.8166C53.6271 82.0223 57.1951 83.7541 60.9262 84.9802C61.0173 85.019 61.1116 85.0496 61.208 85.0718C65.4789 86.4433 69.9591 87.1541 74.4932 87.1572L74.523 87.1575L74.5531 87.1572C79.0692 87.1488 83.5121 86.4399 87.7363 85.0908C87.904 85.063 88.066 85.0101 88.2172 84.9342C92.3636 83.5567 96.2924 81.5597 99.8644 79.0007C100.045 78.9132 100.209 78.7941 100.348 78.6494C102.094 77.3616 103.753 75.9375 105.306 74.3842C106.866 72.8241 108.295 71.1579 109.587 69.4026C109.705 69.2849 109.805 69.15 109.884 69.0018L109.896 68.9781C112.477 65.3813 114.489 61.422 115.871 57.2424C115.894 57.1916 115.915 57.1395 115.934 57.0863C115.958 57.015 115.978 56.9425 115.993 56.8692C117.341 52.6652 118.055 48.244 118.076 43.7488C118.085 43.6501 118.085 43.5512 118.076 43.4532C118.061 39.0165 117.369 34.6327 116.043 30.4474C116.017 30.2364 115.95 30.033 115.849 29.8476C114.625 26.1717 112.911 22.6557 110.735 19.3998C110.499 19.0459 110.258 18.6959 110.011 18.3498C109.949 18.1919 109.862 18.0442 109.755 17.9117C109.685 17.8257 109.607 17.747 109.523 17.6765C106.948 14.1993 103.878 11.138 100.425 8.58302C100.326 8.47115 100.212 8.37276 100.086 8.29062C100.008 8.2396 99.9256 8.1953 99.8405 8.15804C97.162 6.24436 94.2617 4.63084 91.189 3.35809C90.263 2.97454 89.3262 2.62394 88.3804 2.30646C88.2405 2.21964 88.0885 2.15358 87.9289 2.11065C87.8258 2.08292 87.7206 2.06511 87.6147 2.0573ZM95.3717 58.4942C95.6317 58.6482 95.9283 58.7296 96.2305 58.7297C96.5142 58.7307 96.7935 58.6601 97.0426 58.5245C97.2918 58.3888 97.5027 58.1926 97.6559 57.9538C98.6679 56.3522 99.5027 54.6452 100.146 52.863C100.298 52.4423 100.277 51.9782 100.088 51.5728C99.898 51.1674 99.5551 50.854 99.1343 50.7014C98.7136 50.5488 98.2495 50.5697 97.8441 50.7593C97.4387 50.949 97.1252 51.2919 96.9727 51.7126C96.4146 53.2619 95.6889 54.7455 94.8085 56.1371C94.6462 56.3921 94.5554 56.6859 94.5456 56.988C94.5357 57.29 94.6072 57.5891 94.7525 57.8541C94.8979 58.1191 95.1117 58.3401 95.3717 58.4942ZM74.405 70.8428H74.3966C69.0195 70.8177 63.7701 69.2018 59.3096 66.1986C54.8492 63.1954 51.3772 58.9391 49.331 53.9661C47.2848 48.9931 46.756 43.5257 47.8112 38.2526C48.8663 32.9795 51.4583 28.1367 55.2605 24.3342C59.0627 20.5316 63.9051 17.9395 69.1777 16.8842C74.4503 15.8289 79.9172 16.3578 84.8898 18.4042C89.8624 20.4505 94.1183 23.9228 97.1212 28.3837C100.124 32.8445 101.74 38.0944 101.765 43.472C101.765 43.9179 101.588 44.3457 101.274 44.6618C100.959 44.978 100.533 45.1567 100.087 45.1589H100.078C99.6323 45.1589 99.2045 44.9823 98.8884 44.6678C98.5723 44.3533 98.3936 43.9263 98.3914 43.4804C98.368 38.7691 96.9511 34.17 94.3191 30.2625C91.6871 26.355 87.9578 23.3138 83.6008 21.522C79.2438 19.7302 74.454 19.268 69.8348 20.1934C65.2156 21.1189 60.9736 23.3908 57.643 26.7228C54.3124 30.0548 52.0423 34.2981 51.1185 38.918C50.1947 43.5379 50.6586 48.3279 52.4518 52.6847C54.245 57.0414 57.2872 60.77 61.1953 63.4009C65.1034 66.0317 69.7025 67.4472 74.4135 67.4689C74.8608 67.47 75.2894 67.6488 75.605 67.9659C75.9205 68.2831 76.0972 68.7126 76.0961 69.16C76.0949 69.6074 75.9162 70.0361 75.599 70.3517C75.2819 70.6672 74.8524 70.8439 74.405 70.8428ZM82.1263 68.9282C82.4297 69.1834 82.8134 69.3236 83.21 69.324C83.4056 69.3241 83.5997 69.2899 83.7835 69.2228C85.5199 68.5939 87.1859 67.7855 88.7545 66.8107C89.1348 66.5747 89.4057 66.1973 89.5077 65.7616C89.6098 65.3258 89.5345 64.8674 89.2985 64.4871C89.0625 64.1068 88.6851 63.8359 88.2494 63.7339C87.8136 63.6319 87.3552 63.7071 86.9749 63.9431C85.6064 64.7955 84.1523 65.5022 82.6365 66.0516C82.2637 66.1869 81.9506 66.4492 81.752 66.7924C81.5534 67.1356 81.482 67.5378 81.5505 67.9284C81.6189 68.319 81.8228 68.673 82.1263 68.9282ZM74.5231 50.7917C73.1005 50.7921 71.7097 50.3705 70.5267 49.5803C69.3436 48.7901 68.4215 47.6668 67.8768 46.3524C67.3322 45.0381 67.1895 43.5917 67.4669 42.1962C67.7442 40.8008 68.4291 39.5189 69.4349 38.5127C70.4407 37.5066 71.7223 36.8213 73.1176 36.5436C74.5128 36.2659 75.9591 36.4083 77.2735 36.9527C78.5878 37.4971 79.7113 38.419 80.5016 39.602C81.292 40.7849 81.7139 42.1758 81.7139 43.5985C81.7121 45.5054 80.954 47.3338 79.6059 48.6823C78.2578 50.0309 76.4298 50.7895 74.5231 50.7917ZM74.5231 39.7809C73.7676 39.7806 73.029 40.0043 72.4008 40.4239C71.7725 40.8434 71.2827 41.4399 70.9935 42.1378C70.7042 42.8358 70.6285 43.6039 70.7758 44.3449C70.9231 45.0859 71.2868 45.7666 71.821 46.3008C72.3552 46.8351 73.0358 47.1989 73.7768 47.3462C74.5177 47.4935 75.2857 47.4177 75.9836 47.1284C76.6815 46.8392 77.2779 46.3494 77.6974 45.721C78.1169 45.0927 78.3407 44.354 78.3403 43.5985C78.339 42.5864 77.9364 41.6162 77.2208 40.9005C76.5052 40.1849 75.5351 39.7822 74.5231 39.7809ZM71.7824 32.8163C72.5938 33.3574 73.5476 33.6458 74.523 33.6448C75.8294 33.6421 77.0814 33.1216 78.0047 32.1974C78.9279 31.2732 79.4471 30.0206 79.4485 28.7142C79.4485 27.7388 79.1592 26.7854 78.6172 25.9744C78.0752 25.1635 77.3048 24.5316 76.4036 24.1585C75.5024 23.7855 74.5107 23.6881 73.5542 23.8788C72.5976 24.0695 71.7191 24.5396 71.0297 25.2296C70.3404 25.9197 69.8712 26.7987 69.6815 27.7554C69.4919 28.7122 69.5902 29.7037 69.9642 30.6046C70.3381 31.5054 70.9709 32.2751 71.7824 32.8163ZM73.658 27.4197C73.9141 27.2486 74.2151 27.1573 74.523 27.1573C74.9358 27.1577 75.3315 27.3219 75.6234 27.6138C75.9153 27.9057 76.0795 28.3014 76.0799 28.7142C76.0799 29.0222 75.9886 29.3232 75.8175 29.5792C75.6464 29.8352 75.4033 30.0348 75.1188 30.1526C74.8343 30.2705 74.5213 30.3013 74.2193 30.2412C73.9172 30.1812 73.6398 30.0329 73.4221 29.8151C73.2043 29.5974 73.0561 29.32 72.996 29.018C72.9359 28.716 72.9668 28.4029 73.0846 28.1184C73.2024 27.8339 73.402 27.5908 73.658 27.4197ZM60.3605 43.9302C59.583 43.9291 58.8168 43.7442 58.1245 43.3905C57.4321 43.0368 56.8331 42.5244 56.3766 41.8952C55.92 41.2659 55.6187 40.5375 55.4973 39.7696C55.3758 39.0016 55.4378 38.2159 55.6779 37.4764C55.959 36.6113 56.4738 35.8408 57.1655 35.2501C57.8572 34.6594 58.6989 34.2716 59.5973 34.1296C60.4958 33.9875 61.416 34.0968 62.2562 34.4453C63.0964 34.7938 63.8239 35.3679 64.358 36.1041C64.8922 36.8403 65.2123 37.71 65.283 38.6168C65.3536 39.5237 65.172 40.4324 64.7582 41.2425C64.3444 42.0525 63.7146 42.7323 62.9385 43.2067C62.1623 43.681 61.2701 43.9314 60.3605 43.9302ZM58.8862 38.5189C58.7588 38.9117 58.7925 39.339 58.9801 39.7069C59.1677 40.0748 59.4937 40.3531 59.8865 40.4806C60.2793 40.6081 60.7067 40.5744 61.0746 40.3868C61.4425 40.1992 61.7208 39.8731 61.8483 39.4804C61.9758 39.0876 61.942 38.6602 61.7544 38.2923C61.5668 37.9244 61.2408 37.6461 60.848 37.5186C60.4552 37.3911 60.0279 37.4249 59.66 37.6124C59.2921 37.8 59.0137 38.1261 58.8862 38.5189ZM62.8757 59.6314C63.7138 60.2443 64.7252 60.5746 65.7635 60.5745C66.543 60.5744 67.3115 60.3901 68.0063 60.0365C68.701 59.683 69.3024 59.1702 69.7612 58.54C70.3345 57.7509 70.661 56.8096 70.6993 55.835C70.7376 54.8604 70.4861 53.8963 69.9765 53.0647C69.4669 52.2331 68.7222 51.5713 67.8365 51.163C66.9508 50.7547 65.9639 50.6183 65.0007 50.771C64.0375 50.9237 63.1412 51.3586 62.4251 52.0208C61.7091 52.683 61.2055 53.5427 60.978 54.4911C60.7506 55.4396 60.8094 56.4342 61.1472 57.3492C61.485 58.2641 62.0865 59.0584 62.8757 59.6314ZM64.8689 54.3808C65.1354 54.1876 65.4563 54.084 65.7854 54.0846C66.031 54.0851 66.2729 54.1437 66.4915 54.2556C66.7101 54.3674 66.8991 54.5294 67.0431 54.7282C67.1872 54.9271 67.2822 55.1572 67.3203 55.3998C67.3585 55.6424 67.3387 55.8905 67.2627 56.124C67.1866 56.3575 67.0564 56.5697 66.8827 56.7432C66.709 56.9168 66.4968 57.0468 66.2632 57.1227C66.0297 57.1985 65.7816 57.2181 65.5391 57.1797C65.2965 57.1413 65.0665 57.0461 64.8678 56.9019C64.6014 56.7086 64.4032 56.4358 64.3015 56.1227C64.1999 55.8097 64.2 55.4724 64.3019 55.1595C64.4039 54.8465 64.6024 54.5739 64.8689 54.3808ZM83.281 60.5737C82.1067 60.5762 80.97 60.1594 80.0756 59.3984C79.1812 58.6375 78.5878 57.5823 78.4021 56.4227C78.2164 55.2631 78.4507 54.0754 79.0629 53.0732C79.6749 52.071 80.6246 51.3202 81.741 50.9559C82.8574 50.5916 84.0672 50.6377 85.1526 51.086C86.238 51.5342 87.1278 52.3551 87.6618 53.401C88.1959 54.4469 88.3391 55.649 88.0657 56.7911C87.7923 57.9331 87.1202 58.9401 86.1705 59.6308C85.3319 60.2439 84.3199 60.5742 83.281 60.5737ZM83.2742 54.0863C82.9874 54.0866 82.7062 54.1662 82.4617 54.3163C82.2172 54.4663 82.0189 54.681 81.8887 54.9367C81.7585 55.1923 81.7015 55.479 81.724 55.765C81.7464 56.051 81.8474 56.3252 82.0159 56.5574C82.26 56.8904 82.6262 57.1129 83.0341 57.1761C83.4421 57.2394 83.8584 57.1382 84.1919 56.8948C84.4575 56.7012 84.6551 56.4286 84.7563 56.1159C84.8575 55.8032 84.8572 55.4664 84.7553 55.1539C84.6535 54.8414 84.4553 54.5692 84.1893 54.3762C83.9232 54.1832 83.6029 54.0793 83.2742 54.0795V54.0863ZM86.0965 43.2043C86.8714 43.6801 87.7627 43.9325 88.6721 43.9335C89.4505 43.9329 90.2177 43.7484 90.9112 43.3949C91.6047 43.0414 92.2048 42.529 92.6626 41.8995C93.1204 41.27 93.423 40.5412 93.5456 39.7726C93.6682 39.0039 93.6074 38.2171 93.3682 37.4764C93.087 36.6116 92.5723 35.8414 91.8808 35.2508C91.1893 34.6603 90.3481 34.2723 89.4499 34.1299C88.5518 33.9875 87.6318 34.0962 86.7916 34.4439C85.9513 34.7917 85.2236 35.3649 84.6887 36.1003C84.1539 36.8357 83.8327 37.7047 83.7608 38.6112C83.6889 39.5177 83.869 40.4264 84.2812 41.237C84.6934 42.0476 85.3216 42.7284 86.0965 43.2043ZM88.1897 37.5186C88.3456 37.4688 88.5083 37.4432 88.6721 37.4427C89.0006 37.4435 89.3204 37.548 89.586 37.7412C89.8516 37.9345 90.0495 38.2066 90.1514 38.5189C90.2465 38.8118 90.2525 39.1263 90.1688 39.4226C90.0851 39.7189 89.9155 39.9838 89.6813 40.1837C89.447 40.3835 89.1588 40.5095 88.853 40.5456C88.5472 40.5817 88.2376 40.5263 87.9633 40.3864C87.689 40.2466 87.4623 40.0285 87.3119 39.7598C87.1615 39.4911 87.0942 39.1839 87.1184 38.8769C87.1427 38.5699 87.2574 38.2771 87.448 38.0353C87.6387 37.7935 87.8968 37.6137 88.1897 37.5186ZM53.3216 100.008H33.3853C32.9379 100.008 32.5089 99.8307 32.1925 99.5143C31.8762 99.198 31.6985 98.7689 31.6985 98.3216C31.6985 97.8742 31.8762 97.4452 32.1925 97.1288C32.5089 96.8125 32.9379 96.6348 33.3853 96.6348H53.3216C53.769 96.6348 54.1981 96.8125 54.5144 97.1288C54.8307 97.4452 55.0084 97.8742 55.0084 98.3216C55.0084 98.7689 54.8307 99.198 54.5144 99.5143C54.1981 99.8307 53.769 100.008 53.3216 100.008ZM19.8301 100.008H23.0182C23.4655 100.008 23.8946 99.8307 24.2109 99.5143C24.5273 99.198 24.705 98.7689 24.705 98.3216C24.705 97.8742 24.5273 97.4452 24.2109 97.1288C23.8946 96.8125 23.4655 96.6348 23.0182 96.6348H19.8301C19.3827 96.6348 18.9537 96.8125 18.6374 97.1288C18.321 97.4452 18.1433 97.8742 18.1433 98.3216C18.1433 98.7689 18.321 99.198 18.6374 99.5143C18.9537 99.8307 19.3827 100.008 19.8301 100.008ZM33.5185 77.6915H15.2437C14.7963 77.6915 14.3673 77.5138 14.0509 77.1974C13.7346 76.8811 13.5569 76.452 13.5569 76.0047C13.5569 75.5573 13.7346 75.1283 14.0509 74.8119C14.3673 74.4956 14.7963 74.3179 15.2437 74.3179H33.5185C33.9659 74.3179 34.395 74.4956 34.7113 74.8119C35.0276 75.1283 35.2053 75.5573 35.2053 76.0047C35.2053 76.452 35.0276 76.8811 34.7113 77.1974C34.395 77.5138 33.9659 77.6915 33.5185 77.6915ZM1.68681 77.6915H4.87655C5.32392 77.6915 5.75297 77.5138 6.06931 77.1974C6.38564 76.8811 6.56336 76.452 6.56336 76.0047C6.56336 75.5573 6.38564 75.1283 6.06931 74.8119C5.75297 74.4956 5.32392 74.3179 4.87655 74.3179H1.68681C1.23944 74.3179 0.810391 74.4956 0.494054 74.8119C0.177716 75.1283 0 75.5573 0 76.0047C0 76.452 0.177716 76.8811 0.494054 77.1974C0.810391 77.5138 1.23944 77.6915 1.68681 77.6915ZM43.118 88.8441H23.18C22.7326 88.8441 22.3036 88.6664 21.9872 88.35C21.6709 88.0337 21.4932 87.6046 21.4932 87.1573C21.4932 86.7099 21.6709 86.2808 21.9872 85.9645C22.3036 85.6482 22.7326 85.4705 23.18 85.4705H43.118C43.5654 85.4705 43.9944 85.6482 44.3108 85.9645C44.6271 86.2808 44.8048 86.7099 44.8048 87.1573C44.8048 87.6046 44.6271 88.0337 44.3108 88.35C43.9944 88.6664 43.5654 88.8441 43.118 88.8441ZM9.62333 88.8441H12.8198C13.2672 88.8441 13.6962 88.6664 14.0126 88.35C14.3289 88.0337 14.5066 87.6046 14.5066 87.1573C14.5066 86.7099 14.3289 86.2808 14.0126 85.9645C13.6962 85.6482 13.2672 85.4705 12.8198 85.4705H9.62333C9.17596 85.4705 8.74691 85.6482 8.43058 85.9645C8.11424 86.2808 7.93652 86.7099 7.93652 87.1573C7.93652 87.6046 8.11424 88.0337 8.43058 88.35C8.74691 88.6664 9.17596 88.8441 9.62333 88.8441Z" fill="white" style="mix-blend-mode:overlay"/>
</svg>
