<svg width="690" height="595" viewBox="0 0 690 595" fill="none" xmlns="http://www.w3.org/2000/svg">
<path fill-rule="evenodd" clip-rule="evenodd" d="M0 9.99999C0 4.47714 4.47715 0 10 0H650C655.523 0 660 4.47715 660 10V45.0987L628.963 73.8309C626.826 75.8099 626.826 79.1901 628.963 81.1691L660 109.901V293.42C631.138 313.947 571.5 358 571.5 358C563.333 357.333 547.5 359 537.5 364C526.945 369.277 525 370.5 526.5 380.5C527 383.5 528.2 388.2 529 389C529.856 389.856 506.123 400.375 479 405.122L430.5 417C408.847 423.369 391.33 428.668 387 430C386.096 430.278 384.659 430.653 382.821 431.133C371.446 434.103 344.691 441.087 333.5 454C315 468.5 294.5 483.5 289.5 483.5C288.667 484.833 287.1 488.5 287.5 492.5C278.167 504 259.7 533.3 260.5 558.5C259.583 560.591 258.469 563.186 257.293 566H9.99999C4.47714 566 0 561.523 0 556V9.99999Z" fill="white"/>
<path fill-rule="evenodd" clip-rule="evenodd" d="M20 30C20 24.4771 24.4772 20 30 20H630C635.523 20 640 24.4772 640 30V44.5555C639.686 44.74 639.383 44.9644 639.096 45.231L607.941 74.1828C605.813 76.1607 605.813 79.5302 607.941 81.5081L639.096 110.46C639.383 110.727 639.686 110.951 640 111.135V283.899C635.218 286.759 631.07 289.337 627.879 291.364C601.576 309.796 542.864 352.7 542.864 352.7C535.192 352.08 520.318 353.629 510.924 358.276C501.009 363.18 499.182 364.316 500.591 373.61C501.061 376.398 502.188 380.766 502.94 381.509C503.744 382.305 481.449 392.08 455.97 396.492L410.409 407.53C390.068 413.449 373.613 418.373 369.546 419.611C368.696 419.87 367.346 420.219 365.619 420.665C354.934 423.424 329.801 429.915 319.288 441.915C301.909 455.391 282.652 469.331 277.955 469.331C277.172 470.57 275.7 473.977 276.076 477.695C267.308 488.382 249.961 515.611 250.712 539.03C249.851 540.973 248.804 543.385 247.7 546H30C24.4771 546 20 541.523 20 536V30Z" fill="white"/>
<path d="M640 44.5555L640.507 45.4175L641 45.1276V44.5555H640ZM639.096 45.231L639.777 45.9635V45.9635L639.096 45.231ZM607.941 74.1828L608.622 74.9153V74.9153L607.941 74.1828ZM607.941 81.5081L607.261 82.2407V82.2407L607.941 81.5081ZM639.096 110.46L639.777 109.727L639.777 109.727L639.096 110.46ZM640 111.135H641V110.563L640.507 110.273L640 111.135ZM640 283.899L640.513 284.757L641 284.466V283.899H640ZM627.879 291.364L627.343 290.52L627.324 290.532L627.305 290.545L627.879 291.364ZM542.864 352.7L542.783 353.697L543.154 353.727L543.454 353.507L542.864 352.7ZM510.924 358.276L511.368 359.172L510.924 358.276ZM500.591 373.61L499.602 373.76L499.604 373.768L499.605 373.776L500.591 373.61ZM502.94 381.509L502.236 382.22H502.236L502.94 381.509ZM455.97 396.492L455.799 395.506L455.767 395.512L455.734 395.52L455.97 396.492ZM410.409 407.53L410.174 406.558L410.152 406.564L410.13 406.57L410.409 407.53ZM369.546 419.611L369.254 418.655L369.546 419.611ZM365.619 420.665L365.869 421.633L365.619 420.665ZM319.288 441.915L319.901 442.706L319.977 442.647L320.04 442.574L319.288 441.915ZM277.955 469.331V468.331H277.404L277.109 468.796L277.955 469.331ZM276.076 477.695L276.849 478.329L277.113 478.007L277.071 477.594L276.076 477.695ZM250.712 539.03L251.626 539.435L251.719 539.227L251.712 538.998L250.712 539.03ZM247.7 546V547H248.363L248.621 546.389L247.7 546ZM25.7891 19.8351C25.2789 20.0466 25.0368 20.6317 25.2484 21.1419C25.46 21.652 26.045 21.8941 26.5552 21.6825L25.7891 19.8351ZM21.6825 26.5552C21.8941 26.045 21.652 25.4599 21.1419 25.2484C20.6317 25.0368 20.0466 25.2789 19.8351 25.7891L21.6825 26.5552ZM19 36.6579C19 37.2102 19.4477 37.6579 20 37.6579C20.5523 37.6579 21 37.2102 21 36.6579H19ZM21 49.9737C21 49.4214 20.5523 48.9737 20 48.9737C19.4477 48.9737 19 49.4214 19 49.9737H21ZM19 63.2895C19 63.8417 19.4477 64.2895 20 64.2895C20.5523 64.2895 21 63.8417 21 63.2895H19ZM21 76.6052C21 76.053 20.5523 75.6052 20 75.6052C19.4477 75.6052 19 76.053 19 76.6052H21ZM19 89.921C19 90.4733 19.4477 90.921 20 90.921C20.5523 90.921 21 90.4733 21 89.921H19ZM21 103.237C21 102.685 20.5523 102.237 20 102.237C19.4477 102.237 19 102.685 19 103.237H21ZM19 116.553C19 117.105 19.4477 117.553 20 117.553C20.5523 117.553 21 117.105 21 116.553H19ZM21 129.868C21 129.316 20.5523 128.868 20 128.868C19.4477 128.868 19 129.316 19 129.868H21ZM19 143.184C19 143.736 19.4477 144.184 20 144.184C20.5523 144.184 21 143.736 21 143.184H19ZM21 156.5C21 155.948 20.5523 155.5 20 155.5C19.4477 155.5 19 155.948 19 156.5H21ZM19 169.816C19 170.368 19.4477 170.816 20 170.816C20.5523 170.816 21 170.368 21 169.816H19ZM21 183.132C21 182.579 20.5523 182.132 20 182.132C19.4477 182.132 19 182.579 19 183.132H21ZM19 196.447C19 197 19.4477 197.447 20 197.447C20.5523 197.447 21 197 21 196.447H19ZM21 209.763C21 209.211 20.5523 208.763 20 208.763C19.4477 208.763 19 209.211 19 209.763H21ZM19 223.079C19 223.631 19.4477 224.079 20 224.079C20.5523 224.079 21 223.631 21 223.079H19ZM21 236.395C21 235.842 20.5523 235.395 20 235.395C19.4477 235.395 19 235.842 19 236.395H21ZM19 249.711C19 250.263 19.4477 250.711 20 250.711C20.5523 250.711 21 250.263 21 249.711H19ZM21 263.026C21 262.474 20.5523 262.026 20 262.026C19.4477 262.026 19 262.474 19 263.026H21ZM19 276.342C19 276.894 19.4477 277.342 20 277.342C20.5523 277.342 21 276.894 21 276.342H19ZM21 289.658C21 289.106 20.5523 288.658 20 288.658C19.4477 288.658 19 289.106 19 289.658H21ZM19 302.974C19 303.526 19.4477 303.974 20 303.974C20.5523 303.974 21 303.526 21 302.974H19ZM21 316.29C21 315.737 20.5523 315.29 20 315.29C19.4477 315.29 19 315.737 19 316.29H21ZM19 329.605C19 330.158 19.4477 330.605 20 330.605C20.5523 330.605 21 330.158 21 329.605H19ZM21 342.921C21 342.369 20.5523 341.921 20 341.921C19.4477 341.921 19 342.369 19 342.921H21ZM19 356.237C19 356.789 19.4477 357.237 20 357.237C20.5523 357.237 21 356.789 21 356.237H19ZM21 369.553C21 369 20.5523 368.553 20 368.553C19.4477 368.553 19 369 19 369.553H21ZM19 382.868C19 383.421 19.4477 383.868 20 383.868C20.5523 383.868 21 383.421 21 382.868H19ZM21 396.184C21 395.632 20.5523 395.184 20 395.184C19.4477 395.184 19 395.632 19 396.184H21ZM19 409.5C19 410.052 19.4477 410.5 20 410.5C20.5523 410.5 21 410.052 21 409.5H19ZM21 422.816C21 422.264 20.5523 421.816 20 421.816C19.4477 421.816 19 422.264 19 422.816H21ZM19 436.132C19 436.684 19.4477 437.132 20 437.132C20.5523 437.132 21 436.684 21 436.132H19ZM21 449.447C21 448.895 20.5523 448.447 20 448.447C19.4477 448.447 19 448.895 19 449.447H21ZM19 462.763C19 463.316 19.4477 463.763 20 463.763C20.5523 463.763 21 463.316 21 462.763H19ZM21 476.079C21 475.527 20.5523 475.079 20 475.079C19.4477 475.079 19 475.527 19 476.079H21ZM19 489.395C19 489.947 19.4477 490.395 20 490.395C20.5523 490.395 21 489.947 21 489.395H19ZM21 502.711C21 502.158 20.5523 501.711 20 501.711C19.4477 501.711 19 502.158 19 502.711H21ZM19 516.026C19 516.579 19.4477 517.026 20 517.026C20.5523 517.026 21 516.579 21 516.026H19ZM21 529.342C21 528.79 20.5523 528.342 20 528.342C19.4477 528.342 19 528.79 19 529.342H21ZM19.8351 540.211C20.0466 540.721 20.6317 540.963 21.1419 540.752C21.652 540.54 21.8941 539.955 21.6825 539.445L19.8351 540.211ZM26.5552 544.317C26.045 544.106 25.4599 544.348 25.2484 544.858C25.0368 545.368 25.2789 545.953 25.7891 546.165L26.5552 544.317ZM36.8031 547C37.3554 547 37.8031 546.552 37.8031 546C37.8031 545.448 37.3554 545 36.8031 545V547ZM50.4093 545C49.857 545 49.4093 545.448 49.4093 546C49.4093 546.552 49.857 547 50.4093 547V545ZM64.0156 547C64.5678 547 65.0156 546.552 65.0156 546C65.0156 545.448 64.5678 545 64.0156 545V547ZM77.6218 545C77.0695 545 76.6218 545.448 76.6218 546C76.6218 546.552 77.0695 547 77.6218 547V545ZM91.228 547C91.7803 547 92.228 546.552 92.228 546C92.228 545.448 91.7803 545 91.228 545V547ZM104.834 545C104.282 545 103.834 545.448 103.834 546C103.834 546.552 104.282 547 104.834 547V545ZM118.44 547C118.993 547 119.44 546.552 119.44 546C119.44 545.448 118.993 545 118.44 545V547ZM132.047 545C131.494 545 131.047 545.448 131.047 546C131.047 546.552 131.494 547 132.047 547V545ZM145.653 547C146.205 547 146.653 546.552 146.653 546C146.653 545.448 146.205 545 145.653 545V547ZM159.259 545C158.707 545 158.259 545.448 158.259 546C158.259 546.552 158.707 547 159.259 547V545ZM172.865 547C173.418 547 173.865 546.552 173.865 546C173.865 545.448 173.418 545 172.865 545V547ZM186.472 545C185.919 545 185.472 545.448 185.472 546C185.472 546.552 185.919 547 186.472 547V545ZM200.078 547C200.63 547 201.078 546.552 201.078 546C201.078 545.448 200.63 545 200.078 545V547ZM213.684 545C213.132 545 212.684 545.448 212.684 546C212.684 546.552 213.132 547 213.684 547V545ZM227.29 547C227.843 547 228.29 546.552 228.29 546C228.29 545.448 227.843 545 227.29 545V547ZM240.897 545C240.344 545 239.897 545.448 239.897 546C239.897 546.552 240.344 547 240.897 547V545ZM249.361 544.645C249.578 544.138 249.342 543.55 248.835 543.333C248.327 543.116 247.739 543.352 247.522 543.86L249.361 544.645ZM249.031 540.367C248.81 540.873 249.041 541.463 249.547 541.684C250.053 541.905 250.643 541.674 250.864 541.168L249.031 540.367ZM251.858 533.488C251.902 532.937 251.493 532.455 250.942 532.41C250.392 532.365 249.909 532.775 249.864 533.325L251.858 533.488ZM251.822 522.073C251.684 522.608 252.005 523.154 252.54 523.292C253.075 523.43 253.62 523.108 253.759 522.574L251.822 522.073ZM257.23 511.994C257.432 511.48 257.179 510.899 256.665 510.697C256.151 510.495 255.571 510.747 255.369 511.261L257.23 511.994ZM260.031 500.911C259.782 501.404 259.98 502.006 260.472 502.255C260.965 502.504 261.567 502.307 261.816 501.814L260.031 500.911ZM267.262 492.046C267.549 491.575 267.4 490.959 266.929 490.672C266.457 490.384 265.842 490.533 265.554 491.005L267.262 492.046ZM271.838 481.562C271.513 482.008 271.611 482.634 272.058 482.959C272.504 483.284 273.13 483.186 273.455 482.739L271.838 481.562ZM277.049 475.594C277.09 475.043 276.676 474.564 276.125 474.523C275.575 474.482 275.095 474.895 275.054 475.446L277.049 475.594ZM276.077 470.932C275.88 471.448 276.138 472.026 276.654 472.223C277.17 472.42 277.748 472.162 277.945 471.646L276.077 470.932ZM284.187 467.954C284.671 467.688 284.849 467.08 284.583 466.596C284.318 466.112 283.71 465.934 283.226 466.2L284.187 467.954ZM293.671 459.598C293.216 459.91 293.099 460.532 293.411 460.988C293.724 461.443 294.346 461.56 294.802 461.248L293.671 459.598ZM304.977 453.998C305.423 453.671 305.518 453.045 305.191 452.6C304.864 452.155 304.239 452.059 303.793 452.386L304.977 453.998ZM313.745 444.92C313.306 445.256 313.222 445.883 313.557 446.322C313.893 446.761 314.52 446.845 314.959 446.51L313.745 444.92ZM324.63 438.338C325.068 438.001 325.15 437.373 324.813 436.936C324.477 436.498 323.849 436.416 323.411 436.752L324.63 438.338ZM334.661 430.053C334.163 430.291 333.951 430.888 334.189 431.386C334.426 431.885 335.023 432.096 335.522 431.859L334.661 430.053ZM347.379 427.057C347.901 426.876 348.177 426.306 347.995 425.784C347.814 425.263 347.244 424.987 346.722 425.168L347.379 427.057ZM359.121 421.35C358.588 421.497 358.275 422.047 358.422 422.58C358.568 423.112 359.119 423.425 359.651 423.279L359.121 421.35ZM366.855 421.378C367.389 421.24 367.71 420.694 367.572 420.159C367.433 419.625 366.887 419.304 366.353 419.442L366.855 421.378ZM368.305 418.926C367.772 419.072 367.458 419.622 367.604 420.155C367.75 420.688 368.3 421.001 368.833 420.855L368.305 418.926ZM374.929 419.035C375.458 418.877 375.758 418.319 375.6 417.79C375.441 417.261 374.884 416.961 374.355 417.119L374.929 419.035ZM384.567 414.078C384.038 414.235 383.736 414.791 383.892 415.321C384.049 415.85 384.606 416.152 385.135 415.995L384.567 414.078ZM395.351 412.979C395.88 412.823 396.184 412.267 396.028 411.737C395.872 411.207 395.316 410.904 394.786 411.06L395.351 412.979ZM405.013 408.062C404.482 408.217 404.178 408.772 404.333 409.302C404.488 409.832 405.043 410.137 405.573 409.982L405.013 408.062ZM416.34 407.122C416.877 406.992 417.206 406.452 417.076 405.915C416.946 405.378 416.406 405.048 415.869 405.178L416.34 407.122ZM427.259 402.419C426.722 402.549 426.393 403.089 426.523 403.626C426.653 404.163 427.193 404.493 427.73 404.363L427.259 402.419ZM439.12 401.603C439.657 401.473 439.987 400.932 439.857 400.396C439.726 399.859 439.186 399.529 438.649 399.659L439.12 401.603ZM450.039 396.9C449.503 397.03 449.173 397.57 449.303 398.107C449.433 398.644 449.973 398.973 450.51 398.843L450.039 396.9ZM462.266 396.306C462.807 396.193 463.154 395.663 463.041 395.123C462.928 394.582 462.398 394.235 461.858 394.348L462.266 396.306ZM473.849 391.453C473.316 391.598 473.002 392.148 473.148 392.681C473.293 393.214 473.843 393.528 474.376 393.382L473.849 391.453ZM486.292 389.751C486.816 389.574 487.097 389.007 486.921 388.483C486.744 387.96 486.177 387.679 485.654 387.855L486.292 389.751ZM497.18 383.512C496.673 383.729 496.438 384.317 496.655 384.825C496.873 385.332 497.461 385.567 497.969 385.35L497.18 383.512ZM503.012 379.324C502.836 378.801 502.269 378.52 501.745 378.697C501.222 378.873 500.941 379.44 501.117 379.964L503.012 379.324ZM500.013 375.858C500.132 376.397 500.665 376.738 501.204 376.62C501.744 376.501 502.085 375.968 501.966 375.428L500.013 375.858ZM501.187 368.461C501.214 367.91 500.789 367.44 500.237 367.413C499.686 367.386 499.216 367.811 499.189 368.363L501.187 368.461ZM505.795 359.78C505.311 360.046 505.135 360.654 505.401 361.138C505.668 361.622 506.276 361.798 506.76 361.531L505.795 359.78ZM518.849 356.382C519.381 356.231 519.69 355.679 519.54 355.147C519.39 354.616 518.838 354.307 518.306 354.457L518.849 356.382ZM534.626 351.732C534.074 351.769 533.657 352.245 533.694 352.796C533.73 353.347 534.207 353.764 534.758 353.728L534.626 351.732ZM548.727 349.659C549.173 349.333 549.271 348.708 548.945 348.262C548.62 347.815 547.994 347.717 547.548 348.043L548.727 349.659ZM558.138 340.328C557.692 340.653 557.593 341.278 557.918 341.725C558.243 342.171 558.869 342.27 559.315 341.945L558.138 340.328ZM569.929 334.229C570.375 333.904 570.475 333.279 570.15 332.832C569.826 332.385 569.2 332.286 568.753 332.61L569.929 334.229ZM579.362 324.915C578.914 325.239 578.815 325.864 579.138 326.312C579.463 326.759 580.088 326.859 580.535 326.535L579.362 324.915ZM591.156 318.851C591.604 318.527 591.705 317.902 591.381 317.455C591.058 317.007 590.433 316.906 589.985 317.23L591.156 318.851ZM600.622 309.561C600.173 309.883 600.071 310.508 600.394 310.957C600.717 311.405 601.341 311.507 601.79 311.184L600.622 309.561ZM612.442 303.542C612.891 303.22 612.995 302.596 612.673 302.147C612.352 301.697 611.727 301.594 611.278 301.915L612.442 303.542ZM621.947 294.32C621.496 294.639 621.389 295.263 621.708 295.714C622.027 296.165 622.651 296.272 623.102 295.953L621.947 294.32ZM631.42 290.316C631.888 290.023 632.031 289.406 631.738 288.938C631.445 288.469 630.828 288.327 630.36 288.62L631.42 290.316ZM636.433 284.881C635.961 285.167 635.81 285.782 636.097 286.254C636.383 286.726 636.998 286.877 637.47 286.59L636.433 284.881ZM641 277.728C641 277.176 640.552 276.728 640 276.728C639.448 276.728 639 277.176 639 277.728H641ZM639 265.388C639 265.941 639.448 266.388 640 266.388C640.552 266.388 641 265.941 641 265.388H639ZM641 253.048C641 252.496 640.552 252.048 640 252.048C639.448 252.048 639 252.496 639 253.048H641ZM639 240.708C639 241.26 639.448 241.708 640 241.708C640.552 241.708 641 241.26 641 240.708H639ZM641 228.368C641 227.815 640.552 227.368 640 227.368C639.448 227.368 639 227.815 639 228.368H641ZM639 216.027C639 216.58 639.448 217.027 640 217.027C640.552 217.027 641 216.58 641 216.027H639ZM641 203.687C641 203.135 640.552 202.687 640 202.687C639.448 202.687 639 203.135 639 203.687H641ZM639 191.347C639 191.899 639.448 192.347 640 192.347C640.552 192.347 641 191.899 641 191.347H639ZM641 179.007C641 178.454 640.552 178.007 640 178.007C639.448 178.007 639 178.454 639 179.007H641ZM639 166.666C639 167.219 639.448 167.666 640 167.666C640.552 167.666 641 167.219 641 166.666H639ZM641 154.326C641 153.774 640.552 153.326 640 153.326C639.448 153.326 639 153.774 639 154.326H641ZM639 141.986C639 142.538 639.448 142.986 640 142.986C640.552 142.986 641 142.538 641 141.986H639ZM641 129.646C641 129.093 640.552 128.646 640 128.646C639.448 128.646 639 129.093 639 129.646H641ZM639 117.306C639 117.858 639.448 118.306 640 118.306C640.552 118.306 641 117.858 641 117.306H639ZM640.315 110.153C639.855 109.847 639.234 109.971 638.928 110.431C638.622 110.891 638.746 111.511 639.206 111.818L640.315 110.153ZM638.667 111.414C639.09 111.768 639.721 111.712 640.075 111.288C640.43 110.865 640.373 110.234 639.95 109.88L638.667 111.414ZM635.883 106.108C635.478 105.732 634.845 105.756 634.469 106.16C634.093 106.565 634.117 107.198 634.521 107.574L635.883 106.108ZM626.732 100.336C627.137 100.712 627.77 100.688 628.146 100.284C628.522 99.8792 628.498 99.2464 628.094 98.8705L626.732 100.336ZM620.305 91.6325C619.901 91.2566 619.268 91.2798 618.892 91.6843C618.516 92.0889 618.539 92.7216 618.944 93.0976L620.305 91.6325ZM611.155 85.8596C611.56 86.2356 612.192 86.2124 612.568 85.8078C612.944 85.4033 612.921 84.7705 612.516 84.3946L611.155 85.8596ZM607.677 79.4448C607.456 78.9384 606.867 78.7065 606.361 78.9269C605.854 79.1473 605.623 79.7365 605.843 80.2429L607.677 79.4448ZM605.843 75.448C605.623 75.9544 605.854 76.5436 606.361 76.764C606.867 76.9844 607.456 76.7526 607.677 76.2462L605.843 75.448ZM612.516 71.2964C612.921 70.9204 612.944 70.2877 612.568 69.8831C612.192 69.4785 611.56 69.4553 611.155 69.8313L612.516 71.2964ZM618.944 62.5933C618.539 62.9693 618.516 63.602 618.892 64.0066C619.268 64.4112 619.901 64.4344 620.305 64.0584L618.944 62.5933ZM628.094 56.8204C628.499 56.4445 628.522 55.8117 628.146 55.4072C627.77 55.0026 627.137 54.9794 626.733 55.3554L628.094 56.8204ZM634.521 48.1174C634.117 48.4934 634.094 49.1261 634.469 49.5307C634.845 49.9352 635.478 49.9584 635.883 49.5825L634.521 48.1174ZM639.95 45.8111C640.373 45.4568 640.43 44.8261 640.075 44.4025C639.721 43.9788 639.09 43.9226 638.667 44.277L639.95 45.8111ZM639.206 43.8733C638.746 44.1795 638.622 44.8004 638.928 45.26C639.235 45.7196 639.855 45.844 640.315 45.5377L639.206 43.8733ZM641 40.9166C641 40.3643 640.552 39.9166 640 39.9166C639.448 39.9166 639 40.3643 639 40.9166H641ZM639 33.6389C639 34.1912 639.448 34.6389 640 34.6389C640.552 34.6389 641 34.1912 641 33.6389H639ZM640.165 25.7891C639.953 25.2789 639.368 25.0368 638.858 25.2484C638.348 25.46 638.106 26.045 638.317 26.5552L640.165 25.7891ZM633.445 21.6825C633.955 21.8941 634.54 21.652 634.752 21.1419C634.963 20.6317 634.721 20.0466 634.211 19.8351L633.445 21.6825ZM623.478 19C622.926 19 622.478 19.4477 622.478 20C622.478 20.5523 622.926 21 623.478 21V19ZM610.435 21C610.987 21 611.435 20.5523 611.435 20C611.435 19.4477 610.987 19 610.435 19V21ZM597.391 19C596.839 19 596.391 19.4477 596.391 20C596.391 20.5523 596.839 21 597.391 21V19ZM584.348 21C584.9 21 585.348 20.5523 585.348 20C585.348 19.4477 584.9 19 584.348 19V21ZM571.304 19C570.752 19 570.304 19.4477 570.304 20C570.304 20.5523 570.752 21 571.304 21V19ZM558.261 21C558.813 21 559.261 20.5523 559.261 20C559.261 19.4477 558.813 19 558.261 19V21ZM545.217 19C544.665 19 544.217 19.4477 544.217 20C544.217 20.5523 544.665 21 545.217 21V19ZM532.174 21C532.726 21 533.174 20.5523 533.174 20C533.174 19.4477 532.726 19 532.174 19V21ZM519.13 19C518.578 19 518.13 19.4477 518.13 20C518.13 20.5523 518.578 21 519.13 21V19ZM506.087 21C506.639 21 507.087 20.5523 507.087 20C507.087 19.4477 506.639 19 506.087 19V21ZM493.043 19C492.491 19 492.043 19.4477 492.043 20C492.043 20.5523 492.491 21 493.043 21V19ZM480 21C480.552 21 481 20.5523 481 20C481 19.4477 480.552 19 480 19V21ZM466.957 19C466.404 19 465.957 19.4477 465.957 20C465.957 20.5523 466.404 21 466.957 21V19ZM453.913 21C454.465 21 454.913 20.5523 454.913 20C454.913 19.4477 454.465 19 453.913 19V21ZM440.87 19C440.317 19 439.87 19.4477 439.87 20C439.87 20.5523 440.317 21 440.87 21V19ZM427.826 21C428.378 21 428.826 20.5523 428.826 20C428.826 19.4477 428.378 19 427.826 19V21ZM414.783 19C414.23 19 413.783 19.4477 413.783 20C413.783 20.5523 414.23 21 414.783 21V19ZM401.739 21C402.291 21 402.739 20.5523 402.739 20C402.739 19.4477 402.291 19 401.739 19V21ZM388.696 19C388.143 19 387.696 19.4477 387.696 20C387.696 20.5523 388.143 21 388.696 21V19ZM375.652 21C376.204 21 376.652 20.5523 376.652 20C376.652 19.4477 376.204 19 375.652 19V21ZM362.609 19C362.056 19 361.609 19.4477 361.609 20C361.609 20.5523 362.056 21 362.609 21V19ZM349.565 21C350.118 21 350.565 20.5523 350.565 20C350.565 19.4477 350.118 19 349.565 19V21ZM336.522 19C335.969 19 335.522 19.4477 335.522 20C335.522 20.5523 335.969 21 336.522 21V19ZM323.478 21C324.031 21 324.478 20.5523 324.478 20C324.478 19.4477 324.031 19 323.478 19V21ZM310.435 19C309.883 19 309.435 19.4477 309.435 20C309.435 20.5523 309.883 21 310.435 21V19ZM297.391 21C297.944 21 298.391 20.5523 298.391 20C298.391 19.4477 297.944 19 297.391 19V21ZM284.348 19C283.796 19 283.348 19.4477 283.348 20C283.348 20.5523 283.796 21 284.348 21V19ZM271.304 21C271.857 21 272.304 20.5523 272.304 20C272.304 19.4477 271.857 19 271.304 19V21ZM258.261 19C257.709 19 257.261 19.4477 257.261 20C257.261 20.5523 257.709 21 258.261 21V19ZM245.217 21C245.77 21 246.217 20.5523 246.217 20C246.217 19.4477 245.77 19 245.217 19V21ZM232.174 19C231.622 19 231.174 19.4477 231.174 20C231.174 20.5523 231.622 21 232.174 21V19ZM219.13 21C219.683 21 220.13 20.5523 220.13 20C220.13 19.4477 219.683 19 219.13 19V21ZM206.087 19C205.535 19 205.087 19.4477 205.087 20C205.087 20.5523 205.535 21 206.087 21V19ZM193.043 21C193.596 21 194.043 20.5523 194.043 20C194.043 19.4477 193.596 19 193.043 19V21ZM180 19C179.448 19 179 19.4477 179 20C179 20.5523 179.448 21 180 21V19ZM166.956 21C167.509 21 167.956 20.5523 167.956 20C167.956 19.4477 167.509 19 166.956 19V21ZM153.913 19C153.361 19 152.913 19.4477 152.913 20C152.913 20.5523 153.361 21 153.913 21V19ZM140.869 21C141.422 21 141.869 20.5523 141.869 20C141.869 19.4477 141.422 19 140.869 19V21ZM127.826 19C127.274 19 126.826 19.4477 126.826 20C126.826 20.5523 127.274 21 127.826 21V19ZM114.782 21C115.335 21 115.782 20.5523 115.782 20C115.782 19.4477 115.335 19 114.782 19V21ZM101.739 19C101.187 19 100.739 19.4477 100.739 20C100.739 20.5523 101.187 21 101.739 21V19ZM88.6956 21C89.2478 21 89.6956 20.5523 89.6956 20C89.6956 19.4477 89.2478 19 88.6956 19V21ZM75.6521 19C75.0998 19 74.6521 19.4477 74.6521 20C74.6521 20.5523 75.0998 21 75.6521 21V19ZM62.6087 21C63.1609 21 63.6087 20.5523 63.6087 20C63.6087 19.4477 63.1609 19 62.6087 19V21ZM49.5652 19C49.0129 19 48.5652 19.4477 48.5652 20C48.5652 20.5523 49.0129 21 49.5652 21V19ZM36.5217 21C37.074 21 37.5217 20.5523 37.5217 20C37.5217 19.4477 37.074 19 36.5217 19V21ZM30 19C28.5103 19 27.0874 19.2967 25.7891 19.8351L26.5552 21.6825C27.615 21.2431 28.7778 21 30 21V19ZM19.8351 25.7891C19.2967 27.0874 19 28.5103 19 30H21C21 28.7778 21.2431 27.6149 21.6825 26.5552L19.8351 25.7891ZM19 30V36.6579H21V30H19ZM19 49.9737V63.2895H21V49.9737H19ZM19 76.6052V89.921H21V76.6052H19ZM19 103.237V116.553H21V103.237H19ZM19 129.868V143.184H21V129.868H19ZM19 156.5V169.816H21V156.5H19ZM19 183.132V196.447H21V183.132H19ZM19 209.763V223.079H21V209.763H19ZM19 236.395V249.711H21V236.395H19ZM19 263.026V276.342H21V263.026H19ZM19 289.658V302.974H21V289.658H19ZM19 316.29V329.605H21V316.29H19ZM19 342.921V356.237H21V342.921H19ZM19 369.553V382.868H21V369.553H19ZM19 396.184V409.5H21V396.184H19ZM19 422.816V436.132H21V422.816H19ZM19 449.447V462.763H21V449.447H19ZM19 476.079V489.395H21V476.079H19ZM19 502.711V516.026H21V502.711H19ZM19 529.342V536H21V529.342H19ZM19 536C19 537.49 19.2967 538.913 19.8351 540.211L21.6825 539.445C21.2431 538.385 21 537.222 21 536H19ZM25.7891 546.165C27.0874 546.703 28.5103 547 30 547V545C28.7778 545 27.615 544.757 26.5552 544.317L25.7891 546.165ZM30 547H36.8031V545H30V547ZM50.4093 547H64.0156V545H50.4093V547ZM77.6218 547H91.228V545H77.6218V547ZM104.834 547H118.44V545H104.834V547ZM132.047 547H145.653V545H132.047V547ZM159.259 547H172.865V545H159.259V547ZM186.472 547H200.078V545H186.472V547ZM213.684 547H227.29V545H213.684V547ZM240.897 547H247.7V545H240.897V547ZM248.621 546.389C248.871 545.796 249.119 545.214 249.361 544.645L247.522 543.86C247.278 544.431 247.03 545.016 246.778 545.611L248.621 546.389ZM250.864 541.168C251.131 540.558 251.386 539.978 251.626 539.435L249.798 538.625C249.556 539.171 249.299 539.753 249.031 540.367L250.864 541.168ZM251.712 538.998C251.654 537.185 251.706 535.345 251.858 533.488L249.864 533.325C249.707 535.251 249.652 537.167 249.713 539.062L251.712 538.998ZM253.759 522.574C254.68 519.01 255.866 515.461 257.23 511.994L255.369 511.261C253.979 514.792 252.766 518.419 251.822 522.073L253.759 522.574ZM261.816 501.814C263.568 498.35 265.42 495.066 267.262 492.046L265.554 491.005C263.688 494.065 261.81 497.396 260.031 500.911L261.816 501.814ZM273.455 482.739C274.679 481.058 275.825 479.577 276.849 478.329L275.303 477.06C274.252 478.342 273.082 479.854 271.838 481.562L273.455 482.739ZM277.071 477.594C277.002 476.916 277.001 476.245 277.049 475.594L275.054 475.446C274.998 476.201 274.999 476.989 275.081 477.795L277.071 477.594ZM277.945 471.646C278.253 470.84 278.573 470.223 278.8 469.865L277.109 468.796C276.8 469.285 276.424 470.024 276.077 470.932L277.945 471.646ZM277.955 470.331C278.72 470.331 279.649 470.066 280.645 469.671C281.666 469.266 282.859 468.681 284.187 467.954L283.226 466.2C281.936 466.906 280.823 467.449 279.907 467.812C278.966 468.185 278.328 468.331 277.955 468.331V470.331ZM294.802 461.248C297.978 459.072 301.419 456.612 304.977 453.998L303.793 452.386C300.247 454.991 296.824 457.437 293.671 459.598L294.802 461.248ZM314.959 446.51C316.614 445.245 318.266 443.973 319.901 442.706L318.675 441.125C317.044 442.39 315.396 443.659 313.745 444.92L314.959 446.51ZM320.04 442.574C321.344 441.086 322.892 439.674 324.63 438.338L323.411 436.752C321.591 438.152 319.942 439.651 318.536 441.256L320.04 442.574ZM335.522 431.859C339.37 430.025 343.431 428.431 347.379 427.057L346.722 425.168C342.725 426.558 338.593 428.18 334.661 430.053L335.522 431.859ZM359.651 423.279C362.019 422.627 364.132 422.082 365.869 421.633L365.369 419.696C363.632 420.145 361.506 420.694 359.121 421.35L359.651 423.279ZM365.869 421.633C366.213 421.544 366.542 421.459 366.855 421.378L366.353 419.442C366.041 419.523 365.713 419.608 365.369 419.696L365.869 421.633ZM368.833 420.855C369.213 420.751 369.55 420.656 369.837 420.568L369.254 418.655C368.992 418.735 368.675 418.825 368.305 418.926L368.833 420.855ZM369.837 420.568C370.831 420.265 372.57 419.741 374.929 419.035L374.355 417.119C371.995 417.826 370.253 418.351 369.254 418.655L369.837 420.568ZM385.135 415.995C388.217 415.082 391.648 414.068 395.351 412.979L394.786 411.06C391.082 412.15 387.65 413.164 384.567 414.078L385.135 415.995ZM405.573 409.982C407.247 409.493 408.954 408.995 410.689 408.49L410.13 406.57C408.394 407.075 406.687 407.573 405.013 408.062L405.573 409.982ZM410.645 408.502L416.34 407.122L415.869 405.178L410.174 406.558L410.645 408.502ZM427.73 404.363L439.12 401.603L438.649 399.659L427.259 402.419L427.73 404.363ZM450.51 398.843L456.205 397.463L455.734 395.52L450.039 396.9L450.51 398.843ZM456.14 397.477C458.207 397.119 460.253 396.726 462.266 396.306L461.858 394.348C459.865 394.764 457.842 395.152 455.799 395.506L456.14 397.477ZM474.376 393.382C478.687 392.203 482.704 390.96 486.292 389.751L485.654 387.855C482.1 389.054 478.12 390.285 473.849 391.453L474.376 393.382ZM497.969 385.35C499.795 384.566 501.232 383.883 502.192 383.356C502.664 383.097 503.061 382.853 503.336 382.636C503.461 382.538 503.637 382.387 503.767 382.189C503.831 382.09 503.938 381.9 503.957 381.642C503.981 381.334 503.872 381.025 503.643 380.798L502.236 382.22C502.038 382.024 501.943 381.753 501.963 381.489C501.98 381.276 502.066 381.136 502.093 381.094C502.147 381.012 502.181 381 502.098 381.066C501.957 381.177 501.677 381.357 501.229 381.603C500.351 382.085 498.981 382.739 497.18 383.512L497.969 385.35ZM503.643 380.798C503.65 380.805 503.57 380.71 503.428 380.403C503.301 380.128 503.16 379.763 503.012 379.324L501.117 379.964C501.278 380.438 501.444 380.877 501.612 381.241C501.765 381.574 501.969 381.955 502.236 382.22L503.643 380.798ZM501.966 375.428C501.812 374.724 501.678 374.044 501.577 373.444L499.605 373.776C499.712 374.413 499.852 375.127 500.013 375.858L501.966 375.428ZM501.58 373.46C501.264 371.375 501.123 369.767 501.187 368.461L499.189 368.363C499.115 369.87 499.28 371.635 499.602 373.76L501.58 373.46ZM506.76 361.531C508.037 360.828 509.557 360.068 511.368 359.172L510.481 357.379C508.675 358.273 507.117 359.051 505.795 359.78L506.76 361.531ZM511.368 359.172C513.586 358.075 516.138 357.147 518.849 356.382L518.306 354.457C515.51 355.246 512.837 356.214 510.481 357.379L511.368 359.172ZM534.758 353.728C537.846 353.523 540.622 353.522 542.783 353.697L542.944 351.703C540.66 351.519 537.783 351.523 534.626 351.732L534.758 353.728ZM542.864 352.7C543.454 353.507 543.454 353.507 543.454 353.507L543.454 353.507C543.454 353.507 543.454 353.507 543.454 353.507C543.454 353.507 543.455 353.507 543.455 353.506C543.456 353.506 543.458 353.504 543.459 353.503C543.463 353.5 543.469 353.496 543.476 353.491C543.491 353.48 543.514 353.463 543.544 353.442C543.603 353.398 543.692 353.333 543.809 353.248C544.043 353.077 544.389 352.824 544.84 352.495C545.742 351.836 547.06 350.874 548.727 349.659L547.548 348.043C545.881 349.259 544.563 350.221 543.661 350.879C543.21 351.209 542.863 351.462 542.629 351.633C542.512 351.718 542.423 351.783 542.364 351.827C542.334 351.848 542.311 351.865 542.296 351.876C542.289 351.881 542.283 351.885 542.279 351.888C542.278 351.89 542.276 351.891 542.275 351.891C542.275 351.892 542.274 351.892 542.274 351.892C542.274 351.892 542.274 351.892 542.274 351.892C542.274 351.892 542.274 351.892 542.274 351.892C542.274 351.892 542.274 351.892 542.864 352.7ZM559.315 341.945C562.536 339.6 566.117 336.997 569.929 334.229L568.753 332.61C564.941 335.379 561.36 337.983 558.138 340.328L559.315 341.945ZM580.535 326.535C584.017 324.012 587.583 321.432 591.156 318.851L589.985 317.23C586.411 319.811 582.844 322.392 579.362 324.915L580.535 326.535ZM601.79 311.184C605.444 308.555 609.024 305.986 612.442 303.542L611.278 301.915C607.859 304.361 604.278 306.931 600.622 309.561L601.79 311.184ZM623.102 295.953C625 294.61 626.791 293.347 628.453 292.183L627.305 290.545C625.641 291.712 623.847 292.976 621.947 294.32L623.102 295.953ZM628.415 292.208C629.339 291.622 630.343 290.988 631.42 290.316L630.36 288.62C629.279 289.295 628.271 289.931 627.343 290.52L628.415 292.208ZM637.47 286.59C638.452 285.995 639.468 285.382 640.513 284.757L639.487 283.04C638.437 283.668 637.418 284.283 636.433 284.881L637.47 286.59ZM641 283.899V277.728H639V283.899H641ZM641 265.388V253.048H639V265.388H641ZM641 240.708V228.368H639V240.708H641ZM641 216.027V203.687H639V216.027H641ZM641 191.347V179.007H639V191.347H641ZM641 166.666V154.326H639V166.666H641ZM641 141.986V129.646H639V141.986H641ZM641 117.306V111.135H639V117.306H641ZM640.507 110.273C640.442 110.236 640.378 110.195 640.315 110.153L639.206 111.818C639.301 111.881 639.396 111.941 639.493 111.998L640.507 110.273ZM639.95 109.88C639.892 109.831 639.834 109.78 639.777 109.727L638.416 111.192C638.498 111.269 638.582 111.343 638.667 111.414L639.95 109.88ZM639.777 109.727L635.883 106.108L634.521 107.574L638.416 111.192L639.777 109.727ZM628.094 98.8705L620.305 91.6325L618.944 93.0976L626.732 100.336L628.094 98.8705ZM612.516 84.3946L608.622 80.7756L607.261 82.2407L611.155 85.8596L612.516 84.3946ZM608.622 80.7756C608.203 80.3862 607.889 79.9319 607.677 79.4448L605.843 80.2429C606.163 80.9779 606.636 81.6604 607.261 82.2407L608.622 80.7756ZM607.677 76.2462C607.889 75.7591 608.203 75.3048 608.622 74.9153L607.261 73.4503C606.636 74.0305 606.163 74.713 605.843 75.448L607.677 76.2462ZM608.622 74.9153L612.516 71.2964L611.155 69.8313L607.261 73.4503L608.622 74.9153ZM620.305 64.0584L628.094 56.8204L626.733 55.3554L618.944 62.5933L620.305 64.0584ZM635.883 49.5825L639.777 45.9635L638.416 44.4984L634.521 48.1174L635.883 49.5825ZM639.777 45.9635C639.834 45.9105 639.892 45.8597 639.95 45.8111L638.667 44.277C638.582 44.348 638.498 44.4219 638.416 44.4984L639.777 45.9635ZM640.315 45.5377C640.378 45.4955 640.442 45.4554 640.507 45.4175L639.493 43.6935C639.396 43.7503 639.301 43.8103 639.206 43.8733L640.315 45.5377ZM641 44.5555V40.9166H639V44.5555H641ZM641 33.6389V30H639V33.6389H641ZM641 30C641 28.5103 640.703 27.0874 640.165 25.7891L638.317 26.5552C638.757 27.615 639 28.7778 639 30H641ZM634.211 19.8351C632.913 19.2967 631.49 19 630 19V21C631.222 21 632.385 21.2431 633.445 21.6825L634.211 19.8351ZM630 19H623.478V21H630V19ZM610.435 19H597.391V21H610.435V19ZM584.348 19H571.304V21H584.348V19ZM558.261 19H545.217V21H558.261V19ZM532.174 19H519.13V21H532.174V19ZM506.087 19H493.043V21H506.087V19ZM480 19H466.957V21H480V19ZM453.913 19H440.87V21H453.913V19ZM427.826 19H414.783V21H427.826V19ZM401.739 19H388.696V21H401.739V19ZM375.652 19H362.609V21H375.652V19ZM349.565 19H336.522V21H349.565V19ZM323.478 19H310.435V21H323.478V19ZM297.391 19H284.348V21H297.391V19ZM271.304 19H258.261V21H271.304V19ZM245.217 19H232.174V21H245.217V19ZM219.13 19H206.087V21H219.13V19ZM193.043 19H180V21H193.043V19ZM166.956 19H153.913V21H166.956V19ZM140.869 19H127.826V21H140.869V19ZM114.782 19H101.739V21H114.782V19ZM88.6956 19H75.6521V21H88.6956V19ZM62.6087 19H49.5652V21H62.6087V19ZM36.5217 19H30V21H36.5217V19Z" fill="#E5E5E5"/>
<g filter="url(#filter0_f)">
<path d="M653 287.5C626.697 305.932 558.864 354.7 558.864 354.7C551.192 354.08 536.318 355.629 526.924 360.276C517.009 365.18 515.182 366.317 516.591 375.61C517.061 378.398 518.188 382.766 518.939 383.509C519.744 384.305 497.449 394.08 471.97 398.492L426.409 409.53M385.545 421.612C379.439 423.47 347.5 429.976 335.288 443.915C317.909 457.391 298.651 471.331 293.954 471.331C293.172 472.57 291.7 475.977 292.076 479.695C283.308 490.382 248.748 536.081 249.5 559.5M385.545 421.612C389.613 420.373 406.068 415.45 426.409 409.53M385.545 421.612L426.409 409.53" stroke="black" stroke-opacity="0.6" stroke-width="6"/>
</g>
<g filter="url(#filter1_f)">
<path d="M664 292.5C637.697 310.932 569.864 359.7 569.864 359.7C562.192 359.08 547.318 360.629 537.924 365.276C528.009 370.18 526.182 371.317 527.591 380.61C528.061 383.398 529.188 387.766 529.939 388.509C530.744 389.305 508.449 399.08 482.97 403.492L437.409 414.53M396.545 426.612C390.439 428.47 349.212 437.06 337 451C319.621 464.475 293.697 483.5 289 483.5C288.217 484.739 287.124 489.283 287.5 493C278.733 503.687 259.749 535.081 260.5 558.5M396.545 426.612C400.613 425.373 417.068 420.45 437.409 414.53M396.545 426.612L437.409 414.53" stroke="black" stroke-opacity="0.6" stroke-width="4"/>
</g>
<defs>
<filter id="filter0_f" x="211.488" y="250.043" width="478.234" height="344.553" filterUnits="userSpaceOnUse" color-interpolation-filters="sRGB">
<feFlood flood-opacity="0" result="BackgroundImageFix"/>
<feBlend mode="normal" in="SourceGraphic" in2="BackgroundImageFix" result="shape"/>
<feGaussianBlur stdDeviation="17.5" result="effect1_foregroundBlur"/>
</filter>
<filter id="filter1_f" x="238.479" y="270.862" width="446.669" height="307.702" filterUnits="userSpaceOnUse" color-interpolation-filters="sRGB">
<feFlood flood-opacity="0" result="BackgroundImageFix"/>
<feBlend mode="normal" in="SourceGraphic" in2="BackgroundImageFix" result="shape"/>
<feGaussianBlur stdDeviation="10" result="effect1_foregroundBlur"/>
</filter>
</defs>
</svg>
