<svg width="300" height="338" viewBox="0 0 300 338" fill="none" xmlns="http://www.w3.org/2000/svg">
<path fill-rule="evenodd" clip-rule="evenodd" d="M0 4C0 1.79086 1.79086 0 4 0H296C298.209 0 300 1.79086 300 4V51.3215L288.194 62.232C287.353 63.0087 287.353 64.3369 288.194 65.1136L300 76.0241V201.423C296.6 202.1 293.493 202.79 291.014 203.458C281.122 206.123 266.219 215.148 260.004 219.132C249.013 226.904 224.48 244.994 224.48 244.994C221.275 244.733 215.06 245.386 211.134 247.345C206.991 249.413 206.228 249.892 206.817 253.81C207.013 254.986 207.484 256.828 207.798 257.141C208.134 257.476 198.818 261.598 188.171 263.458L169.134 268.113C160.634 270.608 153.758 272.685 152.059 273.207C151.704 273.316 151.14 273.463 150.418 273.651C145.953 274.814 135.451 277.551 131.059 282.611C123.797 288.293 115.75 294.17 113.787 294.17C113.46 294.693 112.845 296.13 113.002 297.697C109.339 302.203 102.09 313.684 102.404 323.559C101.679 325.209 100.64 327.66 99.7222 330H4C1.79086 330 0 328.209 0 326V4Z" fill="white"/>
<path fill-rule="evenodd" clip-rule="evenodd" d="M10 13.9236C10 11.7567 11.7567 10 13.9236 10H286.076C288.243 10 290 11.7567 290 13.9236V51.6254L278.135 62.6318C277.299 63.4081 277.299 64.732 278.135 65.5083L290 76.5147V201.341C284.598 202.299 279.431 203.334 275.742 204.317C266.45 206.793 252.45 215.181 246.612 218.883C236.287 226.106 213.241 242.917 213.241 242.917C210.23 242.675 204.391 243.282 200.704 245.102C196.812 247.024 196.095 247.469 196.648 251.111C196.832 252.203 197.275 253.915 197.57 254.206C197.885 254.518 189.134 258.348 179.133 260.077L161.249 264.402C153.264 266.722 146.805 268.651 145.209 269.136C144.875 269.238 144.346 269.374 143.668 269.549C139.473 270.63 129.608 273.174 125.481 277.876C118.66 283.156 111.1 288.618 109.257 288.618C108.949 289.104 108.372 290.439 108.519 291.896C105.078 296.084 98.2683 306.753 98.5633 315.93C98.0817 317.014 97.4527 318.471 96.8207 320H13.9236C11.7567 320 10 318.243 10 316.076V13.9236Z" fill="white"/>
<path d="M290 51.6254L290.267 51.913L290.392 51.7966V51.6254H290ZM278.135 62.6318L277.869 62.3441L277.869 62.3441L278.135 62.6318ZM278.135 65.5083L278.402 65.2206L278.402 65.2206L278.135 65.5083ZM290 76.5147H290.392V76.3435L290.267 76.2271L290 76.5147ZM290 201.341L290.069 201.727L290.392 201.67V201.341H290ZM275.742 204.317L275.843 204.696L275.843 204.696L275.742 204.317ZM246.612 218.883L246.402 218.552L246.394 218.557L246.387 218.562L246.612 218.883ZM213.241 242.917L213.209 243.308L213.355 243.32L213.472 243.234L213.241 242.917ZM200.704 245.102L200.878 245.454L200.878 245.454L200.704 245.102ZM196.648 251.111L196.26 251.17L196.261 251.176L196.648 251.111ZM197.57 254.206L197.294 254.485L197.294 254.485L197.57 254.206ZM179.133 260.077L179.066 259.69L179.053 259.693L179.04 259.696L179.133 260.077ZM161.249 264.402L161.157 264.021L161.148 264.023L161.139 264.026L161.249 264.402ZM145.209 269.136L145.323 269.512L145.323 269.512L145.209 269.136ZM143.668 269.549L143.766 269.929L143.766 269.929L143.668 269.549ZM125.481 277.876L125.721 278.186L125.751 278.163L125.776 278.135L125.481 277.876ZM109.257 288.618V288.226H109.041L108.925 288.409L109.257 288.618ZM108.519 291.896L108.822 292.145L108.926 292.019L108.91 291.856L108.519 291.896ZM98.5633 315.93L98.9219 316.089L98.9583 316.007L98.9554 315.917L98.5633 315.93ZM96.8207 320V320.392H97.083L97.1833 320.15L96.8207 320ZM12.2714 9.93529C12.0713 10.0183 11.9763 10.2479 12.0593 10.448C12.1423 10.6482 12.3718 10.7432 12.572 10.6602L12.2714 9.93529ZM10.6602 12.572C10.7432 12.3719 10.6482 12.1423 10.448 12.0593C10.2479 11.9763 10.0183 12.0713 9.93529 12.2714L10.6602 12.572ZM9.60764 16.4416C9.60764 16.6583 9.7833 16.834 10 16.834C10.2167 16.834 10.3924 16.6583 10.3924 16.4416H9.60764ZM10.3924 21.4775C10.3924 21.2608 10.2167 21.0851 10 21.0851C9.7833 21.0851 9.60764 21.2608 9.60764 21.4775H10.3924ZM9.60764 26.5133C9.60764 26.73 9.7833 26.9057 10 26.9057C10.2167 26.9057 10.3924 26.73 10.3924 26.5133H9.60764ZM10.3924 31.5492C10.3924 31.3325 10.2167 31.1569 10 31.1569C9.7833 31.1569 9.60764 31.3325 9.60764 31.5492H10.3924ZM9.60764 36.5851C9.60764 36.8018 9.7833 36.9775 10 36.9775C10.2167 36.9775 10.3924 36.8018 10.3924 36.5851H9.60764ZM10.3924 41.621C10.3924 41.4043 10.2167 41.2286 10 41.2286C9.7833 41.2286 9.60764 41.4043 9.60764 41.621H10.3924ZM9.60764 46.6569C9.60764 46.8736 9.7833 47.0492 10 47.0492C10.2167 47.0492 10.3924 46.8736 10.3924 46.6569H9.60764ZM10.3924 51.6927C10.3924 51.476 10.2167 51.3004 10 51.3004C9.7833 51.3004 9.60764 51.476 9.60764 51.6927H10.3924ZM9.60764 56.7286C9.60764 56.9453 9.7833 57.121 10 57.121C10.2167 57.121 10.3924 56.9453 10.3924 56.7286H9.60764ZM10.3924 61.7645C10.3924 61.5478 10.2167 61.3721 10 61.3721C9.7833 61.3721 9.60764 61.5478 9.60764 61.7645H10.3924ZM9.60764 66.8004C9.60764 67.0171 9.7833 67.1927 10 67.1927C10.2167 67.1927 10.3924 67.0171 10.3924 66.8004H9.60764ZM10.3924 71.8362C10.3924 71.6195 10.2167 71.4439 10 71.4439C9.7833 71.4439 9.60764 71.6195 9.60764 71.8362H10.3924ZM9.60764 76.8721C9.60764 77.0888 9.7833 77.2645 10 77.2645C10.2167 77.2645 10.3924 77.0888 10.3924 76.8721H9.60764ZM10.3924 81.908C10.3924 81.6913 10.2167 81.5156 10 81.5156C9.7833 81.5156 9.60764 81.6913 9.60764 81.908H10.3924ZM9.60764 86.9439C9.60764 87.1606 9.7833 87.3362 10 87.3362C10.2167 87.3362 10.3924 87.1606 10.3924 86.9439H9.60764ZM10.3924 91.9798C10.3924 91.7631 10.2167 91.5874 10 91.5874C9.7833 91.5874 9.60764 91.7631 9.60764 91.9798H10.3924ZM9.60764 97.0156C9.60764 97.2323 9.7833 97.408 10 97.408C10.2167 97.408 10.3924 97.2323 10.3924 97.0156H9.60764ZM10.3924 102.052C10.3924 101.835 10.2167 101.659 10 101.659C9.7833 101.659 9.60764 101.835 9.60764 102.052H10.3924ZM9.60764 107.087C9.60764 107.304 9.7833 107.48 10 107.48C10.2167 107.48 10.3924 107.304 10.3924 107.087H9.60764ZM10.3924 112.123C10.3924 111.907 10.2167 111.731 10 111.731C9.7833 111.731 9.60764 111.907 9.60764 112.123H10.3924ZM9.60764 117.159C9.60764 117.376 9.7833 117.552 10 117.552C10.2167 117.552 10.3924 117.376 10.3924 117.159H9.60764ZM10.3924 122.195C10.3924 121.978 10.2167 121.803 10 121.803C9.7833 121.803 9.60764 121.978 9.60764 122.195H10.3924ZM9.60764 127.231C9.60764 127.448 9.7833 127.623 10 127.623C10.2167 127.623 10.3924 127.448 10.3924 127.231H9.60764ZM10.3924 132.267C10.3924 132.05 10.2167 131.874 10 131.874C9.7833 131.874 9.60764 132.05 9.60764 132.267H10.3924ZM9.60764 137.303C9.60764 137.519 9.7833 137.695 10 137.695C10.2167 137.695 10.3924 137.519 10.3924 137.303H9.60764ZM10.3924 142.339C10.3924 142.122 10.2167 141.946 10 141.946C9.7833 141.946 9.60764 142.122 9.60764 142.339H10.3924ZM9.60764 147.374C9.60764 147.591 9.7833 147.767 10 147.767C10.2167 147.767 10.3924 147.591 10.3924 147.374H9.60764ZM10.3924 152.41C10.3924 152.194 10.2167 152.018 10 152.018C9.7833 152.018 9.60764 152.194 9.60764 152.41H10.3924ZM9.60764 157.446C9.60764 157.663 9.7833 157.839 10 157.839C10.2167 157.839 10.3924 157.663 10.3924 157.446H9.60764ZM10.3924 162.482C10.3924 162.265 10.2167 162.09 10 162.09C9.7833 162.09 9.60764 162.265 9.60764 162.482H10.3924ZM9.60764 167.518C9.60764 167.735 9.7833 167.91 10 167.91C10.2167 167.91 10.3924 167.735 10.3924 167.518H9.60764ZM10.3924 172.554C10.3924 172.337 10.2167 172.161 10 172.161C9.7833 172.161 9.60764 172.337 9.60764 172.554H10.3924ZM9.60764 177.59C9.60764 177.806 9.7833 177.982 10 177.982C10.2167 177.982 10.3924 177.806 10.3924 177.59H9.60764ZM10.3924 182.626C10.3924 182.409 10.2167 182.233 10 182.233C9.7833 182.233 9.60764 182.409 9.60764 182.626H10.3924ZM9.60764 187.661C9.60764 187.878 9.7833 188.054 10 188.054C10.2167 188.054 10.3924 187.878 10.3924 187.661H9.60764ZM10.3924 192.697C10.3924 192.481 10.2167 192.305 10 192.305C9.7833 192.305 9.60764 192.481 9.60764 192.697H10.3924ZM9.60764 197.733C9.60764 197.95 9.7833 198.126 10 198.126C10.2167 198.126 10.3924 197.95 10.3924 197.733H9.60764ZM10.3924 202.769C10.3924 202.552 10.2167 202.377 10 202.377C9.7833 202.377 9.60764 202.552 9.60764 202.769H10.3924ZM9.60764 207.805C9.60764 208.022 9.7833 208.197 10 208.197C10.2167 208.197 10.3924 208.022 10.3924 207.805H9.60764ZM10.3924 212.841C10.3924 212.624 10.2167 212.448 10 212.448C9.7833 212.448 9.60764 212.624 9.60764 212.841H10.3924ZM9.60764 217.877C9.60764 218.093 9.7833 218.269 10 218.269C10.2167 218.269 10.3924 218.093 10.3924 217.877H9.60764ZM10.3924 222.913C10.3924 222.696 10.2167 222.52 10 222.52C9.7833 222.52 9.60764 222.696 9.60764 222.913H10.3924ZM9.60764 227.948C9.60764 228.165 9.7833 228.341 10 228.341C10.2167 228.341 10.3924 228.165 10.3924 227.948H9.60764ZM10.3924 232.984C10.3924 232.768 10.2167 232.592 10 232.592C9.7833 232.592 9.60764 232.768 9.60764 232.984H10.3924ZM9.60764 238.02C9.60764 238.237 9.7833 238.413 10 238.413C10.2167 238.413 10.3924 238.237 10.3924 238.02H9.60764ZM10.3924 243.056C10.3924 242.839 10.2167 242.664 10 242.664C9.7833 242.664 9.60764 242.839 9.60764 243.056H10.3924ZM9.60764 248.092C9.60764 248.309 9.7833 248.484 10 248.484C10.2167 248.484 10.3924 248.309 10.3924 248.092H9.60764ZM10.3924 253.128C10.3924 252.911 10.2167 252.735 10 252.735C9.7833 252.735 9.60764 252.911 9.60764 253.128H10.3924ZM9.60764 258.164C9.60764 258.38 9.7833 258.556 10 258.556C10.2167 258.556 10.3924 258.38 10.3924 258.164H9.60764ZM10.3924 263.2C10.3924 262.983 10.2167 262.807 10 262.807C9.7833 262.807 9.60764 262.983 9.60764 263.2H10.3924ZM9.60764 268.235C9.60764 268.452 9.7833 268.628 10 268.628C10.2167 268.628 10.3924 268.452 10.3924 268.235H9.60764ZM10.3924 273.271C10.3924 273.055 10.2167 272.879 10 272.879C9.7833 272.879 9.60764 273.055 9.60764 273.271H10.3924ZM9.60764 278.307C9.60764 278.524 9.7833 278.7 10 278.7C10.2167 278.7 10.3924 278.524 10.3924 278.307H9.60764ZM10.3924 283.343C10.3924 283.126 10.2167 282.951 10 282.951C9.7833 282.951 9.60764 283.126 9.60764 283.343H10.3924ZM9.60764 288.379C9.60764 288.596 9.7833 288.771 10 288.771C10.2167 288.771 10.3924 288.596 10.3924 288.379H9.60764ZM10.3924 293.415C10.3924 293.198 10.2167 293.022 10 293.022C9.7833 293.022 9.60764 293.198 9.60764 293.415H10.3924ZM9.60764 298.451C9.60764 298.667 9.7833 298.843 10 298.843C10.2167 298.843 10.3924 298.667 10.3924 298.451H9.60764ZM10.3924 303.487C10.3924 303.27 10.2167 303.094 10 303.094C9.7833 303.094 9.60764 303.27 9.60764 303.487H10.3924ZM9.60764 308.522C9.60764 308.739 9.7833 308.915 10 308.915C10.2167 308.915 10.3924 308.739 10.3924 308.522H9.60764ZM10.3924 313.558C10.3924 313.342 10.2167 313.166 10 313.166C9.7833 313.166 9.60764 313.342 9.60764 313.558H10.3924ZM9.93529 317.729C10.0183 317.929 10.2479 318.024 10.448 317.941C10.6482 317.858 10.7432 317.628 10.6602 317.428L9.93529 317.729ZM12.572 319.34C12.3718 319.257 12.1423 319.352 12.0593 319.552C11.9763 319.752 12.0713 319.982 12.2714 320.065L12.572 319.34ZM16.5142 320.392C16.7309 320.392 16.9065 320.217 16.9065 320C16.9065 319.783 16.7309 319.608 16.5142 319.608V320.392ZM21.6952 319.608C21.4785 319.608 21.3029 319.783 21.3029 320C21.3029 320.217 21.4785 320.392 21.6952 320.392V319.608ZM26.8763 320.392C27.093 320.392 27.2687 320.217 27.2687 320C27.2687 319.783 27.093 319.608 26.8763 319.608V320.392ZM32.0574 319.608C31.8407 319.608 31.665 319.783 31.665 320C31.665 320.217 31.8407 320.392 32.0574 320.392V319.608ZM37.2384 320.392C37.4551 320.392 37.6308 320.217 37.6308 320C37.6308 319.783 37.4551 319.608 37.2384 319.608V320.392ZM42.4195 319.608C42.2028 319.608 42.0271 319.783 42.0271 320C42.0271 320.217 42.2028 320.392 42.4195 320.392V319.608ZM47.6006 320.392C47.8173 320.392 47.9929 320.217 47.9929 320C47.9929 319.783 47.8173 319.608 47.6006 319.608V320.392ZM52.7816 319.608C52.5649 319.608 52.3893 319.783 52.3893 320C52.3893 320.217 52.5649 320.392 52.7816 320.392V319.608ZM57.9627 320.392C58.1794 320.392 58.355 320.217 58.355 320C58.355 319.783 58.1794 319.608 57.9627 319.608V320.392ZM63.1437 319.608C62.9271 319.608 62.7514 319.783 62.7514 320C62.7514 320.217 62.9271 320.392 63.1437 320.392V319.608ZM68.3248 320.392C68.5415 320.392 68.7172 320.217 68.7172 320C68.7172 319.783 68.5415 319.608 68.3248 319.608V320.392ZM73.5059 319.608C73.2892 319.608 73.1135 319.783 73.1135 320C73.1135 320.217 73.2892 320.392 73.5059 320.392V319.608ZM78.6869 320.392C78.9036 320.392 79.0793 320.217 79.0793 320C79.0793 319.783 78.9036 319.608 78.6869 319.608V320.392ZM83.868 319.608C83.6513 319.608 83.4756 319.783 83.4756 320C83.4756 320.217 83.6513 320.392 83.868 320.392V319.608ZM89.0491 320.392C89.2658 320.392 89.4414 320.217 89.4414 320C89.4414 319.783 89.2658 319.608 89.0491 319.608V320.392ZM94.2301 319.608C94.0134 319.608 93.8378 319.783 93.8378 320C93.8378 320.217 94.0134 320.392 94.2301 320.392V319.608ZM97.6085 319.131C97.6925 318.931 97.5987 318.701 97.399 318.617C97.1993 318.533 96.9692 318.626 96.8852 318.826L97.6085 319.131ZM97.7582 316.787C97.6717 316.985 97.7626 317.216 97.9613 317.303C98.16 317.389 98.3912 317.298 98.4777 317.1L97.7582 316.787ZM99.0127 313.758C99.0303 313.542 98.8696 313.352 98.6536 313.335C98.4376 313.317 98.2482 313.478 98.2306 313.694L99.0127 313.758ZM98.9996 309.283C98.9453 309.493 99.0713 309.707 99.2811 309.762C99.4908 309.816 99.7049 309.69 99.7592 309.48L98.9996 309.283ZM101.122 305.334C101.202 305.132 101.103 304.905 100.901 304.825C100.699 304.746 100.472 304.845 100.392 305.046L101.122 305.334ZM102.223 300.991C102.125 301.184 102.202 301.42 102.395 301.518C102.589 301.616 102.825 301.539 102.923 301.345L102.223 300.991ZM105.06 297.518C105.173 297.334 105.115 297.092 104.93 296.979C104.745 296.866 104.503 296.924 104.39 297.109L105.06 297.518ZM106.857 293.41C106.729 293.585 106.767 293.831 106.942 293.958C107.117 294.086 107.363 294.048 107.491 293.872L106.857 293.41ZM108.901 291.073C108.917 290.857 108.755 290.668 108.539 290.652C108.323 290.636 108.134 290.798 108.118 291.015L108.901 291.073ZM108.52 289.245C108.442 289.448 108.544 289.675 108.746 289.752C108.948 289.829 109.175 289.728 109.253 289.526L108.52 289.245ZM111.702 288.08C111.892 287.976 111.962 287.737 111.858 287.547C111.754 287.357 111.516 287.287 111.325 287.391L111.702 288.08ZM115.425 284.805C115.247 284.927 115.201 285.171 115.323 285.35C115.445 285.529 115.69 285.575 115.868 285.452L115.425 284.805ZM119.863 282.611C120.038 282.483 120.076 282.238 119.947 282.063C119.819 281.888 119.574 281.85 119.399 281.979L119.863 282.611ZM123.305 279.053C123.133 279.184 123.1 279.431 123.231 279.603C123.363 279.775 123.609 279.808 123.781 279.677L123.305 279.053ZM127.579 276.474C127.751 276.342 127.783 276.096 127.651 275.924C127.519 275.752 127.273 275.72 127.101 275.852L127.579 276.474ZM131.518 273.226C131.322 273.32 131.239 273.554 131.332 273.749C131.425 273.945 131.659 274.028 131.855 273.935L131.518 273.226ZM136.509 272.054C136.714 271.983 136.822 271.759 136.751 271.555C136.68 271.35 136.456 271.242 136.252 271.313L136.509 272.054ZM141.118 269.817C140.909 269.874 140.786 270.09 140.843 270.299C140.9 270.508 141.116 270.631 141.325 270.574L141.118 269.817ZM144.152 269.829C144.362 269.775 144.488 269.561 144.434 269.351C144.38 269.141 144.166 269.015 143.956 269.069L144.152 269.829ZM144.722 268.867C144.513 268.924 144.39 269.14 144.447 269.349C144.504 269.558 144.72 269.681 144.929 269.624L144.722 268.867ZM147.322 268.911C147.529 268.849 147.647 268.63 147.585 268.423C147.523 268.215 147.304 268.097 147.097 268.159L147.322 268.911ZM151.105 266.968C150.897 267.029 150.779 267.247 150.84 267.455C150.902 267.663 151.12 267.781 151.328 267.72L151.105 266.968ZM155.338 266.538C155.546 266.477 155.665 266.259 155.604 266.051C155.543 265.843 155.324 265.724 155.117 265.785L155.338 266.538ZM159.131 264.61C158.923 264.671 158.803 264.889 158.864 265.097C158.925 265.305 159.142 265.424 159.35 265.364L159.131 264.61ZM163.577 264.243C163.787 264.192 163.917 263.98 163.866 263.769C163.815 263.559 163.603 263.429 163.392 263.48L163.577 264.243ZM167.863 262.399C167.652 262.45 167.523 262.662 167.574 262.873C167.625 263.083 167.837 263.213 168.048 263.162L167.863 262.399ZM172.518 262.08C172.729 262.029 172.859 261.817 172.808 261.607C172.757 261.396 172.545 261.267 172.334 261.318L172.518 262.08ZM176.805 260.236C176.594 260.287 176.465 260.499 176.516 260.71C176.567 260.92 176.779 261.05 176.989 260.999L176.805 260.236ZM181.604 260.005C181.816 259.961 181.952 259.753 181.908 259.541C181.864 259.328 181.656 259.192 181.444 259.237L181.604 260.005ZM186.15 258.102C185.941 258.159 185.818 258.375 185.875 258.584C185.932 258.793 186.148 258.916 186.357 258.859L186.15 258.102ZM191.034 257.436C191.24 257.367 191.35 257.145 191.281 256.939C191.212 256.734 190.989 256.623 190.784 256.693L191.034 257.436ZM195.309 254.99C195.109 255.076 195.017 255.306 195.102 255.506C195.188 255.705 195.418 255.797 195.618 255.712L195.309 254.99ZM197.598 253.35C197.529 253.145 197.306 253.034 197.101 253.104C196.895 253.173 196.785 253.396 196.855 253.601L197.598 253.35ZM196.421 251.992C196.468 252.204 196.677 252.337 196.889 252.291C197.1 252.244 197.234 252.035 197.187 251.823L196.421 251.992ZM196.882 249.092C196.892 248.876 196.725 248.692 196.509 248.681C196.293 248.67 196.108 248.837 196.098 249.053L196.882 249.092ZM198.692 245.69C198.502 245.795 198.433 246.033 198.537 246.223C198.641 246.413 198.88 246.482 199.07 246.378L198.692 245.69ZM203.815 244.36C204.023 244.302 204.145 244.085 204.086 243.876C204.027 243.668 203.811 243.546 203.602 243.605L203.815 244.36ZM210.008 242.538C209.791 242.552 209.628 242.739 209.642 242.955C209.656 243.171 209.843 243.335 210.059 243.321L210.008 242.538ZM215.542 241.726C215.717 241.599 215.756 241.353 215.628 241.178C215.501 241.003 215.255 240.964 215.08 241.092L215.542 241.726ZM219.237 238.069C219.062 238.196 219.023 238.441 219.15 238.617C219.278 238.792 219.523 238.831 219.698 238.704L219.237 238.069ZM223.864 235.68C224.04 235.553 224.079 235.308 223.952 235.132C223.825 234.957 223.579 234.918 223.404 235.045L223.864 235.68ZM227.568 232.029C227.392 232.156 227.353 232.402 227.48 232.577C227.607 232.753 227.852 232.792 228.028 232.665L227.568 232.029ZM232.197 229.654C232.373 229.528 232.412 229.282 232.286 229.107C232.159 228.931 231.914 228.891 231.738 229.018L232.197 229.654ZM235.913 226.013C235.737 226.139 235.697 226.384 235.823 226.56C235.95 226.736 236.195 226.777 236.371 226.65L235.913 226.013ZM240.552 223.656C240.728 223.53 240.769 223.285 240.643 223.108C240.517 222.932 240.272 222.891 240.096 223.017L240.552 223.656ZM244.284 220.041C244.107 220.166 244.065 220.411 244.19 220.588C244.315 220.765 244.559 220.807 244.736 220.682L244.284 220.041ZM249.122 217.779C249.307 217.665 249.365 217.424 249.251 217.239C249.137 217.054 248.896 216.997 248.711 217.11L249.122 217.779ZM253.393 214.31C253.206 214.419 253.142 214.659 253.251 214.846C253.36 215.034 253.6 215.097 253.788 214.988L253.393 214.31ZM258.522 212.319C258.713 212.215 258.783 211.977 258.679 211.786C258.575 211.596 258.337 211.526 258.147 211.63L258.522 212.319ZM262.982 209.096C262.789 209.193 262.71 209.429 262.807 209.622C262.904 209.816 263.14 209.895 263.334 209.797L262.982 209.096ZM268.239 207.481C268.437 207.394 268.527 207.162 268.44 206.964C268.352 206.766 268.121 206.676 267.922 206.763L268.239 207.481ZM273.015 204.746C272.81 204.816 272.701 205.04 272.771 205.244C272.842 205.449 273.065 205.558 273.27 205.488L273.015 204.746ZM279.366 203.838C279.578 203.79 279.711 203.58 279.663 203.369C279.615 203.157 279.405 203.025 279.194 203.073L279.366 203.838ZM286.344 201.61C286.131 201.65 285.991 201.855 286.031 202.068C286.071 202.281 286.277 202.421 286.49 202.381L286.344 201.61ZM290.392 198.74C290.392 198.523 290.217 198.348 290 198.348C289.783 198.348 289.608 198.523 289.608 198.74H290.392ZM289.608 193.539C289.608 193.756 289.783 193.931 290 193.931C290.217 193.931 290.392 193.756 290.392 193.539H289.608ZM290.392 188.338C290.392 188.121 290.217 187.946 290 187.946C289.783 187.946 289.608 188.121 289.608 188.338H290.392ZM289.608 183.137C289.608 183.354 289.783 183.529 290 183.529C290.217 183.529 290.392 183.354 290.392 183.137H289.608ZM290.392 177.936C290.392 177.719 290.217 177.543 290 177.543C289.783 177.543 289.608 177.719 289.608 177.936H290.392ZM289.608 172.735C289.608 172.951 289.783 173.127 290 173.127C290.217 173.127 290.392 172.951 290.392 172.735H289.608ZM290.392 167.534C290.392 167.317 290.217 167.141 290 167.141C289.783 167.141 289.608 167.317 289.608 167.534H290.392ZM289.608 162.333C289.608 162.549 289.783 162.725 290 162.725C290.217 162.725 290.392 162.549 290.392 162.333H289.608ZM290.392 157.131C290.392 156.915 290.217 156.739 290 156.739C289.783 156.739 289.608 156.915 289.608 157.131H290.392ZM289.608 151.93C289.608 152.147 289.783 152.323 290 152.323C290.217 152.323 290.392 152.147 290.392 151.93H289.608ZM290.392 146.729C290.392 146.513 290.217 146.337 290 146.337C289.783 146.337 289.608 146.513 289.608 146.729H290.392ZM289.608 141.528C289.608 141.745 289.783 141.921 290 141.921C290.217 141.921 290.392 141.745 290.392 141.528H289.608ZM290.392 136.327C290.392 136.11 290.217 135.935 290 135.935C289.783 135.935 289.608 136.11 289.608 136.327H290.392ZM289.608 131.126C289.608 131.343 289.783 131.518 290 131.518C290.217 131.518 290.392 131.343 290.392 131.126H289.608ZM290.392 125.925C290.392 125.708 290.217 125.533 290 125.533C289.783 125.533 289.608 125.708 289.608 125.925H290.392ZM289.608 120.724C289.608 120.941 289.783 121.116 290 121.116C290.217 121.116 290.392 120.941 290.392 120.724H289.608ZM290.392 115.523C290.392 115.306 290.217 115.13 290 115.13C289.783 115.13 289.608 115.306 289.608 115.523H290.392ZM289.608 110.322C289.608 110.538 289.783 110.714 290 110.714C290.217 110.714 290.392 110.538 290.392 110.322H289.608ZM290.392 105.121C290.392 104.904 290.217 104.728 290 104.728C289.783 104.728 289.608 104.904 289.608 105.121H290.392ZM289.608 99.9196C289.608 100.136 289.783 100.312 290 100.312C290.217 100.312 290.392 100.136 290.392 99.9196H289.608ZM290.392 94.7185C290.392 94.5018 290.217 94.3261 290 94.3261C289.783 94.3261 289.608 94.5018 289.608 94.7185H290.392ZM289.608 89.5174C289.608 89.7341 289.783 89.9098 290 89.9098C290.217 89.9098 290.392 89.7341 290.392 89.5174H289.608ZM290.392 84.3163C290.392 84.0996 290.217 83.924 290 83.924C289.783 83.924 289.608 84.0996 289.608 84.3163H290.392ZM289.608 79.1153C289.608 79.332 289.783 79.5076 290 79.5076C290.217 79.5076 290.392 79.332 290.392 79.1153H289.608ZM288.784 74.8513C288.625 74.7039 288.377 74.7132 288.229 74.8721C288.082 75.0309 288.091 75.2792 288.25 75.4266L288.784 74.8513ZM285.284 72.675C285.443 72.8223 285.691 72.813 285.838 72.6542C285.986 72.4953 285.976 72.247 285.818 72.0997L285.284 72.675ZM282.851 69.3481C282.693 69.2007 282.444 69.21 282.297 69.3689C282.15 69.5277 282.159 69.776 282.318 69.9234L282.851 69.3481ZM279.352 67.1718C279.51 67.3191 279.759 67.3098 279.906 67.1509C280.053 66.9921 280.044 66.7438 279.885 66.5964L279.352 67.1718ZM278.031 64.6982C277.944 64.4995 277.713 64.4087 277.514 64.4952C277.315 64.5818 277.225 64.813 277.311 65.0117L278.031 64.6982ZM277.311 63.1284C277.225 63.3271 277.315 63.5583 277.514 63.6449C277.713 63.7314 277.944 63.6406 278.031 63.4419L277.311 63.1284ZM279.885 61.5436C280.044 61.3963 280.053 61.148 279.906 60.9891C279.759 60.8303 279.51 60.821 279.352 60.9683L279.885 61.5436ZM282.318 58.2167C282.159 58.3641 282.15 58.6124 282.297 58.7712C282.444 58.9301 282.693 58.9394 282.851 58.792L282.318 58.2167ZM285.818 56.0404C285.976 55.893 285.986 55.6448 285.838 55.4859C285.691 55.3271 285.443 55.3177 285.284 55.4651L285.818 56.0404ZM288.25 52.7135C288.091 52.8609 288.082 53.1091 288.229 53.268C288.377 53.4269 288.625 53.4362 288.784 53.2888L288.25 52.7135ZM290.392 49.269C290.392 49.0523 290.217 48.8766 290 48.8766C289.783 48.8766 289.608 49.0523 289.608 49.269H290.392ZM289.608 44.5563C289.608 44.773 289.783 44.9486 290 44.9486C290.217 44.9486 290.392 44.773 290.392 44.5563H289.608ZM290.392 39.8436C290.392 39.6269 290.217 39.4512 290 39.4512C289.783 39.4512 289.608 39.6269 289.608 39.8436H290.392ZM289.608 35.1309C289.608 35.3476 289.783 35.5232 290 35.5232C290.217 35.5232 290.392 35.3476 290.392 35.1309H289.608ZM290.392 30.4181C290.392 30.2014 290.217 30.0258 290 30.0258C289.783 30.0258 289.608 30.2014 289.608 30.4181H290.392ZM289.608 25.7054C289.608 25.9221 289.783 26.0978 290 26.0978C290.217 26.0978 290.392 25.9221 290.392 25.7054H289.608ZM290.392 20.9927C290.392 20.776 290.217 20.6003 290 20.6003C289.783 20.6003 289.608 20.776 289.608 20.9927H290.392ZM289.608 16.28C289.608 16.4967 289.783 16.6724 290 16.6724C290.217 16.6724 290.392 16.4967 290.392 16.28H289.608ZM290.065 12.2714C289.982 12.0713 289.752 11.9763 289.552 12.0593C289.352 12.1423 289.257 12.3718 289.34 12.572L290.065 12.2714ZM287.428 10.6602C287.628 10.7432 287.858 10.6482 287.941 10.448C288.024 10.2479 287.929 10.0183 287.729 9.93529L287.428 10.6602ZM283.556 9.60764C283.34 9.60764 283.164 9.7833 283.164 10C283.164 10.2167 283.34 10.3924 283.556 10.3924V9.60764ZM278.517 10.3924C278.733 10.3924 278.909 10.2167 278.909 10C278.909 9.7833 278.733 9.60764 278.517 9.60764V10.3924ZM273.477 9.60764C273.26 9.60764 273.084 9.7833 273.084 10C273.084 10.2167 273.26 10.3924 273.477 10.3924V9.60764ZM268.437 10.3924C268.654 10.3924 268.829 10.2167 268.829 10C268.829 9.7833 268.654 9.60764 268.437 9.60764V10.3924ZM263.397 9.60764C263.18 9.60764 263.005 9.7833 263.005 10C263.005 10.2167 263.18 10.3924 263.397 10.3924V9.60764ZM258.357 10.3924C258.574 10.3924 258.749 10.2167 258.749 10C258.749 9.7833 258.574 9.60764 258.357 9.60764V10.3924ZM253.317 9.60764C253.101 9.60764 252.925 9.7833 252.925 10C252.925 10.2167 253.101 10.3924 253.317 10.3924V9.60764ZM248.277 10.3924C248.494 10.3924 248.67 10.2167 248.67 10C248.67 9.7833 248.494 9.60764 248.277 9.60764V10.3924ZM243.238 9.60764C243.021 9.60764 242.845 9.7833 242.845 10C242.845 10.2167 243.021 10.3924 243.238 10.3924V9.60764ZM238.198 10.3924C238.414 10.3924 238.59 10.2167 238.59 10C238.59 9.7833 238.414 9.60764 238.198 9.60764V10.3924ZM233.158 9.60764C232.941 9.60764 232.765 9.7833 232.765 10C232.765 10.2167 232.941 10.3924 233.158 10.3924V9.60764ZM228.118 10.3924C228.335 10.3924 228.51 10.2167 228.51 10C228.51 9.7833 228.335 9.60764 228.118 9.60764V10.3924ZM223.078 9.60764C222.861 9.60764 222.686 9.7833 222.686 10C222.686 10.2167 222.861 10.3924 223.078 10.3924V9.60764ZM218.038 10.3924C218.255 10.3924 218.431 10.2167 218.431 10C218.431 9.7833 218.255 9.60764 218.038 9.60764V10.3924ZM212.998 9.60764C212.782 9.60764 212.606 9.7833 212.606 10C212.606 10.2167 212.782 10.3924 212.998 10.3924V9.60764ZM207.958 10.3924C208.175 10.3924 208.351 10.2167 208.351 10C208.351 9.7833 208.175 9.60764 207.958 9.60764V10.3924ZM202.919 9.60764C202.702 9.60764 202.526 9.7833 202.526 10C202.526 10.2167 202.702 10.3924 202.919 10.3924V9.60764ZM197.879 10.3924C198.095 10.3924 198.271 10.2167 198.271 10C198.271 9.7833 198.095 9.60764 197.879 9.60764V10.3924ZM192.839 9.60764C192.622 9.60764 192.447 9.7833 192.447 10C192.447 10.2167 192.622 10.3924 192.839 10.3924V9.60764ZM187.799 10.3924C188.016 10.3924 188.191 10.2167 188.191 10C188.191 9.7833 188.016 9.60764 187.799 9.60764V10.3924ZM182.759 9.60764C182.542 9.60764 182.367 9.7833 182.367 10C182.367 10.2167 182.542 10.3924 182.759 10.3924V9.60764ZM177.719 10.3924C177.936 10.3924 178.112 10.2167 178.112 10C178.112 9.7833 177.936 9.60764 177.719 9.60764V10.3924ZM172.679 9.60764C172.463 9.60764 172.287 9.7833 172.287 10C172.287 10.2167 172.463 10.3924 172.679 10.3924V9.60764ZM167.64 10.3924C167.856 10.3924 168.032 10.2167 168.032 10C168.032 9.7833 167.856 9.60764 167.64 9.60764V10.3924ZM162.6 9.60764C162.383 9.60764 162.207 9.7833 162.207 10C162.207 10.2167 162.383 10.3924 162.6 10.3924V9.60764ZM157.56 10.3924C157.777 10.3924 157.952 10.2167 157.952 10C157.952 9.7833 157.777 9.60764 157.56 9.60764V10.3924ZM152.52 9.60764C152.303 9.60764 152.128 9.7833 152.128 10C152.128 10.2167 152.303 10.3924 152.52 10.3924V9.60764ZM147.48 10.3924C147.697 10.3924 147.872 10.2167 147.872 10C147.872 9.7833 147.697 9.60764 147.48 9.60764V10.3924ZM142.44 9.60764C142.223 9.60764 142.048 9.7833 142.048 10C142.048 10.2167 142.223 10.3924 142.44 10.3924V9.60764ZM137.4 10.3924C137.617 10.3924 137.793 10.2167 137.793 10C137.793 9.7833 137.617 9.60764 137.4 9.60764V10.3924ZM132.36 9.60764C132.144 9.60764 131.968 9.7833 131.968 10C131.968 10.2167 132.144 10.3924 132.36 10.3924V9.60764ZM127.321 10.3924C127.537 10.3924 127.713 10.2167 127.713 10C127.713 9.7833 127.537 9.60764 127.321 9.60764V10.3924ZM122.281 9.60764C122.064 9.60764 121.888 9.7833 121.888 10C121.888 10.2167 122.064 10.3924 122.281 10.3924V9.60764ZM117.241 10.3924C117.458 10.3924 117.633 10.2167 117.633 10C117.633 9.7833 117.458 9.60764 117.241 9.60764V10.3924ZM112.201 9.60764C111.984 9.60764 111.809 9.7833 111.809 10C111.809 10.2167 111.984 10.3924 112.201 10.3924V9.60764ZM107.161 10.3924C107.378 10.3924 107.553 10.2167 107.553 10C107.553 9.7833 107.378 9.60764 107.161 9.60764V10.3924ZM102.121 9.60764C101.905 9.60764 101.729 9.7833 101.729 10C101.729 10.2167 101.905 10.3924 102.121 10.3924V9.60764ZM97.0814 10.3924C97.2981 10.3924 97.4737 10.2167 97.4737 10C97.4737 9.7833 97.2981 9.60764 97.0814 9.60764V10.3924ZM92.0415 9.60764C91.8248 9.60764 91.6491 9.7833 91.6491 10C91.6491 10.2167 91.8248 10.3924 92.0415 10.3924V9.60764ZM87.0016 10.3924C87.2183 10.3924 87.394 10.2167 87.394 10C87.394 9.7833 87.2183 9.60764 87.0016 9.60764V10.3924ZM81.9617 9.60764C81.745 9.60764 81.5694 9.7833 81.5694 10C81.5694 10.2167 81.745 10.3924 81.9617 10.3924V9.60764ZM76.9219 10.3924C77.1386 10.3924 77.3142 10.2167 77.3142 10C77.3142 9.7833 77.1386 9.60764 76.9219 9.60764V10.3924ZM71.882 9.60764C71.6653 9.60764 71.4896 9.7833 71.4896 10C71.4896 10.2167 71.6653 10.3924 71.882 10.3924V9.60764ZM66.8421 10.3924C67.0588 10.3924 67.2345 10.2167 67.2345 10C67.2345 9.7833 67.0588 9.60764 66.8421 9.60764V10.3924ZM61.8023 9.60764C61.5856 9.60764 61.4099 9.7833 61.4099 10C61.4099 10.2167 61.5856 10.3924 61.8023 10.3924V9.60764ZM56.7624 10.3924C56.9791 10.3924 57.1547 10.2167 57.1547 10C57.1547 9.7833 56.9791 9.60764 56.7624 9.60764V10.3924ZM51.7225 9.60764C51.5058 9.60764 51.3302 9.7833 51.3302 10C51.3302 10.2167 51.5058 10.3924 51.7225 10.3924V9.60764ZM46.6826 10.3924C46.8993 10.3924 47.075 10.2167 47.075 10C47.075 9.7833 46.8993 9.60764 46.6826 9.60764V10.3924ZM41.6428 9.60764C41.4261 9.60764 41.2504 9.7833 41.2504 10C41.2504 10.2167 41.4261 10.3924 41.6428 10.3924V9.60764ZM36.6029 10.3924C36.8196 10.3924 36.9953 10.2167 36.9953 10C36.9953 9.7833 36.8196 9.60764 36.6029 9.60764V10.3924ZM31.563 9.60764C31.3463 9.60764 31.1707 9.7833 31.1707 10C31.1707 10.2167 31.3463 10.3924 31.563 10.3924V9.60764ZM26.5232 10.3924C26.7399 10.3924 26.9155 10.2167 26.9155 10C26.9155 9.7833 26.7399 9.60764 26.5232 9.60764V10.3924ZM21.4833 9.60764C21.2666 9.60764 21.0909 9.7833 21.0909 10C21.0909 10.2167 21.2666 10.3924 21.4833 10.3924V9.60764ZM16.4434 10.3924C16.6601 10.3924 16.8358 10.2167 16.8358 10C16.8358 9.7833 16.6601 9.60764 16.4434 9.60764V10.3924ZM13.9236 9.60764C13.3391 9.60764 12.7809 9.72404 12.2714 9.93529L12.572 10.6602C12.9878 10.4877 13.4441 10.3924 13.9236 10.3924V9.60764ZM9.93529 12.2714C9.72404 12.7809 9.60764 13.3392 9.60764 13.9236H10.3924C10.3924 13.4441 10.4877 12.9878 10.6602 12.572L9.93529 12.2714ZM9.60764 13.9236V16.4416H10.3924V13.9236H9.60764ZM9.60764 21.4775V26.5133H10.3924V21.4775H9.60764ZM9.60764 31.5492V36.5851H10.3924V31.5492H9.60764ZM9.60764 41.621V46.6569H10.3924V41.621H9.60764ZM9.60764 51.6927V56.7286H10.3924V51.6927H9.60764ZM9.60764 61.7645V66.8004H10.3924V61.7645H9.60764ZM9.60764 71.8362V76.8721H10.3924V71.8362H9.60764ZM9.60764 81.908V86.9439H10.3924V81.908H9.60764ZM9.60764 91.9798V97.0156H10.3924V91.9798H9.60764ZM9.60764 102.052V107.087H10.3924V102.052H9.60764ZM9.60764 112.123V117.159H10.3924V112.123H9.60764ZM9.60764 122.195V127.231H10.3924V122.195H9.60764ZM9.60764 132.267V137.303H10.3924V132.267H9.60764ZM9.60764 142.339V147.374H10.3924V142.339H9.60764ZM9.60764 152.41V157.446H10.3924V152.41H9.60764ZM9.60764 162.482V167.518H10.3924V162.482H9.60764ZM9.60764 172.554V177.59H10.3924V172.554H9.60764ZM9.60764 182.626V187.661H10.3924V182.626H9.60764ZM9.60764 192.697V197.733H10.3924V192.697H9.60764ZM9.60764 202.769V207.805H10.3924V202.769H9.60764ZM9.60764 212.841V217.877H10.3924V212.841H9.60764ZM9.60764 222.913V227.948H10.3924V222.913H9.60764ZM9.60764 232.984V238.02H10.3924V232.984H9.60764ZM9.60764 243.056V248.092H10.3924V243.056H9.60764ZM9.60764 253.128V258.164H10.3924V253.128H9.60764ZM9.60764 263.2V268.235H10.3924V263.2H9.60764ZM9.60764 273.271V278.307H10.3924V273.271H9.60764ZM9.60764 283.343V288.379H10.3924V283.343H9.60764ZM9.60764 293.415V298.451H10.3924V293.415H9.60764ZM9.60764 303.487V308.522H10.3924V303.487H9.60764ZM9.60764 313.558V316.076H10.3924V313.558H9.60764ZM9.60764 316.076C9.60764 316.661 9.72404 317.219 9.93529 317.729L10.6602 317.428C10.4877 317.012 10.3924 316.556 10.3924 316.076H9.60764ZM12.2714 320.065C12.7809 320.276 13.3391 320.392 13.9236 320.392V319.608C13.4441 319.608 12.9878 319.512 12.572 319.34L12.2714 320.065ZM13.9236 320.392H16.5142V319.608H13.9236V320.392ZM21.6952 320.392H26.8763V319.608H21.6952V320.392ZM32.0574 320.392H37.2384V319.608H32.0574V320.392ZM42.4195 320.392H47.6006V319.608H42.4195V320.392ZM52.7816 320.392H57.9627V319.608H52.7816V320.392ZM63.1437 320.392H68.3248V319.608H63.1437V320.392ZM73.5059 320.392H78.6869V319.608H73.5059V320.392ZM83.868 320.392H89.0491V319.608H83.868V320.392ZM94.2301 320.392H96.8207V319.608H94.2301V320.392ZM97.1833 320.15C97.3257 319.805 97.468 319.464 97.6085 319.131L96.8852 318.826C96.7441 319.161 96.6012 319.504 96.458 319.85L97.1833 320.15ZM98.4777 317.1C98.6355 316.737 98.7847 316.398 98.9219 316.089L98.2047 315.771C98.0667 316.081 97.9168 316.422 97.7582 316.787L98.4777 317.1ZM98.9554 315.917C98.9326 315.207 98.9533 314.485 99.0127 313.758L98.2306 313.694C98.1689 314.449 98.1472 315.2 98.1711 315.943L98.9554 315.917ZM99.7592 309.48C100.121 308.084 100.587 306.693 101.122 305.334L100.392 305.046C99.8466 306.43 99.3704 307.851 98.9996 309.283L99.7592 309.48ZM102.923 301.345C103.61 299.988 104.337 298.701 105.06 297.518L104.39 297.109C103.658 298.308 102.921 299.613 102.223 300.991L102.923 301.345ZM107.491 293.872C107.971 293.214 108.42 292.634 108.822 292.145L108.216 291.647C107.804 292.149 107.345 292.741 106.857 293.41L107.491 293.872ZM108.91 291.856C108.883 291.591 108.882 291.328 108.901 291.073L108.118 291.015C108.096 291.31 108.097 291.619 108.129 291.935L108.91 291.856ZM109.253 289.526C109.374 289.21 109.499 288.969 109.588 288.828L108.925 288.409C108.804 288.6 108.656 288.89 108.52 289.245L109.253 289.526ZM109.257 289.011C109.557 289.011 109.921 288.907 110.312 288.753C110.713 288.594 111.181 288.365 111.702 288.08L111.325 287.391C110.819 287.668 110.383 287.881 110.023 288.023C109.654 288.169 109.403 288.226 109.257 288.226V289.011ZM115.868 285.452C117.115 284.6 118.466 283.636 119.863 282.611L119.399 281.979C118.007 282.999 116.663 283.958 115.425 284.805L115.868 285.452ZM123.781 279.677C124.431 279.182 125.079 278.683 125.721 278.186L125.241 277.566C124.601 278.061 123.954 278.559 123.305 279.053L123.781 279.677ZM125.776 278.135C126.288 277.551 126.896 276.998 127.579 276.474L127.101 275.852C126.386 276.4 125.739 276.988 125.186 277.617L125.776 278.135ZM131.855 273.935C133.365 273.217 134.959 272.592 136.509 272.054L136.252 271.313C134.683 271.857 133.061 272.492 131.518 273.226L131.855 273.935ZM141.325 270.574C142.255 270.318 143.084 270.105 143.766 269.929L143.57 269.169C142.888 269.345 142.054 269.56 141.118 269.817L141.325 270.574ZM143.766 269.929C143.9 269.894 144.029 269.861 144.152 269.829L143.956 269.069C143.833 269.101 143.705 269.134 143.57 269.169L143.766 269.929ZM144.929 269.624C145.078 269.584 145.21 269.546 145.323 269.512L145.095 268.761C144.992 268.792 144.867 268.828 144.722 268.867L144.929 269.624ZM145.323 269.512C145.713 269.393 146.396 269.188 147.322 268.911L147.097 268.159C146.171 268.436 145.487 268.642 145.095 268.761L145.323 269.512ZM151.328 267.72C152.538 267.362 153.884 266.965 155.338 266.538L155.117 265.785C153.663 266.212 152.315 266.609 151.105 266.968L151.328 267.72ZM159.35 265.364C160.007 265.172 160.677 264.977 161.358 264.779L161.139 264.026C160.458 264.223 159.788 264.419 159.131 264.61L159.35 265.364ZM161.341 264.784L163.577 264.243L163.392 263.48L161.157 264.021L161.341 264.784ZM168.048 263.162L172.518 262.08L172.334 261.318L167.863 262.399L168.048 263.162ZM176.989 260.999L179.225 260.458L179.04 259.696L176.805 260.236L176.989 260.999ZM179.199 260.464C180.011 260.323 180.814 260.169 181.604 260.005L181.444 259.237C180.662 259.399 179.868 259.552 179.066 259.69L179.199 260.464ZM186.357 258.859C188.049 258.397 189.626 257.91 191.034 257.436L190.784 256.693C189.389 257.162 187.827 257.645 186.15 258.102L186.357 258.859ZM195.618 255.712C196.335 255.405 196.899 255.137 197.276 254.93C197.461 254.829 197.617 254.733 197.725 254.649C197.774 254.61 197.843 254.551 197.894 254.473C197.919 254.434 197.961 254.36 197.969 254.258C197.978 254.137 197.935 254.016 197.845 253.927L197.294 254.485C197.216 254.408 197.179 254.302 197.187 254.198C197.193 254.114 197.227 254.059 197.238 254.043C197.259 254.011 197.272 254.006 197.239 254.032C197.184 254.076 197.074 254.146 196.899 254.242C196.554 254.431 196.015 254.688 195.309 254.99L195.618 255.712ZM197.845 253.927C197.848 253.93 197.817 253.893 197.761 253.772C197.711 253.665 197.656 253.522 197.598 253.35L196.855 253.601C196.917 253.787 196.983 253.959 197.049 254.102C197.109 254.232 197.189 254.382 197.294 254.485L197.845 253.927ZM197.187 251.823C197.127 251.547 197.074 251.281 197.035 251.046L196.261 251.176C196.303 251.426 196.358 251.705 196.421 251.992L197.187 251.823ZM197.036 251.052C196.911 250.234 196.856 249.604 196.882 249.092L196.098 249.053C196.068 249.644 196.133 250.336 196.26 251.17L197.036 251.052ZM199.07 246.378C199.571 246.102 200.167 245.805 200.878 245.454L200.53 244.75C199.822 245.1 199.21 245.405 198.692 245.69L199.07 246.378ZM200.878 245.454C201.748 245.024 202.75 244.661 203.815 244.36L203.602 243.605C202.504 243.915 201.455 244.294 200.53 244.75L200.878 245.454ZM210.059 243.321C211.272 243.24 212.361 243.24 213.209 243.308L213.272 242.526C212.376 242.454 211.247 242.456 210.008 242.538L210.059 243.321ZM213.241 242.917C213.472 243.234 213.472 243.234 213.472 243.234C213.472 243.234 213.472 243.234 213.472 243.234C213.472 243.234 213.472 243.234 213.472 243.234C213.472 243.234 213.473 243.234 213.473 243.234C213.473 243.234 213.474 243.233 213.474 243.233C213.476 243.232 213.478 243.23 213.481 243.228C213.487 243.224 213.496 243.217 213.507 243.209C213.531 243.192 213.566 243.166 213.612 243.133C213.703 243.066 213.839 242.967 214.016 242.838C214.37 242.58 214.888 242.203 215.542 241.726L215.08 241.092C214.426 241.568 213.908 241.945 213.554 242.203C213.377 242.332 213.241 242.432 213.149 242.499C213.103 242.532 213.068 242.558 213.045 242.575C213.033 242.583 213.025 242.59 213.019 242.594C213.016 242.596 213.013 242.598 213.012 242.599C213.011 242.599 213.011 242.6 213.01 242.6C213.01 242.6 213.01 242.6 213.01 242.6C213.01 242.6 213.01 242.6 213.01 242.6C213.01 242.6 213.01 242.6 213.01 242.6C213.01 242.6 213.01 242.6 213.241 242.917ZM219.698 238.704C220.963 237.785 222.368 236.765 223.864 235.68L223.404 235.045C221.907 236.13 220.502 237.15 219.237 238.069L219.698 238.704ZM228.028 232.665C229.394 231.677 230.794 230.666 232.197 229.654L231.738 229.018C230.335 230.03 228.935 231.041 227.568 232.029L228.028 232.665ZM236.371 226.65C237.805 225.62 239.21 224.613 240.552 223.656L240.096 223.017C238.754 223.975 237.348 224.982 235.913 226.013L236.371 226.65ZM244.736 220.682C245.481 220.156 246.185 219.661 246.837 219.205L246.387 218.562C245.734 219.019 245.029 219.514 244.284 220.041L244.736 220.682ZM246.822 219.215C247.488 218.792 248.262 218.308 249.122 217.779L248.711 217.11C247.847 217.642 247.071 218.127 246.402 218.552L246.822 219.215ZM253.788 214.988C255.276 214.123 256.871 213.219 258.522 212.319L258.147 211.63C256.488 212.534 254.887 213.441 253.393 214.31L253.788 214.988ZM263.334 209.797C264.974 208.976 266.624 208.192 268.239 207.481L267.922 206.763C266.293 207.48 264.632 208.269 262.982 209.096L263.334 209.797ZM273.27 205.488C274.161 205.182 275.022 204.915 275.843 204.696L275.641 203.938C274.799 204.163 273.92 204.435 273.015 204.746L273.27 205.488ZM275.843 204.696C276.903 204.414 278.087 204.127 279.366 203.838L279.194 203.073C277.907 203.363 276.713 203.652 275.641 203.938L275.843 204.696ZM286.49 202.381C287.661 202.16 288.859 201.942 290.069 201.727L289.931 200.954C288.719 201.169 287.519 201.388 286.344 201.61L286.49 202.381ZM290.392 201.341V198.74H289.608V201.341H290.392ZM290.392 193.539V188.338H289.608V193.539H290.392ZM290.392 183.137V177.936H289.608V183.137H290.392ZM290.392 172.735V167.534H289.608V172.735H290.392ZM290.392 162.333V157.131H289.608V162.333H290.392ZM290.392 151.93V146.729H289.608V151.93H290.392ZM290.392 141.528V136.327H289.608V141.528H290.392ZM290.392 131.126V125.925H289.608V131.126H290.392ZM290.392 120.724V115.523H289.608V120.724H290.392ZM290.392 110.322V105.121H289.608V110.322H290.392ZM290.392 99.9196V94.7185H289.608V99.9196H290.392ZM290.392 89.5174V84.3163H289.608V89.5174H290.392ZM290.392 79.1153V76.5147H289.608V79.1153H290.392ZM290.267 76.2271L288.784 74.8513L288.25 75.4266L289.733 76.8024L290.267 76.2271ZM285.818 72.0997L282.851 69.3481L282.318 69.9234L285.284 72.675L285.818 72.0997ZM279.885 66.5964L278.402 65.2206L277.869 65.7959L279.352 67.1718L279.885 66.5964ZM278.402 65.2206C278.237 65.0678 278.114 64.8894 278.031 64.6982L277.311 65.0117C277.437 65.3003 277.623 65.5683 277.869 65.796L278.402 65.2206ZM278.031 63.4419C278.114 63.2506 278.237 63.0723 278.402 62.9194L277.869 62.3441C277.623 62.5718 277.437 62.8398 277.311 63.1284L278.031 63.4419ZM278.402 62.9194L279.885 61.5436L279.352 60.9683L277.869 62.3441L278.402 62.9194ZM282.851 58.792L285.818 56.0404L285.284 55.4651L282.318 58.2167L282.851 58.792ZM288.784 53.2888L290.267 51.913L289.733 51.3377L288.25 52.7135L288.784 53.2888ZM290.392 51.6254V49.269H289.608V51.6254H290.392ZM290.392 44.5563V39.8436H289.608V44.5563H290.392ZM290.392 35.1309V30.4181H289.608V35.1309H290.392ZM290.392 25.7054V20.9927H289.608V25.7054H290.392ZM290.392 16.28V13.9236H289.608V16.28H290.392ZM290.392 13.9236C290.392 13.3391 290.276 12.7809 290.065 12.2714L289.34 12.572C289.512 12.9878 289.608 13.4441 289.608 13.9236H290.392ZM287.729 9.93529C287.219 9.72404 286.661 9.60764 286.076 9.60764V10.3924C286.556 10.3924 287.012 10.4877 287.428 10.6602L287.729 9.93529ZM286.076 9.60764H283.556V10.3924H286.076V9.60764ZM278.517 9.60764H273.477V10.3924H278.517V9.60764ZM268.437 9.60764H263.397V10.3924H268.437V9.60764ZM258.357 9.60764H253.317V10.3924H258.357V9.60764ZM248.277 9.60764H243.238V10.3924H248.277V9.60764ZM238.198 9.60764H233.158V10.3924H238.198V9.60764ZM228.118 9.60764H223.078V10.3924H228.118V9.60764ZM218.038 9.60764H212.998V10.3924H218.038V9.60764ZM207.958 9.60764H202.919V10.3924H207.958V9.60764ZM197.879 9.60764H192.839V10.3924H197.879V9.60764ZM187.799 9.60764H182.759V10.3924H187.799V9.60764ZM177.719 9.60764H172.679V10.3924H177.719V9.60764ZM167.64 9.60764H162.6V10.3924H167.64V9.60764ZM157.56 9.60764H152.52V10.3924H157.56V9.60764ZM147.48 9.60764H142.44V10.3924H147.48V9.60764ZM137.4 9.60764H132.36V10.3924H137.4V9.60764ZM127.321 9.60764H122.281V10.3924H127.321V9.60764ZM117.241 9.60764H112.201V10.3924H117.241V9.60764ZM107.161 9.60764H102.121V10.3924H107.161V9.60764ZM97.0814 9.60764H92.0415V10.3924H97.0814V9.60764ZM87.0016 9.60764H81.9617V10.3924H87.0016V9.60764ZM76.9219 9.60764H71.882V10.3924H76.9219V9.60764ZM66.8421 9.60764H61.8023V10.3924H66.8421V9.60764ZM56.7624 9.60764H51.7225V10.3924H56.7624V9.60764ZM46.6826 9.60764H41.6428V10.3924H46.6826V9.60764ZM36.6029 9.60764H31.563V10.3924H36.6029V9.60764ZM26.5232 9.60764H21.4833V10.3924H26.5232V9.60764ZM16.4434 9.60764H13.9236V10.3924H16.4434V9.60764Z" fill="#E5E5E5"/>
<g filter="url(#filter0_f)">
<path d="M256.472 217.369C246.147 224.591 219.521 243.701 219.521 243.701C216.509 243.458 210.671 244.065 206.984 245.886C203.092 247.808 202.374 248.253 202.927 251.894C203.112 252.987 203.554 254.698 203.849 254.99C204.165 255.302 195.414 259.132 185.412 260.861L167.529 265.186M151.488 269.92C149.092 270.648 136.555 273.197 131.761 278.66C124.939 283.94 117.38 289.402 115.536 289.402C115.229 289.888 114.651 291.223 114.799 292.68C111.357 296.867 97.7918 314.774 98.0868 323.951M151.488 269.92C153.085 269.435 159.544 267.505 167.529 265.186M151.488 269.92L167.529 265.186" stroke="black" stroke-opacity="0.6" stroke-width="2.35418"/>
</g>
<g filter="url(#filter1_f)">
<path d="M260.788 219.328C250.463 226.55 223.837 245.66 223.837 245.66C220.826 245.417 214.987 246.024 211.3 247.844C207.408 249.766 206.691 250.211 207.244 253.853C207.428 254.945 207.871 256.657 208.166 256.948C208.481 257.26 199.73 261.09 189.729 262.819L171.845 267.145M155.805 271.879C153.408 272.607 137.225 275.973 132.431 281.435C125.61 286.715 115.434 294.17 113.59 294.17C113.283 294.655 112.854 296.436 113.001 297.892C109.56 302.08 102.108 314.382 102.403 323.558M155.805 271.879C157.401 271.393 163.86 269.464 171.845 267.145M155.805 271.879L171.845 267.145" stroke="black" stroke-opacity="0.6" stroke-width="1.56945"/>
</g>
<defs>
<filter id="filter0_f" x="83.1716" y="202.672" width="187.707" height="135.049" filterUnits="userSpaceOnUse" color-interpolation-filters="sRGB">
<feFlood flood-opacity="0" result="BackgroundImageFix"/>
<feBlend mode="normal" in="SourceGraphic" in2="BackgroundImageFix" result="shape"/>
<feGaussianBlur stdDeviation="6.86637" result="effect1_foregroundBlur"/>
</filter>
<filter id="filter1_f" x="93.7621" y="210.837" width="175.323" height="120.593" filterUnits="userSpaceOnUse" color-interpolation-filters="sRGB">
<feFlood flood-opacity="0" result="BackgroundImageFix"/>
<feBlend mode="normal" in="SourceGraphic" in2="BackgroundImageFix" result="shape"/>
<feGaussianBlur stdDeviation="3.92364" result="effect1_foregroundBlur"/>
</filter>
</defs>
</svg>
