<svg width="587" height="533" viewBox="0 0 587 533" fill="none" xmlns="http://www.w3.org/2000/svg">
<g filter="url(#filter0_d)">
<path fill-rule="evenodd" clip-rule="evenodd" d="M45.6328 52.4137C45.6328 48.83 48.538 45.9248 52.1217 45.9248H534.144C537.728 45.9248 540.633 48.83 540.633 52.4137V85.3955L521.845 102.758C520.455 104.043 520.455 106.239 521.845 107.524L540.633 124.886V280.176C535.298 281.25 530.429 282.339 526.509 283.395C510.15 287.802 485.504 302.728 475.225 309.316C457.049 322.169 416.476 352.086 416.476 352.086C411.175 351.654 400.897 352.734 394.405 355.974C387.553 359.394 386.291 360.186 387.264 366.667C387.589 368.611 388.368 371.656 388.887 372.175C389.443 372.73 374.037 379.546 356.429 382.622L324.945 390.32C310.889 394.447 299.517 397.881 296.707 398.744C296.12 398.924 295.187 399.167 293.994 399.478C286.609 401.403 269.242 405.929 261.977 414.297C249.967 423.693 236.66 433.413 233.414 433.413C232.873 434.278 231.856 436.654 232.115 439.246C226.057 446.698 214.069 465.685 214.588 482.016C214.008 483.336 213.306 484.968 212.564 486.738H52.1217C48.538 486.738 45.6328 483.833 45.6328 480.249V52.4137Z" fill="white"/>
</g>
<path fill-rule="evenodd" clip-rule="evenodd" d="M57.5039 64.2633C57.5039 60.6796 60.4091 57.7744 63.9928 57.7744H522.274C525.858 57.7744 528.763 60.6796 528.763 64.2633V83.9917C527.693 83.5956 526.418 83.7454 525.435 84.6578L505.211 103.418C503.828 104.702 503.828 106.892 505.212 108.176L525.435 126.936C526.418 127.848 527.693 127.998 528.763 127.602V279.207C518.446 280.977 508.244 282.952 501.253 284.815C485.886 288.91 462.733 302.782 453.078 308.905C436.003 320.849 397.889 348.652 397.889 348.652C392.909 348.25 383.254 349.254 377.155 352.265C370.719 355.443 369.533 356.18 370.448 362.202C370.752 364.009 371.484 366.839 371.972 367.321C372.494 367.837 358.021 374.171 341.481 377.03L311.905 384.183C298.701 388.019 288.019 391.21 285.378 392.012C284.827 392.18 283.952 392.406 282.832 392.694L282.83 392.695C275.893 394.483 259.578 398.689 252.753 406.466C241.472 415.198 228.97 424.232 225.921 424.232C225.413 425.035 224.458 427.243 224.702 429.652C219.01 436.577 207.749 454.223 208.237 469.399C207.572 470.896 206.737 472.822 205.871 474.888H63.9928C60.4091 474.888 57.5039 471.983 57.5039 468.399V64.2633Z" fill="white"/>
<path d="M528.763 83.9917L528.537 84.6002L529.412 84.924V83.9917H528.763ZM525.435 84.6578L525.876 85.1335L525.876 85.1335L525.435 84.6578ZM505.211 103.418L504.77 102.943L504.77 102.943L505.211 103.418ZM505.212 108.176L505.653 107.7L505.653 107.7L505.212 108.176ZM525.435 126.936L525.876 126.46L525.876 126.46L525.435 126.936ZM528.763 127.602H529.412V126.67L528.537 126.994L528.763 127.602ZM528.763 279.207L528.873 279.847L529.412 279.754V279.207H528.763ZM501.253 284.815L501.42 285.442L501.42 285.442L501.253 284.815ZM453.078 308.905L452.73 308.357L452.718 308.364L452.706 308.373L453.078 308.905ZM397.889 348.652L397.837 349.299L398.077 349.318L398.272 349.176L397.889 348.652ZM377.155 352.265L376.868 351.683L376.868 351.683L377.155 352.265ZM370.448 362.202L369.806 362.299L369.808 362.31L370.448 362.202ZM371.972 367.321L371.516 367.783L371.516 367.783L371.972 367.321ZM341.481 377.03L341.371 376.391L341.35 376.394L341.329 376.399L341.481 377.03ZM311.905 384.183L311.753 383.553L311.738 383.556L311.724 383.56L311.905 384.183ZM285.378 392.012L285.567 392.633L285.567 392.633L285.378 392.012ZM282.832 392.694L282.989 393.324L282.994 393.323L282.832 392.694ZM282.83 392.695L282.672 392.065L282.668 392.067L282.83 392.695ZM252.753 406.466L253.15 406.979L253.2 406.941L253.241 406.894L252.753 406.466ZM225.921 424.232V423.583H225.564L225.373 423.885L225.921 424.232ZM224.702 429.652L225.203 430.064L225.374 429.855L225.347 429.586L224.702 429.652ZM208.237 469.399L208.83 469.662L208.89 469.527L208.885 469.378L208.237 469.399ZM205.871 474.888V475.537H206.303L206.47 475.139L205.871 474.888ZM61.2604 57.6674C60.9293 57.8047 60.7722 58.1843 60.9095 58.5153C61.0468 58.8464 61.4264 59.0035 61.7575 58.8662L61.2604 57.6674ZM58.5957 62.028C58.733 61.6969 58.5759 61.3173 58.2448 61.18C57.9138 61.0427 57.5342 61.1998 57.3969 61.5309L58.5957 62.028ZM56.855 68.473C56.855 68.8314 57.1455 69.1219 57.5039 69.1219C57.8623 69.1219 58.1528 68.8314 58.1528 68.473H56.855ZM58.1528 76.8925C58.1528 76.5342 57.8623 76.2436 57.5039 76.2436C57.1455 76.2436 56.855 76.5342 56.855 76.8925H58.1528ZM56.855 85.312C56.855 85.6704 57.1455 85.9609 57.5039 85.9609C57.8623 85.9609 58.1528 85.6704 58.1528 85.312H56.855ZM58.1528 93.7315C58.1528 93.3732 57.8623 93.0826 57.5039 93.0826C57.1455 93.0826 56.855 93.3732 56.855 93.7315H58.1528ZM56.855 102.151C56.855 102.509 57.1455 102.8 57.5039 102.8C57.8623 102.8 58.1528 102.509 58.1528 102.151H56.855ZM58.1528 110.571C58.1528 110.212 57.8623 109.922 57.5039 109.922C57.1455 109.922 56.855 110.212 56.855 110.571H58.1528ZM56.855 118.99C56.855 119.348 57.1455 119.639 57.5039 119.639C57.8623 119.639 58.1528 119.348 58.1528 118.99H56.855ZM58.1528 127.41C58.1528 127.051 57.8623 126.761 57.5039 126.761C57.1455 126.761 56.855 127.051 56.855 127.41H58.1528ZM56.855 135.829C56.855 136.187 57.1455 136.478 57.5039 136.478C57.8623 136.478 58.1528 136.187 58.1528 135.829H56.855ZM58.1528 144.249C58.1528 143.89 57.8623 143.6 57.5039 143.6C57.1455 143.6 56.855 143.89 56.855 144.249H58.1528ZM56.855 152.668C56.855 153.026 57.1455 153.317 57.5039 153.317C57.8623 153.317 58.1528 153.026 58.1528 152.668H56.855ZM58.1528 161.088C58.1528 160.729 57.8623 160.439 57.5039 160.439C57.1455 160.439 56.855 160.729 56.855 161.088H58.1528ZM56.855 169.507C56.855 169.865 57.1455 170.156 57.5039 170.156C57.8623 170.156 58.1528 169.865 58.1528 169.507H56.855ZM58.1528 177.927C58.1528 177.568 57.8623 177.278 57.5039 177.278C57.1455 177.278 56.855 177.568 56.855 177.927H58.1528ZM56.855 186.346C56.855 186.704 57.1455 186.995 57.5039 186.995C57.8623 186.995 58.1528 186.704 58.1528 186.346H56.855ZM58.1528 194.766C58.1528 194.407 57.8623 194.117 57.5039 194.117C57.1455 194.117 56.855 194.407 56.855 194.766H58.1528ZM56.855 203.185C56.855 203.543 57.1455 203.834 57.5039 203.834C57.8623 203.834 58.1528 203.543 58.1528 203.185H56.855ZM58.1528 211.605C58.1528 211.246 57.8623 210.956 57.5039 210.956C57.1455 210.956 56.855 211.246 56.855 211.605H58.1528ZM56.855 220.024C56.855 220.382 57.1455 220.673 57.5039 220.673C57.8623 220.673 58.1528 220.382 58.1528 220.024H56.855ZM58.1528 228.444C58.1528 228.085 57.8623 227.795 57.5039 227.795C57.1455 227.795 56.855 228.085 56.855 228.444H58.1528ZM56.855 236.863C56.855 237.221 57.1455 237.512 57.5039 237.512C57.8623 237.512 58.1528 237.221 58.1528 236.863H56.855ZM58.1528 245.283C58.1528 244.924 57.8623 244.634 57.5039 244.634C57.1455 244.634 56.855 244.924 56.855 245.283H58.1528ZM56.855 253.702C56.855 254.06 57.1455 254.351 57.5039 254.351C57.8623 254.351 58.1528 254.06 58.1528 253.702H56.855ZM58.1528 262.122C58.1528 261.763 57.8623 261.473 57.5039 261.473C57.1455 261.473 56.855 261.763 56.855 262.122H58.1528ZM56.855 270.541C56.855 270.899 57.1455 271.19 57.5039 271.19C57.8623 271.19 58.1528 270.899 58.1528 270.541H56.855ZM58.1528 278.96C58.1528 278.602 57.8623 278.312 57.5039 278.312C57.1455 278.312 56.855 278.602 56.855 278.96H58.1528ZM56.855 287.38C56.855 287.738 57.1455 288.029 57.5039 288.029C57.8623 288.029 58.1528 287.738 58.1528 287.38H56.855ZM58.1528 295.799C58.1528 295.441 57.8623 295.151 57.5039 295.151C57.1455 295.151 56.855 295.441 56.855 295.799H58.1528ZM56.855 304.219C56.855 304.577 57.1455 304.868 57.5039 304.868C57.8623 304.868 58.1528 304.577 58.1528 304.219H56.855ZM58.1528 312.638C58.1528 312.28 57.8623 311.99 57.5039 311.99C57.1455 311.99 56.855 312.28 56.855 312.638H58.1528ZM56.855 321.058C56.855 321.416 57.1455 321.707 57.5039 321.707C57.8623 321.707 58.1528 321.416 58.1528 321.058H56.855ZM58.1528 329.477C58.1528 329.119 57.8623 328.829 57.5039 328.829C57.1455 328.829 56.855 329.119 56.855 329.477H58.1528ZM56.855 337.897C56.855 338.255 57.1455 338.546 57.5039 338.546C57.8623 338.546 58.1528 338.255 58.1528 337.897H56.855ZM58.1528 346.316C58.1528 345.958 57.8623 345.668 57.5039 345.668C57.1455 345.668 56.855 345.958 56.855 346.316H58.1528ZM56.855 354.736C56.855 355.094 57.1455 355.385 57.5039 355.385C57.8623 355.385 58.1528 355.094 58.1528 354.736H56.855ZM58.1528 363.155C58.1528 362.797 57.8623 362.507 57.5039 362.507C57.1455 362.507 56.855 362.797 56.855 363.155H58.1528ZM56.855 371.575C56.855 371.933 57.1455 372.224 57.5039 372.224C57.8623 372.224 58.1528 371.933 58.1528 371.575H56.855ZM58.1528 379.994C58.1528 379.636 57.8623 379.346 57.5039 379.346C57.1455 379.346 56.855 379.636 56.855 379.994H58.1528ZM56.855 388.414C56.855 388.772 57.1455 389.063 57.5039 389.063C57.8623 389.063 58.1528 388.772 58.1528 388.414H56.855ZM58.1528 396.833C58.1528 396.475 57.8623 396.185 57.5039 396.185C57.1455 396.185 56.855 396.475 56.855 396.833H58.1528ZM56.855 405.253C56.855 405.611 57.1455 405.902 57.5039 405.902C57.8623 405.902 58.1528 405.611 58.1528 405.253H56.855ZM58.1528 413.672C58.1528 413.314 57.8623 413.024 57.5039 413.024C57.1455 413.024 56.855 413.314 56.855 413.672H58.1528ZM56.855 422.092C56.855 422.45 57.1455 422.741 57.5039 422.741C57.8623 422.741 58.1528 422.45 58.1528 422.092H56.855ZM58.1528 430.511C58.1528 430.153 57.8623 429.863 57.5039 429.863C57.1455 429.863 56.855 430.153 56.855 430.511H58.1528ZM56.855 438.931C56.855 439.289 57.1455 439.58 57.5039 439.58C57.8623 439.58 58.1528 439.289 58.1528 438.931H56.855ZM58.1528 447.35C58.1528 446.992 57.8623 446.702 57.5039 446.702C57.1455 446.702 56.855 446.992 56.855 447.35H58.1528ZM56.855 455.77C56.855 456.128 57.1455 456.419 57.5039 456.419C57.8623 456.419 58.1528 456.128 58.1528 455.77H56.855ZM58.1528 464.189C58.1528 463.831 57.8623 463.541 57.5039 463.541C57.1455 463.541 56.855 463.831 56.855 464.189H58.1528ZM57.3969 471.132C57.5342 471.463 57.9138 471.62 58.2448 471.483C58.5759 471.345 58.733 470.966 58.5957 470.635L57.3969 471.132ZM61.7575 473.796C61.4264 473.659 61.0468 473.816 60.9095 474.147C60.7722 474.478 60.9293 474.858 61.2604 474.995L61.7575 473.796ZM68.4265 475.537C68.7848 475.537 69.0754 475.247 69.0754 474.888C69.0754 474.53 68.7848 474.239 68.4265 474.239V475.537ZM77.2939 474.239C76.9355 474.239 76.645 474.53 76.645 474.888C76.645 475.247 76.9355 475.537 77.2939 475.537V474.239ZM86.1613 475.537C86.5197 475.537 86.8102 475.247 86.8102 474.888C86.8102 474.53 86.5197 474.239 86.1613 474.239V475.537ZM95.0287 474.239C94.6704 474.239 94.3798 474.53 94.3798 474.888C94.3798 475.247 94.6704 475.537 95.0287 475.537V474.239ZM103.896 475.537C104.255 475.537 104.545 475.247 104.545 474.888C104.545 474.53 104.255 474.239 103.896 474.239V475.537ZM112.764 474.239C112.405 474.239 112.115 474.53 112.115 474.888C112.115 475.247 112.405 475.537 112.764 475.537V474.239ZM121.631 475.537C121.989 475.537 122.28 475.247 122.28 474.888C122.28 474.53 121.989 474.239 121.631 474.239V475.537ZM130.498 474.239C130.14 474.239 129.85 474.53 129.85 474.888C129.85 475.247 130.14 475.537 130.498 475.537V474.239ZM139.366 475.537C139.724 475.537 140.015 475.247 140.015 474.888C140.015 474.53 139.724 474.239 139.366 474.239V475.537ZM148.233 474.239C147.875 474.239 147.584 474.53 147.584 474.888C147.584 475.247 147.875 475.537 148.233 475.537V474.239ZM157.101 475.537C157.459 475.537 157.75 475.247 157.75 474.888C157.75 474.53 157.459 474.239 157.101 474.239V475.537ZM165.968 474.239C165.61 474.239 165.319 474.53 165.319 474.888C165.319 475.247 165.61 475.537 165.968 475.537V474.239ZM174.835 475.537C175.194 475.537 175.484 475.247 175.484 474.888C175.484 474.53 175.194 474.239 174.835 474.239V475.537ZM183.703 474.239C183.345 474.239 183.054 474.53 183.054 474.888C183.054 475.247 183.345 475.537 183.703 475.537V474.239ZM192.57 475.537C192.929 475.537 193.219 475.247 193.219 474.888C193.219 474.53 192.929 474.239 192.57 474.239V475.537ZM201.438 474.239C201.079 474.239 200.789 474.53 200.789 474.888C200.789 475.247 201.079 475.537 201.438 475.537V474.239ZM207.05 473.765C207.19 473.435 207.036 473.054 206.706 472.914C206.376 472.774 205.995 472.928 205.855 473.258L207.05 473.765ZM207.04 470.507C206.896 470.835 207.046 471.218 207.375 471.361C207.703 471.505 208.086 471.355 208.229 471.026L207.04 470.507ZM208.98 465.806C209.009 465.449 208.743 465.136 208.386 465.107C208.029 465.078 207.716 465.344 207.686 465.701L208.98 465.806ZM208.958 458.407C208.868 458.754 209.077 459.108 209.424 459.198C209.771 459.288 210.125 459.08 210.214 458.733L208.958 458.407ZM212.468 451.876C212.6 451.542 212.436 451.166 212.103 451.034C211.769 450.903 211.393 451.066 211.261 451.4L212.468 451.876ZM214.288 444.693C214.126 445.012 214.254 445.403 214.574 445.565C214.894 445.727 215.284 445.599 215.446 445.279L214.288 444.693ZM218.981 438.95C219.168 438.645 219.071 438.245 218.765 438.058C218.46 437.872 218.06 437.968 217.873 438.274L218.981 438.95ZM221.952 432.156C221.741 432.446 221.804 432.851 222.094 433.063C222.383 433.274 222.789 433.21 223 432.921L221.952 432.156ZM225.333 428.291C225.359 427.933 225.091 427.622 224.734 427.595C224.376 427.569 224.065 427.837 224.039 428.194L225.333 428.291ZM224.703 425.268C224.575 425.603 224.742 425.978 225.077 426.106C225.411 426.234 225.787 426.067 225.915 425.732L224.703 425.268ZM229.965 423.341C230.28 423.169 230.395 422.775 230.223 422.46C230.051 422.146 229.657 422.03 229.342 422.202L229.965 423.341ZM236.123 417.924C235.827 418.127 235.751 418.531 235.954 418.826C236.156 419.122 236.56 419.198 236.856 418.996L236.123 417.924ZM243.462 414.297C243.751 414.085 243.813 413.679 243.601 413.39C243.389 413.101 242.983 413.039 242.694 413.251L243.462 414.297ZM249.155 408.413C248.87 408.63 248.815 409.037 249.032 409.322C249.25 409.607 249.657 409.662 249.942 409.444L249.155 408.413ZM256.222 404.148C256.506 403.929 256.56 403.522 256.342 403.238C256.123 402.953 255.716 402.9 255.432 403.118L256.222 404.148ZM262.736 398.777C262.413 398.931 262.275 399.318 262.429 399.641C262.583 399.965 262.97 400.103 263.294 399.949L262.736 398.777ZM270.991 396.838C271.329 396.72 271.508 396.35 271.391 396.012C271.273 395.673 270.903 395.494 270.565 395.612L270.991 396.838ZM278.612 393.138C278.266 393.233 278.063 393.59 278.158 393.936C278.253 394.281 278.61 394.484 278.956 394.389L278.612 393.138ZM282.987 393.324C283.335 393.237 283.546 392.885 283.46 392.537C283.373 392.19 283.02 391.978 282.673 392.065L282.987 393.324ZM282.674 392.065C282.326 392.152 282.115 392.504 282.202 392.852C282.289 393.199 282.641 393.411 282.989 393.324L282.674 392.065ZM283.633 393.158C283.98 393.068 284.188 392.714 284.098 392.367C284.008 392.02 283.654 391.812 283.307 391.901L283.633 393.158ZM284.574 391.567C284.228 391.662 284.024 392.019 284.119 392.364C284.213 392.71 284.57 392.914 284.916 392.819L284.574 391.567ZM288.872 391.64C289.216 391.537 289.411 391.176 289.308 390.832C289.206 390.489 288.844 390.294 288.501 390.396L288.872 391.64ZM295.13 388.426C294.786 388.527 294.59 388.888 294.692 389.232C294.794 389.576 295.155 389.772 295.498 389.67L295.13 388.426ZM302.129 387.715C302.473 387.614 302.67 387.253 302.569 386.91C302.468 386.566 302.108 386.369 301.764 386.47L302.129 387.715ZM308.402 384.527C308.058 384.627 307.861 384.988 307.961 385.332C308.061 385.676 308.422 385.873 308.766 385.773L308.402 384.527ZM315.755 383.92C316.103 383.836 316.317 383.485 316.233 383.137C316.149 382.788 315.798 382.574 315.45 382.659L315.755 383.92ZM322.844 380.87C322.495 380.954 322.281 381.305 322.366 381.653C322.45 382.002 322.8 382.216 323.149 382.132L322.844 380.87ZM330.543 380.343C330.891 380.259 331.105 379.908 331.021 379.56C330.937 379.212 330.586 378.998 330.238 379.082L330.543 380.343ZM337.632 377.294C337.283 377.378 337.069 377.728 337.154 378.077C337.238 378.425 337.588 378.639 337.937 378.555L337.632 377.294ZM345.568 376.911C345.919 376.838 346.144 376.494 346.071 376.143C345.998 375.792 345.654 375.567 345.303 375.64L345.568 376.911ZM353.087 373.764C352.741 373.858 352.537 374.215 352.632 374.561C352.726 374.907 353.083 375.11 353.428 375.016L353.087 373.764ZM361.164 372.663C361.503 372.549 361.686 372.181 361.572 371.841C361.458 371.501 361.09 371.319 360.75 371.433L361.164 372.663ZM368.233 368.618C367.904 368.759 367.751 369.141 367.892 369.47C368.033 369.799 368.414 369.952 368.744 369.811L368.233 368.618ZM372.019 365.905C371.904 365.565 371.536 365.383 371.197 365.498C370.857 365.613 370.675 365.981 370.79 366.32L372.019 365.905ZM370.073 363.659C370.15 364.009 370.496 364.23 370.846 364.153C371.196 364.076 371.417 363.73 371.34 363.38L370.073 363.659ZM370.834 358.863C370.852 358.506 370.576 358.201 370.218 358.183C369.86 358.165 369.556 358.441 369.538 358.799L370.834 358.863ZM373.828 353.238C373.514 353.41 373.399 353.805 373.572 354.119C373.745 354.433 374.139 354.547 374.453 354.375L373.828 353.238ZM382.3 351.038C382.645 350.941 382.846 350.583 382.749 350.238C382.652 349.893 382.293 349.692 381.948 349.789L382.3 351.038ZM392.542 348.024C392.184 348.047 391.913 348.357 391.937 348.714C391.961 349.072 392.27 349.342 392.627 349.319L392.542 348.024ZM401.695 346.682C401.984 346.471 402.048 346.065 401.837 345.776C401.626 345.486 401.22 345.422 400.931 345.633L401.695 346.682ZM407.805 340.633C407.516 340.844 407.451 341.25 407.662 341.54C407.872 341.83 408.278 341.894 408.568 341.683L407.805 340.633ZM415.458 336.683C415.748 336.472 415.813 336.067 415.603 335.777C415.392 335.486 414.986 335.422 414.696 335.632L415.458 336.683ZM421.583 330.645C421.292 330.855 421.227 331.261 421.437 331.551C421.647 331.842 422.053 331.907 422.343 331.697L421.583 330.645ZM429.238 326.718C429.529 326.508 429.595 326.102 429.385 325.812C429.175 325.521 428.77 325.455 428.479 325.665L429.238 326.718ZM435.384 320.695C435.093 320.904 435.026 321.31 435.236 321.601C435.445 321.892 435.85 321.958 436.141 321.749L435.384 320.695ZM443.056 316.797C443.347 316.589 443.415 316.183 443.207 315.892C442.999 315.6 442.593 315.532 442.302 315.741L443.056 316.797ZM449.227 310.819C448.935 311.026 448.865 311.431 449.072 311.724C449.278 312.016 449.683 312.086 449.976 311.879L449.227 310.819ZM457.229 307.078C457.535 306.89 457.63 306.49 457.442 306.185C457.255 305.88 456.855 305.785 456.55 305.972L457.229 307.078ZM464.293 301.341C463.983 301.521 463.878 301.918 464.058 302.228C464.238 302.538 464.635 302.643 464.945 302.463L464.293 301.341ZM472.775 298.048C473.09 297.877 473.206 297.482 473.034 297.168C472.862 296.853 472.468 296.737 472.154 296.909L472.775 298.048ZM480.151 292.718C479.831 292.879 479.701 293.269 479.861 293.589C480.022 293.909 480.412 294.039 480.732 293.878L480.151 292.718ZM488.844 290.048C489.172 289.903 489.32 289.52 489.176 289.192C489.032 288.864 488.649 288.716 488.321 288.86L488.844 290.048ZM496.742 285.524C496.404 285.641 496.223 286.01 496.34 286.349C496.456 286.688 496.826 286.868 497.164 286.751L496.742 285.524ZM504.807 284.589C505.156 284.506 505.371 284.156 505.287 283.807C505.204 283.459 504.854 283.244 504.505 283.327L504.807 284.589ZM511.377 281.801C511.027 281.874 510.801 282.218 510.874 282.569C510.947 282.92 511.291 283.145 511.642 283.072L511.377 281.801ZM518.518 281.709C518.87 281.643 519.102 281.303 519.035 280.951C518.968 280.599 518.629 280.367 518.277 280.434L518.518 281.709ZM525.191 279.17C524.838 279.233 524.603 279.569 524.665 279.922C524.727 280.275 525.064 280.51 525.417 280.448L525.191 279.17ZM529.412 274.996C529.412 274.637 529.121 274.347 528.763 274.347C528.404 274.347 528.114 274.637 528.114 274.996H529.412ZM528.114 266.573C528.114 266.932 528.404 267.222 528.763 267.222C529.121 267.222 529.412 266.932 529.412 266.573H528.114ZM529.412 258.151C529.412 257.792 529.121 257.502 528.763 257.502C528.404 257.502 528.114 257.792 528.114 258.151H529.412ZM528.114 249.728C528.114 250.087 528.404 250.377 528.763 250.377C529.121 250.377 529.412 250.087 529.412 249.728H528.114ZM529.412 241.306C529.412 240.947 529.121 240.657 528.763 240.657C528.404 240.657 528.114 240.947 528.114 241.306H529.412ZM528.114 232.883C528.114 233.242 528.404 233.532 528.763 233.532C529.121 233.532 529.412 233.242 529.412 232.883H528.114ZM529.412 224.461C529.412 224.102 529.121 223.812 528.763 223.812C528.404 223.812 528.114 224.102 528.114 224.461H529.412ZM528.114 216.038C528.114 216.397 528.404 216.687 528.763 216.687C529.121 216.687 529.412 216.397 529.412 216.038H528.114ZM529.412 207.616C529.412 207.257 529.121 206.967 528.763 206.967C528.404 206.967 528.114 207.257 528.114 207.616H529.412ZM528.114 199.193C528.114 199.552 528.404 199.842 528.763 199.842C529.121 199.842 529.412 199.552 529.412 199.193H528.114ZM529.412 190.771C529.412 190.412 529.121 190.122 528.763 190.122C528.404 190.122 528.114 190.412 528.114 190.771H529.412ZM528.114 182.348C528.114 182.707 528.404 182.997 528.763 182.997C529.121 182.997 529.412 182.707 529.412 182.348H528.114ZM529.412 173.926C529.412 173.567 529.121 173.277 528.763 173.277C528.404 173.277 528.114 173.567 528.114 173.926H529.412ZM528.114 165.503C528.114 165.862 528.404 166.152 528.763 166.152C529.121 166.152 529.412 165.862 529.412 165.503H528.114ZM529.412 157.081C529.412 156.722 529.121 156.432 528.763 156.432C528.404 156.432 528.114 156.722 528.114 157.081H529.412ZM528.114 148.658C528.114 149.017 528.404 149.307 528.763 149.307C529.121 149.307 529.412 149.017 529.412 148.658H528.114ZM529.412 140.236C529.412 139.878 529.121 139.587 528.763 139.587C528.404 139.587 528.114 139.878 528.114 140.236H529.412ZM528.114 131.813C528.114 132.172 528.404 132.462 528.763 132.462C529.121 132.462 529.412 132.172 529.412 131.813H528.114ZM527.838 127.15C527.481 127.18 527.216 127.494 527.246 127.851C527.276 128.209 527.59 128.474 527.948 128.443L527.838 127.15ZM525.862 128.027C526.18 128.193 526.572 128.069 526.738 127.752C526.903 127.434 526.78 127.042 526.462 126.876L525.862 128.027ZM523.348 124.115C523.086 123.872 522.675 123.887 522.431 124.15C522.188 124.412 522.203 124.823 522.466 125.067L523.348 124.115ZM517.41 120.377C517.673 120.62 518.083 120.605 518.327 120.342C518.571 120.079 518.555 119.669 518.292 119.425L517.41 120.377ZM513.237 114.735C512.974 114.491 512.563 114.507 512.32 114.769C512.076 115.032 512.091 115.443 512.354 115.686L513.237 114.735ZM507.298 110.996C507.561 111.24 507.971 111.225 508.215 110.962C508.459 110.699 508.443 110.289 508.181 110.045L507.298 110.996ZM505.038 106.836C504.895 106.507 504.513 106.357 504.184 106.5C503.856 106.643 503.705 107.026 503.848 107.354L505.038 106.836ZM503.848 104.24C503.705 104.568 503.856 104.951 504.184 105.094C504.513 105.237 504.895 105.087 505.038 104.758L503.848 104.24ZM508.181 101.549C508.443 101.305 508.459 100.895 508.215 100.632C507.971 100.369 507.561 100.354 507.298 100.598L508.181 101.549ZM512.354 95.9074C512.091 96.1512 512.076 96.5617 512.32 96.8245C512.563 97.0872 512.974 97.1026 513.237 96.8589L512.354 95.9074ZM518.292 92.1687C518.555 91.925 518.571 91.5144 518.327 91.2517C518.083 90.989 517.673 90.9736 517.41 91.2173L518.292 92.1687ZM522.466 86.5272C522.203 86.7709 522.188 87.1815 522.431 87.4442C522.675 87.7069 523.086 87.7223 523.348 87.4786L522.466 86.5272ZM526.462 84.7175C526.78 84.5519 526.903 84.16 526.738 83.8422C526.572 83.5244 526.18 83.4011 525.862 83.5667L526.462 84.7175ZM527.948 83.1505C527.59 83.1203 527.276 83.3853 527.246 83.7424C527.216 84.0995 527.481 84.4134 527.838 84.4436L527.948 83.1505ZM529.412 79.0596C529.412 78.7012 529.121 78.4107 528.763 78.4107C528.404 78.4107 528.114 78.7012 528.114 79.0596H529.412ZM528.114 69.1954C528.114 69.5538 528.404 69.8443 528.763 69.8443C529.121 69.8443 529.412 69.5538 529.412 69.1954H528.114ZM528.87 61.5309C528.733 61.1998 528.353 61.0428 528.022 61.18C527.691 61.3173 527.534 61.6969 527.671 62.028L528.87 61.5309ZM524.509 58.8662C524.84 59.0035 525.22 58.8464 525.357 58.5153C525.495 58.1843 525.337 57.8047 525.006 57.6674L524.509 58.8662ZM518.031 57.1255C517.672 57.1255 517.382 57.416 517.382 57.7744C517.382 58.1328 517.672 58.4233 518.031 58.4233V57.1255ZM509.544 58.4233C509.902 58.4233 510.193 58.1328 510.193 57.7744C510.193 57.416 509.902 57.1255 509.544 57.1255V58.4233ZM501.057 57.1255C500.699 57.1255 500.408 57.416 500.408 57.7744C500.408 58.1328 500.699 58.4233 501.057 58.4233V57.1255ZM492.571 58.4233C492.929 58.4233 493.219 58.1328 493.219 57.7744C493.219 57.416 492.929 57.1255 492.571 57.1255V58.4233ZM484.084 57.1255C483.726 57.1255 483.435 57.416 483.435 57.7744C483.435 58.1328 483.726 58.4233 484.084 58.4233V57.1255ZM475.597 58.4233C475.956 58.4233 476.246 58.1328 476.246 57.7744C476.246 57.416 475.956 57.1255 475.597 57.1255V58.4233ZM467.111 57.1255C466.752 57.1255 466.462 57.416 466.462 57.7744C466.462 58.1328 466.752 58.4233 467.111 58.4233V57.1255ZM458.624 58.4233C458.982 58.4233 459.273 58.1328 459.273 57.7744C459.273 57.416 458.982 57.1255 458.624 57.1255V58.4233ZM450.137 57.1255C449.779 57.1255 449.488 57.416 449.488 57.7744C449.488 58.1328 449.779 58.4233 450.137 58.4233V57.1255ZM441.65 58.4233C442.009 58.4233 442.299 58.1328 442.299 57.7744C442.299 57.416 442.009 57.1255 441.65 57.1255V58.4233ZM433.164 57.1255C432.805 57.1255 432.515 57.416 432.515 57.7744C432.515 58.1328 432.805 58.4233 433.164 58.4233V57.1255ZM424.677 58.4233C425.035 58.4233 425.326 58.1328 425.326 57.7744C425.326 57.416 425.035 57.1255 424.677 57.1255V58.4233ZM416.19 57.1255C415.832 57.1255 415.541 57.416 415.541 57.7744C415.541 58.1328 415.832 58.4233 416.19 58.4233V57.1255ZM407.704 58.4233C408.062 58.4233 408.353 58.1328 408.353 57.7744C408.353 57.416 408.062 57.1255 407.704 57.1255V58.4233ZM399.217 57.1255C398.859 57.1255 398.568 57.416 398.568 57.7744C398.568 58.1328 398.859 58.4233 399.217 58.4233V57.1255ZM390.73 58.4233C391.089 58.4233 391.379 58.1328 391.379 57.7744C391.379 57.416 391.089 57.1255 390.73 57.1255V58.4233ZM382.244 57.1255C381.885 57.1255 381.595 57.416 381.595 57.7744C381.595 58.1328 381.885 58.4233 382.244 58.4233V57.1255ZM373.757 58.4233C374.115 58.4233 374.406 58.1328 374.406 57.7744C374.406 57.416 374.115 57.1255 373.757 57.1255V58.4233ZM365.27 57.1255C364.912 57.1255 364.621 57.416 364.621 57.7744C364.621 58.1328 364.912 58.4233 365.27 58.4233V57.1255ZM356.784 58.4233C357.142 58.4233 357.432 58.1328 357.432 57.7744C357.432 57.416 357.142 57.1255 356.784 57.1255V58.4233ZM348.297 57.1255C347.938 57.1255 347.648 57.416 347.648 57.7744C347.648 58.1328 347.938 58.4233 348.297 58.4233V57.1255ZM339.81 58.4233C340.169 58.4233 340.459 58.1328 340.459 57.7744C340.459 57.416 340.169 57.1255 339.81 57.1255V58.4233ZM331.323 57.1255C330.965 57.1255 330.675 57.416 330.675 57.7744C330.675 58.1328 330.965 58.4233 331.323 58.4233V57.1255ZM322.837 58.4233C323.195 58.4233 323.486 58.1328 323.486 57.7744C323.486 57.416 323.195 57.1255 322.837 57.1255V58.4233ZM314.35 57.1255C313.992 57.1255 313.701 57.416 313.701 57.7744C313.701 58.1328 313.992 58.4233 314.35 58.4233V57.1255ZM305.863 58.4233C306.222 58.4233 306.512 58.1328 306.512 57.7744C306.512 57.416 306.222 57.1255 305.863 57.1255V58.4233ZM297.377 57.1255C297.018 57.1255 296.728 57.416 296.728 57.7744C296.728 58.1328 297.018 58.4233 297.377 58.4233V57.1255ZM288.89 58.4233C289.248 58.4233 289.539 58.1328 289.539 57.7744C289.539 57.416 289.248 57.1255 288.89 57.1255V58.4233ZM280.403 57.1255C280.045 57.1255 279.754 57.416 279.754 57.7744C279.754 58.1328 280.045 58.4233 280.403 58.4233V57.1255ZM271.917 58.4233C272.275 58.4233 272.565 58.1328 272.565 57.7744C272.565 57.416 272.275 57.1255 271.917 57.1255V58.4233ZM263.43 57.1255C263.072 57.1255 262.781 57.416 262.781 57.7744C262.781 58.1328 263.072 58.4233 263.43 58.4233V57.1255ZM254.943 58.4233C255.302 58.4233 255.592 58.1328 255.592 57.7744C255.592 57.416 255.302 57.1255 254.943 57.1255V58.4233ZM246.457 57.1255C246.098 57.1255 245.808 57.416 245.808 57.7744C245.808 58.1328 246.098 58.4233 246.457 58.4233V57.1255ZM237.97 58.4233C238.328 58.4233 238.619 58.1328 238.619 57.7744C238.619 57.416 238.328 57.1255 237.97 57.1255V58.4233ZM229.483 57.1255C229.125 57.1255 228.834 57.416 228.834 57.7744C228.834 58.1328 229.125 58.4233 229.483 58.4233V57.1255ZM220.996 58.4233C221.355 58.4233 221.645 58.1328 221.645 57.7744C221.645 57.416 221.355 57.1255 220.996 57.1255V58.4233ZM212.51 57.1255C212.151 57.1255 211.861 57.416 211.861 57.7744C211.861 58.1328 212.151 58.4233 212.51 58.4233V57.1255ZM204.023 58.4233C204.381 58.4233 204.672 58.1328 204.672 57.7744C204.672 57.416 204.381 57.1255 204.023 57.1255V58.4233ZM195.536 57.1255C195.178 57.1255 194.887 57.416 194.887 57.7744C194.887 58.1328 195.178 58.4233 195.536 58.4233V57.1255ZM187.05 58.4233C187.408 58.4233 187.699 58.1328 187.699 57.7744C187.699 57.416 187.408 57.1255 187.05 57.1255V58.4233ZM178.563 57.1255C178.205 57.1255 177.914 57.416 177.914 57.7744C177.914 58.1328 178.205 58.4233 178.563 58.4233V57.1255ZM170.076 58.4233C170.435 58.4233 170.725 58.1328 170.725 57.7744C170.725 57.416 170.435 57.1255 170.076 57.1255V58.4233ZM161.59 57.1255C161.231 57.1255 160.941 57.416 160.941 57.7744C160.941 58.1328 161.231 58.4233 161.59 58.4233V57.1255ZM153.103 58.4233C153.461 58.4233 153.752 58.1328 153.752 57.7744C153.752 57.416 153.461 57.1255 153.103 57.1255V58.4233ZM144.616 57.1255C144.258 57.1255 143.967 57.416 143.967 57.7744C143.967 58.1328 144.258 58.4233 144.616 58.4233V57.1255ZM136.129 58.4233C136.488 58.4233 136.778 58.1328 136.778 57.7744C136.778 57.416 136.488 57.1255 136.129 57.1255V58.4233ZM127.643 57.1255C127.284 57.1255 126.994 57.416 126.994 57.7744C126.994 58.1328 127.284 58.4233 127.643 58.4233V57.1255ZM119.156 58.4233C119.514 58.4233 119.805 58.1328 119.805 57.7744C119.805 57.416 119.514 57.1255 119.156 57.1255V58.4233ZM110.669 57.1255C110.311 57.1255 110.021 57.416 110.021 57.7744C110.021 58.1328 110.311 58.4233 110.669 58.4233V57.1255ZM102.183 58.4233C102.541 58.4233 102.832 58.1328 102.832 57.7744C102.832 57.416 102.541 57.1255 102.183 57.1255V58.4233ZM93.696 57.1255C93.3376 57.1255 93.0471 57.416 93.0471 57.7744C93.0471 58.1328 93.3376 58.4233 93.696 58.4233V57.1255ZM85.2093 58.4233C85.5677 58.4233 85.8582 58.1328 85.8582 57.7744C85.8582 57.416 85.5677 57.1255 85.2093 57.1255V58.4233ZM76.7226 57.1255C76.3643 57.1255 76.0737 57.416 76.0737 57.7744C76.0737 58.1328 76.3643 58.4233 76.7226 58.4233V57.1255ZM68.2359 58.4233C68.5943 58.4233 68.8848 58.1328 68.8848 57.7744C68.8848 57.416 68.5943 57.1255 68.2359 57.1255V58.4233ZM63.9928 57.1255C63.0261 57.1255 62.1029 57.318 61.2604 57.6674L61.7575 58.8662C62.4452 58.581 63.1997 58.4233 63.9928 58.4233V57.1255ZM57.3969 61.5309C57.0475 62.3734 56.855 63.2967 56.855 64.2633H58.1528C58.1528 63.4702 58.3105 62.7157 58.5957 62.028L57.3969 61.5309ZM56.855 64.2633V68.473H58.1528V64.2633H56.855ZM56.855 76.8925V85.312H58.1528V76.8925H56.855ZM56.855 93.7315V102.151H58.1528V93.7315H56.855ZM56.855 110.571V118.99H58.1528V110.571H56.855ZM56.855 127.41V135.829H58.1528V127.41H56.855ZM56.855 144.249V152.668H58.1528V144.249H56.855ZM56.855 161.088V169.507H58.1528V161.088H56.855ZM56.855 177.927V186.346H58.1528V177.927H56.855ZM56.855 194.766V203.185H58.1528V194.766H56.855ZM56.855 211.605V220.024H58.1528V211.605H56.855ZM56.855 228.444V236.863H58.1528V228.444H56.855ZM56.855 245.283V253.702H58.1528V245.283H56.855ZM56.855 262.122V270.541H58.1528V262.122H56.855ZM56.855 278.96V287.38H58.1528V278.96H56.855ZM56.855 295.799V304.219H58.1528V295.799H56.855ZM56.855 312.638V321.058H58.1528V312.638H56.855ZM56.855 329.477V337.897H58.1528V329.477H56.855ZM56.855 346.316V354.736H58.1528V346.316H56.855ZM56.855 363.155V371.575H58.1528V363.155H56.855ZM56.855 379.994V388.414H58.1528V379.994H56.855ZM56.855 396.833V405.253H58.1528V396.833H56.855ZM56.855 413.672V422.092H58.1528V413.672H56.855ZM56.855 430.511V438.931H58.1528V430.511H56.855ZM56.855 447.35V455.77H58.1528V447.35H56.855ZM56.855 464.189V468.399H58.1528V464.189H56.855ZM56.855 468.399C56.855 469.366 57.0475 470.289 57.3969 471.132L58.5957 470.635C58.3105 469.947 58.1528 469.192 58.1528 468.399H56.855ZM61.2604 474.995C62.1028 475.345 63.0261 475.537 63.9928 475.537V474.239C63.1997 474.239 62.4451 474.082 61.7575 473.796L61.2604 474.995ZM63.9928 475.537H68.4265V474.239H63.9928V475.537ZM77.2939 475.537H86.1613V474.239H77.2939V475.537ZM95.0287 475.537H103.896V474.239H95.0287V475.537ZM112.764 475.537H121.631V474.239H112.764V475.537ZM130.498 475.537H139.366V474.239H130.498V475.537ZM148.233 475.537H157.101V474.239H148.233V475.537ZM165.968 475.537H174.835V474.239H165.968V475.537ZM183.703 475.537H192.57V474.239H183.703V475.537ZM201.438 475.537H205.871V474.239H201.438V475.537ZM206.47 475.139C206.665 474.673 206.859 474.214 207.05 473.765L205.855 473.258C205.664 473.708 205.469 474.169 205.273 474.638L206.47 475.139ZM208.229 471.026C208.441 470.542 208.642 470.085 208.83 469.662L207.643 469.136C207.455 469.561 207.252 470.02 207.04 470.507L208.229 471.026ZM208.885 469.378C208.847 468.203 208.882 467.01 208.98 465.806L207.686 465.701C207.584 466.949 207.548 468.191 207.588 469.42L208.885 469.378ZM210.214 458.733C210.813 456.423 211.583 454.123 212.468 451.876L211.261 451.4C210.359 453.688 209.571 456.039 208.958 458.407L210.214 458.733ZM215.446 445.279C216.583 443.035 217.786 440.907 218.981 438.95L217.873 438.274C216.662 440.257 215.443 442.415 214.288 444.693L215.446 445.279ZM223 432.921C223.795 431.832 224.538 430.872 225.203 430.064L224.2 429.24C223.518 430.07 222.759 431.049 221.952 432.156L223 432.921ZM225.347 429.586C225.303 429.147 225.302 428.712 225.333 428.291L224.039 428.194C224.002 428.684 224.003 429.195 224.056 429.717L225.347 429.586ZM225.915 425.732C226.115 425.21 226.322 424.811 226.469 424.579L225.373 423.885C225.172 424.202 224.928 424.68 224.703 425.268L225.915 425.732ZM225.921 424.881C226.418 424.881 227.021 424.709 227.667 424.453C228.329 424.191 229.103 423.812 229.965 423.341L229.342 422.202C228.506 422.66 227.783 423.011 227.189 423.247C226.578 423.489 226.164 423.583 225.921 423.583V424.881ZM236.856 418.996C238.918 417.586 241.152 415.991 243.462 414.297L242.694 413.251C240.392 414.939 238.17 416.525 236.123 417.924L236.856 418.996ZM249.942 409.444C251.016 408.625 252.089 407.801 253.15 406.979L252.356 405.953C251.297 406.773 250.227 407.595 249.155 408.413L249.942 409.444ZM253.241 406.894C254.088 405.929 255.093 405.014 256.222 404.148L255.432 403.118C254.25 404.025 253.179 404.997 252.265 406.038L253.241 406.894ZM263.294 399.949C265.792 398.76 268.428 397.727 270.991 396.838L270.565 395.612C267.971 396.512 265.288 397.563 262.736 398.777L263.294 399.949ZM278.956 394.389C280.493 393.967 281.864 393.614 282.992 393.323L282.668 392.067C281.54 392.357 280.16 392.713 278.612 393.138L278.956 394.389ZM282.987 393.324L282.987 393.324L282.673 392.065L282.672 392.065L282.987 393.324ZM282.989 393.324L282.989 393.324L282.674 392.065L282.674 392.065L282.989 393.324ZM282.994 393.323C283.216 393.265 283.43 393.21 283.633 393.158L283.307 391.901C283.105 391.954 282.892 392.009 282.67 392.066L282.994 393.323ZM284.916 392.819C285.162 392.752 285.381 392.69 285.567 392.633L285.19 391.392C285.02 391.443 284.814 391.502 284.574 391.567L284.916 392.819ZM285.567 392.633C286.212 392.437 287.341 392.097 288.872 391.64L288.501 390.396C286.969 390.854 285.838 391.195 285.19 391.392L285.567 392.633ZM295.498 389.67C297.499 389.078 299.726 388.421 302.129 387.715L301.764 386.47C299.359 387.176 297.131 387.833 295.13 388.426L295.498 389.67ZM308.766 385.773C309.852 385.456 310.96 385.134 312.086 384.807L311.724 383.56C310.597 383.888 309.489 384.21 308.402 384.527L308.766 385.773ZM312.058 384.814L315.755 383.92L315.45 382.659L311.753 383.553L312.058 384.814ZM323.149 382.132L330.543 380.343L330.238 379.082L322.844 380.87L323.149 382.132ZM337.937 378.555L341.634 377.661L341.329 376.399L337.632 377.294L337.937 378.555ZM341.592 377.669C342.933 377.438 344.261 377.183 345.568 376.911L345.303 375.64C344.01 375.91 342.697 376.161 341.371 376.391L341.592 377.669ZM353.428 375.016C356.227 374.252 358.834 373.447 361.164 372.663L360.75 371.433C358.443 372.209 355.859 373.007 353.087 373.764L353.428 375.016ZM368.744 369.811C369.93 369.303 370.863 368.861 371.486 368.519C371.792 368.351 372.05 368.193 372.229 368.053C372.31 367.989 372.424 367.891 372.508 367.763C372.55 367.699 372.62 367.575 372.633 367.407C372.648 367.207 372.577 367.006 372.428 366.859L371.516 367.783C371.388 367.656 371.325 367.48 371.339 367.308C371.349 367.169 371.405 367.078 371.423 367.051C371.458 366.998 371.48 366.99 371.426 367.033C371.335 367.105 371.153 367.221 370.862 367.381C370.292 367.694 369.402 368.118 368.233 368.618L368.744 369.811ZM372.428 366.859C372.433 366.864 372.381 366.803 372.289 366.604C372.206 366.425 372.115 366.189 372.019 365.905L370.79 366.32C370.894 366.628 371.002 366.912 371.111 367.148C371.21 367.364 371.342 367.611 371.516 367.783L372.428 366.859ZM371.34 363.38C371.24 362.924 371.153 362.483 371.087 362.094L369.808 362.31C369.877 362.723 369.968 363.185 370.073 363.659L371.34 363.38ZM371.089 362.105C370.884 360.753 370.792 359.71 370.834 358.863L369.538 358.799C369.489 359.777 369.597 360.921 369.806 362.299L371.089 362.105ZM374.453 354.375C375.282 353.919 376.268 353.427 377.443 352.847L376.868 351.683C375.697 352.262 374.686 352.766 373.828 353.238L374.453 354.375ZM377.443 352.847C378.883 352.136 380.54 351.535 382.3 351.038L381.948 349.789C380.133 350.301 378.398 350.928 376.868 351.683L377.443 352.847ZM392.627 349.319C394.632 349.186 396.434 349.185 397.837 349.299L397.941 348.005C396.459 347.886 394.591 347.888 392.542 348.024L392.627 349.319ZM397.889 348.652C398.272 349.176 398.272 349.176 398.272 349.176C398.272 349.176 398.272 349.176 398.272 349.176C398.272 349.176 398.272 349.176 398.272 349.176C398.272 349.176 398.272 349.176 398.273 349.175C398.273 349.175 398.274 349.174 398.275 349.173C398.278 349.172 398.281 349.169 398.286 349.165C398.296 349.158 398.311 349.148 398.33 349.134C398.369 349.105 398.426 349.063 398.502 349.008C398.654 348.897 398.879 348.733 399.172 348.52C399.757 348.093 400.613 347.47 401.695 346.682L400.931 345.633C399.849 346.421 398.993 347.044 398.407 347.471C398.115 347.684 397.889 347.849 397.738 347.959C397.662 348.015 397.604 348.057 397.565 348.085C397.546 348.099 397.531 348.11 397.521 348.117C397.517 348.12 397.513 348.123 397.51 348.125C397.509 348.126 397.508 348.126 397.508 348.127C397.507 348.127 397.507 348.127 397.507 348.127C397.507 348.127 397.507 348.127 397.507 348.128C397.507 348.128 397.507 348.128 397.507 348.128C397.507 348.128 397.507 348.128 397.889 348.652ZM408.568 341.683C410.659 340.164 412.984 338.477 415.458 336.683L414.696 335.632C412.222 337.426 409.897 339.114 407.805 340.633L408.568 341.683ZM422.343 331.697C424.604 330.062 426.918 328.39 429.238 326.718L428.479 325.665C426.159 327.338 423.843 329.01 421.583 330.645L422.343 331.697ZM436.141 321.749C438.513 320.046 440.837 318.381 443.056 316.797L442.302 315.741C440.082 317.326 437.757 318.991 435.384 320.695L436.141 321.749ZM449.976 311.879C451.208 311.009 452.371 310.191 453.449 309.436L452.706 308.373C451.625 309.129 450.461 309.948 449.227 310.819L449.976 311.879ZM453.425 309.453C454.527 308.754 455.806 307.953 457.229 307.078L456.55 305.972C455.121 306.851 453.837 307.655 452.73 308.357L453.425 309.453ZM464.945 302.463C467.407 301.032 470.044 299.538 472.775 298.048L472.154 296.909C469.411 298.405 466.763 299.904 464.293 301.341L464.945 302.463ZM480.732 293.878C483.446 292.519 486.173 291.223 488.844 290.048L488.321 288.86C485.627 290.046 482.88 291.351 480.151 292.718L480.732 293.878ZM497.164 286.751C498.638 286.245 500.061 285.804 501.42 285.442L501.086 284.188C499.693 284.56 498.24 285.009 496.742 285.524L497.164 286.751ZM501.42 285.442C502.477 285.161 503.61 284.876 504.807 284.589L504.505 283.327C503.299 283.616 502.156 283.903 501.086 284.188L501.42 285.442ZM511.642 283.072C513.837 282.615 516.143 282.159 518.518 281.709L518.277 280.434C515.896 280.886 513.581 281.343 511.377 281.801L511.642 283.072ZM525.417 280.448C526.564 280.245 527.718 280.045 528.873 279.847L528.653 278.567C527.496 278.766 526.341 278.967 525.191 279.17L525.417 280.448ZM529.412 279.207V274.996H528.114V279.207H529.412ZM529.412 266.573V258.151H528.114V266.573H529.412ZM529.412 249.728V241.306H528.114V249.728H529.412ZM529.412 232.883V224.461H528.114V232.883H529.412ZM529.412 216.038V207.616H528.114V216.038H529.412ZM529.412 199.193V190.771H528.114V199.193H529.412ZM529.412 182.348V173.926H528.114V182.348H529.412ZM529.412 165.503V157.081H528.114V165.503H529.412ZM529.412 148.658V140.236H528.114V148.658H529.412ZM529.412 131.813V127.602H528.114V131.813H529.412ZM528.537 126.994C528.312 127.077 528.077 127.13 527.838 127.15L527.948 128.443C528.305 128.413 528.655 128.334 528.988 128.211L528.537 126.994ZM526.462 126.876C526.26 126.771 526.063 126.634 525.876 126.46L524.994 127.412C525.264 127.663 525.556 127.868 525.862 128.027L526.462 126.876ZM525.876 126.46L523.348 124.115L522.466 125.067L524.994 127.412L525.876 126.46ZM518.292 119.425L513.237 114.735L512.354 115.686L517.41 120.377L518.292 119.425ZM508.181 110.045L505.653 107.7L504.77 108.651L507.298 110.996L508.181 110.045ZM505.653 107.7C505.38 107.447 505.176 107.152 505.038 106.836L503.848 107.354C504.056 107.831 504.364 108.275 504.77 108.651L505.653 107.7ZM505.038 104.758C505.176 104.442 505.38 104.147 505.653 103.894L504.77 102.943C504.364 103.319 504.056 103.762 503.848 104.24L505.038 104.758ZM505.653 103.894L508.181 101.549L507.298 100.598L504.77 102.943L505.653 103.894ZM513.237 96.8589L518.292 92.1687L517.41 91.2173L512.354 95.9074L513.237 96.8589ZM523.348 87.4786L525.876 85.1335L524.994 84.1821L522.466 86.5272L523.348 87.4786ZM525.876 85.1335C526.063 84.9602 526.26 84.8229 526.462 84.7175L525.862 83.5667C525.556 83.7263 525.264 83.9309 524.994 84.1821L525.876 85.1335ZM527.838 84.4436C528.077 84.4638 528.312 84.5169 528.537 84.6002L528.988 83.3832C528.655 83.2599 528.305 83.1807 527.948 83.1505L527.838 84.4436ZM529.412 83.9917V79.0596H528.114V83.9917H529.412ZM529.412 69.1954V64.2633H528.114V69.1954H529.412ZM529.412 64.2633C529.412 63.2967 529.219 62.3734 528.87 61.5309L527.671 62.028C527.956 62.7157 528.114 63.4702 528.114 64.2633H529.412ZM525.006 57.6674C524.164 57.318 523.241 57.1255 522.274 57.1255V58.4233C523.067 58.4233 523.822 58.581 524.509 58.8662L525.006 57.6674ZM522.274 57.1255H518.031V58.4233H522.274V57.1255ZM509.544 57.1255H501.057V58.4233H509.544V57.1255ZM492.571 57.1255H484.084V58.4233H492.571V57.1255ZM475.597 57.1255H467.111V58.4233H475.597V57.1255ZM458.624 57.1255H450.137V58.4233H458.624V57.1255ZM441.65 57.1255H433.164V58.4233H441.65V57.1255ZM424.677 57.1255H416.19V58.4233H424.677V57.1255ZM407.704 57.1255H399.217V58.4233H407.704V57.1255ZM390.73 57.1255H382.244V58.4233H390.73V57.1255ZM373.757 57.1255H365.27V58.4233H373.757V57.1255ZM356.784 57.1255H348.297V58.4233H356.784V57.1255ZM339.81 57.1255H331.323V58.4233H339.81V57.1255ZM322.837 57.1255H314.35V58.4233H322.837V57.1255ZM305.863 57.1255H297.377V58.4233H305.863V57.1255ZM288.89 57.1255H280.403V58.4233H288.89V57.1255ZM271.917 57.1255H263.43V58.4233H271.917V57.1255ZM254.943 57.1255H246.457V58.4233H254.943V57.1255ZM237.97 57.1255H229.483V58.4233H237.97V57.1255ZM220.996 57.1255H212.51V58.4233H220.996V57.1255ZM204.023 57.1255H195.536V58.4233H204.023V57.1255ZM187.05 57.1255H178.563V58.4233H187.05V57.1255ZM170.076 57.1255H161.59V58.4233H170.076V57.1255ZM153.103 57.1255H144.616V58.4233H153.103V57.1255ZM136.129 57.1255H127.643V58.4233H136.129V57.1255ZM119.156 57.1255H110.669V58.4233H119.156V57.1255ZM102.183 57.1255H93.696V58.4233H102.183V57.1255ZM85.2093 57.1255H76.7226V58.4233H85.2093V57.1255ZM68.2359 57.1255H63.9928V58.4233H68.2359V57.1255Z" fill="#E5E5E5"/>
<g filter="url(#filter1_f)">
<path d="M469.385 306.4C452.31 318.345 408.275 349.948 408.275 349.948C403.295 349.546 393.64 350.55 387.542 353.561C381.105 356.739 379.919 357.476 380.834 363.498C381.139 365.305 381.87 368.135 382.358 368.617C382.88 369.133 368.408 375.467 351.867 378.326L322.291 385.479M295.764 393.308C291.801 394.513 271.067 398.728 263.139 407.762C251.858 416.494 239.356 425.528 236.307 425.528C235.799 426.331 234.844 428.539 235.088 430.948C229.396 437.873 206.961 467.488 207.449 482.664M295.764 393.308C298.405 392.506 309.087 389.315 322.291 385.479M295.764 393.308L322.291 385.479" stroke="black" stroke-opacity="0.6" stroke-width="3.89332"/>
</g>
<g filter="url(#filter2_f)">
<path d="M476.525 309.641C459.45 321.585 415.415 353.188 415.415 353.188C410.435 352.787 400.78 353.79 394.682 356.801C388.245 359.98 387.059 360.716 387.974 366.738C388.278 368.545 389.01 371.375 389.498 371.857C390.02 372.373 375.547 378.707 359.007 381.566L329.431 388.72M302.904 396.549C298.94 397.753 272.177 403.32 264.25 412.353C252.968 421.085 236.139 433.414 233.09 433.414C232.582 434.217 231.873 437.161 232.117 439.57C226.425 446.496 214.101 466.84 214.589 482.016M302.904 396.549C305.545 395.746 316.227 392.556 329.431 388.72M302.904 396.549L329.431 388.72" stroke="black" stroke-opacity="0.6" stroke-width="2.59555"/>
</g>
<defs>
<filter id="filter0_d" x="0.210747" y="0.502739" width="585.844" height="531.658" filterUnits="userSpaceOnUse" color-interpolation-filters="sRGB">
<feFlood flood-opacity="0" result="BackgroundImageFix"/>
<feColorMatrix in="SourceAlpha" type="matrix" values="0 0 0 0 0 0 0 0 0 0 0 0 0 0 0 0 0 0 127 0"/>
<feOffset/>
<feGaussianBlur stdDeviation="22.711"/>
<feColorMatrix type="matrix" values="0 0 0 0 0 0 0 0 0 0 0 0 0 0 0 0 0 0 0.3 0"/>
<feBlend mode="normal" in2="BackgroundImageFix" result="effect1_dropShadow"/>
<feBlend mode="normal" in="SourceGraphic" in2="effect1_dropShadow" result="shape"/>
</filter>
<filter id="filter1_f" x="182.784" y="282.095" width="310.428" height="223.343" filterUnits="userSpaceOnUse" color-interpolation-filters="sRGB">
<feFlood flood-opacity="0" result="BackgroundImageFix"/>
<feBlend mode="normal" in="SourceGraphic" in2="BackgroundImageFix" result="shape"/>
<feGaussianBlur stdDeviation="11.3555" result="effect1_foregroundBlur"/>
</filter>
<filter id="filter2_f" x="200.3" y="295.599" width="289.947" height="199.436" filterUnits="userSpaceOnUse" color-interpolation-filters="sRGB">
<feFlood flood-opacity="0" result="BackgroundImageFix"/>
<feBlend mode="normal" in="SourceGraphic" in2="BackgroundImageFix" result="shape"/>
<feGaussianBlur stdDeviation="6.48887" result="effect1_foregroundBlur"/>
</filter>
</defs>
</svg>
