<svg width="800" height="706" viewBox="0 0 800 706" fill="none" xmlns="http://www.w3.org/2000/svg">
<g filter="url(#filter0_d)">
<path fill-rule="evenodd" clip-rule="evenodd" d="M70 80C70 74.4771 74.4772 70 80 70H720C725.523 70 730 74.4772 730 80V115.099L698.963 143.831C696.826 145.81 696.826 149.19 698.963 151.169L730 179.901V363.42C701.138 383.947 641.5 428 641.5 428C633.333 427.333 617.5 429 607.5 434C596.945 439.277 595 440.5 596.5 450.5C597 453.5 598.2 458.2 599 459C599.856 459.856 576.123 470.375 549 475.122L500.5 487C478.847 493.369 461.33 498.668 457 500C456.096 500.278 454.659 500.653 452.821 501.133C441.446 504.103 414.691 511.087 403.5 524C385 538.5 364.5 553.5 359.5 553.5C358.667 554.833 357.1 558.5 357.5 562.5C348.167 574 329.7 603.3 330.5 628.5C329.583 630.591 328.469 633.186 327.293 636H80C74.4771 636 70 631.523 70 626V80Z" fill="white"/>
</g>
<path fill-rule="evenodd" clip-rule="evenodd" d="M90 100C90 94.4771 94.4772 90 100 90H700C705.523 90 710 94.4772 710 100V114.556C709.686 114.74 709.383 114.964 709.096 115.231L677.941 144.183C675.813 146.161 675.813 149.53 677.941 151.508L709.096 180.46C709.383 180.727 709.686 180.951 710 181.135V353.899C705.218 356.759 701.07 359.337 697.879 361.364C671.576 379.796 612.864 422.7 612.864 422.7C605.192 422.08 590.318 423.629 580.924 428.276C571.009 433.18 569.182 434.316 570.591 443.61C571.061 446.398 572.188 450.766 572.94 451.509C573.744 452.305 551.449 462.08 525.97 466.492L480.409 477.53C460.068 483.449 443.613 488.373 439.546 489.611C438.696 489.87 437.346 490.219 435.619 490.665C424.934 493.424 399.801 499.915 389.288 511.915C371.909 525.391 352.652 539.331 347.955 539.331C347.172 540.57 345.7 543.977 346.076 547.695C337.308 558.382 319.961 585.611 320.712 609.03C319.851 610.973 318.804 613.385 317.7 616H100C94.4771 616 90 611.523 90 606V100Z" fill="white"/>
<path d="M710 114.556L710.507 115.418L711 115.128V114.556H710ZM709.096 115.231L709.777 115.963L709.777 115.963L709.096 115.231ZM677.941 144.183L678.622 144.915L678.622 144.915L677.941 144.183ZM677.941 151.508L677.261 152.241L677.261 152.241L677.941 151.508ZM709.096 180.46L709.777 179.727L709.777 179.727L709.096 180.46ZM710 181.135H711V180.563L710.507 180.273L710 181.135ZM710 353.899L710.513 354.757L711 354.466V353.899H710ZM697.879 361.364L697.343 360.52L697.324 360.532L697.305 360.545L697.879 361.364ZM612.864 422.7L612.783 423.697L613.154 423.727L613.454 423.507L612.864 422.7ZM580.924 428.276L581.368 429.172L581.368 429.172L580.924 428.276ZM570.591 443.61L569.602 443.76L569.604 443.768L569.605 443.776L570.591 443.61ZM572.94 451.509L572.236 452.22L572.236 452.22L572.94 451.509ZM525.97 466.492L525.799 465.506L525.767 465.512L525.734 465.52L525.97 466.492ZM480.409 477.53L480.174 476.558L480.152 476.564L480.13 476.57L480.409 477.53ZM439.546 489.611L439.254 488.655L439.254 488.655L439.546 489.611ZM435.619 490.665L435.869 491.633L435.869 491.633L435.619 490.665ZM389.288 511.915L389.901 512.706L389.977 512.647L390.04 512.574L389.288 511.915ZM347.955 539.331V538.331H347.404L347.109 538.796L347.955 539.331ZM346.076 547.695L346.849 548.329L347.113 548.007L347.071 547.594L346.076 547.695ZM320.712 609.03L321.626 609.435L321.719 609.227L321.712 608.998L320.712 609.03ZM317.7 616V617H318.363L318.621 616.389L317.7 616ZM95.7891 89.8351C95.2789 90.0466 95.0368 90.6317 95.2484 91.1419C95.46 91.652 96.045 91.8941 96.5552 91.6825L95.7891 89.8351ZM91.6825 96.5552C91.8941 96.045 91.652 95.4599 91.1419 95.2484C90.6317 95.0368 90.0466 95.2789 89.8351 95.7891L91.6825 96.5552ZM89 106.658C89 107.21 89.4477 107.658 90 107.658C90.5523 107.658 91 107.21 91 106.658H89ZM91 119.974C91 119.421 90.5523 118.974 90 118.974C89.4477 118.974 89 119.421 89 119.974H91ZM89 133.289C89 133.842 89.4477 134.289 90 134.289C90.5523 134.289 91 133.842 91 133.289H89ZM91 146.605C91 146.053 90.5523 145.605 90 145.605C89.4477 145.605 89 146.053 89 146.605H91ZM89 159.921C89 160.473 89.4477 160.921 90 160.921C90.5523 160.921 91 160.473 91 159.921H89ZM91 173.237C91 172.685 90.5523 172.237 90 172.237C89.4477 172.237 89 172.685 89 173.237H91ZM89 186.553C89 187.105 89.4477 187.553 90 187.553C90.5523 187.553 91 187.105 91 186.553H89ZM91 199.868C91 199.316 90.5523 198.868 90 198.868C89.4477 198.868 89 199.316 89 199.868H91ZM89 213.184C89 213.736 89.4477 214.184 90 214.184C90.5523 214.184 91 213.736 91 213.184H89ZM91 226.5C91 225.948 90.5523 225.5 90 225.5C89.4477 225.5 89 225.948 89 226.5H91ZM89 239.816C89 240.368 89.4477 240.816 90 240.816C90.5523 240.816 91 240.368 91 239.816H89ZM91 253.132C91 252.579 90.5523 252.132 90 252.132C89.4477 252.132 89 252.579 89 253.132H91ZM89 266.447C89 267 89.4477 267.447 90 267.447C90.5523 267.447 91 267 91 266.447H89ZM91 279.763C91 279.211 90.5523 278.763 90 278.763C89.4477 278.763 89 279.211 89 279.763H91ZM89 293.079C89 293.631 89.4477 294.079 90 294.079C90.5523 294.079 91 293.631 91 293.079H89ZM91 306.395C91 305.842 90.5523 305.395 90 305.395C89.4477 305.395 89 305.842 89 306.395H91ZM89 319.711C89 320.263 89.4477 320.711 90 320.711C90.5523 320.711 91 320.263 91 319.711H89ZM91 333.026C91 332.474 90.5523 332.026 90 332.026C89.4477 332.026 89 332.474 89 333.026H91ZM89 346.342C89 346.894 89.4477 347.342 90 347.342C90.5523 347.342 91 346.894 91 346.342H89ZM91 359.658C91 359.106 90.5523 358.658 90 358.658C89.4477 358.658 89 359.106 89 359.658H91ZM89 372.974C89 373.526 89.4477 373.974 90 373.974C90.5523 373.974 91 373.526 91 372.974H89ZM91 386.29C91 385.737 90.5523 385.29 90 385.29C89.4477 385.29 89 385.737 89 386.29H91ZM89 399.605C89 400.158 89.4477 400.605 90 400.605C90.5523 400.605 91 400.158 91 399.605H89ZM91 412.921C91 412.369 90.5523 411.921 90 411.921C89.4477 411.921 89 412.369 89 412.921H91ZM89 426.237C89 426.789 89.4477 427.237 90 427.237C90.5523 427.237 91 426.789 91 426.237H89ZM91 439.553C91 439 90.5523 438.553 90 438.553C89.4477 438.553 89 439 89 439.553H91ZM89 452.868C89 453.421 89.4477 453.868 90 453.868C90.5523 453.868 91 453.421 91 452.868H89ZM91 466.184C91 465.632 90.5523 465.184 90 465.184C89.4477 465.184 89 465.632 89 466.184H91ZM89 479.5C89 480.052 89.4477 480.5 90 480.5C90.5523 480.5 91 480.052 91 479.5H89ZM91 492.816C91 492.264 90.5523 491.816 90 491.816C89.4477 491.816 89 492.264 89 492.816H91ZM89 506.132C89 506.684 89.4477 507.132 90 507.132C90.5523 507.132 91 506.684 91 506.132H89ZM91 519.447C91 518.895 90.5523 518.447 90 518.447C89.4477 518.447 89 518.895 89 519.447H91ZM89 532.763C89 533.316 89.4477 533.763 90 533.763C90.5523 533.763 91 533.316 91 532.763H89ZM91 546.079C91 545.527 90.5523 545.079 90 545.079C89.4477 545.079 89 545.527 89 546.079H91ZM89 559.395C89 559.947 89.4477 560.395 90 560.395C90.5523 560.395 91 559.947 91 559.395H89ZM91 572.711C91 572.158 90.5523 571.711 90 571.711C89.4477 571.711 89 572.158 89 572.711H91ZM89 586.026C89 586.579 89.4477 587.026 90 587.026C90.5523 587.026 91 586.579 91 586.026H89ZM91 599.342C91 598.79 90.5523 598.342 90 598.342C89.4477 598.342 89 598.79 89 599.342H91ZM89.8351 610.211C90.0466 610.721 90.6317 610.963 91.1419 610.752C91.652 610.54 91.8941 609.955 91.6825 609.445L89.8351 610.211ZM96.5552 614.317C96.045 614.106 95.4599 614.348 95.2484 614.858C95.0368 615.368 95.2789 615.953 95.7891 616.165L96.5552 614.317ZM106.803 617C107.355 617 107.803 616.552 107.803 616C107.803 615.448 107.355 615 106.803 615V617ZM120.409 615C119.857 615 119.409 615.448 119.409 616C119.409 616.552 119.857 617 120.409 617V615ZM134.016 617C134.568 617 135.016 616.552 135.016 616C135.016 615.448 134.568 615 134.016 615V617ZM147.622 615C147.07 615 146.622 615.448 146.622 616C146.622 616.552 147.07 617 147.622 617V615ZM161.228 617C161.78 617 162.228 616.552 162.228 616C162.228 615.448 161.78 615 161.228 615V617ZM174.834 615C174.282 615 173.834 615.448 173.834 616C173.834 616.552 174.282 617 174.834 617V615ZM188.44 617C188.993 617 189.44 616.552 189.44 616C189.44 615.448 188.993 615 188.44 615V617ZM202.047 615C201.494 615 201.047 615.448 201.047 616C201.047 616.552 201.494 617 202.047 617V615ZM215.653 617C216.205 617 216.653 616.552 216.653 616C216.653 615.448 216.205 615 215.653 615V617ZM229.259 615C228.707 615 228.259 615.448 228.259 616C228.259 616.552 228.707 617 229.259 617V615ZM242.865 617C243.418 617 243.865 616.552 243.865 616C243.865 615.448 243.418 615 242.865 615V617ZM256.472 615C255.919 615 255.472 615.448 255.472 616C255.472 616.552 255.919 617 256.472 617V615ZM270.078 617C270.63 617 271.078 616.552 271.078 616C271.078 615.448 270.63 615 270.078 615V617ZM283.684 615C283.132 615 282.684 615.448 282.684 616C282.684 616.552 283.132 617 283.684 617V615ZM297.29 617C297.843 617 298.29 616.552 298.29 616C298.29 615.448 297.843 615 297.29 615V617ZM310.897 615C310.344 615 309.897 615.448 309.897 616C309.897 616.552 310.344 617 310.897 617V615ZM319.361 614.645C319.578 614.138 319.342 613.55 318.835 613.333C318.327 613.116 317.739 613.352 317.522 613.86L319.361 614.645ZM319.031 610.367C318.81 610.873 319.041 611.463 319.547 611.684C320.053 611.905 320.642 611.674 320.864 611.168L319.031 610.367ZM321.858 603.488C321.902 602.937 321.493 602.455 320.942 602.41C320.392 602.365 319.909 602.775 319.864 603.325L321.858 603.488ZM321.822 592.073C321.684 592.608 322.005 593.154 322.54 593.292C323.075 593.43 323.62 593.108 323.759 592.574L321.822 592.073ZM327.23 581.994C327.432 581.48 327.179 580.899 326.665 580.697C326.151 580.495 325.571 580.747 325.369 581.261L327.23 581.994ZM330.031 570.911C329.782 571.404 329.98 572.006 330.472 572.255C330.965 572.504 331.567 572.307 331.816 571.814L330.031 570.911ZM337.262 562.046C337.549 561.575 337.4 560.959 336.929 560.672C336.457 560.384 335.842 560.533 335.554 561.005L337.262 562.046ZM341.838 551.562C341.513 552.008 341.611 552.634 342.058 552.959C342.504 553.284 343.13 553.186 343.455 552.739L341.838 551.562ZM347.049 545.594C347.09 545.043 346.676 544.564 346.125 544.523C345.575 544.482 345.095 544.895 345.054 545.446L347.049 545.594ZM346.077 540.932C345.88 541.448 346.138 542.026 346.654 542.223C347.17 542.42 347.748 542.162 347.945 541.646L346.077 540.932ZM354.187 537.954C354.671 537.688 354.849 537.08 354.583 536.596C354.318 536.112 353.71 535.934 353.226 536.2L354.187 537.954ZM363.671 529.598C363.216 529.91 363.099 530.532 363.411 530.988C363.724 531.443 364.346 531.56 364.802 531.248L363.671 529.598ZM374.977 523.998C375.423 523.671 375.518 523.045 375.191 522.6C374.864 522.155 374.239 522.059 373.793 522.386L374.977 523.998ZM383.745 514.92C383.306 515.256 383.222 515.883 383.557 516.322C383.893 516.761 384.52 516.845 384.959 516.51L383.745 514.92ZM394.63 508.338C395.068 508.001 395.15 507.373 394.813 506.936C394.477 506.498 393.849 506.416 393.411 506.752L394.63 508.338ZM404.661 500.053C404.163 500.291 403.951 500.888 404.189 501.386C404.426 501.885 405.023 502.096 405.522 501.859L404.661 500.053ZM417.379 497.057C417.901 496.876 418.177 496.306 417.995 495.784C417.814 495.263 417.244 494.987 416.722 495.168L417.379 497.057ZM429.121 491.35C428.588 491.497 428.275 492.047 428.422 492.58C428.568 493.112 429.119 493.425 429.651 493.279L429.121 491.35ZM436.855 491.378C437.389 491.24 437.71 490.694 437.572 490.159C437.433 489.625 436.887 489.304 436.353 489.442L436.855 491.378ZM438.305 488.926C437.772 489.072 437.458 489.622 437.604 490.155C437.75 490.687 438.3 491.001 438.833 490.855L438.305 488.926ZM444.929 489.035C445.458 488.877 445.758 488.319 445.6 487.79C445.441 487.261 444.884 486.961 444.355 487.119L444.929 489.035ZM454.567 484.078C454.037 484.235 453.735 484.791 453.892 485.321C454.049 485.85 454.606 486.152 455.135 485.995L454.567 484.078ZM465.351 482.979C465.881 482.823 466.184 482.267 466.028 481.737C465.872 481.207 465.316 480.904 464.786 481.06L465.351 482.979ZM475.013 478.062C474.482 478.217 474.178 478.772 474.333 479.302C474.488 479.832 475.043 480.137 475.573 479.982L475.013 478.062ZM486.34 477.122C486.877 476.992 487.206 476.452 487.076 475.915C486.946 475.378 486.406 475.048 485.869 475.179L486.34 477.122ZM497.259 472.419C496.722 472.549 496.393 473.089 496.523 473.626C496.653 474.163 497.193 474.493 497.73 474.363L497.259 472.419ZM509.12 471.603C509.657 471.473 509.987 470.932 509.857 470.396C509.726 469.859 509.186 469.529 508.649 469.659L509.12 471.603ZM520.039 466.9C519.503 467.03 519.173 467.57 519.303 468.107C519.433 468.644 519.973 468.973 520.51 468.843L520.039 466.9ZM532.266 466.306C532.807 466.193 533.154 465.663 533.041 465.123C532.928 464.582 532.398 464.235 531.858 464.348L532.266 466.306ZM543.849 461.453C543.316 461.598 543.002 462.148 543.148 462.681C543.293 463.214 543.843 463.528 544.376 463.382L543.849 461.453ZM556.292 459.751C556.816 459.574 557.097 459.007 556.921 458.483C556.744 457.96 556.177 457.679 555.654 457.855L556.292 459.751ZM567.18 453.512C566.673 453.729 566.438 454.317 566.655 454.825C566.873 455.332 567.461 455.567 567.969 455.35L567.18 453.512ZM573.012 449.324C572.836 448.801 572.269 448.52 571.745 448.697C571.222 448.873 570.941 449.44 571.117 449.964L573.012 449.324ZM570.013 445.858C570.132 446.397 570.665 446.738 571.204 446.62C571.744 446.501 572.085 445.968 571.966 445.428L570.013 445.858ZM571.187 438.461C571.214 437.91 570.789 437.44 570.237 437.413C569.686 437.386 569.216 437.811 569.189 438.363L571.187 438.461ZM575.795 429.78C575.311 430.046 575.135 430.654 575.401 431.138C575.668 431.622 576.276 431.798 576.76 431.531L575.795 429.78ZM588.849 426.382C589.381 426.231 589.69 425.679 589.54 425.147C589.39 424.616 588.838 424.307 588.306 424.457L588.849 426.382ZM604.626 421.732C604.074 421.769 603.657 422.245 603.694 422.796C603.73 423.347 604.207 423.764 604.758 423.728L604.626 421.732ZM618.727 419.659C619.173 419.333 619.271 418.708 618.945 418.262C618.62 417.815 617.994 417.717 617.548 418.043L618.727 419.659ZM628.138 410.328C627.692 410.653 627.593 411.278 627.918 411.725C628.243 412.171 628.869 412.27 629.315 411.945L628.138 410.328ZM639.929 404.229C640.375 403.904 640.475 403.279 640.15 402.832C639.826 402.385 639.2 402.286 638.753 402.61L639.929 404.229ZM649.362 394.915C648.914 395.239 648.814 395.864 649.139 396.312C649.463 396.759 650.088 396.859 650.535 396.535L649.362 394.915ZM661.156 388.851C661.604 388.527 661.705 387.902 661.381 387.455C661.058 387.007 660.433 386.906 659.985 387.23L661.156 388.851ZM670.622 379.561C670.173 379.883 670.071 380.508 670.394 380.957C670.717 381.405 671.341 381.507 671.79 381.184L670.622 379.561ZM682.442 373.542C682.891 373.22 682.995 372.596 682.673 372.147C682.352 371.697 681.727 371.594 681.278 371.915L682.442 373.542ZM691.947 364.32C691.496 364.639 691.389 365.263 691.708 365.714C692.027 366.165 692.651 366.272 693.102 365.953L691.947 364.32ZM701.42 360.316C701.888 360.023 702.031 359.406 701.738 358.938C701.445 358.469 700.828 358.327 700.36 358.62L701.42 360.316ZM706.433 354.881C705.961 355.167 705.81 355.782 706.097 356.254C706.383 356.726 706.998 356.877 707.47 356.59L706.433 354.881ZM711 347.728C711 347.176 710.552 346.728 710 346.728C709.448 346.728 709 347.176 709 347.728H711ZM709 335.388C709 335.941 709.448 336.388 710 336.388C710.552 336.388 711 335.941 711 335.388H709ZM711 323.048C711 322.496 710.552 322.048 710 322.048C709.448 322.048 709 322.496 709 323.048H711ZM709 310.708C709 311.26 709.448 311.708 710 311.708C710.552 311.708 711 311.26 711 310.708H709ZM711 298.368C711 297.815 710.552 297.368 710 297.368C709.448 297.368 709 297.815 709 298.368H711ZM709 286.027C709 286.58 709.448 287.027 710 287.027C710.552 287.027 711 286.58 711 286.027H709ZM711 273.687C711 273.135 710.552 272.687 710 272.687C709.448 272.687 709 273.135 709 273.687H711ZM709 261.347C709 261.899 709.448 262.347 710 262.347C710.552 262.347 711 261.899 711 261.347H709ZM711 249.007C711 248.454 710.552 248.007 710 248.007C709.448 248.007 709 248.454 709 249.007H711ZM709 236.666C709 237.219 709.448 237.666 710 237.666C710.552 237.666 711 237.219 711 236.666H709ZM711 224.326C711 223.774 710.552 223.326 710 223.326C709.448 223.326 709 223.774 709 224.326H711ZM709 211.986C709 212.538 709.448 212.986 710 212.986C710.552 212.986 711 212.538 711 211.986H709ZM711 199.646C711 199.093 710.552 198.646 710 198.646C709.448 198.646 709 199.093 709 199.646H711ZM709 187.306C709 187.858 709.448 188.306 710 188.306C710.552 188.306 711 187.858 711 187.306H709ZM710.315 180.153C709.855 179.847 709.234 179.971 708.928 180.431C708.622 180.891 708.746 181.511 709.206 181.818L710.315 180.153ZM708.667 181.414C709.09 181.768 709.721 181.712 710.075 181.288C710.43 180.865 710.373 180.234 709.95 179.88L708.667 181.414ZM705.883 176.108C705.478 175.732 704.845 175.756 704.469 176.16C704.093 176.565 704.117 177.198 704.521 177.574L705.883 176.108ZM696.732 170.336C697.137 170.712 697.77 170.688 698.146 170.284C698.522 169.879 698.498 169.246 698.094 168.87L696.732 170.336ZM690.305 161.633C689.901 161.257 689.268 161.28 688.892 161.684C688.516 162.089 688.539 162.722 688.944 163.098L690.305 161.633ZM681.155 155.86C681.56 156.236 682.192 156.212 682.568 155.808C682.944 155.403 682.921 154.771 682.516 154.395L681.155 155.86ZM677.677 149.445C677.456 148.938 676.867 148.707 676.361 148.927C675.854 149.147 675.623 149.737 675.843 150.243L677.677 149.445ZM675.843 145.448C675.623 145.954 675.854 146.544 676.361 146.764C676.867 146.984 677.456 146.753 677.677 146.246L675.843 145.448ZM682.517 141.296C682.921 140.92 682.944 140.288 682.568 139.883C682.192 139.479 681.56 139.455 681.155 139.831L682.517 141.296ZM688.944 132.593C688.539 132.969 688.516 133.602 688.892 134.007C689.268 134.411 689.901 134.434 690.305 134.058L688.944 132.593ZM698.094 126.82C698.499 126.444 698.522 125.812 698.146 125.407C697.77 125.003 697.137 124.979 696.733 125.355L698.094 126.82ZM704.521 118.117C704.117 118.493 704.094 119.126 704.469 119.531C704.845 119.935 705.478 119.958 705.883 119.582L704.521 118.117ZM709.95 115.811C710.373 115.457 710.43 114.826 710.075 114.402C709.721 113.979 709.09 113.923 708.667 114.277L709.95 115.811ZM709.206 113.873C708.746 114.18 708.622 114.8 708.928 115.26C709.235 115.72 709.855 115.844 710.315 115.538L709.206 113.873ZM711 110.917C711 110.364 710.552 109.917 710 109.917C709.448 109.917 709 110.364 709 110.917H711ZM709 103.639C709 104.191 709.448 104.639 710 104.639C710.552 104.639 711 104.191 711 103.639H709ZM710.165 95.7891C709.953 95.2789 709.368 95.0368 708.858 95.2484C708.348 95.46 708.106 96.045 708.317 96.5552L710.165 95.7891ZM703.445 91.6825C703.955 91.8941 704.54 91.652 704.752 91.1419C704.963 90.6317 704.721 90.0466 704.211 89.8351L703.445 91.6825ZM693.478 89C692.926 89 692.478 89.4477 692.478 90C692.478 90.5523 692.926 91 693.478 91V89ZM680.435 91C680.987 91 681.435 90.5523 681.435 90C681.435 89.4477 680.987 89 680.435 89V91ZM667.391 89C666.839 89 666.391 89.4477 666.391 90C666.391 90.5523 666.839 91 667.391 91V89ZM654.348 91C654.9 91 655.348 90.5523 655.348 90C655.348 89.4477 654.9 89 654.348 89V91ZM641.304 89C640.752 89 640.304 89.4477 640.304 90C640.304 90.5523 640.752 91 641.304 91V89ZM628.261 91C628.813 91 629.261 90.5523 629.261 90C629.261 89.4477 628.813 89 628.261 89V91ZM615.217 89C614.665 89 614.217 89.4477 614.217 90C614.217 90.5523 614.665 91 615.217 91V89ZM602.174 91C602.726 91 603.174 90.5523 603.174 90C603.174 89.4477 602.726 89 602.174 89V91ZM589.13 89C588.578 89 588.13 89.4477 588.13 90C588.13 90.5523 588.578 91 589.13 91V89ZM576.087 91C576.639 91 577.087 90.5523 577.087 90C577.087 89.4477 576.639 89 576.087 89V91ZM563.043 89C562.491 89 562.043 89.4477 562.043 90C562.043 90.5523 562.491 91 563.043 91V89ZM550 91C550.552 91 551 90.5523 551 90C551 89.4477 550.552 89 550 89V91ZM536.957 89C536.404 89 535.957 89.4477 535.957 90C535.957 90.5523 536.404 91 536.957 91V89ZM523.913 91C524.465 91 524.913 90.5523 524.913 90C524.913 89.4477 524.465 89 523.913 89V91ZM510.87 89C510.317 89 509.87 89.4477 509.87 90C509.87 90.5523 510.317 91 510.87 91V89ZM497.826 91C498.378 91 498.826 90.5523 498.826 90C498.826 89.4477 498.378 89 497.826 89V91ZM484.783 89C484.23 89 483.783 89.4477 483.783 90C483.783 90.5523 484.23 91 484.783 91V89ZM471.739 91C472.291 91 472.739 90.5523 472.739 90C472.739 89.4477 472.291 89 471.739 89V91ZM458.696 89C458.143 89 457.696 89.4477 457.696 90C457.696 90.5523 458.143 91 458.696 91V89ZM445.652 91C446.205 91 446.652 90.5523 446.652 90C446.652 89.4477 446.205 89 445.652 89V91ZM432.609 89C432.056 89 431.609 89.4477 431.609 90C431.609 90.5523 432.056 91 432.609 91V89ZM419.565 91C420.118 91 420.565 90.5523 420.565 90C420.565 89.4477 420.118 89 419.565 89V91ZM406.522 89C405.969 89 405.522 89.4477 405.522 90C405.522 90.5523 405.969 91 406.522 91V89ZM393.478 91C394.031 91 394.478 90.5523 394.478 90C394.478 89.4477 394.031 89 393.478 89V91ZM380.435 89C379.883 89 379.435 89.4477 379.435 90C379.435 90.5523 379.883 91 380.435 91V89ZM367.391 91C367.944 91 368.391 90.5523 368.391 90C368.391 89.4477 367.944 89 367.391 89V91ZM354.348 89C353.796 89 353.348 89.4477 353.348 90C353.348 90.5523 353.796 91 354.348 91V89ZM341.304 91C341.857 91 342.304 90.5523 342.304 90C342.304 89.4477 341.857 89 341.304 89V91ZM328.261 89C327.709 89 327.261 89.4477 327.261 90C327.261 90.5523 327.709 91 328.261 91V89ZM315.217 91C315.77 91 316.217 90.5523 316.217 90C316.217 89.4477 315.77 89 315.217 89V91ZM302.174 89C301.622 89 301.174 89.4477 301.174 90C301.174 90.5523 301.622 91 302.174 91V89ZM289.13 91C289.683 91 290.13 90.5523 290.13 90C290.13 89.4477 289.683 89 289.13 89V91ZM276.087 89C275.535 89 275.087 89.4477 275.087 90C275.087 90.5523 275.535 91 276.087 91V89ZM263.043 91C263.596 91 264.043 90.5523 264.043 90C264.043 89.4477 263.596 89 263.043 89V91ZM250 89C249.448 89 249 89.4477 249 90C249 90.5523 249.448 91 250 91V89ZM236.956 91C237.509 91 237.956 90.5523 237.956 90C237.956 89.4477 237.509 89 236.956 89V91ZM223.913 89C223.361 89 222.913 89.4477 222.913 90C222.913 90.5523 223.361 91 223.913 91V89ZM210.869 91C211.422 91 211.869 90.5523 211.869 90C211.869 89.4477 211.422 89 210.869 89V91ZM197.826 89C197.274 89 196.826 89.4477 196.826 90C196.826 90.5523 197.274 91 197.826 91V89ZM184.782 91C185.335 91 185.782 90.5523 185.782 90C185.782 89.4477 185.335 89 184.782 89V91ZM171.739 89C171.187 89 170.739 89.4477 170.739 90C170.739 90.5523 171.187 91 171.739 91V89ZM158.696 91C159.248 91 159.696 90.5523 159.696 90C159.696 89.4477 159.248 89 158.696 89V91ZM145.652 89C145.1 89 144.652 89.4477 144.652 90C144.652 90.5523 145.1 91 145.652 91V89ZM132.609 91C133.161 91 133.609 90.5523 133.609 90C133.609 89.4477 133.161 89 132.609 89V91ZM119.565 89C119.013 89 118.565 89.4477 118.565 90C118.565 90.5523 119.013 91 119.565 91V89ZM106.522 91C107.074 91 107.522 90.5523 107.522 90C107.522 89.4477 107.074 89 106.522 89V91ZM100 89C98.5103 89 97.0874 89.2967 95.7891 89.8351L96.5552 91.6825C97.615 91.2431 98.7778 91 100 91V89ZM89.8351 95.7891C89.2967 97.0874 89 98.5103 89 100H91C91 98.7778 91.2431 97.6149 91.6825 96.5552L89.8351 95.7891ZM89 100V106.658H91V100H89ZM89 119.974V133.289H91V119.974H89ZM89 146.605V159.921H91V146.605H89ZM89 173.237V186.553H91V173.237H89ZM89 199.868V213.184H91V199.868H89ZM89 226.5V239.816H91V226.5H89ZM89 253.132V266.447H91V253.132H89ZM89 279.763V293.079H91V279.763H89ZM89 306.395V319.711H91V306.395H89ZM89 333.026V346.342H91V333.026H89ZM89 359.658V372.974H91V359.658H89ZM89 386.29V399.605H91V386.29H89ZM89 412.921V426.237H91V412.921H89ZM89 439.553V452.868H91V439.553H89ZM89 466.184V479.5H91V466.184H89ZM89 492.816V506.132H91V492.816H89ZM89 519.447V532.763H91V519.447H89ZM89 546.079V559.395H91V546.079H89ZM89 572.711V586.026H91V572.711H89ZM89 599.342V606H91V599.342H89ZM89 606C89 607.49 89.2967 608.913 89.8351 610.211L91.6825 609.445C91.2431 608.385 91 607.222 91 606H89ZM95.7891 616.165C97.0874 616.703 98.5103 617 100 617V615C98.7778 615 97.615 614.757 96.5552 614.317L95.7891 616.165ZM100 617H106.803V615H100V617ZM120.409 617H134.016V615H120.409V617ZM147.622 617H161.228V615H147.622V617ZM174.834 617H188.44V615H174.834V617ZM202.047 617H215.653V615H202.047V617ZM229.259 617H242.865V615H229.259V617ZM256.472 617H270.078V615H256.472V617ZM283.684 617H297.29V615H283.684V617ZM310.897 617H317.7V615H310.897V617ZM318.621 616.389C318.871 615.796 319.119 615.214 319.361 614.645L317.522 613.86C317.278 614.431 317.03 615.016 316.778 615.611L318.621 616.389ZM320.864 611.168C321.131 610.558 321.386 609.978 321.626 609.435L319.798 608.625C319.556 609.171 319.299 609.753 319.031 610.367L320.864 611.168ZM321.712 608.998C321.654 607.185 321.706 605.345 321.858 603.488L319.864 603.325C319.707 605.251 319.652 607.167 319.713 609.062L321.712 608.998ZM323.759 592.574C324.68 589.01 325.866 585.461 327.23 581.994L325.369 581.261C323.979 584.792 322.766 588.419 321.822 592.073L323.759 592.574ZM331.816 571.814C333.568 568.35 335.42 565.066 337.262 562.046L335.554 561.005C333.688 564.065 331.81 567.396 330.031 570.911L331.816 571.814ZM343.455 552.739C344.679 551.058 345.825 549.577 346.849 548.329L345.303 547.06C344.252 548.342 343.082 549.854 341.838 551.562L343.455 552.739ZM347.071 547.594C347.002 546.916 347.001 546.245 347.049 545.594L345.054 545.446C344.998 546.201 344.999 546.989 345.081 547.795L347.071 547.594ZM347.945 541.646C348.253 540.84 348.573 540.223 348.8 539.865L347.109 538.796C346.8 539.285 346.424 540.024 346.077 540.932L347.945 541.646ZM347.955 540.331C348.72 540.331 349.649 540.066 350.645 539.671C351.666 539.266 352.859 538.681 354.187 537.954L353.226 536.2C351.936 536.906 350.823 537.449 349.907 537.812C348.966 538.185 348.328 538.331 347.955 538.331V540.331ZM364.802 531.248C367.978 529.072 371.419 526.612 374.977 523.998L373.793 522.386C370.247 524.991 366.824 527.437 363.671 529.598L364.802 531.248ZM384.959 516.51C386.614 515.245 388.266 513.973 389.901 512.706L388.675 511.125C387.044 512.39 385.396 513.659 383.745 514.92L384.959 516.51ZM390.04 512.574C391.344 511.086 392.892 509.674 394.63 508.338L393.411 506.752C391.591 508.152 389.942 509.651 388.536 511.256L390.04 512.574ZM405.522 501.859C409.37 500.025 413.431 498.431 417.379 497.057L416.722 495.168C412.725 496.558 408.593 498.18 404.661 500.053L405.522 501.859ZM429.651 493.279C432.019 492.627 434.132 492.082 435.869 491.633L435.369 489.696C433.632 490.145 431.506 490.694 429.121 491.35L429.651 493.279ZM435.869 491.633C436.213 491.544 436.542 491.459 436.855 491.378L436.353 489.442C436.041 489.523 435.713 489.608 435.369 489.696L435.869 491.633ZM438.833 490.855C439.213 490.751 439.55 490.656 439.837 490.568L439.254 488.655C438.992 488.735 438.675 488.825 438.305 488.926L438.833 490.855ZM439.837 490.568C440.831 490.265 442.57 489.741 444.929 489.035L444.355 487.119C441.995 487.826 440.253 488.351 439.254 488.655L439.837 490.568ZM455.135 485.995C458.217 485.082 461.648 484.068 465.351 482.979L464.786 481.06C461.082 482.15 457.65 483.164 454.567 484.078L455.135 485.995ZM475.573 479.982C477.247 479.493 478.954 478.995 480.689 478.49L480.13 476.57C478.394 477.075 476.687 477.573 475.013 478.062L475.573 479.982ZM480.645 478.502L486.34 477.122L485.869 475.179L480.174 476.558L480.645 478.502ZM497.73 474.363L509.12 471.603L508.649 469.659L497.259 472.419L497.73 474.363ZM520.51 468.843L526.205 467.463L525.734 465.52L520.039 466.9L520.51 468.843ZM526.14 467.477C528.207 467.119 530.253 466.726 532.266 466.306L531.858 464.348C529.865 464.764 527.842 465.152 525.799 465.506L526.14 467.477ZM544.376 463.382C548.687 462.203 552.704 460.96 556.292 459.751L555.654 457.855C552.1 459.054 548.12 460.285 543.849 461.453L544.376 463.382ZM567.969 455.35C569.795 454.566 571.232 453.883 572.192 453.356C572.664 453.097 573.061 452.853 573.336 452.636C573.46 452.538 573.637 452.387 573.767 452.189C573.831 452.09 573.938 451.9 573.957 451.642C573.981 451.334 573.872 451.025 573.643 450.798L572.236 452.22C572.038 452.024 571.943 451.753 571.963 451.489C571.98 451.276 572.066 451.136 572.093 451.094C572.147 451.012 572.181 451 572.098 451.066C571.957 451.177 571.677 451.357 571.229 451.603C570.351 452.085 568.981 452.739 567.18 453.512L567.969 455.35ZM573.643 450.798C573.65 450.805 573.57 450.71 573.428 450.403C573.301 450.128 573.16 449.763 573.012 449.324L571.117 449.964C571.278 450.438 571.444 450.877 571.612 451.241C571.765 451.574 571.969 451.955 572.236 452.22L573.643 450.798ZM571.966 445.428C571.812 444.724 571.678 444.044 571.577 443.444L569.605 443.776C569.712 444.413 569.852 445.127 570.013 445.858L571.966 445.428ZM571.58 443.46C571.264 441.375 571.123 439.767 571.187 438.461L569.189 438.363C569.115 439.87 569.28 441.635 569.602 443.76L571.58 443.46ZM576.76 431.531C578.037 430.828 579.557 430.068 581.368 429.172L580.481 427.379C578.675 428.273 577.117 429.051 575.795 429.78L576.76 431.531ZM581.368 429.172C583.586 428.075 586.138 427.147 588.849 426.382L588.306 424.457C585.51 425.246 582.837 426.214 580.481 427.379L581.368 429.172ZM604.758 423.728C607.846 423.523 610.622 423.522 612.783 423.697L612.944 421.703C610.66 421.519 607.783 421.523 604.626 421.732L604.758 423.728ZM612.864 422.7C613.454 423.507 613.454 423.507 613.454 423.507C613.454 423.507 613.454 423.507 613.454 423.507C613.454 423.507 613.454 423.507 613.454 423.507C613.454 423.507 613.455 423.507 613.455 423.506C613.456 423.506 613.458 423.504 613.459 423.503C613.463 423.5 613.469 423.496 613.476 423.491C613.491 423.48 613.514 423.463 613.544 423.442C613.603 423.398 613.692 423.333 613.809 423.248C614.043 423.077 614.389 422.824 614.84 422.495C615.742 421.836 617.06 420.874 618.727 419.659L617.548 418.043C615.881 419.259 614.563 420.221 613.661 420.879C613.21 421.209 612.863 421.462 612.629 421.633C612.512 421.718 612.423 421.783 612.364 421.827C612.334 421.848 612.311 421.865 612.296 421.876C612.289 421.881 612.283 421.886 612.279 421.888C612.278 421.89 612.276 421.891 612.275 421.891C612.275 421.892 612.274 421.892 612.274 421.892C612.274 421.892 612.274 421.892 612.274 421.892C612.274 421.892 612.274 421.892 612.274 421.892C612.274 421.892 612.274 421.892 612.864 422.7ZM629.315 411.945C632.536 409.6 636.117 406.997 639.929 404.229L638.753 402.61C634.941 405.379 631.36 407.983 628.138 410.328L629.315 411.945ZM650.535 396.535C654.017 394.012 657.583 391.432 661.156 388.851L659.985 387.23C656.411 389.811 652.844 392.392 649.362 394.915L650.535 396.535ZM671.79 381.184C675.444 378.555 679.024 375.986 682.442 373.542L681.278 371.915C677.859 374.361 674.278 376.931 670.622 379.561L671.79 381.184ZM693.102 365.953C695 364.61 696.791 363.347 698.453 362.183L697.305 360.545C695.641 361.712 693.847 362.976 691.947 364.32L693.102 365.953ZM698.415 362.208C699.339 361.622 700.343 360.988 701.42 360.316L700.36 358.62C699.279 359.295 698.271 359.931 697.343 360.52L698.415 362.208ZM707.47 356.59C708.452 355.995 709.468 355.382 710.513 354.757L709.487 353.04C708.437 353.668 707.418 354.283 706.433 354.881L707.47 356.59ZM711 353.899V347.728H709V353.899H711ZM711 335.388V323.048H709V335.388H711ZM711 310.708V298.368H709V310.708H711ZM711 286.027V273.687H709V286.027H711ZM711 261.347V249.007H709V261.347H711ZM711 236.666V224.326H709V236.666H711ZM711 211.986V199.646H709V211.986H711ZM711 187.306V181.135H709V187.306H711ZM710.507 180.273C710.442 180.236 710.378 180.195 710.315 180.153L709.206 181.818C709.301 181.881 709.396 181.941 709.493 181.998L710.507 180.273ZM709.95 179.88C709.892 179.831 709.834 179.78 709.777 179.727L708.416 181.192C708.498 181.269 708.582 181.343 708.667 181.414L709.95 179.88ZM709.777 179.727L705.883 176.108L704.521 177.574L708.416 181.192L709.777 179.727ZM698.094 168.87L690.305 161.633L688.944 163.098L696.732 170.336L698.094 168.87ZM682.516 154.395L678.622 150.776L677.261 152.241L681.155 155.86L682.516 154.395ZM678.622 150.776C678.203 150.386 677.889 149.932 677.677 149.445L675.843 150.243C676.163 150.978 676.636 151.66 677.261 152.241L678.622 150.776ZM677.677 146.246C677.889 145.759 678.203 145.305 678.622 144.915L677.261 143.45C676.636 144.03 676.163 144.713 675.843 145.448L677.677 146.246ZM678.622 144.915L682.517 141.296L681.155 139.831L677.261 143.45L678.622 144.915ZM690.305 134.058L698.094 126.82L696.733 125.355L688.944 132.593L690.305 134.058ZM705.883 119.582L709.777 115.963L708.416 114.498L704.521 118.117L705.883 119.582ZM709.777 115.963C709.834 115.91 709.892 115.86 709.95 115.811L708.667 114.277C708.582 114.348 708.498 114.422 708.416 114.498L709.777 115.963ZM710.315 115.538C710.378 115.495 710.442 115.455 710.507 115.418L709.493 113.693C709.396 113.75 709.301 113.81 709.206 113.873L710.315 115.538ZM711 114.556V110.917H709V114.556H711ZM711 103.639V100H709V103.639H711ZM711 100C711 98.5103 710.703 97.0874 710.165 95.7891L708.317 96.5552C708.757 97.615 709 98.7778 709 100H711ZM704.211 89.8351C702.913 89.2967 701.49 89 700 89V91C701.222 91 702.385 91.2431 703.445 91.6825L704.211 89.8351ZM700 89H693.478V91H700V89ZM680.435 89H667.391V91H680.435V89ZM654.348 89H641.304V91H654.348V89ZM628.261 89H615.217V91H628.261V89ZM602.174 89H589.13V91H602.174V89ZM576.087 89H563.043V91H576.087V89ZM550 89H536.957V91H550V89ZM523.913 89H510.87V91H523.913V89ZM497.826 89H484.783V91H497.826V89ZM471.739 89H458.696V91H471.739V89ZM445.652 89H432.609V91H445.652V89ZM419.565 89H406.522V91H419.565V89ZM393.478 89H380.435V91H393.478V89ZM367.391 89H354.348V91H367.391V89ZM341.304 89H328.261V91H341.304V89ZM315.217 89H302.174V91H315.217V89ZM289.13 89H276.087V91H289.13V89ZM263.043 89H250V91H263.043V89ZM236.956 89H223.913V91H236.956V89ZM210.869 89H197.826V91H210.869V89ZM184.782 89H171.739V91H184.782V89ZM158.696 89H145.652V91H158.696V89ZM132.609 89H119.565V91H132.609V89ZM106.522 89H100V91H106.522V89Z" fill="#E5E5E5"/>
<g filter="url(#filter1_f)">
<path d="M723 357.5C696.697 375.932 628.864 424.7 628.864 424.7C621.192 424.08 606.318 425.629 596.924 430.276C587.009 435.18 585.182 436.317 586.591 445.61C587.061 448.398 588.188 452.766 588.939 453.509C589.744 454.305 567.449 464.08 541.97 468.492L496.409 479.53M455.545 491.612C449.439 493.47 417.5 499.976 405.288 513.915C387.909 527.391 368.651 541.331 363.954 541.331C363.172 542.57 361.7 545.977 362.076 549.695C353.308 560.382 318.748 606.081 319.5 629.5M455.545 491.612C459.613 490.373 476.068 485.45 496.409 479.53M455.545 491.612L496.409 479.53" stroke="black" stroke-opacity="0.6" stroke-width="6"/>
</g>
<g filter="url(#filter2_f)">
<path d="M734 362.5C707.697 380.932 639.864 429.7 639.864 429.7C632.192 429.08 617.318 430.629 607.924 435.276C598.009 440.18 596.182 441.317 597.591 450.61C598.061 453.398 599.188 457.766 599.939 458.509C600.744 459.305 578.449 469.08 552.97 473.492L507.409 484.53M466.545 496.612C460.439 498.47 419.212 507.06 407 521C389.621 534.475 363.697 553.5 359 553.5C358.217 554.739 357.124 559.283 357.5 563C348.733 573.687 329.749 605.081 330.5 628.5M466.545 496.612C470.613 495.373 487.068 490.45 507.409 484.53M466.545 496.612L507.409 484.53" stroke="black" stroke-opacity="0.6" stroke-width="4"/>
</g>
<defs>
<filter id="filter0_d" x="0" y="0" width="800" height="706" filterUnits="userSpaceOnUse" color-interpolation-filters="sRGB">
<feFlood flood-opacity="0" result="BackgroundImageFix"/>
<feColorMatrix in="SourceAlpha" type="matrix" values="0 0 0 0 0 0 0 0 0 0 0 0 0 0 0 0 0 0 127 0"/>
<feOffset/>
<feGaussianBlur stdDeviation="35"/>
<feColorMatrix type="matrix" values="0 0 0 0 0 0 0 0 0 0 0 0 0 0 0 0 0 0 0.3 0"/>
<feBlend mode="normal" in2="BackgroundImageFix" result="effect1_dropShadow"/>
<feBlend mode="normal" in="SourceGraphic" in2="effect1_dropShadow" result="shape"/>
</filter>
<filter id="filter1_f" x="281.488" y="320.043" width="478.234" height="344.553" filterUnits="userSpaceOnUse" color-interpolation-filters="sRGB">
<feFlood flood-opacity="0" result="BackgroundImageFix"/>
<feBlend mode="normal" in="SourceGraphic" in2="BackgroundImageFix" result="shape"/>
<feGaussianBlur stdDeviation="17.5" result="effect1_foregroundBlur"/>
</filter>
<filter id="filter2_f" x="308.479" y="340.862" width="446.669" height="307.702" filterUnits="userSpaceOnUse" color-interpolation-filters="sRGB">
<feFlood flood-opacity="0" result="BackgroundImageFix"/>
<feBlend mode="normal" in="SourceGraphic" in2="BackgroundImageFix" result="shape"/>
<feGaussianBlur stdDeviation="10" result="effect1_foregroundBlur"/>
</filter>
</defs>
</svg>
