<svg width="350" height="378" viewBox="0 0 350 378" fill="none" xmlns="http://www.w3.org/2000/svg">
<path fill-rule="evenodd" clip-rule="evenodd" d="M10 0C4.47715 0 0 4.47716 0 10V368C0 373.523 4.47715 378 10 378H340C345.523 378 350 373.523 350 368V87.6135C349.969 87.5855 349.938 87.5567 349.908 87.527L327.209 65.4356C325.999 64.2578 325.999 62.3136 327.209 61.1358L349.908 39.0444C349.938 39.0148 349.969 38.9859 350 38.9579V10C350 4.47715 345.523 0 340 0H10Z" fill="white"/>
<mask id="path-2-inside-1" fill="white">
<path fill-rule="evenodd" clip-rule="evenodd" d="M20 10C14.4772 10 10 14.4771 10 20V358C10 363.523 14.4771 368 20 368H330C335.523 368 340 363.523 340 358V87.3842C339.508 87.2643 339.032 87.0116 338.617 86.6062L317.623 66.0819C316.419 64.9051 316.419 62.9684 317.623 61.7915L338.617 41.2672C339.032 40.8619 339.508 40.6091 340 40.4893V20C340 14.4772 335.523 10 330 10H20Z"/>
</mask>
<path fill-rule="evenodd" clip-rule="evenodd" d="M20 10C14.4772 10 10 14.4771 10 20V358C10 363.523 14.4771 368 20 368H330C335.523 368 340 363.523 340 358V87.3842C339.508 87.2643 339.032 87.0116 338.617 86.6062L317.623 66.0819C316.419 64.9051 316.419 62.9684 317.623 61.7915L338.617 41.2672C339.032 40.8619 339.508 40.6091 340 40.4893V20C340 14.4772 335.523 10 330 10H20Z" fill="white"/>
<path d="M340 87.3842H340.5V86.9914L340.118 86.8984L340 87.3842ZM338.617 86.6062L338.967 86.2487L338.617 86.6062ZM317.623 66.0819L317.273 66.4395L317.623 66.0819ZM317.623 61.7915L317.973 62.1491L317.623 61.7915ZM338.617 41.2672L338.967 41.6248V41.6248L338.617 41.2672ZM340 40.4893L340.118 40.9751L340.5 40.8821V40.4893H340ZM9.5 20V24.0238H10.5V20H9.5ZM9.5 32.0714V40.119H10.5V32.0714H9.5ZM9.5 48.1667V56.2143H10.5V48.1667H9.5ZM9.5 64.2619V72.3095H10.5V64.2619H9.5ZM9.5 80.3571V88.4048H10.5V80.3571H9.5ZM9.5 96.4524V104.5H10.5V96.4524H9.5ZM9.5 112.548V120.595H10.5V112.548H9.5ZM9.5 128.643V136.69H10.5V128.643H9.5ZM9.5 144.738V152.786H10.5V144.738H9.5ZM9.5 160.833V168.881H10.5V160.833H9.5ZM9.5 176.929V184.976H10.5V176.929H9.5ZM9.5 193.024V201.071H10.5V193.024H9.5ZM9.5 209.119V217.167H10.5V209.119H9.5ZM9.5 225.214V233.262H10.5V225.214H9.5ZM9.5 241.31V249.357H10.5V241.31H9.5ZM9.5 257.405V265.452H10.5V257.405H9.5ZM9.5 273.5V281.548H10.5V273.5H9.5ZM9.5 289.595V297.643H10.5V289.595H9.5ZM9.5 305.691V313.738H10.5V305.691H9.5ZM9.5 321.786V329.833H10.5V321.786H9.5ZM9.5 337.881V345.929H10.5V337.881H9.5ZM9.5 353.976V358H10.5V353.976H9.5ZM9.5 358C9.5 359.423 9.78326 360.781 10.2969 362.019L11.2207 361.636C10.7565 360.517 10.5 359.289 10.5 358H9.5ZM15.9806 367.703C17.2193 368.217 18.5772 368.5 20 368.5V367.5C18.7109 367.5 17.4831 367.244 16.3636 366.779L15.9806 367.703ZM20 368.5H24.0789V367.5H20V368.5ZM32.2368 368.5H40.3947V367.5H32.2368V368.5ZM48.5526 368.5H56.7105V367.5H48.5526V368.5ZM64.8684 368.5H73.0263V367.5H64.8684V368.5ZM81.1842 368.5H89.3421V367.5H81.1842V368.5ZM97.5 368.5H105.658V367.5H97.5V368.5ZM113.816 368.5H121.974V367.5H113.816V368.5ZM130.132 368.5H138.289V367.5H130.132V368.5ZM146.447 368.5H154.605V367.5H146.447V368.5ZM162.763 368.5H170.921V367.5H162.763V368.5ZM179.079 368.5H187.237V367.5H179.079V368.5ZM195.395 368.5H203.553V367.5H195.395V368.5ZM211.711 368.5H219.868V367.5H211.711V368.5ZM228.026 368.5H236.184V367.5H228.026V368.5ZM244.342 368.5H252.5V367.5H244.342V368.5ZM260.658 368.5H268.816V367.5H260.658V368.5ZM276.974 368.5H285.132V367.5H276.974V368.5ZM293.29 368.5H301.447V367.5H293.29V368.5ZM309.605 368.5H317.763V367.5H309.605V368.5ZM325.921 368.5H330V367.5H325.921V368.5ZM330 368.5C331.423 368.5 332.781 368.217 334.019 367.703L333.636 366.779C332.517 367.244 331.289 367.5 330 367.5V368.5ZM339.703 362.019C340.217 360.781 340.5 359.423 340.5 358H339.5C339.5 359.289 339.244 360.517 338.779 361.636L339.703 362.019ZM340.5 358V354.02H339.5V358H340.5ZM340.5 346.061V338.102H339.5V346.061H340.5ZM340.5 330.142V322.183H339.5V330.142H340.5ZM340.5 314.224V306.265H339.5V314.224H340.5ZM340.5 298.305V290.346H339.5V298.305H340.5ZM340.5 282.387V274.427H339.5V282.387H340.5ZM340.5 266.468V258.509H339.5V266.468H340.5ZM340.5 250.55V242.59H339.5V250.55H340.5ZM340.5 234.631V226.672H339.5V234.631H340.5ZM340.5 218.712V210.753H339.5V218.712H340.5ZM340.5 202.794V194.835H339.5V202.794H340.5ZM340.5 186.875V178.916H339.5V186.875H340.5ZM340.5 170.957V162.997H339.5V170.957H340.5ZM340.5 155.038V147.079H339.5V155.038H340.5ZM340.5 139.12V131.16H339.5V139.12H340.5ZM340.5 123.201V115.242H339.5V123.201H340.5ZM340.5 107.282V99.3231H339.5V107.282H340.5ZM340.5 91.3638V87.3842H339.5V91.3638H340.5ZM340.118 86.8984C340.012 86.8724 339.906 86.839 339.802 86.7976L339.433 87.7271C339.581 87.7857 339.731 87.8331 339.882 87.8699L340.118 86.8984ZM339.223 86.4698C339.136 86.4036 339.05 86.33 338.967 86.2487L338.268 86.9638C338.381 87.0741 338.498 87.1751 338.619 87.2669L339.223 86.4698ZM338.967 86.2487L336.342 83.6832L335.643 84.3982L338.268 86.9638L338.967 86.2487ZM331.094 78.5521L325.845 73.421L325.146 74.1361L330.395 79.2672L331.094 78.5521ZM320.597 68.2899L317.973 65.7244L317.273 66.4395L319.898 69.005L320.597 68.2899ZM317.973 65.7244C317.726 65.483 317.54 65.2045 317.415 64.907L316.493 65.2945C316.669 65.7127 316.93 66.1032 317.273 66.4395L317.973 65.7244ZM317.415 62.9664C317.54 62.669 317.726 62.3904 317.973 62.1491L317.273 61.434C316.93 61.7702 316.669 62.1607 316.493 62.5789L317.415 62.9664ZM317.973 62.1491L320.597 59.5835L319.898 58.8685L317.273 61.434L317.973 62.1491ZM325.845 54.4524L331.094 49.3214L330.395 48.6063L325.146 53.7374L325.845 54.4524ZM336.342 44.1903L338.967 41.6248L338.268 40.9097L335.643 43.4752L336.342 44.1903ZM338.967 41.6248C339.05 41.5434 339.136 41.4699 339.223 41.4036L338.619 40.6066C338.498 40.6984 338.381 40.7994 338.268 40.9097L338.967 41.6248ZM339.802 41.0758C339.906 41.0345 340.012 41.001 340.118 40.9751L339.882 40.0035C339.731 40.0403 339.581 40.0878 339.433 40.1464L339.802 41.0758ZM340.5 40.4893V35.367H339.5V40.4893H340.5ZM340.5 25.1223V20H339.5V25.1223H340.5ZM340.5 20C340.5 18.5772 340.217 17.2193 339.703 15.9806L338.779 16.3636C339.244 17.4831 339.5 18.711 339.5 20H340.5ZM334.019 10.2969C332.781 9.78326 331.423 9.5 330 9.5V10.5C331.289 10.5 332.517 10.7565 333.636 11.2207L334.019 10.2969ZM330 9.5H325.921V10.5H330V9.5ZM317.763 9.5H309.605V10.5H317.763V9.5ZM301.447 9.5H293.289V10.5H301.447V9.5ZM285.132 9.5H276.974V10.5H285.132V9.5ZM268.816 9.5H260.658V10.5H268.816V9.5ZM252.5 9.5H244.342V10.5H252.5V9.5ZM236.184 9.5H228.026V10.5H236.184V9.5ZM219.868 9.5H211.711V10.5H219.868V9.5ZM203.553 9.5H195.395V10.5H203.553V9.5ZM187.237 9.5H179.079V10.5H187.237V9.5ZM170.921 9.5H162.763V10.5H170.921V9.5ZM154.605 9.5H146.447V10.5H154.605V9.5ZM138.289 9.5H130.132V10.5H138.289V9.5ZM121.974 9.5H113.816V10.5H121.974V9.5ZM105.658 9.5H97.4999V10.5H105.658V9.5ZM89.342 9.5H81.1841V10.5H89.342V9.5ZM73.0262 9.5H64.8683V10.5H73.0262V9.5ZM56.7104 9.5H48.5526V10.5H56.7104V9.5ZM40.3947 9.5H32.2368V10.5H40.3947V9.5ZM24.0789 9.5H20V10.5H24.0789V9.5ZM20 9.5C18.5772 9.5 17.2193 9.78326 15.9806 10.2969L16.3636 11.2207C17.4831 10.7565 18.711 10.5 20 10.5V9.5ZM10.2969 15.9806C9.78326 17.2193 9.5 18.5772 9.5 20H10.5C10.5 18.711 10.7565 17.4831 11.2207 16.3636L10.2969 15.9806ZM340 87.3842H341V86.5986L340.237 86.4126L340 87.3842ZM338.617 86.6062L339.316 85.8912V85.8912L338.617 86.6062ZM317.623 66.0819L316.924 66.797L317.623 66.0819ZM317.623 61.7915L318.322 62.5066L317.623 61.7915ZM338.617 41.2672L339.316 41.9823V41.9823L338.617 41.2672ZM340 40.4893L340.237 41.4609L341 41.2749V40.4893H340ZM9 20V24.0238H11V20H9ZM9 32.0714V40.119H11V32.0714H9ZM9 48.1667V56.2143H11V48.1667H9ZM9 64.2619V72.3095H11V64.2619H9ZM9 80.3571V88.4048H11V80.3571H9ZM9 96.4524V104.5H11V96.4524H9ZM9 112.548V120.595H11V112.548H9ZM9 128.643V136.69H11V128.643H9ZM9 144.738V152.786H11V144.738H9ZM9 160.833V168.881H11V160.833H9ZM9 176.929V184.976H11V176.929H9ZM9 193.024V201.071H11V193.024H9ZM9 209.119V217.167H11V209.119H9ZM9 225.214V233.262H11V225.214H9ZM9 241.31V249.357H11V241.31H9ZM9 257.405V265.452H11V257.405H9ZM9 273.5V281.548H11V273.5H9ZM9 289.595V297.643H11V289.595H9ZM9 305.691V313.738H11V305.691H9ZM9 321.786V329.833H11V321.786H9ZM9 337.881V345.929H11V337.881H9ZM9 353.976V358H11V353.976H9ZM9 358C9 359.49 9.29666 360.913 9.83508 362.211L11.6825 361.445C11.2431 360.385 11 359.222 11 358H9ZM15.7891 368.165C17.0874 368.703 18.5103 369 20 369V367C18.7778 367 17.6149 366.757 16.5552 366.317L15.7891 368.165ZM20 369H24.0789V367H20V369ZM32.2368 369H40.3947V367H32.2368V369ZM48.5526 369H56.7105V367H48.5526V369ZM64.8684 369H73.0263V367H64.8684V369ZM81.1842 369H89.3421V367H81.1842V369ZM97.5 369H105.658V367H97.5V369ZM113.816 369H121.974V367H113.816V369ZM130.132 369H138.289V367H130.132V369ZM146.447 369H154.605V367H146.447V369ZM162.763 369H170.921V367H162.763V369ZM179.079 369H187.237V367H179.079V369ZM195.395 369H203.553V367H195.395V369ZM211.711 369H219.868V367H211.711V369ZM228.026 369H236.184V367H228.026V369ZM244.342 369H252.5V367H244.342V369ZM260.658 369H268.816V367H260.658V369ZM276.974 369H285.132V367H276.974V369ZM293.29 369H301.447V367H293.29V369ZM309.605 369H317.763V367H309.605V369ZM325.921 369H330V367H325.921V369ZM330 369C331.49 369 332.913 368.703 334.211 368.165L333.445 366.317C332.385 366.757 331.222 367 330 367V369ZM340.165 362.211C340.703 360.913 341 359.49 341 358H339C339 359.222 338.757 360.385 338.317 361.445L340.165 362.211ZM341 358V354.02H339V358H341ZM341 346.061V338.102H339V346.061H341ZM341 330.142V322.183H339V330.142H341ZM341 314.224V306.265H339V314.224H341ZM341 298.305V290.346H339V298.305H341ZM341 282.387V274.427H339V282.387H341ZM341 266.468V258.509H339V266.468H341ZM341 250.55V242.59H339V250.55H341ZM341 234.631V226.672H339V234.631H341ZM341 218.712V210.753H339V218.712H341ZM341 202.794V194.835H339V202.794H341ZM341 186.875V178.916H339V186.875H341ZM341 170.957V162.997H339V170.957H341ZM341 155.038V147.079H339V155.038H341ZM341 139.12V131.16H339V139.12H341ZM341 123.201V115.242H339V123.201H341ZM341 107.282V99.3231H339V107.282H341ZM341 91.3638V87.3842H339V91.3638H341ZM340.237 86.4126C340.153 86.3921 340.069 86.3656 339.987 86.3329L339.249 88.1918C339.418 88.259 339.59 88.3135 339.763 88.3557L340.237 86.4126ZM339.525 86.0713C339.454 86.0178 339.385 85.958 339.316 85.8912L337.918 87.3213C338.046 87.4461 338.179 87.5608 338.317 87.6654L339.525 86.0713ZM339.316 85.8912L336.692 83.3256L335.294 84.7558L337.918 87.3213L339.316 85.8912ZM331.443 78.1945L326.195 73.0635L324.797 74.4936L330.045 79.6247L331.443 78.1945ZM320.946 67.9324L318.322 65.3669L316.924 66.797L319.548 69.3625L320.946 67.9324ZM318.322 65.3669C318.124 65.173 317.976 64.9503 317.876 64.7133L316.032 65.4883C316.234 65.9669 316.532 66.4133 316.924 66.797L318.322 65.3669ZM317.876 63.1602C317.976 62.9231 318.124 62.7005 318.322 62.5066L316.924 61.0765C316.532 61.4601 316.234 61.9066 316.032 62.3852L317.876 63.1602ZM318.322 62.5066L320.946 59.9411L319.548 58.5109L316.924 61.0765L318.322 62.5066ZM326.195 54.81L331.443 49.6789L330.045 48.2488L324.797 53.3799L326.195 54.81ZM336.692 44.5478L339.316 41.9823L337.918 40.5522L335.294 43.1177L336.692 44.5478ZM339.316 41.9823C339.385 41.9155 339.454 41.8556 339.525 41.8022L338.317 40.208C338.179 40.3126 338.046 40.4273 337.918 40.5522L339.316 41.9823ZM339.987 41.5405C340.069 41.5078 340.153 41.4814 340.237 41.4609L339.763 39.5177C339.59 39.56 339.418 39.6145 339.249 39.6817L339.987 41.5405ZM341 40.4893V35.367H339V40.4893H341ZM341 25.1223V20H339V25.1223H341ZM341 20C341 18.5103 340.703 17.0874 340.165 15.7891L338.317 16.5552C338.757 17.615 339 18.7778 339 20H341ZM334.211 9.83508C332.913 9.29667 331.49 9 330 9V11C331.222 11 332.385 11.2431 333.445 11.6825L334.211 9.83508ZM330 9H325.921V11H330V9ZM317.763 9H309.605V11H317.763V9ZM301.447 9H293.289V11H301.447V9ZM285.132 9H276.974V11H285.132V9ZM268.816 9H260.658V11H268.816V9ZM252.5 9H244.342V11H252.5V9ZM236.184 9H228.026V11H236.184V9ZM219.868 9H211.711V11H219.868V9ZM203.553 9H195.395V11H203.553V9ZM187.237 9H179.079V11H187.237V9ZM170.921 9H162.763V11H170.921V9ZM154.605 9H146.447V11H154.605V9ZM138.289 9H130.132V11H138.289V9ZM121.974 9H113.816V11H121.974V9ZM105.658 9H97.4999V11H105.658V9ZM89.342 9H81.1841V11H89.342V9ZM73.0262 9H64.8683V11H73.0262V9ZM56.7104 9H48.5526V11H56.7104V9ZM40.3947 9H32.2368V11H40.3947V9ZM24.0789 9H20V11H24.0789V9ZM20 9C18.5103 9 17.0874 9.29667 15.7891 9.83508L16.5552 11.6825C17.615 11.2431 18.7778 11 20 11V9ZM9.83508 15.7891C9.29667 17.0874 9 18.5103 9 20H11C11 18.7778 11.2431 17.615 11.6825 16.5552L9.83508 15.7891Z" fill="#E5E5E5" mask="url(#path-2-inside-1)"/>
</svg>
