<svg width="25" height="25" viewBox="0 0 25 25" fill="none" xmlns="http://www.w3.org/2000/svg">
<path d="M14.5833 2.25H10.4167C10.1867 2.25 10 2.43667 10 2.66665C10 2.89663 10.1867 3.0833 10.4167 3.0833H14.5833C14.8133 3.0833 15 2.89663 15 2.66665C15 2.43667 14.8133 2.25 14.5833 2.25Z" fill="#FCCB05"/>
<path d="M17.5003 2.25H17.0836C16.8537 2.25 16.667 2.43667 16.667 2.66665C16.667 2.89663 16.8537 3.0833 17.0836 3.0833H17.5003C17.7303 3.0833 17.9169 2.89663 17.9169 2.66665C17.9169 2.43667 17.7303 2.25 17.5003 2.25Z" fill="#FCCB05"/>
<path d="M13.0171 20.25H11.9826C11.3488 20.25 10.833 20.7658 10.833 21.3996V21.6008C10.833 22.2346 11.3488 22.75 11.9822 22.75H13.0167C13.6505 22.75 14.1663 22.2346 14.1663 21.6008V21.3996C14.1663 20.7658 13.6505 20.25 13.0171 20.25ZM13.333 21.6008C13.333 21.775 13.1914 21.9167 13.0172 21.9167H11.9826C11.808 21.9167 11.6663 21.775 11.6663 21.6008V21.3996C11.6663 21.225 11.808 21.0833 11.9826 21.0833H13.0167C13.1914 21.0833 13.333 21.225 13.333 21.3996V21.6008Z" fill="#FCCB05"/>
<path d="M18.0778 0H6.92324C6.09282 0 5.41699 0.67583 5.41699 1.50625V23.4937C5.41699 24.3242 6.09282 25 6.92324 25H18.0774C18.9078 25 19.5836 24.3242 19.5836 23.4942V1.50625C19.5837 0.67583 18.9079 0 18.0778 0ZM18.7503 23.4937C18.7503 23.8646 18.4487 24.1667 18.0778 24.1667H6.92324C6.552 24.1667 6.25034 23.8646 6.25034 23.4941V1.50625C6.25034 1.1354 6.552 0.83335 6.92324 0.83335H18.0774C18.4486 0.83335 18.7503 1.13545 18.7503 1.50625V23.4937H18.7503Z" fill="#FCCB05"/>
</svg>
