<svg width="25" height="25" viewBox="0 0 25 25" fill="none" xmlns="http://www.w3.org/2000/svg">
<path d="M12.4998 0C7.40741 0 3.26465 4.14276 3.26465 9.23512C3.26465 10.9116 4.0165 12.7146 4.048 12.7906C4.29083 13.367 4.76997 14.2623 5.11547 14.787L11.4475 24.3812C11.7066 24.7746 12.0902 25 12.4998 25C12.9094 25 13.2929 24.7746 13.552 24.3818L19.8846 14.787C20.2306 14.2623 20.7092 13.367 20.9521 12.7906C20.9836 12.7151 21.7349 10.9121 21.7349 9.23512C21.7349 4.14276 17.5921 0 12.4998 0ZM19.9503 12.3691C19.7336 12.8857 19.2876 13.7185 18.9774 14.1889L12.6448 23.7837C12.5199 23.9733 12.4802 23.9733 12.3553 23.7837L6.02269 14.1889C5.7125 13.7185 5.2665 12.8852 5.04974 12.3685C5.04051 12.3463 4.35113 10.6867 4.35113 9.23512C4.35113 4.74196 8.00661 1.08648 12.4998 1.08648C16.9929 1.08648 20.6484 4.74196 20.6484 9.23512C20.6484 10.6888 19.9574 12.3528 19.9503 12.3691Z" fill="#FCCB05"/>
<path d="M12.4995 4.34668C9.80342 4.34668 7.61035 6.54029 7.61035 9.23586C7.61035 11.9314 9.80342 14.125 12.4995 14.125C15.1956 14.125 17.3887 11.9314 17.3887 9.23586C17.3887 6.54029 15.1956 4.34668 12.4995 4.34668ZM12.4995 13.0386C10.4032 13.0386 8.69683 11.3328 8.69683 9.23586C8.69683 7.13894 10.4032 5.43316 12.4995 5.43316C14.5959 5.43316 16.3022 7.13894 16.3022 9.23586C16.3022 11.3328 14.5959 13.0386 12.4995 13.0386Z" fill="#FCCB05"/>
</svg>
