<svg width="310" height="335" viewBox="0 0 310 335" fill="none" xmlns="http://www.w3.org/2000/svg">
<path fill-rule="evenodd" clip-rule="evenodd" d="M8.85714 0C3.96548 0 0 3.96548 0 8.85715V325.943C0 330.835 3.96548 334.8 8.85714 334.8H301.143C306.035 334.8 310 330.835 310 325.943V77.6009C309.972 77.5761 309.945 77.5506 309.918 77.5243L289.814 57.9576C288.742 56.9144 288.742 55.1925 289.814 54.1493L309.918 34.5826C309.945 34.5563 309.972 34.5308 310 34.506V8.85714C310 3.96548 306.035 0 301.143 0H8.85714Z" fill="white"/>
<mask id="path-2-inside-1" fill="white">
<path fill-rule="evenodd" clip-rule="evenodd" d="M17.7146 8.85742C12.8229 8.85742 8.85742 12.8229 8.85742 17.7146V317.086C8.85742 321.978 12.8229 325.943 17.7146 325.943H292.286C297.178 325.943 301.143 321.978 301.143 317.086V77.3978C300.708 77.2917 300.285 77.0679 299.918 76.7088L281.323 58.5301C280.257 57.4878 280.257 55.7724 281.323 54.73L299.918 36.5514C300.285 36.1923 300.708 35.9684 301.143 35.8623V17.7146C301.143 12.8229 297.178 8.85742 292.286 8.85742H17.7146Z"/>
</mask>
<path fill-rule="evenodd" clip-rule="evenodd" d="M17.7146 8.85742C12.8229 8.85742 8.85742 12.8229 8.85742 17.7146V317.086C8.85742 321.978 12.8229 325.943 17.7146 325.943H292.286C297.178 325.943 301.143 321.978 301.143 317.086V77.3978C300.708 77.2917 300.285 77.0679 299.918 76.7088L281.323 58.5301C280.257 57.4878 280.257 55.7724 281.323 54.73L299.918 36.5514C300.285 36.1923 300.708 35.9684 301.143 35.8623V17.7146C301.143 12.8229 297.178 8.85742 292.286 8.85742H17.7146Z" fill="white"/>
<path d="M301.143 77.3978H301.586V77.0499L301.248 76.9676L301.143 77.3978ZM299.918 76.7088L299.609 77.0254V77.0255L299.918 76.7088ZM281.323 58.5301L281.633 58.2134L281.323 58.5301ZM281.323 54.73L281.633 55.0467V55.0467L281.323 54.73ZM299.918 36.5514L299.609 36.2347V36.2347L299.918 36.5514ZM301.143 35.8623L301.248 36.2926L301.586 36.2102V35.8623H301.143ZM8.41456 17.7146V21.2785H9.30028V17.7146H8.41456ZM8.41456 28.4064V35.5343H9.30028V28.4064H8.41456ZM8.41456 42.6622V49.7901H9.30028V42.6622H8.41456ZM8.41456 56.918V64.0458H9.30028V56.918H8.41456ZM8.41456 71.1737V78.3016H9.30028V71.1737H8.41456ZM8.41456 85.4295V92.5574H9.30028V85.4295H8.41456ZM8.41456 99.6853V106.813H9.30028V99.6853H8.41456ZM8.41456 113.941V121.069H9.30028V113.941H8.41456ZM8.41456 128.197V135.325H9.30028V128.197H8.41456ZM8.41456 142.453V149.581H9.30028V142.453H8.41456ZM8.41456 156.708V163.836H9.30028V156.708H8.41456ZM8.41456 170.964V178.092H9.30028V170.964H8.41456ZM8.41456 185.22V192.348H9.30028V185.22H8.41456ZM8.41456 199.476V206.604H9.30028V199.476H8.41456ZM8.41456 213.732V220.859H9.30028V213.732H8.41456ZM8.41456 227.987V235.115H9.30028V227.987H8.41456ZM8.41456 242.243V249.371H9.30028V242.243H8.41456ZM8.41456 256.499V263.627H9.30028V256.499H8.41456ZM8.41456 270.755V277.882H9.30028V270.755H8.41456ZM8.41456 285.01V292.138H9.30028V285.01H8.41456ZM8.41456 299.266V306.394H9.30028V299.266H8.41456ZM8.41456 313.522V317.086H9.30028V313.522H8.41456ZM8.41456 317.086C8.41456 318.346 8.66545 319.549 9.12043 320.646L9.93858 320.307C9.52743 319.315 9.30028 318.228 9.30028 317.086H8.41456ZM14.1545 325.68C15.2517 326.135 16.4544 326.386 17.7146 326.386V325.5C16.5728 325.5 15.4853 325.273 14.4938 324.862L14.1545 325.68ZM17.7146 326.386H21.3273V325.5H17.7146V326.386ZM28.5529 326.386H35.7785V325.5H28.5529V326.386ZM43.004 326.386H50.2296V325.5H43.004V326.386ZM57.4552 326.386H64.6807V325.5H57.4552V326.386ZM71.9063 326.386H79.1318V325.5H71.9063V326.386ZM86.3574 326.386H93.583V325.5H86.3574V326.386ZM100.809 326.386H108.034V325.5H100.809V326.386ZM115.26 326.386H122.485V325.5H115.26V326.386ZM129.711 326.386H136.936V325.5H129.711V326.386ZM144.162 326.386H151.387V325.5H144.162V326.386ZM158.613 326.386H165.839V325.5H158.613V326.386ZM173.064 326.386H180.29V325.5H173.064V326.386ZM187.515 326.386H194.741V325.5H187.515V326.386ZM201.966 326.386H209.192V325.5H201.966V326.386ZM216.418 326.386H223.643V325.5H216.418V326.386ZM230.869 326.386H238.094V325.5H230.869V326.386ZM245.32 326.386H252.545V325.5H245.32V326.386ZM259.771 326.386H266.997V325.5H259.771V326.386ZM274.222 326.386H281.448V325.5H274.222V326.386ZM288.673 326.386H292.286V325.5H288.673V326.386ZM292.286 326.386C293.546 326.386 294.749 326.135 295.846 325.68L295.507 324.862C294.515 325.273 293.428 325.5 292.286 325.5V326.386ZM300.88 320.646C301.335 319.549 301.586 318.346 301.586 317.086H300.7C300.7 318.228 300.473 319.315 300.062 320.307L300.88 320.646ZM301.586 317.086V313.561H300.7V317.086H301.586ZM301.586 306.512V299.462H300.7V306.512H301.586ZM301.586 292.412V285.363H300.7V292.412H301.586ZM301.586 278.313V271.263H300.7V278.313H301.586ZM301.586 264.214V257.164H300.7V264.214H301.586ZM301.586 250.114V243.065H300.7V250.114H301.586ZM301.586 236.015V228.965H300.7V236.015H301.586ZM301.586 221.916V214.866H300.7V221.916H301.586ZM301.586 207.816V200.767H300.7V207.816H301.586ZM301.586 193.717V186.667H300.7V193.717H301.586ZM301.586 179.618V172.568H300.7V179.618H301.586ZM301.586 165.518V158.469H300.7V165.518H301.586ZM301.586 151.419V144.37H300.7V151.419H301.586ZM301.586 137.32V130.27H300.7V137.32H301.586ZM301.586 123.221V116.171H300.7V123.221H301.586ZM301.586 109.121V102.072H300.7V109.121H301.586ZM301.586 95.022V87.9723H300.7V95.022H301.586ZM301.586 80.9227V77.3978H300.7V80.9227H301.586ZM301.248 76.9676C301.154 76.9446 301.06 76.915 300.968 76.8784L300.641 77.7016C300.772 77.7535 300.905 77.7955 301.038 77.8281L301.248 76.9676ZM300.455 76.588C300.377 76.5293 300.301 76.4641 300.228 76.3921L299.609 77.0255C299.709 77.1232 299.812 77.2126 299.92 77.294L300.455 76.588ZM300.228 76.3921L297.903 74.1198L297.284 74.7531L299.609 77.0254L300.228 76.3921ZM293.255 69.5751L288.606 65.0304L287.987 65.6638L292.635 70.2084L293.255 69.5751ZM283.957 60.4858L281.633 58.2134L281.014 58.8468L283.338 61.1191L283.957 60.4858ZM281.633 58.2134C281.414 57.9997 281.25 57.7529 281.139 57.4895L280.323 57.8327C280.478 58.2031 280.709 58.549 281.014 58.8468L281.633 58.2134ZM281.139 55.7707C281.25 55.5072 281.414 55.2605 281.633 55.0467L281.014 54.4134C280.709 54.7112 280.478 55.057 280.323 55.4274L281.139 55.7707ZM281.633 55.0467L283.957 52.7744L283.338 52.141L281.014 54.4134L281.633 55.0467ZM288.606 48.2297L293.255 43.685L292.635 43.0517L287.987 47.5964L288.606 48.2297ZM297.903 39.1404L300.228 36.868L299.609 36.2347L297.284 38.507L297.903 39.1404ZM300.228 36.868C300.301 36.796 300.377 36.7308 300.455 36.6722L299.92 35.9662C299.812 36.0475 299.709 36.137 299.609 36.2347L300.228 36.868ZM300.968 36.3818C301.06 36.3452 301.154 36.3155 301.248 36.2926L301.038 35.432C300.905 35.4646 300.772 35.5066 300.641 35.5585L300.968 36.3818ZM301.586 35.8623V31.3254H300.7V35.8623H301.586ZM301.586 22.2515V17.7146H300.7V22.2515H301.586ZM301.586 17.7146C301.586 16.4544 301.335 15.2517 300.88 14.1545L300.062 14.4938C300.473 15.4853 300.7 16.5728 300.7 17.7146H301.586ZM295.846 9.12042C294.749 8.66545 293.546 8.41456 292.286 8.41456V9.30028C293.428 9.30028 294.515 9.52743 295.507 9.93858L295.846 9.12042ZM292.286 8.41456H288.673V9.30028H292.286V8.41456ZM281.448 8.41456H274.222V9.30028H281.448V8.41456ZM266.997 8.41456H259.771V9.30028H266.997V8.41456ZM252.545 8.41456H245.32V9.30028H252.545V8.41456ZM238.094 8.41456H230.869V9.30028H238.094V8.41456ZM223.643 8.41456H216.418V9.30028H223.643V8.41456ZM209.192 8.41456H201.966V9.30028H209.192V8.41456ZM194.741 8.41456H187.515V9.30028H194.741V8.41456ZM180.29 8.41456H173.064V9.30028H180.29V8.41456ZM165.839 8.41456H158.613V9.30028H165.839V8.41456ZM151.387 8.41456H144.162V9.30028H151.387V8.41456ZM136.936 8.41456H129.711V9.30028H136.936V8.41456ZM122.485 8.41456H115.26V9.30028H122.485V8.41456ZM108.034 8.41456H100.808V9.30028H108.034V8.41456ZM93.5829 8.41456H86.3573V9.30028H93.5829V8.41456ZM79.1318 8.41456H71.9062V9.30028H79.1318V8.41456ZM64.6806 8.41456H57.4551V9.30028H64.6806V8.41456ZM50.2295 8.41456H43.0039V9.30028H50.2295V8.41456ZM35.7783 8.41456H28.5528V9.30028H35.7783V8.41456ZM21.3272 8.41456H17.7146V9.30028H21.3272V8.41456ZM17.7146 8.41456C16.4544 8.41456 15.2517 8.66545 14.1545 9.12043L14.4938 9.93858C15.4853 9.52743 16.5728 9.30028 17.7146 9.30028V8.41456ZM9.12043 14.1545C8.66546 15.2517 8.41456 16.4544 8.41456 17.7146H9.30028C9.30028 16.5728 9.52743 15.4853 9.93859 14.4938L9.12043 14.1545ZM301.143 77.3978H302.029V76.702L301.353 76.5373L301.143 77.3978ZM299.918 76.7088L299.299 77.3421L299.299 77.3421L299.918 76.7088ZM281.323 58.5301L281.942 57.8967L281.323 58.5301ZM281.323 54.73L281.942 55.3634L281.323 54.73ZM299.918 36.5514L299.299 35.918L299.299 35.918L299.918 36.5514ZM301.143 35.8623L301.353 36.7228L302.029 36.5581V35.8623H301.143ZM7.97171 17.7146V21.2785H9.74314V17.7146H7.97171ZM7.97171 28.4064V35.5343H9.74314V28.4064H7.97171ZM7.97171 42.6622V49.7901H9.74314V42.6622H7.97171ZM7.97171 56.918V64.0458H9.74314V56.918H7.97171ZM7.97171 71.1737V78.3016H9.74314V71.1737H7.97171ZM7.97171 85.4295V92.5574H9.74314V85.4295H7.97171ZM7.97171 99.6853V106.813H9.74314V99.6853H7.97171ZM7.97171 113.941V121.069H9.74314V113.941H7.97171ZM7.97171 128.197V135.325H9.74314V128.197H7.97171ZM7.97171 142.453V149.581H9.74314V142.453H7.97171ZM7.97171 156.708V163.836H9.74314V156.708H7.97171ZM7.97171 170.964V178.092H9.74314V170.964H7.97171ZM7.97171 185.22V192.348H9.74314V185.22H7.97171ZM7.97171 199.476V206.604H9.74314V199.476H7.97171ZM7.97171 213.732V220.859H9.74314V213.732H7.97171ZM7.97171 227.987V235.115H9.74314V227.987H7.97171ZM7.97171 242.243V249.371H9.74314V242.243H7.97171ZM7.97171 256.499V263.627H9.74314V256.499H7.97171ZM7.97171 270.755V277.882H9.74314V270.755H7.97171ZM7.97171 285.01V292.138H9.74314V285.01H7.97171ZM7.97171 299.266V306.394H9.74314V299.266H7.97171ZM7.97171 313.522V317.086H9.74314V313.522H7.97171ZM7.97171 317.086C7.97171 318.405 8.23447 319.666 8.71135 320.816L10.3477 320.137C9.95841 319.198 9.74314 318.168 9.74314 317.086H7.97171ZM13.9849 326.089C15.1349 326.566 16.3951 326.829 17.7146 326.829V325.057C16.6321 325.057 15.6021 324.842 14.6634 324.453L13.9849 326.089ZM17.7146 326.829H21.3273V325.057H17.7146V326.829ZM28.5529 326.829H35.7785V325.057H28.5529V326.829ZM43.004 326.829H50.2296V325.057H43.004V326.829ZM57.4552 326.829H64.6807V325.057H57.4552V326.829ZM71.9063 326.829H79.1318V325.057H71.9063V326.829ZM86.3574 326.829H93.583V325.057H86.3574V326.829ZM100.809 326.829H108.034V325.057H100.809V326.829ZM115.26 326.829H122.485V325.057H115.26V326.829ZM129.711 326.829H136.936V325.057H129.711V326.829ZM144.162 326.829H151.387V325.057H144.162V326.829ZM158.613 326.829H165.839V325.057H158.613V326.829ZM173.064 326.829H180.29V325.057H173.064V326.829ZM187.515 326.829H194.741V325.057H187.515V326.829ZM201.966 326.829H209.192V325.057H201.966V326.829ZM216.418 326.829H223.643V325.057H216.418V326.829ZM230.869 326.829H238.094V325.057H230.869V326.829ZM245.32 326.829H252.545V325.057H245.32V326.829ZM259.771 326.829H266.997V325.057H259.771V326.829ZM274.222 326.829H281.448V325.057H274.222V326.829ZM288.673 326.829H292.286V325.057H288.673V326.829ZM292.286 326.829C293.605 326.829 294.866 326.566 296.016 326.089L295.337 324.453C294.398 324.842 293.368 325.057 292.286 325.057V326.829ZM301.289 320.816C301.766 319.666 302.029 318.405 302.029 317.086H300.257C300.257 318.168 300.042 319.198 299.653 320.137L301.289 320.816ZM302.029 317.086V313.561H300.257V317.086H302.029ZM302.029 306.512V299.462H300.257V306.512H302.029ZM302.029 292.412V285.363H300.257V292.412H302.029ZM302.029 278.313V271.263H300.257V278.313H302.029ZM302.029 264.214V257.164H300.257V264.214H302.029ZM302.029 250.114V243.065H300.257V250.114H302.029ZM302.029 236.015V228.965H300.257V236.015H302.029ZM302.029 221.916V214.866H300.257V221.916H302.029ZM302.029 207.816V200.767H300.257V207.816H302.029ZM302.029 193.717V186.667H300.257V193.717H302.029ZM302.029 179.618V172.568H300.257V179.618H302.029ZM302.029 165.518V158.469H300.257V165.518H302.029ZM302.029 151.419V144.37H300.257V151.419H302.029ZM302.029 137.32V130.27H300.257V137.32H302.029ZM302.029 123.221V116.171H300.257V123.221H302.029ZM302.029 109.121V102.072H300.257V109.121H302.029ZM302.029 95.022V87.9723H300.257V95.022H302.029ZM302.029 80.9227V77.3978H300.257V80.9227H302.029ZM301.353 76.5373C301.278 76.5191 301.204 76.4957 301.131 76.4667L300.478 78.1132C300.628 78.1727 300.78 78.221 300.934 78.2584L301.353 76.5373ZM300.722 76.235C300.66 76.1876 300.598 76.1346 300.537 76.0754L299.299 77.3421C299.412 77.4527 299.53 77.5543 299.652 77.647L300.722 76.235ZM300.537 76.0754L298.213 73.8031L296.975 75.0698L299.299 77.3421L300.537 76.0754ZM293.564 69.2584L288.916 64.7138L287.677 65.9804L292.326 70.5251L293.564 69.2584ZM284.267 60.1691L281.942 57.8967L280.704 59.1634L283.028 61.4358L284.267 60.1691ZM281.942 57.8967C281.767 57.725 281.636 57.5278 281.547 57.3178L279.914 58.0043C280.093 58.4282 280.357 58.8236 280.704 59.1634L281.942 57.8967ZM281.547 55.9423C281.636 55.7323 281.767 55.5351 281.942 55.3634L280.704 54.0967C280.357 54.4365 280.093 54.8319 279.914 55.2558L281.547 55.9423ZM281.942 55.3634L284.267 53.091L283.028 51.8244L280.704 54.0967L281.942 55.3634ZM288.916 48.5464L293.564 44.0017L292.326 42.735L287.677 47.2797L288.916 48.5464ZM298.213 39.457L300.537 37.1847L299.299 35.918L296.975 38.1903L298.213 39.457ZM300.537 37.1847C300.598 37.1255 300.66 37.0725 300.722 37.0252L299.652 35.6132C299.53 35.7058 299.412 35.8074 299.299 35.918L300.537 37.1847ZM301.131 36.7934C301.204 36.7644 301.278 36.741 301.353 36.7228L300.934 35.0017C300.78 35.0391 300.628 35.0874 300.478 35.1469L301.131 36.7934ZM302.029 35.8623V31.3254H300.257V35.8623H302.029ZM302.029 22.2515V17.7146H300.257V22.2515H302.029ZM302.029 17.7146C302.029 16.3951 301.766 15.1349 301.289 13.9849L299.653 14.6634C300.042 15.6021 300.257 16.6321 300.257 17.7146H302.029ZM296.016 8.71134C294.866 8.23447 293.605 7.97171 292.286 7.97171V9.74314C293.368 9.74314 294.398 9.95841 295.337 10.3477L296.016 8.71134ZM292.286 7.97171H288.673V9.74314H292.286V7.97171ZM281.448 7.97171H274.222V9.74314H281.448V7.97171ZM266.997 7.97171H259.771V9.74314H266.997V7.97171ZM252.545 7.97171H245.32V9.74314H252.545V7.97171ZM238.094 7.97171H230.869V9.74314H238.094V7.97171ZM223.643 7.97171H216.418V9.74314H223.643V7.97171ZM209.192 7.97171H201.966V9.74314H209.192V7.97171ZM194.741 7.97171H187.515V9.74314H194.741V7.97171ZM180.29 7.97171H173.064V9.74314H180.29V7.97171ZM165.839 7.97171H158.613V9.74314H165.839V7.97171ZM151.387 7.97171H144.162V9.74314H151.387V7.97171ZM136.936 7.97171H129.711V9.74314H136.936V7.97171ZM122.485 7.97171H115.26V9.74314H122.485V7.97171ZM108.034 7.97171H100.808V9.74314H108.034V7.97171ZM93.5829 7.97171H86.3573V9.74314H93.5829V7.97171ZM79.1318 7.97171H71.9062V9.74314H79.1318V7.97171ZM64.6806 7.97171H57.4551V9.74314H64.6806V7.97171ZM50.2295 7.97171H43.0039V9.74314H50.2295V7.97171ZM35.7783 7.97171H28.5528V9.74314H35.7783V7.97171ZM21.3272 7.97171H17.7146V9.74314H21.3272V7.97171ZM17.7146 7.97171C16.3951 7.97171 15.1349 8.23447 13.9849 8.71135L14.6634 10.3477C15.6021 9.95842 16.6321 9.74314 17.7146 9.74314V7.97171ZM8.71135 13.9849C8.23447 15.1349 7.97171 16.3951 7.97171 17.7146H9.74314C9.74314 16.6321 9.95842 15.6021 10.3477 14.6634L8.71135 13.9849Z" fill="#E5E5E5" mask="url(#path-2-inside-1)"/>
</svg>
