<svg width="19" height="19" viewBox="0 0 19 19" fill="none" xmlns="http://www.w3.org/2000/svg">
<path d="M9.49996 3.09804C9.72713 3.09804 9.913 2.91217 9.913 2.68499V2.47847C9.913 2.2513 9.72713 2.06543 9.49996 2.06543C9.27278 2.06543 9.08691 2.2513 9.08691 2.47847V2.68499C9.08691 2.91217 9.27278 3.09804 9.49996 3.09804Z" fill="#FCCB05"/>
<path d="M9.49996 15.9023C9.27278 15.9023 9.08691 16.0882 9.08691 16.3154V16.5219C9.08691 16.7491 9.27278 16.935 9.49996 16.935C9.72713 16.935 9.913 16.7491 9.913 16.5219V16.3154C9.913 16.0882 9.72713 15.9023 9.49996 15.9023Z" fill="#FCCB05"/>
<path d="M2.68499 9.08691H2.47847C2.2513 9.08691 2.06543 9.27278 2.06543 9.49996C2.06543 9.72713 2.2513 9.913 2.47847 9.913H2.68499C2.91217 9.913 3.09804 9.72713 3.09804 9.49996C3.09804 9.27278 2.91217 9.08691 2.68499 9.08691Z" fill="#FCCB05"/>
<path d="M16.5219 9.08691H16.3154C16.0882 9.08691 15.9023 9.27278 15.9023 9.49996C15.9023 9.72713 16.0882 9.913 16.3154 9.913H16.5219C16.7491 9.913 16.935 9.72713 16.935 9.49996C16.935 9.27278 16.7491 9.08691 16.5219 9.08691Z" fill="#FCCB05"/>
<path d="M4.83303 4.25477C4.66782 4.08956 4.41999 4.08956 4.25477 4.25477C4.08955 4.41999 4.08955 4.66782 4.25477 4.83303L4.39934 4.9776C4.48195 5.06021 4.58521 5.10151 4.68847 5.10151C4.79173 5.10151 4.89499 5.06021 4.9776 4.9776C5.14282 4.81238 5.14282 4.56455 4.9776 4.39934L4.83303 4.25477Z" fill="#FCCB05"/>
<path d="M4.39934 14.0224L4.25477 14.1669C4.08955 14.3321 4.08955 14.58 4.25477 14.7452C4.33738 14.8278 4.44064 14.8691 4.5439 14.8691C4.64716 14.8691 4.75043 14.8278 4.83303 14.7452L4.9776 14.6006C5.14282 14.4354 5.14282 14.1876 4.9776 14.0224C4.81238 13.8571 4.56456 13.8571 4.39934 14.0224Z" fill="#FCCB05"/>
<path d="M14.1679 4.25477L14.0233 4.39934C13.8581 4.56455 13.8581 4.81238 14.0233 4.9776C14.1059 5.06021 14.2092 5.10151 14.3125 5.10151C14.4157 5.10151 14.519 5.06021 14.6016 4.9776L14.7462 4.83303C14.9114 4.66782 14.9114 4.41999 14.7462 4.25477C14.5809 4.08956 14.3331 4.08956 14.1679 4.25477Z" fill="#FCCB05"/>
<path d="M9.913 9.33483V5.57613C9.913 5.34896 9.72713 5.16309 9.49996 5.16309C9.27278 5.16309 9.08691 5.34896 9.08691 5.57613V9.50004C9.08691 9.6033 9.12822 9.70656 9.21083 9.78917L13.7336 14.312C13.8162 14.3946 13.9195 14.4359 14.0228 14.4359C14.126 14.4359 14.2293 14.3946 14.3119 14.312C14.4771 14.1468 14.4771 13.899 14.3119 13.7337L9.913 9.33483Z" fill="#FCCB05"/>
<path d="M9.5 0C4.25435 0 0 4.25435 0 9.5C0 14.7457 4.25435 19 9.5 19C14.7457 19 19 14.7457 19 9.5C19 4.25435 14.7457 0 9.5 0ZM9.5 18.1739C4.7087 18.1739 0.826087 14.2913 0.826087 9.5C0.826087 4.7087 4.7087 0.826087 9.5 0.826087C14.2913 0.826087 18.1739 4.7087 18.1739 9.5C18.1739 14.2913 14.2913 18.1739 9.5 18.1739Z" fill="#FCCB05"/>
</svg>
