<svg width="26" height="22" viewBox="0 0 26 22" fill="none" xmlns="http://www.w3.org/2000/svg">
<path d="M12.9999 13.5294C12.8329 13.5294 12.6738 13.4582 12.5626 13.3335L10.0613 10.529C9.88754 10.3342 9.86357 10.0479 10.0026 9.82702L12.504 5.84991C12.6112 5.6794 12.7985 5.57593 13 5.57593C13.2014 5.57593 13.3887 5.6794 13.496 5.84991L15.9973 9.82702C16.1363 10.048 16.1124 10.3342 15.9386 10.529L13.4373 13.3335C13.326 13.4582 13.167 13.5294 12.9999 13.5294ZM11.2292 10.0779L12.9999 12.0633L14.7707 10.0779L12.9999 7.26243L11.2292 10.0779Z" fill="url(#paint0_linear)"/>
<path d="M9.2893 16.9441C9.04819 16.9441 8.82565 16.7899 8.74086 16.5643C8.6559 16.3383 8.72159 16.0771 8.90294 15.9178C9.09465 15.7494 9.38165 15.7258 9.5985 15.8604C9.80657 15.9896 9.91291 16.2429 9.86159 16.4818C9.8044 16.7481 9.56159 16.9441 9.2893 16.9441Z" fill="url(#paint1_linear)"/>
<path d="M25.5044 2.26746C25.3032 2.13809 25.0437 2.14389 24.8486 2.28217L21.019 4.99646L19.8609 2.40639C19.7909 2.24988 19.6558 2.13182 19.4913 2.08342C19.3267 2.03502 19.1494 2.06115 19.0057 2.15484L15.9469 4.15102L13.4952 0.272812C13.3878 0.102949 13.2009 0 12.9999 0C12.799 0 12.6121 0.102949 12.5047 0.272812L10.053 4.15102L6.99414 2.15484C6.85053 2.06109 6.67317 2.03508 6.50858 2.08342C6.34404 2.13182 6.20904 2.24982 6.13902 2.40639L4.98092 4.99646L1.15129 2.28217C0.956232 2.14383 0.696603 2.13809 0.495509 2.26746C0.294357 2.39684 0.192052 2.63549 0.237052 2.87039L2.71985 15.8396V15.8398L3.01188 20.2211C3.03033 20.4989 3.24186 20.7253 3.51772 20.7628C6.66367 21.1895 9.83184 21.4029 12.9999 21.4029C16.168 21.4029 19.3362 21.1895 22.4822 20.7628C22.758 20.7253 22.9695 20.4989 22.988 20.2211L23.28 15.8398C23.28 15.8397 23.28 15.8396 23.28 15.8396L25.7628 2.87039C25.8078 2.63549 25.7055 2.39684 25.5044 2.26746ZM19.0713 3.51141L20.0441 5.68734L17.8854 7.2174L16.5732 5.14166L19.0713 3.51141ZM6.92863 3.51141L9.42672 5.14166L8.11445 7.2174L5.95574 5.68734L6.92863 3.51141ZM22.1971 15.2638L21.3273 15.369C18.2285 15.7438 15.0748 15.9098 11.9538 15.8628C11.9508 15.8628 11.9478 15.8628 11.9448 15.8628C11.6253 15.8628 11.3639 16.1193 11.3591 16.4399C11.3542 16.7634 11.6126 17.0297 11.9362 17.0346C12.2871 17.0399 12.6381 17.0425 12.9897 17.0425C15.8181 17.0425 18.6654 16.8714 21.468 16.5324L22.0642 16.4603L21.8506 19.6642C15.9748 20.4202 10.025 20.4202 4.14918 19.6642L3.93561 16.4603L4.5318 16.5324C5.20059 16.6133 5.87992 16.6855 6.55094 16.7471C6.87256 16.7772 7.15838 16.5395 7.18797 16.2172C7.21756 15.895 6.98031 15.6098 6.65805 15.5802C5.99817 15.5196 5.3302 15.4485 4.67248 15.369L3.80272 15.2638L1.66182 4.08035L7.94084 8.53072C8.07197 8.62365 8.23545 8.65869 8.39336 8.62746C8.55104 8.59629 8.68902 8.50166 8.77492 8.36572L12.9999 1.68246L17.225 8.36572C17.3109 8.5016 17.4488 8.59629 17.6065 8.62746C17.7643 8.65869 17.9278 8.62365 18.059 8.53072L24.3381 4.08035L22.1971 15.2638Z" fill="url(#paint2_linear)"/>
<defs>
<linearGradient id="paint0_linear" x1="12.9157" y1="13.5294" x2="12.9157" y2="5.57593" gradientUnits="userSpaceOnUse">
<stop stop-color="#FCCB05"/>
<stop offset="1" stop-color="#FFE57D"/>
</linearGradient>
<linearGradient id="paint1_linear" x1="9.27328" y1="16.9441" x2="9.27328" y2="15.7734" gradientUnits="userSpaceOnUse">
<stop stop-color="#FCCB05"/>
<stop offset="1" stop-color="#FFE57D"/>
</linearGradient>
<linearGradient id="paint2_linear" x1="12.6516" y1="21.4029" x2="12.6516" y2="-5.76416e-07" gradientUnits="userSpaceOnUse">
<stop stop-color="#FCCB05"/>
<stop offset="1" stop-color="#FFE57D"/>
</linearGradient>
</defs>
</svg>
