<svg width="25" height="25" viewBox="0 0 25 25" fill="none" xmlns="http://www.w3.org/2000/svg">
<g clip-path="url(#clip0)">
<path d="M12.4998 4.55552C11.8152 4.55552 11.1563 4.76148 10.5943 5.15112C10.4282 5.26631 10.3862 5.49536 10.5005 5.66275C10.6148 5.83013 10.8422 5.87241 11.0083 5.75728C11.448 5.45244 11.9637 5.29131 12.4998 5.29131C13.9526 5.29131 15.1346 6.48213 15.1346 7.94585C15.1346 9.40957 13.9526 10.6004 12.4998 10.6004C11.047 10.6004 9.86504 9.40957 9.86504 7.94585C9.86504 7.51406 9.96455 7.10244 10.1608 6.72246C10.2539 6.54219 10.1843 6.32007 10.0054 6.22632C9.82647 6.13262 9.6061 6.20259 9.51299 6.38286C9.26558 6.86196 9.13477 7.40244 9.13477 7.94585C9.13481 9.81533 10.6443 11.3362 12.4998 11.3362C14.3553 11.3362 15.8648 9.81533 15.8648 7.94585C15.8648 6.07642 14.3553 4.55552 12.4998 4.55552Z" fill="#FCCB05"/>
<path d="M24.9725 24.4908L21.3687 15.7669C21.3121 15.6297 21.1791 15.5404 21.0317 15.5404H17.4405C18.139 14.5883 18.7204 13.64 19.1745 12.7089C19.9791 11.0588 20.3871 9.45635 20.3871 7.9459C20.3871 3.5645 16.8492 0 12.5005 0C8.15179 0 4.61389 3.5645 4.61389 7.94585C4.61389 9.4563 5.02185 11.0588 5.82654 12.7089C6.28055 13.64 6.86194 14.5883 7.56048 15.5403H3.96931C3.82185 15.5403 3.68885 15.6297 3.63225 15.7668L1.17659 21.7115C1.0991 21.8991 1.18718 22.1144 1.37336 22.1924C1.41926 22.2117 1.46672 22.2208 1.5135 22.2208C1.65657 22.2208 1.79236 22.1355 1.85071 21.9942L2.2011 21.1459H4.68675L3.39866 24.2642H0.913061L1.28645 23.3603C1.36394 23.1727 1.27585 22.9573 1.08967 22.8793C0.903393 22.8011 0.689721 22.89 0.61228 23.0775L0.0285391 24.4908C-0.0183848 24.6043 -0.00588474 24.734 0.0618888 24.8362C0.129565 24.9385 0.24353 25 0.3656 25H24.6353C24.7574 25 24.8714 24.9385 24.9391 24.8362C25.0068 24.734 25.0194 24.6043 24.9725 24.4908ZM5.34417 7.94585C5.34417 3.97017 8.55447 0.735742 12.5005 0.735742C16.4465 0.735742 19.6568 3.97022 19.6568 7.94585C19.6568 9.61299 19.0818 12.2771 16.4222 15.672C16.4195 15.6751 16.4171 15.6785 16.4145 15.6818C16.2787 15.855 16.1376 16.03 15.9907 16.207C14.5291 17.9679 13.0501 19.2537 12.5004 19.7105C11.9523 19.2552 10.4803 17.9759 9.01981 16.2184C8.86922 16.0372 8.72479 15.8581 8.58577 15.6808C8.58353 15.678 8.58143 15.675 8.57908 15.6723C5.91951 12.2776 5.34417 9.61362 5.34417 7.94585ZM4.21282 16.2761H6.69852L5.79187 18.4708H3.30623L4.21282 16.2761ZM6.34798 24.2643L8.63026 18.7395L15.1251 24.2643H6.34798ZM16.2571 24.2643L8.72034 17.8531C8.63138 17.7774 8.51185 17.749 8.39886 17.7767C8.28577 17.8042 8.19241 17.8846 8.14774 17.9928L5.55706 24.2642H4.18968L5.57132 20.9194C5.61824 20.8059 5.60574 20.6762 5.53797 20.5739C5.47029 20.4716 5.35628 20.4102 5.23421 20.4102H2.50515L3.00232 19.2065H6.03543C6.18289 19.2065 6.3159 19.1171 6.37249 18.98L7.48948 16.2761H8.12318C8.23318 16.4143 8.345 16.5525 8.4598 16.6907C10.3438 18.9578 12.199 20.4133 12.277 20.4742C12.3429 20.5255 12.4217 20.5511 12.5005 20.5511C12.5793 20.5511 12.6581 20.5254 12.7239 20.4742C12.7668 20.4407 13.3468 19.9855 14.1728 19.2066H18.3076C18.5093 19.2066 18.6727 19.0419 18.6727 18.8387C18.6727 18.6355 18.5093 18.4708 18.3076 18.4708H14.9253C15.4316 17.958 15.9849 17.3601 16.5412 16.6907C16.656 16.5525 16.7679 16.4144 16.8778 16.2761H20.7881L21.6947 18.4708H19.7681C19.5664 18.4708 19.403 18.6355 19.403 18.8387C19.403 19.0419 19.5664 19.2066 19.7681 19.2066H21.9986L22.4958 20.4102H14.9728C14.8204 20.4102 14.6841 20.5055 14.6307 20.6494C14.5775 20.7932 14.6184 20.9553 14.7335 21.0559L18.4021 24.2643H16.2571ZM19.5162 24.2643L15.9505 21.146H22.7998L24.0879 24.2643H19.5162Z" fill="#FCCB05"/>
</g>
<defs>
<clipPath id="clip0">
<rect width="25" height="25" fill="white"/>
</clipPath>
</defs>
</svg>
