<svg width="40" height="40" viewBox="0 0 40 40" fill="none" xmlns="http://www.w3.org/2000/svg">
<g clip-path="url(#clip0)">
<path d="M28.9624 14.4829L26.5487 8.45338C26.3397 7.93064 25.8335 7.5872 25.2701 7.5865H23.4453L26.2039 14.4829H28.9624Z" fill="#E38100"/>
<path d="M28.9624 25.5171H26.2038L23.4453 32.4136H25.2701C25.8335 32.4129 26.3397 32.0694 26.5487 31.5467L28.9624 25.5171Z" fill="#E38100"/>
<path d="M38.4298 25.0862L39.445 22.7166C40.185 20.9815 40.185 19.0187 39.445 17.2836L38.4333 14.914C37.274 12.1885 34.4975 10.5133 31.5458 10.7589L19.997 11.7244L8.14555 10.7326C5.34281 10.5009 2.68148 12.0022 1.43117 14.5215L1.16016 15.0657C-0.386719 18.1732 -0.386719 21.8269 1.16016 24.9345L1.43117 25.4787C2.68148 27.998 5.34281 29.4993 8.14555 29.2676L19.997 28.2758L31.5486 29.2413C34.4982 29.4841 37.2713 27.8097 38.4298 25.0862Z" fill="#FCCB05"/>
<path d="M30.9556 29.1931C36.0734 25.3125 38.3485 18.7305 36.7189 12.5181C37.4555 13.1836 38.0396 14.0009 38.4299 14.914L39.4451 17.2836C40.1851 19.0188 40.1851 20.9815 39.4451 22.7167L38.4334 25.0863C37.2741 27.8118 34.4976 29.4869 31.5459 29.2414L30.9556 29.1931Z" fill="#E38100"/>
<path d="M28.8117 14.6592L28.6965 14.4826C28.4138 14.0564 27.9186 13.8219 27.4096 13.873L21.3677 14.4826V25.5169L27.4096 26.1238C27.9179 26.1755 28.4131 25.9417 28.6965 25.5169L28.8117 25.3431C30.962 22.1067 30.962 17.8964 28.8117 14.6592Z" fill="#23AEC8"/>
<path d="M28.8756 14.7632C30.9591 17.9879 30.9342 22.141 28.8122 25.3402L28.697 25.5168C28.4143 25.9429 27.9191 26.1775 27.4102 26.1264L22.7896 25.6622C26.2246 23.0161 28.4246 19.0762 28.8756 14.7632Z" fill="#1967A3"/>
<path d="M11.7214 14.4831V25.5175L8.5435 26.0471C7.96834 26.1429 7.39451 25.8671 7.11107 25.3575L6.36834 24.0203C4.97943 21.521 4.97943 18.481 6.36834 15.9817L7.11107 14.6446C7.39451 14.1349 7.96826 13.8591 8.5435 13.9549L11.7214 14.4831Z" fill="#23AEC8"/>
<path d="M7.11127 25.3566L6.73682 24.6828C9.12784 21.9725 10.8367 18.7305 11.7216 15.2264V25.5172L8.5437 26.0468C7.96846 26.1435 7.39471 25.8669 7.11127 25.3566Z" fill="#1967A3"/>
<path d="M36.2403 15.9783L32.1021 13.2197L31.3369 14.3675L35.4751 17.1261L36.2403 15.9783Z" fill="#555160"/>
<path d="M36.2417 24.0238L35.4766 22.876L31.3384 25.6346L32.1035 26.7824L36.2417 24.0238Z" fill="#555160"/>
</g>
<defs>
<clipPath id="clip0">
<rect width="40" height="40" fill="white" transform="translate(0 40) rotate(-90)"/>
</clipPath>
</defs>
</svg>
